<svg width="216" height="58" viewBox="0 0 216 58" fill="none" xmlns="http://www.w3.org/2000/svg">
<g clip-path="url(#clip0)">
<path d="M98.687 0.375H0.378906V57.625H98.687V0.375Z" fill="#FFA500"/>
<path d="M0 0V58H99.0658V0H0ZM98.3081 57.25H0.757673V0.75H98.3081V57.25Z" fill="#2A2960"/>
<path d="M98.3081 19.0625C98.3081 24.65 95.1259 29.5625 90.3273 32.3875C89.3044 33 88.1932 33.5 87.0314 33.9C85.0994 34.5625 83.0031 34.9375 80.8185 34.9375C75.2749 34.9375 70.3374 32.6 67.1425 28.95C66.208 27.8875 65.4125 26.7 64.8063 25.4375C64.7432 25.3125 64.6927 25.2 64.6422 25.075C64.7053 25.175 64.7685 25.2875 64.8316 25.3875C64.9074 25.5 64.9831 25.6125 65.0589 25.7125C65.1978 25.9 65.3493 26.0875 65.5009 26.2625C65.7029 26.5125 65.9176 26.7625 66.1323 26.9875C67.5087 28.425 69.3145 29.45 71.3476 29.875C72.0169 30.0125 72.7114 30.0875 73.4059 30.0875C77.0554 30.0875 80.2629 28.15 82.0182 25.2625C82.9274 23.7625 83.4577 22.0125 83.4577 20.1375C83.4577 16.625 81.6141 13.525 78.8233 11.7625C77.5858 11.1375 76.2851 10.65 74.9339 10.3125C73.4565 9.9375 71.9285 9.75 70.35 9.75C68.9735 9.75 67.635 9.9 66.3343 10.1875C57.2044 12.1875 50.3222 20.8625 50.3222 31.275C50.3222 39.5125 54.6156 46.6625 60.9296 50.275C61.1821 50.425 61.4347 50.5625 61.6999 50.7C63.0006 51.3625 64.3644 51.8875 65.7913 52.25C66.7637 52.6 67.7234 52.8375 68.6831 52.9875C68.8346 53.0125 68.9862 53.0375 69.1251 53.05C69.466 53.125 69.807 53.1625 70.1732 53.1625C70.2616 53.1625 70.3626 53.1625 70.451 53.15C72.522 53.225 74.4162 52.8125 75.9315 51.9375C76.1336 51.825 76.323 51.7 76.4998 51.575C77.2448 51.05 77.8762 50.4 78.3434 49.625L78.3561 49.6125C78.4823 49.4125 78.596 49.2 78.697 48.975V48.9625C78.9748 48.35 79.1643 47.7 79.24 47.025C79.3158 47.4875 79.3537 47.9625 79.3537 48.45C79.3537 49.2 79.2527 49.9375 79.0759 50.6375C79.038 50.7625 79.0127 50.9 78.9622 51.025C78.798 51.575 78.5707 52.1 78.3056 52.6C76.765 55.4875 73.6711 57.25 70.3752 57.25H23.5637C23.7657 57.225 23.9804 57.2 24.3087 57.15C24.6749 57.1 25.0033 57.025 25.3695 56.95C26.506 56.6375 28.88 56.075 29.6377 54.3875C30.307 52.825 28.7537 51.625 29.6377 49.625C30.2312 48.1625 31.5571 47.6 31.3425 46.6C31.1151 45.7875 30.0797 45.575 30.0797 45.0375C30.2059 44.375 31.4435 44.475 32.0117 43.575C32.8199 42.325 31.1909 41.0125 31.8854 39.8875C32.6052 38.5375 34.9414 39.45 35.737 38.325C36.1789 37.5125 35.737 36.5375 33.4892 32.075C31.4435 27.975 31.2162 27.625 31.2162 26.95C31.5571 21.35 34.9414 21.475 32.2517 13.4375C31.5571 10.7125 28.135 3.4375 22.5029 0.75H74.252C80.7301 0.75 86.7031 2.8875 91.4891 6.4875L91.5017 6.5C92.2594 7.0625 92.9792 7.6625 93.6611 8.3C96.5529 11.125 98.3081 14.9125 98.3081 19.0625Z" fill="#2A2960"/>
<path d="M83.4452 20.1501C83.4452 22.0251 82.9274 23.7751 82.0056 25.2751C80.2503 28.1626 77.0555 30.0876 73.3934 30.0876C72.6862 30.0876 71.9917 30.0126 71.335 29.8751C69.3019 29.4501 67.4961 28.4251 66.1197 26.9876C66.1071 26.9501 66.0818 26.9001 66.0692 26.8626C66.4733 27.2376 66.9279 27.5626 67.3951 27.8251C67.5466 27.9126 67.6982 27.9876 67.8497 28.0626C68.8347 28.5376 69.9081 28.8001 70.9941 28.8376C72.1179 28.8751 73.2418 28.6626 74.3026 28.2001C74.3026 28.2001 74.3026 28.2001 74.3152 28.2001C75.237 27.8501 76.121 27.2251 76.866 26.3751L76.8787 26.3626C76.8787 26.3626 76.8787 26.3626 76.8913 26.3501C78.4698 24.6251 79.1138 22.2751 78.735 20.0376C78.5455 18.9376 78.1036 17.8751 77.409 16.9126C76.8913 16.2001 76.2725 15.6126 75.5906 15.1376C75.4896 15.0626 75.3759 15.0001 75.2749 14.9251C75.2623 14.9251 75.2623 14.9126 75.2497 14.9126C74.9087 14.7001 74.5551 14.5251 74.1889 14.3751C73.406 14.0251 72.5726 13.7751 71.7139 13.6501C64.175 12.4626 56.674 20.1376 54.9566 30.8001C53.6307 39.0876 56.1815 46.7251 60.917 50.2876C54.6031 46.6626 50.3096 39.5126 50.3096 31.2876C50.3096 20.8751 57.1918 12.1876 66.3217 10.2001C67.6224 9.91257 68.961 9.76257 70.3374 9.76257C71.9159 9.76257 73.4439 9.96257 74.9213 10.3251C76.2725 10.6626 77.5732 11.1501 78.8107 11.7751C81.6015 13.5376 83.4452 16.6251 83.4452 20.1501Z" fill="url(#paint0_linear)"/>
<path d="M78.4318 23.1375C78.6718 21.65 78.2677 20.25 77.2196 19.425C75.9315 18.4125 74.0247 18.525 72.3704 19.55C72.3704 19.55 72.3578 19.55 72.3578 19.5625C71.7391 19.95 71.1455 20.4625 70.6404 21.1C70.5647 21.2 70.4889 21.2875 70.4258 21.3875C69.1756 22.95 68.1275 25.125 67.4203 27.8375C66.9531 27.5625 66.4985 27.25 66.0944 26.875C65.8923 26.6875 65.6903 26.4875 65.5009 26.275C65.261 25.975 65.0463 25.675 64.8569 25.35C64.7179 25.125 64.5917 24.9 64.4654 24.675C64.5159 24.8125 64.579 24.95 64.6422 25.0875C64.6927 25.2125 64.7558 25.325 64.8063 25.45C65.4125 26.7125 66.208 27.8875 67.1425 28.9625C65.3999 37.1 67.3193 46.5 71.5623 50.2375C71.638 50.3125 71.7264 50.375 71.8022 50.4375C72.1558 50.7625 72.5599 51.0375 73.0145 51.225C73.0145 51.225 73.0145 51.225 73.0271 51.225C73.5575 51.45 74.1384 51.575 74.7445 51.575C76.2598 51.575 77.5858 50.8 78.3561 49.6375C77.8762 50.4125 77.2574 51.0625 76.5124 51.5875C76.323 51.7125 76.1336 51.8375 75.9441 51.95C74.4288 52.8125 72.522 53.225 70.4636 53.1625C70.3752 53.1625 70.2742 53.175 70.1858 53.175C69.8322 53.175 69.4787 53.1375 69.1377 53.0625C68.9862 53.05 68.8346 53.025 68.6957 53C68.5189 52.9125 68.3422 52.825 68.178 52.725C68.178 52.725 68.178 52.725 68.1654 52.725C67.7992 52.525 67.4582 52.3 67.1172 52.05C67.1172 52.05 67.1173 52.05 67.1046 52.0375C62.6091 48.6375 60.374 40.7375 61.9903 32.175C62.9627 26.9875 65.1726 22.5375 67.9633 19.475C67.9759 19.4625 67.9886 19.45 68.0012 19.4375C68.3422 19.0375 68.6957 18.6875 69.0746 18.3625C71.5875 16.225 74.8329 15.725 76.9039 17.3625C77.712 18 78.2298 18.8625 78.495 19.8625C78.7475 20.85 78.7223 21.9875 78.4318 23.1375Z" fill="url(#paint1_linear)"/>
<path d="M78.4315 23.1376C78.722 21.9876 78.7346 20.8501 78.482 19.8376C78.2295 18.8376 77.6991 17.9626 76.8909 17.3376C74.8073 15.7001 71.5746 16.1876 69.0616 18.3376C68.6828 18.6626 68.3166 19.0251 67.9883 19.4126C67.9756 19.4251 67.963 19.4376 67.9504 19.4501C65.147 22.5126 62.9497 26.9751 61.9774 32.1501C60.3736 40.7001 62.5962 48.6126 67.0917 52.0126C67.0917 52.0126 67.1043 52.0126 67.1043 52.0251C67.42 52.3001 67.7736 52.5251 68.1524 52.7001C68.1524 52.7001 68.1524 52.7001 68.165 52.7001C68.3418 52.8001 68.5186 52.8876 68.6828 52.9751C67.7357 52.8251 66.7634 52.5751 65.791 52.2376C64.3641 51.8876 62.9876 51.3626 61.6996 50.6876C61.4344 50.5501 61.1818 50.4126 60.9293 50.2626C56.1812 46.7126 53.6304 39.0626 54.9689 30.7751C56.6863 20.1126 64.1873 12.4376 71.7261 13.6251C72.5974 13.7626 73.4182 14.0126 74.2012 14.3501C74.5674 14.5126 74.921 14.6876 75.2619 14.8876C75.2746 14.8876 75.2746 14.9001 75.2872 14.9001C75.3882 14.9626 75.5019 15.0376 75.6029 15.1126C76.2848 15.5876 76.9035 16.1751 77.4213 16.8876C78.1158 17.8501 78.5578 18.9251 78.7472 20.0126C79.1387 22.2501 78.482 24.5876 76.9035 26.3251C76.9541 26.2626 77.0046 26.2001 77.0677 26.1376C77.8001 25.2251 78.2674 24.1626 78.4315 23.1376C78.4315 23.1501 78.4315 23.1501 78.4315 23.1376Z" fill="url(#paint2_linear)"/>
<path d="M28.2361 38.3125C27.4405 39.4375 25.1044 38.5375 24.3846 39.875C23.6901 41 25.3191 42.3125 24.5109 43.5625C23.9426 44.4625 22.7051 44.3625 22.5788 45.025C22.5788 45.5625 23.6143 45.7875 23.8416 46.5875C24.0689 47.5875 22.7303 48.15 22.1368 49.6125C21.2529 51.6125 22.8061 52.8125 22.1368 54.375C21.3665 56.0625 19.0051 56.625 17.8686 56.9375C17.5024 57.0125 17.1741 57.0875 16.8079 57.1375C16.4922 57.1875 16.2649 57.2125 16.0628 57.2375H0.757812V0.75H15.0147C20.6467 3.4375 24.0689 10.7125 24.7634 13.425C27.4532 21.4625 24.0689 21.3375 23.7279 26.9375C23.7279 27.625 23.9552 27.9625 26.001 32.0625C28.2361 36.5375 28.6907 37.5125 28.2361 38.3125Z" fill="#2A2960"/>
<path d="M118.791 14.4625V33.425H115.141V21.55L107.994 33.425H104.824V14.4625H108.474V26.725L115.709 14.4625H118.791V14.4625Z" fill="#2A2960"/>
<path d="M122.769 33.425V19.4H128.464C130.333 19.4 131.595 19.7625 132.265 20.4875C132.934 21.2125 133.262 22.0375 133.262 22.95C133.262 24.3125 132.58 25.3 131.204 25.9C133.073 26.5375 134.02 27.7375 134.02 29.5C134.02 30.45 133.767 31.2375 133.275 31.8625C132.782 32.4875 132.151 32.9 131.393 33.1125C130.636 33.325 129.575 33.425 128.211 33.425H122.769ZM126.33 24.9125H127.706C128.287 24.9125 128.742 24.7625 129.057 24.475C129.373 24.1875 129.537 23.8625 129.537 23.5125C129.537 22.9875 129.386 22.575 129.082 22.2875C128.779 22 128.413 21.85 127.996 21.85L127.542 21.8625H126.342V24.9125H126.33ZM126.33 30.7125H128.123C128.817 30.7125 129.31 30.55 129.588 30.225C129.865 29.9 130.017 29.5875 130.017 29.275C130.017 28.825 129.853 28.4 129.537 28.025C129.221 27.65 128.641 27.4625 127.82 27.4625H126.33V30.7125V30.7125Z" fill="#2A2960"/>
<path d="M147.494 19.4H151.055V33.425H147.494V31.9375C146.799 32.5875 146.105 33.0625 145.41 33.35C144.716 33.6375 143.958 33.7875 143.137 33.7875C141.306 33.7875 139.728 33.0875 138.389 31.675C137.051 30.275 136.381 28.525 136.381 26.4375C136.381 24.275 137.025 22.5 138.313 21.1125C139.601 19.725 141.18 19.0375 143.024 19.0375C143.87 19.0375 144.665 19.2 145.41 19.5125C146.155 19.825 146.85 20.3125 147.481 20.9375V19.4H147.494ZM143.756 22.2875C142.657 22.2875 141.748 22.675 141.016 23.4375C140.283 24.2125 139.93 25.1875 139.93 26.4C139.93 27.6125 140.296 28.6125 141.041 29.3875C141.786 30.175 142.695 30.5625 143.769 30.5625C144.88 30.5625 145.814 30.175 146.547 29.4125C147.279 28.6375 147.645 27.6375 147.645 26.3875C147.645 25.1625 147.279 24.175 146.547 23.425C145.814 22.6625 144.88 22.2875 143.756 22.2875Z" fill="#2A2960"/>
<path d="M158.19 24.45H163.506V19.4H167.067V33.425H163.506V27.6125H158.19V33.425H154.629V19.4H158.19V24.45Z" fill="#2A2960"/>
<path d="M177.308 19.0375C178.647 19.0375 179.897 19.3625 181.084 20.025C182.259 20.6875 183.18 21.5875 183.837 22.725C184.494 23.8625 184.822 25.0875 184.822 26.4C184.822 27.725 184.494 28.9625 183.824 30.1125C183.155 31.2625 182.259 32.1625 181.109 32.8125C179.96 33.4625 178.697 33.7875 177.321 33.7875C175.288 33.7875 173.558 33.075 172.118 31.6375C170.679 30.2125 169.959 28.475 169.959 26.425C169.959 24.2375 170.767 22.4125 172.396 20.95C173.823 19.675 175.452 19.0375 177.308 19.0375ZM177.359 22.35C176.26 22.35 175.338 22.725 174.606 23.4875C173.874 24.25 173.507 25.225 173.507 26.4125C173.507 27.6375 173.874 28.625 174.593 29.375C175.313 30.125 176.235 30.5125 177.346 30.5125C178.458 30.5125 179.379 30.125 180.124 29.3625C180.869 28.6 181.236 27.6125 181.236 26.4125C181.236 25.2125 180.869 24.2375 180.15 23.475C179.417 22.725 178.495 22.35 177.359 22.35Z" fill="#2A2960"/>
<path d="M187.714 33.425V19.4H193.409C195.278 19.4 196.541 19.7625 197.21 20.4875C197.879 21.2125 198.208 22.0375 198.208 22.95C198.208 24.3125 197.526 25.3 196.149 25.9C198.018 26.5375 198.965 27.7375 198.965 29.5C198.965 30.45 198.713 31.2375 198.22 31.8625C197.728 32.4875 197.096 32.9 196.339 33.1125C195.581 33.3125 194.52 33.425 193.156 33.425H187.714ZM191.275 24.9125H192.651C193.232 24.9125 193.687 24.7625 194.003 24.475C194.318 24.1875 194.482 23.8625 194.482 23.5125C194.482 22.9875 194.331 22.575 194.028 22.2875C193.725 22 193.359 21.85 192.942 21.85L192.487 21.8625H191.288V24.9125H191.275ZM191.275 30.7125H193.068C193.763 30.7125 194.255 30.55 194.533 30.225C194.811 29.9 194.962 29.5875 194.962 29.275C194.962 28.825 194.798 28.4 194.482 28.025C194.167 27.65 193.586 27.4625 192.765 27.4625H191.275V30.7125V30.7125Z" fill="#2A2960"/>
<path d="M212.452 19.4H216.013V33.425H212.452V31.9375C211.757 32.5875 211.063 33.0625 210.368 33.35C209.674 33.6375 208.916 33.7875 208.095 33.7875C206.264 33.7875 204.686 33.0875 203.347 31.675C202.009 30.275 201.339 28.525 201.339 26.4375C201.339 24.275 201.983 22.5 203.271 21.1125C204.559 19.725 206.138 19.0375 207.982 19.0375C208.828 19.0375 209.623 19.2 210.368 19.5125C211.113 19.825 211.808 20.3125 212.439 20.9375V19.4H212.452ZM208.714 22.2875C207.615 22.2875 206.706 22.675 205.974 23.4375C205.241 24.2125 204.888 25.1875 204.888 26.4C204.888 27.6125 205.254 28.6125 205.999 29.3875C206.744 30.175 207.653 30.5625 208.727 30.5625C209.838 30.5625 210.772 30.175 211.505 29.4125C212.237 28.6375 212.603 27.6375 212.603 26.3875C212.603 25.1625 212.237 24.175 211.505 23.425C210.76 22.6625 209.838 22.2875 208.714 22.2875Z" fill="#2A2960"/>
<path d="M104.824 38.625H108.524V45.775H114.914V38.625H118.601V57.5875H114.914V49.275H108.524V57.5875H104.824V38.625Z" fill="#2A2960"/>
<path d="M133.048 43.55H136.609V57.575H133.048V56.0875C132.353 56.7375 131.659 57.2125 130.964 57.5C130.269 57.7875 129.512 57.9375 128.691 57.9375C126.86 57.9375 125.281 57.2375 123.943 55.825C122.604 54.425 121.935 52.675 121.935 50.5875C121.935 48.425 122.579 46.65 123.867 45.2625C125.155 43.875 126.734 43.1875 128.577 43.1875C129.423 43.1875 130.219 43.35 130.964 43.6625C131.709 43.975 132.404 44.4625 133.035 45.0875V43.55H133.048ZM129.31 46.4375C128.211 46.4375 127.302 46.825 126.57 47.5875C125.837 48.3625 125.484 49.3375 125.484 50.55C125.484 51.7625 125.85 52.7625 126.595 53.5375C127.34 54.325 128.249 54.7125 129.322 54.7125C130.434 54.7125 131.368 54.325 132.101 53.5625C132.833 52.7875 133.199 51.7875 133.199 50.5375C133.199 49.3125 132.833 48.325 132.101 47.575C131.368 46.825 130.434 46.4375 129.31 46.4375Z" fill="#2A2960"/>
<path d="M140.195 57.5751V43.55H145.89C147.759 43.55 149.022 43.9126 149.691 44.6376C150.36 45.3626 150.689 46.1875 150.689 47.1001C150.689 48.4626 150.007 49.4501 148.63 50.0501C150.499 50.6876 151.446 51.8876 151.446 53.6501C151.446 54.6001 151.194 55.3876 150.701 56.0126C150.209 56.6376 149.577 57.0501 148.82 57.2626C148.062 57.4626 147.001 57.5751 145.637 57.5751H140.195V57.5751ZM143.743 49.0751H145.12C145.701 49.0751 146.155 48.9251 146.471 48.6376C146.787 48.3501 146.951 48.0251 146.951 47.6751C146.951 47.1501 146.799 46.7376 146.496 46.4501C146.193 46.1626 145.827 46.0126 145.41 46.0126L144.956 46.0251H143.756V49.0751H143.743ZM143.743 54.8751H145.536C146.231 54.8751 146.723 54.7126 147.001 54.3876C147.279 54.0626 147.431 53.7501 147.431 53.4376C147.431 52.9876 147.266 52.5626 146.951 52.1876C146.635 51.8126 146.054 51.6251 145.233 51.6251H143.743V54.8751V54.8751Z" fill="#2A2960"/>
<path d="M164.92 43.55H168.481V57.575H164.92V56.0875C164.226 56.7375 163.531 57.2125 162.837 57.5C162.142 57.7875 161.384 57.9375 160.564 57.9375C158.732 57.9375 157.154 57.2375 155.815 55.825C154.477 54.425 153.808 52.675 153.808 50.5875C153.808 48.425 154.452 46.65 155.74 45.2625C157.028 43.875 158.606 43.1875 160.45 43.1875C161.296 43.1875 162.092 43.35 162.837 43.6625C163.582 43.975 164.276 44.4625 164.908 45.0875V43.55H164.92ZM161.182 46.4375C160.084 46.4375 159.174 46.825 158.442 47.5875C157.71 48.3625 157.356 49.3375 157.356 50.55C157.356 51.7625 157.722 52.7625 158.467 53.5375C159.212 54.325 160.122 54.7125 161.195 54.7125C162.306 54.7125 163.241 54.325 163.973 53.5625C164.705 52.7875 165.072 51.7875 165.072 50.5375C165.072 49.3125 164.705 48.325 163.973 47.575C163.241 46.825 162.306 46.4375 161.182 46.4375Z" fill="#2A2960"/>
<path d="M173.949 57.575H172.055V43.55H175.515V51.7875L182.764 43.55H184.468V57.575H181.008V49.5125L173.949 57.575ZM173.053 37.3625H175.932C176.159 37.7125 176.475 37.975 176.879 38.15C177.283 38.325 177.776 38.4125 178.356 38.4125C178.95 38.4125 179.48 38.3125 179.96 38.1C180.276 37.9625 180.541 37.7125 180.781 37.35H183.66C183.496 38.4375 182.966 39.3125 182.082 39.975C181.198 40.6375 179.948 40.9625 178.356 40.9625C177.283 40.9625 176.374 40.8125 175.654 40.5125C174.934 40.2125 174.341 39.7875 173.899 39.2375C173.444 38.725 173.166 38.0875 173.053 37.3625Z" fill="#2A2960"/>
<path d="M105.013 9.51255V0.175049H109.951V1.91255H106.819V3.70005H107.21C108.006 3.70005 108.65 3.78755 109.155 3.96255C109.66 4.13755 110.077 4.46255 110.418 4.93755C110.759 5.41255 110.923 5.98755 110.923 6.63755C110.923 7.28755 110.797 7.81255 110.544 8.20005C110.292 8.58755 109.951 8.90005 109.496 9.15005C109.054 9.38755 108.435 9.51255 107.665 9.51255H105.013ZM106.806 5.28755V7.82505H107.261C108.082 7.82505 108.6 7.72505 108.814 7.51255C109.029 7.30005 109.143 7.01255 109.143 6.65005C109.143 5.75005 108.486 5.28755 107.185 5.28755H106.806Z" fill="black"/>
<path d="M114.042 9.5125H112.287V2.6125H114.042V5.35H114.976C115.191 4.4375 115.633 3.725 116.315 3.2125C116.997 2.7 117.729 2.4375 118.525 2.4375C119.548 2.4375 120.419 2.7875 121.139 3.4875C121.859 4.1875 122.225 5.05 122.225 6.0625C122.225 7.0625 121.871 7.9125 121.177 8.625C120.469 9.3375 119.598 9.7 118.537 9.7C117.691 9.7 116.934 9.4375 116.264 8.9125C115.595 8.3875 115.166 7.725 114.976 6.9375H114.042V9.5125V9.5125ZM120.457 6.0625C120.457 5.475 120.28 4.9875 119.926 4.6125C119.573 4.2375 119.106 4.0625 118.55 4.0625C118.007 4.0625 117.552 4.25 117.186 4.6375C116.833 5.025 116.656 5.4875 116.656 6.05C116.656 6.65 116.833 7.1375 117.186 7.5125C117.54 7.8875 117.994 8.0625 118.55 8.0625C119.093 8.0625 119.548 7.875 119.914 7.5125C120.28 7.15 120.457 6.6625 120.457 6.0625Z" fill="black"/>
<path d="M125.395 2.6125V3.375C125.71 3.0625 126.051 2.825 126.417 2.675C126.784 2.5125 127.175 2.4375 127.592 2.4375C128.501 2.4375 129.271 2.775 129.915 3.4625C130.547 4.15 130.875 5.0125 130.875 6.0875C130.875 7.1125 130.547 7.975 129.89 8.6625C129.233 9.35 128.45 9.7 127.554 9.7C127.15 9.7 126.784 9.625 126.43 9.4875C126.076 9.35 125.735 9.1125 125.395 8.7875V12.05H123.652V2.6125H125.395ZM127.238 4.025C126.683 4.025 126.228 4.2125 125.862 4.5875C125.496 4.9625 125.319 5.45 125.319 6.05C125.319 6.6625 125.496 7.1625 125.862 7.5375C126.228 7.9125 126.683 8.1 127.238 8.1C127.769 8.1 128.223 7.9125 128.589 7.525C128.956 7.1375 129.132 6.65 129.132 6.05C129.132 5.4625 128.956 4.975 128.589 4.5875C128.236 4.2125 127.781 4.025 127.238 4.025Z" fill="black"/>
<path d="M135.598 2.42505C136.254 2.42505 136.873 2.58755 137.454 2.91255C138.035 3.23755 138.49 3.67505 138.805 4.23755C139.134 4.80005 139.298 5.40005 139.298 6.05005C139.298 6.70005 139.134 7.31255 138.805 7.87505C138.477 8.43755 138.035 8.88755 137.467 9.20005C136.899 9.51255 136.28 9.67505 135.598 9.67505C134.6 9.67505 133.742 9.32505 133.034 8.61255C132.327 7.91255 131.974 7.05005 131.974 6.05005C131.974 4.97505 132.378 4.07505 133.173 3.35005C133.88 2.73755 134.689 2.42505 135.598 2.42505ZM135.636 4.06255C135.093 4.06255 134.638 4.25005 134.272 4.62505C133.906 5.00005 133.729 5.47505 133.729 6.06255C133.729 6.66255 133.906 7.15005 134.259 7.52505C134.613 7.90005 135.067 8.08755 135.623 8.08755C136.166 8.08755 136.633 7.90005 136.987 7.52505C137.353 7.15005 137.53 6.66255 137.53 6.07505C137.53 5.48755 137.353 5.00005 137 4.62505C136.646 4.25005 136.191 4.06255 135.636 4.06255Z" fill="black"/>
</g>
<defs>
<linearGradient id="paint0_linear" x1="44.8695" y1="33.6588" x2="91.6818" y2="24.9407" gradientUnits="userSpaceOnUse">
<stop stop-color="white" stop-opacity="0"/>
<stop offset="0.0207057" stop-color="#F6F6F8" stop-opacity="0.0218329"/>
<stop offset="0.1562" stop-color="#C1C0D0" stop-opacity="0.1647"/>
<stop offset="0.293" stop-color="#9292AE" stop-opacity="0.3089"/>
<stop offset="0.4286" stop-color="#6D6C92" stop-opacity="0.452"/>
<stop offset="0.5628" stop-color="#504F7C" stop-opacity="0.5935"/>
<stop offset="0.6951" stop-color="#3B3A6C" stop-opacity="0.733"/>
<stop offset="0.8247" stop-color="#2E2D63" stop-opacity="0.8696"/>
<stop offset="0.9484" stop-color="#2A2960"/>
</linearGradient>
<linearGradient id="paint1_linear" x1="67.5198" y1="51.7966" x2="76.1713" y2="15.2655" gradientUnits="userSpaceOnUse">
<stop stop-color="white" stop-opacity="0"/>
<stop offset="0.0985502" stop-color="#DDDDE5" stop-opacity="0.0985502"/>
<stop offset="0.2711" stop-color="#A7A7BD" stop-opacity="0.2711"/>
<stop offset="0.4397" stop-color="#7A7A9C" stop-opacity="0.4397"/>
<stop offset="0.6005" stop-color="#575782" stop-opacity="0.6005"/>
<stop offset="0.7515" stop-color="#3E3D6F" stop-opacity="0.7515"/>
<stop offset="0.8888" stop-color="#2F2E64" stop-opacity="0.8888"/>
<stop offset="1" stop-color="#2A2960"/>
</linearGradient>
<linearGradient id="paint2_linear" x1="58.2725" y1="51.2302" x2="71.6632" y2="12.6533" gradientUnits="userSpaceOnUse">
<stop stop-color="white" stop-opacity="0"/>
<stop offset="0.3506" stop-color="#AAA9BF" stop-opacity="0.3506"/>
<stop offset="0.6626" stop-color="#65648C" stop-opacity="0.6626"/>
<stop offset="0.8863" stop-color="#3A396C" stop-opacity="0.8863"/>
<stop offset="1" stop-color="#2A2960"/>
</linearGradient>
<clipPath id="clip0">
<rect width="216" height="58" fill="white"/>
</clipPath>
</defs>
</svg>
