<?xml version="1.0" encoding="utf-8"?>
<!-- Generator: Adobe Illustrator 24.1.1, SVG Export Plug-In . SVG Version: 6.00 Build 0)  -->
<svg version="1.1" id="Слой_1" xmlns="http://www.w3.org/2000/svg" xmlns:xlink="http://www.w3.org/1999/xlink" x="0px" y="0px"
	 viewBox="0 0 824.3 621.3" enable-background="new 0 0 824.3 621.3" xml:space="preserve">
<path fill="none" stroke="#000000" stroke-width="11" stroke-linecap="round" stroke-miterlimit="10" d="M68.7,615.8
	c0.3-0.1,0.6-0.2,0.9-0.3c13.1-3.8,32.8-10.8,40.2-26.3c7.2-16.9-9.7-30,0-51.8c2.9-7.9,8-13.4,12-18.3c4.1-4.9,7.1-9.2,5.9-14.5
	c-2.4-8.6-13.1-11-13.1-16.9c1-7.3,14.5-6.2,20.4-15.9c8.6-13.5-8.3-28-1-40c4.2-8.5,14.7-8.7,24.3-9.8c0.1,0,0.1,0,0.2,0
	c12.1-1.4,19.7-13.8,15.6-25.3c-3.5-9.8-10.8-24.8-23.2-49.7c-21.7-44.5-24.2-48.3-24.2-55.6c3.5-60.7,40-59.4,10.7-146.7
	C129.1,110.8,81.8,23.6,5.6,5.5c0,0-0.1,0-0.1,0"/>
<path fill="none" stroke="#000000" stroke-width="11" stroke-linecap="round" stroke-miterlimit="10" d="M581.8,367.4
	c0,0.5,0,1,0,1.5v0.2c-0.1,16.2-13.3,29.3-29.5,29.3c-16.3,0-29.5-13.2-29.5-29.5v0c0-16.3,13.2-29.5,29.5-29.5
	C568.1,339.5,581,351.8,581.8,367.4L581.8,367.4z"/>
<path fill="none" stroke="#000000" stroke-width="11" stroke-linecap="round" stroke-miterlimit="10" d="M459.7,164.5
	c1.1,4.2,1.3,8.6,0.7,13c-0.4,2.8-0.8,5.7-1.4,8.5c-0.7,3.7-2,7.2-4,10.4c-7.1,11.5-19.6,19.2-34,19.5c-0.3,0-0.6,0-0.9,0
	c-8.7,0-16.8-2.7-23.4-7.3c-3.5-2.4-6.4-5.6-8.7-9.2c-1-1.6-2.1-3.3-3.2-5c-2.3-3.7-3.9-7.7-4.7-12c-0.6-3.1-1-6.2-1-7.5
	c0-22.6,18.4-41,41-41c14.2,0,27.6,7.9,34.9,19.5C456,155,458.3,159,459.7,164.5z"/>
<path fill="none" stroke="#000000" stroke-width="11" stroke-linecap="round" stroke-miterlimit="10" d="M692.4,286.3L692.4,286.3
	c-0.3,3.2-0.7,6.4-1.3,9.7c-1.5,8.6-5.8,16.6-12.6,22.2c-6.5,5.4-14.7,8.7-23.8,8.8c-0.3,0-0.6,0-0.8,0c-4.4,0-8.6-0.7-12.5-2.1
	c-7.9-2.7-14.6-8.3-19.1-15.4c0-0.1-0.1-0.1-0.1-0.2c-3.1-5-5.1-10.6-5.6-16.4c-0.1-0.7-0.1-1.3-0.2-1.9c-0.2-2.5-0.2-5,0-7.5
	c1.1-10.7,6.6-20.6,15.6-26.8c6.2-4.3,13.7-6.8,21.9-6.8c13.3,0,26,7.4,32.8,18.3c1.3,2.1,4.8,8.4,5.6,16.9v0c0,0,0,0,0,0
	C692.4,285.6,692.4,285.9,692.4,286.3z"/>
<path fill="none" stroke="#000000" stroke-width="11" stroke-linecap="round" stroke-miterlimit="10" d="M286,370.1
	c6.8,6.2,14.1,11.8,21.9,16.8C299.6,382.7,292.1,377,286,370.1z"/>
<polyline fill="none" stroke="#000000" stroke-width="11" stroke-linecap="round" stroke-miterlimit="10" points="5.6,5.5 5.6,5.5 
	491.1,5.5 "/>
<line fill="none" stroke="#000000" stroke-width="11" stroke-linecap="round" stroke-miterlimit="10" x1="69.5" y1="615.5" x2="615.6" y2="615.5"/>
<path fill="none" stroke="#000000" stroke-width="11" stroke-linecap="round" stroke-miterlimit="10" d="M390.5,203.4
	c11.5,15.7,26.6,28.7,44.1,37.6c2.4,1.2,4.8,2.4,7.3,3.4"/>
<path fill="none" stroke="#000000" stroke-width="11" stroke-linecap="round" stroke-miterlimit="10" d="M442,244.4
	c15.1,6.5,31.7,10.1,49.2,10.1c25,0,48.3-7.4,67.8-20c32.1-20.9,54.3-63.9,56.7-104.5"/>
<path fill="none" stroke="#000000" stroke-width="11" stroke-linecap="round" stroke-miterlimit="10" d="M491.1,5.5
	c68.8,0,124.5,55.7,124.5,124.5"/>
<path fill="none" stroke="#000000" stroke-width="11" stroke-linecap="round" stroke-miterlimit="10" d="M452.1,117"/>
<path fill="none" stroke="#000000" stroke-width="11" stroke-linecap="round" stroke-miterlimit="10" d="M328.3,100.4
	c15.4-7.6,31.1-12.3,46.1-13.8c3.6-0.4,7.1-0.5,10.7-0.5c0,0,0,0,0,0c21.6,0,41.2,6.9,55.5,21.2c15.8,15.8,22.5,39.4,20.5,64.9"/>
<path fill="none" stroke="#000000" stroke-width="11" stroke-linecap="round" stroke-miterlimit="10" d="M69.5,615.5
	c13.1-3.8,32.8-10.8,40.2-26.3c7.2-16.9-9.7-30,0-51.8c2.9-7.9,8-13.4,12-18.3c4.1-4.9,7.1-9.2,5.9-14.5c-2.4-8.6-13.1-11-13.1-16.9
	c1-7.3,14.5-6.2,20.4-15.9c8.6-13.5-8.3-28-1-40c4.2-8.5,14.7-8.7,24.3-9.8c6.9-0.8,13.3-2.1,16.7-7.1c4.8-8.6,0-19.3-24.2-68
	c-21.7-44.5-24.2-48.3-24.2-55.6c3.5-60.8,40-59.4,10.7-146.7C129.1,110.8,81.8,23.6,5.6,5.5v0H5.5v0"/>
<line fill="none" stroke="#000000" stroke-width="11" stroke-linecap="round" stroke-miterlimit="10" x1="716.1" y1="615.5" x2="615.6" y2="615.5"/>
<path fill="none" stroke="#000000" stroke-width="11" stroke-linecap="round" stroke-miterlimit="10" d="M491.1,5.5
	c68.8,0,124.5,55.7,124.5,124.5"/>
<path fill="none" stroke="#000000" stroke-width="11" stroke-linecap="round" stroke-miterlimit="10" d="M615.6,512.4"/>
<path fill="none" stroke="#000000" stroke-width="11" stroke-linecap="round" stroke-miterlimit="10" d="M415,341.7
	c11.5-33.7,43.5-57.9,81.1-57.9c20.6,0,39.5,7.3,54.3,19.4c5.5,4.5,10.3,9.6,14.5,15.3c8.5,11.5,14.3,25.2,16.1,40.1
	c0.4,2.9,0.6,5.9,0.7,8.9"/>
<path fill="none" stroke="#000000" stroke-width="11" stroke-linecap="round" stroke-miterlimit="10" d="M522.9,369
	c0,22,1.5,43.4,4.4,64.1c0,0,0,0,0,0c1,7,2.2,14,3.5,20.8v0c0,0,0,0,0,0c0,0,0,0,0,0"/>
<path fill="none" stroke="#000000" stroke-width="11" stroke-linecap="round" stroke-miterlimit="10" d="M385.1,86.1
	C385.1,86.1,385.1,86.1,385.1,86.1"/>
<path fill="none" stroke="#000000" stroke-width="11" stroke-linecap="round" stroke-miterlimit="10" d="M307.9,386.9L307.9,386.9
	C307.9,387,307.9,387,307.9,386.9"/>
<path fill="none" stroke="#000000" stroke-width="11" stroke-linecap="round" stroke-miterlimit="10" d="M286,370.1
	C286,370.1,285.9,370.1,286,370.1c-1.6-1.4-3-2.8-4.5-4.3c-30.2-29.7-48.9-71-48.9-116.6s18.7-87,48.9-116.6
	c13.5-13.3,29.3-24.3,46.8-32.2"/>
<path fill="none" stroke="#000000" stroke-width="11" stroke-linecap="round" stroke-miterlimit="10" d="M286,370.1
	C286,370.1,285.9,370.1,286,370.1"/>
<path fill="none" stroke="#000000" stroke-width="11" stroke-linecap="round" stroke-miterlimit="10" d="M307.9,386.9L307.9,386.9
	C307.9,387,307.9,387,307.9,386.9c10.5,5.4,22.3,8.4,34.7,8.4c35.8,0,64.2-20.3,72.4-53.6"/>
<path fill="none" stroke="#000000" stroke-width="11" stroke-linecap="round" stroke-miterlimit="10" d="M530.8,453.9
	C530.8,453.9,530.8,453.9,530.8,453.9C530.8,453.9,530.8,454,530.8,453.9L530.8,453.9c0.8,2.8,1.7,5.5,2.8,8.3
	c3.6,9.3,8.4,17.7,14.1,24.9"/>
<path fill="none" stroke="#000000" stroke-width="11" stroke-linecap="round" stroke-miterlimit="10" d="M583.9,513.5
	C583.9,513.5,583.9,513.5,583.9,513.5"/>
<path fill="none" stroke="#000000" stroke-width="11" stroke-linecap="round" stroke-miterlimit="10" d="M527.3,433
	C527.3,433,527.3,433,527.3,433"/>
<path fill="none" stroke="#000000" stroke-width="11" stroke-linecap="round" stroke-miterlimit="10" d="M692.4,285.9
	c0,0.2,0,0.3,0,0.5c0-0.4,0-0.8,0-1.1C692.4,285.4,692.4,285.6,692.4,285.9z"/>
<path fill="none" stroke="#000000" stroke-width="11" stroke-linecap="round" stroke-miterlimit="10" d="M816.4,506.3L816.4,506.3
	c0.2,2.5-2.1,33.8-6.3,44.7v0c-14.5,37.7-51.1,64.5-94,64.5"/>
<path fill="none" stroke="#000000" stroke-width="11" stroke-linecap="round" stroke-miterlimit="10" d="M692.4,286.3
	C692.4,286.4,692.4,286.4,692.4,286.3C692.4,286.4,692.4,286.4,692.4,286.3c0,2.4,0.1,4.8,0.1,7.2c0,48.3-6.6,93-17.9,129.6
	c-6.6,21.3-14.7,39.9-24.1,54.8"/>
<path fill="none" stroke="#000000" stroke-width="11" stroke-linecap="round" stroke-miterlimit="10" d="M692.4,285
	C692.4,285,692.4,285.1,692.4,285c0,0.1,0,0.1,0,0.1"/>
<path fill="none" stroke="#000000" stroke-width="11" stroke-linecap="round" stroke-miterlimit="10" d="M785,264.4
	C785,264.4,785,264.4,785,264.4"/>
<path fill="none" stroke="#000000" stroke-width="11" stroke-linecap="round" stroke-miterlimit="10" d="M616.5,283.8
	c2.8-45.1,39.6-81.6,85.5-81.6c30.3,0,56.9,15.6,72.3,39.1"/>
<path fill="none" stroke="#000000" stroke-width="11" stroke-linecap="round" stroke-miterlimit="10" d="M774.3,241.3
	c3.7,7.3,7.3,15,10.6,23.1c0,0,0,0,0,0c16,38.7,27.3,86,31.8,137.9c0.9,10.4,1.5,21,1.9,31.8c0.8,23.6-2.1,71-2.2,72.2"/>
<path fill="none" stroke="#000000" stroke-width="11" stroke-linecap="round" stroke-miterlimit="10" d="M547.7,487.1
	c10.2,12.6,20.9,22.9,36.2,26.4c0,0,0,0,0,0c4.2,1,8.5,1.5,12.9,1.5c26.6,0,42.2-18.6,53.6-37.1"/>
</svg>
