<?xml version="1.0" encoding="utf-8"?>
<!-- Generator: Adobe Illustrator 24.1.1, SVG Export Plug-In . SVG Version: 6.00 Build 0)  -->
<svg version="1.1" id="Слой_1" xmlns="http://www.w3.org/2000/svg" xmlns:xlink="http://www.w3.org/1999/xlink" x="0px" y="0px"
	 viewBox="0 0 324.9 120" style="enable-background:new 0 0 324.9 120;" xml:space="preserve">
<style type="text/css">
	.st0{fill-rule:evenodd;clip-rule:evenodd;fill:#FFFFFF;}
</style>
<path class="st0" d="M68.6,67.2c0-1.8-0.5-3.5-1.2-4.9c-0.9-1.3-1.9-2.4-3.2-3.2c-1.3-0.8-3-1.6-4.9-2.2c-1.9-0.5-3.9-1.2-6.2-1.6
	c-1.8-0.5-3.1-0.8-3.9-1c-0.8-0.2-1.6-0.5-2.2-0.8c-0.7-0.4-1.3-0.8-1.7-1.2c-0.4-0.4-0.5-1-0.5-1.6c0-1,0.6-1.8,1.8-2.6
	c1.2-0.8,2.9-1.2,4.9-1.2c2.2,0,3.8,0.3,4.7,1.1c0.9,0.8,1.9,1.8,2.6,3.1c0.6,1,1.2,1.8,1.7,2.2s1.2,0.7,2.3,0.7
	c1.2,0,2.2-0.5,2.9-1.2c0.9-0.7,1.2-1.6,1.2-2.6c0-1.1-0.2-2.1-0.9-3.2c-0.5-1.1-1.4-2-2.7-3c-1.2-0.9-2.9-1.8-4.7-2.2
	c-1.8-0.6-4-0.8-6.6-0.8c-3.2,0-6,0.4-8.4,1.2c-2.3,0.8-4.2,2.1-5.5,3.7c-1.3,1.7-1.9,3.5-1.9,5.6c0,2.2,0.6,4,1.9,5.5
	s2.9,2.7,4.9,3.5c2,0.8,4.5,1.6,7.4,2.2c2.2,0.5,3.9,0.9,5.3,1.2c1.2,0.4,2.2,1,3,1.7c0.8,0.7,1.1,1.5,1.1,2.6
	c0,1.3-0.7,2.5-2.1,3.5c-1.4,1-3.3,1.5-5.6,1.5c-1.7,0-2.9-0.2-4-0.7c-1-0.5-1.9-1.2-2.3-1.8c-0.5-0.8-1.1-1.7-1.6-2.8
	c-0.4-1-1.1-1.8-1.7-2.3c-0.7-0.6-1.5-0.8-2.5-0.8c-1.2,0-2.2,0.4-2.9,1.1c-0.9,0.7-1.2,1.6-1.2,2.6c0,1.7,0.5,3.3,1.8,5
	s2.9,3,4.7,4c2.6,1.5,6,2.1,10,2.1c3.4,0,6.4-0.6,8.8-1.5c2.5-0.9,4.4-2.3,5.7-4.2c1-1.5,1.6-3.1,1.8-4.9
	C68.6,68.2,68.6,67.7,68.6,67.2z M68.6,67.2c0-1.8-0.5-3.5-1.2-4.9c-0.9-1.3-1.9-2.4-3.2-3.2c-1.3-0.8-3-1.6-4.9-2.2
	c-1.9-0.5-3.9-1.2-6.2-1.6c-1.8-0.5-3.1-0.8-3.9-1c-0.8-0.2-1.6-0.5-2.2-0.8c-0.7-0.4-1.3-0.8-1.7-1.2c-0.4-0.4-0.5-1-0.5-1.6
	c0-1,0.6-1.8,1.8-2.6c1.2-0.8,2.9-1.2,4.9-1.2c2.2,0,3.8,0.3,4.7,1.1c0.9,0.8,1.9,1.8,2.6,3.1c0.6,1,1.2,1.8,1.7,2.2
	s1.2,0.7,2.3,0.7c1.2,0,2.2-0.5,2.9-1.2c0.9-0.7,1.2-1.6,1.2-2.6c0-1.1-0.2-2.1-0.9-3.2c-0.5-1.1-1.4-2-2.7-3
	c-1.2-0.9-2.9-1.8-4.7-2.2c-1.8-0.6-4-0.8-6.6-0.8c-3.2,0-6,0.4-8.4,1.2c-2.3,0.8-4.2,2.1-5.5,3.7c-1.3,1.7-1.9,3.5-1.9,5.6
	c0,2.2,0.6,4,1.9,5.5s2.9,2.7,4.9,3.5c2,0.8,4.5,1.6,7.4,2.2c2.2,0.5,3.9,0.9,5.3,1.2c1.2,0.4,2.2,1,3,1.7c0.8,0.7,1.1,1.5,1.1,2.6
	c0,1.3-0.7,2.5-2.1,3.5c-1.4,1-3.3,1.5-5.6,1.5c-1.7,0-2.9-0.2-4-0.7c-1-0.5-1.9-1.2-2.3-1.8c-0.5-0.8-1.1-1.7-1.6-2.8
	c-0.4-1-1.1-1.8-1.7-2.3c-0.7-0.6-1.5-0.8-2.5-0.8c-1.2,0-2.2,0.4-2.9,1.1c-0.9,0.7-1.2,1.6-1.2,2.6c0,1.7,0.5,3.3,1.8,5
	s2.9,3,4.7,4c2.6,1.5,6,2.1,10,2.1c3.4,0,6.4-0.6,8.8-1.5c2.5-0.9,4.4-2.3,5.7-4.2c1-1.5,1.6-3.1,1.8-4.9
	C68.6,68.2,68.6,67.7,68.6,67.2z M68.6,67.2c0-1.8-0.5-3.5-1.2-4.9c-0.9-1.3-1.9-2.4-3.2-3.2c-1.3-0.8-3-1.6-4.9-2.2
	c-1.9-0.5-3.9-1.2-6.2-1.6c-1.8-0.5-3.1-0.8-3.9-1c-0.8-0.2-1.6-0.5-2.2-0.8c-0.7-0.4-1.3-0.8-1.7-1.2c-0.4-0.4-0.5-1-0.5-1.6
	c0-1,0.6-1.8,1.8-2.6c1.2-0.8,2.9-1.2,4.9-1.2c2.2,0,3.8,0.3,4.7,1.1c0.9,0.8,1.9,1.8,2.6,3.1c0.6,1,1.2,1.8,1.7,2.2
	s1.2,0.7,2.3,0.7c1.2,0,2.2-0.5,2.9-1.2c0.9-0.7,1.2-1.6,1.2-2.6c0-1.1-0.2-2.1-0.9-3.2c-0.5-1.1-1.4-2-2.7-3
	c-1.2-0.9-2.9-1.8-4.7-2.2c-1.8-0.6-4-0.8-6.6-0.8c-3.2,0-6,0.4-8.4,1.2c-2.3,0.8-4.2,2.1-5.5,3.7c-1.3,1.7-1.9,3.5-1.9,5.6
	c0,2.2,0.6,4,1.9,5.5s2.9,2.7,4.9,3.5c2,0.8,4.5,1.6,7.4,2.2c2.2,0.5,3.9,0.9,5.3,1.2c1.2,0.4,2.2,1,3,1.7c0.8,0.7,1.1,1.5,1.1,2.6
	c0,1.3-0.7,2.5-2.1,3.5c-1.4,1-3.3,1.5-5.6,1.5c-1.7,0-2.9-0.2-4-0.7c-1-0.5-1.9-1.2-2.3-1.8c-0.5-0.8-1.1-1.7-1.6-2.8
	c-0.4-1-1.1-1.8-1.7-2.3c-0.7-0.6-1.5-0.8-2.5-0.8c-1.2,0-2.2,0.4-2.9,1.1c-0.9,0.7-1.2,1.6-1.2,2.6c0,1.7,0.5,3.3,1.8,5
	s2.9,3,4.7,4c2.6,1.5,6,2.1,10,2.1c3.4,0,6.4-0.6,8.8-1.5c2.5-0.9,4.4-2.3,5.7-4.2c1-1.5,1.6-3.1,1.8-4.9
	C68.6,68.2,68.6,67.7,68.6,67.2z M68.6,67.2c0-1.8-0.5-3.5-1.2-4.9c-0.9-1.3-1.9-2.4-3.2-3.2c-1.3-0.8-3-1.6-4.9-2.2
	c-1.9-0.5-3.9-1.2-6.2-1.6c-1.8-0.5-3.1-0.8-3.9-1c-0.8-0.2-1.6-0.5-2.2-0.8c-0.7-0.4-1.3-0.8-1.7-1.2c-0.4-0.4-0.5-1-0.5-1.6
	c0-1,0.6-1.8,1.8-2.6c1.2-0.8,2.9-1.2,4.9-1.2c2.2,0,3.8,0.3,4.7,1.1c0.9,0.8,1.9,1.8,2.6,3.1c0.6,1,1.2,1.8,1.7,2.2
	s1.2,0.7,2.3,0.7c1.2,0,2.2-0.5,2.9-1.2c0.9-0.7,1.2-1.6,1.2-2.6c0-1.1-0.2-2.1-0.9-3.2c-0.5-1.1-1.4-2-2.7-3
	c-1.2-0.9-2.9-1.8-4.7-2.2c-1.8-0.6-4-0.8-6.6-0.8c-3.2,0-6,0.4-8.4,1.2c-2.3,0.8-4.2,2.1-5.5,3.7c-1.3,1.7-1.9,3.5-1.9,5.6
	c0,2.2,0.6,4,1.9,5.5s2.9,2.7,4.9,3.5c2,0.8,4.5,1.6,7.4,2.2c2.2,0.5,3.9,0.9,5.3,1.2c1.2,0.4,2.2,1,3,1.7c0.8,0.7,1.1,1.5,1.1,2.6
	c0,1.3-0.7,2.5-2.1,3.5c-1.4,1-3.3,1.5-5.6,1.5c-1.7,0-2.9-0.2-4-0.7c-1-0.5-1.9-1.2-2.3-1.8c-0.5-0.8-1.1-1.7-1.6-2.8
	c-0.4-1-1.1-1.8-1.7-2.3c-0.7-0.6-1.5-0.8-2.5-0.8c-1.2,0-2.2,0.4-2.9,1.1c-0.9,0.7-1.2,1.6-1.2,2.6c0,1.7,0.5,3.3,1.8,5
	s2.9,3,4.7,4c2.6,1.5,6,2.1,10,2.1c3.4,0,6.4-0.6,8.8-1.5c2.5-0.9,4.4-2.3,5.7-4.2c1-1.5,1.6-3.1,1.8-4.9
	C68.6,68.2,68.6,67.7,68.6,67.2z M68.6,67.2c0-1.8-0.5-3.5-1.2-4.9c-0.9-1.3-1.9-2.4-3.2-3.2c-1.3-0.8-3-1.6-4.9-2.2
	c-1.9-0.5-3.9-1.2-6.2-1.6c-1.8-0.5-3.1-0.8-3.9-1c-0.8-0.2-1.6-0.5-2.2-0.8c-0.7-0.4-1.3-0.8-1.7-1.2c-0.4-0.4-0.5-1-0.5-1.6
	c0-1,0.6-1.8,1.8-2.6c1.2-0.8,2.9-1.2,4.9-1.2c2.2,0,3.8,0.3,4.7,1.1c0.9,0.8,1.9,1.8,2.6,3.1c0.6,1,1.2,1.8,1.7,2.2
	s1.2,0.7,2.3,0.7c1.2,0,2.2-0.5,2.9-1.2c0.9-0.7,1.2-1.6,1.2-2.6c0-1.1-0.2-2.1-0.9-3.2c-0.5-1.1-1.4-2-2.7-3
	c-1.2-0.9-2.9-1.8-4.7-2.2c-1.8-0.6-4-0.8-6.6-0.8c-3.2,0-6,0.4-8.4,1.2c-2.3,0.8-4.2,2.1-5.5,3.7c-1.3,1.7-1.9,3.5-1.9,5.6
	c0,2.2,0.6,4,1.9,5.5s2.9,2.7,4.9,3.5c2,0.8,4.5,1.6,7.4,2.2c2.2,0.5,3.9,0.9,5.3,1.2c1.2,0.4,2.2,1,3,1.7c0.8,0.7,1.1,1.5,1.1,2.6
	c0,1.3-0.7,2.5-2.1,3.5c-1.4,1-3.3,1.5-5.6,1.5c-1.7,0-2.9-0.2-4-0.7c-1-0.5-1.9-1.2-2.3-1.8c-0.5-0.8-1.1-1.7-1.6-2.8
	c-0.4-1-1.1-1.8-1.7-2.3c-0.7-0.6-1.5-0.8-2.5-0.8c-1.2,0-2.2,0.4-2.9,1.1c-0.9,0.7-1.2,1.6-1.2,2.6c0,1.7,0.5,3.3,1.8,5
	s2.9,3,4.7,4c2.6,1.5,6,2.1,10,2.1c3.4,0,6.4-0.6,8.8-1.5c2.5-0.9,4.4-2.3,5.7-4.2c1-1.5,1.6-3.1,1.8-4.9
	C68.6,68.2,68.6,67.7,68.6,67.2z M68.6,67.2c0-1.8-0.5-3.5-1.2-4.9c-0.9-1.3-1.9-2.4-3.2-3.2c-1.3-0.8-3-1.6-4.9-2.2
	c-1.9-0.5-3.9-1.2-6.2-1.6c-1.8-0.5-3.1-0.8-3.9-1c-0.8-0.2-1.6-0.5-2.2-0.8c-0.7-0.4-1.3-0.8-1.7-1.2c-0.4-0.4-0.5-1-0.5-1.6
	c0-1,0.6-1.8,1.8-2.6c1.2-0.8,2.9-1.2,4.9-1.2c2.2,0,3.8,0.3,4.7,1.1c0.9,0.8,1.9,1.8,2.6,3.1c0.6,1,1.2,1.8,1.7,2.2
	s1.2,0.7,2.3,0.7c1.2,0,2.2-0.5,2.9-1.2c0.9-0.7,1.2-1.6,1.2-2.6c0-1.1-0.2-2.1-0.9-3.2c-0.5-1.1-1.4-2-2.7-3
	c-1.2-0.9-2.9-1.8-4.7-2.2c-1.8-0.6-4-0.8-6.6-0.8c-3.2,0-6,0.4-8.4,1.2c-2.3,0.8-4.2,2.1-5.5,3.7c-1.3,1.7-1.9,3.5-1.9,5.6
	c0,2.2,0.6,4,1.9,5.5s2.9,2.7,4.9,3.5c2,0.8,4.5,1.6,7.4,2.2c2.2,0.5,3.9,0.9,5.3,1.2c1.2,0.4,2.2,1,3,1.7c0.8,0.7,1.1,1.5,1.1,2.6
	c0,1.3-0.7,2.5-2.1,3.5c-1.4,1-3.3,1.5-5.6,1.5c-1.7,0-2.9-0.2-4-0.7c-1-0.5-1.9-1.2-2.3-1.8c-0.5-0.8-1.1-1.7-1.6-2.8
	c-0.4-1-1.1-1.8-1.7-2.3c-0.7-0.6-1.5-0.8-2.5-0.8c-1.2,0-2.2,0.4-2.9,1.1c-0.9,0.7-1.2,1.6-1.2,2.6c0,1.7,0.5,3.3,1.8,5
	s2.9,3,4.7,4c2.6,1.5,6,2.1,10,2.1c3.4,0,6.4-0.6,8.8-1.5c2.5-0.9,4.4-2.3,5.7-4.2c1-1.5,1.6-3.1,1.8-4.9
	C68.6,68.2,68.6,67.7,68.6,67.2z M68.6,67.2c0-1.8-0.5-3.5-1.2-4.9c-0.9-1.3-1.9-2.4-3.2-3.2c-1.3-0.8-3-1.6-4.9-2.2
	c-1.9-0.5-3.9-1.2-6.2-1.6c-1.8-0.5-3.1-0.8-3.9-1c-0.8-0.2-1.6-0.5-2.2-0.8c-0.7-0.4-1.3-0.8-1.7-1.2c-0.4-0.4-0.5-1-0.5-1.6
	c0-1,0.6-1.8,1.8-2.6c1.2-0.8,2.9-1.2,4.9-1.2c2.2,0,3.8,0.3,4.7,1.1c0.9,0.8,1.9,1.8,2.6,3.1c0.6,1,1.2,1.8,1.7,2.2
	s1.2,0.7,2.3,0.7c1.2,0,2.2-0.5,2.9-1.2c0.9-0.7,1.2-1.6,1.2-2.6c0-1.1-0.2-2.1-0.9-3.2c-0.5-1.1-1.4-2-2.7-3
	c-1.2-0.9-2.9-1.8-4.7-2.2c-1.8-0.6-4-0.8-6.6-0.8c-3.2,0-6,0.4-8.4,1.2c-2.3,0.8-4.2,2.1-5.5,3.7c-1.3,1.7-1.9,3.5-1.9,5.6
	c0,2.2,0.6,4,1.9,5.5s2.9,2.7,4.9,3.5c2,0.8,4.5,1.6,7.4,2.2c2.2,0.5,3.9,0.9,5.3,1.2c1.2,0.4,2.2,1,3,1.7c0.8,0.7,1.1,1.5,1.1,2.6
	c0,1.3-0.7,2.5-2.1,3.5c-1.4,1-3.3,1.5-5.6,1.5c-1.7,0-2.9-0.2-4-0.7c-1-0.5-1.9-1.2-2.3-1.8c-0.5-0.8-1.1-1.7-1.6-2.8
	c-0.4-1-1.1-1.8-1.7-2.3c-0.7-0.6-1.5-0.8-2.5-0.8c-1.2,0-2.2,0.4-2.9,1.1c-0.9,0.7-1.2,1.6-1.2,2.6c0,1.7,0.5,3.3,1.8,5
	s2.9,3,4.7,4c2.6,1.5,6,2.1,10,2.1c3.4,0,6.4-0.6,8.8-1.5c2.5-0.9,4.4-2.3,5.7-4.2c1-1.5,1.6-3.1,1.8-4.9
	C68.6,68.2,68.6,67.7,68.6,67.2z M68.6,67.2c0-1.8-0.5-3.5-1.2-4.9c-0.9-1.3-1.9-2.4-3.2-3.2c-1.3-0.8-3-1.6-4.9-2.2
	c-1.9-0.5-3.9-1.2-6.2-1.6c-1.8-0.5-3.1-0.8-3.9-1c-0.8-0.2-1.6-0.5-2.2-0.8c-0.7-0.4-1.3-0.8-1.7-1.2c-0.4-0.4-0.5-1-0.5-1.6
	c0-1,0.6-1.8,1.8-2.6c1.2-0.8,2.9-1.2,4.9-1.2c2.2,0,3.8,0.3,4.7,1.1c0.9,0.8,1.9,1.8,2.6,3.1c0.6,1,1.2,1.8,1.7,2.2
	s1.2,0.7,2.3,0.7c1.2,0,2.2-0.5,2.9-1.2c0.9-0.7,1.2-1.6,1.2-2.6c0-1.1-0.2-2.1-0.9-3.2c-0.5-1.1-1.4-2-2.7-3
	c-1.2-0.9-2.9-1.8-4.7-2.2c-1.8-0.6-4-0.8-6.6-0.8c-3.2,0-6,0.4-8.4,1.2c-2.3,0.8-4.2,2.1-5.5,3.7c-1.3,1.7-1.9,3.5-1.9,5.6
	c0,2.2,0.6,4,1.9,5.5s2.9,2.7,4.9,3.5c2,0.8,4.5,1.6,7.4,2.2c2.2,0.5,3.9,0.9,5.3,1.2c1.2,0.4,2.2,1,3,1.7c0.8,0.7,1.1,1.5,1.1,2.6
	c0,1.3-0.7,2.5-2.1,3.5c-1.4,1-3.3,1.5-5.6,1.5c-1.7,0-2.9-0.2-4-0.7c-1-0.5-1.9-1.2-2.3-1.8c-0.5-0.8-1.1-1.7-1.6-2.8
	c-0.4-1-1.1-1.8-1.7-2.3c-0.7-0.6-1.5-0.8-2.5-0.8c-1.2,0-2.2,0.4-2.9,1.1c-0.9,0.7-1.2,1.6-1.2,2.6c0,1.7,0.5,3.3,1.8,5
	s2.9,3,4.7,4c2.6,1.5,6,2.1,10,2.1c3.4,0,6.4-0.6,8.8-1.5c2.5-0.9,4.4-2.3,5.7-4.2c1-1.5,1.6-3.1,1.8-4.9
	C68.6,68.2,68.6,67.7,68.6,67.2z M68.6,67.2c0-1.8-0.5-3.5-1.2-4.9c-0.9-1.3-1.9-2.4-3.2-3.2c-1.3-0.8-3-1.6-4.9-2.2
	c-1.9-0.5-3.9-1.2-6.2-1.6c-1.8-0.5-3.1-0.8-3.9-1c-0.8-0.2-1.6-0.5-2.2-0.8c-0.7-0.4-1.3-0.8-1.7-1.2c-0.4-0.4-0.5-1-0.5-1.6
	c0-1,0.6-1.8,1.8-2.6c1.2-0.8,2.9-1.2,4.9-1.2c2.2,0,3.8,0.3,4.7,1.1c0.9,0.8,1.9,1.8,2.6,3.1c0.6,1,1.2,1.8,1.7,2.2
	s1.2,0.7,2.3,0.7c1.2,0,2.2-0.5,2.9-1.2c0.9-0.7,1.2-1.6,1.2-2.6c0-1.1-0.2-2.1-0.9-3.2c-0.5-1.1-1.4-2-2.7-3
	c-1.2-0.9-2.9-1.8-4.7-2.2c-1.8-0.6-4-0.8-6.6-0.8c-3.2,0-6,0.4-8.4,1.2c-2.3,0.8-4.2,2.1-5.5,3.7c-1.3,1.7-1.9,3.5-1.9,5.6
	c0,2.2,0.6,4,1.9,5.5s2.9,2.7,4.9,3.5c2,0.8,4.5,1.6,7.4,2.2c2.2,0.5,3.9,0.9,5.3,1.2c1.2,0.4,2.2,1,3,1.7c0.8,0.7,1.1,1.5,1.1,2.6
	c0,1.3-0.7,2.5-2.1,3.5c-1.4,1-3.3,1.5-5.6,1.5c-1.7,0-2.9-0.2-4-0.7c-1-0.5-1.9-1.2-2.3-1.8c-0.5-0.8-1.1-1.7-1.6-2.8
	c-0.4-1-1.1-1.8-1.7-2.3c-0.7-0.6-1.5-0.8-2.5-0.8c-1.2,0-2.2,0.4-2.9,1.1c-0.9,0.7-1.2,1.6-1.2,2.6c0,1.7,0.5,3.3,1.8,5
	s2.9,3,4.7,4c2.6,1.5,6,2.1,10,2.1c3.4,0,6.4-0.6,8.8-1.5c2.5-0.9,4.4-2.3,5.7-4.2c1-1.5,1.6-3.1,1.8-4.9
	C68.6,68.2,68.6,67.7,68.6,67.2z M68.6,67.2c0-1.8-0.5-3.5-1.2-4.9c-0.9-1.3-1.9-2.4-3.2-3.2c-1.3-0.8-3-1.6-4.9-2.2
	c-1.9-0.5-3.9-1.2-6.2-1.6c-1.8-0.5-3.1-0.8-3.9-1c-0.8-0.2-1.6-0.5-2.2-0.8c-0.7-0.4-1.3-0.8-1.7-1.2c-0.4-0.4-0.5-1-0.5-1.6
	c0-1,0.6-1.8,1.8-2.6c1.2-0.8,2.9-1.2,4.9-1.2c2.2,0,3.8,0.3,4.7,1.1c0.9,0.8,1.9,1.8,2.6,3.1c0.6,1,1.2,1.8,1.7,2.2
	s1.2,0.7,2.3,0.7c1.2,0,2.2-0.5,2.9-1.2c0.9-0.7,1.2-1.6,1.2-2.6c0-1.1-0.2-2.1-0.9-3.2c-0.5-1.1-1.4-2-2.7-3
	c-1.2-0.9-2.9-1.8-4.7-2.2c-1.8-0.6-4-0.8-6.6-0.8c-3.2,0-6,0.4-8.4,1.2c-2.3,0.8-4.2,2.1-5.5,3.7c-1.3,1.7-1.9,3.5-1.9,5.6
	c0,2.2,0.6,4,1.9,5.5s2.9,2.7,4.9,3.5c2,0.8,4.5,1.6,7.4,2.2c2.2,0.5,3.9,0.9,5.3,1.2c1.2,0.4,2.2,1,3,1.7c0.8,0.7,1.1,1.5,1.1,2.6
	c0,1.3-0.7,2.5-2.1,3.5c-1.4,1-3.3,1.5-5.6,1.5c-1.7,0-2.9-0.2-4-0.7c-1-0.5-1.9-1.2-2.3-1.8c-0.5-0.8-1.1-1.7-1.6-2.8
	c-0.4-1-1.1-1.8-1.7-2.3c-0.7-0.6-1.5-0.8-2.5-0.8c-1.2,0-2.2,0.4-2.9,1.1c-0.9,0.7-1.2,1.6-1.2,2.6c0,1.7,0.5,3.3,1.8,5
	s2.9,3,4.7,4c2.6,1.5,6,2.1,10,2.1c3.4,0,6.4-0.6,8.8-1.5c2.5-0.9,4.4-2.3,5.7-4.2c1-1.5,1.6-3.1,1.8-4.9
	C68.6,68.2,68.6,67.7,68.6,67.2z M68.6,67.2c0-1.8-0.5-3.5-1.2-4.9c-0.9-1.3-1.9-2.4-3.2-3.2c-1.3-0.8-3-1.6-4.9-2.2
	c-1.9-0.5-3.9-1.2-6.2-1.6c-1.8-0.5-3.1-0.8-3.9-1c-0.8-0.2-1.6-0.5-2.2-0.8c-0.7-0.4-1.3-0.8-1.7-1.2c-0.4-0.4-0.5-1-0.5-1.6
	c0-1,0.6-1.8,1.8-2.6c1.2-0.8,2.9-1.2,4.9-1.2c2.2,0,3.8,0.3,4.7,1.1c0.9,0.8,1.9,1.8,2.6,3.1c0.6,1,1.2,1.8,1.7,2.2
	s1.2,0.7,2.3,0.7c1.2,0,2.2-0.5,2.9-1.2c0.9-0.7,1.2-1.6,1.2-2.6c0-1.1-0.2-2.1-0.9-3.2c-0.5-1.1-1.4-2-2.7-3
	c-1.2-0.9-2.9-1.8-4.7-2.2c-1.8-0.6-4-0.8-6.6-0.8c-3.2,0-6,0.4-8.4,1.2c-2.3,0.8-4.2,2.1-5.5,3.7c-1.3,1.7-1.9,3.5-1.9,5.6
	c0,2.2,0.6,4,1.9,5.5s2.9,2.7,4.9,3.5c2,0.8,4.5,1.6,7.4,2.2c2.2,0.5,3.9,0.9,5.3,1.2c1.2,0.4,2.2,1,3,1.7c0.8,0.7,1.1,1.5,1.1,2.6
	c0,1.3-0.7,2.5-2.1,3.5c-1.4,1-3.3,1.5-5.6,1.5c-1.7,0-2.9-0.2-4-0.7c-1-0.5-1.9-1.2-2.3-1.8c-0.5-0.8-1.1-1.7-1.6-2.8
	c-0.4-1-1.1-1.8-1.7-2.3c-0.7-0.6-1.5-0.8-2.5-0.8c-1.2,0-2.2,0.4-2.9,1.1c-0.9,0.7-1.2,1.6-1.2,2.6c0,1.7,0.5,3.3,1.8,5
	s2.9,3,4.7,4c2.6,1.5,6,2.1,10,2.1c3.4,0,6.4-0.6,8.8-1.5c2.5-0.9,4.4-2.3,5.7-4.2c1-1.5,1.6-3.1,1.8-4.9
	C68.6,68.2,68.6,67.7,68.6,67.2z M68.6,67.2c0-1.8-0.5-3.5-1.2-4.9c-0.9-1.3-1.9-2.4-3.2-3.2c-1.3-0.8-3-1.6-4.9-2.2
	c-1.9-0.5-3.9-1.2-6.2-1.6c-1.8-0.5-3.1-0.8-3.9-1c-0.8-0.2-1.6-0.5-2.2-0.8c-0.7-0.4-1.3-0.8-1.7-1.2c-0.4-0.4-0.5-1-0.5-1.6
	c0-1,0.6-1.8,1.8-2.6c1.2-0.8,2.9-1.2,4.9-1.2c2.2,0,3.8,0.3,4.7,1.1c0.9,0.8,1.9,1.8,2.6,3.1c0.6,1,1.2,1.8,1.7,2.2
	s1.2,0.7,2.3,0.7c1.2,0,2.2-0.5,2.9-1.2c0.9-0.7,1.2-1.6,1.2-2.6c0-1.1-0.2-2.1-0.9-3.2c-0.5-1.1-1.4-2-2.7-3
	c-1.2-0.9-2.9-1.8-4.7-2.2c-1.8-0.6-4-0.8-6.6-0.8c-3.2,0-6,0.4-8.4,1.2c-2.3,0.8-4.2,2.1-5.5,3.7c-1.3,1.7-1.9,3.5-1.9,5.6
	c0,2.2,0.6,4,1.9,5.5s2.9,2.7,4.9,3.5c2,0.8,4.5,1.6,7.4,2.2c2.2,0.5,3.9,0.9,5.3,1.2c1.2,0.4,2.2,1,3,1.7c0.8,0.7,1.1,1.5,1.1,2.6
	c0,1.3-0.7,2.5-2.1,3.5c-1.4,1-3.3,1.5-5.6,1.5c-1.7,0-2.9-0.2-4-0.7c-1-0.5-1.9-1.2-2.3-1.8c-0.5-0.8-1.1-1.7-1.6-2.8
	c-0.4-1-1.1-1.8-1.7-2.3c-0.7-0.6-1.5-0.8-2.5-0.8c-1.2,0-2.2,0.4-2.9,1.1c-0.9,0.7-1.2,1.6-1.2,2.6c0,1.7,0.5,3.3,1.8,5
	s2.9,3,4.7,4c2.6,1.5,6,2.1,10,2.1c3.4,0,6.4-0.6,8.8-1.5c2.5-0.9,4.4-2.3,5.7-4.2c1-1.5,1.6-3.1,1.8-4.9
	C68.6,68.2,68.6,67.7,68.6,67.2z M68.6,67.2c0-1.8-0.5-3.5-1.2-4.9c-0.9-1.3-1.9-2.4-3.2-3.2c-1.3-0.8-3-1.6-4.9-2.2
	c-1.9-0.5-3.9-1.2-6.2-1.6c-1.8-0.5-3.1-0.8-3.9-1c-0.8-0.2-1.6-0.5-2.2-0.8c-0.7-0.4-1.3-0.8-1.7-1.2c-0.4-0.4-0.5-1-0.5-1.6
	c0-1,0.6-1.8,1.8-2.6c1.2-0.8,2.9-1.2,4.9-1.2c2.2,0,3.8,0.3,4.7,1.1c0.9,0.8,1.9,1.8,2.6,3.1c0.6,1,1.2,1.8,1.7,2.2
	s1.2,0.7,2.3,0.7c1.2,0,2.2-0.5,2.9-1.2c0.9-0.7,1.2-1.6,1.2-2.6c0-1.1-0.2-2.1-0.9-3.2c-0.5-1.1-1.4-2-2.7-3
	c-1.2-0.9-2.9-1.8-4.7-2.2c-1.8-0.6-4-0.8-6.6-0.8c-3.2,0-6,0.4-8.4,1.2c-2.3,0.8-4.2,2.1-5.5,3.7c-1.3,1.7-1.9,3.5-1.9,5.6
	c0,2.2,0.6,4,1.9,5.5s2.9,2.7,4.9,3.5c2,0.8,4.5,1.6,7.4,2.2c2.2,0.5,3.9,0.9,5.3,1.2c1.2,0.4,2.2,1,3,1.7c0.8,0.7,1.1,1.5,1.1,2.6
	c0,1.3-0.7,2.5-2.1,3.5c-1.4,1-3.3,1.5-5.6,1.5c-1.7,0-2.9-0.2-4-0.7c-1-0.5-1.9-1.2-2.3-1.8c-0.5-0.8-1.1-1.7-1.6-2.8
	c-0.4-1-1.1-1.8-1.7-2.3c-0.7-0.6-1.5-0.8-2.5-0.8c-1.2,0-2.2,0.4-2.9,1.1c-0.9,0.7-1.2,1.6-1.2,2.6c0,1.7,0.5,3.3,1.8,5
	s2.9,3,4.7,4c2.6,1.5,6,2.1,10,2.1c3.4,0,6.4-0.6,8.8-1.5c2.5-0.9,4.4-2.3,5.7-4.2c1-1.5,1.6-3,1.8-4.9
	C68.6,68.2,68.6,67.7,68.6,67.2z M68.6,67.2c0-1.8-0.5-3.5-1.2-4.9c-0.9-1.3-1.9-2.4-3.2-3.2c-1.3-0.8-3-1.6-4.9-2.2
	c-1.9-0.5-3.9-1.2-6.2-1.6c-1.8-0.5-3.1-0.8-3.9-1c-0.8-0.2-1.6-0.5-2.2-0.8c-0.7-0.4-1.3-0.8-1.7-1.2c-0.4-0.4-0.5-1-0.5-1.6
	c0-1,0.6-1.8,1.8-2.6c1.2-0.8,2.9-1.2,4.9-1.2c2.2,0,3.8,0.3,4.7,1.1c0.9,0.8,1.9,1.8,2.6,3.1c0.6,1,1.2,1.8,1.7,2.2
	s1.2,0.7,2.3,0.7c1.2,0,2.2-0.5,2.9-1.2c0.9-0.7,1.2-1.6,1.2-2.6c0-1.1-0.2-2.1-0.9-3.2c-0.5-1.1-1.4-2-2.7-3
	c-1.2-0.9-2.9-1.8-4.7-2.2c-1.8-0.6-4-0.8-6.6-0.8c-3.2,0-6,0.4-8.4,1.2c-2.3,0.8-4.2,2.1-5.5,3.7c-1.3,1.7-1.9,3.5-1.9,5.6
	c0,2.2,0.6,4,1.9,5.5s2.9,2.7,4.9,3.5c2,0.8,4.5,1.6,7.4,2.2c2.2,0.5,3.9,0.9,5.3,1.2c1.2,0.4,2.2,1,3,1.7c0.8,0.7,1.1,1.5,1.1,2.6
	c0,1.3-0.7,2.5-2.1,3.5c-1.4,1-3.3,1.5-5.6,1.5c-1.7,0-2.9-0.2-4-0.7c-1-0.5-1.9-1.2-2.3-1.8c-0.5-0.8-1.1-1.7-1.6-2.8
	c-0.4-1-1.1-1.8-1.7-2.3c-0.7-0.6-1.5-0.8-2.5-0.8c-1.2,0-2.2,0.4-2.9,1.1c-0.9,0.7-1.2,1.6-1.2,2.6c0,1.7,0.5,3.3,1.8,5
	s2.9,3,4.7,4c2.6,1.5,6,2.1,10,2.1c3.4,0,6.4-0.6,8.8-1.5c2.5-0.9,4.4-2.3,5.7-4.2c1-1.5,1.6-3,1.8-4.9
	C68.6,68.2,68.6,67.7,68.6,67.2z M68.6,67.2c0-1.8-0.5-3.5-1.2-4.9c-0.9-1.3-1.9-2.4-3.2-3.2c-1.3-0.8-3-1.6-4.9-2.2
	c-1.9-0.5-3.9-1.2-6.2-1.6c-1.8-0.5-3.1-0.8-3.9-1c-0.8-0.2-1.6-0.5-2.2-0.8c-0.7-0.4-1.3-0.8-1.7-1.2c-0.4-0.4-0.5-1-0.5-1.6
	c0-1,0.6-1.8,1.8-2.6c1.2-0.8,2.9-1.2,4.9-1.2c2.2,0,3.8,0.3,4.7,1.1c0.9,0.8,1.9,1.8,2.6,3.1c0.6,1,1.2,1.8,1.7,2.2
	s1.2,0.7,2.3,0.7c1.2,0,2.2-0.5,2.9-1.2c0.9-0.7,1.2-1.6,1.2-2.6c0-1.1-0.2-2.1-0.9-3.2c-0.5-1.1-1.4-2-2.7-3
	c-1.2-0.9-2.9-1.8-4.7-2.2c-1.8-0.6-4-0.8-6.6-0.8c-3.2,0-6,0.4-8.4,1.2c-2.3,0.8-4.2,2.1-5.5,3.7c-1.3,1.7-1.9,3.5-1.9,5.6
	c0,2.2,0.6,4,1.9,5.5s2.9,2.7,4.9,3.5c2,0.8,4.5,1.6,7.4,2.2c2.2,0.5,3.9,0.9,5.3,1.2c1.2,0.4,2.2,1,3,1.7c0.8,0.7,1.1,1.5,1.1,2.6
	c0,1.3-0.7,2.5-2.1,3.5c-1.4,1-3.3,1.5-5.6,1.5c-1.7,0-2.9-0.2-4-0.7c-1-0.5-1.9-1.2-2.3-1.8c-0.5-0.8-1.1-1.7-1.6-2.8
	c-0.4-1-1.1-1.8-1.7-2.3c-0.7-0.6-1.5-0.8-2.5-0.8c-1.2,0-2.2,0.4-2.9,1.1c-0.9,0.7-1.2,1.6-1.2,2.6c0,1.7,0.5,3.3,1.8,5
	s2.9,3,4.7,4c2.6,1.5,6,2.1,10,2.1c3.4,0,6.4-0.6,8.8-1.5c2.5-0.9,4.4-2.3,5.7-4.2c1-1.5,1.6-3,1.8-4.9
	C68.6,68.2,68.6,67.7,68.6,67.2z M68.6,67.2c0-1.8-0.5-3.5-1.2-4.9c-0.9-1.3-1.9-2.4-3.2-3.2c-1.3-0.8-3-1.6-4.9-2.2
	c-1.9-0.5-3.9-1.2-6.2-1.6c-1.8-0.5-3.1-0.8-3.9-1c-0.8-0.2-1.6-0.5-2.2-0.8c-0.7-0.4-1.3-0.8-1.7-1.2c-0.4-0.4-0.5-1-0.5-1.6
	c0-1,0.6-1.8,1.8-2.6c1.2-0.8,2.9-1.2,4.9-1.2c2.2,0,3.8,0.3,4.7,1.1c0.9,0.8,1.9,1.8,2.6,3.1c0.6,1,1.2,1.8,1.7,2.2
	s1.2,0.7,2.3,0.7c1.2,0,2.2-0.5,2.9-1.2c0.9-0.7,1.2-1.6,1.2-2.6c0-1.1-0.2-2.1-0.9-3.2c-0.5-1.1-1.4-2-2.7-3
	c-1.2-0.9-2.9-1.8-4.7-2.2c-1.8-0.6-4-0.8-6.6-0.8c-3.2,0-6,0.4-8.4,1.2c-2.3,0.8-4.2,2.1-5.5,3.7c-1.3,1.7-1.9,3.5-1.9,5.6
	c0,2.2,0.6,4,1.9,5.5s2.9,2.7,4.9,3.5c2,0.8,4.5,1.6,7.4,2.2c2.2,0.5,3.9,0.9,5.3,1.2c1.2,0.4,2.2,1,3,1.7c0.8,0.7,1.1,1.5,1.1,2.6
	c0,1.3-0.7,2.5-2.1,3.5c-1.4,1-3.3,1.5-5.6,1.5c-1.7,0-2.9-0.2-4-0.7c-1-0.5-1.9-1.2-2.3-1.8c-0.5-0.8-1.1-1.7-1.6-2.8
	c-0.4-1-1.1-1.8-1.7-2.3c-0.7-0.6-1.5-0.8-2.5-0.8c-1.2,0-2.2,0.4-2.9,1.1c-0.9,0.7-1.2,1.6-1.2,2.6c0,1.7,0.5,3.3,1.8,5
	s2.9,3,4.7,4c2.6,1.5,6,2.1,10,2.1c3.4,0,6.4-0.6,8.8-1.5c2.5-0.9,4.4-2.3,5.7-4.2c1-1.5,1.6-3,1.8-4.9
	C68.6,68.2,68.6,67.7,68.6,67.2z M99,53.3c0-0.3-0.9-1.2-1.7,0.5c-2.2,4.8-2.5,1.4-4.1,3.2c-1.3,1.5-1.5,1.2-1.2,2
	c1.1,2.4-4.3,3.8-3.9,1.9c1-4.4,3.9-6.5,2.9-7.6c-1.1-1.2-0.6-1.3,0.3-3.3c1.7-3.3,2.2-4.3,1.5-4.3c-0.2,0-0.3,0-0.3,0.1
	c-0.6,1.4-1.7,2.5-2.4,3.8c-0.9,1.5-4.2,2.9-1.8-2.9c0.2-0.3-0.2-0.8-0.6-1c-0.5-0.2-1.2-0.3-1.5-0.6c-0.9-0.6-2.5-0.1-2.4-1.2
	c0.2-2-1.2-2.2-2.9-3.9c-0.2-0.2-1.3-1-0.6-1.2c1-0.4,2.2,1.2,2.2-0.4c0-0.7,0.3-1.3,0.3-2.1c0-0.3-0.5-0.8-0.9-0.7
	c-1.1,0.3-1.5,1-2.2-0.2c-0.3-0.7,0.5-0.8,0.9-1.1c1.5-0.7,0.3-1.8,1.8-2.1c1.2-0.3,2.4,0.1,2.3-1.8c0-0.1-0.2-0.2-0.4-0.7
	c-0.2-0.4-0.6-1-1.2-1.9c0.7-0.1,1.6-0.8,1.1-1.5c-2.4-2.9-1.9-1.2-4.3-2.2c-1-0.4-0.5-2-0.2-2.5c1-1.8,1.8-1.8,1.2-2.4
	c-0.6-0.6-1.8-1.2-1.3-2.4c0.1-0.2,0.5-1.4,0.3-1.5c-0.7-0.8-1.5,1.2-3.1,0c-0.8-0.5-1.5,0.7-3.6,3.2c-1.2,1.5-1.4,0.2-3.1,2.1
	c-1.1,1.2-0.9,2.3-2.2,3.5c-0.8,0.6-1.4,1.5-2,0.7c-0.2-0.2-0.3-0.4-0.4-0.6l-0.1-0.1c-2.4-3.3-1.9-2.6-0.8-4.1
	c0.4-0.5,0-1.9-1.2-1.5c-0.3,0.2-1.2,0.6-1.5-0.1c-0.2-0.7,1.3-0.8,0.4-2.1c-0.5-0.7-1.4-1-2-1.5c-0.2-0.2-0.2-1,0.2-1.1
	c1.3-0.6,2.1-0.2,2.1-1.5C62.8,9.6,63,8.9,62,8.9c-1.6,0-1.3-0.8-2.6-1.8c-0.9-0.7-0.5-1.5-1.3-1.4c-5.5,1.4-0.2,0.2-7.2-1
	c-0.8-0.2-0.6-0.8-1.2-1.7c-0.9-1.5-2.9-1.4-3.3-1.3c-0.6,0.1-1.1-0.3-3-1.5c-0.8-0.5-1.4,0.3-3,1.9c-0.6,0.6-1.3,0.5-1.9,0.7
	c-0.5,0.2-1,1-0.8,1.3c0.2,1,0.9,1.8,1,2.8c0.6,1,1.1,2,2.2,2.5c1.3,0.6-1,2.8-0.4,3.8c0.2,0.5,0.8,1.2,0.5,1.9
	c-0.5,1.8-2.1,4-2.6,2.4c-0.2-0.6,0.1-1.5-1-1.7c-0.7-0.8,1-2.2,1.6-3.1c0.8-0.8-0.4-1.9-1.4-2.6c-1-0.7-1.5,1.1-3,1.1
	c-1.9,1.5-1.3,2.1-4.1,4.2c-0.2,0.2-0.9,1.1-0.4,1.4c1.9,1.4,2.4,0.2-1.5,5.9c-0.5,0.8-1.5-0.3-2.2,0.6c-0.8,1.2,0.1,2.6-1.8,3
	c-0.7,0.1-1.5,2-0.9,3.3c-0.5-0.2-1.1-0.2-1.5,0.2c-0.6,0.6-1.3,1.2-1.6,1.8c-1.5,2.8-3.5,5.4-5.1,8.3c-1.9,3.5-1.2-0.1-4.7,7.4
	c-0.2,0.5-0.7,0.8-1.3,0.8c-0.5,0-1.2,0.1-1.6,0.2c-3.6,0.1-2.7,0.2-5.7,2.2c-0.1,0.1-0.2,0.2-0.2,0.3c-0.3,0.6-0.1,1,0.2,1.5
	c0.8,1.4-0.2,2-0.8,3c-0.6,1.2,1.1,2.2,1.3,2.3c0.9,0.8,1.4,0.4,3.5-0.4C7,57,8,58,7,58.7c-0.8,0.5-1.7,1.1-2.6,1.2
	C4,59.9,4,60.5,4.3,61c1.1,1.4-0.9,1.5-0.3,2.4c0.4,0.5,2.9,0,2.2,1.2c-0.3,0.8-1.2,0.4-1.9,0.5c-0.8,0.2-1.2,0.2-1.5,0.3
	c0.1,0.2,0.2,0.3,0.3,0.5l0.1-0.1c0,0.1,0,0.1,0,0.1H3.1c0,0.1,0.1,0.1,0.1,0.1c0.7,0.9,1.4,1.7,0.6,2c-1.4,0.4-2.3,0.7-2.9,0.9
	C0.4,68.9,0.2,69,0,69c0,0.1,0.1,0.1,0.1,0.2c0.1,0.1,0.2,0.2,0.2,0.3c0,0,0,0,0,0.1c0,0,0,0,0,0.1c0.2,0.5,0.4,0.8,0.2,1.4
	c-0.3,1.5,1.1,0.1,3.4,1.5c1.4,0.8,1.9,1.3,3.2,2.2c0.9,0.7-1.9,0.8-1,2.1c2.4,3.4,3.1,3.2,3.5,4.7c0.1,0.3,2,1.1,2.2,1.2
	c0.5,0.2,1.2-0.3,2.5-1.4c0.7-0.6,1.3-0.1,3.5,1.1c1.3,0.7-1.2,3.3-0.8,3.7c0.9,0.8,2.6-1.2,2.8-1.4c1.1-1,1.2,1.2,2.9,1.2
	c0.9,0,0.5,1.2-0.2,1.3c-0.5,0-1,0-1.2,0.2c-1.2,1.1-0.8,2.5-0.1,2.2c0.5-0.2,1-0.5,1.5-0.8c0.7-0.3,1.4,0,2.1-0.2
	c0.7-0.2,1-1,1.3-1.5c1.1-1.5,3.6-1.2,3.6-0.5c0.1,0.8,0.9,1.5,1.3,2.2c0.7,1.2-1.2,1.1-1.9,3c-1,2.5-2.9,4.7-1.2,4.7
	c1.5-0.1-0.6,1.2,1,3.1c0.5,0.6-0.4,1.2,0.3,2.3c1.3,1.9,1.1,2.4,1.5,2.4c0.9-0.1,1.9-2.2,0.7-3.5c0.2-0.7,0.1-1.2,0.9-0.8
	c0.9,0.3,2.5,0.4,2.1,1.5c-1.1,2.6-1.4,3.1-0.5,4.2c0.6,0.8,1,1.5,2.2,1.9c1.8,0.5-1.2,4.6,0.4,5c1.5,0.3,2,0.2,2.6,1.1
	c0.6,0.9,0.4,1.3,1,2.3c1.2-0.8,0.7-0.7,1.2-1.2c0.6-0.5,1.9-0.4,2.2,0.2c2.2,3.3,1.2,2,2.2,3.2c0.2,0.3,1.7,0.6,2.1-1.2
	c0.3-1.2,0.1-1.8,0.7-3.3c0.2-0.6,1.9-1.5,2.2-0.2c0.6,2.3-0.1,3-0.8,5.3c-0.7,2.2,2.5,1.8,1.9-1.7c-0.2-0.8,0-1.7,0.5-1.9
	c2-0.8,3.6,1.8,4.7,0.2c0.4-0.6,1.2-0.8,1.6-1.3c1.7-1.5,1.2-1.9,2.9-2.2c1.3-0.3-0.1-1.5,1.2-4.7c0.4-1.2,1.2-1.2,1.5-0.8
	c0.6,0.5-0.9,2.9,0.4,3c0.3,0,0.5-0.1,0.5-0.5c0,0,0,0,0.1,0c0.1,0.1,0.9-0.2,1.6-0.1c1.2,0.1,2.1-0.8,2.7-1.7
	c0.9-1.2-0.5-0.5-0.9-6c0-0.2,0.2-1.7,1-1.5c0.9,0.2,0.6,2.2,2.2,2.2c0.6-0.1,1.1,0.2,1.5,0.6c0.9,0.5,2-0.6,1.3-1.5
	c-0.5-0.7-0.6-0.5-0.4-1.1c0.2-0.6,1.1-0.5,1.3,0c0.9,1.5,0.2,2.5,1.5,1.8c0.5-0.3,0.9-0.8,1.5-1c-0.8,0.1-1.2-1.4-1.2-2.4
	c0-0.4,0.4-1.1,1.2-2.2c0.3-0.5,0.9-0.3,1.1-0.2c0-0.2,0.1-0.2,0.1-0.3c0-0.2-0.2-0.3-1.5-1.6c-0.5-0.5-0.5-0.2-1.5,0.1
	c-1,0.2-2.1-1.8-0.2-2.5c4.4-1.9,3.2-2.6,7.3-9.2c0.2-0.3,0.5-0.7,0.5-1.2c0.2-1.4,1.2-2.5,1.5-3.8c0.6-1.8,1.5-3.3,3.1-4.4
	c1-0.8,1.4-2.1,2.4-2.9c0.4-0.8,1.3-2.3,2.3-5.4c0.6-1.8,2-0.7,2.8-3.5c0.6-0.8-0.4-1.1,0.2-2.5C98.8,54.2,98.9,54.3,99,53.3z
	 M82.4,26.6c0.7,0.4,0.4,1-0.3,0.7C81.4,27,81.8,26.3,82.4,26.6z M6.3,51.2c0-0.3,0-0.2,0.2-0.2L6.3,51.2z M0.5,69.7
	C0.5,69.8,0.4,69.8,0.5,69.7L0.5,69.7z M7,62c0-0.1-0.1-0.2-0.1-0.3c0.1,0,0.2-0.1,0.3,0C7.4,62,7.3,62.1,7,62z M12.9,77.7
	c0.2,0.7-1,2.1-3.1-1.2c-0.3-0.5-0.1-1,0.4-2.8c0.2-0.5,1.7-0.6,1.4,0.3v0.4c0,0.5,0.2,0.6,0.8,0.5C13.8,74.7,12.5,76,12.9,77.7z
	 M15.7,71.5c-1.5,2.5-4.2,1.2-4.4-1c-0.2-1.4,0.9-0.6,3.9-0.4C15.6,70.1,16,71,15.7,71.5z M19.3,69.1c-0.6-1.5,2.2-1.7,2.3,0.2
	C21.7,70.3,20,70.8,19.3,69.1z M78.3,33.7c0.7,0.1,0.2,1.2-0.3,0.7C77.3,34,77.9,33.6,78.3,33.7z M56.3,11.9
	c0.9-0.2,2.5-0.2,2.5,0.7c0,0.7-0.5,1.3-0.6,1.8c-0.6,1.9-0.9,3.2-3.6,2.2C52.7,15.9,55.1,12.1,56.3,11.9z M48.5,11.3
	c0.1,0.1,0,0.2,0,0.3c-0.2,0-0.2,0.1-0.3,0C47.5,11.3,48.2,11,48.5,11.3z M43.9,9.1c0.2,0,0.5,0.5,0.4,0.5
	C43.7,10.2,43.3,9.1,43.9,9.1z M34.2,21.6c0,0.4,0.1,0.3-0.2,0.2L34.2,21.6z M35,22.2c0.2-0.2,0.4-0.2,0.7-0.2
	c0.5,0.2,0.1,0.4,0.1,1.8c0,0.7,0.6,2-0.8,2.4c-0.8,0.2-1.3,0.3-1.5-0.1C33.3,25.6,33.3,25.1,35,22.2z M31.9,23.2
	c0.6,0.1,0.4,0.7,0,0.6S31.2,23.1,31.9,23.2z M30.9,24.5c0.2,0.1,0.2,0.5,0,0.7C30.1,25.6,30.2,24.1,30.9,24.5z M30.1,31.6
	c0.6,0.1,0.3,1.2-0.2,1.1C29.4,32.6,29.4,31.5,30.1,31.6z M29.6,26.9c0,0.3,0.1,0.2-0.2,0.5C29.4,27,29.3,27.2,29.6,26.9z
	 M24.5,29.1c0.3,0.1,0.2,0.2,0,0.3V29.1z M31.9,94.5c0.1,0,0.2,0.1,0.2,0.1C32.1,95.4,31.2,95.2,31.9,94.5z M37.1,98.4
	c0.1,0.1,0,0.2,0.1,0.2C36.4,98.8,36.8,98.1,37.1,98.4z M40.6,107.8l0.2,0.2C40.5,108.2,40.6,108.2,40.6,107.8z M43.5,100.8
	C43.5,100.8,43.5,100.8,43.5,100.8L43.5,100.8c-0.2,1.7,0,2.1-1.6,3.5c-0.1,0.1-0.2,0.1-0.3,0.1c-0.9,0-1.5,0.4-2.2,1
	s-2.1,1.1-2.1,0.2c0-1.7,0.1-2.3,1-2.4c1.5-0.2,1.2-1.2,2.6-1.1c0.5,0.1,1-0.3,1.3-0.8C42.4,100.7,42.8,100.8,43.5,100.8L43.5,100.8
	L43.5,100.8C43.5,100.8,43.5,100.8,43.5,100.8C43.5,100.8,43.5,100.8,43.5,100.8z M37.7,90.1c0-0.8,1.4-1.5,1.9-0.7
	C40.4,91.5,37.6,92,37.7,90.1z M40.4,98.1c0.5-0.4,1.1,0.7,0.2,1.1C40,99.5,40,98.5,40.4,98.1z M44.2,101.6
	c-0.2-0.2-0.3-0.5-0.6-0.7c0.3,0,0.5-0.2,1-0.4c0.5-0.4,1.1,0.1,1.2,0.7C45.5,101.8,44.6,102.5,44.2,101.6z M47.9,103.2
	c-0.6,0.4-1.5-0.7-0.6-1.1C47.7,101.8,48.3,102.8,47.9,103.2z M49.1,96.8c-0.3-0.1-0.4-0.2-0.4-0.4c-0.2-0.1-0.4-0.1-0.5-0.2
	c-0.3-0.5,0.3-0.8,0.5-0.2c0.1,0.2,0,0.3,0.1,0.5C48.9,96.4,49,96.5,49.1,96.8C48.8,97.8,48.3,97,49.1,96.8z M50,101.5
	c-0.1,0.1-0.2,0.1-0.3,0.2c-0.1-0.1-0.2-0.2-0.2-0.3c0.1-0.5,1-1.8,1-0.8C50.4,100.8,50,101.4,50,101.5z M66.3,108.5
	c0-0.2,0-0.3,0.1-0.4C66.7,108.3,66.6,108.2,66.3,108.5z M65.7,97.2c-0.5-0.4-0.4-0.6,0.1-0.8c0.5-0.1,2-0.8,1.9,0.3
	C67.3,100.5,66.1,97.5,65.7,97.2z M80.8,77.1c-0.1,0.4-0.2,0.8-0.3,1.2c-0.9,3.1-3,5.9-5.6,7.9c-2.7,2-6.1,3.2-9.8,3.2
	c-2.8,0-5.5-0.7-7.7-1.9c-1.7,0.2-3.4,0.4-5.1,0.4c-15.5,0-28.1-12.4-28.1-27.6c0-1.8,0.2-3.8,0.5-5.5c-1.5-2.3-2.2-5-2.2-8
	c0-8.9,7.3-16.1,16.3-16.1c3.2,0,6.1,0.8,8.7,2.4c1.6-0.2,3.2-0.4,4.9-0.4c2.7,0,5.3,0.5,7.7,1.2c-0.2-0.5-0.2-1.3,0.2-1.8
	c0,0,0.1-0.1,0.1-0.2c0.4-0.5,1.2,0,1.4,0.7c0.3,0.6,0.2,1.5-0.5,1.8c0.2,0.1,0.5,0.2,0.8,0.2c10.8,3.8,18.4,14.1,18.4,25.9
	c0,2.1-0.2,4-0.6,5.9c1.1,2.2,1.7,4.6,1.3,7.2v0.5c0.1-0.2,0.1-0.5,0.2-0.8c0-0.3,0.8-0.3,1.1,0C83.8,75.3,82.1,75.4,80.8,77.1z
	 M84.2,57.3c-0.2,0-1.2,0.2-1.5-0.1c-0.2-0.2-0.1-0.5,0.2-0.7c0.2-0.2,0.5-0.6,0.9-0.8C85,54.5,85.2,57.2,84.2,57.3z M67.4,62.3
	c-0.9-1.3-1.9-2.4-3.2-3.2c-1.3-0.8-3-1.6-4.9-2.2c-1.9-0.5-3.9-1.2-6.2-1.6c-1.8-0.5-3.1-0.8-3.9-1c-0.8-0.2-1.6-0.5-2.2-0.8
	c-0.7-0.4-1.3-0.8-1.7-1.2c-0.4-0.4-0.5-1-0.5-1.6c0-1,0.6-1.8,1.8-2.6c1.2-0.8,2.9-1.2,4.9-1.2c2.2,0,3.8,0.3,4.7,1.1
	c0.9,0.8,1.9,1.8,2.6,3.1c0.6,1,1.2,1.8,1.7,2.2s1.2,0.7,2.3,0.7c1.2,0,2.2-0.5,2.9-1.2c0.9-0.7,1.2-1.6,1.2-2.6
	c0-1.1-0.2-2.1-0.9-3.2c-0.5-1.1-1.4-2-2.7-3c-1.2-0.9-2.9-1.8-4.7-2.2c-1.8-0.6-4-0.8-6.6-0.8c-3.2,0-6,0.4-8.4,1.2
	c-2.3,0.8-4.2,2.1-5.5,3.7c-1.3,1.7-1.9,3.5-1.9,5.6c0,2.2,0.6,4,1.9,5.5s2.9,2.7,4.9,3.5c2,0.8,4.5,1.6,7.4,2.2
	c2.2,0.5,3.9,0.9,5.3,1.2c1.2,0.4,2.2,1,3,1.7c0.8,0.7,1.1,1.5,1.1,2.6c0,1.3-0.7,2.5-2.1,3.5c-1.4,1-3.3,1.5-5.6,1.5
	c-1.7,0-2.9-0.2-4-0.7c-1-0.5-1.9-1.2-2.3-1.8c-0.5-0.8-1.1-1.7-1.6-2.8c-0.4-1-1.1-1.8-1.7-2.3c-0.7-0.6-1.5-0.8-2.5-0.8
	c-1.2,0-2.2,0.4-2.9,1.1c-0.9,0.7-1.2,1.6-1.2,2.6c0,1.7,0.5,3.3,1.8,5s2.9,3,4.7,4c2.6,1.5,6,2.1,10,2.1c3.4,0,6.4-0.6,8.8-1.5
	c2.5-0.9,4.4-2.3,5.7-4.2c1-1.5,1.6-3,1.8-4.9c0-0.5,0-1,0-1.5C68.6,65.4,68.1,63.7,67.4,62.3z M68.6,67.2c0-1.8-0.5-3.5-1.2-4.9
	c-0.9-1.3-1.9-2.4-3.2-3.2c-1.3-0.8-3-1.6-4.9-2.2c-1.9-0.5-3.9-1.2-6.2-1.6c-1.8-0.5-3.1-0.8-3.9-1c-0.8-0.2-1.6-0.5-2.2-0.8
	c-0.7-0.4-1.3-0.8-1.7-1.2c-0.4-0.4-0.5-1-0.5-1.6c0-1,0.6-1.8,1.8-2.6c1.2-0.8,2.9-1.2,4.9-1.2c2.2,0,3.8,0.3,4.7,1.1
	c0.9,0.8,1.9,1.8,2.6,3.1c0.6,1,1.2,1.8,1.7,2.2s1.2,0.7,2.3,0.7c1.2,0,2.2-0.5,2.9-1.2c0.9-0.7,1.2-1.6,1.2-2.6
	c0-1.1-0.2-2.1-0.9-3.2c-0.5-1.1-1.4-2-2.7-3c-1.2-0.9-2.9-1.8-4.7-2.2c-1.8-0.6-4-0.8-6.6-0.8c-3.2,0-6,0.4-8.4,1.2
	c-2.3,0.8-4.2,2.1-5.5,3.7c-1.3,1.7-1.9,3.5-1.9,5.6c0,2.2,0.6,4,1.9,5.5s2.9,2.7,4.9,3.5c2,0.8,4.5,1.6,7.4,2.2
	c2.2,0.5,3.9,0.9,5.3,1.2c1.2,0.4,2.2,1,3,1.7c0.8,0.7,1.1,1.5,1.1,2.6c0,1.3-0.7,2.5-2.1,3.5c-1.4,1-3.3,1.5-5.6,1.5
	c-1.7,0-2.9-0.2-4-0.7c-1-0.5-1.9-1.2-2.3-1.8c-0.5-0.8-1.1-1.7-1.6-2.8c-0.4-1-1.1-1.8-1.7-2.3c-0.7-0.6-1.5-0.8-2.5-0.8
	c-1.2,0-2.2,0.4-2.9,1.1c-0.9,0.7-1.2,1.6-1.2,2.6c0,1.7,0.5,3.3,1.8,5s2.9,3,4.7,4c2.6,1.5,6,2.1,10,2.1c3.4,0,6.4-0.6,8.8-1.5
	c2.5-0.9,4.4-2.3,5.7-4.2c1-1.5,1.6-3,1.8-4.9C68.6,68.2,68.6,67.7,68.6,67.2z M68.6,67.2c0-1.8-0.5-3.5-1.2-4.9
	c-0.9-1.3-1.9-2.4-3.2-3.2c-1.3-0.8-3-1.6-4.9-2.2c-1.9-0.5-3.9-1.2-6.2-1.6c-1.8-0.5-3.1-0.8-3.9-1c-0.8-0.2-1.6-0.5-2.2-0.8
	c-0.7-0.4-1.3-0.8-1.7-1.2c-0.4-0.4-0.5-1-0.5-1.6c0-1,0.6-1.8,1.8-2.6c1.2-0.8,2.9-1.2,4.9-1.2c2.2,0,3.8,0.3,4.7,1.1
	c0.9,0.8,1.9,1.8,2.6,3.1c0.6,1,1.2,1.8,1.7,2.2s1.2,0.7,2.3,0.7c1.2,0,2.2-0.5,2.9-1.2c0.9-0.7,1.2-1.6,1.2-2.6
	c0-1.1-0.2-2.1-0.9-3.2c-0.5-1.1-1.4-2-2.7-3c-1.2-0.9-2.9-1.8-4.7-2.2c-1.8-0.6-4-0.8-6.6-0.8c-3.2,0-6,0.4-8.4,1.2
	c-2.3,0.8-4.2,2.1-5.5,3.7c-1.3,1.7-1.9,3.5-1.9,5.6c0,2.2,0.6,4,1.9,5.5s2.9,2.7,4.9,3.5c2,0.8,4.5,1.6,7.4,2.2
	c2.2,0.5,3.9,0.9,5.3,1.2c1.2,0.4,2.2,1,3,1.7c0.8,0.7,1.1,1.5,1.1,2.6c0,1.3-0.7,2.5-2.1,3.5c-1.4,1-3.3,1.5-5.6,1.5
	c-1.7,0-2.9-0.2-4-0.7c-1-0.5-1.9-1.2-2.3-1.8c-0.5-0.8-1.1-1.7-1.6-2.8c-0.4-1-1.1-1.8-1.7-2.3c-0.7-0.6-1.5-0.8-2.5-0.8
	c-1.2,0-2.2,0.4-2.9,1.1c-0.9,0.7-1.2,1.6-1.2,2.6c0,1.7,0.5,3.3,1.8,5s2.9,3,4.7,4c2.6,1.5,6,2.1,10,2.1c3.4,0,6.4-0.6,8.8-1.5
	c2.5-0.9,4.4-2.3,5.7-4.2c1-1.5,1.6-3,1.8-4.9C68.6,68.2,68.6,67.7,68.6,67.2z M68.6,67.2c0-1.8-0.5-3.5-1.2-4.9
	c-0.9-1.3-1.9-2.4-3.2-3.2c-1.3-0.8-3-1.6-4.9-2.2c-1.9-0.5-3.9-1.2-6.2-1.6c-1.8-0.5-3.1-0.8-3.9-1c-0.8-0.2-1.6-0.5-2.2-0.8
	c-0.7-0.4-1.3-0.8-1.7-1.2c-0.4-0.4-0.5-1-0.5-1.6c0-1,0.6-1.8,1.8-2.6c1.2-0.8,2.9-1.2,4.9-1.2c2.2,0,3.8,0.3,4.7,1.1
	c0.9,0.8,1.9,1.8,2.6,3.1c0.6,1,1.2,1.8,1.7,2.2s1.2,0.7,2.3,0.7c1.2,0,2.2-0.5,2.9-1.2c0.9-0.7,1.2-1.6,1.2-2.6
	c0-1.1-0.2-2.1-0.9-3.2c-0.5-1.1-1.4-2-2.7-3c-1.2-0.9-2.9-1.8-4.7-2.2c-1.8-0.6-4-0.8-6.6-0.8c-3.2,0-6,0.4-8.4,1.2
	c-2.3,0.8-4.2,2.1-5.5,3.7c-1.3,1.7-1.9,3.5-1.9,5.6c0,2.2,0.6,4,1.9,5.5s2.9,2.7,4.9,3.5c2,0.8,4.5,1.6,7.4,2.2
	c2.2,0.5,3.9,0.9,5.3,1.2c1.2,0.4,2.2,1,3,1.7c0.8,0.7,1.1,1.5,1.1,2.6c0,1.3-0.7,2.5-2.1,3.5c-1.4,1-3.3,1.5-5.6,1.5
	c-1.7,0-2.9-0.2-4-0.7c-1-0.5-1.9-1.2-2.3-1.8c-0.5-0.8-1.1-1.7-1.6-2.8c-0.4-1-1.1-1.8-1.7-2.3c-0.7-0.6-1.5-0.8-2.5-0.8
	c-1.2,0-2.2,0.4-2.9,1.1c-0.9,0.7-1.2,1.6-1.2,2.6c0,1.7,0.5,3.3,1.8,5s2.9,3,4.7,4c2.6,1.5,6,2.1,10,2.1c3.4,0,6.4-0.6,8.8-1.5
	c2.5-0.9,4.4-2.3,5.7-4.2c1-1.5,1.6-3.1,1.8-4.9C68.6,68.2,68.6,67.7,68.6,67.2z M68.6,67.2c0-1.8-0.5-3.5-1.2-4.9
	c-0.9-1.3-1.9-2.4-3.2-3.2c-1.3-0.8-3-1.6-4.9-2.2c-1.9-0.5-3.9-1.2-6.2-1.6c-1.8-0.5-3.1-0.8-3.9-1c-0.8-0.2-1.6-0.5-2.2-0.8
	c-0.7-0.4-1.3-0.8-1.7-1.2c-0.4-0.4-0.5-1-0.5-1.6c0-1,0.6-1.8,1.8-2.6c1.2-0.8,2.9-1.2,4.9-1.2c2.2,0,3.8,0.3,4.7,1.1
	c0.9,0.8,1.9,1.8,2.6,3.1c0.6,1,1.2,1.8,1.7,2.2s1.2,0.7,2.3,0.7c1.2,0,2.2-0.5,2.9-1.2c0.9-0.7,1.2-1.6,1.2-2.6
	c0-1.1-0.2-2.1-0.9-3.2c-0.5-1.1-1.4-2-2.7-3c-1.2-0.9-2.9-1.8-4.7-2.2c-1.8-0.6-4-0.8-6.6-0.8c-3.2,0-6,0.4-8.4,1.2
	c-2.3,0.8-4.2,2.1-5.5,3.7c-1.3,1.7-1.9,3.5-1.9,5.6c0,2.2,0.6,4,1.9,5.5s2.9,2.7,4.9,3.5c2,0.8,4.5,1.6,7.4,2.2
	c2.2,0.5,3.9,0.9,5.3,1.2c1.2,0.4,2.2,1,3,1.7c0.8,0.7,1.1,1.5,1.1,2.6c0,1.3-0.7,2.5-2.1,3.5c-1.4,1-3.3,1.5-5.6,1.5
	c-1.7,0-2.9-0.2-4-0.7c-1-0.5-1.9-1.2-2.3-1.8c-0.5-0.8-1.1-1.7-1.6-2.8c-0.4-1-1.1-1.8-1.7-2.3c-0.7-0.6-1.5-0.8-2.5-0.8
	c-1.2,0-2.2,0.4-2.9,1.1c-0.9,0.7-1.2,1.6-1.2,2.6c0,1.7,0.5,3.3,1.8,5s2.9,3,4.7,4c2.6,1.5,6,2.1,10,2.1c3.4,0,6.4-0.6,8.8-1.5
	c2.5-0.9,4.4-2.3,5.7-4.2c1-1.5,1.6-3.1,1.8-4.9C68.6,68.2,68.6,67.7,68.6,67.2z M68.6,67.2c0-1.8-0.5-3.5-1.2-4.9
	c-0.9-1.3-1.9-2.4-3.2-3.2c-1.3-0.8-3-1.6-4.9-2.2c-1.9-0.5-3.9-1.2-6.2-1.6c-1.8-0.5-3.1-0.8-3.9-1c-0.8-0.2-1.6-0.5-2.2-0.8
	c-0.7-0.4-1.3-0.8-1.7-1.2c-0.4-0.4-0.5-1-0.5-1.6c0-1,0.6-1.8,1.8-2.6c1.2-0.8,2.9-1.2,4.9-1.2c2.2,0,3.8,0.3,4.7,1.1
	c0.9,0.8,1.9,1.8,2.6,3.1c0.6,1,1.2,1.8,1.7,2.2s1.2,0.7,2.3,0.7c1.2,0,2.2-0.5,2.9-1.2c0.9-0.7,1.2-1.6,1.2-2.6
	c0-1.1-0.2-2.1-0.9-3.2c-0.5-1.1-1.4-2-2.7-3c-1.2-0.9-2.9-1.8-4.7-2.2c-1.8-0.6-4-0.8-6.6-0.8c-3.2,0-6,0.4-8.4,1.2
	c-2.3,0.8-4.2,2.1-5.5,3.7c-1.3,1.7-1.9,3.5-1.9,5.6c0,2.2,0.6,4,1.9,5.5s2.9,2.7,4.9,3.5c2,0.8,4.5,1.6,7.4,2.2
	c2.2,0.5,3.9,0.9,5.3,1.2c1.2,0.4,2.2,1,3,1.7c0.8,0.7,1.1,1.5,1.1,2.6c0,1.3-0.7,2.5-2.1,3.5c-1.4,1-3.3,1.5-5.6,1.5
	c-1.7,0-2.9-0.2-4-0.7c-1-0.5-1.9-1.2-2.3-1.8c-0.5-0.8-1.1-1.7-1.6-2.8c-0.4-1-1.1-1.8-1.7-2.3c-0.7-0.6-1.5-0.8-2.5-0.8
	c-1.2,0-2.2,0.4-2.9,1.1c-0.9,0.7-1.2,1.6-1.2,2.6c0,1.7,0.5,3.3,1.8,5s2.9,3,4.7,4c2.6,1.5,6,2.1,10,2.1c3.4,0,6.4-0.6,8.8-1.5
	c2.5-0.9,4.4-2.3,5.7-4.2c1-1.5,1.6-3.1,1.8-4.9C68.6,68.2,68.6,67.7,68.6,67.2z M68.6,67.2c0-1.8-0.5-3.5-1.2-4.9
	c-0.9-1.3-1.9-2.4-3.2-3.2c-1.3-0.8-3-1.6-4.9-2.2c-1.9-0.5-3.9-1.2-6.2-1.6c-1.8-0.5-3.1-0.8-3.9-1c-0.8-0.2-1.6-0.5-2.2-0.8
	c-0.7-0.4-1.3-0.8-1.7-1.2c-0.4-0.4-0.5-1-0.5-1.6c0-1,0.6-1.8,1.8-2.6c1.2-0.8,2.9-1.2,4.9-1.2c2.2,0,3.8,0.3,4.7,1.1
	c0.9,0.8,1.9,1.8,2.6,3.1c0.6,1,1.2,1.8,1.7,2.2s1.2,0.7,2.3,0.7c1.2,0,2.2-0.5,2.9-1.2c0.9-0.7,1.2-1.6,1.2-2.6
	c0-1.1-0.2-2.1-0.9-3.2c-0.5-1.1-1.4-2-2.7-3c-1.2-0.9-2.9-1.8-4.7-2.2c-1.8-0.6-4-0.8-6.6-0.8c-3.2,0-6,0.4-8.4,1.2
	c-2.3,0.8-4.2,2.1-5.5,3.7c-1.3,1.7-1.9,3.5-1.9,5.6c0,2.2,0.6,4,1.9,5.5s2.9,2.7,4.9,3.5c2,0.8,4.5,1.6,7.4,2.2
	c2.2,0.5,3.9,0.9,5.3,1.2c1.2,0.4,2.2,1,3,1.7c0.8,0.7,1.1,1.5,1.1,2.6c0,1.3-0.7,2.5-2.1,3.5c-1.4,1-3.3,1.5-5.6,1.5
	c-1.7,0-2.9-0.2-4-0.7c-1-0.5-1.9-1.2-2.3-1.8c-0.5-0.8-1.1-1.7-1.6-2.8c-0.4-1-1.1-1.8-1.7-2.3c-0.7-0.6-1.5-0.8-2.5-0.8
	c-1.2,0-2.2,0.4-2.9,1.1c-0.9,0.7-1.2,1.6-1.2,2.6c0,1.7,0.5,3.3,1.8,5s2.9,3,4.7,4c2.6,1.5,6,2.1,10,2.1c3.4,0,6.4-0.6,8.8-1.5
	c2.5-0.9,4.4-2.3,5.7-4.2c1-1.5,1.6-3.1,1.8-4.9C68.6,68.2,68.6,67.7,68.6,67.2z M68.6,67.2c0-1.8-0.5-3.5-1.2-4.9
	c-0.9-1.3-1.9-2.4-3.2-3.2c-1.3-0.8-3-1.6-4.9-2.2c-1.9-0.5-3.9-1.2-6.2-1.6c-1.8-0.5-3.1-0.8-3.9-1c-0.8-0.2-1.6-0.5-2.2-0.8
	c-0.7-0.4-1.3-0.8-1.7-1.2c-0.4-0.4-0.5-1-0.5-1.6c0-1,0.6-1.8,1.8-2.6c1.2-0.8,2.9-1.2,4.9-1.2c2.2,0,3.8,0.3,4.7,1.1
	c0.9,0.8,1.9,1.8,2.6,3.1c0.6,1,1.2,1.8,1.7,2.2s1.2,0.7,2.3,0.7c1.2,0,2.2-0.5,2.9-1.2c0.9-0.7,1.2-1.6,1.2-2.6
	c0-1.1-0.2-2.1-0.9-3.2c-0.5-1.1-1.4-2-2.7-3c-1.2-0.9-2.9-1.8-4.7-2.2c-1.8-0.6-4-0.8-6.6-0.8c-3.2,0-6,0.4-8.4,1.2
	c-2.3,0.8-4.2,2.1-5.5,3.7c-1.3,1.7-1.9,3.5-1.9,5.6c0,2.2,0.6,4,1.9,5.5s2.9,2.7,4.9,3.5c2,0.8,4.5,1.6,7.4,2.2
	c2.2,0.5,3.9,0.9,5.3,1.2c1.2,0.4,2.2,1,3,1.7c0.8,0.7,1.1,1.5,1.1,2.6c0,1.3-0.7,2.5-2.1,3.5c-1.4,1-3.3,1.5-5.6,1.5
	c-1.7,0-2.9-0.2-4-0.7c-1-0.5-1.9-1.2-2.3-1.8c-0.5-0.8-1.1-1.7-1.6-2.8c-0.4-1-1.1-1.8-1.7-2.3c-0.7-0.6-1.5-0.8-2.5-0.8
	c-1.2,0-2.2,0.4-2.9,1.1c-0.9,0.7-1.2,1.6-1.2,2.6c0,1.7,0.5,3.3,1.8,5s2.9,3,4.7,4c2.6,1.5,6,2.1,10,2.1c3.4,0,6.4-0.6,8.8-1.5
	c2.5-0.9,4.4-2.3,5.7-4.2c1-1.5,1.6-3.1,1.8-4.9C68.6,68.2,68.6,67.7,68.6,67.2z M68.6,67.2c0-1.8-0.5-3.5-1.2-4.9
	c-0.9-1.3-1.9-2.4-3.2-3.2c-1.3-0.8-3-1.6-4.9-2.2c-1.9-0.5-3.9-1.2-6.2-1.6c-1.8-0.5-3.1-0.8-3.9-1c-0.8-0.2-1.6-0.5-2.2-0.8
	c-0.7-0.4-1.3-0.8-1.7-1.2c-0.4-0.4-0.5-1-0.5-1.6c0-1,0.6-1.8,1.8-2.6c1.2-0.8,2.9-1.2,4.9-1.2c2.2,0,3.8,0.3,4.7,1.1
	c0.9,0.8,1.9,1.8,2.6,3.1c0.6,1,1.2,1.8,1.7,2.2s1.2,0.7,2.3,0.7c1.2,0,2.2-0.5,2.9-1.2c0.9-0.7,1.2-1.6,1.2-2.6
	c0-1.1-0.2-2.1-0.9-3.2c-0.5-1.1-1.4-2-2.7-3c-1.2-0.9-2.9-1.8-4.7-2.2c-1.8-0.6-4-0.8-6.6-0.8c-3.2,0-6,0.4-8.4,1.2
	c-2.3,0.8-4.2,2.1-5.5,3.7c-1.3,1.7-1.9,3.5-1.9,5.6c0,2.2,0.6,4,1.9,5.5s2.9,2.7,4.9,3.5c2,0.8,4.5,1.6,7.4,2.2
	c2.2,0.5,3.9,0.9,5.3,1.2c1.2,0.4,2.2,1,3,1.7c0.8,0.7,1.1,1.5,1.1,2.6c0,1.3-0.7,2.5-2.1,3.5c-1.4,1-3.3,1.5-5.6,1.5
	c-1.7,0-2.9-0.2-4-0.7c-1-0.5-1.9-1.2-2.3-1.8c-0.5-0.8-1.1-1.7-1.6-2.8c-0.4-1-1.1-1.8-1.7-2.3c-0.7-0.6-1.5-0.8-2.5-0.8
	c-1.2,0-2.2,0.4-2.9,1.1c-0.9,0.7-1.2,1.6-1.2,2.6c0,1.7,0.5,3.3,1.8,5s2.9,3,4.7,4c2.6,1.5,6,2.1,10,2.1c3.4,0,6.4-0.6,8.8-1.5
	c2.5-0.9,4.4-2.3,5.7-4.2c1-1.5,1.6-3.1,1.8-4.9C68.6,68.2,68.6,67.7,68.6,67.2z M68.6,67.2c0-1.8-0.5-3.5-1.2-4.9
	c-0.9-1.3-1.9-2.4-3.2-3.2c-1.3-0.8-3-1.6-4.9-2.2c-1.9-0.5-3.9-1.2-6.2-1.6c-1.8-0.5-3.1-0.8-3.9-1c-0.8-0.2-1.6-0.5-2.2-0.8
	c-0.7-0.4-1.3-0.8-1.7-1.2c-0.4-0.4-0.5-1-0.5-1.6c0-1,0.6-1.8,1.8-2.6c1.2-0.8,2.9-1.2,4.9-1.2c2.2,0,3.8,0.3,4.7,1.1
	c0.9,0.8,1.9,1.8,2.6,3.1c0.6,1,1.2,1.8,1.7,2.2s1.2,0.7,2.3,0.7c1.2,0,2.2-0.5,2.9-1.2c0.9-0.7,1.2-1.6,1.2-2.6
	c0-1.1-0.2-2.1-0.9-3.2c-0.5-1.1-1.4-2-2.7-3c-1.2-0.9-2.9-1.8-4.7-2.2c-1.8-0.6-4-0.8-6.6-0.8c-3.2,0-6,0.4-8.4,1.2
	c-2.3,0.8-4.2,2.1-5.5,3.7c-1.3,1.7-1.9,3.5-1.9,5.6c0,2.2,0.6,4,1.9,5.5s2.9,2.7,4.9,3.5c2,0.8,4.5,1.6,7.4,2.2
	c2.2,0.5,3.9,0.9,5.3,1.2c1.2,0.4,2.2,1,3,1.7c0.8,0.7,1.1,1.5,1.1,2.6c0,1.3-0.7,2.5-2.1,3.5c-1.4,1-3.3,1.5-5.6,1.5
	c-1.7,0-2.9-0.2-4-0.7c-1-0.5-1.9-1.2-2.3-1.8c-0.5-0.8-1.1-1.7-1.6-2.8c-0.4-1-1.1-1.8-1.7-2.3c-0.7-0.6-1.5-0.8-2.5-0.8
	c-1.2,0-2.2,0.4-2.9,1.1c-0.9,0.7-1.2,1.6-1.2,2.6c0,1.7,0.5,3.3,1.8,5s2.9,3,4.7,4c2.6,1.5,6,2.1,10,2.1c3.4,0,6.4-0.6,8.8-1.5
	c2.5-0.9,4.4-2.3,5.7-4.2c1-1.5,1.6-3.1,1.8-4.9C68.6,68.2,68.6,67.7,68.6,67.2z M68.6,67.2c0-1.8-0.5-3.5-1.2-4.9
	c-0.9-1.3-1.9-2.4-3.2-3.2c-1.3-0.8-3-1.6-4.9-2.2c-1.9-0.5-3.9-1.2-6.2-1.6c-1.8-0.5-3.1-0.8-3.9-1c-0.8-0.2-1.6-0.5-2.2-0.8
	c-0.7-0.4-1.3-0.8-1.7-1.2c-0.4-0.4-0.5-1-0.5-1.6c0-1,0.6-1.8,1.8-2.6c1.2-0.8,2.9-1.2,4.9-1.2c2.2,0,3.8,0.3,4.7,1.1
	c0.9,0.8,1.9,1.8,2.6,3.1c0.6,1,1.2,1.8,1.7,2.2s1.2,0.7,2.3,0.7c1.2,0,2.2-0.5,2.9-1.2c0.9-0.7,1.2-1.6,1.2-2.6
	c0-1.1-0.2-2.1-0.9-3.2c-0.5-1.1-1.4-2-2.7-3c-1.2-0.9-2.9-1.8-4.7-2.2c-1.8-0.6-4-0.8-6.6-0.8c-3.2,0-6,0.4-8.4,1.2
	c-2.3,0.8-4.2,2.1-5.5,3.7c-1.3,1.7-1.9,3.5-1.9,5.6c0,2.2,0.6,4,1.9,5.5s2.9,2.7,4.9,3.5c2,0.8,4.5,1.6,7.4,2.2
	c2.2,0.5,3.9,0.9,5.3,1.2c1.2,0.4,2.2,1,3,1.7c0.8,0.7,1.1,1.5,1.1,2.6c0,1.3-0.7,2.5-2.1,3.5c-1.4,1-3.3,1.5-5.6,1.5
	c-1.7,0-2.9-0.2-4-0.7c-1-0.5-1.9-1.2-2.3-1.8c-0.5-0.8-1.1-1.7-1.6-2.8c-0.4-1-1.1-1.8-1.7-2.3c-0.7-0.6-1.5-0.8-2.5-0.8
	c-1.2,0-2.2,0.4-2.9,1.1c-0.9,0.7-1.2,1.6-1.2,2.6c0,1.7,0.5,3.3,1.8,5s2.9,3,4.7,4c2.6,1.5,6,2.1,10,2.1c3.4,0,6.4-0.6,8.8-1.5
	c2.5-0.9,4.4-2.3,5.7-4.2c1-1.5,1.6-3.1,1.8-4.9C68.6,68.2,68.6,67.7,68.6,67.2z M68.6,67.2c0-1.8-0.5-3.5-1.2-4.9
	c-0.9-1.3-1.9-2.4-3.2-3.2c-1.3-0.8-3-1.6-4.9-2.2c-1.9-0.5-3.9-1.2-6.2-1.6c-1.8-0.5-3.1-0.8-3.9-1c-0.8-0.2-1.6-0.5-2.2-0.8
	c-0.7-0.4-1.3-0.8-1.7-1.2c-0.4-0.4-0.5-1-0.5-1.6c0-1,0.6-1.8,1.8-2.6c1.2-0.8,2.9-1.2,4.9-1.2c2.2,0,3.8,0.3,4.7,1.1
	c0.9,0.8,1.9,1.8,2.6,3.1c0.6,1,1.2,1.8,1.7,2.2s1.2,0.7,2.3,0.7c1.2,0,2.2-0.5,2.9-1.2c0.9-0.7,1.2-1.6,1.2-2.6
	c0-1.1-0.2-2.1-0.9-3.2c-0.5-1.1-1.4-2-2.7-3c-1.2-0.9-2.9-1.8-4.7-2.2c-1.8-0.6-4-0.8-6.6-0.8c-3.2,0-6,0.4-8.4,1.2
	c-2.3,0.8-4.2,2.1-5.5,3.7c-1.3,1.7-1.9,3.5-1.9,5.6c0,2.2,0.6,4,1.9,5.5s2.9,2.7,4.9,3.5c2,0.8,4.5,1.6,7.4,2.2
	c2.2,0.5,3.9,0.9,5.3,1.2c1.2,0.4,2.2,1,3,1.7c0.8,0.7,1.1,1.5,1.1,2.6c0,1.3-0.7,2.5-2.1,3.5c-1.4,1-3.3,1.5-5.6,1.5
	c-1.7,0-2.9-0.2-4-0.7c-1-0.5-1.9-1.2-2.3-1.8c-0.5-0.8-1.1-1.7-1.6-2.8c-0.4-1-1.1-1.8-1.7-2.3c-0.7-0.6-1.5-0.8-2.5-0.8
	c-1.2,0-2.2,0.4-2.9,1.1c-0.9,0.7-1.2,1.6-1.2,2.6c0,1.7,0.5,3.3,1.8,5s2.9,3,4.7,4c2.6,1.5,6,2.1,10,2.1c3.4,0,6.4-0.6,8.8-1.5
	c2.5-0.9,4.4-2.3,5.7-4.2c1-1.5,1.6-3.1,1.8-4.9C68.6,68.2,68.6,67.7,68.6,67.2z M68.6,67.2c0-1.8-0.5-3.5-1.2-4.9
	c-0.9-1.3-1.9-2.4-3.2-3.2c-1.3-0.8-3-1.6-4.9-2.2c-1.9-0.5-3.9-1.2-6.2-1.6c-1.8-0.5-3.1-0.8-3.9-1c-0.8-0.2-1.6-0.5-2.2-0.8
	c-0.7-0.4-1.3-0.8-1.7-1.2c-0.4-0.4-0.5-1-0.5-1.6c0-1,0.6-1.8,1.8-2.6c1.2-0.8,2.9-1.2,4.9-1.2c2.2,0,3.8,0.3,4.7,1.1
	c0.9,0.8,1.9,1.8,2.6,3.1c0.6,1,1.2,1.8,1.7,2.2s1.2,0.7,2.3,0.7c1.2,0,2.2-0.5,2.9-1.2c0.9-0.7,1.2-1.6,1.2-2.6
	c0-1.1-0.2-2.1-0.9-3.2c-0.5-1.1-1.4-2-2.7-3c-1.2-0.9-2.9-1.8-4.7-2.2c-1.8-0.6-4-0.8-6.6-0.8c-3.2,0-6,0.4-8.4,1.2
	c-2.3,0.8-4.2,2.1-5.5,3.7c-1.3,1.7-1.9,3.5-1.9,5.6c0,2.2,0.6,4,1.9,5.5s2.9,2.7,4.9,3.5c2,0.8,4.5,1.6,7.4,2.2
	c2.2,0.5,3.9,0.9,5.3,1.2c1.2,0.4,2.2,1,3,1.7c0.8,0.7,1.1,1.5,1.1,2.6c0,1.3-0.7,2.5-2.1,3.5c-1.4,1-3.3,1.5-5.6,1.5
	c-1.7,0-2.9-0.2-4-0.7c-1-0.5-1.9-1.2-2.3-1.8c-0.5-0.8-1.1-1.7-1.6-2.8c-0.4-1-1.1-1.8-1.7-2.3c-0.7-0.6-1.5-0.8-2.5-0.8
	c-1.2,0-2.2,0.4-2.9,1.1c-0.9,0.7-1.2,1.6-1.2,2.6c0,1.7,0.5,3.3,1.8,5s2.9,3,4.7,4c2.6,1.5,6,2.1,10,2.1c3.4,0,6.4-0.6,8.8-1.5
	c2.5-0.9,4.4-2.3,5.7-4.2c1-1.5,1.6-3.1,1.8-4.9C68.6,68.2,68.6,67.7,68.6,67.2z M68.6,67.2c0-1.8-0.5-3.5-1.2-4.9
	c-0.9-1.3-1.9-2.4-3.2-3.2c-1.3-0.8-3-1.6-4.9-2.2c-1.9-0.5-3.9-1.2-6.2-1.6c-1.8-0.5-3.1-0.8-3.9-1c-0.8-0.2-1.6-0.5-2.2-0.8
	c-0.7-0.4-1.3-0.8-1.7-1.2c-0.4-0.4-0.5-1-0.5-1.6c0-1,0.6-1.8,1.8-2.6c1.2-0.8,2.9-1.2,4.9-1.2c2.2,0,3.8,0.3,4.7,1.1
	c0.9,0.8,1.9,1.8,2.6,3.1c0.6,1,1.2,1.8,1.7,2.2s1.2,0.7,2.3,0.7c1.2,0,2.2-0.5,2.9-1.2c0.9-0.7,1.2-1.6,1.2-2.6
	c0-1.1-0.2-2.1-0.9-3.2c-0.5-1.1-1.4-2-2.7-3c-1.2-0.9-2.9-1.8-4.7-2.2c-1.8-0.6-4-0.8-6.6-0.8c-3.2,0-6,0.4-8.4,1.2
	c-2.3,0.8-4.2,2.1-5.5,3.7c-1.3,1.7-1.9,3.5-1.9,5.6c0,2.2,0.6,4,1.9,5.5s2.9,2.7,4.9,3.5c2,0.8,4.5,1.6,7.4,2.2
	c2.2,0.5,3.9,0.9,5.3,1.2c1.2,0.4,2.2,1,3,1.7c0.8,0.7,1.1,1.5,1.1,2.6c0,1.3-0.7,2.5-2.1,3.5c-1.4,1-3.3,1.5-5.6,1.5
	c-1.7,0-2.9-0.2-4-0.7c-1-0.5-1.9-1.2-2.3-1.8c-0.5-0.8-1.1-1.7-1.6-2.8c-0.4-1-1.1-1.8-1.7-2.3c-0.7-0.6-1.5-0.8-2.5-0.8
	c-1.2,0-2.2,0.4-2.9,1.1c-0.9,0.7-1.2,1.6-1.2,2.6c0,1.7,0.5,3.3,1.8,5s2.9,3,4.7,4c2.6,1.5,6,2.1,10,2.1c3.4,0,6.4-0.6,8.8-1.5
	c2.5-0.9,4.4-2.3,5.7-4.2c1-1.5,1.6-3.1,1.8-4.9C68.6,68.2,68.6,67.7,68.6,67.2z M68.6,67.2c0-1.8-0.5-3.5-1.2-4.9
	c-0.9-1.3-1.9-2.4-3.2-3.2c-1.3-0.8-3-1.6-4.9-2.2c-1.9-0.5-3.9-1.2-6.2-1.6c-1.8-0.5-3.1-0.8-3.9-1c-0.8-0.2-1.6-0.5-2.2-0.8
	c-0.7-0.4-1.3-0.8-1.7-1.2c-0.4-0.4-0.5-1-0.5-1.6c0-1,0.6-1.8,1.8-2.6c1.2-0.8,2.9-1.2,4.9-1.2c2.2,0,3.8,0.3,4.7,1.1
	c0.9,0.8,1.9,1.8,2.6,3.1c0.6,1,1.2,1.8,1.7,2.2s1.2,0.7,2.3,0.7c1.2,0,2.2-0.5,2.9-1.2c0.9-0.7,1.2-1.6,1.2-2.6
	c0-1.1-0.2-2.1-0.9-3.2c-0.5-1.1-1.4-2-2.7-3c-1.2-0.9-2.9-1.8-4.7-2.2c-1.8-0.6-4-0.8-6.6-0.8c-3.2,0-6,0.4-8.4,1.2
	c-2.3,0.8-4.2,2.1-5.5,3.7c-1.3,1.7-1.9,3.5-1.9,5.6c0,2.2,0.6,4,1.9,5.5s2.9,2.7,4.9,3.5c2,0.8,4.5,1.6,7.4,2.2
	c2.2,0.5,3.9,0.9,5.3,1.2c1.2,0.4,2.2,1,3,1.7c0.8,0.7,1.1,1.5,1.1,2.6c0,1.3-0.7,2.5-2.1,3.5c-1.4,1-3.3,1.5-5.6,1.5
	c-1.7,0-2.9-0.2-4-0.7c-1-0.5-1.9-1.2-2.3-1.8c-0.5-0.8-1.1-1.7-1.6-2.8c-0.4-1-1.1-1.8-1.7-2.3c-0.7-0.6-1.5-0.8-2.5-0.8
	c-1.2,0-2.2,0.4-2.9,1.1c-0.9,0.7-1.2,1.6-1.2,2.6c0,1.7,0.5,3.3,1.8,5s2.9,3,4.7,4c2.6,1.5,6,2.1,10,2.1c3.4,0,6.4-0.6,8.8-1.5
	c2.5-0.9,4.4-2.3,5.7-4.2c1-1.5,1.6-3.1,1.8-4.9C68.6,68.2,68.6,67.7,68.6,67.2z M68.6,67.2c0-1.8-0.5-3.5-1.2-4.9
	c-0.9-1.3-1.9-2.4-3.2-3.2c-1.3-0.8-3-1.6-4.9-2.2c-1.9-0.5-3.9-1.2-6.2-1.6c-1.8-0.5-3.1-0.8-3.9-1c-0.8-0.2-1.6-0.5-2.2-0.8
	c-0.7-0.4-1.3-0.8-1.7-1.2c-0.4-0.4-0.5-1-0.5-1.6c0-1,0.6-1.8,1.8-2.6c1.2-0.8,2.9-1.2,4.9-1.2c2.2,0,3.8,0.3,4.7,1.1
	c0.9,0.8,1.9,1.8,2.6,3.1c0.6,1,1.2,1.8,1.7,2.2s1.2,0.7,2.3,0.7c1.2,0,2.2-0.5,2.9-1.2c0.9-0.7,1.2-1.6,1.2-2.6
	c0-1.1-0.2-2.1-0.9-3.2c-0.5-1.1-1.4-2-2.7-3c-1.2-0.9-2.9-1.8-4.7-2.2c-1.8-0.6-4-0.8-6.6-0.8c-3.2,0-6,0.4-8.4,1.2
	c-2.3,0.8-4.2,2.1-5.5,3.7c-1.3,1.7-1.9,3.5-1.9,5.6c0,2.2,0.6,4,1.9,5.5s2.9,2.7,4.9,3.5c2,0.8,4.5,1.6,7.4,2.2
	c2.2,0.5,3.9,0.9,5.3,1.2c1.2,0.4,2.2,1,3,1.7c0.8,0.7,1.1,1.5,1.1,2.6c0,1.3-0.7,2.5-2.1,3.5c-1.4,1-3.3,1.5-5.6,1.5
	c-1.7,0-2.9-0.2-4-0.7c-1-0.5-1.9-1.2-2.3-1.8c-0.5-0.8-1.1-1.7-1.6-2.8c-0.4-1-1.1-1.8-1.7-2.3c-0.7-0.6-1.5-0.8-2.5-0.8
	c-1.2,0-2.2,0.4-2.9,1.1c-0.9,0.7-1.2,1.6-1.2,2.6c0,1.7,0.5,3.3,1.8,5s2.9,3,4.7,4c2.6,1.5,6,2.1,10,2.1c3.4,0,6.4-0.6,8.8-1.5
	c2.5-0.9,4.4-2.3,5.7-4.2c1-1.5,1.6-3.1,1.8-4.9C68.6,68.2,68.6,67.7,68.6,67.2z M68.6,67.2c0-1.8-0.5-3.5-1.2-4.9
	c-0.9-1.3-1.9-2.4-3.2-3.2c-1.3-0.8-3-1.6-4.9-2.2c-1.9-0.5-3.9-1.2-6.2-1.6c-1.8-0.5-3.1-0.8-3.9-1c-0.8-0.2-1.6-0.5-2.2-0.8
	c-0.7-0.4-1.3-0.8-1.7-1.2c-0.4-0.4-0.5-1-0.5-1.6c0-1,0.6-1.8,1.8-2.6c1.2-0.8,2.9-1.2,4.9-1.2c2.2,0,3.8,0.3,4.7,1.1
	c0.9,0.8,1.9,1.8,2.6,3.1c0.6,1,1.2,1.8,1.7,2.2s1.2,0.7,2.3,0.7c1.2,0,2.2-0.5,2.9-1.2c0.9-0.7,1.2-1.6,1.2-2.6
	c0-1.1-0.2-2.1-0.9-3.2c-0.5-1.1-1.4-2-2.7-3c-1.2-0.9-2.9-1.8-4.7-2.2c-1.8-0.6-4-0.8-6.6-0.8c-3.2,0-6,0.4-8.4,1.2
	c-2.3,0.8-4.2,2.1-5.5,3.7c-1.3,1.7-1.9,3.5-1.9,5.6c0,2.2,0.6,4,1.9,5.5s2.9,2.7,4.9,3.5c2,0.8,4.5,1.6,7.4,2.2
	c2.2,0.5,3.9,0.9,5.3,1.2c1.2,0.4,2.2,1,3,1.7c0.8,0.7,1.1,1.5,1.1,2.6c0,1.3-0.7,2.5-2.1,3.5c-1.4,1-3.3,1.5-5.6,1.5
	c-1.7,0-2.9-0.2-4-0.7c-1-0.5-1.9-1.2-2.3-1.8c-0.5-0.8-1.1-1.7-1.6-2.8c-0.4-1-1.1-1.8-1.7-2.3c-0.7-0.6-1.5-0.8-2.5-0.8
	c-1.2,0-2.2,0.4-2.9,1.1c-0.9,0.7-1.2,1.6-1.2,2.6c0,1.7,0.5,3.3,1.8,5s2.9,3,4.7,4c2.6,1.5,6,2.1,10,2.1c3.4,0,6.4-0.6,8.8-1.5
	c2.5-0.9,4.4-2.3,5.7-4.2c1-1.5,1.6-3.1,1.8-4.9C68.6,68.2,68.6,67.7,68.6,67.2z M79.3,100.6c0.1,0,0.1,0,0.2,0l0.1-0.1
	C79.4,100.5,79.4,100.6,79.3,100.6z"/>
<path class="st0" d="M207.2,55.7c-0.8-0.2,1-6.2-0.8-5.7c-0.7,0.7-1.1,0.4-1.4,0.2c0.2-0.5,0.4-1.1,0.5-2.2
	c-9.8-0.4-0.4-2.6-12.7-2.8c-2.4-2.4,0.8-4.8-5.3-4.2c-3.4-0.4-0.1,1.5-1.9,2.2c-1-0.1-2,0.1-3.3,0.4c0.8,1.6,1.4,3.3,1.8,5
	c0.1,0.1,0.1,0.2,0.1,0.4c0.4,1.4,0.5,2.8,0.7,4.3c1.7,1.2,1.4,3.5,2.9,6.3c0.2,0.3,0.4,0.6,0.5,0.9c0.1,0.1,0.1,0.1,0.1,0.2
	c3.5,4.9,1.6,2.6,7.6,4.1c3.3,7.6-1.4,1.2-5.3,0.1c-0.7-1.5-2.8,2.4-5.5,2.5c-2,1.2,3.3,2,0.8,2.1c-1.1-0.5-2.8-0.8-4.2-1.5
	c-4.5,8.5-13.5,14.3-23.9,14.3c-2.3,0-4.5-0.3-6.7-0.8c-2.1-0.5-4.2-1.4-6.3-2.4l-14.4,3.7l3.8-13.9c-2.4-4-3.6-8.7-3.6-13.5
	c0-14.8,12.1-26.9,27-26.9c7.2,0,14,2.8,19.2,7.8c0.4,0.4,0.6,0.7,1,0.9c2.3-1,6.2-1.8,7.8-0.8c-1.7,5.2,8.7,0.8,6.1,0.1
	c-1.4,0.2-6.1-0.9-1.8-0.6c3.9-11.7-10.4-9.1-17.2-14.1c-14.6-7.2-26.4,0.1-39.5,4.5c-7.2,6.6-3-0.6-6.6,1c1.3,4.7-3.9-2.2-2.3,6.3
	c-1.4,1.8-1.9-1.5-4.4,0.7c-0.2,5.8,0.4,11.5-7.5,12.5c3.1,7.5-3.2,13.2,5.1,19.2c6.4-4,8.4,20.5,17.7,22.6c1.9,0.2-0.5,6.4-0.5,2.3
	c0.3-1-4.4-1.9-3.1-3.7c0.6-0.9-2.7-1.4-3-2.9c-3.3-2.2,1.7,5.3-5.3-0.8c-0.1-2-1.3-0.8-2.4-1.5c-0.8-1.3-1.1-3.3-2.4-2.4
	c5.4,6.8-1.7,4.5,1.8,7.7c3.4,2.7,2.4-1.8,2.3-2.6c6.2,2.3,4.9,11.9,8.9,11.5c0.8-0.8,8.8,4,2.3-1.2c-1.8-4.4,3,1.4,2.9-2.7
	c2.7,8.1,8.1,0.9,11.9,6.8c2.2,1.8,0.4-0.9,2-1c5.3,1.6,5.8,7,5-1.1c1.4-0.9,6.4-0.6,3.7-3.1c-3.7,0.6-4.2,3.9-5.8-1.7
	c1.8-0.8-0.6,4.3,4.2-0.5c0.9-0.2,3.8,0.8,3.5-0.7c-1.6-0.9-0.6-3.7,0.4-3.4c1.5,0.7,1.9,5.6,4.8,2.3c3-3.4,4.5,0.1,6.4-2
	c0.8-2.4,3.1-6.3,0.9-8.2c0.1-3.7,4.3,3,5.8-0.1c2.7-1.7,14,2.8,16.2-2.4c3.5-0.2,0.6,5.3,4.4-0.6c0.4-2.1-1.5-1-1.5-2.1
	c1.6-2-0.8-7.3,1.3-7.5c3,4.6,4.8-0.4,4,4.5c1.7,5.3-12.2,10.6,2.5,7.2c-3,0.1-1-3.2,0.1-4.5c0.1-2.8-0.8-2.1,0.5-4
	c3.5-5.8-5.5-12.8,5.2-9.9C213.3,59.9,208.7,57.8,207.2,55.7z M189.2,42.3c0.3,0.4,0.6,1.4,0,1.5C188.3,44.2,187.7,41.4,189.2,42.3z
	 M188.7,49.5c-0.4-0.2-0.4-1,0.3-1.5C189.9,46.9,190.1,50,188.7,49.5z M185.7,34.1h-0.2C185.7,33.9,185.6,33.9,185.7,34.1z
	 M176.5,30.7c-0.1,0.2,0,0.2-0.2,0.1L176.5,30.7z M169,27.9c-2.4-2.3,5.4-5,6.4-2.3c-3.6-0.2-3.8,3.4-6.4,4.5
	C166.5,30.2,170.5,28.3,169,27.9z M165.8,26.8c0.8,1.1,0.3,0.4,0.8,0.9c0.7,0.8-1.3,2.1-1.3-0.8C165.2,26.6,165.5,26.4,165.8,26.8z
	 M114.8,50.3c-1.4,0.1,0.1-1.9-0.1-2.7C116.3,46.3,115.1,49.6,114.8,50.3z M121.7,37.2c-0.1,0-0.4-0.9,0.2-1.1
	C122.9,35.9,122.4,37.2,121.7,37.2z M122.7,66.2c-0.8-0.1-0.4-1.3,0.3-0.9C123.4,65.6,123.3,66.3,122.7,66.2z M121.7,83.3
	c0.1-0.2,0.1-0.2,0.1,0H121.7z M130.8,91c0.4-0.4,0.8-0.1,2.2,0.8C133.8,93.3,129.8,93.2,130.8,91z M152.6,97
	c-0.6,0.1-0.1-0.8,0.1-0.2C152.7,96.9,152.7,97,152.6,97z M162.3,87.3c0.1-0.2,0.1-0.2,0.2,0H162.3z M164.6,87.9
	c-0.7,0.2-1-1.5,0-1.7C167.5,85.3,166.4,88.4,164.6,87.9z M170.4,86.6c-0.4,0.1-0.5-0.1-0.5-0.2C170,85.6,171.3,86.4,170.4,86.6z
	 M177.3,77.7c0.1-0.1,0.1-0.1,0.3-0.1C178.2,77.9,177.1,78,177.3,77.7z M178.2,76v-0.1C178.4,76,178.5,76,178.2,76z M188.3,72
	c-0.1,0.1-0.2,0.1-0.4,0.2c-1,0.9-2.9,3-4.4,3.2c-2,1.4,6.7-0.8,3.7,0.5c-1.1-0.3-0.9-0.5-0.8,0.6c-0.4,1.1-8.2,2.7-5.4-0.3
	c-1.6-2.7,1.5-1.8,0.8-4.7c1.9-0.9,3.6,2.1,6.1,0.6C188.4,71.7,188.7,71.5,188.3,72z M189.2,75.3c-0.5,0.1-0.8-0.9-0.1-1.4
	C190.5,72.9,190.7,75,189.2,75.3z M191,71.5c-0.1-0.2,0-0.4,0.2-0.4C191.7,71,191.3,72,191,71.5z M195.3,70.6l0.3,0.1
	C195.2,70.8,195.3,70.8,195.3,70.6z M198.2,65.8c0.1-0.3,0.2-0.3,0.3,0.1C198.4,66,198.2,65.9,198.2,65.8z M198.8,61
	c-2.3,3.8,0.7-2.8,1.6-4.3c2,0.5,1.7,4.9,3.3,6.5C200.9,62.1,199.7,65.1,198.8,61z M203.5,75.8c-0.1-0.5,0.7-0.5,0.6-0.1
	C204.2,76,203.6,76,203.5,75.8z M204.3,51.3c-1,2.6-5.7-1-2.7-0.7c1.4,0.1,2.3,0.5,2.8,0.4C204.4,51,204.3,51.2,204.3,51.3z
	 M178.5,55.7c-1-0.4,1.6,4-0.9,2.4c-1.1-4.6-1.1-1.1-2.7-2.7c1-2.2-3.4-3.5-3.7-3.6c0-0.2-0.1-0.5-0.1-0.7c0-4.9,6.6-2,8.4,1.5h0.5
	c-0.1-1-0.3-2-0.5-2.9c-0.6-0.1-0.6-0.5-0.3-0.9c-0.4-1.3-0.9-2.5-1.6-3.7c-1.9,0.5-3.6,0.4-4.5-1.1c-3.1,0.1,1.4,5.2-5.3,1.6
	c-1.8-2.8,4.7-2.8,7.8-3.7c-0.6-0.8-1.3-1.5-2-2.3c-4.2-4.3-9.8-6.6-15.9-6.6c-12.4,0-22.5,10-22.5,22.4c0,4.2,1.3,8.3,3.4,11.9
	l0.5,0.9l-2.3,8.2l8.5-2.3l0.8,0.5c3.5,2,7.4,3.1,11.5,3.1c4.9,0,9.4-1.5,13.1-4.2c3.7-2.6,6.6-6.3,8.1-10.6c-1-1-2.7-2.1-1.1-3.7
	c1,0.2,1.6,0.1,2.1,0c0.1-0.8,0.3-1.6,0.3-2.4C179.9,56.3,179.2,55.8,178.5,55.7z M169.3,42.4c-0.4,0.1-0.2,0.1-0.5-0.1
	C169.1,42.3,169,42.3,169.3,42.4z M171.2,64.9c-0.5,1.5-3.3,3-4.5,3.2c-1.1,0.2-2.7,0.3-4.3-0.3c-1-0.4-2.3-0.8-3.9-1.4
	c-6.8-2.9-11.2-9.7-11.6-10.1c-0.4-0.5-2.8-3.7-2.8-7s1.8-4.9,2.4-5.6c0.6-0.7,1.4-0.9,1.8-0.9h1.3c0.4,0,1-0.1,1.5,1.1
	c0.5,1.4,1.9,4.7,2.1,5c0.2,0.4,0.3,0.8,0.1,1.1c-0.2,0.5-1,1.4-1.7,2.3c-0.3,0.4-0.7,0.7-0.3,1.4c0.4,0.7,1.8,2.8,3.8,4.7
	c2.6,2.3,4.8,3,5.4,3.3c0.7,0.4,1.1,0.3,1.4-0.2c0.4-0.5,1.7-2,2.1-2.7c0.5-0.7,0.9-0.5,1.5-0.4c0.6,0.2,3.9,1.8,4.7,2.2
	c0.7,0.4,1.1,0.5,1.3,0.8C171.7,62,171.7,63.4,171.2,64.9z M173.1,59.9c-0.4,0.4-1,0.1-0.8-0.5C172.6,59,173.4,59.6,173.1,59.9z"/>
<path class="st0" d="M324.5,57.7c-1.6,0-1.5,0.6-2.1,1c-0.1,0.1-0.5,0.1-0.8-0.2c-0.7-0.6,0.5-1.2,0.8-1.6c0.8-1,0.5-1-0.8-2
	c-0.8,0.1-1.5,0.1-2.1,0.4l-0.2-0.2c0.2-0.5,0.3-1.1,0.7-1.4c0,0,0.1,0,0.1-0.1c-0.3-0.1-0.5-0.1-0.7,0.2c-0.4,0.6-0.8,0.3-1.2-0.1
	c-0.4-0.3-1.1-0.5-1-1.2c0.1-0.8-0.5-1.4-1.2-0.8c-0.1,0.1-0.1,0.1-0.2,0.1c-0.6-0.2-0.1-0.5,0.4-1.4c0.2-0.5-0.5-0.4-0.9-0.6
	c-0.3-0.2-0.2-0.3-0.5-1.6c-0.5,0.3-0.7,0.1-3.3-1.4c-0.4-0.2-0.6-0.8-0.4-1c0.7-0.7,1-0.6,1.3-1.2c0.4-0.8,0.7-1,0.4-1.3
	c-0.5-0.5-0.7,0.6-1.4,0.7c-0.4,0.1-0.7-0.4-0.7-0.5c0.2-0.4,0.4-0.8,0.6-1.2c0.7-0.5,0.8-1.4,1.4-2c0.3-0.3,0.2-1.2-0.1-1.3
	c-0.3-0.3-0.3,0-1.2,0.6c-0.4,0.3-0.5,0.1-2-0.9c-0.8-0.6-0.1-0.8,0.5-1.9c0.2-0.3,0.5-0.2,0.7-0.9c0.1-0.2-0.1-0.4-0.3-0.5
	c-1.4-0.6-1.8-0.6-2.7-0.4c-1.4,0.5-1.8,0.5-2,0.8c-0.3,0.5-1.5,1-2,0.8c-1.2-0.5-0.8,1-1.6,0.3c-2.9-2.5-0.2-1.2-0.5-2.5
	c-0.1-0.4-0.5-0.6-0.7-0.5c-0.2,0.1-0.4,0.3-0.6,0.4c-0.3,0.2-0.8-0.1-1.2-0.1c-0.6,0-1.2-1-1.7-0.5c-0.4,0.5-2,0.5,0.3,0.8
	c1.1,0.2,1.8,1.2,2.7,2.7c0.3,0.4,0.2,1.1-0.1,1.2c-0.5,0.1-0.8,0.4-1.1,0.6c0.8,0.7,1.1,2,0.7,3.9l-9.1,42.3c-0.7,3-2.5,3.8-5,2.3
	l-13.9-10.1l-6.7,6.3c-0.7,0.7-1.4,1.4-2.8,1.4l1-13.9l25.7-22.9c1.1-1-0.3-1.6-1.8-0.5l-31.7,19.8l-13.6-4.2
	c-3-0.9-3.1-2.9,0.6-4.3l53.4-20.3c0.8-0.3,1.6-0.3,2.1-0.1c-0.1-0.3,0-0.7,0.1-1.2c0.1-0.3,0.1-0.3-1-2.3c-0.2-0.3-0.5-0.5-0.8-0.7
	c0-0.2-0.1-0.4-0.3-0.6c-1.2-1.2-0.2-1.3-1.2-1.9c-0.7-0.4-0.7-1-0.8-1.6c-0.4-1.2-2.7,0.1-2.5,0.6c0.1,0.4-0.1,0.6-0.3,0.9
	c-0.6,0.8,1.2,1.2,1.9,2c0.3,0.3,0.3,0.7-1,0.6c-1.4-0.2-1.4,0.8-2.1-0.2c-0.8-1.2-1-1-1.6-1.4c-1.3-0.8,1.2-2.4,2.2-2.7
	c0.8-0.3,0.1-0.9,1-1.5c0.5-0.3,0.8-0.7,1.2-0.8c0.6-0.3,2,1,1.6,0c-0.5-1.7,0.4-1,0.3-2.4c0-0.7,0.5-1.7,0.8-1.6
	c1,0.3,0.7-0.8,0.9-0.8c1.3-0.5,2.1-3.2,3.3-1.4c0.9,1.4,2.7,2.3,2.7,1.9c0.1-0.5-0.7-0.7-1-1.4c-0.5-1-2.1-1.2-1.8-2.2
	c0.3-0.7,0.2-0.7-0.8-1.2c-0.5-0.2-0.7-0.4-0.5-0.6c0.7-0.8,0.5-1.9-0.9-1.2c-0.3,0.1-0.5,1-1.3,0.1c-0.4-0.5-0.8-0.7-1.4-0.6
	c-1,0.2-1.2-1.5-2.5-1.3c-2.3,0.4-1.8,0.6-3.6,0.2c-1-0.3-1.1-1.2-1.8-1c-0.3,0.1-0.3,0.3,0.1,0.6c0.5,0.5,0.5,0.7,0.3,1
	c-0.6,0.7-1.2,0-1.6-0.3c-1.6-1.4-1,1.9-3.3,0.2c-1-0.8-0.6,0.3-0.7,0.5c-0.1,0.2-0.8-0.3-1.2-0.3c-1.1,0.2-1.3,0.5-1.2,1
	c0.3,1,0.2,1.3,0.9,2c0.5,0.6,1.1,1.1,0.8,1.6c-0.3,0.4-1.2,1.1-2.1,1.4c-0.2,0.1-0.8-0.3-0.8-0.5c-0.1-0.3-0.1-0.6-0.2-0.8
	c-0.1-0.6-1.1-1-1.6-0.7c-0.7,0.5-1.4,1-2.1,1.4c-0.6,0.4-1.4,0.6-1.8,1.1c-0.3,0.3-1-0.2-1.5-0.5c-1,0.6-2,1-2.9,1.6
	c-0.1,0.1-0.3,0.1-0.5,0.1c-1.4-0.2-1,1.2-2.2,2.1c-1,0.8,0.5,1.7-0.7,2.5c-0.7,0.5-1.6-0.1-3.3,1c-2.2,1.6-2.3,1.9-3.5,1.6
	c-1.2-0.3-4.5,3.1-5.7,3.6c-0.1,0.1-2,2.8-2.7,2.3c-0.7-0.4,0.6-2.2,0.9-2.5c0.3-0.3,0.5-0.5,0.7-1c0.3-0.9,0.7-1.1,1.2-1.6
	c0.5-0.6,0.2-0.8,0.2-1.6c0,0,0,0,0.1,0c0.2-0.8,0.2-1.4,1-1.4c1,0.1,1.2,0.6,1.8,0.3c2.1-1.5,1.1-1.4,4.2-1.4
	c0.3,0,0.7-0.6-0.5-0.7c-0.4,0-0.8,0.1-1.2-0.3c-0.5-0.3-0.5-0.7-0.7-1.1c-0.1-0.2-0.1-0.2-2.4-0.6c-1.4-0.3,0.3,1.5-0.5,2.1
	c-0.7,0.5-2-0.1-2.2-0.5c-0.6-1.1-0.4-1.6-1.2-1.6c-1.7,0-1.8-0.1-1.9,0.5c-0.1,0.1,0.2,1.5-0.6,1c-0.7-0.4-1.2-0.5-1.4,0.1
	c-0.2,0.4-0.1,0.6,0.1,1.3c0,0.1,0,0.1,0,0.3c0,0.6-0.7,0.3-1,0.3c-1-0.1,0.1,1.3-1.4,1.3c-0.7,0-1,0.6-2,1.5
	c-0.4,0.3-0.6,0.2-2.6,0.5c-0.2,0-0.1,0.5,0.1,0.7c0.3,0.3,0.6,0.5,0.9,0.6c2.9,0.8,3.1,0.3,3.3,1c0,0.1,0,0.2,0,0.2
	c-1.1,0.3-0.5,1.2-1.3,1.5c-0.8,0.3-1.5,0.9-2.2,1.3c-0.4,0.2-0.3,1.2,0.4,1.4c1.1,0.5,1.8,0.5,2.2,1.5c-0.4,0-0.6,0.2-0.8,0.4
	c-0.7,0.6-2.3,0.5-2.7,0c0.2,0.3,0.4,0.6,0.6,0.8c0.7,0.5,1.3,1.1,2,1.7c0.1,0.1,0.5,0.1,0.5-0.1c-0.1-0.9-0.5-1.2-0.1-1.2
	c0.3-0.1,0.7,0.3,0.8,0.5c0.5,0.5,1.1,1,1.1,1.6c0,0.5,0.7,1.9,0.3,2.4c0,0.1-0.3,0-0.3-0.1c-0.8-0.8-2-1.1-2.3-0.6
	c-0.1,0.3,0.3,0.5,0.5,0.8c0.5,0.5,0.4,0.9-0.1,0.8c-2.6-0.6-1.8,0.8-3,0.1c-0.4-0.2-0.2-0.3-2.2-1.3c-1.4-0.7-1.2,0.9-0.4,1
	c1.2,0.1,2,0,2.7,0.8c0.3,0.4,0.8,0.6,1.2,0.8c1,0,2.2,1,2,1.4c-0.8,2.1-1.9,0.6-2.6,0.4c-0.7-0.3-0.8,0.1-0.5,0.5
	c0.5,0.5,0.8,1,0.3,1.2c-0.4,0.2-0.4,0.6-0.5,1c-0.1,0.5-1-0.3-1.6,0c-1.6,0.8-2.2-0.8-5.3-0.6c-0.2,0-0.1,0.6,0,0.7
	c0.3,0.3,0.6,0.5,0.8,0.7c0.7,0.6,0.9,1.5,0.4,1.7l0.2,0.1c-0.9-0.3-2.1,0.5-4-0.5c-1.6-0.9-2.6-0.6-4.9-0.3c-0.2,0-0.3,0.4-0.2,0.6
	c0.5,0.6,0.6,1.2,0.2,1.6c-1.6,1.7,3.1,3.9,2.3,4.6c-0.2,0.2-0.8,0.3-0.2,1.1c0.4,0.5,0.5,0.3,2.8,1c0.5,0.1,0.7,0.7,0.3,0.8
	c-0.8,0.3-1.8,0.6-2.3,0.8c-0.5,0.2-0.5,1.2,1,2.5c1,0.8,1.8,0.8,2.6,2.5c1.2,2.4-0.7,3.6,3.5,5.7c0.4,0.2,1.2,0.4,1.4,1.1
	c1.4,4.9,7.1,12.3,14.4,16.7c1.2,0.7,2.3,1.5,3.4,2.3c0.4,0.3,0.8,0.6,1.2,0.8c1.2,0.6,2.3,1.5,3.5,2.2c4.2,2.6,4.4,2.4,5.5,3.6
	c0.7,0.8,1,1.4,1.9,1.6c1,0.2,1.2,0,2.4-0.3c0.7-0.1,1,0.9,1.4,1.4c0.2,0.3,1,0.7,1.4,0.4c0.7-0.5,0.8-2,2.7-2.1
	c1.6-0.1,0.7-1.3,1.6-2.1c0.4-0.4,1.8,0.3,2.3,0.9c1.2,1.3,1.8,1.9,3.1,2.4c-0.7-0.9,0.1-0.9-0.3-1.9L280,102
	c-0.4-0.3-0.5-0.8-0.1-0.9c0.7-0.1,1.7,0.2,1.2-1c-0.3-0.7,0-1.2-0.1-1.9c-0.1-0.6,0.4-0.8,0.9-0.9c1.1-0.1,0.8,1,1.9,1.7
	c0.6,0.4,0.5,0.8,0.5,1.1c0.1,0.2,0.7,0.6,0.8,0.6c0.3-0.1,0.5-0.4,0.7-0.6c1.4,0.1,1.4-0.8,3.3-0.3c2.5,0.7,2.6,2.9,3.6,1.2
	c-0.4-2.2,0.8-2.3,1.1-3.8c0.9-4.9,3.6-5.5,5.2-6.7c0.3-0.3,0.8,0.3,1.8,0.6c1.3,0.5,1.2-0.3,2.7,0.7c0.3,0.2,0.3,0.1,1.9-0.2
	c0.9-1.3,1.1-0.3,0.7-2.5c-0.5-1.5-0.8-0.3-1.2-0.1c-0.7,0.3-1.3-0.8-1.6-1.7c-0.1-0.3-0.1-0.4,2.5-2.7c0.5-0.4,1.4-0.1,1.7-0.8
	c1-2.4,2.9-2.5,3.4-3.4c1-1.4,2.9-3,2.3-3.2c-0.5-0.3-0.8,0.3-1.3-0.3c-0.7-1,2.6-2.7,2.3-4.7c-0.1-0.5,0.7-1.4,0.8-1.6
	c0.3-0.3,1,0.1,1.5,0.3c1.2,0.5,0.9-0.5,1.5-0.5c0.5-0.1,1.9-0.9,0.6-2.2c-0.3-0.3-0.8-0.5-0.5-1.2c0.2-0.5,0.9-1.2,1.7-0.6
	c0.4,0.3,1,0.6,1.2,0.4c0.2-0.3-0.6-0.7-1-1.4c-0.7-1-2.7-2.2-3.3-1.5c-0.5,0.6-1.3,0.8-2,1.2c-0.5,0.3-1.2-0.1-1.3-0.5
	c-0.2-1.3,1.6-2.2-0.5-2.9c-0.6-0.2-0.5-0.5-0.5-0.6c1.1-1,0.9-1,1.7-0.4c1.4,1,1.3,1.1,2,0.8c1.4-0.6,1.1,1.3,2.5,1.6
	c0.6,0.1,1.4,0.5,1.7,0.1c0.4-0.5,0.8-1.6,2.1-2.3c0.1-0.1,0.2-0.5,0.1-0.7c-0.4-2.1,1.4-0.8,1.8-2.1
	C325.1,57.8,324.7,57.7,324.5,57.7z M297.2,19.6c0.2,0.5-0.5,0.6-0.5,0.2C296.7,19.5,297.1,19.5,297.2,19.6z M295.2,17.6
	c0.7-0.1,1,0.6,0.5,0.6C295.4,18.3,294.8,17.7,295.2,17.6z M287.1,33.7c0.1,0,0.1,0.1,0.2,0.1C287.1,34.4,286.6,33.7,287.1,33.7z
	 M277.2,40.3c0.3,0.4-0.3,0.3-0.4,0C276.9,40.2,277.1,40.2,277.2,40.3z M274.9,42.3c0.1,0,0.2,0.1,0.3,0.1c0,0.1,0.1,0.2,0.1,0.3
	c-0.4,0.5-1.2,1.6-1.7,0.8C273.4,43.1,273.5,43.2,274.9,42.3z M270.3,23.7c-0.1,0-0.2-0.1-0.3-0.1C270,23,270.7,23.6,270.3,23.7z
	 M250.4,31.7c1-1.6,1-1.9,1.9-1.7c0,0.9-1,1.7-1.5,2C250.6,32.1,250.3,31.9,250.4,31.7z M243.1,39.6c0.1-0.4,0.3-0.6,0.4-0.6
	C243.4,39.1,243.4,39.3,243.1,39.6z M243.8,38.8C243.8,38.8,243.8,38.7,243.8,38.8C243.8,38.7,243.8,38.7,243.8,38.8
	C243.8,38.7,243.8,38.7,243.8,38.8z M247.7,30.8c-0.2,0-0.7-0.5-0.5-0.6C248.5,28.5,250.5,30.4,247.7,30.8z M247.5,27.1
	c0.2,0.1,0.2,0.3,0,0.4c-0.3,0.1-0.4,0.1-0.5,0.1C247,27.4,247.1,27,247.5,27.1z M246.4,30.8l0.2,0.2C246.4,31,246.4,31,246.4,30.8z
	 M246.8,37.8c0.1,0.1,0.3,0.4,0.1,0.4c-0.5,0-1,0.1-1.5,0.3C244.8,38.7,243.8,36.7,246.8,37.8z M234.1,63.9c-0.8-0.2-0.9-1-0.7-1.1
	c1.4-1,1.5-0.7,2.8,0.3C236.6,63.5,235.4,64.2,234.1,63.9z M276,94.8c-0.1-0.1-0.1-0.1-0.1-0.1C275.9,94.8,276,94.8,276,94.8z
	 M275.9,95c0.1-0.1,0.1-0.1,0.1-0.1C276.1,95,276.3,95.1,275.9,95z M284.5,96.6c-0.5,0.1-0.8-0.4-0.5-0.6
	C284.3,95.6,285,96.4,284.5,96.6z M292.1,98.3c0,0.2-0.2,0.7-0.5,0.7c-0.3,0-0.2-0.6-0.5-1c-0.5-0.5-0.7-0.9-1-1.4
	c-0.3-0.4-0.3-0.8-0.1-1c0.4-0.3,0.6-1,1.8-1.4c0.7-0.2,0.9,1.4,1,2.1C293,97.4,292.1,96.9,292.1,98.3z M295.6,91.3
	c-0.4,0-0.8-0.2-1.2-0.5c-0.2-0.1-0.5-0.6-0.5-0.8c0.1-0.3,0-0.3,1.6-0.8C296.2,89,297.6,91.1,295.6,91.3z M307.8,57.3
	c0.2,0.1,0.2,0.7-0.3,0.3C307.3,57.5,307.3,57,307.8,57.3z M310.1,62.2c-0.7,0.9-1,1.1-2,0.6c-0.3-0.2-0.7-0.4-0.8-0.7
	c-0.6-1.7-1.1-1.9,1.5-1.2C309.1,61,310.5,61.7,310.1,62.2z M313.1,53.7c-0.1,0.1-0.4-0.1-0.5-0.3c-0.1-0.5,0.5-0.8,0.8-0.6
	C313.6,52.9,313.8,53.6,313.1,53.7z M315.2,55.4c0.1-0.3,1.2,0.2,1,0.6C315.7,56.9,314.8,56.3,315.2,55.4z M316.1,58.3
	c-0.6-0.3-0.3-0.8,0.1-0.7C316.7,57.7,316.7,58.6,316.1,58.3z M319.1,61.2c-1-0.1-1.2-1.6,0.2-1.9c0.7-0.1,1.8,0.8,2.1,1.8
	C321.5,61.7,321.2,61.3,319.1,61.2z M320.6,53.7c-0.1-0.1-0.5-0.1-0.7,0C320.2,53.8,320.5,54,320.6,53.7z M314.6,48L314.6,48
	C314.5,48.1,314.5,48.1,314.6,48C314.5,48.1,314.5,48.1,314.6,48C314.6,48.1,314.6,48.1,314.6,48z"/>
</svg>
