<svg xmlns="http://www.w3.org/2000/svg" viewBox="0 0 300 307" id="pushisty-code">
<style type="text/css">
#pushisty-code-eye1,#pushisty-code-eye2 {
	fill: blue;
	transition: 0.3s ease;
	transform-origin: 35% 55%;
}
#pushisty-code-bg {
	fill: red;
}
#pushisty-code:hover{
    fill: rgba(255, 255, 255, 0.5);
}
#pushisty-code:hover #pushisty-code-eye1 {
    animation: eye1 infinite 1s linear;
}
@keyframes eye1{
	to {
      transform: rotate(360deg);
	}
}
</style>
	<path id="pushisty-code-eye1" d="M144.3,155.9c-0.3,2.3-0.9,4.5-1.8,6.6c-3,5.5-8,9.8-14.3,11.8c-4.4,1.4-8.8,1.4-12.9,0.3l0,0c-5.4-1.4-10.3-4.6-13.7-9.3
		c1.4,1.7,2.8,3.1,4.4,4.3c2.6,1.9,5.5,3.2,8.9,3.7c2.9,0.5,6,0.3,8.8-0.5c5.4-1.5,9.8-4.7,12.7-9.7c2.6-4.4,3.6-9.3,2.6-14.7
		c-0.6-3.1-2-6.1-4-8.5c-4.1-4.9-9.6-7.1-16.2-6.1c-2.3,0.3-4.5,1.2-6.3,2.6c-3.8,2.8-6.3,6.4-7,11c-0.6,3.6-0.1,7,1.7,10.1
		c2.5,4.2,6,6.5,10.8,6.7c2.8,0.1,5.3-0.7,7.6-2.5c3.1-2.3,4.6-5.5,4.7-9.4c0.1-4.1-2.2-7.6-5.8-9c-3.6-1.5-7.7-0.1-9.6,3.4
		c-1.5,2.7-1.3,5.5,1.3,7.6c1.6,1.3,4.3,1.1,5.5-0.7c0.7-1,0.7-2.4,0.1-3.4c-0.4-0.5-0.7-0.6-1.1,0c-0.5,0.6-1,1.3-1.5,1.9
		c-0.1,0.1-0.3,0.1-0.5,0.2c-0.1-0.2-0.1-0.3-0.2-0.5c0-0.3,0-0.6-0.1-0.8c-0.6-1-0.5-1.9,0.2-2.7c1-1.3,2.3-1.6,3.8-1.3
		c2.6,0.5,3.9,2.8,4,5.2c0.1,3.7-2.3,6.6-5.7,7.6c-5,1.4-9.5-1.6-11-6.4c-1-2.9-0.7-5.9,0.7-8.7c3-5.9,9.6-8.5,15.5-6.4
		c5.7,2,8.8,6.5,9.5,12.6c0.4,3.9-0.7,7.6-2.8,10.9c-2.3,3.4-5.3,5.7-9.1,6.8c-3.6,1.2-7.2,1.1-10.8-0.1c-2.8-0.9-5.2-2.5-7.2-4.7
		c-2.2-2.4-3.8-5.2-4.6-8.3c-1.1-4-0.9-8,0.4-12c1.4-4.3,4.1-8,7.6-10.7c3.8-2.9,8.1-4.4,12.7-4.6c3.1-0.1,6.1,0.5,8.9,1.7
		c6.3,2.6,10.5,7.3,12.8,13.8C144.5,147.8,144.8,151.8,144.3,155.9z"/>
	<path id="pushisty-code-eye2" d="M198,155.9c-0.3,2.3-0.9,4.5-1.8,6.6c-3,5.5-8,9.8-14.3,11.8c-4.4,1.4-8.8,1.4-12.9,0.3l0,0c-5.4-1.4-10.3-4.6-13.7-9.3
		c1.4,1.7,2.8,3.1,4.4,4.3c2.6,1.9,5.5,3.2,8.9,3.7c2.9,0.5,6,0.3,8.8-0.5c5.4-1.5,9.8-4.7,12.7-9.7c2.6-4.4,3.6-9.3,2.6-14.7
		c-0.6-3.1-2-6.1-4-8.5c-4.1-4.9-9.6-7.1-16.2-6.1c-2.3,0.3-4.5,1.2-6.3,2.6c-3.8,2.8-6.3,6.4-7,11c-0.6,3.6-0.1,7,1.7,10.1
		c2.5,4.2,6,6.5,10.8,6.7c2.8,0.1,5.3-0.7,7.6-2.5c3.1-2.3,4.6-5.5,4.7-9.4c0.1-4.1-2.2-7.6-5.8-9c-3.6-1.5-7.7-0.1-9.6,3.4
		c-1.5,2.7-1.3,5.5,1.3,7.6c1.6,1.3,4.3,1.1,5.5-0.7c0.7-1,0.7-2.4,0.1-3.4c-0.4-0.5-0.7-0.6-1.1,0c-0.5,0.6-1,1.3-1.5,1.9
		c-0.1,0.1-0.3,0.1-0.5,0.2c-0.1-0.2-0.1-0.3-0.2-0.5c0-0.3,0-0.6-0.1-0.8c-0.6-1-0.5-1.9,0.2-2.7c1-1.3,2.3-1.6,3.8-1.3
		c2.6,0.5,3.9,2.8,4,5.2c0.1,3.7-2.3,6.6-5.7,7.6c-5,1.4-9.5-1.6-11-6.4c-1-2.9-0.7-5.9,0.7-8.7c3-5.9,9.6-8.5,15.5-6.4
		c5.7,2,8.8,6.5,9.5,12.6c0.4,3.9-0.7,7.6-2.8,10.9c-2.3,3.4-5.3,5.7-9.1,6.8c-3.6,1.2-7.2,1.1-10.8-0.1c-2.8-0.9-5.2-2.5-7.2-4.7
		c-2.2-2.4-3.8-5.2-4.6-8.3c-1.1-4-0.9-8,0.4-12c1.4-4.3,4.1-8,7.6-10.7c3.8-2.9,8.1-4.4,12.7-4.6c3.1-0.1,6.1,0.5,8.9,1.7
		c6.3,2.6,10.5,7.3,12.8,13.8C198.3,147.8,198.6,151.8,198,155.9z"/>
<path id="pushisty-code-bg" d="M300,152.2c0.5,31.3-8.1,60.5-23.1,85c-0.3,0.5-0.9,0.7-1.5,0.6c-4-1.2-8.2-2.2-12.2-3.4
	c-3.4-0.7-6.8-1.5-10.3-2.2l-13.4-1.9l-4.4-7.8c-2.2-3.5-5.7-9.1-7.8-12.6L222,202c-1.7-2.5-3.5-5.1-5.3-7.6l-4.9-6.6
	c-0.3-0.4-0.4-0.9-0.4-1.4l0.2-4c0.1-1.1,0-2.2-0.1-3.3v0c-0.4-3.9-1-7.8-1.7-11.7l-0.7-3.7l-1.3-6.9c-0.1-0.6-0.1-1.2-0.1-1.9
	l0.7-8.3c0-0.5,0.1-1.1,0.2-1.6c0.7-4.1,1.5-8.1,2.3-12.1l4.1-13.4c0.2-0.6,0.3-1.1,0.4-1.7c0.5-4.1,1.3-10,1.8-14
	c0.1-0.4,0.1-0.8,0-1.3l-0.2-4.1c0-0.8-0.1-1.1-0.2-1.5c-0.9-4.6-2.3-15.7-5.6-13.6c-0.1,0,0.5-0.1,0,0l-7.6,3.4
	c-1.6,0.9-3.1,1.9-4.7,2.8c-4.2,3.2-7.4,5.9-9.7,7.8c-2.1,1.7-3.6,3.1-6,4.9c-2.6,1.9-4.7,3.4-6.2,4.4c-1.1,0.8-2.6,1.8-4.5,2.6
	c-1.5,0.6-2.9,1-4.1,1.2c-1.1,0-2.1,0-3.1,0l-13-2.3c-2.9-0.1-5.8-0.1-8.7-0.2l-10.9,1.5l-8.9,0.6c-1-0.3-2.4-0.7-3.4-1l-7.6-5.4
	c-3.3-2.5-8.7-6.7-12-9.2l-1.2-1l-8.8-7.2l-5-4.9c-1.7-1.3-3.4-0.7-4.4,0.2l-1.5,1.7c-0.6,1.1-1.6,2.7-2.2,4.5
	c-0.7,1.9-1.2,3.7-1.5,5.2c-0.2,1.6-0.3,3.8-0.3,6.5c0.1,4.3,0.5,7.5,1.2,11.8c0.6,3.6,1.5,7.4,2.4,10.7c0.3,1,0.3,2.1,0.7,3.1
	l6.2,16.1l2.2,6.7c0.7,2.3,0.7,4.7,0,7l-5,15.4c-0.3,1-0.5,2-0.5,3v1.7c0,2.3,0.3,4.7,0.8,6.9l2.5,10.2l3,9.2
	c0.2,0.7,0.5,1.3,0.8,1.9l11.7,24.1c0.7,1.4,1,3,1,4.6v5.7c0,1.4-0.3,2.7-0.9,4l-3.7,7.6c-1.3,2.7-2.4,5.6-3.1,8.6l-1.1,4.5
	c-0.7,3.1-0.9,6.2-0.5,9.4l1.2,10.1l3,18.2C40.7,277.9,0,221.2,0,154.6C0,67.2,70.3-3.2,155.9,0.1C234.9,3.2,298.8,70.7,300,152.2z"
	/>
</svg>
