<svg width="100" height="120" viewBox="0 0 100 120" xmlns="http://www.w3.org/2000/svg">
<path fill-rule="evenodd" clip-rule="evenodd" d="M69.2969 67.8772C69.2969 66.0106 68.8281 64.2995 68.125 62.9773C67.2656 61.6551 66.25 60.5662 64.9219 59.7107C63.5937 58.8551 61.875 58.0774 60 57.5329C58.125 57.0663 56.0156 56.3663 53.75 55.8996C51.9531 55.3552 50.625 55.0441 49.8437 54.8885C49.0625 54.6552 48.2031 54.4219 47.5781 54.033C46.875 53.6441 46.25 53.2552 45.8594 52.7886C45.4688 52.3997 45.3125 51.7775 45.3125 51.1553C45.3125 50.1442 45.9375 49.2886 47.1094 48.5109C48.3594 47.7331 50 47.3442 52.0312 47.3442C54.2187 47.3442 55.8594 47.6553 56.7969 48.4331C57.7344 49.2109 58.6719 50.222 59.375 51.5441C60 52.5552 60.5469 53.333 61.0937 53.7219C61.6406 54.1108 62.3437 54.4219 63.4375 54.4219C64.6094 54.4219 65.625 53.8774 66.4062 53.1775C67.2656 52.4775 67.5781 51.5441 67.5781 50.5331C67.5781 49.4442 67.3438 48.4331 66.7188 47.3442C66.25 46.2554 65.3125 45.322 63.9844 44.3109C62.7344 43.3776 61.0938 42.5221 59.2188 42.0554C57.4219 41.4332 55.1563 41.1999 52.5781 41.1999C49.375 41.1999 46.4844 41.5888 44.1406 42.4443C41.7969 43.2221 39.9219 44.5443 38.5938 46.1776C37.2656 47.8887 36.6406 49.7553 36.6406 51.8553C36.6406 54.033 37.2656 55.8996 38.5156 57.4552C39.7656 59.0107 41.4062 60.1773 43.4375 61.0329C45.4687 61.8884 47.9687 62.6662 50.9375 63.2106C53.125 63.6773 54.8438 64.1439 56.25 64.455C57.5 64.8439 58.5156 65.4661 59.2969 66.1661C60.0781 66.8661 60.3906 67.7216 60.3906 68.8105C60.3906 70.1327 59.6875 71.2994 58.2812 72.3105C56.875 73.3215 54.9219 73.866 52.5781 73.866C50.8594 73.866 49.6094 73.6327 48.5156 73.166C47.5 72.6216 46.6406 71.9993 46.1719 71.2994C45.625 70.5216 45.0781 69.5883 44.5312 68.4216C44.1406 67.4105 43.4375 66.555 42.8125 66.0883C42.1094 65.4661 41.3281 65.2328 40.3125 65.2328C39.1406 65.2328 38.125 65.6217 37.3437 66.3217C36.4844 67.0217 36.1719 67.955 36.1719 68.9661C36.1719 70.6771 36.7187 72.3105 37.9687 74.0215C39.2187 75.7326 40.8594 77.0548 42.7344 78.0659C45.3906 79.5437 48.75 80.1659 52.8125 80.1659C56.25 80.1659 59.2969 79.5437 61.7188 78.6103C64.2188 77.677 66.1719 76.277 67.5 74.3326C68.5156 72.7771 69.1406 71.2216 69.2969 69.4327C69.2969 68.8883 69.2969 68.4216 69.2969 67.8772ZM69.2969 67.8772C69.2969 66.0106 68.8281 64.2995 68.125 62.9773C67.2656 61.6551 66.25 60.5662 64.9219 59.7107C63.5937 58.8551 61.875 58.0774 60 57.5329C58.125 57.0663 56.0156 56.3663 53.75 55.8996C51.9531 55.3552 50.625 55.0441 49.8437 54.8885C49.0625 54.6552 48.2031 54.4219 47.5781 54.033C46.875 53.6441 46.25 53.2552 45.8594 52.7886C45.4688 52.3997 45.3125 51.7775 45.3125 51.1553C45.3125 50.1442 45.9375 49.2886 47.1094 48.5109C48.3594 47.7331 50 47.3442 52.0312 47.3442C54.2187 47.3442 55.8594 47.6553 56.7969 48.4331C57.7344 49.2109 58.6719 50.222 59.375 51.5441C60 52.5552 60.5469 53.333 61.0937 53.7219C61.6406 54.1108 62.3437 54.4219 63.4375 54.4219C64.6094 54.4219 65.625 53.8774 66.4062 53.1775C67.2656 52.4775 67.5781 51.5441 67.5781 50.5331C67.5781 49.4442 67.3438 48.4331 66.7188 47.3442C66.25 46.2554 65.3125 45.322 63.9844 44.3109C62.7344 43.3776 61.0938 42.5221 59.2188 42.0554C57.4219 41.4332 55.1563 41.1999 52.5781 41.1999C49.375 41.1999 46.4844 41.5888 44.1406 42.4443C41.7969 43.2221 39.9219 44.5443 38.5938 46.1776C37.2656 47.8887 36.6406 49.7553 36.6406 51.8553C36.6406 54.033 37.2656 55.8996 38.5156 57.4552C39.7656 59.0107 41.4062 60.1773 43.4375 61.0329C45.4687 61.8884 47.9687 62.6662 50.9375 63.2106C53.125 63.6773 54.8438 64.1439 56.25 64.455C57.5 64.8439 58.5156 65.4661 59.2969 66.1661C60.0781 66.8661 60.3906 67.7216 60.3906 68.8105C60.3906 70.1327 59.6875 71.2994 58.2812 72.3105C56.875 73.3215 54.9219 73.866 52.5781 73.866C50.8594 73.866 49.6094 73.6327 48.5156 73.166C47.5 72.6216 46.6406 71.9993 46.1719 71.2994C45.625 70.5216 45.0781 69.5883 44.5312 68.4216C44.1406 67.4105 43.4375 66.555 42.8125 66.0883C42.1094 65.4661 41.3281 65.2328 40.3125 65.2328C39.1406 65.2328 38.125 65.6217 37.3437 66.3217C36.4844 67.0217 36.1719 67.955 36.1719 68.9661C36.1719 70.6771 36.7187 72.3105 37.9687 74.0215C39.2187 75.7326 40.8594 77.0548 42.7344 78.0659C45.3906 79.5437 48.75 80.1659 52.8125 80.1659C56.25 80.1659 59.2969 79.5437 61.7188 78.6103C64.2188 77.677 66.1719 76.277 67.5 74.3326C68.5156 72.7771 69.1406 71.2216 69.2969 69.4327C69.2969 68.8883 69.2969 68.4216 69.2969 67.8772ZM69.2969 67.8772C69.2969 66.0106 68.8281 64.2995 68.125 62.9773C67.2656 61.6551 66.25 60.5662 64.9219 59.7107C63.5937 58.8551 61.875 58.0774 60 57.5329C58.125 57.0663 56.0156 56.3663 53.75 55.8996C51.9531 55.3552 50.625 55.0441 49.8437 54.8885C49.0625 54.6552 48.2031 54.4219 47.5781 54.033C46.875 53.6441 46.25 53.2552 45.8594 52.7886C45.4688 52.3997 45.3125 51.7775 45.3125 51.1553C45.3125 50.1442 45.9375 49.2886 47.1094 48.5109C48.3594 47.7331 50 47.3442 52.0312 47.3442C54.2187 47.3442 55.8594 47.6553 56.7969 48.4331C57.7344 49.2109 58.6719 50.222 59.375 51.5441C60 52.5552 60.5469 53.333 61.0937 53.7219C61.6406 54.1108 62.3437 54.4219 63.4375 54.4219C64.6094 54.4219 65.625 53.8774 66.4062 53.1775C67.2656 52.4775 67.5781 51.5441 67.5781 50.5331C67.5781 49.4442 67.3438 48.4331 66.7188 47.3442C66.25 46.2554 65.3125 45.322 63.9844 44.3109C62.7344 43.3776 61.0938 42.5221 59.2188 42.0554C57.4219 41.4332 55.1563 41.1999 52.5781 41.1999C49.375 41.1999 46.4844 41.5888 44.1406 42.4443C41.7969 43.2221 39.9219 44.5443 38.5938 46.1776C37.2656 47.8887 36.6406 49.7553 36.6406 51.8553C36.6406 54.033 37.2656 55.8996 38.5156 57.4552C39.7656 59.0107 41.4062 60.1773 43.4375 61.0329C45.4687 61.8884 47.9687 62.6662 50.9375 63.2106C53.125 63.6773 54.8438 64.1439 56.25 64.455C57.5 64.8439 58.5156 65.4661 59.2969 66.1661C60.0781 66.8661 60.3906 67.7216 60.3906 68.8105C60.3906 70.1327 59.6875 71.2994 58.2812 72.3105C56.875 73.3215 54.9219 73.866 52.5781 73.866C50.8594 73.866 49.6094 73.6327 48.5156 73.166C47.5 72.6216 46.6406 71.9993 46.1719 71.2994C45.625 70.5216 45.0781 69.5883 44.5312 68.4216C44.1406 67.4105 43.4375 66.555 42.8125 66.0883C42.1094 65.4661 41.3281 65.2328 40.3125 65.2328C39.1406 65.2328 38.125 65.6217 37.3437 66.3217C36.4844 67.0217 36.1719 67.955 36.1719 68.9661C36.1719 70.6771 36.7187 72.3105 37.9687 74.0215C39.2187 75.7326 40.8594 77.0548 42.7344 78.0659C45.3906 79.5437 48.75 80.1659 52.8125 80.1659C56.25 80.1659 59.2969 79.5437 61.7188 78.6103C64.2188 77.677 66.1719 76.277 67.5 74.3326C68.5156 72.7771 69.1406 71.2216 69.2969 69.4327C69.2969 68.8883 69.2969 68.4216 69.2969 67.8772ZM69.2969 67.8772C69.2969 66.0106 68.8281 64.2995 68.125 62.9773C67.2656 61.6551 66.25 60.5662 64.9219 59.7107C63.5937 58.8551 61.875 58.0774 60 57.5329C58.125 57.0663 56.0156 56.3663 53.75 55.8996C51.9531 55.3552 50.625 55.0441 49.8437 54.8885C49.0625 54.6552 48.2031 54.4219 47.5781 54.033C46.875 53.6441 46.25 53.2552 45.8594 52.7886C45.4688 52.3997 45.3125 51.7775 45.3125 51.1553C45.3125 50.1442 45.9375 49.2886 47.1094 48.5109C48.3594 47.7331 50 47.3442 52.0312 47.3442C54.2187 47.3442 55.8594 47.6553 56.7969 48.4331C57.7344 49.2109 58.6719 50.222 59.375 51.5441C60 52.5552 60.5469 53.333 61.0937 53.7219C61.6406 54.1108 62.3437 54.4219 63.4375 54.4219C64.6094 54.4219 65.625 53.8774 66.4062 53.1775C67.2656 52.4775 67.5781 51.5441 67.5781 50.5331C67.5781 49.4442 67.3438 48.4331 66.7188 47.3442C66.25 46.2554 65.3125 45.322 63.9844 44.3109C62.7344 43.3776 61.0938 42.5221 59.2188 42.0554C57.4219 41.4332 55.1563 41.1999 52.5781 41.1999C49.375 41.1999 46.4844 41.5888 44.1406 42.4443C41.7969 43.2221 39.9219 44.5443 38.5938 46.1776C37.2656 47.8887 36.6406 49.7553 36.6406 51.8553C36.6406 54.033 37.2656 55.8996 38.5156 57.4552C39.7656 59.0107 41.4062 60.1773 43.4375 61.0329C45.4687 61.8884 47.9687 62.6662 50.9375 63.2106C53.125 63.6773 54.8438 64.1439 56.25 64.455C57.5 64.8439 58.5156 65.4661 59.2969 66.1661C60.0781 66.8661 60.3906 67.7216 60.3906 68.8105C60.3906 70.1327 59.6875 71.2994 58.2812 72.3105C56.875 73.3215 54.9219 73.866 52.5781 73.866C50.8594 73.866 49.6094 73.6327 48.5156 73.166C47.5 72.6216 46.6406 71.9993 46.1719 71.2994C45.625 70.5216 45.0781 69.5883 44.5312 68.4216C44.1406 67.4105 43.4375 66.555 42.8125 66.0883C42.1094 65.4661 41.3281 65.2328 40.3125 65.2328C39.1406 65.2328 38.125 65.6217 37.3437 66.3217C36.4844 67.0217 36.1719 67.955 36.1719 68.9661C36.1719 70.6771 36.7187 72.3105 37.9687 74.0215C39.2187 75.7326 40.8594 77.0548 42.7344 78.0659C45.3906 79.5437 48.75 80.1659 52.8125 80.1659C56.25 80.1659 59.2969 79.5437 61.7188 78.6103C64.2188 77.677 66.1719 76.277 67.5 74.3326C68.5156 72.7771 69.1406 71.2216 69.2969 69.4327C69.2969 68.8883 69.2969 68.4216 69.2969 67.8772ZM69.2969 67.8772C69.2969 66.0106 68.8281 64.2995 68.125 62.9773C67.2656 61.6551 66.25 60.5662 64.9219 59.7107C63.5937 58.8551 61.875 58.0774 60 57.5329C58.125 57.0663 56.0156 56.3663 53.75 55.8996C51.9531 55.3552 50.625 55.0441 49.8437 54.8885C49.0625 54.6552 48.2031 54.4219 47.5781 54.033C46.875 53.6441 46.25 53.2552 45.8594 52.7886C45.4688 52.3997 45.3125 51.7775 45.3125 51.1553C45.3125 50.1442 45.9375 49.2886 47.1094 48.5109C48.3594 47.7331 50 47.3442 52.0312 47.3442C54.2187 47.3442 55.8594 47.6553 56.7969 48.4331C57.7344 49.2109 58.6719 50.222 59.375 51.5441C60 52.5552 60.5469 53.333 61.0937 53.7219C61.6406 54.1108 62.3437 54.4219 63.4375 54.4219C64.6094 54.4219 65.625 53.8774 66.4062 53.1775C67.2656 52.4775 67.5781 51.5441 67.5781 50.5331C67.5781 49.4442 67.3438 48.4331 66.7188 47.3442C66.25 46.2554 65.3125 45.322 63.9844 44.3109C62.7344 43.3776 61.0938 42.5221 59.2188 42.0554C57.4219 41.4332 55.1563 41.1999 52.5781 41.1999C49.375 41.1999 46.4844 41.5888 44.1406 42.4443C41.7969 43.2221 39.9219 44.5443 38.5938 46.1776C37.2656 47.8887 36.6406 49.7553 36.6406 51.8553C36.6406 54.033 37.2656 55.8996 38.5156 57.4552C39.7656 59.0107 41.4062 60.1773 43.4375 61.0329C45.4687 61.8884 47.9687 62.6662 50.9375 63.2106C53.125 63.6773 54.8438 64.1439 56.25 64.455C57.5 64.8439 58.5156 65.4661 59.2969 66.1661C60.0781 66.8661 60.3906 67.7216 60.3906 68.8105C60.3906 70.1327 59.6875 71.2994 58.2812 72.3105C56.875 73.3215 54.9219 73.866 52.5781 73.866C50.8594 73.866 49.6094 73.6327 48.5156 73.166C47.5 72.6216 46.6406 71.9993 46.1719 71.2994C45.625 70.5216 45.0781 69.5883 44.5312 68.4216C44.1406 67.4105 43.4375 66.555 42.8125 66.0883C42.1094 65.4661 41.3281 65.2328 40.3125 65.2328C39.1406 65.2328 38.125 65.6217 37.3437 66.3217C36.4844 67.0217 36.1719 67.955 36.1719 68.9661C36.1719 70.6771 36.7187 72.3105 37.9687 74.0215C39.2187 75.7326 40.8594 77.0548 42.7344 78.0659C45.3906 79.5437 48.75 80.1659 52.8125 80.1659C56.25 80.1659 59.2969 79.5437 61.7188 78.6103C64.2188 77.677 66.1719 76.277 67.5 74.3326C68.5156 72.7771 69.1406 71.2216 69.2969 69.4327C69.2969 68.8883 69.2969 68.4216 69.2969 67.8772ZM69.2969 67.8772C69.2969 66.0106 68.8281 64.2995 68.125 62.9773C67.2656 61.6551 66.25 60.5662 64.9219 59.7107C63.5937 58.8551 61.875 58.0774 60 57.5329C58.125 57.0663 56.0156 56.3663 53.75 55.8996C51.9531 55.3552 50.625 55.0441 49.8437 54.8885C49.0625 54.6552 48.2031 54.4219 47.5781 54.033C46.875 53.6441 46.25 53.2552 45.8594 52.7886C45.4688 52.3997 45.3125 51.7775 45.3125 51.1553C45.3125 50.1442 45.9375 49.2886 47.1094 48.5109C48.3594 47.7331 50 47.3442 52.0312 47.3442C54.2187 47.3442 55.8594 47.6553 56.7969 48.4331C57.7344 49.2109 58.6719 50.222 59.375 51.5441C60 52.5552 60.5469 53.333 61.0937 53.7219C61.6406 54.1108 62.3437 54.4219 63.4375 54.4219C64.6094 54.4219 65.625 53.8774 66.4062 53.1775C67.2656 52.4775 67.5781 51.5441 67.5781 50.5331C67.5781 49.4442 67.3438 48.4331 66.7188 47.3442C66.25 46.2554 65.3125 45.322 63.9844 44.3109C62.7344 43.3776 61.0938 42.5221 59.2188 42.0554C57.4219 41.4332 55.1563 41.1999 52.5781 41.1999C49.375 41.1999 46.4844 41.5888 44.1406 42.4443C41.7969 43.2221 39.9219 44.5443 38.5938 46.1776C37.2656 47.8887 36.6406 49.7553 36.6406 51.8553C36.6406 54.033 37.2656 55.8996 38.5156 57.4552C39.7656 59.0107 41.4062 60.1773 43.4375 61.0329C45.4687 61.8884 47.9687 62.6662 50.9375 63.2106C53.125 63.6773 54.8438 64.1439 56.25 64.455C57.5 64.8439 58.5156 65.4661 59.2969 66.1661C60.0781 66.8661 60.3906 67.7216 60.3906 68.8105C60.3906 70.1327 59.6875 71.2994 58.2812 72.3105C56.875 73.3215 54.9219 73.866 52.5781 73.866C50.8594 73.866 49.6094 73.6327 48.5156 73.166C47.5 72.6216 46.6406 71.9993 46.1719 71.2994C45.625 70.5216 45.0781 69.5883 44.5312 68.4216C44.1406 67.4105 43.4375 66.555 42.8125 66.0883C42.1094 65.4661 41.3281 65.2328 40.3125 65.2328C39.1406 65.2328 38.125 65.6217 37.3437 66.3217C36.4844 67.0217 36.1719 67.955 36.1719 68.9661C36.1719 70.6771 36.7187 72.3105 37.9687 74.0215C39.2187 75.7326 40.8594 77.0548 42.7344 78.0659C45.3906 79.5437 48.75 80.1659 52.8125 80.1659C56.25 80.1659 59.2969 79.5437 61.7188 78.6103C64.2188 77.677 66.1719 76.277 67.5 74.3326C68.5156 72.7771 69.1406 71.2216 69.2969 69.4327C69.2969 68.8883 69.2969 68.4216 69.2969 67.8772ZM69.2969 67.8772C69.2969 66.0106 68.8281 64.2995 68.125 62.9773C67.2656 61.6551 66.25 60.5662 64.9219 59.7107C63.5937 58.8551 61.875 58.0774 60 57.5329C58.125 57.0663 56.0156 56.3663 53.75 55.8996C51.9531 55.3552 50.625 55.0441 49.8437 54.8885C49.0625 54.6552 48.2031 54.4219 47.5781 54.033C46.875 53.6441 46.25 53.2552 45.8594 52.7886C45.4688 52.3997 45.3125 51.7775 45.3125 51.1553C45.3125 50.1442 45.9375 49.2886 47.1094 48.5109C48.3594 47.7331 50 47.3442 52.0312 47.3442C54.2187 47.3442 55.8594 47.6553 56.7969 48.4331C57.7344 49.2109 58.6719 50.222 59.375 51.5441C60 52.5552 60.5469 53.333 61.0937 53.7219C61.6406 54.1108 62.3437 54.4219 63.4375 54.4219C64.6094 54.4219 65.625 53.8774 66.4062 53.1775C67.2656 52.4775 67.5781 51.5441 67.5781 50.5331C67.5781 49.4442 67.3438 48.4331 66.7188 47.3442C66.25 46.2554 65.3125 45.322 63.9844 44.3109C62.7344 43.3776 61.0938 42.5221 59.2188 42.0554C57.4219 41.4332 55.1563 41.1999 52.5781 41.1999C49.375 41.1999 46.4844 41.5888 44.1406 42.4443C41.7969 43.2221 39.9219 44.5443 38.5938 46.1776C37.2656 47.8887 36.6406 49.7553 36.6406 51.8553C36.6406 54.033 37.2656 55.8996 38.5156 57.4552C39.7656 59.0107 41.4062 60.1773 43.4375 61.0329C45.4687 61.8884 47.9687 62.6662 50.9375 63.2106C53.125 63.6773 54.8438 64.1439 56.25 64.455C57.5 64.8439 58.5156 65.4661 59.2969 66.1661C60.0781 66.8661 60.3906 67.7216 60.3906 68.8105C60.3906 70.1327 59.6875 71.2994 58.2812 72.3105C56.875 73.3215 54.9219 73.866 52.5781 73.866C50.8594 73.866 49.6094 73.6327 48.5156 73.166C47.5 72.6216 46.6406 71.9993 46.1719 71.2994C45.625 70.5216 45.0781 69.5883 44.5312 68.4216C44.1406 67.4105 43.4375 66.555 42.8125 66.0883C42.1094 65.4661 41.3281 65.2328 40.3125 65.2328C39.1406 65.2328 38.125 65.6217 37.3437 66.3217C36.4844 67.0217 36.1719 67.955 36.1719 68.9661C36.1719 70.6771 36.7187 72.3105 37.9687 74.0215C39.2187 75.7326 40.8594 77.0548 42.7344 78.0659C45.3906 79.5437 48.75 80.1659 52.8125 80.1659C56.25 80.1659 59.2969 79.5437 61.7188 78.6103C64.2188 77.677 66.1719 76.277 67.5 74.3326C68.5156 72.7771 69.1406 71.2216 69.2969 69.4327C69.2969 68.8883 69.2969 68.4216 69.2969 67.8772ZM69.2969 67.8772C69.2969 66.0106 68.8281 64.2995 68.125 62.9773C67.2656 61.6551 66.25 60.5662 64.9219 59.7107C63.5937 58.8551 61.875 58.0774 60 57.5329C58.125 57.0663 56.0156 56.3663 53.75 55.8996C51.9531 55.3552 50.625 55.0441 49.8437 54.8885C49.0625 54.6552 48.2031 54.4219 47.5781 54.033C46.875 53.6441 46.25 53.2552 45.8594 52.7886C45.4688 52.3997 45.3125 51.7775 45.3125 51.1553C45.3125 50.1442 45.9375 49.2886 47.1094 48.5109C48.3594 47.7331 50 47.3442 52.0312 47.3442C54.2187 47.3442 55.8594 47.6553 56.7969 48.4331C57.7344 49.2109 58.6719 50.222 59.375 51.5441C60 52.5552 60.5469 53.333 61.0937 53.7219C61.6406 54.1108 62.3437 54.4219 63.4375 54.4219C64.6094 54.4219 65.625 53.8774 66.4062 53.1775C67.2656 52.4775 67.5781 51.5441 67.5781 50.5331C67.5781 49.4442 67.3438 48.4331 66.7188 47.3442C66.25 46.2554 65.3125 45.322 63.9844 44.3109C62.7344 43.3776 61.0938 42.5221 59.2188 42.0554C57.4219 41.4332 55.1563 41.1999 52.5781 41.1999C49.375 41.1999 46.4844 41.5888 44.1406 42.4443C41.7969 43.2221 39.9219 44.5443 38.5938 46.1776C37.2656 47.8887 36.6406 49.7553 36.6406 51.8553C36.6406 54.033 37.2656 55.8996 38.5156 57.4552C39.7656 59.0107 41.4062 60.1773 43.4375 61.0329C45.4687 61.8884 47.9687 62.6662 50.9375 63.2106C53.125 63.6773 54.8438 64.1439 56.25 64.455C57.5 64.8439 58.5156 65.4661 59.2969 66.1661C60.0781 66.8661 60.3906 67.7216 60.3906 68.8105C60.3906 70.1327 59.6875 71.2994 58.2812 72.3105C56.875 73.3215 54.9219 73.866 52.5781 73.866C50.8594 73.866 49.6094 73.6327 48.5156 73.166C47.5 72.6216 46.6406 71.9993 46.1719 71.2994C45.625 70.5216 45.0781 69.5883 44.5312 68.4216C44.1406 67.4105 43.4375 66.555 42.8125 66.0883C42.1094 65.4661 41.3281 65.2328 40.3125 65.2328C39.1406 65.2328 38.125 65.6217 37.3437 66.3217C36.4844 67.0217 36.1719 67.955 36.1719 68.9661C36.1719 70.6771 36.7187 72.3105 37.9687 74.0215C39.2187 75.7326 40.8594 77.0548 42.7344 78.0659C45.3906 79.5437 48.75 80.1659 52.8125 80.1659C56.25 80.1659 59.2969 79.5437 61.7188 78.6103C64.2188 77.677 66.1719 76.277 67.5 74.3326C68.5156 72.7771 69.1406 71.2216 69.2969 69.4327C69.2969 68.8883 69.2969 68.4216 69.2969 67.8772ZM69.2969 67.8772C69.2969 66.0106 68.8281 64.2995 68.125 62.9773C67.2656 61.6551 66.25 60.5662 64.9219 59.7107C63.5937 58.8551 61.875 58.0774 60 57.5329C58.125 57.0663 56.0156 56.3663 53.75 55.8996C51.9531 55.3552 50.625 55.0441 49.8437 54.8885C49.0625 54.6552 48.2031 54.4219 47.5781 54.033C46.875 53.6441 46.25 53.2552 45.8594 52.7886C45.4688 52.3997 45.3125 51.7775 45.3125 51.1553C45.3125 50.1442 45.9375 49.2886 47.1094 48.5109C48.3594 47.7331 50 47.3442 52.0312 47.3442C54.2187 47.3442 55.8594 47.6553 56.7969 48.4331C57.7344 49.2109 58.6719 50.222 59.375 51.5441C60 52.5552 60.5469 53.333 61.0937 53.7219C61.6406 54.1108 62.3437 54.4219 63.4375 54.4219C64.6094 54.4219 65.625 53.8774 66.4062 53.1775C67.2656 52.4775 67.5781 51.5441 67.5781 50.5331C67.5781 49.4442 67.3438 48.4331 66.7188 47.3442C66.25 46.2554 65.3125 45.322 63.9844 44.3109C62.7344 43.3776 61.0938 42.5221 59.2188 42.0554C57.4219 41.4332 55.1563 41.1999 52.5781 41.1999C49.375 41.1999 46.4844 41.5888 44.1406 42.4443C41.7969 43.2221 39.9219 44.5443 38.5938 46.1776C37.2656 47.8887 36.6406 49.7553 36.6406 51.8553C36.6406 54.033 37.2656 55.8996 38.5156 57.4552C39.7656 59.0107 41.4062 60.1773 43.4375 61.0329C45.4687 61.8884 47.9687 62.6662 50.9375 63.2106C53.125 63.6773 54.8438 64.1439 56.25 64.455C57.5 64.8439 58.5156 65.4661 59.2969 66.1661C60.0781 66.8661 60.3906 67.7216 60.3906 68.8105C60.3906 70.1327 59.6875 71.2994 58.2812 72.3105C56.875 73.3215 54.9219 73.866 52.5781 73.866C50.8594 73.866 49.6094 73.6327 48.5156 73.166C47.5 72.6216 46.6406 71.9993 46.1719 71.2994C45.625 70.5216 45.0781 69.5883 44.5312 68.4216C44.1406 67.4105 43.4375 66.555 42.8125 66.0883C42.1094 65.4661 41.3281 65.2328 40.3125 65.2328C39.1406 65.2328 38.125 65.6217 37.3437 66.3217C36.4844 67.0217 36.1719 67.955 36.1719 68.9661C36.1719 70.6771 36.7187 72.3105 37.9687 74.0215C39.2187 75.7326 40.8594 77.0548 42.7344 78.0659C45.3906 79.5437 48.75 80.1659 52.8125 80.1659C56.25 80.1659 59.2969 79.5437 61.7188 78.6103C64.2188 77.677 66.1719 76.277 67.5 74.3326C68.5156 72.7771 69.1406 71.2216 69.2969 69.4327C69.2969 68.8883 69.2969 68.4216 69.2969 67.8772ZM69.2969 67.8772C69.2969 66.0106 68.8281 64.2995 68.125 62.9773C67.2656 61.6551 66.25 60.5662 64.9219 59.7107C63.5937 58.8551 61.875 58.0774 60 57.5329C58.125 57.0663 56.0156 56.3663 53.75 55.8996C51.9531 55.3552 50.625 55.0441 49.8437 54.8885C49.0625 54.6552 48.2031 54.4219 47.5781 54.033C46.875 53.6441 46.25 53.2552 45.8594 52.7886C45.4688 52.3997 45.3125 51.7775 45.3125 51.1553C45.3125 50.1442 45.9375 49.2886 47.1094 48.5109C48.3594 47.7331 50 47.3442 52.0312 47.3442C54.2187 47.3442 55.8594 47.6553 56.7969 48.4331C57.7344 49.2109 58.6719 50.222 59.375 51.5441C60 52.5552 60.5469 53.333 61.0937 53.7219C61.6406 54.1108 62.3437 54.4219 63.4375 54.4219C64.6094 54.4219 65.625 53.8774 66.4062 53.1775C67.2656 52.4775 67.5781 51.5441 67.5781 50.5331C67.5781 49.4442 67.3438 48.4331 66.7188 47.3442C66.25 46.2554 65.3125 45.322 63.9844 44.3109C62.7344 43.3776 61.0938 42.5221 59.2188 42.0554C57.4219 41.4332 55.1563 41.1999 52.5781 41.1999C49.375 41.1999 46.4844 41.5888 44.1406 42.4443C41.7969 43.2221 39.9219 44.5443 38.5938 46.1776C37.2656 47.8887 36.6406 49.7553 36.6406 51.8553C36.6406 54.033 37.2656 55.8996 38.5156 57.4552C39.7656 59.0107 41.4062 60.1773 43.4375 61.0329C45.4687 61.8884 47.9687 62.6662 50.9375 63.2106C53.125 63.6773 54.8438 64.1439 56.25 64.455C57.5 64.8439 58.5156 65.4661 59.2969 66.1661C60.0781 66.8661 60.3906 67.7216 60.3906 68.8105C60.3906 70.1327 59.6875 71.2994 58.2812 72.3105C56.875 73.3215 54.9219 73.866 52.5781 73.866C50.8594 73.866 49.6094 73.6327 48.5156 73.166C47.5 72.6216 46.6406 71.9993 46.1719 71.2994C45.625 70.5216 45.0781 69.5883 44.5312 68.4216C44.1406 67.4105 43.4375 66.555 42.8125 66.0883C42.1094 65.4661 41.3281 65.2328 40.3125 65.2328C39.1406 65.2328 38.125 65.6217 37.3437 66.3217C36.4844 67.0217 36.1719 67.955 36.1719 68.9661C36.1719 70.6771 36.7187 72.3105 37.9687 74.0215C39.2187 75.7326 40.8594 77.0548 42.7344 78.0659C45.3906 79.5437 48.75 80.1659 52.8125 80.1659C56.25 80.1659 59.2969 79.5437 61.7188 78.6103C64.2188 77.677 66.1719 76.277 67.5 74.3326C68.5156 72.7771 69.1406 71.2216 69.2969 69.4327C69.2969 68.8883 69.2969 68.4216 69.2969 67.8772ZM69.2969 67.8772C69.2969 66.0106 68.8281 64.2995 68.125 62.9773C67.2656 61.6551 66.25 60.5662 64.9219 59.7107C63.5937 58.8551 61.875 58.0774 60 57.5329C58.125 57.0663 56.0156 56.3663 53.75 55.8996C51.9531 55.3552 50.625 55.0441 49.8437 54.8885C49.0625 54.6552 48.2031 54.4219 47.5781 54.033C46.875 53.6441 46.25 53.2552 45.8594 52.7886C45.4688 52.3997 45.3125 51.7775 45.3125 51.1553C45.3125 50.1442 45.9375 49.2886 47.1094 48.5109C48.3594 47.7331 50 47.3442 52.0312 47.3442C54.2187 47.3442 55.8594 47.6553 56.7969 48.4331C57.7344 49.2109 58.6719 50.222 59.375 51.5441C60 52.5552 60.5469 53.333 61.0937 53.7219C61.6406 54.1108 62.3437 54.4219 63.4375 54.4219C64.6094 54.4219 65.625 53.8774 66.4062 53.1775C67.2656 52.4775 67.5781 51.5441 67.5781 50.5331C67.5781 49.4442 67.3438 48.4331 66.7188 47.3442C66.25 46.2554 65.3125 45.322 63.9844 44.3109C62.7344 43.3776 61.0938 42.5221 59.2188 42.0554C57.4219 41.4332 55.1563 41.1999 52.5781 41.1999C49.375 41.1999 46.4844 41.5888 44.1406 42.4443C41.7969 43.2221 39.9219 44.5443 38.5938 46.1776C37.2656 47.8887 36.6406 49.7553 36.6406 51.8553C36.6406 54.033 37.2656 55.8996 38.5156 57.4552C39.7656 59.0107 41.4062 60.1773 43.4375 61.0329C45.4687 61.8884 47.9687 62.6662 50.9375 63.2106C53.125 63.6773 54.8438 64.1439 56.25 64.455C57.5 64.8439 58.5156 65.4661 59.2969 66.1661C60.0781 66.8661 60.3906 67.7216 60.3906 68.8105C60.3906 70.1327 59.6875 71.2994 58.2812 72.3105C56.875 73.3215 54.9219 73.866 52.5781 73.866C50.8594 73.866 49.6094 73.6327 48.5156 73.166C47.5 72.6216 46.6406 71.9993 46.1719 71.2994C45.625 70.5216 45.0781 69.5883 44.5312 68.4216C44.1406 67.4105 43.4375 66.555 42.8125 66.0883C42.1094 65.4661 41.3281 65.2328 40.3125 65.2328C39.1406 65.2328 38.125 65.6217 37.3437 66.3217C36.4844 67.0217 36.1719 67.955 36.1719 68.9661C36.1719 70.6771 36.7187 72.3105 37.9687 74.0215C39.2187 75.7326 40.8594 77.0548 42.7344 78.0659C45.3906 79.5437 48.75 80.1659 52.8125 80.1659C56.25 80.1659 59.2969 79.5437 61.7188 78.6103C64.2188 77.677 66.1719 76.277 67.5 74.3326C68.5156 72.7771 69.1406 71.2216 69.2969 69.4327C69.2969 68.8883 69.2969 68.4216 69.2969 67.8772ZM69.2969 67.8772C69.2969 66.0106 68.8281 64.2995 68.125 62.9773C67.2656 61.6551 66.25 60.5662 64.9219 59.7107C63.5937 58.8551 61.875 58.0774 60 57.5329C58.125 57.0663 56.0156 56.3663 53.75 55.8996C51.9531 55.3552 50.625 55.0441 49.8437 54.8885C49.0625 54.6552 48.2031 54.4219 47.5781 54.033C46.875 53.6441 46.25 53.2552 45.8594 52.7886C45.4688 52.3997 45.3125 51.7775 45.3125 51.1553C45.3125 50.1442 45.9375 49.2886 47.1094 48.5109C48.3594 47.7331 50 47.3442 52.0312 47.3442C54.2187 47.3442 55.8594 47.6553 56.7969 48.4331C57.7344 49.2109 58.6719 50.222 59.375 51.5441C60 52.5552 60.5469 53.333 61.0937 53.7219C61.6406 54.1108 62.3437 54.4219 63.4375 54.4219C64.6094 54.4219 65.625 53.8774 66.4062 53.1775C67.2656 52.4775 67.5781 51.5441 67.5781 50.5331C67.5781 49.4442 67.3438 48.4331 66.7188 47.3442C66.25 46.2554 65.3125 45.322 63.9844 44.3109C62.7344 43.3776 61.0938 42.5221 59.2188 42.0554C57.4219 41.4332 55.1563 41.1999 52.5781 41.1999C49.375 41.1999 46.4844 41.5888 44.1406 42.4443C41.7969 43.2221 39.9219 44.5443 38.5938 46.1776C37.2656 47.8887 36.6406 49.7553 36.6406 51.8553C36.6406 54.033 37.2656 55.8996 38.5156 57.4552C39.7656 59.0107 41.4062 60.1773 43.4375 61.0329C45.4687 61.8884 47.9687 62.6662 50.9375 63.2106C53.125 63.6773 54.8438 64.1439 56.25 64.455C57.5 64.8439 58.5156 65.4661 59.2969 66.1661C60.0781 66.8661 60.3906 67.7216 60.3906 68.8105C60.3906 70.1327 59.6875 71.2994 58.2812 72.3105C56.875 73.3215 54.9219 73.866 52.5781 73.866C50.8594 73.866 49.6094 73.6327 48.5156 73.166C47.5 72.6216 46.6406 71.9993 46.1719 71.2994C45.625 70.5216 45.0781 69.5883 44.5312 68.4216C44.1406 67.4105 43.4375 66.555 42.8125 66.0883C42.1094 65.4661 41.3281 65.2328 40.3125 65.2328C39.1406 65.2328 38.125 65.6217 37.3437 66.3217C36.4844 67.0217 36.1719 67.955 36.1719 68.9661C36.1719 70.6771 36.7187 72.3105 37.9687 74.0215C39.2187 75.7326 40.8594 77.0548 42.7344 78.0659C45.3906 79.5437 48.75 80.1659 52.8125 80.1659C56.25 80.1659 59.2969 79.5437 61.7188 78.6103C64.2188 77.677 66.1719 76.277 67.5 74.3326C68.5156 72.7771 69.1406 71.2216 69.2969 69.4327C69.2969 68.8883 69.2969 68.4216 69.2969 67.8772ZM69.2969 67.8772C69.2969 66.0106 68.8281 64.2995 68.125 62.9773C67.2656 61.6551 66.25 60.5662 64.9219 59.7107C63.5937 58.8551 61.875 58.0774 60 57.5329C58.125 57.0663 56.0156 56.3663 53.75 55.8996C51.9531 55.3552 50.625 55.0441 49.8437 54.8885C49.0625 54.6552 48.2031 54.4219 47.5781 54.033C46.875 53.6441 46.25 53.2552 45.8594 52.7886C45.4688 52.3997 45.3125 51.7775 45.3125 51.1553C45.3125 50.1442 45.9375 49.2886 47.1094 48.5109C48.3594 47.7331 50 47.3442 52.0312 47.3442C54.2187 47.3442 55.8594 47.6553 56.7969 48.4331C57.7344 49.2109 58.6719 50.222 59.375 51.5441C60 52.5552 60.5469 53.333 61.0937 53.7219C61.6406 54.1108 62.3437 54.4219 63.4375 54.4219C64.6094 54.4219 65.625 53.8774 66.4062 53.1775C67.2656 52.4775 67.5781 51.5441 67.5781 50.5331C67.5781 49.4442 67.3438 48.4331 66.7188 47.3442C66.25 46.2554 65.3125 45.322 63.9844 44.3109C62.7344 43.3776 61.0938 42.5221 59.2188 42.0554C57.4219 41.4332 55.1563 41.1999 52.5781 41.1999C49.375 41.1999 46.4844 41.5888 44.1406 42.4443C41.7969 43.2221 39.9219 44.5443 38.5938 46.1776C37.2656 47.8887 36.6406 49.7553 36.6406 51.8553C36.6406 54.033 37.2656 55.8996 38.5156 57.4552C39.7656 59.0107 41.4062 60.1773 43.4375 61.0329C45.4687 61.8884 47.9687 62.6662 50.9375 63.2106C53.125 63.6773 54.8438 64.1439 56.25 64.455C57.5 64.8439 58.5156 65.4661 59.2969 66.1661C60.0781 66.8661 60.3906 67.7216 60.3906 68.8105C60.3906 70.1327 59.6875 71.2994 58.2812 72.3105C56.875 73.3215 54.9219 73.866 52.5781 73.866C50.8594 73.866 49.6094 73.6327 48.5156 73.166C47.5 72.6216 46.6406 71.9993 46.1719 71.2994C45.625 70.5216 45.0781 69.5883 44.5312 68.4216C44.1406 67.4105 43.4375 66.555 42.8125 66.0883C42.1094 65.4661 41.3281 65.2328 40.3125 65.2328C39.1406 65.2328 38.125 65.6217 37.3437 66.3217C36.4844 67.0217 36.1719 67.955 36.1719 68.9661C36.1719 70.6771 36.7187 72.3105 37.9687 74.0215C39.2187 75.7326 40.8594 77.0548 42.7344 78.0659C45.3906 79.5437 48.75 80.1659 52.8125 80.1659C56.25 80.1659 59.2969 79.5437 61.7188 78.6103C64.2188 77.677 66.1719 76.277 67.5 74.3326C68.5156 72.8549 69.1406 71.2994 69.2969 69.4327C69.2969 68.8883 69.2969 68.4216 69.2969 67.8772ZM69.2969 67.8772C69.2969 66.0106 68.8281 64.2995 68.125 62.9773C67.2656 61.6551 66.25 60.5662 64.9219 59.7107C63.5937 58.8551 61.875 58.0774 60 57.5329C58.125 57.0663 56.0156 56.3663 53.75 55.8996C51.9531 55.3552 50.625 55.0441 49.8437 54.8885C49.0625 54.6552 48.2031 54.4219 47.5781 54.033C46.875 53.6441 46.25 53.2552 45.8594 52.7886C45.4688 52.3997 45.3125 51.7775 45.3125 51.1553C45.3125 50.1442 45.9375 49.2886 47.1094 48.5109C48.3594 47.7331 50 47.3442 52.0312 47.3442C54.2187 47.3442 55.8594 47.6553 56.7969 48.4331C57.7344 49.2109 58.6719 50.222 59.375 51.5441C60 52.5552 60.5469 53.333 61.0937 53.7219C61.6406 54.1108 62.3437 54.4219 63.4375 54.4219C64.6094 54.4219 65.625 53.8774 66.4062 53.1775C67.2656 52.4775 67.5781 51.5441 67.5781 50.5331C67.5781 49.4442 67.3438 48.4331 66.7188 47.3442C66.25 46.2554 65.3125 45.322 63.9844 44.3109C62.7344 43.3776 61.0938 42.5221 59.2188 42.0554C57.4219 41.4332 55.1563 41.1999 52.5781 41.1999C49.375 41.1999 46.4844 41.5888 44.1406 42.4443C41.7969 43.2221 39.9219 44.5443 38.5938 46.1776C37.2656 47.8887 36.6406 49.7553 36.6406 51.8553C36.6406 54.033 37.2656 55.8996 38.5156 57.4552C39.7656 59.0107 41.4062 60.1773 43.4375 61.0329C45.4687 61.8884 47.9687 62.6662 50.9375 63.2106C53.125 63.6773 54.8438 64.1439 56.25 64.455C57.5 64.8439 58.5156 65.4661 59.2969 66.1661C60.0781 66.8661 60.3906 67.7216 60.3906 68.8105C60.3906 70.1327 59.6875 71.2994 58.2812 72.3105C56.875 73.3215 54.9219 73.866 52.5781 73.866C50.8594 73.866 49.6094 73.6327 48.5156 73.166C47.5 72.6216 46.6406 71.9993 46.1719 71.2994C45.625 70.5216 45.0781 69.5883 44.5312 68.4216C44.1406 67.4105 43.4375 66.555 42.8125 66.0883C42.1094 65.4661 41.3281 65.2328 40.3125 65.2328C39.1406 65.2328 38.125 65.6217 37.3437 66.3217C36.4844 67.0217 36.1719 67.955 36.1719 68.9661C36.1719 70.6771 36.7187 72.3105 37.9687 74.0215C39.2187 75.7326 40.8594 77.0548 42.7344 78.0659C45.3906 79.5437 48.75 80.1659 52.8125 80.1659C56.25 80.1659 59.2969 79.5437 61.7188 78.6103C64.2188 77.677 66.1719 76.277 67.5 74.3326C68.5156 72.8549 69.1406 71.2994 69.2969 69.4327C69.2969 68.8883 69.2969 68.4216 69.2969 67.8772ZM69.2969 67.8772C69.2969 66.0106 68.8281 64.2995 68.125 62.9773C67.2656 61.6551 66.25 60.5662 64.9219 59.7107C63.5937 58.8551 61.875 58.0774 60 57.5329C58.125 57.0663 56.0156 56.3663 53.75 55.8996C51.9531 55.3552 50.625 55.0441 49.8437 54.8885C49.0625 54.6552 48.2031 54.4219 47.5781 54.033C46.875 53.6441 46.25 53.2552 45.8594 52.7886C45.4688 52.3997 45.3125 51.7775 45.3125 51.1553C45.3125 50.1442 45.9375 49.2886 47.1094 48.5109C48.3594 47.7331 50 47.3442 52.0312 47.3442C54.2187 47.3442 55.8594 47.6553 56.7969 48.4331C57.7344 49.2109 58.6719 50.222 59.375 51.5441C60 52.5552 60.5469 53.333 61.0937 53.7219C61.6406 54.1108 62.3437 54.4219 63.4375 54.4219C64.6094 54.4219 65.625 53.8774 66.4062 53.1775C67.2656 52.4775 67.5781 51.5441 67.5781 50.5331C67.5781 49.4442 67.3438 48.4331 66.7188 47.3442C66.25 46.2554 65.3125 45.322 63.9844 44.3109C62.7344 43.3776 61.0938 42.5221 59.2188 42.0554C57.4219 41.4332 55.1563 41.1999 52.5781 41.1999C49.375 41.1999 46.4844 41.5888 44.1406 42.4443C41.7969 43.2221 39.9219 44.5443 38.5938 46.1776C37.2656 47.8887 36.6406 49.7553 36.6406 51.8553C36.6406 54.033 37.2656 55.8996 38.5156 57.4552C39.7656 59.0107 41.4062 60.1773 43.4375 61.0329C45.4687 61.8884 47.9687 62.6662 50.9375 63.2106C53.125 63.6773 54.8438 64.1439 56.25 64.455C57.5 64.8439 58.5156 65.4661 59.2969 66.1661C60.0781 66.8661 60.3906 67.7216 60.3906 68.8105C60.3906 70.1327 59.6875 71.2994 58.2812 72.3105C56.875 73.3215 54.9219 73.866 52.5781 73.866C50.8594 73.866 49.6094 73.6327 48.5156 73.166C47.5 72.6216 46.6406 71.9993 46.1719 71.2994C45.625 70.5216 45.0781 69.5883 44.5312 68.4216C44.1406 67.4105 43.4375 66.555 42.8125 66.0883C42.1094 65.4661 41.3281 65.2328 40.3125 65.2328C39.1406 65.2328 38.125 65.6217 37.3437 66.3217C36.4844 67.0217 36.1719 67.955 36.1719 68.9661C36.1719 70.6771 36.7187 72.3105 37.9687 74.0215C39.2187 75.7326 40.8594 77.0548 42.7344 78.0659C45.3906 79.5437 48.75 80.1659 52.8125 80.1659C56.25 80.1659 59.2969 79.5437 61.7188 78.6103C64.2188 77.677 66.1719 76.277 67.5 74.3326C68.5156 72.8549 69.1406 71.2994 69.2969 69.4327C69.2969 68.8883 69.2969 68.4216 69.2969 67.8772ZM69.2969 67.8772C69.2969 66.0106 68.8281 64.2995 68.125 62.9773C67.2656 61.6551 66.25 60.5662 64.9219 59.7107C63.5937 58.8551 61.875 58.0774 60 57.5329C58.125 57.0663 56.0156 56.3663 53.75 55.8996C51.9531 55.3552 50.625 55.0441 49.8437 54.8885C49.0625 54.6552 48.2031 54.4219 47.5781 54.033C46.875 53.6441 46.25 53.2552 45.8594 52.7886C45.4688 52.3997 45.3125 51.7775 45.3125 51.1553C45.3125 50.1442 45.9375 49.2886 47.1094 48.5109C48.3594 47.7331 50 47.3442 52.0312 47.3442C54.2187 47.3442 55.8594 47.6553 56.7969 48.4331C57.7344 49.2109 58.6719 50.222 59.375 51.5441C60 52.5552 60.5469 53.333 61.0937 53.7219C61.6406 54.1108 62.3437 54.4219 63.4375 54.4219C64.6094 54.4219 65.625 53.8774 66.4062 53.1775C67.2656 52.4775 67.5781 51.5441 67.5781 50.5331C67.5781 49.4442 67.3438 48.4331 66.7188 47.3442C66.25 46.2554 65.3125 45.322 63.9844 44.3109C62.7344 43.3776 61.0938 42.5221 59.2188 42.0554C57.4219 41.4332 55.1563 41.1999 52.5781 41.1999C49.375 41.1999 46.4844 41.5888 44.1406 42.4443C41.7969 43.2221 39.9219 44.5443 38.5938 46.1776C37.2656 47.8887 36.6406 49.7553 36.6406 51.8553C36.6406 54.033 37.2656 55.8996 38.5156 57.4552C39.7656 59.0107 41.4062 60.1773 43.4375 61.0329C45.4687 61.8884 47.9687 62.6662 50.9375 63.2106C53.125 63.6773 54.8438 64.1439 56.25 64.455C57.5 64.8439 58.5156 65.4661 59.2969 66.1661C60.0781 66.8661 60.3906 67.7216 60.3906 68.8105C60.3906 70.1327 59.6875 71.2994 58.2812 72.3105C56.875 73.3215 54.9219 73.866 52.5781 73.866C50.8594 73.866 49.6094 73.6327 48.5156 73.166C47.5 72.6216 46.6406 71.9993 46.1719 71.2994C45.625 70.5216 45.0781 69.5883 44.5312 68.4216C44.1406 67.4105 43.4375 66.555 42.8125 66.0883C42.1094 65.4661 41.3281 65.2328 40.3125 65.2328C39.1406 65.2328 38.125 65.6217 37.3437 66.3217C36.4844 67.0217 36.1719 67.955 36.1719 68.9661C36.1719 70.6771 36.7187 72.3105 37.9687 74.0215C39.2187 75.7326 40.8594 77.0548 42.7344 78.0659C45.3906 79.5437 48.75 80.1659 52.8125 80.1659C56.25 80.1659 59.2969 79.5437 61.7188 78.6103C64.2188 77.677 66.1719 76.277 67.5 74.3326C68.5156 72.8549 69.1406 71.2994 69.2969 69.4327C69.2969 68.8883 69.2969 68.4216 69.2969 67.8772ZM100 53.8774C100 53.5663 99.1406 52.633 98.2813 54.3441C96.0938 59.1662 95.7812 55.7441 94.1406 57.6107C92.8125 59.0885 92.6562 58.7774 92.9688 59.6329C94.0625 62.044 88.6719 63.4439 88.9844 61.5773C90 57.144 92.9687 55.0441 91.875 53.8774C90.7812 52.7108 91.25 52.5552 92.1875 50.5331C93.9063 47.1887 94.4531 46.1776 93.6719 46.1776C93.5156 46.1776 93.3594 46.1776 93.3594 46.2554C92.7344 47.6553 91.6406 48.822 90.9375 50.1442C90.0781 51.6219 86.7187 53.0997 89.1406 47.1887C89.2969 46.8776 88.9844 46.3331 88.5156 46.1776C88.0469 46.022 87.3438 45.8665 86.9531 45.5554C86.0938 44.9332 84.4531 45.4776 84.5312 44.3109C84.6875 42.2888 83.3594 42.1332 81.5625 40.3443C81.4063 40.1888 80.2344 39.3332 80.9375 39.0999C81.9531 38.711 83.2031 40.2666 83.2031 38.711C83.2031 38.011 83.5156 37.3888 83.5156 36.6111C83.5156 36.3 82.9688 35.7555 82.6563 35.9111C81.5625 36.2222 81.0938 36.9222 80.4688 35.7555C80.1562 35.0555 80.9375 34.9 81.3281 34.6667C82.8906 33.9667 81.6406 32.8778 83.125 32.5667C84.2969 32.2556 85.5469 32.6445 85.4688 30.7778C85.4688 30.7001 85.3125 30.5445 85.0781 30.0779C84.8438 29.689 84.4531 29.0668 83.9063 28.1334C84.6094 28.0557 85.5469 27.2779 85 26.5779C82.5781 23.6224 83.125 25.4113 80.7031 24.3224C79.6875 23.9335 80.2344 22.3002 80.5469 21.7558C81.5625 19.9669 82.3437 19.8891 81.7969 19.3447C81.1719 18.7225 80 18.1003 80.4688 16.9336C80.5469 16.7781 80.9375 15.5337 80.7813 15.3781C80.0781 14.5226 79.2969 16.6225 77.6563 15.3781C76.875 14.9115 76.0937 16.0781 73.9844 18.5669C72.7344 20.0447 72.5781 18.7225 70.8594 20.6669C69.7656 21.9113 70 23.0002 68.5938 24.1668C67.8125 24.7891 67.1875 25.7224 66.5625 24.8668C66.4062 24.6335 66.25 24.478 66.1719 24.2446L66.0937 24.1668C63.6719 20.8225 64.1406 21.5224 65.3125 20.0447C65.7031 19.5003 65.3125 18.1003 64.1406 18.5669C63.8281 18.7225 62.8906 19.1892 62.6562 18.4892C62.4219 17.7892 63.9844 17.6336 63.0469 16.3892C62.5781 15.6892 61.6406 15.3781 61.0156 14.8337C60.7812 14.6003 60.8594 13.8226 61.1719 13.7448C62.5 13.1226 63.2812 13.5893 63.2812 12.2671C63.4375 9.70043 63.6719 9.00044 62.6562 9.00044C61.0156 9.00044 61.3281 8.22268 60.0781 7.13381C59.2188 6.43382 59.5312 5.57828 58.75 5.73383C53.2031 7.13381 58.5156 5.96716 51.4844 4.72274C50.7031 4.56719 50.8594 3.94498 50.3125 3.01166C49.4531 1.45613 47.4219 1.61168 46.9531 1.68946C46.3281 1.76724 45.8594 1.37835 43.9063 0.133931C43.125 -0.332728 42.5 0.445037 40.8594 2.07834C40.2344 2.70055 39.5312 2.545 38.9062 2.77833C38.3594 2.93388 37.8906 3.78942 38.125 4.10053C38.3594 5.11162 38.9844 5.96716 39.1406 6.97826C39.7656 7.98935 40.2344 9.00044 41.3281 9.4671C42.6563 10.0893 40.3125 12.3448 40.9375 13.3559C41.1719 13.8226 41.7188 14.5226 41.4062 15.3003C40.9375 17.0892 39.2969 19.3447 38.75 17.7114C38.5156 17.0892 38.8281 16.2337 37.7344 16.0003C37.0312 15.1448 38.75 13.7448 39.375 12.8893C40.1563 12.0337 38.9844 10.9449 37.9687 10.2449C36.9531 9.54488 36.4844 11.3337 34.9219 11.3337C33.0469 12.8893 33.5938 13.4337 30.7813 15.5337C30.5469 15.6892 29.9219 16.6225 30.3906 16.9336C32.2656 18.3336 32.8125 17.167 28.8281 22.8446C28.3594 23.6224 27.2656 22.5335 26.6406 23.4669C25.8594 24.7113 26.7187 26.1113 24.8437 26.5001C24.1406 26.5779 23.2813 28.5223 23.9844 29.8445C23.5156 29.689 22.8906 29.689 22.5 30.0779C21.875 30.7001 21.1719 31.2445 20.8594 31.9445C19.2969 34.8222 17.3438 37.3888 15.7031 40.3443C13.75 43.9221 14.5312 40.2666 10.9375 47.8109C10.7031 48.2775 10.2344 48.5886 9.60938 48.5886C9.14063 48.5886 8.4375 48.6664 7.96875 48.7442C4.375 48.822 5.23438 48.8997 2.1875 50.9997C2.10937 51.0775 2.03125 51.233 1.95312 51.3108C1.64062 51.933 1.875 52.3219 2.1875 52.8663C2.96875 54.2663 1.95312 54.8885 1.40625 55.8996C0.78125 57.0663 2.5 58.0774 2.73438 58.2329C3.59375 59.0107 4.14062 58.6218 6.25 57.844C7.03125 57.6107 8.125 58.6218 7.10938 59.3218C6.32813 59.7885 5.39062 60.4107 4.45312 60.4884C4.0625 60.4884 4.0625 61.1106 4.29688 61.5773C5.39062 62.9773 3.4375 63.1328 3.98437 63.9884C4.375 64.5328 6.875 63.9884 6.25 65.155C5.9375 65.9328 5 65.5439 4.29688 65.6217C3.51562 65.7772 3.04687 65.855 2.8125 65.9328C2.89062 66.0883 3.04687 66.2439 3.125 66.3994L3.20312 66.3217C3.20312 66.3994 3.20312 66.3994 3.20312 66.3994H3.125C3.125 66.4772 3.20312 66.4772 3.20312 66.4772C3.90625 67.4105 4.60938 68.1883 3.82813 68.4994C2.42188 68.8883 1.48438 69.1994 0.859375 69.4327C0.390625 69.5883 0.15625 69.6661 0 69.7438C0 69.8216 0.078125 69.8216 0.078125 69.8994C0.15625 69.9772 0.234375 70.1327 0.234375 70.2105C0.234375 70.2105 0.234375 70.2105 0.234375 70.2883C0.234375 70.2883 0.234375 70.2883 0.234375 70.366C0.46875 70.8327 0.625 71.1438 0.46875 71.766C0.15625 73.3215 1.5625 71.8438 3.90625 73.2438C5.3125 74.0215 5.85938 74.566 7.10938 75.4993C7.96875 76.1993 5.15625 76.3548 6.09375 77.5993C8.51563 81.0214 9.21875 80.8659 9.60938 82.3436C9.6875 82.6547 11.6406 83.4325 11.875 83.5103C12.3437 83.6658 13.0469 83.1992 14.375 82.1103C15.0781 81.4881 15.7031 82.0325 17.8906 83.1992C19.2187 83.8991 16.6406 86.5435 17.1094 86.9324C17.9687 87.788 19.6875 85.688 19.9219 85.5324C21.0156 84.5214 21.0937 86.6991 22.8906 86.6991C23.75 86.6991 23.3594 87.9435 22.6562 88.0213C22.1875 88.0213 21.6406 88.0213 21.4062 88.1768C20.2344 89.2657 20.625 90.6657 21.3281 90.4324C21.7969 90.2768 22.3438 89.8879 22.8125 89.6546C23.5156 89.3435 24.2187 89.6546 24.9219 89.499C25.625 89.3435 25.9375 88.4879 26.25 87.9435C27.3437 86.388 29.8437 86.6991 29.9219 87.4769C30 88.3324 30.7812 88.9546 31.25 89.6546C31.9531 90.8212 30.0781 90.7435 29.375 92.6879C28.3594 95.2545 26.4844 97.4322 28.125 97.4322C29.6875 97.3545 27.5 98.6767 29.1406 100.543C29.6094 101.166 28.75 101.788 29.4531 102.877C30.7813 104.821 30.5469 105.288 30.9375 105.288C31.7969 105.21 32.8125 103.11 31.6406 101.71C31.7969 101.01 31.7187 100.466 32.5 100.854C33.3594 101.166 35 101.243 34.6094 102.41C33.5156 105.054 33.2031 105.521 34.0625 106.688C34.6875 107.465 35.0781 108.165 36.25 108.632C38.0469 109.099 35 113.299 36.6406 113.688C38.2031 113.999 38.6719 113.843 39.2969 114.776C39.9219 115.71 39.6875 116.099 40.3125 117.11C41.5625 116.254 41.0156 116.41 41.5625 115.943C42.1875 115.476 43.5156 115.554 43.8281 116.099C46.0156 119.443 45.0781 118.121 46.0156 119.287C46.25 119.599 47.7344 119.91 48.125 118.043C48.4375 116.799 48.2031 116.254 48.8281 114.699C49.0625 114.076 50.7813 113.143 51.0938 114.465C51.7188 116.799 51.0156 117.499 50.3125 119.832C49.6094 122.087 52.8125 121.621 52.2656 118.121C52.1094 117.265 52.2656 116.41 52.8125 116.176C54.8437 115.399 56.4062 117.965 57.5781 116.41C57.9687 115.787 58.75 115.554 59.2188 115.087C60.9375 113.532 60.4687 113.143 62.1875 112.832C63.5156 112.521 62.1094 111.276 63.4375 108.088C63.8281 106.921 64.6094 106.843 65 107.232C65.625 107.699 64.1406 110.188 65.3906 110.265C65.7031 110.265 65.8594 110.188 65.8594 109.799C65.8594 109.799 65.8594 109.799 65.9375 109.799C66.0156 109.876 66.7969 109.643 67.5781 109.721C68.75 109.799 69.6875 108.943 70.3125 108.01C71.1719 106.765 69.8438 107.465 69.4531 101.943C69.4531 101.71 69.6094 100.232 70.4687 100.388C71.3281 100.543 71.0938 102.643 72.6562 102.565C73.2813 102.488 73.75 102.799 74.2188 103.188C75.0781 103.654 76.25 102.565 75.5469 101.632C75.0781 100.932 74.9219 101.166 75.1562 100.543C75.3906 99.9211 76.25 99.9989 76.4844 100.543C77.3438 102.021 76.7188 103.032 77.9688 102.332C78.5156 102.021 78.8281 101.554 79.4531 101.321C78.6719 101.399 78.2812 99.9211 78.2812 98.91C78.2812 98.5211 78.6719 97.8211 79.4531 96.7323C79.7656 96.2656 80.3906 96.4211 80.5469 96.4989C80.5469 96.3434 80.625 96.2656 80.625 96.1878C80.625 96.0323 80.3906 95.8767 79.1406 94.5545C78.5938 94.0879 78.5938 94.399 77.6563 94.6323C76.6406 94.8656 75.5469 92.8434 77.4219 92.1434C81.875 90.199 80.625 89.499 84.8437 82.8103C85.0781 82.4992 85.3125 82.1103 85.3125 81.6436C85.5469 80.2436 86.4844 79.1548 86.875 77.7548C87.5 75.9659 88.3594 74.4104 90 73.3215C91.0156 72.5438 91.4063 71.2216 92.4219 70.366C92.8125 69.5883 93.75 68.0327 94.7656 64.9217C95.3906 63.0551 96.7969 64.2217 97.5781 61.4218C98.2031 60.644 97.1875 60.3329 97.8125 58.9329C99.8437 54.733 99.9219 54.8108 100 53.8774ZM83.2031 26.889C83.9062 27.2779 83.5937 27.9001 82.8906 27.589C82.2656 27.2779 82.5781 26.5779 83.2031 26.889ZM6.40625 51.6997C6.40625 51.3886 6.40625 51.4664 6.5625 51.5441L6.40625 51.6997ZM0.46875 70.4438C0.46875 70.5216 0.390625 70.5216 0.46875 70.4438V70.4438ZM7.03125 62.6662C7.03125 62.5884 6.95312 62.5106 6.95312 62.3551C7.03125 62.3551 7.1875 62.2773 7.26563 62.3551C7.5 62.6662 7.34375 62.744 7.03125 62.6662ZM13.0469 78.4548C13.2031 79.1548 12.0312 80.5548 9.92187 77.2104C9.60937 76.6659 9.84375 76.1993 10.3125 74.3326C10.4687 73.866 12.0313 73.7104 11.7188 74.6437V75.0326C11.7188 75.4993 11.9531 75.6548 12.5 75.4993C13.9844 75.4215 12.5781 76.7437 13.0469 78.4548ZM15.8594 72.2327C14.375 74.7993 11.6406 73.4771 11.4063 71.2216C11.25 69.8216 12.2656 70.5994 15.3906 70.8327C15.7813 70.8327 16.1719 71.766 15.8594 72.2327ZM19.4531 69.8216C18.8281 68.2661 21.6406 68.1105 21.7969 70.0549C21.9531 70.9883 20.2344 71.5327 19.4531 69.8216ZM79.1406 34.0445C79.8438 34.1222 79.375 35.2111 78.8281 34.7444C78.125 34.3556 78.6719 33.9667 79.1406 34.0445ZM56.875 12.0337C57.7344 11.8782 59.375 11.8782 59.375 12.7337C59.375 13.4337 58.9062 14.0559 58.75 14.6003C58.125 16.5448 57.8906 17.867 55.0781 16.7781C53.2813 16.0781 55.7031 12.2671 56.875 12.0337ZM48.9844 11.4115C49.0625 11.4893 48.9844 11.6448 48.9844 11.7226C48.8281 11.7226 48.75 11.8004 48.6719 11.7226C47.9687 11.4115 48.6719 11.1004 48.9844 11.4115ZM44.375 9.23377C44.6094 9.23377 44.9219 9.70043 44.7656 9.70043C44.1406 10.3226 43.75 9.156 44.375 9.23377ZM34.5313 21.8336C34.5313 22.2224 34.6094 22.1447 34.2969 22.0669L34.5313 21.8336ZM35.3906 22.378C35.5469 22.1447 35.7813 22.1447 36.0938 22.2224C36.5625 22.4558 36.1719 22.6113 36.1719 24.0891C36.1719 24.7891 36.7969 26.1113 35.3906 26.5001C34.6094 26.7335 34.0625 26.8112 33.8281 26.4224C33.5937 25.8779 33.6719 25.3335 35.3906 22.378ZM32.1875 23.3891C32.8125 23.4669 32.5781 24.0891 32.1875 24.0113C31.7969 23.9335 31.5625 23.3113 32.1875 23.3891ZM31.1719 24.7113C31.3281 24.7891 31.3281 25.1779 31.1719 25.4113C30.3906 25.8779 30.5469 24.3224 31.1719 24.7113ZM30.3906 31.9445C31.0156 32.0223 30.7031 33.1111 30.1562 33.0334C29.6875 32.9556 29.6875 31.8667 30.3906 31.9445ZM29.9219 27.2001C29.9219 27.5112 30 27.4335 29.6875 27.7446C29.6875 27.2779 29.6094 27.4335 29.9219 27.2001ZM24.7656 29.3779C25.0781 29.4556 24.9219 29.5334 24.7656 29.689V29.3779ZM32.1875 95.4878C32.2656 95.4878 32.3438 95.5656 32.3438 95.5656C32.4219 96.3434 31.5625 96.1878 32.1875 95.4878ZM37.5 99.3767C37.5781 99.4544 37.5 99.5322 37.5781 99.61C36.7969 99.8433 37.1875 99.0655 37.5 99.3767ZM41.0156 108.865L41.25 109.021C40.9375 109.254 41.0156 109.254 41.0156 108.865ZM43.9063 101.788C43.9063 101.865 43.9063 101.865 43.9063 101.788L43.8281 101.865C43.6719 103.499 43.9062 103.888 42.2656 105.365C42.1875 105.443 42.0313 105.443 41.9531 105.443C41.0938 105.443 40.3906 105.832 39.6875 106.454C38.9844 107.077 37.5781 107.543 37.5781 106.61C37.5781 104.899 37.6563 104.277 38.5938 104.199C40.1563 103.965 39.8438 102.954 41.1719 103.11C41.7188 103.188 42.1875 102.799 42.5 102.254C42.8125 101.71 43.2812 101.865 43.8281 101.865V101.788H43.9063C43.9844 101.788 43.9063 101.788 43.9063 101.788C43.9063 101.865 43.9844 101.865 43.9063 101.788ZM38.125 91.0546C38.125 90.199 39.5313 89.5768 40 90.3546C40.7813 92.3768 37.9687 92.9212 38.125 91.0546ZM40.7813 99.0655C41.25 98.6767 41.875 99.7655 40.9375 100.154C40.3906 100.466 40.3906 99.4544 40.7813 99.0655ZM44.6094 102.643C44.4531 102.488 44.2969 102.177 43.9844 101.943C44.2969 101.943 44.5312 101.788 45 101.554C45.4687 101.166 46.0937 101.632 46.1719 102.254C45.9375 102.877 45.0781 103.577 44.6094 102.643ZM48.3594 104.199C47.7344 104.588 46.7969 103.499 47.7344 103.11C48.2031 102.877 48.8281 103.888 48.3594 104.199ZM49.6094 97.8211C49.2969 97.7433 49.2188 97.5878 49.2188 97.4322C49.0625 97.3545 48.8281 97.3545 48.75 97.1989C48.4375 96.6545 49.0625 96.4211 49.2188 96.9656C49.2969 97.1211 49.2187 97.2767 49.2969 97.51C49.375 97.3545 49.5312 97.4322 49.6094 97.8211C48.8281 97.9767 49.2969 98.7544 49.6094 97.8211ZM50.4687 102.565C50.3906 102.643 50.2344 102.643 50.1562 102.721C50.0781 102.643 50 102.488 50 102.41C50.0781 101.943 51.0156 100.543 51.0156 101.554C50.9375 101.865 50.5469 102.41 50.4687 102.565ZM66.9531 109.643C66.9531 109.488 66.9531 109.332 67.0313 109.254C67.4219 109.41 67.2656 109.254 66.9531 109.643ZM66.3281 98.1322C65.8594 97.7433 65.9375 97.51 66.4062 97.2767C66.875 97.1989 68.4375 96.4989 68.3594 97.5878C67.9688 101.477 66.7969 98.4433 66.3281 98.1322ZM81.6406 77.8326C81.5625 78.2215 81.4062 78.6881 81.3281 79.077C80.3906 82.1881 78.2813 84.988 75.625 87.0102C72.8906 89.0324 69.4531 90.2768 65.7031 90.2768C62.8906 90.2768 60.1562 89.5768 57.8906 88.3324C56.1719 88.5657 54.4531 88.7213 52.7344 88.7213C37.1094 88.7213 24.375 76.1993 24.375 60.7995C24.375 58.9329 24.5312 56.9885 24.9219 55.1996C23.4375 52.8663 22.7344 50.1442 22.7344 47.1109C22.7344 38.1666 30.1563 30.8556 39.2188 30.8556C42.4219 30.8556 45.3906 31.7112 47.9688 33.2667C49.6094 33.0334 51.1719 32.8778 52.8906 32.8778C55.625 32.8778 58.2812 33.3445 60.7031 34.0445C60.4687 33.5 60.5469 32.7223 60.9375 32.1778C60.9375 32.1778 61.0156 32.1 61.0156 32.0223C61.4062 31.5556 62.1875 32.0223 62.4219 32.7223C62.7344 33.3445 62.6563 34.2 61.9531 34.5111C62.1875 34.5889 62.5 34.6667 62.7344 34.7444C73.5938 38.6333 81.3281 48.9775 81.3281 60.8773C81.3281 62.9773 81.1719 64.9217 80.7031 66.8661C81.7969 69.1216 82.4219 71.5327 82.0312 74.0993V74.566C82.1094 74.3326 82.1094 74.0993 82.1875 73.7882C82.1875 73.4771 82.9687 73.4771 83.2812 73.7882C84.6094 76.0437 82.8906 76.1993 81.6406 77.8326ZM85 57.844C84.7656 57.844 83.75 58.0774 83.4375 57.7663C83.2813 57.5329 83.3594 57.2996 83.5938 57.0663C83.8281 56.8329 84.0625 56.4441 84.4531 56.2107C85.8594 55.0441 86.0156 57.7663 85 57.844ZM68.125 62.9773C67.2656 61.6551 66.25 60.5662 64.9219 59.7107C63.5937 58.8551 61.875 58.0774 60 57.5329C58.125 57.0663 56.0156 56.3663 53.75 55.8996C51.9531 55.3552 50.625 55.0441 49.8437 54.8885C49.0625 54.6552 48.2031 54.4219 47.5781 54.033C46.875 53.6441 46.25 53.2552 45.8594 52.7886C45.4688 52.3997 45.3125 51.7775 45.3125 51.1553C45.3125 50.1442 45.9375 49.2886 47.1094 48.5109C48.3594 47.7331 50 47.3442 52.0312 47.3442C54.2187 47.3442 55.8594 47.6553 56.7969 48.4331C57.7344 49.2109 58.6719 50.222 59.375 51.5441C60 52.5552 60.5469 53.333 61.0937 53.7219C61.6406 54.1108 62.3437 54.4219 63.4375 54.4219C64.6094 54.4219 65.625 53.8774 66.4062 53.1775C67.2656 52.4775 67.5781 51.5441 67.5781 50.5331C67.5781 49.4442 67.3438 48.4331 66.7188 47.3442C66.25 46.2554 65.3125 45.322 63.9844 44.3109C62.7344 43.3776 61.0938 42.5221 59.2188 42.0554C57.4219 41.4332 55.1563 41.1999 52.5781 41.1999C49.375 41.1999 46.4844 41.5888 44.1406 42.4443C41.7969 43.2221 39.9219 44.5443 38.5938 46.1776C37.2656 47.8887 36.6406 49.7553 36.6406 51.8553C36.6406 54.033 37.2656 55.8996 38.5156 57.4552C39.7656 59.0107 41.4062 60.1773 43.4375 61.0329C45.4687 61.8884 47.9687 62.6662 50.9375 63.2106C53.125 63.6773 54.8438 64.1439 56.25 64.455C57.5 64.8439 58.5156 65.4661 59.2969 66.1661C60.0781 66.8661 60.3906 67.7216 60.3906 68.8105C60.3906 70.1327 59.6875 71.2994 58.2812 72.3105C56.875 73.3215 54.9219 73.866 52.5781 73.866C50.8594 73.866 49.6094 73.6327 48.5156 73.166C47.5 72.6216 46.6406 71.9993 46.1719 71.2994C45.625 70.5216 45.0781 69.5883 44.5312 68.4216C44.1406 67.4105 43.4375 66.555 42.8125 66.0883C42.1094 65.4661 41.3281 65.2328 40.3125 65.2328C39.1406 65.2328 38.125 65.6217 37.3437 66.3217C36.4844 67.0217 36.1719 67.955 36.1719 68.9661C36.1719 70.6771 36.7187 72.3105 37.9687 74.0215C39.2187 75.7326 40.8594 77.0548 42.7344 78.0659C45.3906 79.5437 48.75 80.1659 52.8125 80.1659C56.25 80.1659 59.2969 79.5437 61.7188 78.6103C64.2188 77.677 66.1719 76.277 67.5 74.3326C68.5156 72.8549 69.1406 71.2994 69.2969 69.4327C69.2969 68.9661 69.2969 68.4216 69.2969 67.8772C69.2969 66.0106 68.8281 64.2995 68.125 62.9773ZM69.2969 67.8772C69.2969 66.0106 68.8281 64.2995 68.125 62.9773C67.2656 61.6551 66.25 60.5662 64.9219 59.7107C63.5937 58.8551 61.875 58.0774 60 57.5329C58.125 57.0663 56.0156 56.3663 53.75 55.8996C51.9531 55.3552 50.625 55.0441 49.8437 54.8885C49.0625 54.6552 48.2031 54.4219 47.5781 54.033C46.875 53.6441 46.25 53.2552 45.8594 52.7886C45.4688 52.3997 45.3125 51.7775 45.3125 51.1553C45.3125 50.1442 45.9375 49.2886 47.1094 48.5109C48.3594 47.7331 50 47.3442 52.0312 47.3442C54.2187 47.3442 55.8594 47.6553 56.7969 48.4331C57.7344 49.2109 58.6719 50.222 59.375 51.5441C60 52.5552 60.5469 53.333 61.0937 53.7219C61.6406 54.1108 62.3437 54.4219 63.4375 54.4219C64.6094 54.4219 65.625 53.8774 66.4062 53.1775C67.2656 52.4775 67.5781 51.5441 67.5781 50.5331C67.5781 49.4442 67.3438 48.4331 66.7188 47.3442C66.25 46.2554 65.3125 45.322 63.9844 44.3109C62.7344 43.3776 61.0938 42.5221 59.2188 42.0554C57.4219 41.4332 55.1563 41.1999 52.5781 41.1999C49.375 41.1999 46.4844 41.5888 44.1406 42.4443C41.7969 43.2221 39.9219 44.5443 38.5938 46.1776C37.2656 47.8887 36.6406 49.7553 36.6406 51.8553C36.6406 54.033 37.2656 55.8996 38.5156 57.4552C39.7656 59.0107 41.4062 60.1773 43.4375 61.0329C45.4687 61.8884 47.9687 62.6662 50.9375 63.2106C53.125 63.6773 54.8438 64.1439 56.25 64.455C57.5 64.8439 58.5156 65.4661 59.2969 66.1661C60.0781 66.8661 60.3906 67.7216 60.3906 68.8105C60.3906 70.1327 59.6875 71.2994 58.2812 72.3105C56.875 73.3215 54.9219 73.866 52.5781 73.866C50.8594 73.866 49.6094 73.6327 48.5156 73.166C47.5 72.6216 46.6406 71.9993 46.1719 71.2994C45.625 70.5216 45.0781 69.5883 44.5312 68.4216C44.1406 67.4105 43.4375 66.555 42.8125 66.0883C42.1094 65.4661 41.3281 65.2328 40.3125 65.2328C39.1406 65.2328 38.125 65.6217 37.3437 66.3217C36.4844 67.0217 36.1719 67.955 36.1719 68.9661C36.1719 70.6771 36.7187 72.3105 37.9687 74.0215C39.2187 75.7326 40.8594 77.0548 42.7344 78.0659C45.3906 79.5437 48.75 80.1659 52.8125 80.1659C56.25 80.1659 59.2969 79.5437 61.7188 78.6103C64.2188 77.677 66.1719 76.277 67.5 74.3326C68.5156 72.8549 69.1406 71.2994 69.2969 69.4327C69.2969 68.8883 69.2969 68.4216 69.2969 67.8772ZM69.2969 67.8772C69.2969 66.0106 68.8281 64.2995 68.125 62.9773C67.2656 61.6551 66.25 60.5662 64.9219 59.7107C63.5937 58.8551 61.875 58.0774 60 57.5329C58.125 57.0663 56.0156 56.3663 53.75 55.8996C51.9531 55.3552 50.625 55.0441 49.8437 54.8885C49.0625 54.6552 48.2031 54.4219 47.5781 54.033C46.875 53.6441 46.25 53.2552 45.8594 52.7886C45.4688 52.3997 45.3125 51.7775 45.3125 51.1553C45.3125 50.1442 45.9375 49.2886 47.1094 48.5109C48.3594 47.7331 50 47.3442 52.0312 47.3442C54.2187 47.3442 55.8594 47.6553 56.7969 48.4331C57.7344 49.2109 58.6719 50.222 59.375 51.5441C60 52.5552 60.5469 53.333 61.0937 53.7219C61.6406 54.1108 62.3437 54.4219 63.4375 54.4219C64.6094 54.4219 65.625 53.8774 66.4062 53.1775C67.2656 52.4775 67.5781 51.5441 67.5781 50.5331C67.5781 49.4442 67.3438 48.4331 66.7188 47.3442C66.25 46.2554 65.3125 45.322 63.9844 44.3109C62.7344 43.3776 61.0938 42.5221 59.2188 42.0554C57.4219 41.4332 55.1563 41.1999 52.5781 41.1999C49.375 41.1999 46.4844 41.5888 44.1406 42.4443C41.7969 43.2221 39.9219 44.5443 38.5938 46.1776C37.2656 47.8887 36.6406 49.7553 36.6406 51.8553C36.6406 54.033 37.2656 55.8996 38.5156 57.4552C39.7656 59.0107 41.4062 60.1773 43.4375 61.0329C45.4687 61.8884 47.9687 62.6662 50.9375 63.2106C53.125 63.6773 54.8438 64.1439 56.25 64.455C57.5 64.8439 58.5156 65.4661 59.2969 66.1661C60.0781 66.8661 60.3906 67.7216 60.3906 68.8105C60.3906 70.1327 59.6875 71.2994 58.2812 72.3105C56.875 73.3215 54.9219 73.866 52.5781 73.866C50.8594 73.866 49.6094 73.6327 48.5156 73.166C47.5 72.6216 46.6406 71.9993 46.1719 71.2994C45.625 70.5216 45.0781 69.5883 44.5312 68.4216C44.1406 67.4105 43.4375 66.555 42.8125 66.0883C42.1094 65.4661 41.3281 65.2328 40.3125 65.2328C39.1406 65.2328 38.125 65.6217 37.3437 66.3217C36.4844 67.0217 36.1719 67.955 36.1719 68.9661C36.1719 70.6771 36.7187 72.3105 37.9687 74.0215C39.2187 75.7326 40.8594 77.0548 42.7344 78.0659C45.3906 79.5437 48.75 80.1659 52.8125 80.1659C56.25 80.1659 59.2969 79.5437 61.7188 78.6103C64.2188 77.677 66.1719 76.277 67.5 74.3326C68.5156 72.8549 69.1406 71.2994 69.2969 69.4327C69.2969 68.8883 69.2969 68.4216 69.2969 67.8772ZM69.2969 67.8772C69.2969 66.0106 68.8281 64.2995 68.125 62.9773C67.2656 61.6551 66.25 60.5662 64.9219 59.7107C63.5937 58.8551 61.875 58.0774 60 57.5329C58.125 57.0663 56.0156 56.3663 53.75 55.8996C51.9531 55.3552 50.625 55.0441 49.8437 54.8885C49.0625 54.6552 48.2031 54.4219 47.5781 54.033C46.875 53.6441 46.25 53.2552 45.8594 52.7886C45.4688 52.3997 45.3125 51.7775 45.3125 51.1553C45.3125 50.1442 45.9375 49.2886 47.1094 48.5109C48.3594 47.7331 50 47.3442 52.0312 47.3442C54.2187 47.3442 55.8594 47.6553 56.7969 48.4331C57.7344 49.2109 58.6719 50.222 59.375 51.5441C60 52.5552 60.5469 53.333 61.0937 53.7219C61.6406 54.1108 62.3437 54.4219 63.4375 54.4219C64.6094 54.4219 65.625 53.8774 66.4062 53.1775C67.2656 52.4775 67.5781 51.5441 67.5781 50.5331C67.5781 49.4442 67.3438 48.4331 66.7188 47.3442C66.25 46.2554 65.3125 45.322 63.9844 44.3109C62.7344 43.3776 61.0938 42.5221 59.2188 42.0554C57.4219 41.4332 55.1563 41.1999 52.5781 41.1999C49.375 41.1999 46.4844 41.5888 44.1406 42.4443C41.7969 43.2221 39.9219 44.5443 38.5938 46.1776C37.2656 47.8887 36.6406 49.7553 36.6406 51.8553C36.6406 54.033 37.2656 55.8996 38.5156 57.4552C39.7656 59.0107 41.4062 60.1773 43.4375 61.0329C45.4687 61.8884 47.9687 62.6662 50.9375 63.2106C53.125 63.6773 54.8438 64.1439 56.25 64.455C57.5 64.8439 58.5156 65.4661 59.2969 66.1661C60.0781 66.8661 60.3906 67.7216 60.3906 68.8105C60.3906 70.1327 59.6875 71.2994 58.2812 72.3105C56.875 73.3215 54.9219 73.866 52.5781 73.866C50.8594 73.866 49.6094 73.6327 48.5156 73.166C47.5 72.6216 46.6406 71.9993 46.1719 71.2994C45.625 70.5216 45.0781 69.5883 44.5312 68.4216C44.1406 67.4105 43.4375 66.555 42.8125 66.0883C42.1094 65.4661 41.3281 65.2328 40.3125 65.2328C39.1406 65.2328 38.125 65.6217 37.3437 66.3217C36.4844 67.0217 36.1719 67.955 36.1719 68.9661C36.1719 70.6771 36.7187 72.3105 37.9687 74.0215C39.2187 75.7326 40.8594 77.0548 42.7344 78.0659C45.3906 79.5437 48.75 80.1659 52.8125 80.1659C56.25 80.1659 59.2969 79.5437 61.7188 78.6103C64.2188 77.677 66.1719 76.277 67.5 74.3326C68.5156 72.7771 69.1406 71.2216 69.2969 69.4327C69.2969 68.8883 69.2969 68.4216 69.2969 67.8772ZM69.2969 67.8772C69.2969 66.0106 68.8281 64.2995 68.125 62.9773C67.2656 61.6551 66.25 60.5662 64.9219 59.7107C63.5937 58.8551 61.875 58.0774 60 57.5329C58.125 57.0663 56.0156 56.3663 53.75 55.8996C51.9531 55.3552 50.625 55.0441 49.8437 54.8885C49.0625 54.6552 48.2031 54.4219 47.5781 54.033C46.875 53.6441 46.25 53.2552 45.8594 52.7886C45.4688 52.3997 45.3125 51.7775 45.3125 51.1553C45.3125 50.1442 45.9375 49.2886 47.1094 48.5109C48.3594 47.7331 50 47.3442 52.0312 47.3442C54.2187 47.3442 55.8594 47.6553 56.7969 48.4331C57.7344 49.2109 58.6719 50.222 59.375 51.5441C60 52.5552 60.5469 53.333 61.0937 53.7219C61.6406 54.1108 62.3437 54.4219 63.4375 54.4219C64.6094 54.4219 65.625 53.8774 66.4062 53.1775C67.2656 52.4775 67.5781 51.5441 67.5781 50.5331C67.5781 49.4442 67.3438 48.4331 66.7188 47.3442C66.25 46.2554 65.3125 45.322 63.9844 44.3109C62.7344 43.3776 61.0938 42.5221 59.2188 42.0554C57.4219 41.4332 55.1563 41.1999 52.5781 41.1999C49.375 41.1999 46.4844 41.5888 44.1406 42.4443C41.7969 43.2221 39.9219 44.5443 38.5938 46.1776C37.2656 47.8887 36.6406 49.7553 36.6406 51.8553C36.6406 54.033 37.2656 55.8996 38.5156 57.4552C39.7656 59.0107 41.4062 60.1773 43.4375 61.0329C45.4687 61.8884 47.9687 62.6662 50.9375 63.2106C53.125 63.6773 54.8438 64.1439 56.25 64.455C57.5 64.8439 58.5156 65.4661 59.2969 66.1661C60.0781 66.8661 60.3906 67.7216 60.3906 68.8105C60.3906 70.1327 59.6875 71.2994 58.2812 72.3105C56.875 73.3215 54.9219 73.866 52.5781 73.866C50.8594 73.866 49.6094 73.6327 48.5156 73.166C47.5 72.6216 46.6406 71.9993 46.1719 71.2994C45.625 70.5216 45.0781 69.5883 44.5312 68.4216C44.1406 67.4105 43.4375 66.555 42.8125 66.0883C42.1094 65.4661 41.3281 65.2328 40.3125 65.2328C39.1406 65.2328 38.125 65.6217 37.3437 66.3217C36.4844 67.0217 36.1719 67.955 36.1719 68.9661C36.1719 70.6771 36.7187 72.3105 37.9687 74.0215C39.2187 75.7326 40.8594 77.0548 42.7344 78.0659C45.3906 79.5437 48.75 80.1659 52.8125 80.1659C56.25 80.1659 59.2969 79.5437 61.7188 78.6103C64.2188 77.677 66.1719 76.277 67.5 74.3326C68.5156 72.7771 69.1406 71.2216 69.2969 69.4327C69.2969 68.8883 69.2969 68.4216 69.2969 67.8772ZM69.2969 67.8772C69.2969 66.0106 68.8281 64.2995 68.125 62.9773C67.2656 61.6551 66.25 60.5662 64.9219 59.7107C63.5937 58.8551 61.875 58.0774 60 57.5329C58.125 57.0663 56.0156 56.3663 53.75 55.8996C51.9531 55.3552 50.625 55.0441 49.8437 54.8885C49.0625 54.6552 48.2031 54.4219 47.5781 54.033C46.875 53.6441 46.25 53.2552 45.8594 52.7886C45.4688 52.3997 45.3125 51.7775 45.3125 51.1553C45.3125 50.1442 45.9375 49.2886 47.1094 48.5109C48.3594 47.7331 50 47.3442 52.0312 47.3442C54.2187 47.3442 55.8594 47.6553 56.7969 48.4331C57.7344 49.2109 58.6719 50.222 59.375 51.5441C60 52.5552 60.5469 53.333 61.0937 53.7219C61.6406 54.1108 62.3437 54.4219 63.4375 54.4219C64.6094 54.4219 65.625 53.8774 66.4062 53.1775C67.2656 52.4775 67.5781 51.5441 67.5781 50.5331C67.5781 49.4442 67.3438 48.4331 66.7188 47.3442C66.25 46.2554 65.3125 45.322 63.9844 44.3109C62.7344 43.3776 61.0938 42.5221 59.2188 42.0554C57.4219 41.4332 55.1563 41.1999 52.5781 41.1999C49.375 41.1999 46.4844 41.5888 44.1406 42.4443C41.7969 43.2221 39.9219 44.5443 38.5938 46.1776C37.2656 47.8887 36.6406 49.7553 36.6406 51.8553C36.6406 54.033 37.2656 55.8996 38.5156 57.4552C39.7656 59.0107 41.4062 60.1773 43.4375 61.0329C45.4687 61.8884 47.9687 62.6662 50.9375 63.2106C53.125 63.6773 54.8438 64.1439 56.25 64.455C57.5 64.8439 58.5156 65.4661 59.2969 66.1661C60.0781 66.8661 60.3906 67.7216 60.3906 68.8105C60.3906 70.1327 59.6875 71.2994 58.2812 72.3105C56.875 73.3215 54.9219 73.866 52.5781 73.866C50.8594 73.866 49.6094 73.6327 48.5156 73.166C47.5 72.6216 46.6406 71.9993 46.1719 71.2994C45.625 70.5216 45.0781 69.5883 44.5312 68.4216C44.1406 67.4105 43.4375 66.555 42.8125 66.0883C42.1094 65.4661 41.3281 65.2328 40.3125 65.2328C39.1406 65.2328 38.125 65.6217 37.3437 66.3217C36.4844 67.0217 36.1719 67.955 36.1719 68.9661C36.1719 70.6771 36.7187 72.3105 37.9687 74.0215C39.2187 75.7326 40.8594 77.0548 42.7344 78.0659C45.3906 79.5437 48.75 80.1659 52.8125 80.1659C56.25 80.1659 59.2969 79.5437 61.7188 78.6103C64.2188 77.677 66.1719 76.277 67.5 74.3326C68.5156 72.7771 69.1406 71.2216 69.2969 69.4327C69.2969 68.8883 69.2969 68.4216 69.2969 67.8772ZM69.2969 67.8772C69.2969 66.0106 68.8281 64.2995 68.125 62.9773C67.2656 61.6551 66.25 60.5662 64.9219 59.7107C63.5937 58.8551 61.875 58.0774 60 57.5329C58.125 57.0663 56.0156 56.3663 53.75 55.8996C51.9531 55.3552 50.625 55.0441 49.8437 54.8885C49.0625 54.6552 48.2031 54.4219 47.5781 54.033C46.875 53.6441 46.25 53.2552 45.8594 52.7886C45.4688 52.3997 45.3125 51.7775 45.3125 51.1553C45.3125 50.1442 45.9375 49.2886 47.1094 48.5109C48.3594 47.7331 50 47.3442 52.0312 47.3442C54.2187 47.3442 55.8594 47.6553 56.7969 48.4331C57.7344 49.2109 58.6719 50.222 59.375 51.5441C60 52.5552 60.5469 53.333 61.0937 53.7219C61.6406 54.1108 62.3437 54.4219 63.4375 54.4219C64.6094 54.4219 65.625 53.8774 66.4062 53.1775C67.2656 52.4775 67.5781 51.5441 67.5781 50.5331C67.5781 49.4442 67.3438 48.4331 66.7188 47.3442C66.25 46.2554 65.3125 45.322 63.9844 44.3109C62.7344 43.3776 61.0938 42.5221 59.2188 42.0554C57.4219 41.4332 55.1563 41.1999 52.5781 41.1999C49.375 41.1999 46.4844 41.5888 44.1406 42.4443C41.7969 43.2221 39.9219 44.5443 38.5938 46.1776C37.2656 47.8887 36.6406 49.7553 36.6406 51.8553C36.6406 54.033 37.2656 55.8996 38.5156 57.4552C39.7656 59.0107 41.4062 60.1773 43.4375 61.0329C45.4687 61.8884 47.9687 62.6662 50.9375 63.2106C53.125 63.6773 54.8438 64.1439 56.25 64.455C57.5 64.8439 58.5156 65.4661 59.2969 66.1661C60.0781 66.8661 60.3906 67.7216 60.3906 68.8105C60.3906 70.1327 59.6875 71.2994 58.2812 72.3105C56.875 73.3215 54.9219 73.866 52.5781 73.866C50.8594 73.866 49.6094 73.6327 48.5156 73.166C47.5 72.6216 46.6406 71.9993 46.1719 71.2994C45.625 70.5216 45.0781 69.5883 44.5312 68.4216C44.1406 67.4105 43.4375 66.555 42.8125 66.0883C42.1094 65.4661 41.3281 65.2328 40.3125 65.2328C39.1406 65.2328 38.125 65.6217 37.3437 66.3217C36.4844 67.0217 36.1719 67.955 36.1719 68.9661C36.1719 70.6771 36.7187 72.3105 37.9687 74.0215C39.2187 75.7326 40.8594 77.0548 42.7344 78.0659C45.3906 79.5437 48.75 80.1659 52.8125 80.1659C56.25 80.1659 59.2969 79.5437 61.7188 78.6103C64.2188 77.677 66.1719 76.277 67.5 74.3326C68.5156 72.7771 69.1406 71.2216 69.2969 69.4327C69.2969 68.8883 69.2969 68.4216 69.2969 67.8772ZM69.2969 67.8772C69.2969 66.0106 68.8281 64.2995 68.125 62.9773C67.2656 61.6551 66.25 60.5662 64.9219 59.7107C63.5937 58.8551 61.875 58.0774 60 57.5329C58.125 57.0663 56.0156 56.3663 53.75 55.8996C51.9531 55.3552 50.625 55.0441 49.8437 54.8885C49.0625 54.6552 48.2031 54.4219 47.5781 54.033C46.875 53.6441 46.25 53.2552 45.8594 52.7886C45.4688 52.3997 45.3125 51.7775 45.3125 51.1553C45.3125 50.1442 45.9375 49.2886 47.1094 48.5109C48.3594 47.7331 50 47.3442 52.0312 47.3442C54.2187 47.3442 55.8594 47.6553 56.7969 48.4331C57.7344 49.2109 58.6719 50.222 59.375 51.5441C60 52.5552 60.5469 53.333 61.0937 53.7219C61.6406 54.1108 62.3437 54.4219 63.4375 54.4219C64.6094 54.4219 65.625 53.8774 66.4062 53.1775C67.2656 52.4775 67.5781 51.5441 67.5781 50.5331C67.5781 49.4442 67.3438 48.4331 66.7188 47.3442C66.25 46.2554 65.3125 45.322 63.9844 44.3109C62.7344 43.3776 61.0938 42.5221 59.2188 42.0554C57.4219 41.4332 55.1563 41.1999 52.5781 41.1999C49.375 41.1999 46.4844 41.5888 44.1406 42.4443C41.7969 43.2221 39.9219 44.5443 38.5938 46.1776C37.2656 47.8887 36.6406 49.7553 36.6406 51.8553C36.6406 54.033 37.2656 55.8996 38.5156 57.4552C39.7656 59.0107 41.4062 60.1773 43.4375 61.0329C45.4687 61.8884 47.9687 62.6662 50.9375 63.2106C53.125 63.6773 54.8438 64.1439 56.25 64.455C57.5 64.8439 58.5156 65.4661 59.2969 66.1661C60.0781 66.8661 60.3906 67.7216 60.3906 68.8105C60.3906 70.1327 59.6875 71.2994 58.2812 72.3105C56.875 73.3215 54.9219 73.866 52.5781 73.866C50.8594 73.866 49.6094 73.6327 48.5156 73.166C47.5 72.6216 46.6406 71.9993 46.1719 71.2994C45.625 70.5216 45.0781 69.5883 44.5312 68.4216C44.1406 67.4105 43.4375 66.555 42.8125 66.0883C42.1094 65.4661 41.3281 65.2328 40.3125 65.2328C39.1406 65.2328 38.125 65.6217 37.3437 66.3217C36.4844 67.0217 36.1719 67.955 36.1719 68.9661C36.1719 70.6771 36.7187 72.3105 37.9687 74.0215C39.2187 75.7326 40.8594 77.0548 42.7344 78.0659C45.3906 79.5437 48.75 80.1659 52.8125 80.1659C56.25 80.1659 59.2969 79.5437 61.7188 78.6103C64.2188 77.677 66.1719 76.277 67.5 74.3326C68.5156 72.7771 69.1406 71.2216 69.2969 69.4327C69.2969 68.8883 69.2969 68.4216 69.2969 67.8772ZM69.2969 67.8772C69.2969 66.0106 68.8281 64.2995 68.125 62.9773C67.2656 61.6551 66.25 60.5662 64.9219 59.7107C63.5937 58.8551 61.875 58.0774 60 57.5329C58.125 57.0663 56.0156 56.3663 53.75 55.8996C51.9531 55.3552 50.625 55.0441 49.8437 54.8885C49.0625 54.6552 48.2031 54.4219 47.5781 54.033C46.875 53.6441 46.25 53.2552 45.8594 52.7886C45.4688 52.3997 45.3125 51.7775 45.3125 51.1553C45.3125 50.1442 45.9375 49.2886 47.1094 48.5109C48.3594 47.7331 50 47.3442 52.0312 47.3442C54.2187 47.3442 55.8594 47.6553 56.7969 48.4331C57.7344 49.2109 58.6719 50.222 59.375 51.5441C60 52.5552 60.5469 53.333 61.0937 53.7219C61.6406 54.1108 62.3437 54.4219 63.4375 54.4219C64.6094 54.4219 65.625 53.8774 66.4062 53.1775C67.2656 52.4775 67.5781 51.5441 67.5781 50.5331C67.5781 49.4442 67.3438 48.4331 66.7188 47.3442C66.25 46.2554 65.3125 45.322 63.9844 44.3109C62.7344 43.3776 61.0938 42.5221 59.2188 42.0554C57.4219 41.4332 55.1563 41.1999 52.5781 41.1999C49.375 41.1999 46.4844 41.5888 44.1406 42.4443C41.7969 43.2221 39.9219 44.5443 38.5938 46.1776C37.2656 47.8887 36.6406 49.7553 36.6406 51.8553C36.6406 54.033 37.2656 55.8996 38.5156 57.4552C39.7656 59.0107 41.4062 60.1773 43.4375 61.0329C45.4687 61.8884 47.9687 62.6662 50.9375 63.2106C53.125 63.6773 54.8438 64.1439 56.25 64.455C57.5 64.8439 58.5156 65.4661 59.2969 66.1661C60.0781 66.8661 60.3906 67.7216 60.3906 68.8105C60.3906 70.1327 59.6875 71.2994 58.2812 72.3105C56.875 73.3215 54.9219 73.866 52.5781 73.866C50.8594 73.866 49.6094 73.6327 48.5156 73.166C47.5 72.6216 46.6406 71.9993 46.1719 71.2994C45.625 70.5216 45.0781 69.5883 44.5312 68.4216C44.1406 67.4105 43.4375 66.555 42.8125 66.0883C42.1094 65.4661 41.3281 65.2328 40.3125 65.2328C39.1406 65.2328 38.125 65.6217 37.3437 66.3217C36.4844 67.0217 36.1719 67.955 36.1719 68.9661C36.1719 70.6771 36.7187 72.3105 37.9687 74.0215C39.2187 75.7326 40.8594 77.0548 42.7344 78.0659C45.3906 79.5437 48.75 80.1659 52.8125 80.1659C56.25 80.1659 59.2969 79.5437 61.7188 78.6103C64.2188 77.677 66.1719 76.277 67.5 74.3326C68.5156 72.7771 69.1406 71.2216 69.2969 69.4327C69.2969 68.8883 69.2969 68.4216 69.2969 67.8772ZM69.2969 67.8772C69.2969 66.0106 68.8281 64.2995 68.125 62.9773C67.2656 61.6551 66.25 60.5662 64.9219 59.7107C63.5937 58.8551 61.875 58.0774 60 57.5329C58.125 57.0663 56.0156 56.3663 53.75 55.8996C51.9531 55.3552 50.625 55.0441 49.8437 54.8885C49.0625 54.6552 48.2031 54.4219 47.5781 54.033C46.875 53.6441 46.25 53.2552 45.8594 52.7886C45.4688 52.3997 45.3125 51.7775 45.3125 51.1553C45.3125 50.1442 45.9375 49.2886 47.1094 48.5109C48.3594 47.7331 50 47.3442 52.0312 47.3442C54.2187 47.3442 55.8594 47.6553 56.7969 48.4331C57.7344 49.2109 58.6719 50.222 59.375 51.5441C60 52.5552 60.5469 53.333 61.0937 53.7219C61.6406 54.1108 62.3437 54.4219 63.4375 54.4219C64.6094 54.4219 65.625 53.8774 66.4062 53.1775C67.2656 52.4775 67.5781 51.5441 67.5781 50.5331C67.5781 49.4442 67.3438 48.4331 66.7188 47.3442C66.25 46.2554 65.3125 45.322 63.9844 44.3109C62.7344 43.3776 61.0938 42.5221 59.2188 42.0554C57.4219 41.4332 55.1563 41.1999 52.5781 41.1999C49.375 41.1999 46.4844 41.5888 44.1406 42.4443C41.7969 43.2221 39.9219 44.5443 38.5938 46.1776C37.2656 47.8887 36.6406 49.7553 36.6406 51.8553C36.6406 54.033 37.2656 55.8996 38.5156 57.4552C39.7656 59.0107 41.4062 60.1773 43.4375 61.0329C45.4687 61.8884 47.9687 62.6662 50.9375 63.2106C53.125 63.6773 54.8438 64.1439 56.25 64.455C57.5 64.8439 58.5156 65.4661 59.2969 66.1661C60.0781 66.8661 60.3906 67.7216 60.3906 68.8105C60.3906 70.1327 59.6875 71.2994 58.2812 72.3105C56.875 73.3215 54.9219 73.866 52.5781 73.866C50.8594 73.866 49.6094 73.6327 48.5156 73.166C47.5 72.6216 46.6406 71.9993 46.1719 71.2994C45.625 70.5216 45.0781 69.5883 44.5312 68.4216C44.1406 67.4105 43.4375 66.555 42.8125 66.0883C42.1094 65.4661 41.3281 65.2328 40.3125 65.2328C39.1406 65.2328 38.125 65.6217 37.3437 66.3217C36.4844 67.0217 36.1719 67.955 36.1719 68.9661C36.1719 70.6771 36.7187 72.3105 37.9687 74.0215C39.2187 75.7326 40.8594 77.0548 42.7344 78.0659C45.3906 79.5437 48.75 80.1659 52.8125 80.1659C56.25 80.1659 59.2969 79.5437 61.7188 78.6103C64.2188 77.677 66.1719 76.277 67.5 74.3326C68.5156 72.7771 69.1406 71.2216 69.2969 69.4327C69.2969 68.8883 69.2969 68.4216 69.2969 67.8772ZM69.2969 67.8772C69.2969 66.0106 68.8281 64.2995 68.125 62.9773C67.2656 61.6551 66.25 60.5662 64.9219 59.7107C63.5937 58.8551 61.875 58.0774 60 57.5329C58.125 57.0663 56.0156 56.3663 53.75 55.8996C51.9531 55.3552 50.625 55.0441 49.8437 54.8885C49.0625 54.6552 48.2031 54.4219 47.5781 54.033C46.875 53.6441 46.25 53.2552 45.8594 52.7886C45.4688 52.3997 45.3125 51.7775 45.3125 51.1553C45.3125 50.1442 45.9375 49.2886 47.1094 48.5109C48.3594 47.7331 50 47.3442 52.0312 47.3442C54.2187 47.3442 55.8594 47.6553 56.7969 48.4331C57.7344 49.2109 58.6719 50.222 59.375 51.5441C60 52.5552 60.5469 53.333 61.0937 53.7219C61.6406 54.1108 62.3437 54.4219 63.4375 54.4219C64.6094 54.4219 65.625 53.8774 66.4062 53.1775C67.2656 52.4775 67.5781 51.5441 67.5781 50.5331C67.5781 49.4442 67.3438 48.4331 66.7188 47.3442C66.25 46.2554 65.3125 45.322 63.9844 44.3109C62.7344 43.3776 61.0938 42.5221 59.2188 42.0554C57.4219 41.4332 55.1563 41.1999 52.5781 41.1999C49.375 41.1999 46.4844 41.5888 44.1406 42.4443C41.7969 43.2221 39.9219 44.5443 38.5938 46.1776C37.2656 47.8887 36.6406 49.7553 36.6406 51.8553C36.6406 54.033 37.2656 55.8996 38.5156 57.4552C39.7656 59.0107 41.4062 60.1773 43.4375 61.0329C45.4687 61.8884 47.9687 62.6662 50.9375 63.2106C53.125 63.6773 54.8438 64.1439 56.25 64.455C57.5 64.8439 58.5156 65.4661 59.2969 66.1661C60.0781 66.8661 60.3906 67.7216 60.3906 68.8105C60.3906 70.1327 59.6875 71.2994 58.2812 72.3105C56.875 73.3215 54.9219 73.866 52.5781 73.866C50.8594 73.866 49.6094 73.6327 48.5156 73.166C47.5 72.6216 46.6406 71.9993 46.1719 71.2994C45.625 70.5216 45.0781 69.5883 44.5312 68.4216C44.1406 67.4105 43.4375 66.555 42.8125 66.0883C42.1094 65.4661 41.3281 65.2328 40.3125 65.2328C39.1406 65.2328 38.125 65.6217 37.3437 66.3217C36.4844 67.0217 36.1719 67.955 36.1719 68.9661C36.1719 70.6771 36.7187 72.3105 37.9687 74.0215C39.2187 75.7326 40.8594 77.0548 42.7344 78.0659C45.3906 79.5437 48.75 80.1659 52.8125 80.1659C56.25 80.1659 59.2969 79.5437 61.7188 78.6103C64.2188 77.677 66.1719 76.277 67.5 74.3326C68.5156 72.7771 69.1406 71.2216 69.2969 69.4327C69.2969 68.8883 69.2969 68.4216 69.2969 67.8772ZM69.2969 67.8772C69.2969 66.0106 68.8281 64.2995 68.125 62.9773C67.2656 61.6551 66.25 60.5662 64.9219 59.7107C63.5937 58.8551 61.875 58.0774 60 57.5329C58.125 57.0663 56.0156 56.3663 53.75 55.8996C51.9531 55.3552 50.625 55.0441 49.8437 54.8885C49.0625 54.6552 48.2031 54.4219 47.5781 54.033C46.875 53.6441 46.25 53.2552 45.8594 52.7886C45.4688 52.3997 45.3125 51.7775 45.3125 51.1553C45.3125 50.1442 45.9375 49.2886 47.1094 48.5109C48.3594 47.7331 50 47.3442 52.0312 47.3442C54.2187 47.3442 55.8594 47.6553 56.7969 48.4331C57.7344 49.2109 58.6719 50.222 59.375 51.5441C60 52.5552 60.5469 53.333 61.0937 53.7219C61.6406 54.1108 62.3437 54.4219 63.4375 54.4219C64.6094 54.4219 65.625 53.8774 66.4062 53.1775C67.2656 52.4775 67.5781 51.5441 67.5781 50.5331C67.5781 49.4442 67.3438 48.4331 66.7188 47.3442C66.25 46.2554 65.3125 45.322 63.9844 44.3109C62.7344 43.3776 61.0938 42.5221 59.2188 42.0554C57.4219 41.4332 55.1563 41.1999 52.5781 41.1999C49.375 41.1999 46.4844 41.5888 44.1406 42.4443C41.7969 43.2221 39.9219 44.5443 38.5938 46.1776C37.2656 47.8887 36.6406 49.7553 36.6406 51.8553C36.6406 54.033 37.2656 55.8996 38.5156 57.4552C39.7656 59.0107 41.4062 60.1773 43.4375 61.0329C45.4687 61.8884 47.9687 62.6662 50.9375 63.2106C53.125 63.6773 54.8438 64.1439 56.25 64.455C57.5 64.8439 58.5156 65.4661 59.2969 66.1661C60.0781 66.8661 60.3906 67.7216 60.3906 68.8105C60.3906 70.1327 59.6875 71.2994 58.2812 72.3105C56.875 73.3215 54.9219 73.866 52.5781 73.866C50.8594 73.866 49.6094 73.6327 48.5156 73.166C47.5 72.6216 46.6406 71.9993 46.1719 71.2994C45.625 70.5216 45.0781 69.5883 44.5312 68.4216C44.1406 67.4105 43.4375 66.555 42.8125 66.0883C42.1094 65.4661 41.3281 65.2328 40.3125 65.2328C39.1406 65.2328 38.125 65.6217 37.3437 66.3217C36.4844 67.0217 36.1719 67.955 36.1719 68.9661C36.1719 70.6771 36.7187 72.3105 37.9687 74.0215C39.2187 75.7326 40.8594 77.0548 42.7344 78.0659C45.3906 79.5437 48.75 80.1659 52.8125 80.1659C56.25 80.1659 59.2969 79.5437 61.7188 78.6103C64.2188 77.677 66.1719 76.277 67.5 74.3326C68.5156 72.7771 69.1406 71.2216 69.2969 69.4327C69.2969 68.8883 69.2969 68.4216 69.2969 67.8772ZM69.2969 67.8772C69.2969 66.0106 68.8281 64.2995 68.125 62.9773C67.2656 61.6551 66.25 60.5662 64.9219 59.7107C63.5937 58.8551 61.875 58.0774 60 57.5329C58.125 57.0663 56.0156 56.3663 53.75 55.8996C51.9531 55.3552 50.625 55.0441 49.8437 54.8885C49.0625 54.6552 48.2031 54.4219 47.5781 54.033C46.875 53.6441 46.25 53.2552 45.8594 52.7886C45.4688 52.3997 45.3125 51.7775 45.3125 51.1553C45.3125 50.1442 45.9375 49.2886 47.1094 48.5109C48.3594 47.7331 50 47.3442 52.0312 47.3442C54.2187 47.3442 55.8594 47.6553 56.7969 48.4331C57.7344 49.2109 58.6719 50.222 59.375 51.5441C60 52.5552 60.5469 53.333 61.0937 53.7219C61.6406 54.1108 62.3437 54.4219 63.4375 54.4219C64.6094 54.4219 65.625 53.8774 66.4062 53.1775C67.2656 52.4775 67.5781 51.5441 67.5781 50.5331C67.5781 49.4442 67.3438 48.4331 66.7188 47.3442C66.25 46.2554 65.3125 45.322 63.9844 44.3109C62.7344 43.3776 61.0938 42.5221 59.2188 42.0554C57.4219 41.4332 55.1563 41.1999 52.5781 41.1999C49.375 41.1999 46.4844 41.5888 44.1406 42.4443C41.7969 43.2221 39.9219 44.5443 38.5938 46.1776C37.2656 47.8887 36.6406 49.7553 36.6406 51.8553C36.6406 54.033 37.2656 55.8996 38.5156 57.4552C39.7656 59.0107 41.4062 60.1773 43.4375 61.0329C45.4687 61.8884 47.9687 62.6662 50.9375 63.2106C53.125 63.6773 54.8438 64.1439 56.25 64.455C57.5 64.8439 58.5156 65.4661 59.2969 66.1661C60.0781 66.8661 60.3906 67.7216 60.3906 68.8105C60.3906 70.1327 59.6875 71.2994 58.2812 72.3105C56.875 73.3215 54.9219 73.866 52.5781 73.866C50.8594 73.866 49.6094 73.6327 48.5156 73.166C47.5 72.6216 46.6406 71.9993 46.1719 71.2994C45.625 70.5216 45.0781 69.5883 44.5312 68.4216C44.1406 67.4105 43.4375 66.555 42.8125 66.0883C42.1094 65.4661 41.3281 65.2328 40.3125 65.2328C39.1406 65.2328 38.125 65.6217 37.3437 66.3217C36.4844 67.0217 36.1719 67.955 36.1719 68.9661C36.1719 70.6771 36.7187 72.3105 37.9687 74.0215C39.2187 75.7326 40.8594 77.0548 42.7344 78.0659C45.3906 79.5437 48.75 80.1659 52.8125 80.1659C56.25 80.1659 59.2969 79.5437 61.7188 78.6103C64.2188 77.677 66.1719 76.277 67.5 74.3326C68.5156 72.7771 69.1406 71.2216 69.2969 69.4327C69.2969 68.8883 69.2969 68.4216 69.2969 67.8772ZM69.2969 67.8772C69.2969 66.0106 68.8281 64.2995 68.125 62.9773C67.2656 61.6551 66.25 60.5662 64.9219 59.7107C63.5937 58.8551 61.875 58.0774 60 57.5329C58.125 57.0663 56.0156 56.3663 53.75 55.8996C51.9531 55.3552 50.625 55.0441 49.8437 54.8885C49.0625 54.6552 48.2031 54.4219 47.5781 54.033C46.875 53.6441 46.25 53.2552 45.8594 52.7886C45.4688 52.3997 45.3125 51.7775 45.3125 51.1553C45.3125 50.1442 45.9375 49.2886 47.1094 48.5109C48.3594 47.7331 50 47.3442 52.0312 47.3442C54.2187 47.3442 55.8594 47.6553 56.7969 48.4331C57.7344 49.2109 58.6719 50.222 59.375 51.5441C60 52.5552 60.5469 53.333 61.0937 53.7219C61.6406 54.1108 62.3437 54.4219 63.4375 54.4219C64.6094 54.4219 65.625 53.8774 66.4062 53.1775C67.2656 52.4775 67.5781 51.5441 67.5781 50.5331C67.5781 49.4442 67.3438 48.4331 66.7188 47.3442C66.25 46.2554 65.3125 45.322 63.9844 44.3109C62.7344 43.3776 61.0938 42.5221 59.2188 42.0554C57.4219 41.4332 55.1563 41.1999 52.5781 41.1999C49.375 41.1999 46.4844 41.5888 44.1406 42.4443C41.7969 43.2221 39.9219 44.5443 38.5938 46.1776C37.2656 47.8887 36.6406 49.7553 36.6406 51.8553C36.6406 54.033 37.2656 55.8996 38.5156 57.4552C39.7656 59.0107 41.4062 60.1773 43.4375 61.0329C45.4687 61.8884 47.9687 62.6662 50.9375 63.2106C53.125 63.6773 54.8438 64.1439 56.25 64.455C57.5 64.8439 58.5156 65.4661 59.2969 66.1661C60.0781 66.8661 60.3906 67.7216 60.3906 68.8105C60.3906 70.1327 59.6875 71.2994 58.2812 72.3105C56.875 73.3215 54.9219 73.866 52.5781 73.866C50.8594 73.866 49.6094 73.6327 48.5156 73.166C47.5 72.6216 46.6406 71.9993 46.1719 71.2994C45.625 70.5216 45.0781 69.5883 44.5312 68.4216C44.1406 67.4105 43.4375 66.555 42.8125 66.0883C42.1094 65.4661 41.3281 65.2328 40.3125 65.2328C39.1406 65.2328 38.125 65.6217 37.3437 66.3217C36.4844 67.0217 36.1719 67.955 36.1719 68.9661C36.1719 70.6771 36.7187 72.3105 37.9687 74.0215C39.2187 75.7326 40.8594 77.0548 42.7344 78.0659C45.3906 79.5437 48.75 80.1659 52.8125 80.1659C56.25 80.1659 59.2969 79.5437 61.7188 78.6103C64.2188 77.677 66.1719 76.277 67.5 74.3326C68.5156 72.7771 69.1406 71.2216 69.2969 69.4327C69.2969 68.8883 69.2969 68.4216 69.2969 67.8772ZM69.2969 67.8772C69.2969 66.0106 68.8281 64.2995 68.125 62.9773C67.2656 61.6551 66.25 60.5662 64.9219 59.7107C63.5937 58.8551 61.875 58.0774 60 57.5329C58.125 57.0663 56.0156 56.3663 53.75 55.8996C51.9531 55.3552 50.625 55.0441 49.8437 54.8885C49.0625 54.6552 48.2031 54.4219 47.5781 54.033C46.875 53.6441 46.25 53.2552 45.8594 52.7886C45.4688 52.3997 45.3125 51.7775 45.3125 51.1553C45.3125 50.1442 45.9375 49.2886 47.1094 48.5109C48.3594 47.7331 50 47.3442 52.0312 47.3442C54.2187 47.3442 55.8594 47.6553 56.7969 48.4331C57.7344 49.2109 58.6719 50.222 59.375 51.5441C60 52.5552 60.5469 53.333 61.0937 53.7219C61.6406 54.1108 62.3437 54.4219 63.4375 54.4219C64.6094 54.4219 65.625 53.8774 66.4062 53.1775C67.2656 52.4775 67.5781 51.5441 67.5781 50.5331C67.5781 49.4442 67.3438 48.4331 66.7188 47.3442C66.25 46.2554 65.3125 45.322 63.9844 44.3109C62.7344 43.3776 61.0938 42.5221 59.2188 42.0554C57.4219 41.4332 55.1563 41.1999 52.5781 41.1999C49.375 41.1999 46.4844 41.5888 44.1406 42.4443C41.7969 43.2221 39.9219 44.5443 38.5938 46.1776C37.2656 47.8887 36.6406 49.7553 36.6406 51.8553C36.6406 54.033 37.2656 55.8996 38.5156 57.4552C39.7656 59.0107 41.4062 60.1773 43.4375 61.0329C45.4687 61.8884 47.9687 62.6662 50.9375 63.2106C53.125 63.6773 54.8438 64.1439 56.25 64.455C57.5 64.8439 58.5156 65.4661 59.2969 66.1661C60.0781 66.8661 60.3906 67.7216 60.3906 68.8105C60.3906 70.1327 59.6875 71.2994 58.2812 72.3105C56.875 73.3215 54.9219 73.866 52.5781 73.866C50.8594 73.866 49.6094 73.6327 48.5156 73.166C47.5 72.6216 46.6406 71.9993 46.1719 71.2994C45.625 70.5216 45.0781 69.5883 44.5312 68.4216C44.1406 67.4105 43.4375 66.555 42.8125 66.0883C42.1094 65.4661 41.3281 65.2328 40.3125 65.2328C39.1406 65.2328 38.125 65.6217 37.3437 66.3217C36.4844 67.0217 36.1719 67.955 36.1719 68.9661C36.1719 70.6771 36.7187 72.3105 37.9687 74.0215C39.2187 75.7326 40.8594 77.0548 42.7344 78.0659C45.3906 79.5437 48.75 80.1659 52.8125 80.1659C56.25 80.1659 59.2969 79.5437 61.7188 78.6103C64.2188 77.677 66.1719 76.277 67.5 74.3326C68.5156 72.7771 69.1406 71.2216 69.2969 69.4327C69.2969 68.8883 69.2969 68.4216 69.2969 67.8772ZM69.2969 67.8772C69.2969 66.0106 68.8281 64.2995 68.125 62.9773C67.2656 61.6551 66.25 60.5662 64.9219 59.7107C63.5937 58.8551 61.875 58.0774 60 57.5329C58.125 57.0663 56.0156 56.3663 53.75 55.8996C51.9531 55.3552 50.625 55.0441 49.8437 54.8885C49.0625 54.6552 48.2031 54.4219 47.5781 54.033C46.875 53.6441 46.25 53.2552 45.8594 52.7886C45.4688 52.3997 45.3125 51.7775 45.3125 51.1553C45.3125 50.1442 45.9375 49.2886 47.1094 48.5109C48.3594 47.7331 50 47.3442 52.0312 47.3442C54.2187 47.3442 55.8594 47.6553 56.7969 48.4331C57.7344 49.2109 58.6719 50.222 59.375 51.5441C60 52.5552 60.5469 53.333 61.0937 53.7219C61.6406 54.1108 62.3437 54.4219 63.4375 54.4219C64.6094 54.4219 65.625 53.8774 66.4062 53.1775C67.2656 52.4775 67.5781 51.5441 67.5781 50.5331C67.5781 49.4442 67.3438 48.4331 66.7188 47.3442C66.25 46.2554 65.3125 45.322 63.9844 44.3109C62.7344 43.3776 61.0938 42.5221 59.2188 42.0554C57.4219 41.4332 55.1563 41.1999 52.5781 41.1999C49.375 41.1999 46.4844 41.5888 44.1406 42.4443C41.7969 43.2221 39.9219 44.5443 38.5938 46.1776C37.2656 47.8887 36.6406 49.7553 36.6406 51.8553C36.6406 54.033 37.2656 55.8996 38.5156 57.4552C39.7656 59.0107 41.4062 60.1773 43.4375 61.0329C45.4687 61.8884 47.9687 62.6662 50.9375 63.2106C53.125 63.6773 54.8438 64.1439 56.25 64.455C57.5 64.8439 58.5156 65.4661 59.2969 66.1661C60.0781 66.8661 60.3906 67.7216 60.3906 68.8105C60.3906 70.1327 59.6875 71.2994 58.2812 72.3105C56.875 73.3215 54.9219 73.866 52.5781 73.866C50.8594 73.866 49.6094 73.6327 48.5156 73.166C47.5 72.6216 46.6406 71.9993 46.1719 71.2994C45.625 70.5216 45.0781 69.5883 44.5312 68.4216C44.1406 67.4105 43.4375 66.555 42.8125 66.0883C42.1094 65.4661 41.3281 65.2328 40.3125 65.2328C39.1406 65.2328 38.125 65.6217 37.3437 66.3217C36.4844 67.0217 36.1719 67.955 36.1719 68.9661C36.1719 70.6771 36.7187 72.3105 37.9687 74.0215C39.2187 75.7326 40.8594 77.0548 42.7344 78.0659C45.3906 79.5437 48.75 80.1659 52.8125 80.1659C56.25 80.1659 59.2969 79.5437 61.7188 78.6103C64.2188 77.677 66.1719 76.277 67.5 74.3326C68.5156 72.7771 69.1406 71.2216 69.2969 69.4327C69.2969 68.8883 69.2969 68.4216 69.2969 67.8772ZM69.2969 67.8772C69.2969 66.0106 68.8281 64.2995 68.125 62.9773C67.2656 61.6551 66.25 60.5662 64.9219 59.7107C63.5937 58.8551 61.875 58.0774 60 57.5329C58.125 57.0663 56.0156 56.3663 53.75 55.8996C51.9531 55.3552 50.625 55.0441 49.8437 54.8885C49.0625 54.6552 48.2031 54.4219 47.5781 54.033C46.875 53.6441 46.25 53.2552 45.8594 52.7886C45.4688 52.3997 45.3125 51.7775 45.3125 51.1553C45.3125 50.1442 45.9375 49.2886 47.1094 48.5109C48.3594 47.7331 50 47.3442 52.0312 47.3442C54.2187 47.3442 55.8594 47.6553 56.7969 48.4331C57.7344 49.2109 58.6719 50.222 59.375 51.5441C60 52.5552 60.5469 53.333 61.0937 53.7219C61.6406 54.1108 62.3437 54.4219 63.4375 54.4219C64.6094 54.4219 65.625 53.8774 66.4062 53.1775C67.2656 52.4775 67.5781 51.5441 67.5781 50.5331C67.5781 49.4442 67.3438 48.4331 66.7188 47.3442C66.25 46.2554 65.3125 45.322 63.9844 44.3109C62.7344 43.3776 61.0938 42.5221 59.2188 42.0554C57.4219 41.4332 55.1563 41.1999 52.5781 41.1999C49.375 41.1999 46.4844 41.5888 44.1406 42.4443C41.7969 43.2221 39.9219 44.5443 38.5938 46.1776C37.2656 47.8887 36.6406 49.7553 36.6406 51.8553C36.6406 54.033 37.2656 55.8996 38.5156 57.4552C39.7656 59.0107 41.4062 60.1773 43.4375 61.0329C45.4687 61.8884 47.9687 62.6662 50.9375 63.2106C53.125 63.6773 54.8438 64.1439 56.25 64.455C57.5 64.8439 58.5156 65.4661 59.2969 66.1661C60.0781 66.8661 60.3906 67.7216 60.3906 68.8105C60.3906 70.1327 59.6875 71.2994 58.2812 72.3105C56.875 73.3215 54.9219 73.866 52.5781 73.866C50.8594 73.866 49.6094 73.6327 48.5156 73.166C47.5 72.6216 46.6406 71.9993 46.1719 71.2994C45.625 70.5216 45.0781 69.5883 44.5312 68.4216C44.1406 67.4105 43.4375 66.555 42.8125 66.0883C42.1094 65.4661 41.3281 65.2328 40.3125 65.2328C39.1406 65.2328 38.125 65.6217 37.3437 66.3217C36.4844 67.0217 36.1719 67.955 36.1719 68.9661C36.1719 70.6771 36.7187 72.3105 37.9687 74.0215C39.2187 75.7326 40.8594 77.0548 42.7344 78.0659C45.3906 79.5437 48.75 80.1659 52.8125 80.1659C56.25 80.1659 59.2969 79.5437 61.7188 78.6103C64.2188 77.677 66.1719 76.277 67.5 74.3326C68.5156 72.7771 69.1406 71.2216 69.2969 69.4327C69.2969 68.8883 69.2969 68.4216 69.2969 67.8772ZM80.0781 101.632C80.1563 101.632 80.1562 101.632 80.2344 101.632L80.3125 101.554C80.1563 101.554 80.1563 101.632 80.0781 101.632Z" fill="white"/>
</svg>
