<svg width="100" height="92" viewBox="0 0 100 92" fill="none" xmlns="http://www.w3.org/2000/svg">
<path fill-rule="evenodd" clip-rule="evenodd" d="M99.6129 43.4036C98.0496 43.4036 98.1148 44.0512 97.5285 44.4398C97.3983 44.5046 97.0074 44.5693 96.6818 44.2455C96.0304 43.5979 97.2029 43.015 97.4634 42.6912C98.245 41.7198 97.9194 41.655 96.6166 40.6836C95.835 40.7483 95.1185 40.8131 94.4672 41.0721L94.2718 40.8778C94.4672 40.3597 94.5323 39.7769 94.9882 39.4531C94.9882 39.4531 95.0534 39.4531 95.0534 39.3883C94.7928 39.3235 94.5323 39.2588 94.3369 39.5826C93.9461 40.1655 93.5552 39.8416 93.0993 39.4531C92.7085 39.1292 91.992 38.935 92.0571 38.2873C92.1223 37.5102 91.6012 36.8626 90.8195 37.4454C90.7544 37.5102 90.6893 37.5102 90.6241 37.5102C90.0379 37.3159 90.559 36.9921 91.015 36.1502C91.2104 35.6968 90.4939 35.7616 90.1031 35.5025C89.8425 35.3082 89.9076 35.2435 89.582 33.8835C89.126 34.1425 88.9306 33.9482 86.3252 32.5235C85.9344 32.3292 85.7389 31.7463 85.9344 31.4873C86.6508 30.7749 86.9765 30.9044 87.2371 30.2568C87.6279 29.4148 87.8884 29.2206 87.6279 28.9615C87.1068 28.5082 86.9114 29.6091 86.26 29.6739C85.8692 29.7387 85.5435 29.2853 85.6087 29.1558C85.8041 28.7672 85.9995 28.3139 86.1949 27.9253C86.9114 27.4072 87.0417 26.5005 87.6279 25.9177C87.8884 25.6586 87.8233 24.7519 87.5627 24.6224C87.2371 24.3634 87.2371 24.6224 86.3903 25.27C85.9995 25.5938 85.9344 25.3996 84.3711 24.3634C83.5243 23.7805 84.306 23.5214 84.8271 22.4852C85.0225 22.1614 85.3481 22.2909 85.4784 21.5786C85.5435 21.3843 85.4133 21.19 85.1527 21.0605C83.7197 20.4776 83.3289 20.4128 82.4822 20.6719C81.0492 21.1252 80.6584 21.1252 80.4629 21.5138C80.2024 21.9671 78.9648 22.55 78.5089 22.3557C77.3364 21.9024 77.7272 23.3919 76.9456 22.6795C74.0145 20.1538 76.7502 21.5138 76.4897 20.2185C76.4245 19.83 75.9686 19.5709 75.7732 19.7004C75.5778 19.83 75.3823 19.9595 75.1869 20.089C74.8613 20.2833 74.4053 19.9595 74.0145 20.0243C73.4283 20.0243 72.8421 18.9881 72.321 19.5709C71.9302 20.0243 70.3669 20.0243 72.5815 20.4128C73.6888 20.6071 74.3402 21.6433 75.2521 23.0681C75.5126 23.4567 75.4475 24.1691 75.1218 24.2338C74.6007 24.2986 74.3402 24.6224 74.0145 24.8815C74.7961 25.5938 75.1218 26.8891 74.731 28.7672L65.6771 71.0572C65.0258 74.0363 63.202 74.8135 60.6617 73.3887L46.7877 63.2857L40.0787 69.6325C39.3622 70.3449 38.7109 70.9925 37.2779 70.9925L38.2549 57.0685L63.9184 34.1425C65.0258 33.1711 63.6579 32.5882 62.1598 33.6244L30.4386 53.377L16.8252 49.1675C13.829 48.2608 13.7639 46.2531 17.4115 44.8284L70.8229 24.4929C71.6045 24.1691 72.3861 24.1691 72.9723 24.3634C72.9072 24.1043 72.9723 23.651 73.1026 23.1329C73.1677 22.8738 73.1677 22.8091 72.0604 20.8662C71.865 20.5424 71.6045 20.3481 71.2788 20.1538C71.2788 19.9595 71.1485 19.7652 71.0183 19.5709C69.8458 18.4052 70.8229 18.2757 69.8458 17.6928C69.1945 17.3042 69.1944 16.7214 68.999 16.0737C68.6082 14.908 66.3285 16.1385 66.4587 16.7214C66.589 17.1099 66.3936 17.369 66.1982 17.628C65.612 18.47 67.3706 18.8585 68.0871 19.6357C68.4128 19.9595 68.3477 20.3481 67.045 20.2185C65.612 20.0243 65.612 21.0605 64.9606 20.0243C64.1139 18.8585 63.9185 18.9881 63.3322 18.5995C62.0295 17.7576 64.5047 16.2033 65.5468 15.8794C66.3285 15.6204 65.612 14.9728 66.5239 14.3899C67.045 14.0661 67.3706 13.6775 67.6963 13.6128C68.2825 13.3537 69.6504 14.649 69.3247 13.6128C68.8036 11.9289 69.7155 12.5765 69.6504 11.2165C69.6504 10.5041 70.1064 9.5327 70.432 9.59747C71.4742 9.85652 71.0834 8.82031 71.3439 8.75555C72.6466 8.23745 73.4934 5.58218 74.6659 7.39554C75.5778 8.82031 77.3364 9.66223 77.4016 9.27365C77.4667 8.75555 76.6851 8.56126 76.4245 7.91364C75.9686 6.9422 74.275 6.74791 74.6007 5.71171C74.8613 4.99932 74.7961 4.99932 73.754 4.54598C73.298 4.35169 73.1026 4.1574 73.298 3.89835C73.9494 3.1212 73.8191 2.02023 72.3861 2.66786C72.0604 2.79738 71.865 3.70406 71.0834 2.73262C70.6926 2.21452 70.2366 2.02023 69.6504 2.14976C68.6082 2.34405 68.4128 0.660216 67.1101 0.854504C64.8303 1.24308 65.2863 1.50213 63.5276 1.04879C62.4855 0.789741 62.4203 -0.116936 61.769 0.012589C61.5084 0.0773517 61.5084 0.336402 61.8341 0.660216C62.3552 1.11355 62.3552 1.37261 62.1598 1.63166C61.5736 2.34405 60.9873 1.63166 60.5965 1.3726C58.9681 0.0125887 59.6195 3.31549 57.2746 1.56689C56.2324 0.789741 56.6884 1.89071 56.6232 2.08499C56.5581 2.27928 55.8416 1.76118 55.4508 1.82594C54.3435 2.02023 54.1481 2.27928 54.2784 2.79738C54.5389 3.83359 54.4738 4.09264 55.1903 4.80503C55.7113 5.38789 56.2975 5.90599 55.9719 6.42409C55.7113 6.81267 54.7994 7.52506 53.8224 7.78411C53.627 7.84887 53.0408 7.4603 52.9756 7.26601C52.9105 7.00696 52.8454 6.68315 52.7802 6.42409C52.6499 5.84123 51.6729 5.38789 51.217 5.71171C50.5005 6.22981 49.784 6.68314 49.0675 7.13648C48.4813 7.52506 47.6996 7.71935 47.2437 8.23745C46.9831 8.4965 46.2666 8.04316 45.7456 7.78411C44.7685 8.36697 43.7264 8.75555 42.8796 9.40318C42.7493 9.46794 42.5539 9.5327 42.3585 9.46794C40.9906 9.27365 41.3163 10.6337 40.1439 11.6051C39.1668 12.447 40.665 13.2889 39.4925 14.1309C38.776 14.649 37.8641 14.0013 36.1706 15.1671C33.956 16.7214 33.8257 17.1099 32.7184 16.7861C31.4808 16.4623 28.224 19.8947 26.9864 20.3481C26.8562 20.4128 25.0324 23.1329 24.2507 22.6148C23.5994 22.2262 24.8369 20.4128 25.1626 20.089C25.4883 19.83 25.6837 19.5709 25.814 19.1176C26.0745 18.2109 26.5305 18.0166 27.0516 17.4985C27.5726 16.9156 27.247 16.6566 27.247 15.8794C27.247 15.8794 27.247 15.8794 27.3121 15.8794C27.5075 15.0375 27.5075 14.4547 28.3543 14.5194C29.3965 14.5842 29.5267 15.1023 30.113 14.7785C32.2624 13.2889 31.2203 13.3537 34.2816 13.4185C34.5422 13.4185 34.933 12.8356 33.7606 12.7061C33.3698 12.7061 32.9789 12.7708 32.5881 12.447C32.1322 12.1232 32.1322 11.7346 31.9368 11.3461C31.8065 11.1518 31.8065 11.1518 29.5267 10.6984C28.1589 10.4394 29.8524 12.188 29.0708 12.8356C28.4194 13.3537 27.0516 12.7061 26.8562 12.3175C26.2699 11.2165 26.4653 10.6984 25.6837 10.6984C23.9902 10.6984 23.925 10.5689 23.7948 11.1518C23.7296 11.2813 23.9902 12.6413 23.2086 12.188C22.5572 11.7994 22.0361 11.6699 21.7756 12.3175C21.5801 12.7061 21.7104 12.9651 21.9058 13.6128C21.9058 13.6775 21.9058 13.7423 21.9058 13.8718C21.9058 14.5194 21.2545 14.1956 20.8637 14.1956C19.8215 14.1309 20.9288 15.4909 19.4307 15.4909C18.7142 15.4909 18.3885 16.1385 17.4115 16.9804C17.0207 17.3042 16.8252 17.1747 14.806 17.4338C14.6106 17.4338 14.6758 17.9519 14.9363 18.1461C15.1968 18.4052 15.5225 18.5995 15.8482 18.729C18.7793 19.5062 18.9096 19.0528 19.105 19.7004C19.105 19.7652 19.105 19.8947 19.105 19.8947C17.9977 20.2185 18.5839 21.0605 17.8023 21.3843C16.9555 21.7081 16.3041 22.2909 15.5877 22.6795C15.1968 22.8738 15.3271 23.8453 15.9785 24.1043C17.0858 24.5576 17.8023 24.6224 18.1931 25.5938C17.8023 25.5938 17.6069 25.7881 17.3463 25.9824C16.6298 26.5653 15.0666 26.4358 14.6758 25.9824C14.8712 26.2415 15.0666 26.5653 15.262 26.8243C15.9785 27.2777 16.5647 27.9253 17.216 28.5082C17.3463 28.6377 17.672 28.5729 17.672 28.4434C17.5417 27.5367 17.2161 27.2777 17.6069 27.2129C17.9325 27.1482 18.3234 27.5367 18.4536 27.6663C18.9096 28.1844 19.5609 28.6377 19.5609 29.2853C19.5609 29.8034 20.2123 31.1634 19.8215 31.6815C19.8215 31.7463 19.5609 31.6815 19.5609 31.6168C18.7793 30.8396 17.5417 30.5158 17.2812 30.9691C17.1509 31.293 17.6069 31.4873 17.8023 31.7463C18.2582 32.1996 18.1931 32.653 17.7371 32.5235C15.1317 31.8758 15.9785 33.3006 14.7409 32.5882C14.3501 32.3939 14.5455 32.3292 12.5263 31.293C11.1584 30.5806 11.3538 32.1996 12.1355 32.2644C13.373 32.3939 14.0895 32.2644 14.806 33.1063C15.1317 33.4949 15.5877 33.6892 16.0436 33.8835C17.0206 33.8835 18.2582 34.8549 18.0628 35.3082C17.2161 37.3807 16.1739 35.9559 15.4574 35.6968C14.7409 35.4378 14.6758 35.8263 14.9363 36.1502C15.3922 36.6683 15.7179 37.1216 15.262 37.3807C14.8712 37.5749 14.8712 38.0283 14.7409 38.4169C14.6106 38.935 13.7639 38.093 13.1125 38.4169C11.5492 39.2588 10.8979 37.6397 7.83649 37.834C7.64109 37.834 7.70622 38.4169 7.83649 38.5464C8.09704 38.8054 8.42273 39.0645 8.68327 39.2588C9.33463 39.8416 9.59516 40.7483 9.07407 41.0074L9.26949 41.0721C8.35759 40.8131 7.18514 41.5902 5.2962 40.554C3.6678 39.6473 2.69076 39.9712 0.345873 40.2302C0.150465 40.2302 0.0202016 40.6188 0.150473 40.8778C0.606424 41.5255 0.736688 42.0436 0.345873 42.4321C-1.28252 44.1807 3.40726 46.3179 2.69077 47.0303C2.49536 47.2246 1.90914 47.3541 2.49537 48.1313C2.88618 48.5846 3.01645 48.4551 5.2962 49.1675C5.81729 49.297 6.01269 49.8799 5.62188 50.0094C4.84025 50.3332 3.86321 50.657 3.27699 50.8513C2.7559 51.0456 2.7559 52.0818 4.31916 53.377C5.36134 54.219 6.07783 54.219 6.9246 55.838C8.16218 58.2342 6.20809 59.4 10.3768 61.5371C10.7676 61.7314 11.5492 61.9257 11.7446 62.6381C13.1776 67.4953 18.8445 74.943 26.1397 79.3469C27.3121 80.0593 28.4194 80.8364 29.5267 81.6783C29.9176 82.0021 30.3084 82.326 30.7643 82.5202C32.0019 83.1031 33.0441 84.0098 34.2165 84.7222C38.4503 87.3127 38.6457 87.1184 39.6879 88.3489C40.4044 89.1908 40.665 89.7737 41.5769 89.9032C42.619 90.0975 42.7493 89.9032 43.9869 89.6441C44.6382 89.5146 45.0291 90.5508 45.3547 91.0042C45.5501 91.2632 46.3318 91.7165 46.7877 91.3927C47.5042 90.9394 47.6345 89.3851 49.5234 89.3203C51.1518 89.2556 50.2399 88.0251 51.0867 87.1832C51.4775 86.7946 52.8454 87.4422 53.4316 88.0898C54.604 89.3851 55.2554 90.0327 56.5581 90.4861C55.9068 89.5794 56.6884 89.5794 56.2975 88.5432L55.1251 87.766C54.7343 87.507 54.604 86.9241 54.9948 86.8593C55.6462 86.7298 56.6884 87.0536 56.2324 85.8231C55.9719 85.1108 56.2324 84.5926 56.1673 83.945C56.1022 83.2974 56.5581 83.1031 57.0792 83.0383C58.1865 82.9088 57.8608 84.0098 58.9681 84.7222C59.5543 85.1108 59.4241 85.5641 59.4892 85.8231C59.5544 86.0174 60.1406 86.406 60.336 86.406C60.6617 86.3412 60.7919 86.0174 61.0525 85.8231C62.4855 85.9527 62.4203 84.9812 64.3093 85.5641C66.7844 86.2765 66.9147 88.4784 67.8917 86.7298C67.5009 84.5279 68.7385 84.3984 68.999 82.9088C69.9109 77.9869 72.5815 77.404 74.2099 76.2383C74.5356 75.9792 75.0567 76.4973 76.0337 76.8859C77.3364 77.404 77.2713 76.6268 78.7694 77.5983C79.03 77.7926 79.03 77.7278 80.6584 77.404C81.5703 76.1087 81.7657 77.0802 81.3097 74.943C80.8538 73.4535 80.4629 74.684 80.1373 74.8135C79.4208 75.1373 78.8346 73.9716 78.5089 73.0649C78.4437 72.8058 78.3786 72.6763 80.984 70.4096C81.44 70.021 82.3519 70.3449 82.6776 69.5677C83.6546 67.1715 85.5435 67.042 86.0646 66.2C87.0417 64.7753 88.9306 63.221 88.4095 62.9619C87.8884 62.7029 87.5628 63.2857 87.1068 62.6381C86.3903 61.6667 89.7122 59.9181 89.4517 57.9752C89.3866 57.5219 90.1031 56.6152 90.2985 56.3561C90.559 56.0323 91.3406 56.4856 91.7966 56.6799C93.0342 57.198 92.7085 56.2266 93.2947 56.1618C93.7507 56.0971 95.1836 55.2552 93.8809 53.9599C93.5553 53.6361 93.0993 53.4418 93.425 52.7294C93.6204 52.2761 94.3369 51.5637 95.1185 52.1465C95.5093 52.4056 96.1607 52.7942 96.291 52.5351C96.4864 52.2761 95.7047 51.8227 95.3139 51.1751C94.6626 50.1389 92.6434 48.9732 91.992 49.6856C91.4709 50.2684 90.6893 50.5275 89.9728 50.8513C89.5168 51.1103 88.7352 50.7865 88.6701 50.3332C88.4747 49.0379 90.2333 48.1313 88.2141 47.4189C87.6279 47.2246 87.693 46.9008 87.7582 46.7712C88.8655 45.735 88.6701 45.7998 89.4517 46.3827C90.8196 47.4189 90.7544 47.4836 91.4058 47.2246C92.7736 46.6417 92.5131 48.5198 93.9461 48.8436C94.5323 48.9732 95.3139 49.3618 95.6396 48.9732C96.0304 48.5198 96.4212 47.4189 97.7891 46.6417C97.9194 46.577 97.9845 46.1884 97.9194 45.9293C97.5285 43.8569 99.2872 45.1522 99.7432 43.8569C100.264 43.5979 99.8734 43.4036 99.6129 43.4036ZM72.321 5.38789C72.5164 5.90599 71.865 5.97076 71.7999 5.58218C71.7999 5.25837 72.2558 5.25837 72.321 5.38789ZM70.3669 3.38025C71.0183 3.25072 71.3439 3.96311 70.888 4.02788C70.4972 4.09264 69.9109 3.44501 70.3669 3.38025ZM62.2249 19.4414C62.2901 19.4414 62.3552 19.5062 62.4203 19.5709C62.2901 20.1538 61.769 19.4414 62.2249 19.4414ZM52.3894 26.0472C52.7151 26.4358 52.0637 26.3062 51.9986 26.0472C51.9986 25.9177 52.2591 25.9824 52.3894 26.0472ZM50.0445 28.0548C50.1097 28.0548 50.2399 28.1196 50.3702 28.1196C50.3702 28.1844 50.4353 28.3139 50.4353 28.3786C50.0445 28.832 49.2629 29.9329 48.7418 29.1558C48.5464 28.8967 48.6115 28.9615 50.0445 28.0548ZM45.4199 9.46794C45.3547 9.46794 45.2245 9.40318 45.1593 9.40318C45.1593 8.75555 45.8107 9.33841 45.4199 9.46794ZM25.5534 17.4985C26.5305 15.8794 26.5956 15.6204 27.4424 15.8147C27.4424 16.7214 26.4654 17.4985 25.9443 17.8223C25.7489 17.8871 25.4883 17.628 25.5534 17.4985ZM18.2582 25.3348C18.3885 24.9462 18.5839 24.7519 18.649 24.6872C18.5839 24.8167 18.5188 25.011 18.2582 25.3348ZM18.9096 24.5576C18.9096 24.5576 18.9096 24.4929 18.9096 24.5576C18.9747 24.4929 18.9747 24.4929 18.9096 24.5576C18.9096 24.4929 18.9747 24.4929 18.9096 24.5576ZM22.8177 16.5918C22.6223 16.5918 22.1664 16.1385 22.2967 15.9442C23.5994 14.2604 25.6837 16.1385 22.8177 16.5918ZM22.6223 12.9004C22.8177 13.0299 22.8177 13.2242 22.6223 13.2889C22.3618 13.3537 22.2315 13.3537 22.1664 13.3537C22.1664 13.1594 22.2315 12.7061 22.6223 12.9004ZM21.5802 16.5918L21.7756 16.7861C21.515 16.7861 21.515 16.7861 21.5802 16.5918ZM21.971 23.5214C22.1012 23.5862 22.2315 23.91 22.0361 23.91C21.515 23.91 21.0591 24.0395 20.538 24.2338C19.9518 24.4281 18.9747 22.4205 21.971 23.5214ZM9.20435 49.6208C8.42272 49.4265 8.29245 48.6494 8.55299 48.5198C9.98598 47.5484 10.0511 47.8074 11.3538 48.8436C11.7446 49.2322 10.5071 49.9446 9.20435 49.6208ZM51.1518 80.5774C51.0867 80.5126 51.0867 80.5126 51.0867 80.4478C51.0867 80.5126 51.1518 80.5774 51.1518 80.5774ZM51.0216 80.7069C51.0867 80.6421 51.0867 80.6421 51.0867 80.5774C51.2821 80.7069 51.4124 80.8364 51.0216 80.7069ZM59.6195 82.3907C59.1635 82.5202 58.7727 82.0021 59.0984 81.7431C59.4892 81.3545 60.1406 82.1964 59.6195 82.3907ZM67.2404 84.0746C67.2404 84.2688 67.045 84.7869 66.7844 84.7869C66.4587 84.7869 66.589 84.1393 66.2633 83.8155C65.8074 83.3622 65.5468 82.9088 65.2212 82.3907C64.9606 82.0021 64.8955 81.6136 65.156 81.4193C65.5468 81.1602 65.7423 80.4478 66.9798 80.0593C67.6312 79.865 67.8917 81.4193 67.9569 82.1317C68.1523 83.1031 67.2404 82.6498 67.2404 84.0746ZM70.6926 77.0154C70.3018 77.0154 69.9109 76.8211 69.455 76.5621C69.2596 76.4326 68.9339 75.9145 68.999 75.7849C69.1293 75.4611 68.999 75.4611 70.6274 74.943C71.3439 74.7487 72.7769 76.8859 70.6926 77.0154ZM82.9381 43.0798C83.1335 43.2093 83.1335 43.7922 82.6124 43.4036C82.417 43.2741 82.4822 42.756 82.9381 43.0798ZM85.2179 47.937C84.5665 48.8437 84.1757 49.0379 83.2638 48.5846C82.9381 48.3903 82.6124 48.196 82.4822 47.8722C81.8959 46.1236 81.3748 45.9293 83.9803 46.6417C84.2408 46.7065 85.6087 47.4189 85.2179 47.937ZM88.2141 39.4531C88.0838 39.5178 87.8233 39.3883 87.7582 39.194C87.6279 38.6759 88.2141 38.4169 88.5398 38.5464C88.7352 38.6759 88.9306 39.3235 88.2141 39.4531ZM90.2985 41.1369C90.4287 40.8131 91.4709 41.3312 91.2755 41.7845C90.8195 42.6264 89.9728 42.0436 90.2985 41.1369ZM91.2755 44.0512C90.6893 43.7922 91.015 43.2741 91.4058 43.3388C91.7966 43.4683 91.7966 44.3103 91.2755 44.0512ZM94.2718 46.9655C93.2296 46.9008 93.0342 45.4112 94.4672 45.0874C95.1185 44.9579 96.291 45.9293 96.5515 46.9008C96.6818 47.4836 96.3561 47.0951 94.2718 46.9655ZM95.7699 39.4531C95.6396 39.3235 95.2488 39.3235 95.0534 39.4531C95.379 39.5826 95.6396 39.7769 95.7699 39.4531ZM89.7122 33.7539H89.6471C89.6471 33.8187 89.6471 33.8187 89.7122 33.7539C89.6471 33.8187 89.6471 33.8187 89.7122 33.7539C89.7122 33.8187 89.7122 33.8187 89.7122 33.7539Z" fill="white"/>
</svg>
