<svg width="23" height="24" viewBox="0 0 23 24" fill="none" xmlns="http://www.w3.org/2000/svg">
<g clip-path="url(#clip0)">
<path d="M11.4118 11.7832C12.8965 11.7832 14.1819 11.2351 15.2325 10.1536C16.2827 9.0723 16.8153 7.74926 16.8153 6.22078C16.8153 4.69282 16.2829 3.36961 15.2323 2.28796C14.1817 1.20683 12.8963 0.658691 11.4118 0.658691C9.92701 0.658691 8.64177 1.20683 7.59136 2.28813C6.54095 3.36943 6.0083 4.69265 6.0083 6.22078C6.0083 7.74926 6.54095 9.07247 7.59136 10.1538C8.64211 11.2349 9.92752 11.7832 11.4118 11.7832ZM8.5211 3.24504C9.32709 2.41534 10.2726 2.01204 11.4118 2.01204C12.5509 2.01204 13.4965 2.41534 14.3027 3.24504C15.1087 4.07491 15.5007 5.04838 15.5007 6.22078C15.5007 7.39352 15.1087 8.36682 14.3027 9.19669C13.4965 10.0266 12.5509 10.4299 11.4118 10.4299C10.2729 10.4299 9.32744 10.0264 8.5211 9.19669C7.71494 8.36699 7.32298 7.39352 7.32298 6.22078C7.32298 5.04838 7.71494 4.07491 8.5211 3.24504Z" fill="black"/>
<path d="M20.8665 18.4169C20.8362 17.9669 20.7749 17.4761 20.6847 16.9577C20.5937 16.4355 20.4764 15.9418 20.3361 15.4905C20.1909 15.0242 19.9939 14.5636 19.75 14.1222C19.4972 13.6641 19.2001 13.2652 18.8667 12.937C18.518 12.5936 18.0911 12.3175 17.5975 12.1161C17.1056 11.9158 16.5605 11.8143 15.9773 11.8143C15.7483 11.8143 15.5268 11.911 15.0991 12.1977C14.8358 12.3744 14.5279 12.5788 14.1842 12.8048C13.8904 12.9976 13.4922 13.1782 13.0005 13.3417C12.5207 13.5015 12.0336 13.5825 11.5527 13.5825C11.072 13.5825 10.5849 13.5015 10.1048 13.3417C9.61358 13.1784 9.21529 12.9978 8.92193 12.805C8.58149 12.5811 8.2734 12.3767 8.00622 12.1975C7.57883 11.9108 7.35735 11.8141 7.12834 11.8141C6.54503 11.8141 6.00005 11.9158 5.50831 12.1163C5.01503 12.3173 4.58798 12.5934 4.23899 12.9371C3.90557 13.2656 3.60843 13.6643 3.3558 14.1222C3.11224 14.5636 2.91507 15.024 2.76992 15.4907C2.62974 15.942 2.5125 16.4355 2.42144 16.9577C2.33107 17.4754 2.26996 17.9664 2.23967 18.4175C2.20989 18.8585 2.19482 19.3175 2.19482 19.7812C2.19482 20.9867 2.5671 21.9627 3.3012 22.6824C4.02624 23.3927 4.98542 23.7528 6.15221 23.7528H16.9545C18.1209 23.7528 19.0801 23.3927 19.8053 22.6824C20.5396 21.9632 20.9119 20.9869 20.9119 19.781C20.9117 19.3157 20.8965 18.8567 20.8665 18.4169ZM18.8988 21.7019C18.4198 22.1713 17.7837 22.3995 16.9543 22.3995H6.15221C5.3226 22.3995 4.68657 22.1713 4.20767 21.7021C3.73783 21.2417 3.5095 20.6132 3.5095 19.7812C3.5095 19.3485 3.52337 18.9212 3.5511 18.511C3.57814 18.1086 3.63342 17.6665 3.71541 17.1968C3.79637 16.7329 3.89941 16.2975 4.02196 15.9034C4.13954 15.5254 4.29992 15.1512 4.49881 14.7907C4.68863 14.4471 4.90703 14.1524 5.14802 13.9148C5.37344 13.6927 5.65756 13.5108 5.99235 13.3745C6.30198 13.2483 6.64995 13.1792 7.0277 13.1688C7.07374 13.194 7.15573 13.2421 7.28855 13.3313C7.55881 13.5126 7.87032 13.7194 8.21469 13.9459C8.60288 14.2006 9.10301 14.4307 9.70053 14.6293C10.3114 14.8326 10.9344 14.9359 11.5528 14.9359C12.1712 14.9359 12.7944 14.8326 13.4049 14.6295C14.003 14.4306 14.5029 14.2006 14.8916 13.9455C15.2441 13.7136 15.5468 13.5128 15.8171 13.3313C15.9499 13.2423 16.0319 13.194 16.078 13.1688C16.4559 13.1792 16.8038 13.2483 17.1136 13.3745C17.4483 13.5108 17.7324 13.6928 17.9578 13.9148C18.1988 14.1522 18.4172 14.447 18.607 14.7909C18.8061 15.1512 18.9666 15.5256 19.084 15.9032C19.2068 16.2979 19.31 16.7331 19.3908 17.1966C19.4726 17.6672 19.528 18.1095 19.5551 18.5112V18.5116C19.583 18.9202 19.597 19.3473 19.5972 19.7812C19.597 20.6134 19.3687 21.2417 18.8988 21.7019Z" fill="black"/>
</g>
<defs>
<clipPath id="clip0">
<rect width="22.4343" height="23.0941" fill="white" transform="translate(0.354492 0.658691)"/>
</clipPath>
</defs>
</svg>
