<svg width="100" height="83" viewBox="0 0 100 83" fill="none" xmlns="http://www.w3.org/2000/svg">
<path fill-rule="evenodd" clip-rule="evenodd" d="M94.7803 36.9688C93.9447 36.7907 95.7353 30.7377 93.9447 31.2718C93.2882 31.9246 92.8704 31.6279 92.572 31.4498C92.751 30.9751 92.9301 30.3223 93.0494 29.2541C83.2014 28.8981 92.6913 26.7024 80.3365 26.4056C77.8894 24.0319 81.1721 21.5988 75.0842 22.2516C71.6821 21.8955 74.9648 23.7945 73.1742 24.4473C72.2193 24.3286 71.1449 24.5067 69.8915 24.8034C70.6675 26.4056 71.2643 28.0673 71.7418 29.7882C71.8611 29.8476 71.8611 29.9663 71.8015 30.1443C72.1596 31.5685 72.3386 32.9928 72.458 34.4764C74.1889 35.6632 73.8308 37.9776 75.3229 40.7668C75.5019 41.0635 75.681 41.3602 75.8601 41.6569C75.9198 41.7162 75.9794 41.7756 75.9794 41.8349C79.5009 46.7011 77.5313 44.446 83.5595 45.9296C86.8422 53.5256 82.1867 47.1758 78.2475 45.989C77.591 44.5054 75.4423 48.3627 72.7564 48.4814C70.7271 49.7276 76.0988 50.4991 73.5323 50.5584C72.3983 50.0243 70.7271 49.7276 69.3544 49.0748C64.8183 57.5609 55.8058 63.3766 45.4205 63.3766C43.1525 63.3766 40.8845 63.0799 38.7358 62.5458C36.5871 62.0117 34.4981 61.1809 32.4688 60.1127L18.0847 63.8513L21.9045 49.9056C19.5171 45.8703 18.3234 41.1822 18.3234 36.4347C18.3234 21.5988 30.4395 9.55212 45.3609 9.55212C52.5828 9.55212 59.3869 12.3413 64.5199 17.3854C64.878 17.7415 65.1167 18.0382 65.4748 18.3349C67.7429 17.3261 71.6821 16.4953 73.2339 17.5635C71.503 22.7857 81.8883 18.3943 79.3218 17.6822C77.8894 17.8602 73.2339 16.7327 77.5313 17.0887C81.4108 5.39808 67.0863 7.94985 60.3419 3.02434C45.7787 -4.15621 33.961 3.14303 20.8302 7.4751C13.6679 14.1216 17.8459 6.88166 14.2648 8.48394C15.5779 13.1721 10.3256 6.28823 11.9371 14.8337C10.5046 16.6733 10.0868 13.2908 7.52035 15.4865C7.34129 21.2428 7.87847 26.9991 0 27.9486C3.10364 35.4852 -3.22301 41.1822 5.13293 47.1165C11.5193 43.0811 13.4889 67.6493 22.8595 69.7263C24.7694 69.9044 22.382 76.1354 22.382 72.0407C22.6804 71.0319 17.9653 70.1417 19.2784 68.3021C19.8752 67.3526 16.5328 66.9372 16.2941 65.3943C12.9517 63.1986 18.025 70.6758 10.9821 64.6228C10.9224 62.6645 9.66902 63.8513 8.535 63.1392C7.75909 61.8337 7.40098 59.8753 6.14758 60.7655C11.5789 67.59 4.41671 65.2756 7.93814 68.4208C11.3402 71.1506 10.3852 66.5811 10.2062 65.869C16.4135 68.1241 15.1004 77.797 19.0993 77.3816C19.8752 76.5508 27.9327 81.417 21.427 76.1354C19.5768 71.744 24.4113 77.5597 24.3516 73.465C27.0375 81.595 32.4091 74.3551 36.2887 80.2301C38.497 82.0104 36.7065 79.34 38.2583 79.2213C43.5703 80.8236 44.1075 86.2238 43.2719 78.1531C44.7043 77.2036 49.6582 77.5597 46.9724 75.0672C43.2719 75.6607 42.7347 78.9246 41.1829 73.3463C42.9734 72.5748 40.586 77.619 45.3609 72.8122C46.2561 72.6342 49.1807 73.5837 48.8226 72.1594C47.2708 71.2099 48.2258 68.4208 49.2404 68.7175C50.7325 69.3703 51.1503 74.3551 54.0152 70.9725C56.9995 67.5306 58.5513 71.0912 60.4612 68.9549C61.2372 66.5811 63.5649 62.6645 61.3565 60.7655C61.4162 57.0862 65.6539 63.792 67.146 60.7061C69.8319 58.9852 81.1721 63.4953 83.3804 58.3324C86.8422 58.1544 83.9773 63.6733 87.7375 57.739C88.1553 55.6619 86.2453 56.7301 86.2453 55.6619C87.8568 53.6443 85.4097 48.3627 87.5584 48.1253C90.5427 52.7541 92.3332 47.7693 91.5573 52.6354C93.2882 57.917 79.3815 63.1986 94.0641 59.8753C91.0202 59.9347 93.1091 56.6708 94.1835 55.3652C94.2432 52.5167 93.3479 53.2882 94.661 51.3892C98.1824 45.6329 89.1699 38.571 99.8536 41.4789C100.868 41.1822 96.3321 39.0458 94.7803 36.9688ZM76.7554 23.4978C77.0538 23.8539 77.3522 24.8627 76.7554 24.9814C75.9198 25.4562 75.2632 22.667 76.7554 23.4978ZM76.3376 30.7377C75.9794 30.5597 75.9794 29.7289 76.636 29.2541C77.4716 28.1266 77.7103 31.2125 76.3376 30.7377ZM73.2936 15.3678H73.1145C73.2936 15.1304 73.1742 15.1304 73.2936 15.3678ZM64.1021 11.9259C64.0424 12.1039 64.1021 12.1039 63.923 11.9852L64.1021 11.9259ZM56.6414 9.13671C54.254 6.88166 62.0131 4.15187 63.0277 6.88166C59.4466 6.70363 59.2079 10.2642 56.6414 11.3324C54.1346 11.4511 58.0738 9.55212 56.6414 9.13671ZM53.3587 8.06853C54.1943 9.19606 53.6571 8.48394 54.1346 9.01803C54.7911 9.78949 52.8215 11.095 52.8215 8.18722C52.8215 7.83116 53.12 7.65313 53.3587 8.06853ZM2.38741 31.5685C1.01465 31.6279 2.44709 29.6695 2.26804 28.8981C3.87954 27.5332 2.68584 30.8564 2.38741 31.5685ZM9.25123 18.3943C9.13186 18.3943 8.83342 17.5041 9.43028 17.2668C10.4449 17.0887 9.96745 18.3943 9.25123 18.3943ZM10.2659 47.4132C9.48997 47.2945 9.90777 46.1077 10.5643 46.5231C11.0418 46.8198 10.8627 47.5319 10.2659 47.4132ZM9.31091 64.5041C9.43028 64.3261 9.37059 64.3261 9.43028 64.5041H9.31091ZM18.3831 72.2188C18.7412 71.8034 19.159 72.1594 20.5914 72.9902C21.427 74.5331 17.3684 74.4738 18.3831 72.2188ZM40.2279 78.2124C39.6311 78.3311 40.1682 77.441 40.3473 78.0344C40.2876 78.1531 40.2876 78.2124 40.2279 78.2124ZM49.8969 68.5395C50.0163 68.3614 50.0163 68.3614 50.076 68.5395H49.8969ZM52.2247 69.1329C51.5681 69.3109 51.2697 67.59 52.2247 67.4119C55.0896 66.5811 54.0152 69.667 52.2247 69.1329ZM58.0142 67.8273C57.656 67.946 57.5367 67.768 57.5367 67.6493C57.5964 66.8778 58.8497 67.59 58.0142 67.8273ZM64.9376 58.9258C64.9973 58.8665 65.057 58.8665 65.2361 58.8665C65.8329 59.1039 64.6989 59.2819 64.9376 58.9258ZM65.7732 57.2642V57.1455C66.012 57.2049 66.0717 57.2049 65.7732 57.2642ZM75.9197 53.2289C75.8004 53.2882 75.7407 53.3476 75.5616 53.4069C74.6067 54.3564 72.6371 56.4334 71.2046 56.6114C69.235 58.0357 77.8894 55.7806 74.9051 57.1455C73.7711 56.8488 74.0098 56.6708 74.1292 57.739C73.7114 58.8665 65.8926 60.4094 68.6978 57.4422C67.0863 54.7125 70.19 55.6026 69.5334 52.7541C71.4434 51.864 73.1145 54.8311 75.6213 53.3476C76.0391 52.9321 76.2779 52.7541 75.9197 53.2289ZM76.7554 56.4928C76.2779 56.5521 75.9198 55.6026 76.636 55.1279C78.1281 54.1784 78.3072 56.196 76.7554 56.4928ZM78.6056 52.6948C78.4862 52.5167 78.6056 52.3387 78.7847 52.2794C79.2621 52.2794 78.8443 53.2289 78.6056 52.6948ZM82.9029 51.8046L83.2014 51.9233C82.7836 52.042 82.9029 52.042 82.9029 51.8046ZM85.8275 46.9978C85.9469 46.7011 86.0066 46.7011 86.1259 47.0572C85.9469 47.2352 85.8275 47.1758 85.8275 46.9978ZM86.4244 42.2503C84.0966 46.0483 87.0809 39.4019 87.9762 37.9776C90.0055 38.4524 89.7071 42.8438 91.3186 44.5054C88.5134 43.3779 87.26 46.345 86.4244 42.2503ZM91.1395 57.0268C91.0201 56.4928 91.796 56.4928 91.7364 56.9675C91.796 57.2642 91.1992 57.2642 91.1395 57.0268ZM91.9154 32.518C90.9008 35.0698 86.2453 31.5092 89.1699 31.8652C90.6023 31.9246 91.4379 32.3993 91.9751 32.2213C91.9751 32.2806 91.9154 32.3993 91.9154 32.518ZM66.0717 36.9094C65.1167 36.494 67.6832 40.8854 65.1764 39.2832C64.1021 34.6544 64.0424 38.215 62.4906 36.5534C63.4455 34.3577 59.0885 33.0521 58.7901 32.9928C58.7901 32.7554 58.7304 32.518 58.7304 32.34C58.7304 27.4145 65.2958 30.3223 67.146 33.8236H67.6832C67.5638 32.8147 67.3848 31.8652 67.146 30.9157C66.5492 30.7971 66.5492 30.441 66.8476 29.9663C66.4298 28.6607 65.9523 27.4738 65.2958 26.2276C63.3858 26.7024 61.7146 26.643 60.7597 25.1594C57.656 25.2188 62.1921 30.3817 55.4477 26.7617C53.6571 23.9132 60.1031 23.9726 63.2665 23.0231C62.6696 22.1923 61.9534 21.4801 61.2372 20.7087C56.9995 16.436 51.3891 14.1216 45.3012 14.1216C32.8866 14.1216 22.7998 24.1506 22.7998 36.494C22.7998 40.7074 24.0532 44.8021 26.2019 48.4221L26.739 49.3122L24.471 57.5609L33.006 55.3059L33.8416 55.7806C37.3033 57.7983 41.2426 58.8665 45.3012 58.8665C50.1954 58.8665 54.6718 57.3236 58.3723 54.7125C62.0727 52.1013 64.9377 48.4221 66.4895 44.09C65.5345 43.0811 63.7439 42.013 65.4151 40.3513C66.3701 40.5294 67.0266 40.47 67.5041 40.3513C67.6235 39.5205 67.8025 38.7491 67.8025 37.9183C67.5041 37.5029 66.7879 37.0281 66.0717 36.9094ZM56.8801 23.6165C56.522 23.7352 56.7011 23.7352 56.4026 23.5572C56.7011 23.4978 56.6414 23.4978 56.8801 23.6165ZM58.7901 46.167C58.2529 47.7099 55.5074 49.1342 54.254 49.3715C53.12 49.5496 51.5681 49.6683 49.9566 49.0748C49.0017 48.7188 47.6886 48.3034 46.0771 47.6506C39.273 44.7428 34.8562 37.9776 34.4981 37.5029C34.14 37.0281 31.6929 33.8236 31.6929 30.5003C31.6929 27.1771 33.4835 25.5748 34.0803 24.8627C34.6772 24.2099 35.4531 23.9726 35.8709 23.9726H37.184C37.6018 23.9726 38.1389 23.8539 38.6761 25.1001C39.2133 26.465 40.586 29.7882 40.7651 30.0849C40.9441 30.441 41.0635 30.8564 40.8248 31.2125C40.6457 31.6872 39.8698 32.6367 39.0939 33.5269C38.7955 33.8829 38.4374 34.1796 38.7955 34.8918C39.2133 35.5445 40.586 37.7402 42.5556 39.5799C45.1221 41.8943 47.3305 42.5471 47.987 42.9031C48.6436 43.2592 49.0613 43.1998 49.4195 42.7251C49.8373 42.2503 51.1503 40.7667 51.5084 40.0546C51.9859 39.4019 52.4037 39.5205 53.0006 39.6986C53.5974 39.8766 56.9398 41.5382 57.656 41.8943C58.3126 42.2503 58.7901 42.369 58.9691 42.7251C59.3272 43.2592 59.3272 44.6241 58.7901 46.167ZM60.7 41.1822C60.3419 41.5976 59.6853 41.2415 59.9241 40.7074C60.2225 40.2327 60.9984 40.8261 60.7 41.1822Z" fill="white"/>
</svg>
