<svg width="189" height="50" viewBox="0 0 189 50" fill="none" xmlns="http://www.w3.org/2000/svg">
<g clip-path="url(#clip0)">
<path d="M83.7279 0.322021H0.321289V49.4848H83.7279V0.322021Z" fill="#FFA500"/>
<path d="M0 0V49.8068H84.0494V0H0ZM83.4066 49.1627H0.642826V0.644053H83.4066V49.1627Z" fill="#2A2960"/>
<path d="M83.4065 16.3697C83.4065 21.1679 80.7066 25.3864 76.6354 27.8124C75.7676 28.3383 74.8248 28.7677 73.8391 29.1112C72.1999 29.6801 70.4214 30.0021 68.5679 30.0021C63.8646 30.0021 59.6755 27.9948 56.9649 24.8604C56.1721 23.948 55.4972 22.9283 54.9829 21.8441C54.9293 21.7368 54.8865 21.6402 54.8436 21.5328C54.8972 21.6187 54.9508 21.7153 55.0043 21.8012C55.0686 21.8978 55.1329 21.9944 55.1972 22.0803C55.315 22.2413 55.4436 22.4023 55.5721 22.5526C55.7436 22.7673 55.9257 22.982 56.1078 23.1752C57.2756 24.4096 58.8077 25.2898 60.5326 25.6548C61.1004 25.7729 61.6897 25.8373 62.279 25.8373C65.3752 25.8373 68.0965 24.1735 69.5857 21.6939C70.3571 20.4057 70.8071 18.903 70.8071 17.2928C70.8071 14.2765 69.2429 11.6144 66.8752 10.1009C65.8252 9.56418 64.7217 9.14555 63.5753 8.85572C62.3218 8.5337 61.0254 8.37268 59.6862 8.37268C58.5184 8.37268 57.3828 8.50149 56.2793 8.74838C48.5332 10.4659 42.6942 17.9154 42.6942 26.857C42.6942 33.9309 46.3369 40.0708 51.6938 43.173C51.908 43.3018 52.1223 43.4199 52.3473 43.538C53.4508 44.1069 54.6079 44.5577 55.8186 44.869C56.6435 45.1696 57.4578 45.3735 58.272 45.5024C58.4006 45.5238 58.5291 45.5453 58.647 45.556C58.9363 45.6204 59.2255 45.6526 59.5362 45.6526C59.6112 45.6526 59.6969 45.6526 59.7719 45.6419C61.529 45.7063 63.1361 45.3521 64.4217 44.6007C64.5931 44.5041 64.7538 44.3967 64.9038 44.2894C65.5359 43.8386 66.0716 43.2804 66.468 42.6149L66.4788 42.6041C66.5859 42.4324 66.6823 42.2499 66.768 42.0567V42.0459C67.0037 41.52 67.1644 40.9618 67.2287 40.3821C67.293 40.7793 67.3251 41.1872 67.3251 41.6058C67.3251 42.2499 67.2394 42.8832 67.0894 43.4843C67.0573 43.5917 67.0359 43.7097 66.993 43.8171C66.8537 44.2894 66.6609 44.7402 66.4359 45.1696C65.1288 47.6492 62.5039 49.1627 59.7077 49.1627H19.9918C20.1632 49.1413 20.3453 49.1198 20.6239 49.0769C20.9346 49.0339 21.2131 48.9695 21.5238 48.9051C22.4881 48.6368 24.5022 48.1537 25.1451 46.7046C25.7129 45.3628 24.3951 44.3323 25.1451 42.6149C25.6486 41.3589 26.7736 40.8759 26.5914 40.0172C26.3986 39.3194 25.5201 39.137 25.5201 38.6754C25.6272 38.1065 26.6771 38.1924 27.1593 37.4195C27.8449 36.3461 26.4629 35.219 27.0521 34.2529C27.6628 33.0936 29.6449 33.8772 30.3198 32.9111C30.6948 32.2134 30.3198 31.3761 28.4128 27.544C26.6771 24.0232 26.4843 23.7226 26.4843 23.143C26.7736 18.334 29.6448 18.4414 27.3628 11.5393C26.7736 9.19922 23.8701 2.9519 19.0918 0.644043H62.9968C68.4929 0.644043 73.5606 2.4796 77.6211 5.57105L77.6318 5.58179C78.2746 6.06483 78.8853 6.58007 79.4638 7.12751C81.9173 9.55345 83.4065 12.8059 83.4065 16.3697Z" fill="#2A2960"/>
<path d="M70.7965 17.3036C70.7965 18.9137 70.3572 20.4165 69.5751 21.7046C68.0859 24.1842 65.3753 25.8373 62.2684 25.8373C61.6684 25.8373 61.0791 25.7729 60.522 25.6548C58.7971 25.2898 57.265 24.4096 56.0972 23.1752C56.0865 23.143 56.0651 23.1 56.0544 23.0678C56.3972 23.3899 56.7829 23.669 57.1793 23.8944C57.3079 23.9695 57.4364 24.0339 57.565 24.0983C58.4007 24.5062 59.3114 24.7316 60.2327 24.7638C61.1863 24.796 62.1398 24.6136 63.0397 24.2164C63.0397 24.2164 63.0397 24.2164 63.0505 24.2164C63.8326 23.9158 64.5825 23.3791 65.2146 22.6492L65.2253 22.6385C65.2253 22.6385 65.2253 22.6385 65.2361 22.6277C66.5753 21.1464 67.1217 19.1284 66.8003 17.207C66.6396 16.2623 66.2646 15.3499 65.6753 14.5234C65.2361 13.9115 64.7111 13.407 64.1325 12.9991C64.0468 12.9347 63.9504 12.8811 63.8647 12.8167C63.854 12.8167 63.854 12.8059 63.8433 12.8059C63.554 12.6234 63.254 12.4732 62.9433 12.3444C62.2791 12.0438 61.572 11.8291 60.8434 11.7218C54.4473 10.702 48.0833 17.2928 46.6263 26.4491C45.5013 33.5659 47.6655 40.1245 51.6832 43.1838C46.3263 40.0708 42.6836 33.9309 42.6836 26.8678C42.6836 17.9261 48.5226 10.4659 56.2686 8.75912C57.3722 8.51223 58.5078 8.38342 59.6756 8.38342C61.0148 8.38342 62.3112 8.55517 63.5647 8.86646C64.7111 9.15629 65.8146 9.57492 66.8645 10.1116C69.2323 11.6252 70.7965 14.2765 70.7965 17.3036Z" fill="url(#paint0_linear)"/>
<path d="M66.5432 19.869C66.7468 18.5916 66.404 17.3894 65.5147 16.6809C64.4219 15.8115 62.8041 15.9081 61.4006 16.7883C61.4006 16.7883 61.3899 16.7883 61.3899 16.799C60.865 17.1318 60.3614 17.5719 59.9329 18.1193C59.8686 18.2052 59.8043 18.2803 59.7507 18.3662C58.6901 19.708 57.8008 21.5757 57.2008 23.9051C56.8044 23.6689 56.4187 23.4005 56.0759 23.0785C55.9045 22.9175 55.7331 22.7458 55.5724 22.5633C55.3688 22.3057 55.1867 22.048 55.026 21.7689C54.9081 21.5757 54.801 21.3825 54.6938 21.1893C54.7367 21.3074 54.7902 21.4255 54.8438 21.5435C54.8867 21.6509 54.9402 21.7475 54.9831 21.8548C55.4974 22.939 56.1723 23.948 56.9651 24.8711C55.4866 31.8591 57.1151 39.9312 60.715 43.1408C60.7792 43.2052 60.8542 43.2589 60.9185 43.3125C61.2185 43.5916 61.5613 43.8278 61.947 43.9888C61.947 43.9888 61.947 43.9888 61.9578 43.9888C62.4077 44.182 62.9006 44.2893 63.4148 44.2893C64.7005 44.2893 65.8254 43.6238 66.479 42.6255C66.0718 43.2911 65.5469 43.8492 64.9148 44.3001C64.7541 44.4074 64.5933 44.5148 64.4326 44.6114C63.147 45.352 61.5292 45.7063 59.7829 45.6526C59.7079 45.6526 59.6222 45.6633 59.5472 45.6633C59.2472 45.6633 58.9472 45.6311 58.6579 45.5667C58.5294 45.556 58.4008 45.5345 58.2829 45.513C58.1329 45.4379 57.983 45.3628 57.8437 45.2769C57.8437 45.2769 57.8437 45.2769 57.833 45.2769C57.5223 45.1051 57.233 44.9119 56.9437 44.6972C56.9437 44.6972 56.9437 44.6972 56.933 44.6865C53.1189 41.7668 51.2226 34.9828 52.5939 27.6298C53.4189 23.1751 55.2938 19.3537 57.6615 16.7239C57.6723 16.7131 57.683 16.7024 57.6937 16.6917C57.983 16.3482 58.2829 16.0476 58.6043 15.7685C60.7364 13.933 63.4898 13.5036 65.2469 14.9098C65.9326 15.4572 66.3718 16.1979 66.5968 17.0566C66.8111 17.9046 66.7897 18.8814 66.5432 19.869Z" fill="url(#paint1_linear)"/>
<path d="M66.543 19.869C66.7894 18.8814 66.8001 17.9046 66.5859 17.0351C66.3716 16.1764 65.9216 15.425 65.2359 14.8883C63.4682 13.4821 60.7254 13.9008 58.5934 15.747C58.272 16.0261 57.9613 16.3374 57.6827 16.6702C57.672 16.6809 57.6613 16.6917 57.6506 16.7024C55.2721 19.3323 53.4079 23.1644 52.583 27.6084C51.2223 34.9506 53.1079 41.7453 56.922 44.665C56.922 44.665 56.9328 44.665 56.9328 44.6758C57.2006 44.9119 57.5006 45.1051 57.822 45.2554C57.822 45.2554 57.822 45.2554 57.8327 45.2554C57.9827 45.3413 58.1327 45.4164 58.272 45.4916C57.4684 45.3628 56.6435 45.1481 55.8185 44.8582C54.6079 44.5577 53.4401 44.1069 52.3473 43.5272C52.1223 43.4091 51.908 43.2911 51.6937 43.1622C47.6654 40.1137 45.5012 33.5444 46.6368 26.4276C48.0939 17.2713 54.4579 10.6805 60.854 11.7002C61.5932 11.8183 62.2896 12.033 62.9539 12.3228C63.2646 12.4624 63.5646 12.6126 63.8538 12.7844C63.8646 12.7844 63.8646 12.7951 63.8753 12.7951C63.961 12.8488 64.0574 12.9132 64.1431 12.9776C64.7217 13.3855 65.2466 13.89 65.6859 14.5019C66.2752 15.3284 66.6501 16.2516 66.8108 17.1854C67.143 19.1069 66.5859 21.1142 65.2466 22.6062C65.2895 22.5525 65.3323 22.4989 65.3859 22.4452C66.0073 21.6616 66.4037 20.7492 66.543 19.869C66.543 19.8797 66.543 19.8797 66.543 19.869Z" fill="url(#paint2_linear)"/>
<path d="M23.9562 32.9004C23.2812 33.8665 21.2992 33.0936 20.6885 34.2422C20.0992 35.2082 21.4813 36.3353 20.7956 37.4087C20.3135 38.1816 19.2636 38.0957 19.1564 38.6647C19.1564 39.1262 20.035 39.3194 20.2278 40.0064C20.4207 40.8652 19.285 41.3482 18.7815 42.6041C18.0315 44.3216 19.3493 45.3521 18.7815 46.6938C18.1279 48.143 16.1244 48.626 15.1602 48.8944C14.8495 48.9588 14.5709 49.0232 14.2603 49.0661C13.9924 49.109 13.7996 49.1305 13.6281 49.152H0.643066V0.644043H12.7389C17.5172 2.9519 20.4207 9.19922 21.0099 11.5285C23.2919 18.4306 20.4207 18.3233 20.1314 23.1322C20.1314 23.7226 20.3242 24.0124 22.0599 27.5333C23.9562 31.3761 24.3419 32.2134 23.9562 32.9004Z" fill="#2A2960"/>
<path d="M102.059 29.8841H100.237V16.4663L88.7201 29.8841H88.3237V12.3873H90.0701V26.0413L101.662 12.3873H102.059V29.8841Z" fill="#2A2960"/>
<path d="M109.784 29.8841H106.034V16.9386H109.73C111.145 16.9386 112.152 17.2606 112.773 17.9154C113.395 18.5702 113.705 19.3216 113.705 20.2018C113.705 21.5221 113.127 22.4131 111.97 22.8746C113.652 23.465 114.487 24.6136 114.487 26.3203C114.487 28.6926 112.923 29.8841 109.784 29.8841ZM107.695 18.377V22.4131H108.777C109.763 22.4131 110.405 22.3701 110.705 22.295C111.005 22.2198 111.295 22.0159 111.552 21.7046C111.82 21.3933 111.948 20.9747 111.948 20.4594C111.948 19.9227 111.809 19.4719 111.53 19.1069C111.252 18.7419 110.963 18.5273 110.652 18.4629C110.341 18.3985 109.72 18.3663 108.766 18.3663H107.695V18.377ZM107.695 23.948V28.4779H109.484C110.33 28.4779 110.93 28.4242 111.284 28.3169C111.648 28.2095 111.959 27.9734 112.216 27.6192C112.473 27.2649 112.602 26.8141 112.602 26.2666C112.602 25.5582 112.377 25 111.937 24.5814C111.498 24.1627 110.909 23.948 110.18 23.948H107.695V23.948Z" fill="#2A2960"/>
<path d="M130.29 16.9386V29.8841H128.651V27.6621C127.954 28.5101 127.172 29.1541 126.304 29.5728C125.437 30.0021 124.494 30.2168 123.455 30.2168C121.623 30.2168 120.058 29.5513 118.773 28.2203C117.476 26.8892 116.833 25.2791 116.833 23.3684C116.833 21.5006 117.487 19.912 118.794 18.5809C120.101 17.2606 121.676 16.5951 123.508 16.5951C124.569 16.5951 125.533 16.8205 126.39 17.2713C127.247 17.7222 128.008 18.3984 128.651 19.3108V16.9279H130.29V16.9386ZM123.637 18.216C122.715 18.216 121.858 18.4414 121.076 18.903C120.294 19.3538 119.673 19.9978 119.212 20.8244C118.751 21.6509 118.516 22.5204 118.516 23.4435C118.516 24.3559 118.751 25.2254 119.212 26.0627C119.683 26.8999 120.305 27.544 121.098 28.0056C121.88 28.4671 122.726 28.7033 123.626 28.7033C124.537 28.7033 125.394 28.4779 126.208 28.0163C127.022 27.5547 127.654 26.9321 128.094 26.1485C128.533 25.365 128.747 24.4847 128.747 23.4972C128.747 21.9944 128.254 20.7492 127.269 19.7402C126.294 18.7205 125.083 18.216 123.637 18.216Z" fill="#2A2960"/>
<path d="M143.211 23.6582H135.69V29.8948H134.029V16.9386H135.69V22.0803H143.211V16.9386H144.872V29.8841H143.211V23.6582Z" fill="#2A2960"/>
<path d="M154.696 16.606C156.689 16.606 158.339 17.3251 159.646 18.7743C160.835 20.0946 161.435 21.651 161.435 23.4544C161.435 25.2685 160.803 26.8464 159.549 28.1989C158.296 29.5514 156.678 30.2277 154.696 30.2277C152.714 30.2277 151.096 29.5514 149.832 28.1989C148.578 26.8464 147.946 25.2685 147.946 23.4544C147.946 21.6618 148.546 20.1053 149.735 18.785C151.043 17.3359 152.692 16.606 154.696 16.606ZM154.685 18.2376C153.303 18.2376 152.114 18.7528 151.118 19.7726C150.121 20.7923 149.628 22.0375 149.628 23.4866C149.628 24.4205 149.853 25.3007 150.303 26.1057C150.753 26.9108 151.364 27.5441 152.135 27.9842C152.907 28.4243 153.753 28.6498 154.675 28.6498C155.596 28.6498 156.442 28.4243 157.214 27.9842C157.985 27.5441 158.596 26.9215 159.046 26.1057C159.496 25.3007 159.721 24.4205 159.721 23.4866C159.721 22.0375 159.217 20.7923 158.221 19.7726C157.246 18.7528 156.067 18.2376 154.685 18.2376Z" fill="#2A2960"/>
<path d="M168.26 29.8841H164.51V16.9386H168.206C169.62 16.9386 170.627 17.2606 171.249 17.9154C171.87 18.5702 172.181 19.3216 172.181 20.2018C172.181 21.5221 171.602 22.4131 170.445 22.8746C172.127 23.465 172.963 24.6136 172.963 26.3203C172.963 28.6926 171.399 29.8841 168.26 29.8841ZM166.17 18.377V22.4131H167.252C168.238 22.4131 168.881 22.3701 169.181 22.295C169.481 22.2198 169.77 22.0159 170.027 21.7046C170.295 21.3933 170.424 20.9747 170.424 20.4594C170.424 19.9227 170.284 19.4719 170.006 19.1069C169.727 18.7419 169.438 18.5273 169.127 18.4629C168.817 18.3985 168.195 18.3663 167.242 18.3663H166.17V18.377ZM166.17 23.948V28.4779H167.96C168.806 28.4779 169.406 28.4242 169.76 28.3169C170.113 28.2095 170.434 27.9734 170.692 27.6192C170.949 27.2649 171.077 26.8141 171.077 26.2666C171.077 25.5582 170.852 25 170.413 24.5814C169.974 24.1627 169.385 23.948 168.656 23.948H166.17V23.948Z" fill="#2A2960"/>
<path d="M188.755 16.9386V29.8841H187.116V27.6621C186.419 28.5101 185.637 29.1541 184.769 29.5728C183.901 30.0021 182.959 30.2168 181.919 30.2168C180.087 30.2168 178.523 29.5513 177.238 28.2203C175.941 26.8892 175.298 25.2791 175.298 23.3684C175.298 21.5006 175.952 19.912 177.259 18.5809C178.566 17.2606 180.141 16.5951 181.973 16.5951C183.034 16.5951 183.998 16.8205 184.855 17.2713C185.712 17.7222 186.473 18.3984 187.116 19.3108V16.9279H188.755V16.9386ZM182.112 18.216C181.191 18.216 180.334 18.4414 179.552 18.903C178.77 19.3538 178.148 19.9978 177.688 20.8244C177.227 21.6509 176.991 22.5204 176.991 23.4435C176.991 24.3559 177.227 25.2254 177.688 26.0627C178.159 26.8999 178.78 27.544 179.573 28.0056C180.355 28.4671 181.202 28.7033 182.102 28.7033C183.012 28.7033 183.869 28.4779 184.684 28.0163C185.498 27.5547 186.13 26.9321 186.569 26.1485C187.008 25.365 187.223 24.4847 187.223 23.4972C187.223 21.9944 186.73 20.7492 185.744 19.7402C184.769 18.7205 183.548 18.216 182.112 18.216Z" fill="#2A2960"/>
<path d="M88.292 32.1598H90.0383V39.502H98.9308V32.1598H100.677V49.6673H98.9308V41.2195H90.0383V49.6673H88.292V32.1598Z" fill="#2A2960"/>
<path d="M117.53 36.7218V49.6673H115.891V47.4453C115.194 48.2933 114.412 48.9373 113.544 49.356C112.676 49.7853 111.734 50 110.694 50C108.862 50 107.298 49.3345 106.012 48.0035C104.716 46.6724 104.073 45.0623 104.073 43.1516C104.073 41.2838 104.727 39.6952 106.034 38.3641C107.341 37.0438 108.916 36.3783 110.748 36.3783C111.809 36.3783 112.773 36.6037 113.63 37.0546C114.487 37.5054 115.248 38.1816 115.891 39.0941V36.7111H117.53V36.7218ZM110.887 37.9884C109.966 37.9884 109.109 38.2138 108.327 38.6754C107.544 39.1263 106.923 39.7703 106.462 40.5968C106.002 41.4234 105.766 42.2929 105.766 43.216C105.766 44.1284 106.002 44.9979 106.462 45.8351C106.934 46.6724 107.555 47.3165 108.348 47.778C109.13 48.2396 109.977 48.4758 110.876 48.4758C111.787 48.4758 112.644 48.2503 113.459 47.7888C114.273 47.3272 114.905 46.7046 115.344 45.921C115.783 45.1374 115.998 44.2572 115.998 43.2697C115.998 41.7669 115.505 40.5217 114.519 39.5127C113.534 38.4929 112.323 37.9884 110.887 37.9884Z" fill="#2A2960"/>
<path d="M125.03 49.6673H121.28V36.7218H124.976C126.39 36.7218 127.397 37.0438 128.019 37.6986C128.64 38.3534 128.951 39.1048 128.951 39.985C128.951 41.3053 128.372 42.1963 127.215 42.6578C128.897 43.2482 129.733 44.3968 129.733 46.1035C129.733 48.4758 128.158 49.6673 125.03 49.6673ZM122.94 38.1602V42.1963H124.023C125.008 42.1963 125.651 42.1533 125.951 42.0782C126.251 42.003 126.54 41.7991 126.797 41.4878C127.065 41.1765 127.194 40.7579 127.194 40.2426C127.194 39.7059 127.055 39.2551 126.776 38.8901C126.497 38.5251 126.208 38.3105 125.897 38.2461C125.587 38.1817 124.965 38.1495 124.012 38.1495H122.94V38.1602ZM122.94 43.7312V48.2611H124.73C125.576 48.2611 126.176 48.2074 126.53 48.1001C126.883 47.9927 127.204 47.7566 127.462 47.4023C127.719 47.0481 127.847 46.5973 127.847 46.0498C127.847 45.3414 127.622 44.7832 127.183 44.3646C126.744 43.9459 126.155 43.7312 125.426 43.7312H122.94Z" fill="#2A2960"/>
<path d="M145.525 36.7218V49.6673H143.886V47.4453C143.189 48.2933 142.407 48.9373 141.539 49.356C140.672 49.7853 139.729 50 138.689 50C136.857 50 135.293 49.3345 134.008 48.0035C132.711 46.6724 132.068 45.0623 132.068 43.1516C132.068 41.2838 132.722 39.6952 134.029 38.3641C135.336 37.0438 136.911 36.3783 138.743 36.3783C139.804 36.3783 140.768 36.6037 141.625 37.0546C142.482 37.5054 143.243 38.1816 143.886 39.0941V36.7111H145.525V36.7218ZM138.882 37.9884C137.961 37.9884 137.104 38.2138 136.322 38.6754C135.54 39.1263 134.918 39.7703 134.458 40.5968C133.997 41.4234 133.761 42.2929 133.761 43.216C133.761 44.1284 133.997 44.9979 134.458 45.8351C134.929 46.6724 135.55 47.3165 136.343 47.778C137.125 48.2396 137.972 48.4758 138.872 48.4758C139.782 48.4758 140.639 48.2503 141.454 47.7888C142.268 47.3272 142.9 46.7046 143.339 45.921C143.778 45.1374 143.993 44.2572 143.993 43.2697C143.993 41.7669 143.5 40.5217 142.514 39.5127C141.529 38.4929 140.318 37.9884 138.882 37.9884Z" fill="#2A2960"/>
<path d="M150.924 36.7218V46.2968L160.417 36.7218H160.545V49.6673H158.885V40.1783L149.467 49.6673H149.264V36.7218H150.924ZM150.689 31.5157H152.253C152.521 31.9236 152.885 32.2349 153.335 32.4389C153.785 32.6428 154.321 32.7502 154.953 32.7502C155.585 32.7502 156.099 32.6643 156.485 32.4818C156.87 32.2993 157.245 31.9773 157.588 31.5157H159.11C158.938 32.2349 158.488 32.8253 157.77 33.3084C157.053 33.7914 156.11 34.0276 154.942 34.0276C153.774 34.0276 152.831 33.7914 152.092 33.3191C151.353 32.8468 150.892 32.2457 150.689 31.5157Z" fill="#2A2960"/>
<path d="M88.4204 9.98287V0.386475H93.2202V1.32035H89.3632V4.40107H89.8132C91.0024 4.40107 91.8702 4.50842 92.4166 4.71237C92.9523 4.92705 93.3809 5.25981 93.6916 5.71065C94.0023 6.16149 94.1523 6.66599 94.1523 7.22417C94.1523 7.9541 93.8737 8.59815 93.3273 9.1456C92.7809 9.69304 92.0202 9.97213 91.0453 9.97213H88.4204V9.98287ZM89.3632 5.36715V9.04899H90.5417C91.2381 9.04899 91.7524 8.98459 92.0738 8.84504C92.3952 8.7055 92.6631 8.50154 92.8559 8.21172C93.0488 7.9219 93.1452 7.6106 93.1452 7.25638C93.1452 6.81627 93.0059 6.44057 92.7381 6.12928C92.4595 5.81799 92.1274 5.61404 91.7202 5.51743C91.3131 5.42082 90.7024 5.36715 89.9096 5.36715H89.3632V5.36715Z" fill="#654321"/>
<path d="M96.8306 9.98289H95.9199V2.88757H96.8306V5.87168H98.0198C98.1805 4.92707 98.5984 4.16494 99.2841 3.58529C99.9697 3.00564 100.763 2.71582 101.673 2.71582C102.723 2.71582 103.602 3.08078 104.309 3.82145C105.016 4.56211 105.369 5.44231 105.369 6.46206C105.369 7.47108 105.016 8.35129 104.32 9.08121C103.612 9.81114 102.734 10.1761 101.684 10.1761C100.741 10.1761 99.9269 9.86481 99.2305 9.25296C98.5341 8.64111 98.127 7.81458 98.0305 6.78409H96.8413V9.98289H96.8306ZM104.448 6.4728C104.448 5.6892 104.17 5.01294 103.623 4.44403C103.077 3.87512 102.434 3.59603 101.684 3.59603C100.934 3.59603 100.28 3.87512 99.734 4.44403C99.1876 5.01294 98.9091 5.6892 98.9091 6.4728C98.9091 7.2564 99.1662 7.92192 99.6912 8.46936C100.216 9.01681 100.88 9.2959 101.673 9.2959C102.455 9.2959 103.12 9.01681 103.645 8.46936C104.18 7.92192 104.448 7.2564 104.448 6.4728Z" fill="#654321"/>
<path d="M107.062 2.88755H107.973V4.18639C108.337 3.69262 108.745 3.31692 109.216 3.07003C109.687 2.82315 110.202 2.69434 110.78 2.69434C111.787 2.69434 112.644 3.0593 113.362 3.77849C114.08 4.50842 114.434 5.37789 114.434 6.39764C114.434 7.43886 114.08 8.3298 113.373 9.04899C112.666 9.77892 111.809 10.1439 110.812 10.1439C110.244 10.1439 109.73 10.0258 109.259 9.78965C108.787 9.5535 108.359 9.21001 107.973 8.7377V12.5483H107.062V2.88755V2.88755ZM110.705 3.58528C109.912 3.58528 109.259 3.86437 108.712 4.41181C108.177 4.95926 107.909 5.64625 107.909 6.47278C107.909 7.00949 108.027 7.49253 108.273 7.9219C108.509 8.35127 108.862 8.69476 109.302 8.94165C109.752 9.18854 110.223 9.31735 110.716 9.31735C111.209 9.31735 111.669 9.18854 112.098 8.94165C112.527 8.68403 112.869 8.3298 113.126 7.87896C113.384 7.42813 113.512 6.94509 113.512 6.45131C113.512 5.9468 113.384 5.4745 113.137 5.02366C112.891 4.57282 112.548 4.2186 112.119 3.97171C111.68 3.71409 111.219 3.58528 110.705 3.58528Z" fill="#654321"/>
<path d="M119.49 2.70508C120.583 2.70508 121.483 3.10224 122.201 3.89658C122.854 4.61577 123.176 5.47451 123.176 6.46206C123.176 7.4496 122.833 8.31908 122.147 9.05974C121.462 9.8004 120.572 10.1761 119.49 10.1761C118.408 10.1761 117.519 9.8004 116.822 9.05974C116.137 8.31908 115.794 7.4496 115.794 6.46206C115.794 5.48524 116.115 4.6265 116.769 3.90731C117.497 3.10224 118.397 2.70508 119.49 2.70508ZM119.49 3.59602C118.73 3.59602 118.087 3.87511 117.54 4.43329C116.994 4.99147 116.726 5.66772 116.726 6.46206C116.726 6.9773 116.855 7.4496 117.101 7.90044C117.347 8.34054 117.68 8.68404 118.108 8.93093C118.526 9.16708 118.997 9.29589 119.501 9.29589C120.004 9.29589 120.465 9.17781 120.894 8.93093C121.312 8.69477 121.654 8.35128 121.901 7.90044C122.147 7.46034 122.276 6.9773 122.276 6.46206C122.276 5.66772 121.997 4.99147 121.461 4.43329C120.894 3.87511 120.24 3.59602 119.49 3.59602Z" fill="#654321"/>
</g>
<defs>
<linearGradient id="paint0_linear" x1="38.0681" y1="28.904" x2="77.8165" y2="21.5904" gradientUnits="userSpaceOnUse">
<stop stop-color="white" stop-opacity="0"/>
<stop offset="0.0207057" stop-color="#F6F6F8" stop-opacity="0.0218329"/>
<stop offset="0.1562" stop-color="#C1C0D0" stop-opacity="0.1647"/>
<stop offset="0.293" stop-color="#9292AE" stop-opacity="0.3089"/>
<stop offset="0.4286" stop-color="#6D6C92" stop-opacity="0.452"/>
<stop offset="0.5628" stop-color="#504F7C" stop-opacity="0.5935"/>
<stop offset="0.6951" stop-color="#3B3A6C" stop-opacity="0.733"/>
<stop offset="0.8247" stop-color="#2E2D63" stop-opacity="0.8696"/>
<stop offset="0.9484" stop-color="#2A2960"/>
</linearGradient>
<linearGradient id="paint1_linear" x1="57.2853" y1="44.4797" x2="64.7952" y2="13.1497" gradientUnits="userSpaceOnUse">
<stop stop-color="white" stop-opacity="0"/>
<stop offset="0.0985502" stop-color="#DDDDE5" stop-opacity="0.0985502"/>
<stop offset="0.2711" stop-color="#A7A7BD" stop-opacity="0.2711"/>
<stop offset="0.4397" stop-color="#7A7A9C" stop-opacity="0.4397"/>
<stop offset="0.6005" stop-color="#575782" stop-opacity="0.6005"/>
<stop offset="0.7515" stop-color="#3E3D6F" stop-opacity="0.7515"/>
<stop offset="0.8888" stop-color="#2F2E64" stop-opacity="0.8888"/>
<stop offset="1" stop-color="#2A2960"/>
</linearGradient>
<linearGradient id="paint2_linear" x1="49.4397" y1="43.9932" x2="61.048" y2="10.9527" gradientUnits="userSpaceOnUse">
<stop stop-color="white" stop-opacity="0"/>
<stop offset="0.3506" stop-color="#AAA9BF" stop-opacity="0.3506"/>
<stop offset="0.6626" stop-color="#65648C" stop-opacity="0.6626"/>
<stop offset="0.8863" stop-color="#3A396C" stop-opacity="0.8863"/>
<stop offset="1" stop-color="#2A2960"/>
</linearGradient>
<clipPath id="clip0">
<rect width="188.755" height="50" fill="white"/>
</clipPath>
</defs>
</svg>
