<?xml version="1.0" encoding="utf-8"?>
<!-- Generator: Adobe Illustrator 24.1.1, SVG Export Plug-In . SVG Version: 6.00 Build 0)  -->
<svg version="1.1" id="Слой_1" xmlns="http://www.w3.org/2000/svg" xmlns:xlink="http://www.w3.org/1999/xlink" x="0px" y="0px"
	 viewBox="0 0 227 60" style="enable-background:new 0 0 227 60;" xml:space="preserve">
<style type="text/css">
	.st0{fill:#FFA500;}
	.st1{fill:#2A2960;}
	.st2{fill:url(#SVGID_1_);}
	.st3{fill:url(#SVGID_2_);}
	.st4{fill:url(#SVGID_3_);}
	.st5{opacity:0.98;}
	.st6{fill:#654321;}
</style>
<path class="st0" d="M100.5,0.4H0.4v59h100.1V0.4z"/>
<path class="st1" d="M0,0v59.8h100.9V0H0z M100.1,59H0.8V0.8h99.3V59z"/>
<path class="st1" d="M100.1,19.6c0,5.8-3.2,10.8-8.1,13.7c-1,0.6-2.2,1.1-3.4,1.6c-2,0.7-4.1,1.1-6.3,1.1c-5.6,0-10.7-2.4-13.9-6.2
	c-1-1.1-1.8-2.3-2.4-3.6c-0.1-0.1-0.1-0.2-0.2-0.4c0.1,0.1,0.1,0.2,0.2,0.3c0.1,0.1,0.2,0.2,0.2,0.3c0.1,0.2,0.3,0.4,0.4,0.6
	c0.2,0.3,0.4,0.5,0.6,0.7c1.4,1.5,3.2,2.5,5.3,3c0.7,0.1,1.4,0.2,2.1,0.2c3.7,0,7-2,8.8-5c0.9-1.5,1.5-3.3,1.5-5.3
	c0-3.6-1.9-6.8-4.7-8.6c-1.3-0.6-2.6-1.1-4-1.5c-1.5-0.4-3.1-0.6-4.7-0.6c-1.4,0-2.8,0.2-4.1,0.5c-9.3,2.1-16.3,11-16.3,21.7
	c0,8.5,4.4,15.9,10.8,19.6c0.3,0.2,0.5,0.3,0.8,0.4c1.3,0.7,2.7,1.2,4.2,1.6c1,0.4,2,0.6,2.9,0.8c0.2,0,0.3,0.1,0.5,0.1
	c0.3,0.1,0.7,0.1,1.1,0.1c0.1,0,0.2,0,0.3,0c2.1,0.1,4-0.3,5.6-1.2c0.2-0.1,0.4-0.2,0.6-0.4c0.8-0.5,1.4-1.2,1.9-2l0,0
	c0.1-0.2,0.2-0.4,0.3-0.7v0c0.3-0.6,0.5-1.3,0.6-2c0.1,0.5,0.1,1,0.1,1.5c0,0.8-0.1,1.5-0.3,2.3c0,0.1-0.1,0.3-0.1,0.4
	c-0.2,0.6-0.4,1.1-0.7,1.6c-1.6,3-4.7,4.8-8.1,4.8H24c0.2,0,0.4-0.1,0.8-0.1c0.4-0.1,0.7-0.1,1.1-0.2c1.2-0.3,3.6-0.9,4.3-2.6
	c0.7-1.6-0.9-2.8,0-4.9c0.6-1.5,2-2.1,1.7-3.1c-0.2-0.8-1.3-1.1-1.3-1.6c0.1-0.7,1.4-0.6,2-1.5c0.8-1.3-0.8-2.6-0.1-3.8
	c0.7-1.4,3.1-0.5,3.9-1.6c0.5-0.8,0-1.8-2.3-6.4c-2.1-4.2-2.3-4.6-2.3-5.3c0.3-5.8,3.8-5.6,1.1-13.9C32.1,11,28.6,3.5,22.9,0.8h52.7
	c6.6,0,12.7,2.2,17.5,5.9l0,0c0.8,0.6,1.5,1.2,2.2,1.9C98.3,11.5,100.1,15.4,100.1,19.6z"/>
<linearGradient id="SVGID_1_" gradientUnits="userSpaceOnUse" x1="45.6792" y1="27.3284" x2="93.3773" y2="36.1047" gradientTransform="matrix(1 0 0 -1 0 62)">
	<stop  offset="0" style="stop-color:#FFFFFF;stop-opacity:0"/>
	<stop  offset="2.070570e-02" style="stop-color:#F6F6F8;stop-opacity:2.183290e-02"/>
	<stop  offset="0.1562" style="stop-color:#C1C0D0;stop-opacity:0.1647"/>
	<stop  offset="0.293" style="stop-color:#9292AE;stop-opacity:0.3089"/>
	<stop  offset="0.4286" style="stop-color:#6D6C92;stop-opacity:0.452"/>
	<stop  offset="0.5628" style="stop-color:#504F7C;stop-opacity:0.5935"/>
	<stop  offset="0.6951" style="stop-color:#3B3A6C;stop-opacity:0.733"/>
	<stop  offset="0.8247" style="stop-color:#2E2D63;stop-opacity:0.8696"/>
	<stop  offset="0.9484" style="stop-color:#2A2960"/>
</linearGradient>
<path class="st2" d="M85,20.8c0,1.9-0.5,3.7-1.5,5.3c-1.8,3-5,5-8.8,5c-0.7,0-1.4-0.1-2.1-0.2c-2.1-0.4-3.9-1.5-5.3-3
	c0,0,0-0.1-0.1-0.1c0.4,0.4,0.9,0.7,1.3,1c0.2,0.1,0.3,0.2,0.5,0.2c1,0.5,2.1,0.8,3.2,0.8c1.1,0,2.3-0.2,3.4-0.7c0,0,0,0,0,0
	c0.9-0.4,1.8-1,2.6-1.9l0,0c0,0,0,0,0,0c1.6-1.8,2.3-4.2,1.9-6.5c-0.2-1.1-0.6-2.2-1.3-3.2c-0.5-0.7-1.2-1.3-1.9-1.8
	c-0.1-0.1-0.2-0.1-0.3-0.2c0,0,0,0,0,0c-0.3-0.2-0.7-0.4-1.1-0.6c-0.8-0.4-1.6-0.6-2.5-0.7c-7.7-1.2-15.3,6.7-17.1,17.7
	c-1.3,8.5,1.2,16.4,6.1,20.1c-6.4-3.7-10.8-11.1-10.8-19.6c0-10.7,7-19.7,16.3-21.7c1.3-0.3,2.7-0.5,4.1-0.5c1.6,0,3.2,0.2,4.7,0.6
	c1.4,0.3,2.7,0.9,4,1.5C83.1,14,85,17.1,85,20.8z"/>
<linearGradient id="SVGID_2_" gradientUnits="userSpaceOnUse" x1="68.7319" y1="8.6269" x2="77.7438" y2="46.2229" gradientTransform="matrix(1 0 0 -1 0 62)">
	<stop  offset="0" style="stop-color:#FFFFFF;stop-opacity:0"/>
	<stop  offset="9.855021e-02" style="stop-color:#DDDDE5;stop-opacity:9.855020e-02"/>
	<stop  offset="0.2711" style="stop-color:#A7A7BD;stop-opacity:0.2711"/>
	<stop  offset="0.4397" style="stop-color:#7A7A9C;stop-opacity:0.4397"/>
	<stop  offset="0.6005" style="stop-color:#575782;stop-opacity:0.6005"/>
	<stop  offset="0.7515" style="stop-color:#3E3D6F;stop-opacity:0.7515"/>
	<stop  offset="0.8888" style="stop-color:#2F2E64;stop-opacity:0.8888"/>
	<stop  offset="1" style="stop-color:#2A2960"/>
</linearGradient>
<path class="st3" d="M79.9,23.8c0.2-1.5-0.2-3-1.2-3.8c-1.3-1-3.3-0.9-4.9,0.1c0,0,0,0,0,0c-0.6,0.4-1.2,0.9-1.7,1.6
	c-0.1,0.1-0.2,0.2-0.2,0.3c-1.3,1.6-2.3,3.9-3.1,6.6c-0.5-0.3-0.9-0.6-1.3-1c-0.2-0.2-0.4-0.4-0.6-0.6c-0.2-0.3-0.5-0.6-0.7-1
	c-0.1-0.2-0.3-0.5-0.4-0.7c0.1,0.1,0.1,0.3,0.2,0.4c0.1,0.1,0.1,0.2,0.2,0.4c0.6,1.3,1.4,2.5,2.4,3.6c-1.8,8.4,0.2,18.1,4.5,21.9
	c0.1,0.1,0.2,0.1,0.2,0.2c0.4,0.3,0.8,0.6,1.2,0.8c0,0,0,0,0,0c0.5,0.2,1.1,0.4,1.7,0.4c1.5,0,2.9-0.8,3.7-2c-0.5,0.8-1.1,1.5-1.9,2
	c-0.2,0.1-0.4,0.3-0.6,0.4c-1.5,0.9-3.5,1.3-5.6,1.2c-0.1,0-0.2,0-0.3,0c-0.4,0-0.7,0-1.1-0.1c-0.2,0-0.3,0-0.4-0.1
	c-0.2-0.1-0.4-0.2-0.5-0.3c0,0,0,0,0,0c-0.4-0.2-0.7-0.4-1.1-0.7c0,0,0,0,0,0c-4.6-3.5-6.9-11.6-5.2-20.5c1-5.3,3.2-9.9,6.1-13.1
	c0,0,0,0,0,0c0.3-0.4,0.7-0.8,1.1-1.1c2.6-2.2,5.9-2.7,8-1c0.8,0.7,1.3,1.5,1.6,2.6C80.2,21.5,80.1,22.7,79.9,23.8z"/>
<linearGradient id="SVGID_3_" gradientUnits="userSpaceOnUse" x1="59.3131" y1="9.2132" x2="73.2432" y2="48.8618" gradientTransform="matrix(1 0 0 -1 0 62)">
	<stop  offset="0" style="stop-color:#FFFFFF;stop-opacity:0"/>
	<stop  offset="0.3506" style="stop-color:#AAA9BF;stop-opacity:0.3506"/>
	<stop  offset="0.6626" style="stop-color:#65648C;stop-opacity:0.6626"/>
	<stop  offset="0.8863" style="stop-color:#3A396C;stop-opacity:0.8863"/>
	<stop  offset="1" style="stop-color:#2A2960"/>
</linearGradient>
<path class="st4" d="M79.9,23.8c0.3-1.2,0.3-2.4,0.1-3.4c-0.3-1-0.8-1.9-1.6-2.6c-2.1-1.7-5.4-1.2-8,1c-0.4,0.3-0.8,0.7-1.1,1.1
	c0,0,0,0,0,0c-2.9,3.2-5.1,7.8-6.1,13.1c-1.6,8.8,0.6,17,5.2,20.5c0,0,0,0,0,0c0.3,0.3,0.7,0.5,1.1,0.7c0,0,0,0,0,0
	c0.2,0.1,0.4,0.2,0.5,0.3c-1-0.2-2-0.4-2.9-0.8c-1.5-0.4-2.9-0.9-4.2-1.6c-0.3-0.1-0.5-0.3-0.8-0.4c-4.8-3.7-7.4-11.5-6.1-20.1
	c1.7-11,9.4-18.9,17.1-17.7c0.9,0.1,1.7,0.4,2.5,0.7c0.4,0.2,0.7,0.3,1.1,0.6c0,0,0,0,0,0c0.1,0.1,0.2,0.1,0.3,0.2
	c0.7,0.5,1.3,1.1,1.9,1.8c0.7,1,1.2,2.1,1.3,3.2c0.4,2.3-0.3,4.7-1.9,6.5c0.1-0.1,0.1-0.1,0.2-0.2C79.2,26,79.7,24.9,79.9,23.8
	C79.9,23.9,79.9,23.9,79.9,23.8z"/>
<path class="st1" d="M28.7,39.5c-0.8,1.2-3.2,0.2-3.9,1.6c-0.7,1.2,1,2.5,0.1,3.8c-0.6,0.9-1.8,0.8-2,1.5c0,0.6,1.1,0.8,1.3,1.6
	c0.2,1-1.1,1.6-1.7,3.1c-0.9,2.1,0.7,3.3,0,4.9c-0.8,1.7-3.2,2.3-4.3,2.6c-0.4,0.1-0.7,0.2-1.1,0.2c-0.3,0.1-0.6,0.1-0.8,0.1H0.8
	V0.8h14.5C21,3.5,24.5,11,25.2,13.8c2.7,8.3-0.7,8.2-1.1,13.9c0,0.7,0.2,1.1,2.3,5.3C28.7,37.7,29.2,38.7,28.7,39.5z"/>
<path class="st1" d="M122.5,35.9h-2.2V19.8l-13.8,16.1H106v-21h2.1v16.4L122,14.9h0.5V35.9z"/>
<path class="st1" d="M131.7,35.9h-4.5V20.3h4.4c1.7,0,2.9,0.4,3.7,1.2c0.7,0.8,1.1,1.7,1.1,2.7c0,1.6-0.7,2.7-2.1,3.2
	c2,0.7,3,2.1,3,4.1C137.4,34.4,135.5,35.9,131.7,35.9z M129.2,22.1v4.8h1.3c1.2,0,2-0.1,2.3-0.1c0.4-0.1,0.7-0.3,1-0.7
	c0.3-0.4,0.5-0.9,0.5-1.5c0-0.6-0.2-1.2-0.5-1.6c-0.3-0.4-0.7-0.7-1.1-0.8c-0.4-0.1-1.1-0.1-2.3-0.1L129.2,22.1L129.2,22.1z
	 M129.2,28.7v5.4h2.1c1,0,1.7-0.1,2.2-0.2c0.4-0.1,0.8-0.4,1.1-0.8c0.3-0.4,0.5-1,0.5-1.6c0-0.9-0.3-1.5-0.8-2
	c-0.5-0.5-1.2-0.8-2.1-0.8H129.2z"/>
<path class="st1" d="M156.3,20.3v15.5h-2v-2.7c-0.8,1-1.8,1.8-2.8,2.3c-1,0.5-2.2,0.8-3.4,0.8c-2.2,0-4.1-0.8-5.6-2.4
	c-1.6-1.6-2.3-3.5-2.3-5.8c0-2.2,0.8-4.1,2.4-5.7c1.6-1.6,3.5-2.4,5.7-2.4c1.3,0,2.4,0.3,3.5,0.8c1,0.5,1.9,1.4,2.7,2.4v-2.9
	L156.3,20.3L156.3,20.3z M148.4,21.9c-1.1,0-2.1,0.3-3.1,0.8c-0.9,0.5-1.7,1.3-2.2,2.3c-0.6,1-0.8,2-0.8,3.1c0,1.1,0.3,2.1,0.8,3.1
	c0.6,1,1.3,1.8,2.3,2.3c0.9,0.6,2,0.8,3,0.8c1.1,0,2.1-0.3,3.1-0.8c1-0.6,1.7-1.3,2.3-2.2c0.5-0.9,0.8-2,0.8-3.2
	c0-1.8-0.6-3.3-1.8-4.5C151.6,22.5,150.1,21.9,148.4,21.9z"/>
<path class="st1" d="M171.9,28.4h-9v7.5h-2V20.3h2v6.2h9v-6.2h2v15.5h-2V28.4z"/>
<path class="st1" d="M185.6,19.9c2.4,0,4.4,0.9,5.9,2.6c1.4,1.6,2.1,3.5,2.1,5.6c0,2.2-0.8,4.1-2.3,5.7c-1.5,1.6-3.4,2.4-5.8,2.4
	c-2.4,0-4.3-0.8-5.8-2.4c-1.5-1.6-2.3-3.5-2.3-5.7c0-2.2,0.7-4,2.1-5.6C181.3,20.8,183.2,19.9,185.6,19.9z M185.6,21.9
	c-1.7,0-3.1,0.6-4.3,1.8c-1.2,1.2-1.8,2.7-1.8,4.5c0,1.1,0.3,2.2,0.8,3.1c0.5,1,1.3,1.7,2.2,2.3c0.9,0.5,1.9,0.8,3,0.8
	c1.1,0,2.1-0.3,3-0.8c0.9-0.5,1.7-1.3,2.2-2.3c0.5-1,0.8-2,0.8-3.1c0-1.7-0.6-3.2-1.8-4.5C188.7,22.5,187.3,21.9,185.6,21.9z"/>
<path class="st1" d="M201.9,35.9h-4.5V20.3h4.4c1.7,0,2.9,0.4,3.7,1.2c0.7,0.8,1.1,1.7,1.1,2.7c0,1.6-0.7,2.7-2.1,3.2
	c2,0.7,3,2.1,3,4.1C207.6,34.4,205.7,35.9,201.9,35.9z M199.4,22.1v4.8h1.3c1.2,0,2-0.1,2.3-0.1c0.4-0.1,0.7-0.3,1-0.7
	c0.3-0.4,0.5-0.9,0.5-1.5c0-0.6-0.2-1.2-0.5-1.6c-0.3-0.4-0.7-0.7-1.1-0.8c-0.4-0.1-1.1-0.1-2.3-0.1L199.4,22.1L199.4,22.1z
	 M199.4,28.7v5.4h2.1c1,0,1.7-0.1,2.2-0.2c0.4-0.1,0.8-0.4,1.1-0.8c0.3-0.4,0.5-1,0.5-1.6c0-0.9-0.3-1.5-0.8-2
	c-0.5-0.5-1.2-0.8-2.1-0.8H199.4z"/>
<path class="st1" d="M226.5,20.3v15.5h-2v-2.7c-0.8,1-1.8,1.8-2.8,2.3c-1,0.5-2.2,0.8-3.4,0.8c-2.2,0-4.1-0.8-5.6-2.4
	c-1.6-1.6-2.3-3.5-2.3-5.8c0-2.2,0.8-4.1,2.4-5.7c1.6-1.6,3.5-2.4,5.7-2.4c1.3,0,2.4,0.3,3.5,0.8c1,0.5,1.9,1.4,2.7,2.4v-2.9
	L226.5,20.3L226.5,20.3z M218.5,21.9c-1.1,0-2.1,0.3-3.1,0.8c-0.9,0.5-1.7,1.3-2.2,2.3c-0.6,1-0.8,2-0.8,3.1c0,1.1,0.3,2.1,0.8,3.1
	c0.6,1,1.3,1.8,2.3,2.3c0.9,0.6,2,0.8,3,0.8c1.1,0,2.1-0.3,3.1-0.8c1-0.6,1.7-1.3,2.3-2.2c0.5-0.9,0.8-2,0.8-3.2
	c0-1.8-0.6-3.3-1.8-4.5C221.7,22.5,220.3,21.9,218.5,21.9z"/>
<path class="st1" d="M106,38.6h2.1v8.8h10.7v-8.8h2.1v21h-2.1V49.5H108v10.1H106V38.6z"/>
<path class="st1" d="M141,44.1v15.5h-2v-2.7c-0.8,1-1.8,1.8-2.8,2.3c-1,0.5-2.2,0.8-3.4,0.8c-2.2,0-4.1-0.8-5.6-2.4
	c-1.6-1.6-2.3-3.5-2.3-5.8c0-2.2,0.8-4.1,2.4-5.7c1.6-1.6,3.5-2.4,5.7-2.4c1.3,0,2.4,0.3,3.5,0.8c1,0.5,1.9,1.4,2.7,2.4v-2.9
	L141,44.1L141,44.1z M133.1,45.6c-1.1,0-2.1,0.3-3.1,0.8c-0.9,0.5-1.7,1.3-2.2,2.3c-0.6,1-0.8,2-0.8,3.1c0,1.1,0.3,2.1,0.8,3.1
	c0.6,1,1.3,1.8,2.3,2.3c0.9,0.6,2,0.8,3,0.8c1.1,0,2.1-0.3,3.1-0.8c1-0.6,1.7-1.3,2.3-2.2c0.5-0.9,0.8-2,0.8-3.2
	c0-1.8-0.6-3.3-1.8-4.5C136.2,46.2,134.8,45.6,133.1,45.6z"/>
<path class="st1" d="M150,59.6h-4.5V44.1h4.4c1.7,0,2.9,0.4,3.7,1.2c0.7,0.8,1.1,1.7,1.1,2.7c0,1.6-0.7,2.7-2.1,3.2
	c2,0.7,3,2.1,3,4.1C155.7,58.2,153.8,59.6,150,59.6z M147.5,45.8v4.8h1.3c1.2,0,2-0.1,2.3-0.1c0.4-0.1,0.7-0.3,1-0.7
	c0.3-0.4,0.5-0.9,0.5-1.5c0-0.6-0.2-1.2-0.5-1.6c-0.3-0.4-0.7-0.7-1.1-0.8c-0.4-0.1-1.1-0.1-2.3-0.1L147.5,45.8L147.5,45.8z
	 M147.5,52.5v5.4h2.1c1,0,1.7-0.1,2.2-0.2c0.4-0.1,0.8-0.4,1.1-0.8c0.3-0.4,0.5-1,0.5-1.6c0-0.9-0.3-1.5-0.8-2
	c-0.5-0.5-1.2-0.8-2.1-0.8H147.5z"/>
<path class="st1" d="M174.6,44.1v15.5h-2v-2.7c-0.8,1-1.8,1.8-2.8,2.3c-1,0.5-2.2,0.8-3.4,0.8c-2.2,0-4.1-0.8-5.6-2.4
	c-1.6-1.6-2.3-3.5-2.3-5.8c0-2.2,0.8-4.1,2.4-5.7c1.6-1.6,3.5-2.4,5.7-2.4c1.3,0,2.4,0.3,3.5,0.8c1,0.5,1.9,1.4,2.7,2.4v-2.9
	L174.6,44.1L174.6,44.1z M166.7,45.6c-1.1,0-2.1,0.3-3.1,0.8c-0.9,0.5-1.7,1.3-2.2,2.3c-0.6,1-0.8,2-0.8,3.1c0,1.1,0.3,2.1,0.8,3.1
	c0.6,1,1.3,1.8,2.3,2.3c0.9,0.6,2,0.8,3,0.8c1.1,0,2.1-0.3,3.1-0.8c1-0.6,1.7-1.3,2.3-2.2c0.5-0.9,0.8-2,0.8-3.2
	c0-1.8-0.6-3.3-1.8-4.5C169.8,46.2,168.4,45.6,166.7,45.6z"/>
<path class="st1" d="M181.1,44.1v11.5l11.4-11.5h0.2v15.5h-2V48.2l-11.3,11.4h-0.2V44.1H181.1z M180.8,37.8h1.9
	c0.3,0.5,0.8,0.9,1.3,1.1c0.5,0.2,1.2,0.4,1.9,0.4s1.4-0.1,1.8-0.3c0.5-0.2,0.9-0.6,1.3-1.2h1.8c-0.2,0.9-0.7,1.6-1.6,2.2
	c-0.9,0.6-2,0.9-3.4,0.9c-1.4,0-2.5-0.3-3.4-0.9C181.6,39.4,181.1,38.7,180.8,37.8z"/>
<g class="st5">
	<path class="st6" d="M106.1,12V0.2h6.2v2.2h-3.9v2.3h0.5c1,0,1.8,0.1,2.4,0.3c0.6,0.2,1.2,0.6,1.6,1.2c0.4,0.6,0.6,1.3,0.6,2.2
		c0,0.8-0.2,1.5-0.5,2c-0.3,0.5-0.8,0.9-1.3,1.2c-0.6,0.3-1.3,0.5-2.3,0.5H106.1z M108.3,6.6v3.2h0.6c1,0,1.7-0.1,2-0.4
		s0.4-0.6,0.4-1.1c0-1.1-0.8-1.7-2.5-1.7H108.3z"/>
	<path class="st6" d="M117.4,12h-2.2V3.2h2.2v3.5h1.2c0.3-1.2,0.8-2.1,1.7-2.7c0.9-0.7,1.8-1,2.8-1c1.3,0,2.4,0.4,3.3,1.3
		c0.9,0.9,1.4,2,1.4,3.3c0,1.3-0.4,2.3-1.3,3.2c-0.9,0.9-2,1.4-3.3,1.4c-1.1,0-2-0.3-2.8-1c-0.8-0.7-1.4-1.5-1.6-2.5h-1.2V12z
		 M125.4,7.6c0-0.7-0.2-1.4-0.7-1.8c-0.4-0.5-1-0.7-1.7-0.7c-0.7,0-1.3,0.2-1.7,0.7c-0.4,0.5-0.7,1.1-0.7,1.8c0,0.8,0.2,1.4,0.7,1.9
		s1,0.7,1.7,0.7c0.7,0,1.2-0.2,1.7-0.7S125.4,8.4,125.4,7.6z"/>
	<path class="st6" d="M131.6,3.2v1c0.4-0.4,0.8-0.7,1.3-0.9s1-0.3,1.5-0.3c1.1,0,2.1,0.4,2.9,1.3c0.8,0.9,1.2,2,1.2,3.3
		c0,1.3-0.4,2.4-1.2,3.3c-0.8,0.9-1.8,1.3-2.9,1.3c-0.5,0-1-0.1-1.4-0.3s-0.9-0.5-1.3-0.9v4.1h-2.2V3.2H131.6z M133.9,5
		c-0.7,0-1.3,0.2-1.7,0.7c-0.5,0.5-0.7,1.1-0.7,1.8c0,0.8,0.2,1.4,0.7,1.9s1,0.7,1.7,0.7c0.7,0,1.2-0.2,1.7-0.7
		c0.5-0.5,0.7-1.1,0.7-1.9c0-0.7-0.2-1.4-0.7-1.8C135.1,5.3,134.6,5,133.9,5z"/>
	<path class="st6" d="M144.4,3c0.8,0,1.6,0.2,2.3,0.6c0.7,0.4,1.3,1,1.7,1.7c0.4,0.7,0.6,1.5,0.6,2.3c0,0.8-0.2,1.6-0.6,2.3
		c-0.4,0.7-1,1.3-1.7,1.7c-0.7,0.4-1.5,0.6-2.3,0.6c-1.3,0-2.3-0.4-3.2-1.3s-1.3-2-1.3-3.2c0-1.4,0.5-2.5,1.5-3.4
		C142.2,3.4,143.2,3,144.4,3z M144.4,5.1c-0.7,0-1.2,0.2-1.7,0.7S142,6.9,142,7.6c0,0.8,0.2,1.4,0.7,1.8c0.4,0.5,1,0.7,1.7,0.7
		c0.7,0,1.3-0.2,1.7-0.7c0.5-0.5,0.7-1.1,0.7-1.8s-0.2-1.4-0.7-1.8C145.7,5.3,145.1,5.1,144.4,5.1z"/>
</g>
</svg>
