<svg xmlns="http://www.w3.org/2000/svg" viewBox="0 0 603.35 155.77"><defs><style>.a{fill:#fff;}.b{fill:#962c2c;}.b,.c,.d,.e{fill-rule:evenodd;}.c{fill:#5e4b4b;}.d{fill:#4a76a8;}</style></defs><path class="a" d="M274.55,77.5c-.1.2-.1.5-.2.7h0a33.22,33.22,0,0,1-1.8,5.3,9.74,9.74,0,0,1-2.7,1.8c-3.4,1.6-6.2-2.5-3.8-4.2,1.4-.9,5.7-1.9,4.1-4.2-2.4-3.3-4.5-4.8-2.2-6.2,1.5-.9,2.7-.8,3.1.6.5,1.7,1.8,2.9,2,4.9A1.37,1.37,0,0,0,274.55,77.5Z"/><path class="b" d="M318.12,90.47h0s0,0,0,0S318.12,90.48,318.12,90.47Zm3.56-5.14-.1,0h.13ZM420,130.56h.22l.1-.11C420.11,130.45,420.11,130.56,420,130.56ZM406.22,87.12a11.75,11.75,0,0,0-5.66-10.54,27.86,27.86,0,0,0-6.3-2.82c-2.39-.65-5.11-1.52-8-2.06-2.28-.66-4-1.1-5-1.31a23.63,23.63,0,0,1-2.93-1.09,7,7,0,0,1-2.17-1.63,3.26,3.26,0,0,1-.66-2.06c0-1.31.76-2.4,2.28-3.38a12,12,0,0,1,6.3-1.51c2.83,0,4.9.43,6.09,1.4a12.32,12.32,0,0,1,3.26,4A11.58,11.58,0,0,0,395.56,69a4.74,4.74,0,0,0,3.05.87,5.32,5.32,0,0,0,3.8-1.64,4.09,4.09,0,0,0,1.52-3.36,8.27,8.27,0,0,0-1.09-4.13,11.2,11.2,0,0,0-3.47-3.92,18.88,18.88,0,0,0-6.09-2.94,28,28,0,0,0-8.47-1.08,31.72,31.72,0,0,0-10.76,1.63A14.63,14.63,0,0,0,367,59.19a11.2,11.2,0,0,0-2.5,7.28,10.7,10.7,0,0,0,2.4,7.17,15.89,15.89,0,0,0,6.3,4.58A50.8,50.8,0,0,0,382.74,81c2.83.65,5,1.2,6.75,1.63a11.3,11.3,0,0,1,3.9,2.17,4.21,4.21,0,0,1,1.42,3.37c0,1.74-.87,3.16-2.72,4.46a12.56,12.56,0,0,1-7.28,2,14.16,14.16,0,0,1-5.22-.87,9,9,0,0,1-3-2.39,22.62,22.62,0,0,1-2.07-3.7,8.4,8.4,0,0,0-2.17-3,4.42,4.42,0,0,0-3.15-1.09A5.65,5.65,0,0,0,365.35,85a4.11,4.11,0,0,0-1.52,3.38,10.61,10.61,0,0,0,2.28,6.52,18.86,18.86,0,0,0,6.09,5.21c3.37,1.85,7.71,2.72,12.93,2.72a32.57,32.57,0,0,0,11.41-2,15.93,15.93,0,0,0,7.39-5.45A11.91,11.91,0,0,0,406.22,87.12Zm0,0a11.75,11.75,0,0,0-5.66-10.54,27.86,27.86,0,0,0-6.3-2.82c-2.39-.65-5.11-1.52-8-2.06-2.28-.66-4-1.1-5-1.31a23.63,23.63,0,0,1-2.93-1.09,7,7,0,0,1-2.17-1.63,3.26,3.26,0,0,1-.66-2.06c0-1.31.76-2.4,2.28-3.38a12,12,0,0,1,6.3-1.51c2.83,0,4.9.43,6.09,1.4a12.32,12.32,0,0,1,3.26,4A11.58,11.58,0,0,0,395.56,69a4.74,4.74,0,0,0,3.05.87,5.32,5.32,0,0,0,3.8-1.64,4.09,4.09,0,0,0,1.52-3.36,8.27,8.27,0,0,0-1.09-4.13,11.2,11.2,0,0,0-3.47-3.92,18.88,18.88,0,0,0-6.09-2.94,28,28,0,0,0-8.47-1.08,31.72,31.72,0,0,0-10.76,1.63A14.63,14.63,0,0,0,367,59.19a11.2,11.2,0,0,0-2.5,7.28,10.7,10.7,0,0,0,2.4,7.17,15.89,15.89,0,0,0,6.3,4.58A50.8,50.8,0,0,0,382.74,81c2.83.65,5,1.2,6.75,1.63a11.3,11.3,0,0,1,3.9,2.17,4.21,4.21,0,0,1,1.42,3.37c0,1.74-.87,3.16-2.72,4.46a12.56,12.56,0,0,1-7.28,2,14.16,14.16,0,0,1-5.22-.87,9,9,0,0,1-3-2.39,22.62,22.62,0,0,1-2.07-3.7,8.4,8.4,0,0,0-2.17-3,4.42,4.42,0,0,0-3.15-1.09A5.65,5.65,0,0,0,365.35,85a4.11,4.11,0,0,0-1.52,3.38,10.61,10.61,0,0,0,2.28,6.52,18.86,18.86,0,0,0,6.09,5.21c3.37,1.85,7.71,2.72,12.93,2.72a32.57,32.57,0,0,0,11.41-2,15.93,15.93,0,0,0,7.39-5.45A11.91,11.91,0,0,0,406.22,87.12Zm0,0a11.75,11.75,0,0,0-5.66-10.54,27.86,27.86,0,0,0-6.3-2.82c-2.39-.65-5.11-1.52-8-2.06-2.28-.66-4-1.1-5-1.31a23.63,23.63,0,0,1-2.93-1.09,7,7,0,0,1-2.17-1.63,3.26,3.26,0,0,1-.66-2.06c0-1.31.76-2.4,2.28-3.38a12,12,0,0,1,6.3-1.51c2.83,0,4.9.43,6.09,1.4a12.32,12.32,0,0,1,3.26,4A11.58,11.58,0,0,0,395.56,69a4.74,4.74,0,0,0,3.05.87,5.32,5.32,0,0,0,3.8-1.64,4.09,4.09,0,0,0,1.52-3.36,8.27,8.27,0,0,0-1.09-4.13,11.2,11.2,0,0,0-3.47-3.92,18.88,18.88,0,0,0-6.09-2.94,28,28,0,0,0-8.47-1.08,31.72,31.72,0,0,0-10.76,1.63A14.63,14.63,0,0,0,367,59.19a11.2,11.2,0,0,0-2.5,7.28,10.7,10.7,0,0,0,2.4,7.17,15.89,15.89,0,0,0,6.3,4.58A50.8,50.8,0,0,0,382.74,81c2.83.65,5,1.2,6.75,1.63a11.3,11.3,0,0,1,3.9,2.17,4.21,4.21,0,0,1,1.42,3.37c0,1.74-.87,3.16-2.72,4.46a12.56,12.56,0,0,1-7.28,2,14.16,14.16,0,0,1-5.22-.87,9,9,0,0,1-3-2.39,22.62,22.62,0,0,1-2.07-3.7,8.4,8.4,0,0,0-2.17-3,4.42,4.42,0,0,0-3.15-1.09A5.65,5.65,0,0,0,365.35,85a4.11,4.11,0,0,0-1.52,3.38,10.61,10.61,0,0,0,2.28,6.52,18.86,18.86,0,0,0,6.09,5.21c3.37,1.85,7.71,2.72,12.93,2.72a32.57,32.57,0,0,0,11.41-2,15.93,15.93,0,0,0,7.39-5.45A11.91,11.91,0,0,0,406.22,87.12Zm0,0a11.75,11.75,0,0,0-5.66-10.54,27.86,27.86,0,0,0-6.3-2.82c-2.39-.65-5.11-1.52-8-2.06-2.28-.66-4-1.1-5-1.31a23.63,23.63,0,0,1-2.93-1.09,7,7,0,0,1-2.17-1.63,3.26,3.26,0,0,1-.66-2.06c0-1.31.76-2.4,2.28-3.38a12,12,0,0,1,6.3-1.51c2.83,0,4.9.43,6.09,1.4a12.32,12.32,0,0,1,3.26,4A11.58,11.58,0,0,0,395.56,69a4.74,4.74,0,0,0,3.05.87,5.32,5.32,0,0,0,3.8-1.64,4.09,4.09,0,0,0,1.52-3.36,8.27,8.27,0,0,0-1.09-4.13,11.2,11.2,0,0,0-3.47-3.92,18.88,18.88,0,0,0-6.09-2.94,28,28,0,0,0-8.47-1.08,31.72,31.72,0,0,0-10.76,1.63A14.63,14.63,0,0,0,367,59.19a11.2,11.2,0,0,0-2.5,7.28,10.7,10.7,0,0,0,2.4,7.17,15.89,15.89,0,0,0,6.3,4.58A50.8,50.8,0,0,0,382.74,81c2.83.65,5,1.2,6.75,1.63a11.3,11.3,0,0,1,3.9,2.17,4.21,4.21,0,0,1,1.42,3.37c0,1.74-.87,3.16-2.72,4.46a12.56,12.56,0,0,1-7.28,2,14.16,14.16,0,0,1-5.22-.87,9,9,0,0,1-3-2.39,22.62,22.62,0,0,1-2.07-3.7,8.4,8.4,0,0,0-2.17-3,4.42,4.42,0,0,0-3.15-1.09A5.65,5.65,0,0,0,365.35,85a4.11,4.11,0,0,0-1.52,3.38,10.61,10.61,0,0,0,2.28,6.52,18.86,18.86,0,0,0,6.09,5.21c3.37,1.85,7.71,2.72,12.93,2.72a32.57,32.57,0,0,0,11.41-2,15.93,15.93,0,0,0,7.39-5.45A11.91,11.91,0,0,0,406.22,87.12Zm0,0a11.75,11.75,0,0,0-5.66-10.54,27.86,27.86,0,0,0-6.3-2.82c-2.39-.65-5.11-1.52-8-2.06-2.28-.66-4-1.1-5-1.31a23.63,23.63,0,0,1-2.93-1.09,7,7,0,0,1-2.17-1.63,3.26,3.26,0,0,1-.66-2.06c0-1.31.76-2.4,2.28-3.38a12,12,0,0,1,6.3-1.51c2.83,0,4.9.43,6.09,1.4a12.32,12.32,0,0,1,3.26,4A11.58,11.58,0,0,0,395.56,69a4.74,4.74,0,0,0,3.05.87,5.32,5.32,0,0,0,3.8-1.64,4.09,4.09,0,0,0,1.52-3.36,8.27,8.27,0,0,0-1.09-4.13,11.2,11.2,0,0,0-3.47-3.92,18.88,18.88,0,0,0-6.09-2.94,28,28,0,0,0-8.47-1.08,31.72,31.72,0,0,0-10.76,1.63A14.63,14.63,0,0,0,367,59.19a11.2,11.2,0,0,0-2.5,7.28,10.7,10.7,0,0,0,2.4,7.17,15.89,15.89,0,0,0,6.3,4.58A50.8,50.8,0,0,0,382.74,81c2.83.65,5,1.2,6.75,1.63a11.3,11.3,0,0,1,3.9,2.17,4.21,4.21,0,0,1,1.42,3.37c0,1.74-.87,3.16-2.72,4.46a12.56,12.56,0,0,1-7.28,2,14.16,14.16,0,0,1-5.22-.87,9,9,0,0,1-3-2.39,22.62,22.62,0,0,1-2.07-3.7,8.4,8.4,0,0,0-2.17-3,4.42,4.42,0,0,0-3.15-1.09A5.65,5.65,0,0,0,365.35,85a4.11,4.11,0,0,0-1.52,3.38,10.61,10.61,0,0,0,2.28,6.52,18.86,18.86,0,0,0,6.09,5.21c3.37,1.85,7.71,2.72,12.93,2.72a32.57,32.57,0,0,0,11.41-2,15.93,15.93,0,0,0,7.39-5.45A11.91,11.91,0,0,0,406.22,87.12Zm0,0a11.75,11.75,0,0,0-5.66-10.54,27.86,27.86,0,0,0-6.3-2.82c-2.39-.65-5.11-1.52-8-2.06-2.28-.66-4-1.1-5-1.31a23.63,23.63,0,0,1-2.93-1.09,7,7,0,0,1-2.17-1.63,3.26,3.26,0,0,1-.66-2.06c0-1.31.76-2.4,2.28-3.38a12,12,0,0,1,6.3-1.51c2.83,0,4.9.43,6.09,1.4a12.32,12.32,0,0,1,3.26,4A11.58,11.58,0,0,0,395.56,69a4.74,4.74,0,0,0,3.05.87,5.32,5.32,0,0,0,3.8-1.64,4.09,4.09,0,0,0,1.52-3.36,8.27,8.27,0,0,0-1.09-4.13,11.2,11.2,0,0,0-3.47-3.92,18.88,18.88,0,0,0-6.09-2.94,28,28,0,0,0-8.47-1.08,31.72,31.72,0,0,0-10.76,1.63A14.63,14.63,0,0,0,367,59.19a11.2,11.2,0,0,0-2.5,7.28,10.7,10.7,0,0,0,2.4,7.17,15.89,15.89,0,0,0,6.3,4.58A50.8,50.8,0,0,0,382.74,81c2.83.65,5,1.2,6.75,1.63a11.3,11.3,0,0,1,3.9,2.17,4.21,4.21,0,0,1,1.42,3.37c0,1.74-.87,3.16-2.72,4.46a12.56,12.56,0,0,1-7.28,2,14.16,14.16,0,0,1-5.22-.87,9,9,0,0,1-3-2.39,22.62,22.62,0,0,1-2.07-3.7,8.4,8.4,0,0,0-2.17-3,4.42,4.42,0,0,0-3.15-1.09A5.65,5.65,0,0,0,365.35,85a4.11,4.11,0,0,0-1.52,3.38,10.61,10.61,0,0,0,2.28,6.52,18.86,18.86,0,0,0,6.09,5.21c3.37,1.85,7.71,2.72,12.93,2.72a32.57,32.57,0,0,0,11.41-2,15.93,15.93,0,0,0,7.39-5.45A11.91,11.91,0,0,0,406.22,87.12Zm0,0a11.75,11.75,0,0,0-5.66-10.54,27.86,27.86,0,0,0-6.3-2.82c-2.39-.65-5.11-1.52-8-2.06-2.28-.66-4-1.1-5-1.31a23.63,23.63,0,0,1-2.93-1.09,7,7,0,0,1-2.17-1.63,3.26,3.26,0,0,1-.66-2.06c0-1.31.76-2.4,2.28-3.38a12,12,0,0,1,6.3-1.51c2.83,0,4.9.43,6.09,1.4a12.32,12.32,0,0,1,3.26,4A11.58,11.58,0,0,0,395.56,69a4.74,4.74,0,0,0,3.05.87,5.32,5.32,0,0,0,3.8-1.64,4.09,4.09,0,0,0,1.52-3.36,8.27,8.27,0,0,0-1.09-4.13,11.2,11.2,0,0,0-3.47-3.92,18.88,18.88,0,0,0-6.09-2.94,28,28,0,0,0-8.47-1.08,31.72,31.72,0,0,0-10.76,1.63A14.63,14.63,0,0,0,367,59.19a11.2,11.2,0,0,0-2.5,7.28,10.7,10.7,0,0,0,2.4,7.17,15.89,15.89,0,0,0,6.3,4.58A50.8,50.8,0,0,0,382.74,81c2.83.65,5,1.2,6.75,1.63a11.3,11.3,0,0,1,3.9,2.17,4.21,4.21,0,0,1,1.42,3.37c0,1.74-.87,3.16-2.72,4.46a12.56,12.56,0,0,1-7.28,2,14.16,14.16,0,0,1-5.22-.87,9,9,0,0,1-3-2.39,22.62,22.62,0,0,1-2.07-3.7,8.4,8.4,0,0,0-2.17-3,4.42,4.42,0,0,0-3.15-1.09A5.65,5.65,0,0,0,365.35,85a4.11,4.11,0,0,0-1.52,3.38,10.61,10.61,0,0,0,2.28,6.52,18.86,18.86,0,0,0,6.09,5.21c3.37,1.85,7.71,2.72,12.93,2.72a32.57,32.57,0,0,0,11.41-2,15.93,15.93,0,0,0,7.39-5.45A11.91,11.91,0,0,0,406.22,87.12Zm0,0a11.75,11.75,0,0,0-5.66-10.54,27.86,27.86,0,0,0-6.3-2.82c-2.39-.65-5.11-1.52-8-2.06-2.28-.66-4-1.1-5-1.31a23.63,23.63,0,0,1-2.93-1.09,7,7,0,0,1-2.17-1.63,3.26,3.26,0,0,1-.66-2.06c0-1.31.76-2.4,2.28-3.38a12,12,0,0,1,6.3-1.51c2.83,0,4.9.43,6.09,1.4a12.32,12.32,0,0,1,3.26,4A11.58,11.58,0,0,0,395.56,69a4.74,4.74,0,0,0,3.05.87,5.32,5.32,0,0,0,3.8-1.64,4.09,4.09,0,0,0,1.52-3.36,8.27,8.27,0,0,0-1.09-4.13,11.2,11.2,0,0,0-3.47-3.92,18.88,18.88,0,0,0-6.09-2.94,28,28,0,0,0-8.47-1.08,31.72,31.72,0,0,0-10.76,1.63A14.63,14.63,0,0,0,367,59.19a11.2,11.2,0,0,0-2.5,7.28,10.7,10.7,0,0,0,2.4,7.17,15.89,15.89,0,0,0,6.3,4.58A50.8,50.8,0,0,0,382.74,81c2.83.65,5,1.2,6.75,1.63a11.3,11.3,0,0,1,3.9,2.17,4.21,4.21,0,0,1,1.42,3.37c0,1.74-.87,3.16-2.72,4.46a12.56,12.56,0,0,1-7.28,2,14.16,14.16,0,0,1-5.22-.87,9,9,0,0,1-3-2.39,22.62,22.62,0,0,1-2.07-3.7,8.4,8.4,0,0,0-2.17-3,4.42,4.42,0,0,0-3.15-1.09A5.65,5.65,0,0,0,365.35,85a4.11,4.11,0,0,0-1.52,3.38,10.61,10.61,0,0,0,2.28,6.52,18.86,18.86,0,0,0,6.09,5.21c3.37,1.85,7.71,2.72,12.93,2.72a32.57,32.57,0,0,0,11.41-2,15.93,15.93,0,0,0,7.39-5.45A11.91,11.91,0,0,0,406.22,87.12Zm0,0a11.75,11.75,0,0,0-5.66-10.54,27.86,27.86,0,0,0-6.3-2.82c-2.39-.65-5.11-1.52-8-2.06-2.28-.66-4-1.1-5-1.31a23.63,23.63,0,0,1-2.93-1.09,7,7,0,0,1-2.17-1.63,3.26,3.26,0,0,1-.66-2.06c0-1.31.76-2.4,2.28-3.38a12,12,0,0,1,6.3-1.51c2.83,0,4.9.43,6.09,1.4a12.32,12.32,0,0,1,3.26,4A11.58,11.58,0,0,0,395.56,69a4.74,4.74,0,0,0,3.05.87,5.32,5.32,0,0,0,3.8-1.64,4.09,4.09,0,0,0,1.52-3.36,8.27,8.27,0,0,0-1.09-4.13,11.2,11.2,0,0,0-3.47-3.92,18.88,18.88,0,0,0-6.09-2.94,28,28,0,0,0-8.47-1.08,31.72,31.72,0,0,0-10.76,1.63A14.63,14.63,0,0,0,367,59.19a11.2,11.2,0,0,0-2.5,7.28,10.7,10.7,0,0,0,2.4,7.17,15.89,15.89,0,0,0,6.3,4.58A50.8,50.8,0,0,0,382.74,81c2.83.65,5,1.2,6.75,1.63a11.3,11.3,0,0,1,3.9,2.17,4.21,4.21,0,0,1,1.42,3.37c0,1.74-.87,3.16-2.72,4.46a12.56,12.56,0,0,1-7.28,2,14.16,14.16,0,0,1-5.22-.87,9,9,0,0,1-3-2.39,22.62,22.62,0,0,1-2.07-3.7,8.4,8.4,0,0,0-2.17-3,4.42,4.42,0,0,0-3.15-1.09A5.65,5.65,0,0,0,365.35,85a4.11,4.11,0,0,0-1.52,3.38,10.61,10.61,0,0,0,2.28,6.52,18.86,18.86,0,0,0,6.09,5.21c3.37,1.85,7.71,2.72,12.93,2.72a32.57,32.57,0,0,0,11.41-2,15.93,15.93,0,0,0,7.39-5.45A11.91,11.91,0,0,0,406.22,87.12Zm0,0a11.75,11.75,0,0,0-5.66-10.54,27.86,27.86,0,0,0-6.3-2.82c-2.39-.65-5.11-1.52-8-2.06-2.28-.66-4-1.1-5-1.31a23.63,23.63,0,0,1-2.93-1.09,7,7,0,0,1-2.17-1.63,3.26,3.26,0,0,1-.66-2.06c0-1.31.76-2.4,2.28-3.38a12,12,0,0,1,6.3-1.51c2.83,0,4.9.43,6.09,1.4a12.32,12.32,0,0,1,3.26,4A11.58,11.58,0,0,0,395.56,69a4.74,4.74,0,0,0,3.05.87,5.32,5.32,0,0,0,3.8-1.64,4.09,4.09,0,0,0,1.52-3.36,8.27,8.27,0,0,0-1.09-4.13,11.2,11.2,0,0,0-3.47-3.92,18.88,18.88,0,0,0-6.09-2.94,28,28,0,0,0-8.47-1.08,31.72,31.72,0,0,0-10.76,1.63A14.63,14.63,0,0,0,367,59.19a11.2,11.2,0,0,0-2.5,7.28,10.7,10.7,0,0,0,2.4,7.17,15.89,15.89,0,0,0,6.3,4.58A50.8,50.8,0,0,0,382.74,81c2.83.65,5,1.2,6.75,1.63a11.3,11.3,0,0,1,3.9,2.17,4.21,4.21,0,0,1,1.42,3.37c0,1.74-.87,3.16-2.72,4.46a12.56,12.56,0,0,1-7.28,2,14.16,14.16,0,0,1-5.22-.87,9,9,0,0,1-3-2.39,22.62,22.62,0,0,1-2.07-3.7,8.4,8.4,0,0,0-2.17-3,4.42,4.42,0,0,0-3.15-1.09A5.65,5.65,0,0,0,365.35,85a4.11,4.11,0,0,0-1.52,3.38,10.61,10.61,0,0,0,2.28,6.52,18.86,18.86,0,0,0,6.09,5.21c3.37,1.85,7.71,2.72,12.93,2.72a32.57,32.57,0,0,0,11.41-2,15.93,15.93,0,0,0,7.39-5.45A11.91,11.91,0,0,0,406.22,87.12Zm0,0a11.75,11.75,0,0,0-5.66-10.54,27.86,27.86,0,0,0-6.3-2.82c-2.39-.65-5.11-1.52-8-2.06-2.28-.66-4-1.1-5-1.31a23.63,23.63,0,0,1-2.93-1.09,7,7,0,0,1-2.17-1.63,3.26,3.26,0,0,1-.66-2.06c0-1.31.76-2.4,2.28-3.38a12,12,0,0,1,6.3-1.51c2.83,0,4.9.43,6.09,1.4a12.32,12.32,0,0,1,3.26,4A11.58,11.58,0,0,0,395.56,69a4.74,4.74,0,0,0,3.05.87,5.32,5.32,0,0,0,3.8-1.64,4.09,4.09,0,0,0,1.52-3.36,8.27,8.27,0,0,0-1.09-4.13,11.2,11.2,0,0,0-3.47-3.92,18.88,18.88,0,0,0-6.09-2.94,28,28,0,0,0-8.47-1.08,31.72,31.72,0,0,0-10.76,1.63A14.63,14.63,0,0,0,367,59.19a11.2,11.2,0,0,0-2.5,7.28,10.7,10.7,0,0,0,2.4,7.17,15.89,15.89,0,0,0,6.3,4.58A50.8,50.8,0,0,0,382.74,81c2.83.65,5,1.2,6.75,1.63a11.3,11.3,0,0,1,3.9,2.17,4.21,4.21,0,0,1,1.42,3.37c0,1.74-.87,3.16-2.72,4.46a12.56,12.56,0,0,1-7.28,2,14.16,14.16,0,0,1-5.22-.87,9,9,0,0,1-3-2.39,22.62,22.62,0,0,1-2.07-3.7,8.4,8.4,0,0,0-2.17-3,4.42,4.42,0,0,0-3.15-1.09A5.65,5.65,0,0,0,365.35,85a4.11,4.11,0,0,0-1.52,3.38,10.61,10.61,0,0,0,2.28,6.52,18.86,18.86,0,0,0,6.09,5.21c3.37,1.85,7.71,2.72,12.93,2.72a32.57,32.57,0,0,0,11.41-2,15.93,15.93,0,0,0,7.39-5.45A11.91,11.91,0,0,0,406.22,87.12Zm0,0a11.75,11.75,0,0,0-5.66-10.54,27.86,27.86,0,0,0-6.3-2.82c-2.39-.65-5.11-1.52-8-2.06-2.28-.66-4-1.1-5-1.31a23.63,23.63,0,0,1-2.93-1.09,7,7,0,0,1-2.17-1.63,3.26,3.26,0,0,1-.66-2.06c0-1.31.76-2.4,2.28-3.38a12,12,0,0,1,6.3-1.51c2.83,0,4.9.43,6.09,1.4a12.32,12.32,0,0,1,3.26,4A11.58,11.58,0,0,0,395.56,69a4.74,4.74,0,0,0,3.05.87,5.32,5.32,0,0,0,3.8-1.64,4.09,4.09,0,0,0,1.52-3.36,8.27,8.27,0,0,0-1.09-4.13,11.2,11.2,0,0,0-3.47-3.92,18.88,18.88,0,0,0-6.09-2.94,28,28,0,0,0-8.47-1.08,31.72,31.72,0,0,0-10.76,1.63A14.63,14.63,0,0,0,367,59.19a11.2,11.2,0,0,0-2.5,7.28,10.7,10.7,0,0,0,2.4,7.17,15.89,15.89,0,0,0,6.3,4.58A50.8,50.8,0,0,0,382.74,81c2.83.65,5,1.2,6.75,1.63a11.3,11.3,0,0,1,3.9,2.17,4.21,4.21,0,0,1,1.42,3.37c0,1.74-.87,3.16-2.72,4.46a12.56,12.56,0,0,1-7.28,2,14.16,14.16,0,0,1-5.22-.87,9,9,0,0,1-3-2.39,22.62,22.62,0,0,1-2.07-3.7,8.4,8.4,0,0,0-2.17-3,4.42,4.42,0,0,0-3.15-1.09A5.65,5.65,0,0,0,365.35,85a4.11,4.11,0,0,0-1.52,3.38,10.61,10.61,0,0,0,2.28,6.52,18.86,18.86,0,0,0,6.09,5.21c3.37,1.85,7.71,2.72,12.93,2.72a32.57,32.57,0,0,0,11.41-2,15.93,15.93,0,0,0,7.39-5.45A11.91,11.91,0,0,0,406.22,87.12Zm0,0a11.75,11.75,0,0,0-5.66-10.54,27.86,27.86,0,0,0-6.3-2.82c-2.39-.65-5.11-1.52-8-2.06-2.28-.66-4-1.1-5-1.31a23.63,23.63,0,0,1-2.93-1.09,7,7,0,0,1-2.17-1.63,3.26,3.26,0,0,1-.66-2.06c0-1.31.76-2.4,2.28-3.38a12,12,0,0,1,6.3-1.51c2.83,0,4.9.43,6.09,1.4a12.32,12.32,0,0,1,3.26,4A11.58,11.58,0,0,0,395.56,69a4.74,4.74,0,0,0,3.05.87,5.32,5.32,0,0,0,3.8-1.64,4.09,4.09,0,0,0,1.52-3.36,8.27,8.27,0,0,0-1.09-4.13,11.2,11.2,0,0,0-3.47-3.92,18.88,18.88,0,0,0-6.09-2.94,28,28,0,0,0-8.47-1.08,31.72,31.72,0,0,0-10.76,1.63A14.63,14.63,0,0,0,367,59.19a11.2,11.2,0,0,0-2.5,7.28,10.7,10.7,0,0,0,2.4,7.17,15.89,15.89,0,0,0,6.3,4.58A50.8,50.8,0,0,0,382.74,81c2.83.65,5,1.2,6.75,1.63a11.3,11.3,0,0,1,3.9,2.17,4.21,4.21,0,0,1,1.42,3.37c0,1.74-.87,3.16-2.72,4.46a12.56,12.56,0,0,1-7.28,2,14.16,14.16,0,0,1-5.22-.87,9,9,0,0,1-3-2.39,22.62,22.62,0,0,1-2.07-3.7,8.4,8.4,0,0,0-2.17-3,4.42,4.42,0,0,0-3.15-1.09A5.65,5.65,0,0,0,365.35,85a4.11,4.11,0,0,0-1.52,3.38,10.61,10.61,0,0,0,2.28,6.52,18.86,18.86,0,0,0,6.09,5.21c3.37,1.85,7.71,2.72,12.93,2.72a32.57,32.57,0,0,0,11.41-2,15.93,15.93,0,0,0,7.39-5.45A11.91,11.91,0,0,0,406.22,87.12Zm0,0a11.75,11.75,0,0,0-5.66-10.54,27.86,27.86,0,0,0-6.3-2.82c-2.39-.65-5.11-1.52-8-2.06-2.28-.66-4-1.1-5-1.31a23.63,23.63,0,0,1-2.93-1.09,7,7,0,0,1-2.17-1.63,3.26,3.26,0,0,1-.66-2.06c0-1.31.76-2.4,2.28-3.38a12,12,0,0,1,6.3-1.51c2.83,0,4.9.43,6.09,1.4a12.32,12.32,0,0,1,3.26,4A11.58,11.58,0,0,0,395.56,69a4.74,4.74,0,0,0,3.05.87,5.32,5.32,0,0,0,3.8-1.64,4.09,4.09,0,0,0,1.52-3.36,8.27,8.27,0,0,0-1.09-4.13,11.2,11.2,0,0,0-3.47-3.92,18.88,18.88,0,0,0-6.09-2.94,28,28,0,0,0-8.47-1.08,31.72,31.72,0,0,0-10.76,1.63A14.63,14.63,0,0,0,367,59.19a11.2,11.2,0,0,0-2.5,7.28,10.7,10.7,0,0,0,2.4,7.17,15.89,15.89,0,0,0,6.3,4.58A50.8,50.8,0,0,0,382.74,81c2.83.65,5,1.2,6.75,1.63a11.3,11.3,0,0,1,3.9,2.17,4.21,4.21,0,0,1,1.42,3.37c0,1.74-.87,3.16-2.72,4.46a12.56,12.56,0,0,1-7.28,2,14.16,14.16,0,0,1-5.22-.87,9,9,0,0,1-3-2.39,22.62,22.62,0,0,1-2.07-3.7,8.4,8.4,0,0,0-2.17-3,4.42,4.42,0,0,0-3.15-1.09A5.65,5.65,0,0,0,365.35,85a4.11,4.11,0,0,0-1.52,3.38,10.61,10.61,0,0,0,2.28,6.52,18.86,18.86,0,0,0,6.09,5.21c3.37,1.85,7.71,2.72,12.93,2.72a32.57,32.57,0,0,0,11.41-2,15.93,15.93,0,0,0,7.39-5.45A11.91,11.91,0,0,0,406.22,87.12ZM442.7,75.7c2.58-5.38,2.69-5.27,2.79-6.45,0-.44-1.07-1.62-2.15.64-2.79,6.24-3.22,1.83-5.27,4.2-1.72,1.93-1.93,1.5-1.5,2.58,1.39,3.12-5.49,4.94-5.06,2.47,1.29-5.7,5.06-8.39,3.66-9.89s-.76-1.73.43-4.31c2.15-4.3,2.9-5.59,1.93-5.59-.21,0-.43,0-.43.11-.75,1.83-2.15,3.33-3.12,5.05-1.07,1.94-5.37,3.77-2.25-3.76.21-.43-.22-1.08-.76-1.29a11.47,11.47,0,0,1-2-.76c-1.08-.75-3.23-.1-3.12-1.61.21-2.58-1.51-2.8-3.76-5.06-.22-.21-1.73-1.29-.76-1.61,1.29-.54,2.91,1.51,2.91-.54,0-.86.43-1.72.43-2.69,0-.43-.65-1.07-1.08-.86-1.4.43-2,1.29-2.8-.21-.43-.86.65-1.08,1.08-1.4,2-.86.43-2.26,2.26-2.69,1.5-.43,3.12.11,3-2.26-.05-.11-.21-.34-.54-.86s-.8-1.29-1.5-2.47c.86-.11,2.15-1.08,1.4-2-3.12-3.76-2.37-1.5-5.49-2.9-1.29-.54-.65-2.58-.22-3.33,1.3-2.26,2.26-2.37,1.62-3.12s-2.26-1.62-1.72-3.12c.1-.22.64-1.83.43-2.05-.86-1.07-1.94,1.62-4,0-1-.64-2.05.86-4.74,4.09-1.61,1.94-1.82.22-4,2.69-1.39,1.61-1.07,3-2.9,4.52-1,.75-1.83,2-2.58.86-.2-.27-.38-.52-.54-.76,0,0-.06-.06-.06-.08-3.1-4.3-2.53-3.37-1-5.29.53-.65,0-2.48-1.51-1.94-.43.22-1.61.75-1.94-.11s1.72-1.07.54-2.69c-.64-.86-1.83-1.29-2.58-2-.32-.32-.22-1.29.21-1.4,1.73-.75,2.69-.21,2.69-1.93.22-3.34.54-4.2-.75-4.2-2.15,0-1.72-1-3.33-2.37-1.08-.86-.65-2-1.72-1.82-7.1,1.82-.33.32-9.26-1.3-1-.21-.75-1-1.5-2.15-1.08-2-3.66-1.83-4.3-1.72s-1.4-.43-3.88-2c-1-.65-1.82.43-3.87,2.47-.75.76-1.72.65-2.47.86s-1.29,1.29-1,1.72c.32,1.3,1.08,2.37,1.29,3.66.75,1.29,1.4,2.58,2.8,3.23,1.72.75-1.29,3.66-.54,4.95.32.64,1,1.5.64,2.47-.64,2.26-2.68,5.16-3.44,3.12-.32-.75.11-1.94-1.29-2.15-.86-1.08,1.29-2.91,2.15-4s-.53-2.48-1.83-3.44-1.93,1.39-3.87,1.39c-2.36,2-1.72,2.69-5.27,5.38-.32.22-1.07,1.4-.54,1.83,2.37,1.83,3.12.32-2,7.64-.65,1-2-.43-2.8.75-1,1.62.11,3.44-2.26,3.87-.86.11-2,2.59-1.07,4.31a1.82,1.82,0,0,0-1.94.32A11,11,0,0,0,344.49,41c-2,3.65-4.52,7-6.56,10.75-2.47,4.63-1.51-.11-6.13,9.58a1.72,1.72,0,0,1-1.72,1,14.12,14.12,0,0,0-2.15.22c-4.63.11-3.45.21-7.43,2.9-.1.11-.21.33-.32.43-.43.76-.11,1.29.32,2,1,1.83-.32,2.58-1,3.87-.76,1.5,1.39,2.8,1.72,3,1.07,1,1.83.54,4.52-.54,1-.32,2.36,1,1.07,1.94a7.78,7.78,0,0,1-3.44,1.51c-.54,0-.54.75-.22,1.39,1.4,1.83-1.07,2-.43,3.12.54.65,3.66,0,2.91,1.51-.43,1-1.62.54-2.48.64s-1.61.33-1.93.43c.13.21.28.4.42.6l.12-.06v.11h-.09l0,0h0l.11.15c.92,1.24,1.76,2.24.8,2.6-1.83.54-3.05.95-3.83,1.23h0c-.59.21-.93.34-1.11.38a2,2,0,0,0,.12.19h0c.07.15.16.28.23.4s0,0,0,.06v0h0s0,0,0,0a.13.13,0,0,1,0,.06,2.15,2.15,0,0,1,.33,1.76c-.43,2,1.4.11,4.41,1.94A28.67,28.67,0,0,1,327,97.1c1.07.86-2.48,1.08-1.29,2.69,3.12,4.41,4,4.2,4.52,6.13.1.43,2.58,1.4,2.9,1.51.64.22,1.51-.43,3.23-1.83.86-.75,1.72-.11,4.51,1.4,1.73.86-1.61,4.3-1,4.84,1.07,1.08,3.33-1.61,3.65-1.83,1.4-1.29,1.51,1.51,3.77,1.51,1.07,0,.64,1.61-.32,1.72a3.53,3.53,0,0,0-1.62.21c-1.5,1.4-1,3.23-.11,2.91a17.55,17.55,0,0,0,1.94-1c.86-.43,1.83,0,2.69-.22s1.29-1.29,1.72-2c1.4-2,4.63-1.61,4.73-.64s1.08,1.93,1.72,2.79c.86,1.51-1.5,1.4-2.36,3.87-1.29,3.34-3.66,6.14-1.62,6.14s-.75,1.61,1.3,4c.64.75-.54,1.61.43,3,1.72,2.47,1.39,3.12,1.93,3.12,1.08-.11,2.37-2.8.86-4.63.22-.86.11-1.61,1.08-1.07s3.22.53,2.69,2c-1.4,3.44-1.83,4-.65,5.49a5.82,5.82,0,0,0,2.8,2.47c2.26.64-1.62,6,.54,6.45s2.58.22,3.44,1.4.54,1.72,1.29,3c1.61-1.07.86-.86,1.61-1.5s2.48-.54,2.91.21c2.79,4.31,1.61,2.58,2.79,4.09.33.43,2.15.75,2.69-1.61.43-1.62.11-2.26.86-4.31.33-.75,2.48-2,2.91-.32.75,3-.11,3.87-1,6.89s3.23,2.25,2.47-2.16c-.21-1.07,0-2.15.65-2.47,2.58-1,4.62,2.26,6.13.32.54-.75,1.51-1.07,2.15-1.72,2.15-2,1.61-2.47,3.77-2.9,1.72-.43-.11-2.05,1.61-6.13.54-1.51,1.5-1.62,2-1.08.76.65-1.07,3.77.54,3.87.43,0,.65-.1.65-.64h.1c.11.11,1.08-.22,2.15-.11a4,4,0,0,0,3.45-2.15c1.07-1.61-.65-.65-1.08-7.75,0-.32.22-2.15,1.29-2s.75,2.9,2.8,2.8a3,3,0,0,1,2,.75,1.38,1.38,0,0,0,1.72-2c-.64-.86-.75-.65-.53-1.4a1,1,0,0,1,1.72,0c1.07,1.93.32,3.23,1.93,2.26a8.73,8.73,0,0,1,1.94-1.29c-1,.1-1.51-1.83-1.51-3.12,0-.54.54-1.4,1.51-2.8a1.22,1.22,0,0,1,1.4-.32,3.58,3.58,0,0,0,.07-.37c0-.21-.29-.42-1.9-2.11-.65-.64-.65-.21-1.94.11s-2.69-2.26-.32-3.23c5.7-2.47,4.09-3.44,9.47-12a2.42,2.42,0,0,0,.64-1.51c.32-1.83,1.51-3.23,2-4.95a10.74,10.74,0,0,1,4-5.7c1.3-1,1.83-2.69,3.12-3.76a35.52,35.52,0,0,0,3-7c.75-2.37,2.58-.86,3.65-4.52C443.24,77.85,441.94,77.42,442.7,75.7ZM424.09,34.5c.86.54.54,1.29-.43.86S423.23,34.07,424.09,34.5ZM325.78,66.34c0-.43,0-.32.21-.21Zm.75,14.09c0-.11-.11-.21-.11-.43.11,0,.32-.11.43,0C327.17,80.43,327,80.54,326.53,80.43Zm7.74,20.33c.22.86-1.29,2.69-4-1.61-.43-.65-.1-1.29.54-3.66.22-.64,2.15-.75,1.83.43v.54c0,.64.32.75,1,.64C335.46,96.89,333.63,98.61,334.27,100.76Zm3.55-8c-1.93,3.34-5.38,1.62-5.7-1.29-.21-1.83,1.08-.75,5.06-.54C337.71,91,338.25,92.16,337.82,92.8Zm4.63-3.12c-.76-2,2.79-2.15,3,.32C345.67,91.19,343.42,91.83,342.45,89.68Zm76.37-46c.86.11.32,1.51-.43.87C417.53,44.07,418.28,43.54,418.82,43.64ZM390.31,15.36c1.08-.22,3.23-.22,3.23.86,0,.86-.64,1.72-.75,2.36-.76,2.48-1.08,4.2-4.74,2.8C385.69,20.52,388.81,15.68,390.31,15.36ZM380.2,14.6c.11.11,0,.33,0,.43-.21,0-.32.11-.43,0C378.91,14.6,379.88,14.17,380.2,14.6Zm-5.81-2.79c.33,0,.65.64.54.64C374.07,13.2,373.53,11.7,374.39,11.81ZM361.7,27.94c0,.54.11.43-.32.32Zm1.18.75a.68.68,0,0,1,.87-.21c.64.32.1.54.1,2.36,0,.87.76,2.59-1,3.12-1,.33-1.72.43-2-.1S360.63,32.46,362.88,28.69ZM358.69,30c.75.11.54.86,0,.76S357.94,29.88,358.69,30Zm-1.29,1.73c.21.1.21.64,0,.86C356.43,33.21,356.65,31.17,357.4,31.71Zm-1,9.25c.75.1.43,1.5-.32,1.39C355.57,42.25,355.57,40.85,356.43,41Zm-.54-6.14c0,.43.11.33-.32.65C355.57,34.93,355.46,35.15,355.89,34.82Zm-6.67,2.8c.43.11.22.22,0,.43Zm9.47,85.08a.34.34,0,0,1,.21.11C359,123.78,357.94,123.56,358.69,122.7Zm6.88,5c.11.11,0,.22.11.33C364.61,128.3,365.14,127.22,365.57,127.65Zm4.52,12.26.32.22C370,140.34,370.09,140.34,370.09,139.91Zm4.52-8.06a4,4,0,0,0-.83-.86h0a.07.07,0,0,0,0-.05l-.1-.06V131h-.12c-.19,2.07.09,2.62-2,4.52a.63.63,0,0,1-.43.11,4.48,4.48,0,0,0-2.9,1.29c-.87.76-2.69,1.4-2.69.22,0-2.15.1-3,1.29-3.12,2-.32,1.61-1.61,3.33-1.4.65.11,1.29-.43,1.72-1.08s1-.55,1.71-.54c0,0,0-.07,0-.1h.11s.08,0,.1.06l0,.05a2.7,2.7,0,0,0,1.26-.54c.64-.54,1.4.11,1.51.86C376.33,132.17,375.25,133,374.61,131.85ZM366.33,117c0-1.07,1.83-1.93,2.36-.86C369.77,118.62,366.11,119.37,366.33,117Zm3.44,10.22c.64-.54,1.4.86.21,1.4C369.23,129.05,369.23,127.76,369.77,127.22Zm9.68,6.67c-.75.54-2-.86-.75-1.4C379.23,132.17,380,133.46,379.45,133.89Zm1.54-8.21,0,0c-.33,1.18-1,.1,0,0a.55.55,0,0,1-.43-.54c-.22-.11-.54-.11-.65-.32-.43-.65.43-1,.65-.33.1.22,0,.43.1.65.11-.11.33,0,.33.54C381,125.62,381,125.61,381,125.68Zm1.15,6.06c-.11.11-.32.11-.43.21a.78.78,0,0,1-.22-.43c.11-.64,1.29-2.36,1.29-1.07C382.78,130.88,382.25,131.52,382.14,131.74Zm21.08,9.14a.81.81,0,0,1,.11-.54C403.87,140.56,403.65,140.34,403.22,140.88ZM402.47,126c-.65-.54-.54-.75.11-1.08.64-.1,2.58-1,2.47.43C404.51,130.34,403,126.47,402.47,126Zm19.61-26a13.41,13.41,0,0,1-.42,1.57,20.91,20.91,0,0,1-7.28,10.22A21.32,21.32,0,0,1,401.65,116a20.73,20.73,0,0,1-10-2.5,45.4,45.4,0,0,1-6.64.54c-20,0-36.3-16.08-36.3-35.86a38.66,38.66,0,0,1,.65-7.18,19.7,19.7,0,0,1-2.82-10.43,21,21,0,0,1,21.08-20.87,20.75,20.75,0,0,1,11.2,3.15,39.46,39.46,0,0,1,6.3-.55,36.18,36.18,0,0,1,10,1.49,2.62,2.62,0,0,1,.35-2.44.4.4,0,0,0,.1-.22c.54-.64,1.51,0,1.83.86a1.6,1.6,0,0,1-.64,2.29l1,.3a35.88,35.88,0,0,1,23.8,33.6,36.61,36.61,0,0,1-.75,7.71,16.22,16.22,0,0,1,1.73,9.35c0,.2,0,.42,0,.62.07-.31.13-.62.18-1s1-.43,1.4,0C425.85,97.64,423.68,97.84,422.08,100Zm4.27-25.71c-.33,0-1.62.32-2.05-.11a.59.59,0,0,1,.22-.86,9.81,9.81,0,0,1,1.07-1.07C427.42,70.64,427.64,74.19,426.35,74.3Zm-21.66,6.52a12.78,12.78,0,0,0-4.13-4.24,27.86,27.86,0,0,0-6.3-2.82c-2.39-.65-5.11-1.52-8-2.06-2.28-.66-4-1.1-5-1.31a23.63,23.63,0,0,1-2.93-1.09,7,7,0,0,1-2.17-1.63,3.26,3.26,0,0,1-.66-2.06c0-1.31.76-2.4,2.28-3.38a12,12,0,0,1,6.3-1.51c2.83,0,4.9.43,6.09,1.4a12.32,12.32,0,0,1,3.26,4A11.58,11.58,0,0,0,395.56,69a4.74,4.74,0,0,0,3.05.87,5.32,5.32,0,0,0,3.8-1.64,4.09,4.09,0,0,0,1.52-3.36,8.27,8.27,0,0,0-1.09-4.13,11.2,11.2,0,0,0-3.47-3.92,18.88,18.88,0,0,0-6.09-2.94,28,28,0,0,0-8.47-1.08,31.72,31.72,0,0,0-10.76,1.63A14.63,14.63,0,0,0,367,59.19a11.2,11.2,0,0,0-2.5,7.28,10.7,10.7,0,0,0,2.4,7.17,15.89,15.89,0,0,0,6.3,4.58A50.8,50.8,0,0,0,382.74,81c2.83.65,5,1.2,6.75,1.63a11.3,11.3,0,0,1,3.9,2.17,4.21,4.21,0,0,1,1.42,3.37c0,1.74-.87,3.16-2.72,4.46a12.56,12.56,0,0,1-7.28,2,14.16,14.16,0,0,1-5.22-.87,9,9,0,0,1-3-2.39,22.62,22.62,0,0,1-2.07-3.7,8.4,8.4,0,0,0-2.17-3,4.42,4.42,0,0,0-3.15-1.09A5.65,5.65,0,0,0,365.35,85a4.11,4.11,0,0,0-1.52,3.38,10.61,10.61,0,0,0,2.28,6.52,18.86,18.86,0,0,0,6.09,5.21c3.37,1.85,7.71,2.72,12.93,2.72a32.57,32.57,0,0,0,11.41-2,15.93,15.93,0,0,0,7.39-5.45,11.91,11.91,0,0,0,2.29-8.26A12.85,12.85,0,0,0,404.69,80.82Zm1.53,6.3a11.75,11.75,0,0,0-5.66-10.54,27.86,27.86,0,0,0-6.3-2.82c-2.39-.65-5.11-1.52-8-2.06-2.28-.66-4-1.1-5-1.31a23.63,23.63,0,0,1-2.93-1.09,7,7,0,0,1-2.17-1.63,3.26,3.26,0,0,1-.66-2.06c0-1.31.76-2.4,2.28-3.38a12,12,0,0,1,6.3-1.51c2.83,0,4.9.43,6.09,1.4a12.32,12.32,0,0,1,3.26,4A11.58,11.58,0,0,0,395.56,69a4.74,4.74,0,0,0,3.05.87,5.32,5.32,0,0,0,3.8-1.64,4.09,4.09,0,0,0,1.52-3.36,8.27,8.27,0,0,0-1.09-4.13,11.2,11.2,0,0,0-3.47-3.92,18.88,18.88,0,0,0-6.09-2.94,28,28,0,0,0-8.47-1.08,31.72,31.72,0,0,0-10.76,1.63A14.63,14.63,0,0,0,367,59.19a11.2,11.2,0,0,0-2.5,7.28,10.7,10.7,0,0,0,2.4,7.17,15.89,15.89,0,0,0,6.3,4.58A50.8,50.8,0,0,0,382.74,81c2.83.65,5,1.2,6.75,1.63a11.3,11.3,0,0,1,3.9,2.17,4.21,4.21,0,0,1,1.42,3.37c0,1.74-.87,3.16-2.72,4.46a12.56,12.56,0,0,1-7.28,2,14.16,14.16,0,0,1-5.22-.87,9,9,0,0,1-3-2.39,22.62,22.62,0,0,1-2.07-3.7,8.4,8.4,0,0,0-2.17-3,4.42,4.42,0,0,0-3.15-1.09A5.65,5.65,0,0,0,365.35,85a4.11,4.11,0,0,0-1.52,3.38,10.61,10.61,0,0,0,2.28,6.52,18.86,18.86,0,0,0,6.09,5.21c3.37,1.85,7.71,2.72,12.93,2.72a32.57,32.57,0,0,0,11.41-2,15.93,15.93,0,0,0,7.39-5.45A11.91,11.91,0,0,0,406.22,87.12Zm0,0a11.75,11.75,0,0,0-5.66-10.54,27.86,27.86,0,0,0-6.3-2.82c-2.39-.65-5.11-1.52-8-2.06-2.28-.66-4-1.1-5-1.31a23.63,23.63,0,0,1-2.93-1.09,7,7,0,0,1-2.17-1.63,3.26,3.26,0,0,1-.66-2.06c0-1.31.76-2.4,2.28-3.38a12,12,0,0,1,6.3-1.51c2.83,0,4.9.43,6.09,1.4a12.32,12.32,0,0,1,3.26,4A11.58,11.58,0,0,0,395.56,69a4.74,4.74,0,0,0,3.05.87,5.32,5.32,0,0,0,3.8-1.64,4.09,4.09,0,0,0,1.52-3.36,8.27,8.27,0,0,0-1.09-4.13,11.2,11.2,0,0,0-3.47-3.92,18.88,18.88,0,0,0-6.09-2.94,28,28,0,0,0-8.47-1.08,31.72,31.72,0,0,0-10.76,1.63A14.63,14.63,0,0,0,367,59.19a11.2,11.2,0,0,0-2.5,7.28,10.7,10.7,0,0,0,2.4,7.17,15.89,15.89,0,0,0,6.3,4.58A50.8,50.8,0,0,0,382.74,81c2.83.65,5,1.2,6.75,1.63a11.3,11.3,0,0,1,3.9,2.17,4.21,4.21,0,0,1,1.42,3.37c0,1.74-.87,3.16-2.72,4.46a12.56,12.56,0,0,1-7.28,2,14.16,14.16,0,0,1-5.22-.87,9,9,0,0,1-3-2.39,22.62,22.62,0,0,1-2.07-3.7,8.4,8.4,0,0,0-2.17-3,4.42,4.42,0,0,0-3.15-1.09A5.65,5.65,0,0,0,365.35,85a4.11,4.11,0,0,0-1.52,3.38,10.61,10.61,0,0,0,2.28,6.52,18.86,18.86,0,0,0,6.09,5.21c3.37,1.85,7.71,2.72,12.93,2.72a32.57,32.57,0,0,0,11.41-2,15.93,15.93,0,0,0,7.39-5.45A11.91,11.91,0,0,0,406.22,87.12Zm0,0a11.75,11.75,0,0,0-5.66-10.54,27.86,27.86,0,0,0-6.3-2.82c-2.39-.65-5.11-1.52-8-2.06-2.28-.66-4-1.1-5-1.31a23.63,23.63,0,0,1-2.93-1.09,7,7,0,0,1-2.17-1.63,3.26,3.26,0,0,1-.66-2.06c0-1.31.76-2.4,2.28-3.38a12,12,0,0,1,6.3-1.51c2.83,0,4.9.43,6.09,1.4a12.32,12.32,0,0,1,3.26,4A11.58,11.58,0,0,0,395.56,69a4.74,4.74,0,0,0,3.05.87,5.32,5.32,0,0,0,3.8-1.64,4.09,4.09,0,0,0,1.52-3.36,8.27,8.27,0,0,0-1.09-4.13,11.2,11.2,0,0,0-3.47-3.92,18.88,18.88,0,0,0-6.09-2.94,28,28,0,0,0-8.47-1.08,31.72,31.72,0,0,0-10.76,1.63A14.63,14.63,0,0,0,367,59.19a11.2,11.2,0,0,0-2.5,7.28,10.7,10.7,0,0,0,2.4,7.17,15.89,15.89,0,0,0,6.3,4.58A50.8,50.8,0,0,0,382.74,81c2.83.65,5,1.2,6.75,1.63a11.3,11.3,0,0,1,3.9,2.17,4.21,4.21,0,0,1,1.42,3.37c0,1.74-.87,3.16-2.72,4.46a12.56,12.56,0,0,1-7.28,2,14.16,14.16,0,0,1-5.22-.87,9,9,0,0,1-3-2.39,22.62,22.62,0,0,1-2.07-3.7,8.4,8.4,0,0,0-2.17-3,4.42,4.42,0,0,0-3.15-1.09A5.65,5.65,0,0,0,365.35,85a4.11,4.11,0,0,0-1.52,3.38,10.61,10.61,0,0,0,2.28,6.52,18.86,18.86,0,0,0,6.09,5.21c3.37,1.85,7.71,2.72,12.93,2.72a32.57,32.57,0,0,0,11.41-2,15.93,15.93,0,0,0,7.39-5.45A11.91,11.91,0,0,0,406.22,87.12Zm0,0a11.75,11.75,0,0,0-5.66-10.54,27.86,27.86,0,0,0-6.3-2.82c-2.39-.65-5.11-1.52-8-2.06-2.28-.66-4-1.1-5-1.31a23.63,23.63,0,0,1-2.93-1.09,7,7,0,0,1-2.17-1.63,3.26,3.26,0,0,1-.66-2.06c0-1.31.76-2.4,2.28-3.38a12,12,0,0,1,6.3-1.51c2.83,0,4.9.43,6.09,1.4a12.32,12.32,0,0,1,3.26,4A11.58,11.58,0,0,0,395.56,69a4.74,4.74,0,0,0,3.05.87,5.32,5.32,0,0,0,3.8-1.64,4.09,4.09,0,0,0,1.52-3.36,8.27,8.27,0,0,0-1.09-4.13,11.2,11.2,0,0,0-3.47-3.92,18.88,18.88,0,0,0-6.09-2.94,28,28,0,0,0-8.47-1.08,31.72,31.72,0,0,0-10.76,1.63A14.63,14.63,0,0,0,367,59.19a11.2,11.2,0,0,0-2.5,7.28,10.7,10.7,0,0,0,2.4,7.17,15.89,15.89,0,0,0,6.3,4.58A50.8,50.8,0,0,0,382.74,81c2.83.65,5,1.2,6.75,1.63a11.3,11.3,0,0,1,3.9,2.17,4.21,4.21,0,0,1,1.42,3.37c0,1.74-.87,3.16-2.72,4.46a12.56,12.56,0,0,1-7.28,2,14.16,14.16,0,0,1-5.22-.87,9,9,0,0,1-3-2.39,22.62,22.62,0,0,1-2.07-3.7,8.4,8.4,0,0,0-2.17-3,4.42,4.42,0,0,0-3.15-1.09A5.65,5.65,0,0,0,365.35,85a4.11,4.11,0,0,0-1.52,3.38,10.61,10.61,0,0,0,2.28,6.52,18.86,18.86,0,0,0,6.09,5.21c3.37,1.85,7.71,2.72,12.93,2.72a32.57,32.57,0,0,0,11.41-2,15.93,15.93,0,0,0,7.39-5.45A11.91,11.91,0,0,0,406.22,87.12Zm0,0a11.75,11.75,0,0,0-5.66-10.54,27.86,27.86,0,0,0-6.3-2.82c-2.39-.65-5.11-1.52-8-2.06-2.28-.66-4-1.1-5-1.31a23.63,23.63,0,0,1-2.93-1.09,7,7,0,0,1-2.17-1.63,3.26,3.26,0,0,1-.66-2.06c0-1.31.76-2.4,2.28-3.38a12,12,0,0,1,6.3-1.51c2.83,0,4.9.43,6.09,1.4a12.32,12.32,0,0,1,3.26,4A11.58,11.58,0,0,0,395.56,69a4.74,4.74,0,0,0,3.05.87,5.32,5.32,0,0,0,3.8-1.64,4.09,4.09,0,0,0,1.52-3.36,8.27,8.27,0,0,0-1.09-4.13,11.2,11.2,0,0,0-3.47-3.92,18.88,18.88,0,0,0-6.09-2.94,28,28,0,0,0-8.47-1.08,31.72,31.72,0,0,0-10.76,1.63A14.63,14.63,0,0,0,367,59.19a11.2,11.2,0,0,0-2.5,7.28,10.7,10.7,0,0,0,2.4,7.17,15.89,15.89,0,0,0,6.3,4.58A50.8,50.8,0,0,0,382.74,81c2.83.65,5,1.2,6.75,1.63a11.3,11.3,0,0,1,3.9,2.17,4.21,4.21,0,0,1,1.42,3.37c0,1.74-.87,3.16-2.72,4.46a12.56,12.56,0,0,1-7.28,2,14.16,14.16,0,0,1-5.22-.87,9,9,0,0,1-3-2.39,22.62,22.62,0,0,1-2.07-3.7,8.4,8.4,0,0,0-2.17-3,4.42,4.42,0,0,0-3.15-1.09A5.65,5.65,0,0,0,365.35,85a4.11,4.11,0,0,0-1.52,3.38,10.61,10.61,0,0,0,2.28,6.52,18.86,18.86,0,0,0,6.09,5.21c3.37,1.85,7.71,2.72,12.93,2.72a32.57,32.57,0,0,0,11.41-2,15.93,15.93,0,0,0,7.39-5.45A11.91,11.91,0,0,0,406.22,87.12Zm0,0a11.75,11.75,0,0,0-5.66-10.54,27.86,27.86,0,0,0-6.3-2.82c-2.39-.65-5.11-1.52-8-2.06-2.28-.66-4-1.1-5-1.31a23.63,23.63,0,0,1-2.93-1.09,7,7,0,0,1-2.17-1.63,3.26,3.26,0,0,1-.66-2.06c0-1.31.76-2.4,2.28-3.38a12,12,0,0,1,6.3-1.51c2.83,0,4.9.43,6.09,1.4a12.32,12.32,0,0,1,3.26,4A11.58,11.58,0,0,0,395.56,69a4.74,4.74,0,0,0,3.05.87,5.32,5.32,0,0,0,3.8-1.64,4.09,4.09,0,0,0,1.52-3.36,8.27,8.27,0,0,0-1.09-4.13,11.2,11.2,0,0,0-3.47-3.92,18.88,18.88,0,0,0-6.09-2.94,28,28,0,0,0-8.47-1.08,31.72,31.72,0,0,0-10.76,1.63A14.63,14.63,0,0,0,367,59.19a11.2,11.2,0,0,0-2.5,7.28,10.7,10.7,0,0,0,2.4,7.17,15.89,15.89,0,0,0,6.3,4.58A50.8,50.8,0,0,0,382.74,81c2.83.65,5,1.2,6.75,1.63a11.3,11.3,0,0,1,3.9,2.17,4.21,4.21,0,0,1,1.42,3.37c0,1.74-.87,3.16-2.72,4.46a12.56,12.56,0,0,1-7.28,2,14.16,14.16,0,0,1-5.22-.87,9,9,0,0,1-3-2.39,22.62,22.62,0,0,1-2.07-3.7,8.4,8.4,0,0,0-2.17-3,4.42,4.42,0,0,0-3.15-1.09A5.65,5.65,0,0,0,365.35,85a4.11,4.11,0,0,0-1.52,3.38,10.61,10.61,0,0,0,2.28,6.52,18.86,18.86,0,0,0,6.09,5.21c3.37,1.85,7.71,2.72,12.93,2.72a32.57,32.57,0,0,0,11.41-2,15.93,15.93,0,0,0,7.39-5.45A11.91,11.91,0,0,0,406.22,87.12Zm0,0a11.75,11.75,0,0,0-5.66-10.54,27.86,27.86,0,0,0-6.3-2.82c-2.39-.65-5.11-1.52-8-2.06-2.28-.66-4-1.1-5-1.31a23.63,23.63,0,0,1-2.93-1.09,7,7,0,0,1-2.17-1.63,3.26,3.26,0,0,1-.66-2.06c0-1.31.76-2.4,2.28-3.38a12,12,0,0,1,6.3-1.51c2.83,0,4.9.43,6.09,1.4a12.32,12.32,0,0,1,3.26,4A11.58,11.58,0,0,0,395.56,69a4.74,4.74,0,0,0,3.05.87,5.32,5.32,0,0,0,3.8-1.64,4.09,4.09,0,0,0,1.52-3.36,8.27,8.27,0,0,0-1.09-4.13,11.2,11.2,0,0,0-3.47-3.92,18.88,18.88,0,0,0-6.09-2.94,28,28,0,0,0-8.47-1.08,31.72,31.72,0,0,0-10.76,1.63A14.63,14.63,0,0,0,367,59.19a11.2,11.2,0,0,0-2.5,7.28,10.7,10.7,0,0,0,2.4,7.17,15.89,15.89,0,0,0,6.3,4.58A50.8,50.8,0,0,0,382.74,81c2.83.65,5,1.2,6.75,1.63a11.3,11.3,0,0,1,3.9,2.17,4.21,4.21,0,0,1,1.42,3.37c0,1.74-.87,3.16-2.72,4.46a12.56,12.56,0,0,1-7.28,2,14.16,14.16,0,0,1-5.22-.87,9,9,0,0,1-3-2.39,22.62,22.62,0,0,1-2.07-3.7,8.4,8.4,0,0,0-2.17-3,4.42,4.42,0,0,0-3.15-1.09A5.65,5.65,0,0,0,365.35,85a4.11,4.11,0,0,0-1.52,3.38,10.61,10.61,0,0,0,2.28,6.52,18.86,18.86,0,0,0,6.09,5.21c3.37,1.85,7.71,2.72,12.93,2.72a32.57,32.57,0,0,0,11.41-2,15.93,15.93,0,0,0,7.39-5.45A11.91,11.91,0,0,0,406.22,87.12Zm0,0a11.75,11.75,0,0,0-5.66-10.54,27.86,27.86,0,0,0-6.3-2.82c-2.39-.65-5.11-1.52-8-2.06-2.28-.66-4-1.1-5-1.31a23.63,23.63,0,0,1-2.93-1.09,7,7,0,0,1-2.17-1.63,3.26,3.26,0,0,1-.66-2.06c0-1.31.76-2.4,2.28-3.38a12,12,0,0,1,6.3-1.51c2.83,0,4.9.43,6.09,1.4a12.32,12.32,0,0,1,3.26,4A11.58,11.58,0,0,0,395.56,69a4.74,4.74,0,0,0,3.05.87,5.32,5.32,0,0,0,3.8-1.64,4.09,4.09,0,0,0,1.52-3.36,8.27,8.27,0,0,0-1.09-4.13,11.2,11.2,0,0,0-3.47-3.92,18.88,18.88,0,0,0-6.09-2.94,28,28,0,0,0-8.47-1.08,31.72,31.72,0,0,0-10.76,1.63A14.63,14.63,0,0,0,367,59.19a11.2,11.2,0,0,0-2.5,7.28,10.7,10.7,0,0,0,2.4,7.17,15.89,15.89,0,0,0,6.3,4.58A50.8,50.8,0,0,0,382.74,81c2.83.65,5,1.2,6.75,1.63a11.3,11.3,0,0,1,3.9,2.17,4.21,4.21,0,0,1,1.42,3.37c0,1.74-.87,3.16-2.72,4.46a12.56,12.56,0,0,1-7.28,2,14.16,14.16,0,0,1-5.22-.87,9,9,0,0,1-3-2.39,22.62,22.62,0,0,1-2.07-3.7,8.4,8.4,0,0,0-2.17-3,4.42,4.42,0,0,0-3.15-1.09A5.65,5.65,0,0,0,365.35,85a4.11,4.11,0,0,0-1.52,3.38,10.61,10.61,0,0,0,2.28,6.52,18.86,18.86,0,0,0,6.09,5.21c3.37,1.85,7.71,2.72,12.93,2.72a32.57,32.57,0,0,0,11.41-2,15.93,15.93,0,0,0,7.39-5.45A11.91,11.91,0,0,0,406.22,87.12Zm0,0a11.75,11.75,0,0,0-5.66-10.54,27.86,27.86,0,0,0-6.3-2.82c-2.39-.65-5.11-1.52-8-2.06-2.28-.66-4-1.1-5-1.31a23.63,23.63,0,0,1-2.93-1.09,7,7,0,0,1-2.17-1.63,3.26,3.26,0,0,1-.66-2.06c0-1.31.76-2.4,2.28-3.38a12,12,0,0,1,6.3-1.51c2.83,0,4.9.43,6.09,1.4a12.32,12.32,0,0,1,3.26,4A11.58,11.58,0,0,0,395.56,69a4.74,4.74,0,0,0,3.05.87,5.32,5.32,0,0,0,3.8-1.64,4.09,4.09,0,0,0,1.52-3.36,8.27,8.27,0,0,0-1.09-4.13,11.2,11.2,0,0,0-3.47-3.92,18.88,18.88,0,0,0-6.09-2.94,28,28,0,0,0-8.47-1.08,31.72,31.72,0,0,0-10.76,1.63A14.63,14.63,0,0,0,367,59.19a11.2,11.2,0,0,0-2.5,7.28,10.7,10.7,0,0,0,2.4,7.17,15.89,15.89,0,0,0,6.3,4.58A50.8,50.8,0,0,0,382.74,81c2.83.65,5,1.2,6.75,1.63a11.3,11.3,0,0,1,3.9,2.17,4.21,4.21,0,0,1,1.42,3.37c0,1.74-.87,3.16-2.72,4.46a12.56,12.56,0,0,1-7.28,2,14.16,14.16,0,0,1-5.22-.87,9,9,0,0,1-3-2.39,22.62,22.62,0,0,1-2.07-3.7,8.4,8.4,0,0,0-2.17-3,4.42,4.42,0,0,0-3.15-1.09A5.65,5.65,0,0,0,365.35,85a4.11,4.11,0,0,0-1.52,3.38,10.61,10.61,0,0,0,2.28,6.52,18.86,18.86,0,0,0,6.09,5.21c3.37,1.85,7.71,2.72,12.93,2.72a32.57,32.57,0,0,0,11.41-2,15.93,15.93,0,0,0,7.39-5.45A11.91,11.91,0,0,0,406.22,87.12Zm0,0a11.75,11.75,0,0,0-5.66-10.54,27.86,27.86,0,0,0-6.3-2.82c-2.39-.65-5.11-1.52-8-2.06-2.28-.66-4-1.1-5-1.31a23.63,23.63,0,0,1-2.93-1.09,7,7,0,0,1-2.17-1.63,3.26,3.26,0,0,1-.66-2.06c0-1.31.76-2.4,2.28-3.38a12,12,0,0,1,6.3-1.51c2.83,0,4.9.43,6.09,1.4a12.32,12.32,0,0,1,3.26,4A11.58,11.58,0,0,0,395.56,69a4.74,4.74,0,0,0,3.05.87,5.32,5.32,0,0,0,3.8-1.64,4.09,4.09,0,0,0,1.52-3.36,8.27,8.27,0,0,0-1.09-4.13,11.2,11.2,0,0,0-3.47-3.92,18.88,18.88,0,0,0-6.09-2.94,28,28,0,0,0-8.47-1.08,31.72,31.72,0,0,0-10.76,1.63A14.63,14.63,0,0,0,367,59.19a11.2,11.2,0,0,0-2.5,7.28,10.7,10.7,0,0,0,2.4,7.17,15.89,15.89,0,0,0,6.3,4.58A50.8,50.8,0,0,0,382.74,81c2.83.65,5,1.2,6.75,1.63a11.3,11.3,0,0,1,3.9,2.17,4.21,4.21,0,0,1,1.42,3.37c0,1.74-.87,3.16-2.72,4.46a12.56,12.56,0,0,1-7.28,2,14.16,14.16,0,0,1-5.22-.87,9,9,0,0,1-3-2.39,22.62,22.62,0,0,1-2.07-3.7,8.4,8.4,0,0,0-2.17-3,4.42,4.42,0,0,0-3.15-1.09A5.65,5.65,0,0,0,365.35,85a4.11,4.11,0,0,0-1.52,3.38,10.61,10.61,0,0,0,2.28,6.52,18.86,18.86,0,0,0,6.09,5.21c3.37,1.85,7.71,2.72,12.93,2.72a32.57,32.57,0,0,0,11.41-2,15.93,15.93,0,0,0,7.39-5.45A11.91,11.91,0,0,0,406.22,87.12Zm0,0a11.75,11.75,0,0,0-5.66-10.54,27.86,27.86,0,0,0-6.3-2.82c-2.39-.65-5.11-1.52-8-2.06-2.28-.66-4-1.1-5-1.31a23.63,23.63,0,0,1-2.93-1.09,7,7,0,0,1-2.17-1.63,3.26,3.26,0,0,1-.66-2.06c0-1.31.76-2.4,2.28-3.38a12,12,0,0,1,6.3-1.51c2.83,0,4.9.43,6.09,1.4a12.32,12.32,0,0,1,3.26,4A11.58,11.58,0,0,0,395.56,69a4.74,4.74,0,0,0,3.05.87,5.32,5.32,0,0,0,3.8-1.64,4.09,4.09,0,0,0,1.52-3.36,8.27,8.27,0,0,0-1.09-4.13,11.2,11.2,0,0,0-3.47-3.92,18.88,18.88,0,0,0-6.09-2.94,28,28,0,0,0-8.47-1.08,31.72,31.72,0,0,0-10.76,1.63A14.63,14.63,0,0,0,367,59.19a11.2,11.2,0,0,0-2.5,7.28,10.7,10.7,0,0,0,2.4,7.17,15.89,15.89,0,0,0,6.3,4.58A50.8,50.8,0,0,0,382.74,81c2.83.65,5,1.2,6.75,1.63a11.3,11.3,0,0,1,3.9,2.17,4.21,4.21,0,0,1,1.42,3.37c0,1.74-.87,3.16-2.72,4.46a12.56,12.56,0,0,1-7.28,2,14.16,14.16,0,0,1-5.22-.87,9,9,0,0,1-3-2.39,22.62,22.62,0,0,1-2.07-3.7,8.4,8.4,0,0,0-2.17-3,4.42,4.42,0,0,0-3.15-1.09A5.65,5.65,0,0,0,365.35,85a4.11,4.11,0,0,0-1.52,3.38,10.61,10.61,0,0,0,2.28,6.52,18.86,18.86,0,0,0,6.09,5.21c3.37,1.85,7.71,2.72,12.93,2.72a32.57,32.57,0,0,0,11.41-2,15.93,15.93,0,0,0,7.39-5.45A11.91,11.91,0,0,0,406.22,87.12Zm0,0a11.75,11.75,0,0,0-5.66-10.54,27.86,27.86,0,0,0-6.3-2.82c-2.39-.65-5.11-1.52-8-2.06-2.28-.66-4-1.1-5-1.31a23.63,23.63,0,0,1-2.93-1.09,7,7,0,0,1-2.17-1.63,3.26,3.26,0,0,1-.66-2.06c0-1.31.76-2.4,2.28-3.38a12,12,0,0,1,6.3-1.51c2.83,0,4.9.43,6.09,1.4a12.32,12.32,0,0,1,3.26,4A11.58,11.58,0,0,0,395.56,69a4.74,4.74,0,0,0,3.05.87,5.32,5.32,0,0,0,3.8-1.64,4.09,4.09,0,0,0,1.52-3.36,8.27,8.27,0,0,0-1.09-4.13,11.2,11.2,0,0,0-3.47-3.92,18.88,18.88,0,0,0-6.09-2.94,28,28,0,0,0-8.47-1.08,31.72,31.72,0,0,0-10.76,1.63A14.63,14.63,0,0,0,367,59.19a11.2,11.2,0,0,0-2.5,7.28,10.7,10.7,0,0,0,2.4,7.17,15.89,15.89,0,0,0,6.3,4.58A50.8,50.8,0,0,0,382.74,81c2.83.65,5,1.2,6.75,1.63a11.3,11.3,0,0,1,3.9,2.17,4.21,4.21,0,0,1,1.42,3.37c0,1.74-.87,3.16-2.72,4.46a12.56,12.56,0,0,1-7.28,2,14.16,14.16,0,0,1-5.22-.87,9,9,0,0,1-3-2.39,22.62,22.62,0,0,1-2.07-3.7,8.4,8.4,0,0,0-2.17-3,4.42,4.42,0,0,0-3.15-1.09A5.65,5.65,0,0,0,365.35,85a4.11,4.11,0,0,0-1.52,3.38,10.61,10.61,0,0,0,2.28,6.52,18.86,18.86,0,0,0,6.09,5.21c3.37,1.85,7.71,2.72,12.93,2.72a32.57,32.57,0,0,0,11.41-2,15.93,15.93,0,0,0,7.39-5.45A11.91,11.91,0,0,0,406.22,87.12Z"/><path class="c" d="M215.41,4.55a.94.94,0,0,0,0-.16S215.39,4.47,215.41,4.55Zm27.94,16.94s0,.07,0,.1a.52.52,0,0,0,.11.1Zm37.91,35.18v0l.1,0A.16.16,0,0,0,281.26,56.67Zm2.25-5-.05-.11h0s0,0,0,0l0,0h0l.07.09Zm6.74-12c-1.9-1.6-2.1-2.2-3.4-2.1-2.2.2,0,1.2-6.9-2.5-1-.5-1.1-1.3-1.1-2.3a1.77,1.77,0,0,0-2.4-1.5c-1.5.8-2.1,2.2-3.5.8-2.1-2.1-3.2,1.5-5.7.2-2.9-1.5-6.1-2.1-9.1-3.3a3.6,3.6,0,0,0-2.7,0c-5.2,1.8,2.2-1.9,8.2,6.4.3.5.5,3.1-5.2.2-3-1.6-1.6-4.7-4.6-5.5-.3-.4-.5-.8-.9-1-7.3-3.6-7.6-3.8-8.5-2.6-1.8,2.4-6-1-3.5-2.9,1.36-1,2.25-.9,2.39-2-7.39-6.17,1.9-2.82.21-6.1-.7-1.3-1.4-2.3-3.2-1.9a61.92,61.92,0,0,1-15.8-1.3c-1.9-.5-3.2-1.8-4.9-2.6-1-.5-1.1-.7-1-1.5.4-2.7,1-2-2.3-2.9a1.42,1.42,0,0,1-.94-.74c-.15.62-.64,1.1-.46,1.84.6,1.9-.3,2.7,1.1,3.7a47,47,0,0,0,4.4,3.4c1.6.9,1.1,2.3,1.1,3.6-.2,6-27-10.8-27.3-8.8a4.54,4.54,0,0,0,2.3,4c22,11.5,21.5,10.9,20.8,12.5-1.5,3.5-3.9,2.2-6.5,2.4-.6.1-.9,1-.2,1.7,1.2,1.3-.1,2.1-1.4,1.7-2.8-.8-5.4-3.5-9.1-3.3-2.5.1-2.9-1.4-10.2-4.4-2.1-.9-6.5-3.6-7.6-3.6-1.8,0,4.1,4.4,6.7,5.5a6.73,6.73,0,0,1,2,1.9c.7,1-.2,1.4-.6,1.3-4.6-1.3-2.8,1-5.9.8-3.5-.2-4.7-1.6-5,0-.2,1.3,2,2.2,3.1,3.5,1.5,1.7.8,2,1.9,5.1.5,1.4,2.2,1.6,3.8,2.8,1.8,1.4,3.4,3.1,5.6,4,.6.2,1.6,2.8-.8,3-1.9.1-3.6-.7-5.5-.7-.9,0-1.5-.7-1.5-1.8s-.6-2.2-.3-3.4c.2-.6-1.2-1.3-1.4-1-1.1,1.4-2.1,2.8-1.4,4.4,1,2.5,1.4,3-.1,3.3-1.2.2-1.3.4-.9,1.1a4.32,4.32,0,0,0,1.7,2.1c5.3,2.8,6,5.6,10.7,7.7,2.5,1.1,1.3,3,.2,2.5-1.7-.7-2.9-2.3-5.2-2.2,1.5,1.3,2.5,2.7,4.2,3.5a2.26,2.26,0,0,1,1.1.8c1.1,1.9,3.2,2.7,4.8,3.9,0,0-.2.4-.3.4-.9-.2-1.8-.5-2.7-.7s-1.5.4-.8,1c1,.7,4.4,2.6,2.5,3-3.2.7-6.3-2.5-14.7-3.9-1.1-.2-1.8,1.7-.6,3.2.2.2,1.2,1,1.6,1.3,3.7,3.3-2.4,3.3-.4,5.3a3.18,3.18,0,0,0,1,1c2.2.9,3.9,2.5,6,3.5,1.4.6,1.8.9,4.6,4.2,1.1,1.3,3.1,1.9,3.3,3.4.1,1-.4.9-3.5,1.4-1.4.2-1.5-1.6-4.1-2.4-1.9-.6-3.6-1.7-3.5-3.7,0-1.1-2.5-3.1-3.4-1s-2.1,1.8-7.5.5c-2.4-.6-5-1-7.3-2.2a5,5,0,0,0-1.3-.4c-4.1-.9,7.2,5.8,9.8,8.4,2.8,2.8,6.2,3,7,4.4.9,1.7,2.8,2.5,3.5,4.3,1.5,4,6.6,5.5,4.7,8.5-1.2,1.8,4.1,5.9,5.8,7.1,3,2,1.5,3.7,3.1,5.2a12.48,12.48,0,0,1,2.8,4.7c.2.8-.8,2.1-1.5,2-6.1-1-6-1.3-6.8-.8-1.7.9,5.2,6.7,5.7,7,2,1.3,2.1,3.8,2.6,4.8,1,2.1,2.1.2,3.9,2.4,1.9,2.4,2.9-.4,6.3,2.3,2.2,1.7,2.3,3.2,3,4.6,1,2,2.5,1.7,6.2,2.5,3.2.6,4.9,6.1,7.2,4.5,1.6-1.1,1.3-3.6,4.1-2.9,1.2.3,1.8.5,2.7-1.3,1.8-3.4-1.7-4.1-2.2-6.8-.5-3,5.3.1,4.5,3.5-.1.3-.9,2.1-.3,2.6.8.8,1.4-1.2,3.2-.3,4.4,2.2,1.6,1.1,5.2,1.7.5.1,1.4.9,2.6.3.7-.3,1.2-.8,1.8-1.1a2,2,0,0,0,1.7-1.9c.3-2.3,1.6-1.4,2.1-6.4.5-5.3-5.4-8.7-3.3-10.5,1.1-.9,2.6.7,2.1,2.2-.7,2-1.6,1.6.5,2.2a2.09,2.09,0,0,0,2.5-.5c.6-.8-.1-1.2-.6-3.3a1.78,1.78,0,0,1,1.6-1.9,13,13,0,0,0,4.8.3c4.9,1.2,5.3-1.8,8.1.1.2.2,1.1.8,1.1.8,1.7.6,3.1-.7,2.2-2a3.46,3.46,0,0,1-.7-2.6,8.17,8.17,0,0,1,.6-2.7c1.2-2.9-1.4-3.6-.3-6,1.3-2.8,3.5-4.6,2.2-9.2a19.59,19.59,0,0,0-3.7-7.4c-.9-1-1.6-.8-4.6-1.4-3.6-.7-4-.8-8.4-3.2a.62.62,0,0,1-.1-1.1c1.1-.8,2.6.3,3.8,1s4.1.7,5-.9c2.3-4.3,3.9-5.4,3.1-8.9a17.83,17.83,0,0,0-.52-2.07c-.37-1-.61-.57-1.48-2.23-1-2-.7-2.2-.2-3.9.9-2.8-2.7-1.7-2.7-6.7a.31.31,0,0,1,0-.1h0c.18-1.88,4.93-1.69,6.79-1.49,1.2.1,1.7-1.2,1.7-1.8-.1-2.84,5.18-1.56,1.07-6.2.1-.09,0-.14-.12-.14h0l-.08-.1c1.18-.86.81-3.78,3.34-4.06a1.93,1.93,0,0,0,.41-.12c1.08-3.85.89-2.4,2.17-5a2.11,2.11,0,0,0-1.68-.55c-2.3-.2-1.6-2.6-4.1-.8-1.4,1-3.3-3.7,5.5-3.3,1,0,2.2.8,2.6.3s-2.3-2.9-3-3.3c-1.6-.9-2.9-2.1-2.1-3.8,1.6-3.8,3.1.5,8.8,1.4A1.06,1.06,0,0,0,290.25,39.69ZM195,31.77s-.06-.06-.17-.28c.08.12.13.22.17.28s.09-.09.23-.18C195.18,31.89,195.16,32,195,31.77Zm12,104.12.2-.3C207.65,136.09,207.75,136,207.05,135.89Zm21.4,7c-.1.1-.4.1-.6.1C227,141,229.75,141.59,228.45,142.89Zm2.5,3.4c-.8,0-1.1-1-.8-1.2a1.1,1.1,0,0,1,1.1.4A.48.48,0,0,1,231,146.29Zm42.22-24.58a1.28,1.28,0,0,1,1,.38c.7.6.1,1.4-.6,1.4a1,1,0,0,1-.91-.42A.88.88,0,0,1,273.17,121.71Zm-5.42-6.12c-.8,0-.5.1-.9-.5C267.65,115.09,267.35,114.89,267.75,115.59Zm-6.1-10.1c-.3,3.2,1.9,3.7,2.3,5.6.7,3-5.3-1.7-5.2-3.4.1-2.9.1-3.5,1-3.7A1.6,1.6,0,0,1,261.65,105.49Zm4.4-33.8c1.5,1-.2,2.2-.9.8C264.85,71.69,265.35,71.19,266.05,71.69Zm11.4-10.81V61l-.2,0A.78.78,0,0,0,277.45,60.88Z"/><path class="c" d="M177.35,104.58c2.6.1,7.1,1.5,8.3,4,1.7,3.8,2.2,1.2,2.5,6.9.1,1.2-3.8,2.5-4.6,2.7-1.5.5-6.6-6.8-7.2-11.1a23.25,23.25,0,0,0-1.5-4.5C174.25,102.88,175.85,104.48,177.35,104.58Z"/><path class="c" d="M302.75,91.58c1.5,1,3.4-3.7,2.9,2.7-.1,1.2-3.8.4-5.2.1-.8-.1-2.7-2.2-3.1-2.7-2-2.4-4.5-2.3-4-3.5.5-1,3.2,1.9,6.3,2C300.75,90.18,301.45,90.78,302.75,91.58Z"/><path class="c" d="M286.55,110.18a4.49,4.49,0,0,0,1.2-.6c3.3-2.4,6.8,2.6,8.3,3.4,1.1.7,1,.9-.4,1.7-3.2,1.6-3,2.4-8.5-3.3C286.75,110.88,287.05,109.88,286.55,110.18Z"/><path class="c" d="M286.45,63.18c-.6-1.4-2.1-.6-2.8.9-.5,1-2.3.3-1.8-1.2.3-.8.5-1.7,1.5-2-.5,0,.3,1-1.8-2.5a2.26,2.26,0,0,1-.1-1.8c-1,.5,5.5.3,6,2,.7,2.3.8,3.9-1,5.6C286.65,64.68,286.75,63.78,286.45,63.18Z"/><path class="c" d="M172.75,102.78c-1.9,0-3.6-2-2.6-3a27.46,27.46,0,0,1,2.6-2.2c.8-.7,2.5.1,2.7,1.3.3,1.4-.1,1.8-1,3.9C175.15,102.48,174.75,102.78,172.75,102.78Z"/><path class="c" d="M287.15,34.78c-.2-.1-.2-.4-.2-.6s.3-.3.4-.2c6.1,2.8,5.5,1.1,5.7-.5.2-1.3,1.3-1.4,1.9-.5,1.2,1.4.5,2.3-.8,3.5C293.05,37.38,292.25,37.28,287.15,34.78Z"/><path class="c" d="M300.85,65.68a11.08,11.08,0,0,1-1.9.9c-1.2.4-1.9-2.3-.6-3.1,2.5-1.5,3.5-.9,4.2.2,1.9,3.3-1.2,3.4-1.8,1.8,0,.6-.1.6-.3.2Z"/><path class="c" d="M296.15,99.08c-3.2-1.8-4.6-5-4.1-5.9,1-1.8,4.3,3.9,5.2,6.2C297.85,99.08,296.65,99.38,296.15,99.08Z"/><path class="c" d="M297.25,79.38c-2.5-3.9,2.7-3.5,3.1-.4C300.45,79.88,298.45,81.18,297.25,79.38Z"/><path class="c" d="M295.35,71.58c.1.2.3.3.3.5.2,2.4-1,1.2-3,4.1-.8,1.2-2.6-1-1.4-1.4C293.25,73.88,293.15,71,295.35,71.58Z"/><path class="c" d="M294.05,107c-.2-.2-.5-1.8-.3-1.9a1.76,1.76,0,0,1,1.9.3c3.2,3.1,3.6,3.3,2.9,4.1C296.55,111.48,295.45,108.68,294.05,107Z"/><path class="c" d="M283.15,104.58c1.5.2,1.6,1.3,3.4,5.6.4-.2.3-.1-.4,0-2.7.3-3.2-3.1-4.1-5.6C281.45,104.68,282.45,104.48,283.15,104.58Z"/><path class="c" d="M243.15,21.28a1.15,1.15,0,0,1,.6-1.1c2.1-1.5,2.4-1.6,2.9-1.5s.1,3.3-2.4,2.9C243.75,21.48,243,21,243.15,21.28Z"/><path class="c" d="M291,63.38a.94.94,0,0,1,1.1-1.5C294.45,63.58,293.25,65.68,291,63.38Z"/><path class="c" d="M215.15,4c-2.2-.1-3.9-.6-3.8-1C211.85.88,214.25,4.28,215.15,4Z"/><path class="c" d="M303.65,82.48c-.2,1.7-2.4.6-2.1,0C302.05,81.38,303.75,81.18,303.65,82.48Z"/><path class="c" d="M178.15,94.68c-.4.3-.2.4-.7-.1C177.85,94.28,177.65,94.28,178.15,94.68Z"/><path class="c" d="M173.05,107.58c.8-.3,1.4.7,1.2.9C173.35,109.28,172.15,107.88,173.05,107.58Z"/><path class="c" d="M283.85,50.58c1.3-1.4,1.4,1.8-.4,1.1C283.75,52.28,283.05,51.38,283.85,50.58Z"/><path class="c" d="M290.35,46.68c.1-.1.3-.4.4-.4.4,0,.5.4.2.8a.75.75,0,0,1-.5.1A4.33,4.33,0,0,1,290.35,46.68Z"/><path class="c" d="M300.15,35.18c-.6.2-.3-.3-.6-1.1A6,6,0,0,1,300.15,35.18Z"/><path class="c" d="M297.15,99.38c.4,1.7.4,1.7-.2,1.5s-.6-1.1.4-1.5C297.45,99.28,297.15,99.38,297.15,99.38Z"/><path class="c" d="M299.55,34.08h0C299.75,34.18,299.75,34.28,299.55,34.08Z"/><path class="c" d="M307.05,59.58c.1-.1.3-.3.2-.4-.2-.5-.5-.5-.7,0C306.75,59.28,306.65,59.18,307.05,59.58Z"/><path class="c" d="M306.65,59.08l.4-.2C306.65,59.28,306.75,59.28,306.65,59.08Z"/><path class="c" d="M282.05,104.48c.2-1.1.8-.6.4-.2C282.25,104.48,281.55,104.58,282.05,104.48Z"/><path class="c" d="M278.85,97.68c-.8,0-.4-1.1.1-.8C279.25,97,279.25,97.68,278.85,97.68Z"/><path class="c" d="M286.35,64.28h.5c-.1-.4-.2-.4-.3.2Z"/><path class="a" d="M245.35,53.54h6.7V41.94a76.86,76.86,0,0,0-9.7-.5c-9.6,0-16.2,6-16.2,17.1v10.2h-10.6v13h10.6v32.6h13V81.74h10.2l1.6-13h-11.8v-8.9c-.1-3.8.9-6.3,6.2-6.3Z"/><path class="c" d="M361.75,78.07c-.3.2-.5-.3-.3-.3h.4C361.65,77.47,362.15,77.87,361.75,78.07Z"/><path class="c" d="M398.35,78l.3-.3s.2.1.1.1C398.65,78.4,398.15,77.8,398.35,78Z"/><path class="c" d="M362,77.8l-.1.1C362,78,361.85,78,362,77.8Z"/><path class="c" d="M389.15,78v-.2C389.35,78,389.35,77.89,389.15,78Z"/><path class="c" d="M387.85,78l.3-.3C388.25,78.42,387.55,77.72,387.85,78Z"/><path class="c" d="M408.55,77.77v.1C408.65,78,408.55,78.17,408.55,77.77Z"/><path class="d" d="M0,37.45c.27.66-.36.77,1.07,1C1,38.13.62,37.82,0,37.45Z"/><path class="d" d="M151.41,56c10.26-21.76-16.07,1.73-24.8-24.51-9.51,1.15.79-.7-1.15-4.76,3.14-1.7,5.19,5,12.48-.22,7.06-9.22-12.21-5.36-17.23-4.65-1.1,3.71,3.55,2.89-1.68,6.92-2.4-1.43-22.15-5.19-18.12-8.25,18.14,5.35-6.33-13-12.75-9-5.89,14-46.78,7.22-44,24,5.23,1.46-3.46,8.67-4.38,2.88-6.86-6.41,7.89-12.57,5.54-18,2.45-5.58-10.27-2.77-5.61-8-21.18,1.66-3.78,2.55-18,10.68.88,15.34-5.47,2.24-9.46,10.57-1,9.48-13.15,1.44-11.16,8.08,5,2.43,18.05-2.08,12.67,7-1.27,1.56-6.34-2.17-5,2.64,9.36,32.22-13.19,17,4.28,31.49,3.24,1.19,9.56,1,2.4,3.38-9-1.46-2.85,8.3-8.91,7.64-3.84,1.41,2.28,3.78,1.6,4.86C-7.45,103.8,22.19,110,27.31,115.3c-1.34,6.71,5,1.58,2.4,8.36-4.23,1.67,6.46,3.61,9.28,6.64,6.91,3.19,7,11.64,14.91,11.91,4-5.51,8.58,3.75,11.77,1.15,28.64,5.7,12.63-7,24.53-5.81,1,2.73-9.14,7.81,3.12,6.31,30-14.65-36.36-2,13.31-25.29,1.37-2.58,11.89-3.15,11.59-4.87,8.66.21.93-3.29,7.86-7.36,2.1-8.28,11.62-1.66,13-5.8C137,92.63,149.66,92.9,152.44,91c-3.67-18.77-7.54-1.52-21.47-9.89-2.22-1.54.57-2.92,2-3.88,5.6-7.44-28.82-11.49-13-18.43,6.24,7.49,9.82,3.75,10.79-2.32,10.11,9.47,11.64-.71,23.2,5.42C158.51,60.45,153.37,57.33,151.41,56ZM17.5,51.5l.08-.33C18.39,51.45,18.39,51.33,17.5,51.5ZM132.68,85.86l-.09.34C132,85.92,132,86,132.68,85.86Zm-6-12.06c-.1.44,0,.39-.63.33C127.51,73.86,125.53,74.08,126.71,73.8ZM95.38,22.56s-.35,0-.35-.11C94.49,21.34,96.28,21.73,95.38,22.56Zm10,5.31c2.84,3.53-5,.84-6.87.61C88.52,28.31,95.94,23.64,105.37,27.87Zm-68.15-10c.43-.11,1.32,1-.1,1.17C36.49,19.13,36.05,18.24,37.22,17.91ZM27.49,43.58c.53-.65,1.59-.1,1.16.56S27,44.25,27.49,43.58Zm7.94,75.16c-.63-.22-.63-.17.08-.34Zm29.7,21.86c-2.14-.94-1.77-1.39-1.25-1.83C66.92,136.33,67.28,141.54,65.13,140.6ZM116,104c.88,2.94-.66,4.43-3.69,4.43H101.72c-4,0-5.22-3.17-12.45-10.25-6.32-6-9-6.76-10.59-6.76-3.39,0-2.78,1.12-2.78,13,0,2.56-.83,4-7.6,4-11.25,0-23.63-6.71-32.43-19.1C22.69,71.21,19.08,57.48,19.08,54.72c0-1.56.61-3,3.64-3H33.36c2.72,0,3.74,1.16,4.8,4.05,5.19,14.88,14,27.89,17.57,27.89,1.35,0,2-.62,2-4V64.33c-.4-7.09-4.22-7.66-4.22-10.19a2.53,2.53,0,0,1,2.7-2.38H72.89c2.24,0,3,1.18,3,3.84V76.27c0,2.22,1,3,1.7,3,1.34,0,2.49-.78,5-3.2,7.65-8.4,13.07-21.35,13.07-21.35a4.54,4.54,0,0,1,4.62-3h10.62c3.21,0,3.88,1.62,3.21,3.84h0c-1.33,6.08-14.3,24-14.32,24-1.13,1.77-1.57,2.66,0,4.64C100.35,85.12,114,97.84,116,104ZM108,67.77c.09-.11.45-.11.63-.11C109.39,69.1,107.24,68.54,108,67.77ZM119,29.36a.16.16,0,0,1,.17-.16C119.11,29.26,119.11,29.32,119,29.36Zm2.31,2.55c.1-.05.19-.1.27-.05A.56.56,0,0,0,121.34,31.91Z"/><path class="d" d="M40.15,12.43c.18-.27,0-.33-.35-.11C40.06,12.1,40.06,12.16,40.15,12.43Z"/><path class="c" d="M553.64,71.23c-1.39-.64,2.36,5.85-1.25,3.52-1.64-6.79-1.68-1.63-3.89-4,1.39-3.22-5-5.21-5.38-5.25h0s0,0,0,0c-.86-8.64,9.46-4.21,12.32,1.2l.84,0a30.63,30.63,0,0,0-.81-4.27c-.89-.15-.85-.72-.38-1.38a32.85,32.85,0,0,0-2.26-5.49c-2.81.66-5.29.64-6.69-1.64-4.62.07,2.09,7.67-7.76,2.41-2.56-4.18,6.75-4.06,11.47-5.48a31.22,31.22,0,0,0-3-3.44,33,33,0,0,0-51.35,40.92l.79,1.25L493,101.78l12.5-3.28,1.21.71a33,33,0,0,0,16.81,4.61h0A33.1,33.1,0,0,0,554.56,82c-1.36-1.51-4-3.1-1.65-5.5a7.2,7.2,0,0,0,3.11,0,33.5,33.5,0,0,0,.44-3.64A5.59,5.59,0,0,0,553.64,71.23ZM540.17,51.71c-.48.16-.29.18-.68-.11C540,51.44,539.79,51.42,540.17,51.71ZM542.94,85c-.83,2.32-4.8,4.44-6.71,4.72a13.61,13.61,0,0,1-6.25-.39,58.71,58.71,0,0,1-5.66-2.09c-10-4.31-16.47-14.34-17-15s-4.06-5.38-4.06-10.27a11.11,11.11,0,0,1,3.48-8.28,3.63,3.63,0,0,1,2.64-1.25c.67,0,1.33,0,1.91,0s1.43-.23,2.23,1.7,2.81,6.88,3.06,7.38a1.82,1.82,0,0,1,.09,1.74,28.66,28.66,0,0,1-2.49,3.39c-.44.55-1,1-.43,2a30.19,30.19,0,0,0,5.52,6.88,27.28,27.28,0,0,0,8,4.93c1,.49,1.57.41,2.15-.25s2.48-2.9,3.14-3.9,1.33-.82,2.24-.49,5.79,2.73,6.78,3.23,1.66.74,1.91,1.16S543.76,82.64,542.94,85Zm2.84-7.35c-.52.6-1.55.06-1.14-.7S546.24,77.07,545.78,77.61Zm50.1-6.25c-1.16-.35,1.44-9.24-1.23-8.37a1.56,1.56,0,0,1-2,.33,17.73,17.73,0,0,0,.7-3.18c-14.5-.46-.47-3.8-18.66-4.19-3.63-3.47,1.2-7.14-7.74-6.1-4.95-.53-.21,2.32-2.76,3.21a11.5,11.5,0,0,0-4.78.55A39.65,39.65,0,0,1,562,61a.34.34,0,0,1,.11.46,38.06,38.06,0,0,1,1,6.4c2.83,1.9,1.85,5.91,5,10.57,5.48,7.57,2.45,4.1,11.35,6.28,4.81,11.24-2.05,1.8-7.85.07-1-2.17-4.14,3.52-8.1,3.73-3,1.76,4.9,3,1.14,3.1-1.7-.8-4.11-1.22-6.07-2.17a39.78,39.78,0,0,1-35.09,21.1h0a39.62,39.62,0,0,1-19-4.84l-21.07,5.53,5.64-20.6a39.75,39.75,0,0,1,62.55-47.95c.47.47.92.95,1.37,1.44,3.28-1.48,9.06-2.7,11.4-1.12-2.46,7.74,12.67,1.22,8.88.16-2.08.29-8.94-1.35-2.64-.93,5.73-17.35-15.35-13.53-25.2-20.84-21.38-10.61-38.65.16-58,6.64-10.54,9.77-4.36-.87-9.63,1.46,1.86,6.94-5.83-3.17-3.45,9.39-2.11,2.71-2.72-2.27-6.52,1-.33,8.52.49,17-11,18.43,4.62,11.09-4.66,19.49,7.55,28.34,9.35-6,12.27,30.25,26,33.35,2.82.35-.72,9.47-.71,3.36.38-1.54-6.47-2.79-4.64-5.52.95-1.38-4-2-4.44-4.32-4.87-3.16,2.48,7.79-7.79-1.11-.08-2.94-1.94-1.13-3.62-2.23-1.09-1.93-1.67-4.79-3.46-3.48,8,10.07-2.47,6.72,2.62,11.28,5,4.05,3.62-2.65,3.28-3.79,9.11,3.29,7.22,17.63,13.08,17,1.14-1.15,13,6,3.41-1.85-2.7-6.51,4.39,2.15,4.34-3.86,3.86,12,11.77,1.29,17.47,10,3.16,2.64.57-1.3,2.88-1.53,7.81,2.41,8.56,10.34,7.39-1.6,2.09-1.43,9.41-.85,5.36-4.63-5.38.91-6.24,5.71-8.49-2.47,2.6-1.07-.89,6.31,6.07-.75,1.35-.33,5.58,1.11,5.13-1-2.33-1.42-.85-5.55.57-5.12,2.19,1,2.79,8.32,7,3.34,4.41-5.11,6.72.18,9.49-3,1.1-3.54,4.56-9.25,1.28-12.1.1-5.41,6.25,4.52,8.45-.11,3.93-2.53,20.62,4.13,23.77-3.48,5.13-.25.85,7.9,6.4-.92.58-3.06-2.16-1.5-2.22-3.1,2.35-3-1.18-10.79,1.94-11.11,4.37,6.75,6.95-.54,5.93,6.7,2.53,7.75-17.94,15.57,3.72,10.65-4.52.12-1.41-4.72.17-6.65.09-4.21-1.22-3.06.73-5.88,5.23-8.55-8.06-18.89,7.59-14.62C604.76,77.56,598.16,74.49,595.88,71.36ZM569.36,51.5c.37.47.9,2,0,2.2C568.11,54.33,567.17,50.29,569.36,51.5Zm-.67,10.66c-.51-.32-.5-1.51.35-2.22C570.43,58.37,570.69,62.82,568.69,62.16Zm-4.44-22.65-.26,0C564.2,39.21,564.14,39.2,564.25,39.51Zm-13.49-5.12c-.06.28,0,.26-.3.07Zm-11-4.08c-3.54-3.31,8-7.38,9.44-3.25-5.27-.35-5.64,4.95-9.42,6.6C536.15,33.63,542,30.89,539.8,30.31ZM535,28.62c1.21,1.66.43.6,1.11,1.36,1,1.09-2,3.1-1.91-1.18C534.21,28.34,534.63,28.11,535,28.62ZM460.15,63.35c-2,.08.06-2.82-.21-3.86C462.31,57.46,460.64,62.4,460.15,63.35ZM470.27,44c-.24,0-.64-1.25.34-1.67C472.06,42.05,471.32,44,470.27,44Zm1.45,42.83c-1.09-.21-.5-1.92.41-1.33C472.86,86,472.67,87,471.72,86.8Zm-1.42,25.25c.21-.27.15-.27.24,0Zm13.38,11.38c.45-.58,1.08-.12,3.16,1.06C488.12,126.91,482.12,126.76,483.68,123.43Zm32,8.88c-.86.16-.12-1.09.16-.29C515.82,132.12,515.79,132.3,515.71,132.31Zm14.22-14.38c.22-.29.15-.3.28,0Zm3.43.91c-1,.28-1.38-2.25,0-2.49C537.55,115.1,535.92,119.66,533.36,118.84Zm8.51-1.92c-.49.16-.69-.09-.67-.32C541.25,115.61,543,116.53,541.87,116.92ZM552,103.78c.08-.08.23-.08.36-.12C553.35,104.07,551.67,104.38,552,103.78Zm1.23-2.44,0-.24C553.58,101.29,553.59,101.23,553.24,101.34Zm14.91-6c-.17.13-.33.24-.49.34-1.36,1.44-4.32,4.49-6.38,4.67-2.94,2.11,9.77-1.23,5.36.84-1.69-.43-1.35-.74-1.08.87-.63,1.73-12.13,3.93-8-.38-2.4-4,2.22-2.72,1.24-6.89,2.76-1.29,5.26,3.1,8.85.89C568.35,95,568.63,94.65,568.15,95.36Zm1.22,4.81c-.72.14-1.18-1.27-.22-2C571.29,96.72,571.65,99.72,569.37,100.17ZM572,94.55c-.16-.32,0-.53.32-.56C573,93.93,572.43,95.39,572,94.55Zm6.32-1.25.4.16C578.23,93.62,578.32,93.66,578.32,93.3Zm4.36-7.13c.17-.41.31-.38.36.06C582.87,86.53,582.68,86.51,582.68,86.17Zm.87-7c-3.39,5.55,1-4.23,2.29-6.34,3,.7,2.49,7.18,4.88,9.62C586.64,80.85,584.69,85.27,583.55,79.16ZM590.48,101a.47.47,0,1,1,.93-.11C591.39,101.4,590.55,101.37,590.48,101Zm1.15-36.23c-1.48,3.84-8.35-1.55-4-1,2.13.15,3.31.78,4.07.55C591.7,64.5,591.67,64.63,591.63,64.78Z"/><path class="e" d="M567.48,76.07a33.5,33.5,0,0,1-.44,3.64C568.92,79.2,568.72,77.45,567.48,76.07Z"/></svg>