<svg width="889" height="570" viewBox="0 0 889 570" fill="none" xmlns="http://www.w3.org/2000/svg">
<path fill-rule="evenodd" clip-rule="evenodd" d="M292.222 516.154C288.873 517.779 290.002 517.66 290.637 519.666C291.564 522.691 288.514 523.176 285.285 523.347C278.387 523.71 281.012 526.941 268.299 528.438C266.286 528.692 265.424 534.412 267.307 533.81C269.094 533.184 269.922 532.224 271.991 533.829C272.98 534.575 273.009 534.988 267.731 537.157C265.637 538.065 263.713 534.473 258.744 537.306C255.932 538.931 255.225 534.388 252.95 536.015C249.458 538.593 252.436 538.584 247.513 541.473C246.758 541.957 245.82 544.193 242.773 542.61C238.15 540.312 241.147 544.942 239.22 546.432C234.91 549.792 235.772 551.136 231.813 551.256C228.047 551.425 226.843 552.109 225.239 549.947C225.147 549.834 224.812 549.703 224.665 549.711C222.983 550.184 220.564 549.75 219.752 551.389C218.731 553.334 216.215 552.875 214.788 554.133C213.411 555.358 211.715 550.069 209.862 550.048C205.668 549.973 205.809 551.089 201.773 549.794C198.985 548.907 196.399 550.905 197.098 552.612C198.185 555.362 209.228 550.022 200.153 561.081C199.426 561.976 197.794 559.402 197.182 558.932C196.57 558.462 195.002 558.604 195.634 559.664C195.947 560.238 196.555 560.797 196.722 561.38C196.843 561.905 196.754 562.738 196.401 562.963C192.188 565.313 193.385 563.772 188.685 563.074C187.62 562.894 186.999 563.636 187.589 564.55C188.819 566.347 188.558 567.721 187.704 569.214C185.379 567.859 181.276 565.917 183.571 564.88C184.171 564.583 186.042 564.248 185.121 563.114C182.734 559.989 179.099 559.471 177.089 560.671C175.125 561.927 175.536 558.477 172.095 556.973C170.469 556.291 170.185 555.094 171.159 554.126C171.52 553.723 172.116 553.514 172.666 553.249C172.238 553.006 173.36 555.045 173.682 555.442C175.436 557.507 177.842 555.193 173.484 552.467L173.522 552.702C176.117 549.491 175.805 550.897 177.384 549.543C181.057 546.246 175.827 543.389 181.563 540.84C183.111 540.109 184.747 539.579 186.919 540.085C187.077 550.923 195.706 545.06 192.009 540.792C190.439 538.954 188.173 533.34 191.431 533.582C195.511 533.988 193.873 532.537 198.205 531.747C207.073 530.039 197.993 524.045 207.599 528.238C212.558 526.617 212.719 525.308 215.839 525.38C216.765 525.391 217.768 524.835 218.482 524.207C220.157 522.877 222.279 522.381 224.586 522.112C228.264 521.741 220.755 517.585 225.288 517.701C229.821 517.817 231.186 515.824 233.421 513.016C235.5 510.395 227.306 506.246 219.443 510.413C217.089 511.66 214.048 511.968 212.288 514.041C211.616 514.816 208.979 514.866 208.374 515.252C204.219 518.427 200.729 515.921 198.382 518.025C192.572 523.119 186.075 524.259 186.998 527.373C187.628 529.468 183.05 528.261 180.491 525.676C173.311 526.823 174.062 529.443 172.543 530.587C171.985 531.031 168.574 531.92 170.049 532.699C171.86 533.608 178.203 534.634 173.384 538.405C172.117 539.388 171.262 538.901 167.242 537.251C166.668 537.015 166.464 536.198 166.875 535.763C167.131 535.513 167.53 535.344 167.786 535.094C169.81 532.593 162.192 531.694 160.087 531.835C157.101 532.022 156.126 529.975 152.571 532.852C150.589 534.463 150.031 534.906 150.394 536.483C150.631 537.623 151.423 538.409 152.618 538.937C152.573 537.846 152.317 541.111 149.648 539.803C146.266 538.09 148.514 536.996 145.262 535.631C143.062 534.712 142.846 536.142 141.03 539.371C140.816 539.766 139.709 539.44 139.396 538.866C139.082 538.291 138.919 537.62 138.555 537.077C137.831 535.904 136.054 535.318 135.143 535.986C134.232 536.655 133.551 537.607 131.98 536.803C129.643 537.695 127.477 539.08 127.225 536.226C126.911 532.637 128.428 533.562 131.112 533.568C133.309 533.541 131.568 531.21 129.697 531.545C127.629 531.92 124.755 529.795 123.414 532.29C122.506 533.904 120.149 534.205 119.702 536.386C119.34 537.824 118.164 538.92 117.378 540.026C113.789 539.565 114.985 536.044 111.552 534.363C110.886 534.014 110.732 533.165 111.093 532.761C113.369 530.1 113.364 531.223 110.635 527.111C109.45 525.371 108.261 523.719 108.356 521.764C108.364 521.586 107.757 521.027 107.417 520.986C105.829 520.537 104.508 523.621 104.812 525.408C105.078 526.961 104.775 528.188 103.512 529.082C101.629 528.65 99.6966 528.249 97.7179 527.792C91.3619 519.97 91.6283 521.522 96.2151 515.488C94.1063 511.668 90.302 515.651 89.2943 513.281C88.7718 511.979 88.4029 508.511 84.0567 506.553C81.3828 505.334 81.7491 500.793 84.0313 500.023C86.066 499.324 85.0023 498.109 83.8737 495.213C83.0502 493.07 81.2845 493.252 79.9476 492.642C80.2351 490.736 81.1571 487.82 78.5366 487.515C70.1886 486.566 75.8377 482.781 70.9973 476.918C68.1835 473.55 69.8514 474.378 66.9545 473.732C63.2863 472.891 64.4214 470.615 65.1621 468.418C65.844 466.432 64.2725 465.628 63.4981 464.487C62.908 463.572 63.4085 462.305 62.2226 461.599C61.4642 461.136 60.4913 461.069 59.6278 460.76C56.0315 459.442 56.394 458.005 52.4214 462.44C48.6107 461.518 45.7408 459.305 43.5055 456.083C38.7628 449.21 42.3163 451.417 43.4927 446.272C43.6696 445.642 42.7109 444.274 42.0273 444.28C39.5407 444.234 37.2941 443.259 35.2835 441.443C31.4926 438.097 29.3689 439.627 27.2429 436.163C23.4011 429.834 23.7334 429.019 22.0766 425.944C20.6415 423.33 20.2627 421.074 22.1102 419.204C22.467 418.889 21.5918 417.812 21.055 417.811C18.8662 417.66 20.0405 417.598 15.9638 418.138C15.2583 415.575 15.5071 414.468 13.7845 413.761C9.99957 412.305 9.0001 406.743 9.10641 405.555C9.26739 404.246 8.1994 403.12 7.76895 401.931C6.51074 398.687 13.1335 400.998 13.8239 398.834C14.7459 395.919 17.3979 394.567 19.3044 392.487C21.9421 392.436 24.6302 392.354 27.4565 392.441C28.0897 392.467 29.5721 394.103 28.9045 394.788C25.0831 399.127 22.5994 400.027 25.5643 403.299C30.3802 408.66 30.0622 408.175 34.5866 408.468C38.7714 408.721 39.3356 410.168 42.8928 409.272C46.1061 408.423 44.4707 404.903 42.8415 403.275C41.9117 402.319 42.2871 400.615 43.4196 400.407C44.85 400.095 48.1166 400.16 49.5931 399.905C50.5284 399.737 50.8951 398.211 50.0488 397.546C47.2798 395.268 48.9216 393.615 45.0966 393.994C43.2345 394.152 43.2647 393.529 43.7222 393.151C45.141 392.071 45.0673 390.567 44.2266 388.779C44.8813 388.361 45.5317 388.031 46.1403 387.556C46.749 387.08 46.4151 385.916 45.5055 385.55C44.2146 384.997 43.7079 384.374 43.7682 383.129C43.8297 380.85 41.7803 379.835 41.0667 380.464C39.4379 381.85 38.9532 383.797 34.8863 383.124C33.5476 380.535 36.516 377.689 37.1131 376.446C37.3274 376.051 36.9719 375.33 36.8552 374.716C33.1685 375.265 30.3332 382.419 23.9621 379.947C21.0407 378.8 23.0435 376.744 22.4534 375.829C20.0136 371.791 23.9552 372.026 25.4127 370.147C27.5507 367.315 29.0705 369.186 32.6966 366.867C33.5024 366.351 34.17 365.666 35.2435 365.669C36.11 366.923 33.6221 367.912 35.696 369.428C37.2043 370.53 39.0651 371.408 40.5803 370.353C47.0984 365.753 39.2282 365.015 37.5701 362.975C35.6817 360.651 38.9483 360.715 38.365 357.643C37.2893 352.646 42.3015 351.938 46.0511 348.076C46.3619 347.705 45.4235 346.927 44.9875 346.861C44.0693 346.673 43.3557 347.302 37.8878 350.368C35.0425 348.656 36.7647 346.349 28.6319 351.033C26.2054 349.742 22.8579 347.318 20.8925 349.608C16.9071 354.311 18.2875 357.045 13.8956 358.045C12.8092 358.309 12.2381 359.019 12.044 360.005C11.4112 362.994 9.781 365.414 8.80864 368.362C8.40703 367.585 7.45844 365.005 5.26404 365.977C3.01927 366.982 3.32182 369.803 1.01636 369.038C-0.999848 368.347 1.31637 363.851 0.58632 360.786C-0.385645 356.67 3.73462 358.256 2.37139 355.165C1.53933 353.199 -0.823934 351.61 1.45224 348.948C2.69536 347.464 4.89969 345.279 4.89969 345.279C7.31102 341.842 5.32375 341.562 4.02552 340.153C2.02782 338.071 2.71523 334.962 4.29797 333.519C7.87064 330.286 7.17588 332.54 6.88746 328.417C6.85862 328.005 6.78794 327.447 7.03975 327.286C9.1218 325.61 9.012 322.838 9.66497 320.439C11.3161 314.559 12.608 321.141 15.5622 319.596C27.0851 313.433 22.3705 311.021 26.1015 308.549C42.9439 297.347 43.1741 297.631 44.2937 297.69C47.8957 297.884 50.4728 296.064 53.5349 295.311C57.2893 294.375 54.0725 291.264 58.1217 289.277C70.1181 283.414 73.2897 282.419 75.9976 279.912C77.3789 278.598 79.1747 277.794 81.2426 277.419C87.144 276.488 84.3547 273.62 90.7106 271.364C101.535 267.543 115.883 258.453 116.341 258.074C118.826 256.14 120.229 257.396 127.149 253.574C156.93 237.198 144.084 245.5 149.992 242.41C151.192 241.815 151.84 240.54 152.947 239.831C155.973 237.81 159.364 236.331 162.021 233.856C163.709 232.26 165.925 233.857 169.99 229.535C170.091 229.47 181.522 223.194 181.572 223.162C182.525 222.639 183.589 222.819 183.902 224.428C185.393 225.886 187.762 226.352 189.222 225.418C191.388 224.033 190.052 222.39 189.312 220.537C189.095 219.987 189.85 219.504 190.521 219.764C191.334 220.106 192.092 220.568 192.947 221.055C192.664 219.858 191.928 217.917 192.81 216.836C196.456 212.092 198.078 215.879 202.204 213.326C202.556 213.101 203.424 213.321 204.044 213.614C206.957 214.938 204.245 217.534 214.829 210.592C215.283 210.302 215.652 209.721 215.678 209.188C215.753 206.642 217.892 205.791 219.475 204.348C217.519 202.412 218.227 202.907 218.227 202.907C218.896 201.187 218.056 202.413 220.809 200.997C222.609 200.104 223.497 200.915 227.067 202.766C230.967 199.841 228.956 201.041 233.344 200.13C238.075 199.171 235.249 196.069 238.599 196.425C241.563 196.682 238.565 193.087 241.538 193.167C243.585 193.236 245.083 192.536 245.944 190.866C246.701 189.348 249.05 189.224 249.295 187.172C255.479 185.457 250.963 188 257.965 185.504C271.768 180.639 284.213 171.56 285.413 170.965C287.666 169.782 289.517 171.872 290.897 168.577C291.334 167.609 293.372 167.856 293.594 168.317C294.669 170.3 292.589 169.907 291.096 173.532C290.381 175.195 291.446 178.39 293.074 178.038C295.545 177.406 295.378 176.823 300.731 175.123C307.619 172.957 313.874 167.751 312.324 166.503C311.059 165.417 310.347 168.025 308.49 167.059C305.159 165.314 304.251 166.928 299.662 167.968C298.034 168.32 297.994 164.125 300.234 163.209C309.246 159.513 313.964 152.792 322.425 153.41C323.458 152.232 324.391 151.119 325.373 149.974C329.468 145.03 329.482 147.778 331.644 145.447C333.345 143.584 335.216 146.264 338.592 143.071C339.616 142.071 341.075 142.172 342.455 141.892C344.032 141.573 344.811 142.625 345.842 143.517C348.321 145.721 343.483 144.853 341.206 148.549C340.069 148.845 339.568 150.113 338.109 150.012C333.488 149.694 332.729 160.344 329.251 151.543C325.944 153.313 324.803 153.698 325.842 154.412C325.984 154.493 326.278 154.478 326.475 154.438C327.016 154.35 327.49 154.65 327.33 154.925C323.527 160.888 324.767 155.444 326.065 163.917C346.023 159.939 339.097 154.807 353.399 152.724C356.398 152.27 357.398 150.769 361.561 148.452C365.472 146.295 366.93 147.43 369.53 144.13C371.819 141.202 376.655 140.09 380.316 140.075C384.418 140.036 383.532 137.157 392.136 137.856C393.614 136.566 395.1 135.099 397.637 135.113C398.807 135.14 406.223 130.139 407.887 128.042C410.44 124.686 414.058 122.544 417.998 120.8C419.693 120.061 448.17 103.399 448.225 103.278C448.742 102.689 449.714 102.756 450.574 103.154C452.917 104.153 453.83 101.416 457.534 100.511C459.363 100.031 459.587 98.4231 459.619 96.7665C457.752 93.9981 459.883 93.3242 460.516 90.3354C463.569 86.7463 466.375 89.2583 470.203 86.8105C472.268 85.49 475.127 85.9008 475.65 83.1542C475.722 82.6775 474.541 81.8828 474.293 81.9549C472.254 82.7421 471.515 83.9042 470.289 85.0327C469.52 85.7825 465.748 84.0602 467.73 82.4485C468.796 81.5944 473.808 77.8725 474.013 77.6548C475.5 76.1874 473.724 74.5669 474.878 73.915C476.98 72.8289 478.602 73.6004 479.772 73.6275C482.892 73.6995 479.832 72.383 485.081 69.8012C487.643 70.3164 488.605 68.5812 490.121 67.526C492.093 66.0921 494.347 64.9095 496.365 63.5323C497.729 62.5737 498.608 60.5473 499.493 60.412C501.947 60.1349 503.29 59.621 512.261 54.7446C547.59 35.6826 547.394 37.7026 541.55 33.4296C540.184 32.4081 541.947 31.2807 546.488 28.2042C547.701 27.3424 549.054 28.6307 548.989 29.964C548.92 31.3862 549.08 34.1263 550.419 33.7011C553.787 32.6665 556.761 35.7608 554.19 29.3944C555.184 29.0169 555.409 30.4237 556.185 30.5306C558.31 30.9801 560.191 32.4473 559.003 33.8103C557.915 35.1089 548.755 42.862 552.668 42.6854C559.42 42.3296 562.298 41.3504 565.097 35.9422C564.211 34.0975 563.6 32.5929 564.697 31.1165C566.734 28.3493 565.545 26.6977 567.161 25.5782C568.479 24.563 568.738 22.2442 571.018 22.5082C572.863 22.7065 574.177 21.7801 575.921 22.0429C578.391 22.4447 580.554 19.0798 578.309 17.0702C575.36 14.477 575.322 18.2916 571.365 17.3771C570.832 17.2869 569.989 17.5677 569.871 17.9877C568.996 19.9252 566.468 19.7334 565.363 21.3876C564.136 19.5016 565.597 21.5821 567.361 16.4058C568.384 13.4261 575.042 3.91345 578.047 5.35105C578.906 5.74909 578.142 6.40999 577.968 7.98553C577.943 8.51887 578.885 9.20794 579.43 9.03144C580.177 8.7261 580.782 8.33961 581.575 8.09095C582.12 7.91444 583.23 9.18601 582.617 9.75028C579.85 12.4673 578.638 12.2947 579.839 14.714C581.441 17.9101 586.342 15.4649 587.783 12.9063C587.838 12.7853 588.563 12.9243 588.945 13.111C590.521 13.826 587.516 15.4029 587.328 18.2796C588.222 17.9665 592.95 16.0624 591.497 17.8531C587.91 22.3866 594.144 16.5905 567.529 33.0951C566.925 33.4816 567.62 34.2429 568.29 34.5031C570.835 35.3739 599.823 16.2321 599.113 20.8209C598.525 24.9008 588.953 30.0748 602.046 22.7353C604.505 21.3348 599.337 19.2132 601.364 17.6582C609.675 11.3094 650.024 -11.6523 650.024 -11.6523C653.731 -14.6257 658.266 -16.5789 662.337 -19.0099C669.576 -23.3812 670.681 -25.0353 674.42 -26.6509C677.012 -27.7923 701.672 -39.1696 702.331 -39.6772C708.229 -44.5689 737.288 -57.1238 734.345 -53.7769C733.933 -53.3414 659.295 -10.6039 650.334 -7.97432C643.651 -6.02628 641.171 -1.16698 635.697 0.00807478C635.106 0.127901 634.694 0.563358 634.287 0.90991C632.142 2.88487 629.452 4.00182 626.537 4.74652C620.165 6.32354 622.813 8.07549 612.867 13.9193C607.542 17.0667 605.848 16.7718 606.446 18.5431C607.085 20.46 609.739 17.0396 611.455 16.8901C612.877 16.7561 614.039 15.9265 615.327 15.5335C617.655 14.8198 619.86 15.6493 620.781 13.7684C621.638 12.1864 625.896 10.9277 629.758 7.76874C630.266 7.35777 631.243 7.33581 632.073 7.32162C642.491 6.86139 560.559 50.0423 538.573 63.6726C533.39 66.9012 532.865 67.6677 530.919 67.5338C525.72 67.0689 508.636 80.2341 500.141 82.3072C496.291 83.2194 493.545 85.4919 490.519 87.5132C483.565 92.0468 480.923 92.186 482.106 94.9608C482.809 96.5788 477.821 97.7875 479.328 99.9246C481.107 102.491 491.075 96.2025 492.675 94.4041C525.177 75.2545 520.355 81.0942 532.809 71.8377C533.569 71.2657 534.01 70.2081 534.854 69.9272C537.819 69.1503 539.734 66.8919 542.608 66.0017C551.564 63.461 553.976 60.0238 556.56 59.0601C560.391 57.5579 563.185 56.2877 571.463 49.6156C578.272 44.0553 578.508 46.2298 607.951 28.7782C612.622 26.0495 611.603 25.9259 615.655 24.8848C617.732 24.3321 620.08 24.2084 621.801 22.9355C622.103 22.7423 622.506 22.4847 622.846 22.5259C626.728 22.9715 628.669 20.1798 630.17 20.4258C630.01 20.7002 630.039 21.1124 629.792 21.1845C626.96 22.2203 625.606 24.9811 622.728 25.9603C619.154 27.2126 618.032 29.2223 612.244 32.8373C596.238 42.9016 595.565 44.7103 595.949 48.8572C600.765 54.2188 625.665 31.8346 633.09 29.6701C633.635 29.4936 634.231 29.2849 634.689 28.9062C637.182 26.7947 640.174 25.4845 643.174 23.9965C645.624 22.7738 642.67 21.304 644.907 19.4424C649.227 15.9048 666.614 8.57533 672.396 2.0347C676.574 -2.6186 681.1 -3.35951 686.021 -8.22926C687.763 -9.94655 690.905 -10.319 693.997 -11.6937C701.222 -14.7638 699.299 -16.3766 704.028 -15.2663C705.024 -16.6782 705.13 -17.866 706.74 -17.8622C709.961 -17.8545 710.1 -18.719 710.1 -18.719C710.506 -18.031 711.25 -16.2675 712.157 -16.8472C712.912 -17.3303 711.614 -18.7396 711.204 -19.3386C711.204 -19.3386 712.775 -21.5494 715.703 -22.5607C717.491 -23.1869 718.289 -24.5589 718.719 -26.3843C719.36 -29.5509 719.503 -29.4697 723.149 -31.1987C729.169 -29.5357 728.067 -29.9504 728.615 -29.1814C725.415 -25.5845 714.394 -21.7233 720.297 -20.6748C722.184 -20.3309 774.683 -48.3069 776.783 -47.3241C780.174 -45.7886 766.232 -37.0447 763.295 -35.8556C756.326 -33.0354 758.642 -30.468 761.386 -31.7061C764.13 -32.9442 764.563 -33.8241 766.936 -33.4467C769.309 -33.0693 771.342 -35.7476 774.11 -35.4501C773.524 -33.4392 772.102 -33.3052 772.898 -32.6083C773.929 -31.7168 773.48 -31.5159 778.041 -34.0023C782.401 -36.36 780.401 -36.3728 781.51 -38.1158C784.339 -37.0827 786.321 -38.6943 788.866 -38.858C789.809 -38.1688 790.756 -37.5685 791.933 -36.6848C780.958 -28.7179 779.967 -28.4294 779.843 -25.8516C779.791 -24.7849 773.337 -21.519 783.861 -23.167C785.878 -23.5097 787.273 -25.0905 789.641 -24.6242C791.67 -24.1992 793.365 -24.9387 795.311 -24.8048C800.125 -24.4378 802.153 -27.0272 806.013 -28.1171C808.488 -28.8386 810.783 -26.8612 808.261 -25.1619C793.035 -15.0796 794.97 -16.7479 793.815 -15.0616C793.604 -14.755 794.14 -13.7193 794.924 -13.7902C796.589 -13.9075 802.274 -16.4236 804.041 -17.6398C806.312 -19.178 815.663 -21.7986 814.518 -18.31C813.722 -15.9924 811.932 -16.3118 811.12 -14.6732C810.851 -14.1566 811.806 -12.6995 812.666 -13.3359C813.779 -14.1334 813.223 -15.7591 817.198 -15.2002C818.517 -14.2353 818.26 -12.951 818.69 -11.762C819.894 -8.39708 815.041 -10.9786 814.979 -8.69964C814.961 -7.30962 815.035 -5.8062 810.988 -2.87401C809.318 -1.63338 811.766 2.22749 813.625 1.12469C823.013 -4.27595 823.442 -5.06697 824.912 -4.19873C828.139 -2.29995 826.63 -6.41713 831.109 -6.18023C832.132 -6.14548 833.473 -8.63963 834.02 -6.8361C834.229 -6.10824 831.954 -4.48114 831.45 -4.15906C827.975 -1.93672 820.86 3.90569 820.506 8.18011C820.294 10.5557 818.209 11.2863 811.879 16.0234C811.069 16.6276 813.054 18.976 816.362 16.1714C819.414 13.6167 822.926 11.6287 825.789 8.93619C828.14 6.74351 830.998 5.17438 833.994 3.77525C837.938 1.94195 844.972 -6.26057 840.304 4.47715C839.758 5.68812 837.772 7.38859 837.976 8.20534C838.64 10.6234 836.994 12.3651 837.562 14.7587C838.241 17.8556 833.187 15.403 832.734 18.7073C831.505 18.8903 830.704 19.3168 830.585 20.7712C830.366 24.2701 825.114 18.8429 826.069 23.3144C826.786 26.6458 824.264 25.3306 827.537 30.3005C828.307 31.5308 831.144 29.3716 832.105 28.6708C833.222 27.7844 831.757 25.7927 833.62 24.6011C836.898 22.4187 837.185 20.5121 843.12 22.9184C843.933 23.2597 846.434 26.0539 845.208 27.1824C844.187 28.0932 840.531 31.0344 840.426 31.1877C838.277 33.2515 841.122 34.9636 842.466 33.415C844.687 30.8745 848.357 30.6812 851.482 29.6299C854.219 30.5496 854.431 29.2085 861.076 27.026C861.722 26.785 862.054 25.9696 863.135 26.8288C865.154 28.4661 864.121 29.6436 864.451 30.897C865.436 34.7463 861.47 34.0096 861.058 34.4451C860.802 34.695 860.345 35.0737 860.432 35.276C861.089 36.8373 860.396 38.0561 860.235 39.365C860.145 40.1972 861.288 41.7919 864.88 40.1841C865.53 39.8543 866.365 39.7512 867.153 39.5914C867.254 39.527 867.53 39.867 867.669 40.0371C869.427 42.0132 861.525 46.981 866.005 46.1835C869.599 45.5212 870.712 47.7383 869.338 49.909C868.384 51.4665 863.79 56.6441 866.608 56.9094C868.553 57.0433 869.08 55.2423 870.703 54.9795C871.097 54.8996 871.466 55.353 871.545 55.7331C871.66 57.382 868.685 59.3711 870.197 60.3849C871.521 61.2609 872.883 62.3714 874.343 61.4373L874.197 61.4452C882.137 62.7409 876.58 63.6247 879.469 67.4624C879.971 68.1747 879.726 69.1925 879.118 69.6679C874.958 72.9311 871.677 81.2314 867.331 85.3024C866.206 86.3665 863.329 93.3747 864.577 94.8162C867.027 97.6426 864.244 99.6807 863.664 100.568C863.504 100.843 863.529 101.344 863.759 101.627C863.99 101.911 864.522 102.001 864.903 102.188L864.761 102.106C869.761 104.68 878.703 96.3771 866.067 110.401C864.367 112.264 866.802 113.377 867.432 112.458C872.04 105.979 876.133 109.132 876.603 105.472C876.858 103.242 877.261 102.985 882.034 102.172C882.181 102.164 882.641 102.731 882.871 103.014C883.964 104.641 884.01 104.698 885.269 103.893C890.255 100.704 886.529 109.116 882.853 111.468C881.09 112.595 877.344 120.417 873.488 125.467C873.383 125.621 873.747 126.163 873.973 126.535C874.973 128.049 884.142 123.133 886.52 119.372C886.785 118.944 887.477 118.76 887.931 118.47C888.106 118.875 888.378 119.304 888.269 119.546C882.887 130.912 878.392 134.046 877.724 134.731C875.575 136.795 877.993 138.263 876.292 140.126C874.436 142.175 872.324 144.473 867.594 150.426C865.2 153.508 866.644 155.944 863.831 155.589C861.114 155.26 861.082 156.917 860.048 159.128C858.644 161.921 858.314 160.668 854.847 159.698C854.076 159.502 853.354 160.309 853.604 161.182C853.859 161.967 854.16 162.808 854.511 163.617C848.439 170.084 841.534 175.62 833.934 180.394C830.862 182.359 828.719 185.28 825.56 187.042C818.081 191.308 810.492 200.899 824.186 192.227C827.812 189.908 827.468 189.956 831.518 190.984C832.096 191.131 832.535 192.142 832.174 192.545C828.786 196.004 829.043 194.72 833.44 196.646C834.634 197.174 834.781 200.181 833.619 201.01C829.422 204.039 831.002 204.665 823.827 207.703C820.487 209.15 818.931 213.074 814.588 215.076C811.097 216.619 808.672 221.358 804.761 223.514C803.355 224.327 802.657 225.635 801.817 226.861C801.506 227.232 801.811 227.985 801.781 228.607C801.846 230.288 799.992 227.253 798.409 228.696C796.218 230.614 801.918 229.811 801.156 232.452C800.97 233.26 800.362 233.736 799.376 233.935C798.479 233.303 797.637 232.549 796.59 232.013C794.306 230.804 792.056 235.946 791.798 237.231C791.111 240.341 795.163 239.3 795.897 239.261C798.635 239.146 797.738 239.548 796.935 241.009C796.018 242.801 798.859 244.602 799.871 243.869C802.549 241.984 802.635 243.221 808.578 239.42C826.96 227.664 820.424 229.605 829.812 224.204C830.114 224.011 830.278 223.648 830.488 223.341C830.646 224.101 831.854 224.363 831.604 226.504C771.714 269.026 724.474 296.222 724.474 296.222C720.159 299.671 723.532 298.547 717.557 300.99C713.924 302.452 710.835 304.772 706.791 305.636C706.003 305.796 705.44 306.328 704.831 306.803C687.415 320.784 705 306.351 675.152 325.094C666.242 330.706 667.355 329.909 664.13 333.005C663.106 334.004 624.568 353.827 620.088 358.673C616.64 362.342 612.232 359.649 609.533 364.992C608.293 367.422 603.128 366.246 602.162 368.07C602.052 368.312 559.878 388.651 557.711 391.071C552.811 396.531 541.879 399.56 538.431 403.229C537.919 403.729 537.126 403.977 536.338 404.137C527.592 406.371 514.604 413.557 508.213 413.51C506.896 413.491 505.76 413.787 504.844 414.544C502.301 416.688 498.635 416.793 495.354 418.029C495.573 414.53 499.041 417.48 500.685 413.759C501.396 412.184 504.469 413.234 499.467 405.666C495.373 399.498 491.566 405.55 484.587 403.554C480.495 402.38 483.686 406.025 475.928 410.039C457.905 419.412 470.89 414.294 463.824 421.139C463.156 421.824 462.516 423.956 466.017 424.215C469.909 424.483 469.858 421.501 473.806 423.628C476.374 424.999 472.839 425.452 473.439 428.169C474.332 431.904 469.517 432.572 467.815 435.469C467.66 435.655 462.784 437.567 462.487 437.671C451.946 442.689 455.486 439.133 450.412 442.12C445.993 444.687 442.434 447.653 438.373 448.872C435.6 449.698 433.001 451.962 428.655 453.019C422.31 457.077 413.548 458.632 409.984 464.702C408.769 463.583 408.175 462.758 407.277 463.16C392.047 469.282 401.679 462.863 377.642 476.513C378.338 483.304 375.108 477.445 372.36 478.772C368.067 480.742 361.61 483.062 358.457 486.715C356.391 489.07 350.377 492.313 349.895 492.191C347.283 491.708 345.738 493.385 343.528 493.679C341.221 493.948 339.408 495.108 337.465 495.919C335.22 496.924 334.672 496.155 331.892 496.124C328.231 496.14 327.699 499.064 325.89 500.135C321.568 502.727 327.56 505.958 324.163 506.58C315.988 508.104 319.194 509.413 314.772 508.021C311.695 507.06 311.97 508.434 311.477 510.559C311.35 511.156 310.553 511.494 310.088 511.016C308.509 509.355 306.367 509.261 304.565 508.174C303.106 508.074 299.783 509.165 299.068 510.828C298.248 512.645 300.048 511.752 294.838 516.548C294.632 516.766 294.05 516.708 293.609 516.731C293.765 516.546 292.671 515.953 292.222 516.154ZM588.341 357.184C587.489 357.642 585.217 360.215 587.157 361.472C588.008 362.048 589.968 360.881 588.87 356.328C591.11 352.398 591.804 354.194 593.308 352.371C594.139 351.322 591.241 348.697 587.824 354.758C588.745 355.892 589.591 356.556 588.341 357.184ZM375.179 463.876C372.862 462.343 373.128 460.88 366.59 464.89C363.321 466.894 365.011 470.293 365.803 470.044C366.743 469.788 367.511 469.038 368.438 469.048C372.342 469.049 374.06 466.831 375.179 463.876C375.548 464.329 375.916 464.782 376.381 465.26C377.495 466.443 378.062 465.822 377.693 465.368C377.103 464.454 375.656 465.121 375.179 463.876ZM607.363 53.0141C606.491 52.8827 610.158 54.7583 611.037 52.7319C611.861 50.8265 612.859 51.3945 615.031 50.8663C617.154 50.3702 616.771 48.2035 615.66 47.9665C614.163 47.6316 612.769 46.1978 610.902 46.4439C603.046 51.4683 602.807 51.3628 603.057 52.2362C604.602 57.6223 595.132 55.6682 598.391 57.8904C599.573 58.6852 600.645 59.7222 601.858 58.8603C604.628 57.0889 607.207 57.2486 607.363 53.0141ZM633.76 337.353C636.921 331.542 634.319 332.861 647.231 332.27C651.928 332.022 645.879 326.932 648.437 327.536C650.512 328.018 652.806 328.016 654.459 330.145C656.159 332.331 668.79 322.445 673.949 321.73C675.815 321.484 674.669 318.943 677.022 318.73C680.352 318.496 681.94 315.93 684.445 314.586C684.647 314.457 684.631 313.778 684.451 313.463C683.736 312.111 681.986 312.972 680.964 311.903C680.591 311.538 680.672 310.884 680.869 310.844C685.651 309.853 687.073 312.733 689.541 311.155C694.883 307.652 700.632 307.852 702.933 302.677C694.888 300.5 697.796 298.898 698.741 297.519C699.636 296.171 696.634 295.679 695.755 294.691C693.393 292.067 688.826 292.662 690.089 294.783C690.947 296.215 692.254 297.447 691.444 298.051C690.378 298.905 688.465 296.08 687.266 298.655C685.462 302.652 682.353 297.318 680.159 298.291C677.52 299.376 676.511 298.04 674.299 299.368C673.141 300.109 667.357 304.669 664.874 304.534C660.274 307.821 661.181 310.255 653.557 310.48C651.406 310.564 652.296 313.354 649.239 315.998C640.006 315.184 639.099 322.827 641.977 321.848C642.77 321.599 643.779 319.921 645.099 320.885C646.464 321.907 643.636 323.888 643.96 326.265C644.11 327.203 642.322 327.829 637.086 330.144C634.891 331.117 633.767 325.118 631.331 328.054C628.013 332.071 627.354 329.564 623.638 332.715C621.552 334.48 618.654 334.869 616.208 336.003C614.81 336.638 608.361 332.751 613.269 338.226C589.29 352.7 597.302 347.491 601.968 351.914C602.529 352.417 604.434 351.37 604.959 350.604C605.384 349.902 603.29 347.796 605.602 346.403C608.372 344.632 610.429 346.503 613.02 346.396C614.438 346.351 615.78 345.837 617.114 345.501C619.359 347.51 619.934 347.746 621.449 346.691C630.456 340.069 635.911 344.333 634.342 338.446C633.694 336.707 633.76 337.353 633.76 337.353ZM732.007 271.679C732.858 268.206 722.708 273.233 723.133 275.546C723.516 277.712 726.312 275.408 727.962 276.591C725.316 286.898 722.984 280.637 719.421 282.657C713.399 286.077 720.496 281.625 718.157 277.522C717.391 276.203 714.436 278.782 713.672 279.443C704.923 286.76 702.775 284.775 703.348 289.06C706.739 290.595 706.995 290.345 704.8 291.318C701.456 292.854 703.516 295.671 703.982 295.115C705.28 293.509 707.33 293.49 709.473 293.584C710.253 293.602 711.185 292.489 714.462 294.355C716.407 295.524 718.624 293.072 718.805 292.354C719.438 289.365 722.09 291.028 723.056 290.238C728.597 285.661 728.061 284.625 730.686 284.841C731.563 284.884 732.125 284.352 732.642 283.763C739.512 275.924 741.89 282.241 744.265 271.506C746.181 271.228 749.792 271.245 750.21 268.651C750.35 267.787 749.374 266.774 748.736 266.837C744.521 267.207 743.44 270.397 738.936 270.694C734.872 270.967 730.612 277.309 732.007 271.679ZM281.393 179.393C280.71 179.399 279.842 179.179 279.536 179.461C276.101 182.863 275.338 179.475 272.492 181.812C271.27 182.852 267.6 187.094 262.204 189.684C259.204 191.172 255.946 193.944 254.78 193.828C250.944 193.439 249.987 197.066 247.515 198.733C241.308 202.961 234.089 204.908 231.299 209.104C230.034 211.032 226.706 210.233 225.014 211.918C222.343 214.659 221.593 214.019 220.287 215.802C219.396 217.061 221.404 217.93 221.861 217.551C224.292 215.739 222.694 215.468 227.958 214.6C231.058 214.082 233.832 209.207 238.47 209.169C239.397 209.18 240.051 208.761 240.471 208.148C242.252 205.63 244.955 204.247 248.03 203.228C261.169 198.959 255.795 197.055 272.965 192.19C275.638 191.429 278.352 190.813 280.023 188.538C280.649 187.707 281.983 187.371 282.848 186.645C284.77 185.244 283.924 184.579 281.393 179.393ZM351.638 476.347C352.64 476.826 353.247 477.385 353.83 477.443C357.424 477.815 362.056 475.886 360.967 474.17C354.421 464.23 347.556 474.995 339.823 478.476C338.627 478.983 337.598 480.071 338.062 481.584C338.705 483.412 340.569 482.22 344.053 482.834C346.568 483.293 348.101 481.882 349.552 481.126C351.252 480.298 351.719 478.707 351.638 476.347ZM489.284 130.166C489.393 126.909 492.552 129.196 493.949 128.561C497.641 126.888 497.499 129.822 500.415 129.077C502.092 128.693 500.505 127.21 500.044 126.644C495.739 121.817 495.087 127.23 491.909 126.333C491.027 124.4 490.835 123.316 489.096 122.965C486.002 122.359 485.68 124.977 483.322 125.279C483.029 125.294 482.663 125.786 482.697 126.109C482.69 128.267 481.12 129.444 480.024 130.92C479.037 132.154 482.401 134.223 484.112 134.162C490.965 133.742 489.127 134.401 489.284 130.166ZM575.446 360.434C571.569 361.88 554.292 368.967 558.588 370.957C559.828 371.542 561.178 371.885 562.213 372.687C563.813 373.903 564.988 373.841 566.288 373.182C566.445 371.962 565.458 370.182 567.618 369.92C569.874 369.683 571.415 368.094 573.81 368.027C574.346 368.029 574.858 367.529 575.174 367.069C578.307 362.825 577.59 362.508 575.446 360.434ZM437.123 435.372C439.204 434.731 441.596 429.669 439.055 429.744C437.243 429.869 435.958 431.207 432.719 432.59C431.125 433.265 431.151 435.746 428.774 435.458C426.493 435.194 425.006 436.661 422.947 436.858C422.603 436.906 422.293 437.277 422.133 437.551C421.448 438.592 420.223 438.686 419.041 438.926C417.514 439.213 419.611 442.265 420.949 441.84C426.197 440.292 429.5 441.626 430.17 438.871C430.967 435.519 434.973 437.436 437.123 435.372ZM579.228 70.6628C580.31 70.4875 581.233 70.5867 581.883 70.2569C591.438 65.4385 591.698 65.0996 591.104 64.2739C588.998 61.3999 587.111 61.056 586.242 61.8702C578.521 69.1336 579.546 68.1339 579.228 70.6628ZM53.2603 374.561C53.6559 373.447 50.6737 370.53 49.2033 372.676C45.9014 377.372 51.2285 376.205 48.9812 379.278C48.1453 380.416 48.0777 380.804 50.3703 381.836C51.1834 382.177 51.5652 385.378 53.3365 384.073C59.9554 379.41 50.5158 382.862 53.2603 374.561ZM483.742 84.3534C484.46 83.6358 483.834 81.4522 482.143 82.1028C477.91 83.8627 469.49 86.4047 472.4 89.7979C474.662 92.4864 481.79 86.3773 483.742 84.3534ZM828.184 197.336C827.875 196.673 824.489 198.063 822.888 200.896C821.291 203.64 820.348 202.951 818.95 204.62C818.744 204.838 819.212 206.262 819.551 206.303C819.937 206.401 820.562 206.604 820.717 206.419C821.838 205.444 822.862 204.444 823.749 203.274C825.882 200.531 830.059 200.961 828.184 197.336ZM319.953 485.671C319.032 484.537 317.867 484.421 317.225 484.573C310.207 486.391 310.249 486.537 310.432 487.798C311.014 491.905 321.151 487.144 319.953 485.671ZM756.698 261.66C756.242 261.004 755.739 260.292 755.187 259.611C753.252 257.231 749.744 262.144 750.86 265.307C751.98 268.381 756.386 266.08 756.698 261.66ZM247.478 526.078C250.447 529.261 259.985 523.763 255.672 522.129C254.235 521.584 246.364 524.895 247.478 526.078ZM314.888 164.949C317.773 164.827 318.403 163.907 320.801 164.785C321.187 164.883 321.677 164.828 321.975 164.723C323.977 163.702 319.364 160.191 318.135 160.374C312.834 161.008 313.508 162.214 314.888 164.949ZM506.792 116.299C506.544 116.371 506.422 116.88 506.359 117.179C506.245 117.51 507.133 118.32 507.808 118.491C509.162 118.745 509.136 119.278 513.475 117.365C514.373 116.963 514.291 115.638 513.256 114.835C508.091 110.645 511.716 115.389 506.792 116.299ZM636.045 34.1545C636.251 33.9368 635.824 32.6588 635.329 32.8031C631.172 33.9975 626.408 37.6472 628.336 38.1367C631.372 38.9521 634.147 36.0574 636.045 34.1545ZM623.843 316.39C629.913 315.006 630.592 315.089 630.225 313.601C630.021 312.784 628.793 311.932 628.252 312.02C619.49 313.575 622.509 316.726 623.843 316.39ZM377.248 459.452C376.287 460.152 379.149 461.509 379.929 461.527C389.545 461.493 383.775 454.675 377.248 459.452ZM764.961 256.289C766.382 254.175 757.572 253.693 757.843 258.171C757.975 259.465 762.117 260.606 764.961 256.289ZM656.612 295.778C656.062 296.044 652.407 297.95 653.438 298.842C661.024 305.447 659.956 294.243 656.612 295.778ZM506.696 399.492C507.133 398.524 506.53 397.876 505.603 397.865C500.777 397.765 500.864 397.967 500.348 398.556C498.89 400.436 504.828 403.787 506.696 399.492ZM516.6 113.299C516.239 113.703 516.799 115.239 517.734 115.072C524.869 113.868 522.667 106.921 516.6 113.299ZM222.691 545.116C222.325 546.643 227.436 546.905 229.204 544.655C230.603 542.985 223.475 542.031 222.691 545.116ZM501.264 110.531C498.558 107.955 493.415 112.363 495.796 113.598C497.556 114.539 497.783 113.877 501.264 110.531ZM292.237 510.804C290.136 510.855 287.769 512.369 288.979 513.576C291.735 516.121 296.439 510.701 292.237 510.804ZM680.819 283.656C679.099 283.895 678.186 286.632 678.609 286.965C682.404 290.223 684.455 283.14 680.819 283.656ZM569.216 58.7184C565.793 56.8595 565.162 61.8284 567.514 61.6157C569.964 61.4276 570.402 59.4243 569.216 58.7184ZM551.426 80.4324C549.634 81.1474 548.324 83.0193 548.834 83.5539C549.345 84.0885 552.26 84.3782 553.064 81.8829C553.287 81.3096 552.022 80.2237 551.426 80.4324ZM480.136 77.1844C479.922 77.5799 479.955 77.9032 480.378 78.2355C480.755 78.5112 481.22 78.9891 481.422 78.8603C488.532 77.1557 482.191 74.0616 480.136 77.1844ZM491.766 72.8477C495.657 73.1155 496.812 68.4148 491.648 70.2532C490.557 70.6063 490.454 72.7395 491.766 72.8477ZM798.71 -6.30558C799.474 -6.96648 798.54 -7.83334 797.852 -7.73798C794.363 -7.22902 794.659 -6.29894 795.362 -4.68091C795.408 -4.62423 796.091 -4.63067 796.486 -4.71055C796.632 -4.71829 798.559 -6.20896 798.71 -6.30558ZM625.374 39.8592C618.868 38.1628 621.547 48.336 625.64 41.4116C625.901 41.0727 625.495 40.3848 625.374 39.8592ZM463.124 424.515C462.815 422.817 460.238 421.623 459.242 423.035C457.772 425.182 463.577 427.24 463.124 424.515ZM629.008 317.566C626.636 316.154 625.651 319.368 627.264 320.318C629.544 321.616 630.621 318.515 629.008 317.566ZM322.456 493.459C323.795 492 320.674 489.948 319.917 491.465C318.504 494.436 320.293 495.79 322.456 493.459ZM567.977 77.2551C566.383 77.9302 564.79 77.5708 564.046 78.8217C563.206 80.0481 566.867 80.0326 567.977 77.2551ZM490.282 116.607C490.174 115.815 488.149 115.301 487.035 117.133C486.821 117.528 487.31 118.507 487.797 118.541C489.898 118.489 490.439 118.402 490.282 116.607ZM476.61 100.629C474.019 99.7019 472.956 101.502 473.836 102.49C475.18 103.956 478.672 101.378 476.61 100.629ZM501.874 152.348C500.648 150.462 497.702 151.829 499.117 153.853C500.26 155.448 502.875 153.862 501.874 152.348ZM447.584 429.974C448.755 428.967 446.386 425.486 444.431 429.579C444.158 430.184 445.695 431.699 447.584 429.974ZM218.029 217.073C217.012 215.915 215.216 216.719 216.321 218.08C217.288 219.27 219.65 218.88 218.029 217.073ZM541.547 92.9519C541.499 90.9152 538.374 91.9665 538.548 93.4055C538.74 94.4889 541.57 94.4875 541.547 92.9519ZM615.415 349.344C613.153 347.69 611.393 349.763 612.478 350.533C614.695 352.13 616.639 350.284 615.415 349.344ZM787.034 250.959C787.812 253.045 790.268 250.7 788.928 249.145C788.513 248.634 786.432 249.276 787.034 250.959ZM326.596 482.542C326.266 481.289 324.227 482.076 323.697 482.932C322.739 484.578 327.143 484.346 326.596 482.542ZM123.342 519.674C125.481 518.822 123.085 516.909 121.532 517.73C120.378 518.382 121.999 520.188 123.342 519.674ZM638.494 327.262C639.66 327.378 639.739 324.744 638.766 324.677C636.388 324.388 636.549 327.129 638.494 327.262ZM794.125 244.615C793.534 244.735 793.033 246.002 793.791 246.465C796.494 248.096 797.179 244.04 794.125 244.615ZM872.142 111.943C872.113 111.531 872.088 111.03 872.018 110.472C871.943 110.003 870.79 109.621 870.013 110.548C869.698 111.008 870.027 113.296 872.142 111.943ZM586.81 29.9808C588.386 30.6957 588.962 29.897 588.803 29.1369C588.504 27.2612 585.234 29.2658 586.81 29.9808ZM243.483 527.943C244.916 528.577 245.195 526.848 244.382 526.507C243.045 525.897 242.578 527.488 243.483 527.943ZM860.684 69.3979C861.884 68.8027 861.58 67.0158 860.585 67.3933C859.092 68.004 859.933 69.7921 860.684 69.3979ZM520.83 117.657C520.427 117.915 520.46 118.238 520.934 118.539C521.55 118.92 521.575 118.386 521.798 117.813C521.509 117.74 521.17 117.699 520.83 117.657ZM386.351 456.903C385.993 458.252 387.913 458.919 388.291 458.16C388.733 457.103 386.587 456.063 386.351 456.903ZM143.194 495.694C141.447 494.485 140.673 496.358 141.67 496.926C143.573 497.949 144.045 496.269 143.194 495.694ZM856.684 98.5717C856.798 98.2406 857.155 97.9263 856.971 97.6995C856.117 96.1781 853.847 97.7164 856.684 98.5717ZM136.808 505.635C136.399 507.016 138.139 507.368 138.463 506.73C138.85 505.794 137.048 504.706 136.808 505.635ZM238.034 529.619C237.815 530.104 238.234 530.525 238.477 530.542C242.867 530.576 239.287 526.923 238.034 529.619ZM499.384 67.7177C498.047 67.1084 497.408 68.206 498.094 69.1452C499.057 70.4244 500.914 68.376 499.384 67.7177ZM824.47 18.0494C824.491 17.6049 823.284 17.3434 822.923 17.7467C822.292 18.6665 824.25 19.5682 824.47 18.0494ZM856.622 111.963C857.573 112.474 858.836 111.58 858.544 110.561C858.507 110.327 857.794 109.921 857.643 110.018C855.843 110.911 856.459 111.292 856.622 111.963ZM729.384 -16.8387C730.583 -16.3995 731.298 -18.0626 729.943 -18.3164C728.686 -18.5457 728.617 -17.1234 729.384 -16.8387ZM647.168 302.334C646.725 301.412 645.768 302.024 646.086 302.51C646.538 303.254 647.482 302.909 647.168 302.334ZM495.637 132.994C495.684 133.05 496.115 133.205 496.12 133.116C496.738 131.428 495.174 131.481 495.637 132.994ZM543.614 86.548C543.564 86.5802 543.693 86.928 543.693 86.928C545.689 87.0297 545.024 85.6462 543.614 86.548ZM301.534 176.676C300.515 176.553 301.088 177.823 301.998 178.189C302.811 178.53 302.943 176.809 301.534 176.676ZM233.792 544.649C233.663 544.302 233.583 543.922 233.403 543.606C233.09 543.031 231.936 543.683 232.639 544.267C232.92 544.518 233.406 544.552 233.792 544.649ZM499.865 402.483C499.282 402.425 499.189 403.346 499.982 403.097C500.279 402.993 500.159 402.467 499.865 402.483ZM507.308 65.32C506.491 65.0675 506.793 64.8743 506.104 66.0042C506.921 66.2566 506.523 66.4253 507.308 65.32ZM408.196 446.206C406.787 446.073 407.185 445.905 406.79 447.019C408.006 447.103 407.704 447.296 408.196 446.206ZM733.04 -19.7799C732.368 -19.0056 733.823 -18.8162 733.849 -19.3496C733.87 -19.794 733.149 -20.0221 733.04 -19.7799ZM862.092 76.594C861.115 76.6159 861.232 77.2305 861.852 77.5229C862.518 77.872 862.255 77.2652 862.092 76.594ZM826.741 15.4766C827.011 14.96 825.816 14.4319 825.869 15.3452C825.856 15.6119 826.577 15.8399 826.741 15.4766ZM816.709 202.522C816.343 203.014 817.236 203.735 817.752 203.147C818.063 202.776 817.225 201.933 816.709 202.522ZM483.215 120.437L482.963 120.598C483.391 120.842 483.29 120.906 483.215 120.437ZM666.218 292.908C665.543 292.736 665.648 292.583 665.706 293.408C666.243 293.409 666.092 293.505 666.218 292.908ZM831.494 14.0735C831.575 13.4191 831.713 13.5892 830.992 13.3612C831.05 14.1856 831.008 14.04 831.494 14.0735ZM666.475 238.219L666.773 238.115C666.396 237.839 666.446 237.807 666.475 238.219ZM287.275 177.871L286.926 178.008C287.446 178.364 287.345 178.429 287.275 177.871Z" fill="#50FFCA" fill-opacity="0.3"/>
</svg>
