<svg xmlns="http://www.w3.org/2000/svg" viewBox="0 0 24.6 25">
<path fill="#808080" d="M12.3,22.9H3.1c-0.6,0-1-0.5-1-1V3.2c0-0.6,0.5-1,1-1h9.2c0.6,0,1-0.5,1-1s-0.5-1-1-1H3.1C1.4,0,0,1.4,0,3.2
	v18.7C0,23.6,1.4,25,3.1,25h9.2c0.6,0,1-0.5,1-1C13.3,23.3,12.8,22.9,12.3,22.9z"/>
<path fill="#808080" d="M24.3,11.8l-6.2-6.2c-0.4-0.4-1-0.4-1.4,0c-0.4,0.4-0.4,1.1,0,1.5l4.4,4.5H9.2c-0.6,0-1,0.5-1,1s0.5,1,1,1h11.9
	L16.7,18c-0.4,0.4-0.4,1.1,0,1.5c0.2,0.2,0.5,0.3,0.7,0.3c0.3,0,0.5-0.1,0.7-0.3l6.2-6.2c0.2-0.2,0.3-0.5,0.3-0.7S24.5,12,24.3,11.8
	z"/>
</svg>
