<svg width="108" height="99" viewBox="0 0 108 99" fill="none" xmlns="http://www.w3.org/2000/svg">
<path fill-rule="evenodd" clip-rule="evenodd" d="M106.962 46.6793C105.289 46.6793 105.359 47.3725 104.731 47.7884C104.592 47.8577 104.174 47.9271 103.825 47.5805C103.128 46.8873 104.383 46.2634 104.662 45.9168C105.498 44.877 105.15 44.8077 103.755 43.7679C102.919 43.8372 102.152 43.9065 101.455 44.1838L101.245 43.9758C101.455 43.4213 101.524 42.7974 102.012 42.4508C102.012 42.4508 102.082 42.4508 102.082 42.3815C101.803 42.3122 101.524 42.2429 101.315 42.5895C100.897 43.2133 100.478 42.8667 99.9905 42.4508C99.5721 42.1042 98.8053 41.8963 98.875 41.2031C98.9447 40.3712 98.3869 39.678 97.5503 40.3019C97.4806 40.3712 97.4109 40.3712 97.3411 40.3712C96.7137 40.1633 97.2714 39.8167 97.7595 38.9155C97.9686 38.4303 97.2017 38.4996 96.7834 38.2223C96.5045 38.0144 96.5742 37.945 96.2256 36.4893C95.7376 36.7666 95.5284 36.5586 92.7397 35.0336C92.3214 34.8257 92.1122 34.2018 92.3214 33.9245C93.0883 33.162 93.4369 33.3006 93.7157 32.6074C94.1341 31.7063 94.4129 31.4983 94.1341 31.221C93.5763 30.7358 93.3672 31.9142 92.67 31.9835C92.2516 32.0529 91.9031 31.5676 91.9728 31.429C92.1819 31.0131 92.3911 30.5278 92.6003 30.1119C93.3672 29.5574 93.5066 28.5869 94.1341 27.963C94.4129 27.6857 94.3432 26.7153 94.0643 26.5766C93.7157 26.2993 93.7158 26.5766 92.8094 27.2698C92.3911 27.6164 92.3214 27.4085 90.6481 26.2993C89.7418 25.6755 90.5784 25.3982 91.1362 24.2891C91.3453 23.9425 91.6939 24.0811 91.8333 23.3186C91.9031 23.1106 91.7636 22.9027 91.4848 22.764C89.9509 22.1402 89.5326 22.0708 88.6263 22.3481C87.0924 22.8334 86.6741 22.8334 86.465 23.2493C86.1861 23.7345 84.8614 24.3584 84.3734 24.1504C83.1185 23.6652 83.5368 25.2595 82.7001 24.497C79.5628 21.7936 82.491 23.2493 82.2121 21.8629C82.1424 21.447 81.6544 21.1697 81.4452 21.3083C81.2361 21.447 81.0269 21.5856 80.8177 21.7242C80.4691 21.9322 79.9811 21.5856 79.5628 21.6549C78.9353 21.6549 78.3078 20.5458 77.7501 21.1697C77.3318 21.6549 75.6585 21.6549 78.029 22.0708C79.2142 22.2788 79.9114 23.3879 80.8874 24.9129C81.1663 25.3289 81.0966 26.0914 80.748 26.1607C80.1903 26.23 79.9114 26.5766 79.5628 26.8539C80.3994 27.6164 80.748 29.0028 80.3297 31.0131L70.6388 76.2788C69.9416 79.4675 67.9894 80.2993 65.2704 78.7743L50.4202 67.9604L43.2392 74.7538C42.4723 75.5163 41.7751 76.2095 40.2412 76.2095L41.287 61.3058L68.7563 36.7666C69.9416 35.7268 68.4775 35.1029 66.8739 36.212L32.9207 57.3545L18.3495 52.8488C15.1424 51.8783 15.0727 49.7294 18.9769 48.2043L76.1466 26.438C76.9832 26.0914 77.8198 26.0914 78.4473 26.2993C78.3776 26.0221 78.4473 25.5368 78.5867 24.9823C78.6564 24.705 78.6564 24.6357 77.4712 22.5561C77.2621 22.2095 76.9832 22.0015 76.6346 21.7936C76.6346 21.5856 76.4951 21.3776 76.3557 21.1697C75.1008 19.9219 76.1466 19.7833 75.1008 19.1594C74.4036 18.7435 74.4036 18.1196 74.1944 17.4264C73.7761 16.1787 71.3359 17.4957 71.4754 18.1196C71.6148 18.5355 71.4057 18.8128 71.1965 19.0901C70.569 19.9913 72.4514 20.4072 73.2184 21.239C73.5669 21.5856 73.4972 22.0015 72.1028 21.8629C70.569 21.6549 70.569 22.764 69.8718 21.6549C68.9655 20.4072 68.7563 20.5458 68.1289 20.1299C66.7345 19.2287 69.3838 17.5651 70.4993 17.2185C71.3359 16.9412 70.569 16.248 71.5451 15.6241C72.1029 15.2775 72.4514 14.8616 72.8 14.7923C73.4275 14.515 74.8916 15.9014 74.543 14.7923C73.9853 12.99 74.9613 13.6832 74.8916 12.2275C74.8916 11.4649 75.3796 10.4251 75.7282 10.4945C76.8437 10.7717 76.4254 9.66263 76.7043 9.59331C78.0987 9.03875 79.005 6.19664 80.26 8.13759C81.236 9.66263 83.1185 10.5638 83.1882 10.1479C83.2579 9.59331 82.4213 9.38535 82.1424 8.69215C81.6544 7.65236 79.8417 7.4444 80.1903 6.33528C80.4691 5.57277 80.3994 5.57277 79.2839 5.08753C78.7959 4.87957 78.5867 4.67161 78.7959 4.39433C79.4931 3.5625 79.3536 2.38406 77.8198 3.07726C77.4712 3.2159 77.2621 4.18637 76.4254 3.14658C76.0071 2.59202 75.5191 2.38406 74.8916 2.5227C73.7761 2.73066 73.5669 0.928351 72.1726 1.13631C69.7324 1.55223 70.2204 1.82951 68.338 1.34427C67.2225 1.06699 67.1528 0.0965152 66.4556 0.235155C66.1767 0.304474 66.1767 0.581753 66.5253 0.928351C67.0831 1.41359 67.0831 1.69087 66.8739 1.96815C66.2464 2.73066 65.619 1.96815 65.2007 1.69087C63.4577 0.235154 64.1549 3.77046 61.645 1.89883C60.5295 1.06699 61.0175 2.24542 60.9478 2.45338C60.8781 2.66134 60.1112 2.10679 59.6929 2.1761C58.5076 2.38406 58.2985 2.66134 58.4379 3.2159C58.7168 4.32501 58.6471 4.60229 59.414 5.36481C59.9717 5.98868 60.5992 6.54324 60.2506 7.0978C59.9717 7.51372 58.9957 8.27623 57.9499 8.55351C57.7407 8.62283 57.1133 8.20691 57.0435 7.99895C56.9738 7.72168 56.9041 7.37508 56.8344 7.0978C56.6949 6.47392 55.6492 5.98868 55.1611 6.33528C54.3942 6.88984 53.6273 7.37508 52.8604 7.86031C52.2329 8.27623 51.3963 8.48419 50.9083 9.03875C50.6294 9.31603 49.8625 8.83079 49.3047 8.55351C48.2589 9.17739 47.1434 9.59331 46.2371 10.2865C46.0977 10.3558 45.8885 10.4251 45.6793 10.3558C44.2152 10.1479 44.5638 11.6036 43.3089 12.6434C42.2631 13.5445 43.8666 14.4457 42.6117 15.3468C41.8448 15.9014 40.8687 15.2082 39.056 16.456C36.6856 18.1196 36.5461 18.5355 35.3609 18.1889C34.0363 17.8423 30.5503 21.5163 29.2256 22.0015C29.0862 22.0708 27.1341 24.9823 26.2974 24.4277C25.6002 24.0118 26.9249 22.0708 27.2735 21.7242C27.6221 21.447 27.8313 21.1697 27.9707 20.6844C28.2496 19.714 28.7376 19.506 29.2954 18.9515C29.8531 18.3276 29.5045 18.0503 29.5045 17.2185C29.5045 17.2185 29.5045 17.2185 29.5742 17.2185C29.7834 16.3173 29.7834 15.6934 30.6897 15.7628C31.8052 15.8321 31.9447 16.3866 32.5722 16.04C34.8729 14.4457 33.7574 14.515 37.0342 14.5843C37.313 14.5843 37.7314 13.9604 36.4764 13.8218C36.0581 13.8218 35.6398 13.8911 35.2215 13.5445C34.7334 13.1979 34.7334 12.782 34.5243 12.3661C34.3848 12.1581 34.3849 12.1581 31.9447 11.6729C30.4806 11.3956 32.2933 13.2672 31.4566 13.9604C30.7595 14.515 29.2954 13.8218 29.0862 13.4059C28.4587 12.2275 28.6679 11.6729 27.8312 11.6729C26.0186 11.6729 25.9488 11.5343 25.8094 12.1581C25.7397 12.2968 26.0186 13.7525 25.1819 13.2672C24.4847 12.8513 23.927 12.7127 23.6481 13.4059C23.4389 13.8218 23.5784 14.0991 23.7876 14.7923C23.7876 14.8616 23.7876 14.9309 23.7876 15.0696C23.7876 15.7628 23.0904 15.4162 22.672 15.4162C21.5565 15.3468 22.7418 16.8025 21.1382 16.8025C20.3713 16.8025 20.0227 17.4957 18.9769 18.3969C18.5586 18.7435 18.3495 18.6049 16.1882 18.8821C15.979 18.8821 16.0487 19.4367 16.3276 19.6447C16.6065 19.9219 16.9551 20.1299 17.3037 20.2685C20.441 21.1004 20.5805 20.6151 20.7896 21.3083C20.7896 21.3776 20.7896 21.5163 20.7896 21.5163C19.6044 21.8629 20.2319 22.764 19.3953 23.1106C18.4889 23.4572 17.7917 24.0811 17.0248 24.497C16.6065 24.705 16.7459 25.7448 17.4431 26.0221C18.6283 26.5073 19.3952 26.5766 19.8136 27.6164C19.3952 27.6164 19.1861 27.8244 18.9072 28.0323C18.1403 28.6562 16.467 28.5176 16.0487 28.0323C16.2579 28.3096 16.467 28.6562 16.6762 28.9335C17.4431 29.4187 18.0706 30.1119 18.7678 30.7358C18.9072 30.8744 19.2558 30.8051 19.2558 30.6665C19.1164 29.696 18.7678 29.4187 19.1861 29.3494C19.5347 29.2801 19.953 29.696 20.0924 29.8346C20.5805 30.3892 21.2777 30.8744 21.2777 31.5676C21.2777 32.1222 21.9748 33.5779 21.5565 34.1325C21.5565 34.2018 21.2777 34.1325 21.2777 34.0631C20.441 33.2313 19.1164 32.8847 18.8375 33.3699C18.6981 33.7165 19.1861 33.9245 19.3953 34.2018C19.8833 34.687 19.8136 35.1723 19.3255 35.0336C16.5368 34.3404 17.4431 35.8654 16.1185 35.1029C15.7001 34.895 15.9093 34.8257 13.748 33.7165C12.2839 32.954 12.4931 34.687 13.3297 34.7563C14.6544 34.895 15.4213 34.7563 16.1882 35.6575C16.5368 36.0734 17.0248 36.2814 17.5128 36.4893C18.5586 36.4893 19.8833 37.5291 19.6741 38.0144C18.7678 40.2326 17.6523 38.7076 16.8854 38.4303C16.1185 38.153 16.0487 38.5689 16.3276 38.9155C16.8156 39.4701 17.1642 39.9553 16.6762 40.2326C16.2579 40.4405 16.2579 40.9258 16.1185 41.3417C15.979 41.8963 15.0727 40.9951 14.3755 41.3417C12.7022 42.2429 12.005 40.5099 8.72823 40.7178C8.51907 40.7178 8.58879 41.3417 8.72823 41.4803C9.00711 41.7576 9.35572 42.0349 9.63459 42.2429C10.3318 42.8667 10.6106 43.8372 10.0529 44.1145L10.2621 44.1838C9.28599 43.9065 8.03105 44.7384 6.00919 43.6292C4.26622 42.6588 3.22043 43.0054 0.710542 43.2827C0.501385 43.2827 0.361955 43.6986 0.501393 43.9758C0.989426 44.669 1.12886 45.2236 0.710542 45.6395C-1.03243 47.5112 3.98734 49.7987 3.22043 50.5612C3.01127 50.7692 2.38381 50.9078 3.01128 51.7396C3.4296 52.2249 3.56903 52.0862 6.00919 52.8488C6.56695 52.9874 6.7761 53.6113 6.35779 53.7499C5.52116 54.0965 4.47537 54.4431 3.8479 54.6511C3.29015 54.859 3.29015 55.9681 4.96341 57.3545C6.07891 58.2557 6.84582 58.2557 7.75217 59.9887C9.07683 62.5535 6.98525 63.8013 11.4473 66.0888C11.8656 66.2968 12.7022 66.5047 12.9114 67.2672C14.4452 72.4662 20.5108 80.438 28.3193 85.1517C29.5742 85.9142 30.7595 86.7461 31.9447 87.6472C32.363 87.9938 32.7813 88.3404 33.2693 88.5484C34.594 89.1723 35.7095 90.1427 36.9644 90.9052C41.4962 93.678 41.7053 93.4701 42.8208 94.7871C43.5878 95.6883 43.8666 96.3122 44.8427 96.4508C45.9582 96.6588 46.0976 96.4508 47.4223 96.1735C48.1195 96.0349 48.5378 97.144 48.8864 97.6293C49.0956 97.9065 49.9322 98.3918 50.4202 98.0452C51.1871 97.5599 51.3266 95.8963 53.3484 95.8269C55.0914 95.7576 54.1153 94.4405 55.0217 93.5394C55.44 93.1235 56.9041 93.8167 57.5316 94.5099C58.7865 95.8963 59.4837 96.5895 60.8781 97.0747C60.1809 96.1042 61.0175 96.1042 60.5992 94.9951L59.3443 94.1633C58.926 93.886 58.7865 93.2621 59.2048 93.1928C59.902 93.0541 61.0175 93.4008 60.5295 92.0837C60.2506 91.3212 60.5295 90.7666 60.4598 90.0734C60.3901 89.3802 60.8781 89.1723 61.4358 89.1029C62.6211 88.9643 62.2725 90.1427 63.4577 90.9052C64.0852 91.3212 63.9457 91.8064 64.0155 92.0837C64.0852 92.2916 64.7126 92.7076 64.9218 92.7076C65.2704 92.6382 65.4098 92.2916 65.6887 92.0837C67.2225 92.2223 67.1528 91.1825 69.1747 91.8064C71.824 92.5689 71.9634 94.9258 73.0092 93.0542C72.5909 90.6973 73.9155 90.5586 74.1944 88.9643C75.1705 83.696 78.029 83.0721 79.7719 81.8244C80.1205 81.5471 80.6783 82.1016 81.7241 82.5176C83.1185 83.0721 83.0487 82.2403 84.6523 83.2801C84.9311 83.488 84.9312 83.4187 86.6741 83.0721C87.6502 81.6857 87.8594 82.7255 87.3713 80.438C86.8833 78.8436 86.465 80.1607 86.1164 80.2993C85.3495 80.6459 84.722 79.3982 84.3734 78.4277C84.3037 78.1504 84.234 78.0118 87.0227 75.5856C87.5108 75.1697 88.4868 75.5163 88.8354 74.6844C89.8812 72.1196 91.9031 71.981 92.4608 71.0798C93.5066 69.5548 95.5285 67.8911 94.9707 67.6138C94.413 67.3366 94.0644 67.9604 93.5763 67.2672C92.8094 66.2275 96.3651 64.3558 96.0862 62.2762C96.0165 61.791 96.7834 60.8205 96.9926 60.5432C97.2714 60.1966 98.108 60.6819 98.5961 60.8898C99.9207 61.4444 99.5722 60.4046 100.2 60.3353C100.688 60.266 102.221 59.3648 100.827 57.9784C100.479 57.6318 99.9905 57.4239 100.339 56.6613C100.548 56.1761 101.315 55.4136 102.152 56.0375C102.57 56.3147 103.267 56.7307 103.407 56.4534C103.616 56.1761 102.779 55.6909 102.361 54.9977C101.664 53.8886 99.5024 52.6408 98.8053 53.4033C98.2475 54.0272 97.4109 54.3045 96.644 54.6511C96.1559 54.9284 95.3193 54.5818 95.2496 54.0965C95.0404 52.7101 96.9228 51.7396 94.7615 50.9771C94.1341 50.7692 94.2038 50.4226 94.2735 50.2839C95.4587 49.1748 95.2496 49.2441 96.0862 49.868C97.5503 50.9771 97.4806 51.0464 98.1778 50.7692C99.6419 50.1453 99.363 52.1556 100.897 52.5022C101.524 52.6408 102.361 53.0567 102.71 52.6408C103.128 52.1556 103.546 50.9771 105.01 50.1453C105.15 50.076 105.219 49.6601 105.15 49.3828C104.731 47.1645 106.614 48.5509 107.102 47.1646C107.66 46.8873 107.241 46.6793 106.962 46.6793ZM77.7501 5.98868C77.9592 6.54324 77.2621 6.61256 77.1923 6.19664C77.1923 5.85005 77.6804 5.85005 77.7501 5.98868ZM75.6585 3.83978C76.3557 3.70114 76.7043 4.46365 76.2163 4.53297C75.798 4.60229 75.1705 3.9091 75.6585 3.83978ZM66.9436 21.031C67.0134 21.031 67.0831 21.1004 67.1528 21.1697C67.0134 21.7936 66.4556 21.031 66.9436 21.031ZM56.4161 28.1016C56.7647 28.5176 56.0675 28.3789 55.9978 28.1016C55.9978 27.963 56.2766 28.0323 56.4161 28.1016ZM53.9062 30.2506C53.9759 30.2506 54.1153 30.3199 54.2548 30.3199C54.2548 30.3892 54.3245 30.5278 54.3245 30.5972C53.9062 31.0824 53.0696 32.2608 52.5118 31.429C52.3027 31.1517 52.3724 31.221 53.9062 30.2506ZM48.9561 10.3558C48.8864 10.3558 48.747 10.2865 48.6773 10.2865C48.6773 9.59331 49.3744 10.2172 48.9561 10.3558ZM27.6918 18.9515C28.7376 17.2185 28.8073 16.9412 29.7137 17.1491C29.7137 18.1196 28.6679 18.9515 28.1101 19.2981C27.901 19.3674 27.6221 19.0901 27.6918 18.9515ZM19.8833 27.3391C20.0227 26.9232 20.2319 26.7153 20.3016 26.6459C20.2319 26.7846 20.1622 26.9925 19.8833 27.3391ZM20.5805 26.5073C20.5805 26.5073 20.5805 26.438 20.5805 26.5073C20.6502 26.438 20.6502 26.438 20.5805 26.5073C20.5805 26.438 20.6502 26.438 20.5805 26.5073ZM24.7636 17.981C24.5545 17.981 24.0664 17.4957 24.2059 17.2878C25.6002 15.4855 27.8313 17.4957 24.7636 17.981ZM24.5545 14.0298C24.7636 14.1684 24.7636 14.3764 24.5545 14.4457C24.2756 14.515 24.1361 14.515 24.0664 14.515C24.0664 14.307 24.1361 13.8218 24.5545 14.0298ZM23.439 17.981L23.6481 18.1889C23.3692 18.1889 23.3692 18.1889 23.439 17.981ZM23.8573 25.3982C23.9967 25.4675 24.1362 25.8141 23.927 25.8141C23.3692 25.8141 22.8812 25.9527 22.3234 26.1607C21.696 26.3687 20.6502 24.2197 23.8573 25.3982ZM10.1923 53.334C9.35571 53.126 9.21627 52.2942 9.49515 52.1556C11.029 51.1158 11.0987 51.393 12.4931 52.5022C12.9114 52.9181 11.5867 53.6806 10.1923 53.334ZM55.0914 86.4688C55.0217 86.3995 55.0217 86.3995 55.0217 86.3301C55.0217 86.3995 55.0914 86.4688 55.0914 86.4688ZM54.952 86.6074C55.0217 86.5381 55.0217 86.5381 55.0217 86.4688C55.2308 86.6074 55.3703 86.7461 54.952 86.6074ZM64.1549 88.4097C63.6668 88.5484 63.2485 87.9938 63.5971 87.7165C64.0154 87.3006 64.7126 88.2018 64.1549 88.4097ZM72.312 90.2121C72.312 90.42 72.1028 90.9746 71.824 90.9746C71.4754 90.9746 71.6148 90.2814 71.2662 89.9348C70.7782 89.4495 70.4993 88.9643 70.1507 88.4097C69.8718 87.9938 69.8021 87.5779 70.081 87.3699C70.4993 87.0927 70.7085 86.3301 72.0331 85.9142C72.7303 85.7063 73.0092 87.3699 73.0789 88.1325C73.2881 89.1723 72.312 88.687 72.312 90.2121ZM76.0071 82.6562C75.5888 82.6562 75.1705 82.4482 74.6825 82.171C74.4733 82.0323 74.1247 81.4778 74.1944 81.3391C74.3339 80.9925 74.1944 80.9925 75.9374 80.438C76.7043 80.23 78.2381 82.5176 76.0071 82.6562ZM89.1143 46.3327C89.3235 46.4714 89.3235 47.0952 88.7657 46.6793C88.5566 46.5407 88.6263 45.9861 89.1143 46.3327ZM91.5545 51.5317C90.8573 52.5022 90.439 52.7101 89.4629 52.2249C89.1143 52.0169 88.7657 51.809 88.6263 51.4624C87.9988 49.5907 87.441 49.3828 90.2298 50.1453C90.5087 50.2146 91.9728 50.9771 91.5545 51.5317ZM94.7615 42.4508C94.6221 42.5201 94.3432 42.3815 94.2735 42.1735C94.1341 41.619 94.7615 41.3417 95.1101 41.4803C95.3193 41.619 95.5284 42.3122 94.7615 42.4508ZM96.9926 44.2531C97.132 43.9065 98.2475 44.4611 98.0383 44.9463C97.5503 45.8475 96.644 45.2236 96.9926 44.2531ZM98.0383 47.3725C97.4109 47.0952 97.7595 46.5407 98.1778 46.61C98.5961 46.7486 98.5961 47.6498 98.0383 47.3725ZM101.245 50.4919C100.13 50.4226 99.9207 48.8282 101.455 48.4816C102.152 48.343 103.407 49.3828 103.686 50.4226C103.825 51.0464 103.476 50.6305 101.245 50.4919ZM102.849 42.4508C102.71 42.3122 102.291 42.3122 102.082 42.4508C102.431 42.5895 102.71 42.7974 102.849 42.4508ZM96.3651 36.3507H96.2954C96.2954 36.42 96.2954 36.42 96.3651 36.3507C96.2954 36.42 96.2954 36.42 96.3651 36.3507C96.3651 36.42 96.3651 36.42 96.3651 36.3507Z" fill="white"/>
</svg>
