<svg width="117" height="97" viewBox="0 0 117 97" fill="none" xmlns="http://www.w3.org/2000/svg">
<path fill-rule="evenodd" clip-rule="evenodd" d="M110.715 43.1836C109.739 42.9756 111.83 35.905 109.739 36.5289C108.972 37.2914 108.484 36.9448 108.135 36.7369C108.344 36.1823 108.554 35.4198 108.693 34.172C97.1893 33.7561 108.275 31.1913 93.8428 30.8447C90.9843 28.0719 94.8189 25.2298 87.7075 25.9923C83.7336 25.5764 87.5681 27.7946 85.4765 28.5572C84.361 28.4185 83.1061 28.6265 81.642 28.9731C82.5483 30.8447 83.2455 32.7857 83.8033 34.7959C83.9427 34.8652 83.9427 35.0039 83.873 35.2118C84.2913 36.8755 84.5005 38.5392 84.6399 40.2722C86.6618 41.6586 86.2434 44.362 87.9864 47.6201C88.1956 47.9667 88.4047 48.3133 88.6139 48.6598C88.6836 48.7292 88.7533 48.7985 88.7533 48.8678C92.8667 54.552 90.566 51.9179 97.6076 53.6509C101.442 62.5238 96.0041 55.1066 91.4027 53.7202C90.6357 51.9872 88.1259 56.493 84.9885 56.6316C82.618 58.0873 88.8928 58.9885 85.8948 59.0578C84.5702 58.4339 82.6181 58.0873 81.0145 57.3248C75.7159 67.2375 65.1883 74.0308 53.0572 74.0308C50.4078 74.0308 47.7585 73.6842 45.2486 73.0604C42.7388 72.4365 40.2986 71.466 37.9281 70.2183L21.1258 74.5854L25.5879 58.2953C22.7991 53.5815 21.4047 48.1053 21.4047 42.5597C21.4047 25.2298 35.5577 11.1579 52.9875 11.1579C61.4235 11.1579 69.3714 14.4159 75.3673 20.3081C75.7856 20.724 76.0645 21.0706 76.4828 21.4172C79.1321 20.2388 83.7335 19.2683 85.5462 20.5161C83.5244 26.6162 95.6555 21.4866 92.6576 20.6547C90.9843 20.8627 85.5462 19.5456 90.566 19.9615C95.0978 6.30555 78.3652 9.2863 70.4869 3.53277C53.4755 -4.85491 39.6711 3.6714 24.3329 8.73174C15.9666 16.4955 20.847 8.03854 16.6638 9.91017C18.1976 15.3864 12.0624 7.34535 13.9448 17.3274C12.2715 19.4763 11.7835 15.5251 8.78557 18.0899C8.57641 24.8139 9.20389 31.5379 0.000976562 32.647C3.62637 41.4506 -3.76386 48.1053 5.99681 55.0373C13.4567 50.3235 15.7575 79.0218 26.7034 81.448C28.9344 81.656 26.1456 88.9346 26.1456 84.1515C26.4942 82.9731 20.9864 81.9333 22.5202 79.7844C23.2174 78.6753 19.3131 78.19 19.0343 76.3877C15.13 73.8229 21.0561 82.5571 12.8293 75.4865C12.7596 73.199 11.2955 74.5854 9.97079 73.7536C9.06444 72.2285 8.64613 69.941 7.18203 70.9808C13.5265 78.9525 5.16018 76.2491 9.2736 79.923C13.2476 83.1117 12.1321 77.7741 11.9229 76.9423C19.1737 79.5764 17.6399 90.8755 22.3111 90.3903C23.2174 89.4198 32.6295 95.104 25.0301 88.9346C22.8688 83.8049 28.5161 90.5982 28.4463 85.8152C31.5837 95.312 37.8584 86.855 42.3902 93.7176C44.9698 95.7972 42.8782 92.6778 44.6909 92.5392C50.8959 94.4108 51.5234 100.719 50.5473 91.2914C52.2205 90.1823 58.0072 90.5982 54.8699 87.6868C50.5473 88.38 49.9198 92.1926 48.1071 85.6765C50.1987 84.7754 47.4099 90.6675 52.9875 85.0527C54.0332 84.8447 57.4495 85.9538 57.0312 84.2901C55.2185 83.181 56.334 79.923 57.5192 80.2696C59.2622 81.0321 59.7502 86.855 63.0967 82.9037C66.5827 78.8832 68.3954 83.0424 70.6264 80.5469C71.5327 77.7741 74.2518 73.199 71.6722 70.9808C71.7419 66.683 76.6919 74.5161 78.4349 70.9115C81.5723 68.9012 94.8189 74.1695 97.3985 68.1387C101.442 67.9307 98.0957 74.3774 102.488 67.4455C102.976 65.0193 100.745 66.267 100.745 65.0193C102.627 62.6624 99.7689 56.493 102.279 56.2157C105.765 61.6226 107.856 55.7998 106.95 61.484C108.972 67.6534 92.7273 73.8229 109.878 69.941C106.323 70.0103 108.763 66.1977 110.018 64.6727C110.087 61.3453 109.042 62.2465 110.575 60.0283C114.689 53.3043 104.161 45.0552 116.641 48.4519C117.826 48.1053 112.528 45.6098 110.715 43.1836ZM89.6597 27.448C90.0083 27.864 90.3569 29.0424 89.6597 29.181C88.6836 29.7356 87.9167 26.4776 89.6597 27.448ZM89.1716 35.905C88.7533 35.6971 88.7533 34.7266 89.5202 34.172C90.4963 32.855 90.7752 36.4596 89.1716 35.905ZM85.616 17.9512H85.4068C85.616 17.674 85.4765 17.674 85.616 17.9512ZM74.8792 13.9307C74.8095 14.1387 74.8792 14.1387 74.6701 14L74.8792 13.9307ZM66.1644 10.6727C63.3756 8.03854 72.4391 4.84984 73.6243 8.03854C69.4411 7.83058 69.1623 11.9898 66.1644 13.2375C63.2362 13.3762 67.8376 11.1579 66.1644 10.6727ZM62.3298 9.42493C63.3059 10.742 62.6784 9.91017 63.2362 10.534C64.0031 11.4352 61.7023 12.9602 61.7023 9.56357C61.7023 9.14766 62.0509 8.9397 62.3298 9.42493ZM2.78974 36.8755C1.1862 36.9448 2.85945 34.6573 2.65029 33.7561C4.53271 32.1618 3.13833 36.0437 2.78974 36.8755ZM10.8074 21.4866C10.668 21.4866 10.3194 20.4468 11.0166 20.1695C12.2018 19.9615 11.6441 21.4866 10.8074 21.4866ZM11.9927 55.3839C11.0863 55.2452 11.5743 53.8588 12.3412 54.3441C12.899 54.6907 12.6898 55.5225 11.9927 55.3839ZM10.8771 75.3479C11.0166 75.1399 10.9469 75.1399 11.0166 75.3479H10.8771ZM21.4744 84.3595C21.8928 83.8742 22.3808 84.2901 24.054 85.2606C25.0301 87.0629 20.2892 86.9936 21.4744 84.3595ZM46.9916 91.3607C46.2944 91.4994 46.9219 90.4596 47.131 91.1528C47.0613 91.2914 47.0613 91.3607 46.9916 91.3607ZM58.2861 80.0616C58.4255 79.8537 58.4255 79.8537 58.4953 80.0616H58.2861ZM61.0051 80.7548C60.2382 80.9628 59.8896 78.9525 61.0051 78.7446C64.3517 77.7741 63.0967 81.3787 61.0051 80.7548ZM67.7679 79.2298C67.3496 79.3684 67.2101 79.1605 67.2101 79.0218C67.2799 78.1207 68.744 78.9525 67.7679 79.2298ZM75.8553 68.8319C75.925 68.7625 75.9947 68.7625 76.2039 68.7625C76.9011 69.0398 75.5764 69.2478 75.8553 68.8319ZM76.8314 66.8909V66.7523C77.1102 66.8216 77.18 66.8216 76.8314 66.8909ZM88.6836 62.1772C88.5442 62.2465 88.4745 62.3158 88.2653 62.3851C87.1498 63.4942 84.8491 65.9204 83.1758 66.1284C80.8751 67.7921 90.9843 65.1579 87.4984 66.7523C86.1737 66.4057 86.4526 66.1977 86.592 67.4455C86.104 68.7625 76.9708 70.5649 80.2476 67.0989C78.3652 63.9102 81.9906 64.95 81.2237 61.6226C83.4547 60.5828 85.4068 64.0488 88.335 62.3158C88.823 61.8306 89.1019 61.6226 88.6836 62.1772ZM89.6597 65.9898C89.1019 66.0591 88.6836 64.95 89.5202 64.3954C91.2632 63.2863 91.4724 65.6432 89.6597 65.9898ZM91.821 61.5533C91.6815 61.3453 91.821 61.1374 92.0301 61.0681C92.5879 61.0681 92.0998 62.1772 91.821 61.5533ZM96.8407 60.5135L97.1893 60.6521C96.7013 60.7908 96.8407 60.7908 96.8407 60.5135ZM100.257 54.8986C100.396 54.552 100.466 54.552 100.606 54.9679C100.396 55.1759 100.257 55.1066 100.257 54.8986ZM100.954 49.353C98.2351 53.7895 101.721 46.0257 102.767 44.362C105.137 44.9166 104.789 50.0462 106.671 51.9872C103.394 50.6701 101.93 54.1361 100.954 49.353ZM106.462 66.6136C106.323 65.9898 107.229 65.9898 107.159 66.5443C107.229 66.8909 106.532 66.8909 106.462 66.6136ZM107.368 37.9846C106.183 40.9654 100.745 36.8062 104.161 37.2221C105.834 37.2914 106.811 37.846 107.438 37.638C107.438 37.7073 107.368 37.846 107.368 37.9846ZM77.18 43.1143C76.0645 42.629 79.0624 47.7587 76.1342 45.8871C74.8792 40.4801 74.8095 44.6393 72.9968 42.6984C74.1123 40.1335 69.0228 38.6085 68.6742 38.5392C68.6742 38.2619 68.6045 37.9846 68.6045 37.7767C68.6045 32.0231 76.2736 35.4198 78.4349 39.5097H79.0624C78.9229 38.3312 78.7138 37.2221 78.4349 36.113C77.7377 35.9744 77.7377 35.5584 78.0863 35.0039C77.5983 33.4788 77.0405 32.0925 76.2736 30.6367C74.0426 31.1913 72.0905 31.122 70.975 29.389C67.3496 29.4583 72.6482 35.4891 64.77 31.2606C62.6784 27.9333 70.2081 28.0026 73.9032 26.8935C73.206 25.923 72.3693 25.0912 71.5327 24.19C66.5827 19.199 60.0291 16.4955 52.9177 16.4955C38.4162 16.4955 26.6337 28.2106 26.6337 42.629C26.6337 47.5507 28.0978 52.3338 30.6076 56.5623L31.2351 57.6021L28.5858 67.2375L38.5556 64.6034L39.5317 65.1579C43.5754 67.5148 48.1768 68.7625 52.9177 68.7625C58.6347 68.7625 63.8636 66.9602 68.1862 63.9102C72.5088 60.8601 75.8553 56.5623 77.668 51.502C76.5525 50.3235 74.4609 49.0758 76.4131 47.1348C77.5286 47.3428 78.2955 47.2735 78.8532 47.1348C78.9927 46.1643 79.2018 45.2632 79.2018 44.2927C78.8532 43.8075 78.0166 43.2529 77.18 43.1143ZM66.4432 27.5867C66.0249 27.7253 66.2341 27.7253 65.8855 27.5174C66.2341 27.448 66.1643 27.448 66.4432 27.5867ZM68.6742 53.9281C68.0468 55.7305 64.8397 57.3941 63.3756 57.6714C62.0509 57.8794 60.2382 58.018 58.3558 57.3248C57.2403 56.9089 55.7065 56.4236 53.8241 55.6611C45.8761 52.2645 40.7169 44.362 40.2986 43.8075C39.8803 43.2529 37.0218 39.5097 37.0218 35.6278C37.0218 31.7459 39.1134 29.8742 39.8105 29.0424C40.5077 28.2799 41.4141 28.0026 41.9021 28.0026H43.4359C43.924 28.0026 44.5514 27.864 45.1789 29.3197C45.8064 30.914 47.4099 34.7959 47.6191 35.1425C47.8282 35.5584 47.9677 36.0437 47.6888 36.4596C47.4796 37.0141 46.5733 38.1233 45.667 39.1631C45.3184 39.579 44.9 39.9256 45.3184 40.7574C45.8064 41.5199 47.4099 44.0848 49.7107 46.2337C52.7086 48.9371 55.2882 49.6996 56.0551 50.1156C56.822 50.5315 57.31 50.4622 57.7283 49.9076C58.2164 49.353 59.7502 47.6201 60.1685 46.7882C60.7263 46.0257 61.2143 46.1643 61.9115 46.3723C62.6087 46.5803 66.5129 48.5212 67.3496 48.9371C68.1165 49.353 68.6742 49.4917 68.8834 49.9076C69.3017 50.5315 69.3017 52.1258 68.6742 53.9281ZM70.9053 48.1053C70.4869 48.5905 69.72 48.1746 69.9989 47.5507C70.3475 46.9962 71.2538 47.6894 70.9053 48.1053Z" fill="white"/>
</svg>
