<svg width="764" height="894" viewBox="0 0 764 894" fill="none" xmlns="http://www.w3.org/2000/svg">
<path fill-rule="evenodd" clip-rule="evenodd" d="M318.971 683.977C317.157 690.303 310.693 684.827 307.12 687.339C304.846 688.937 300.976 688.812 299.68 691.367C298.85 693.113 298.146 694.89 297.213 696.508C296.454 697.964 292.711 697.87 291.43 695.403C286.762 686.981 307.451 685.984 282.286 679.426C275.455 677.655 282.13 686.67 273.433 688.136C270.055 688.746 263.916 697.913 263.407 702.199C262.96 705.68 260.663 707.375 252.976 716.267C248.487 721.426 245.547 722.452 235.255 723.835C233.59 724.044 232.312 723.219 232.056 721.515C231.024 715.827 233.625 715.642 233.897 712.324C234.47 702.823 238.53 697.764 231.693 697.119C219.105 695.788 218.557 694.731 216.699 698.482C212.959 706.082 213.827 708.037 210.94 707.742C209.115 707.501 206.306 701.38 207.119 698.604C209.155 691.922 207.613 684.468 210.791 678.065C211.055 674.232 211.295 670.496 211.281 666.698C211.358 665.281 208.04 663.444 205.846 665.268C202.084 668.554 203.954 677.421 199.328 675.983C196.94 675.297 198.237 672.742 198.383 664.983C198.509 658.962 201.03 658.553 203.476 650.74C204.218 648.255 201.406 644.901 198.471 644.799C177.13 644.612 176.637 643.876 174.289 648.534L174.915 648.174C168.922 639.12 168.984 638.315 167.056 637.946C164.089 637.427 159.566 640.527 159.853 636.597C160.174 628.676 162.823 623.887 158.646 625.02C158.067 625.187 157.624 625.899 157.379 626.352C154.162 633.464 149.082 630.582 147.646 624.898C146.322 619.856 141.415 621.222 138.012 620.288C134.505 619.226 131.204 618.42 130.063 624.192C128.789 631.061 121.755 626.266 121.359 631.194C122.439 632.279 125.33 629.805 126.254 627.672C128.103 623.406 126.938 618.814 126.963 614.307C126.987 614.21 125.21 613.776 125.059 613.842C121.997 618.119 117.553 621.444 112.911 625.028C102.328 622.648 100.173 623.763 102.528 613.569C103.38 610.085 108.973 601.502 103.3 599.399C100.451 598.395 98.3368 600.443 97.6723 601.511C95.079 606.621 97.2121 611.655 87.4508 617.476C85.4224 618.621 82.5912 618.648 82.4916 615.752C81.7919 604.299 96.245 606.804 88.508 593.324C87.4663 591.531 86.6374 588.867 87.3256 587.702C94.1449 576.855 93.678 567.203 94.7331 562.332C95.6228 558.139 101.911 557.727 105.811 556.628C115.371 553.835 118.922 567.933 125.791 558.534C129.027 554.094 128.965 554.899 140.301 556.95C146.361 558.02 145.396 559.22 149.517 547.304C149.88 546.367 149.409 543.893 145.072 544.577C130.777 546.932 139.345 533.332 134.803 524.941C133.34 522.122 127.465 523.046 125.297 526.414C121.8 531.918 117.589 537.044 115.672 543.242C113.225 551.054 98.1016 550.745 91.0915 545.853C87.0743 543.026 80.7774 542.923 81.3361 540.086C81.7766 537.732 86.8129 538.039 89.8506 538.268C96.2832 538.916 98.8092 531.328 99.0406 527.077C99.308 520.476 96.0014 520.796 93.0496 519.665C81.3218 515.364 88.227 503.615 90.8962 501.498C94.413 498.665 89.7885 492.817 98.97 491.573C102.173 491.125 108.423 491.42 109.076 488.195C109.564 485.648 111.373 476.039 109.83 472.995C103.108 459.764 119.31 434.183 112.182 429.775C107.737 427.048 106.85 432.883 103.059 432.983C99.2684 433.082 106.94 414.341 109.329 400.155C110.657 391.967 121.968 383.653 121.785 362.378C121.813 355.103 128.394 354.044 130.013 349.619C140.122 322.55 139.535 322.201 138.192 320.54C133.925 314.882 127.127 309.119 123.495 314.078C121.493 316.768 122.5 326.963 115.777 318.142L115.951 317.979C107.429 304.41 111.253 310.78 113.485 297.787C122.87 289.105 122.512 288.915 124.741 289.152C136.995 290.197 134.378 284.942 143.781 283.341C151.067 282.147 155.392 283.716 156.981 280.514C164.032 265.416 179.171 250.243 171.91 211.136C169.607 199.087 177.196 193.351 168.807 178.686C170.376 162.352 176.934 177.902 194.35 173.233C207.612 169.601 204.517 162.999 213.844 158.406C214.943 156.11 215.05 153.469 216.887 151.456C217.805 150.45 222.493 151.082 223.399 152.329C224.281 153.673 224.502 157.727 229.237 158.165C238.199 158.919 239.189 168.083 245.7 162.905C248.868 160.397 251.52 157.25 249.118 152.765C246.819 148.409 247.446 143.639 243.887 139.488C237.675 132.432 245.206 130.784 248.809 127.049C250.772 125.067 248.863 121.319 245.468 120.9L236.149 119.957C230.763 113.923 235.723 111.237 229.102 106.954L229.206 107.081C238.703 105.094 244.297 106.973 255.177 111.989C260.502 114.418 270.676 113.519 271.946 109.419C274.945 99.8951 266.134 94.6661 276.005 87.8465C287.476 79.9819 284.373 68.455 287.655 62.1797C289.711 58.1691 295.627 58.1783 297.445 59.5454C300.518 61.8344 305.697 67.6124 309.403 64.0048C316.696 57.2737 316.662 55.2139 323.795 52.4435C329.723 50.1994 333.035 53.1621 339.638 56.416C349.686 61.537 350.102 59.2798 383.509 61.286C392.518 61.8458 401.61 64.2718 410.65 63.6081C413.782 63.4502 417.162 64.4809 420.51 65.0934C429.537 66.6831 438.508 67.9515 447.669 68.4455C504.987 71.6772 559.446 103.133 581.364 132.897C584.288 136.894 589.346 135.462 592.581 135.432C624.444 134.395 615.111 150.576 629.255 163.159C638.626 171.602 643.427 168.467 652.058 170.576C665.363 173.928 668.062 181.049 665.419 184.711C662.578 188.632 656.997 194.961 653.166 200.179C651.188 202.773 654.048 205.933 657.496 205.032C673.557 200.955 674.189 199.468 677.761 201.366C683.451 204.5 680.292 207.523 679.574 209.912C677.08 217.918 711.668 215.085 706.226 234.063C705.058 238.291 707.213 241.586 711.634 244.409C713.373 245.552 713.505 248.866 712.206 249.78C698.336 260.853 692.803 266.989 680.566 266.974C666.029 267.013 660.819 277.33 654.501 278.966L655.682 278.537C653.325 282.679 657.537 288.015 662.924 289.639C665.312 290.325 667.724 290.914 670.088 291.697C671.715 292.196 673.148 296.239 672.174 296.924C653.773 310.583 645.376 301.455 637.822 313.661C634.768 318.453 627.317 315.915 627.664 320C627.971 323.152 629.086 326.296 627.266 329.339C624.877 333.063 628.402 335.154 632.401 336.952C635.076 338.118 635.556 341.107 630.443 342.217C625.48 343.261 614.954 336.793 615.419 355.265C615.465 359.481 625.643 361.865 631.743 357.817L631.696 358.01C634.923 357.465 638.111 357.629 641.317 358.822C648.292 361.654 652.172 357.884 660.247 354.01C665.438 351.483 670.879 362.248 660.419 362.667C645.083 363.229 646.406 362.219 643.321 362.183C634.113 361.883 642.776 368.819 624.973 374.522C622.056 375.45 622.442 378.826 626.639 380.365C628.853 381.213 632.16 380.892 632.029 383.63C631.765 387.463 623.245 390.407 616.246 387.672C615.762 387.451 614.407 388.043 614.312 388.43C613.289 393.719 621.001 401.244 622.125 404.903C623.75 409.812 628.946 410.569 633.327 412.459C634.549 412.963 638.182 414.056 639.925 412.43C642.142 410.51 639.524 409.665 636.16 403.613C635.77 403.005 637.941 401.279 638.98 401.43C644.589 402.697 649.866 405.32 655.688 405.716C657.657 407.018 659.752 408.35 661.745 409.555C658.158 408.268 648.356 413.156 645.29 420.202C644.318 422.529 643.727 424.948 641.176 426.582C639.771 436.187 640.386 433.671 638.85 435.552C640.022 434.607 640.657 434.762 640.453 436.148C637.12 434.924 641.404 435.56 641.223 426.388C645.998 432.17 650.887 429.774 658.856 428.541C663.747 427.787 666.937 434.002 664.967 437.111C661.329 443.196 659.039 449.817 654.432 455.46C649.952 461.135 656.048 464.265 649.873 471.372C649.651 471.728 649.867 472.499 650.28 473.01C653.252 476.813 652.937 473.146 673.087 467.197C675.274 466.5 677.837 467.023 680.376 467.644C682.533 468.171 684.204 471.245 682.857 472.352C671.223 482.536 669.573 482.133 667.969 485.946C663.638 495.965 663.513 501.986 659.06 504.796C649.854 510.547 660.188 516.148 653.651 519.782C651.02 521.191 646.152 521.848 647.848 526.467C648.963 529.611 648.604 527.78 645.5 531.124C644.431 532.196 645.346 533.958 646.536 534.044C650.232 534.331 648.249 529.231 648.025 527.946C651.26 532.326 652.665 533.182 652.678 536.98C652.798 542.548 649.152 543.708 644.115 543.401C638.294 543.005 643.154 552.294 643.298 553.355C644.059 557.951 643.09 557.509 632.482 564.046C627.554 567.15 627.23 562.969 620.757 556.977C618.24 554.619 608.288 555.162 605.491 561.658C602.306 569.188 617.606 575.387 608.388 578.981C593.092 584.886 593.092 584.886 591.884 583.77C589.7 581.699 588.816 578.713 584.913 578.17C581.264 577.689 579.301 579.671 576.693 580.983C569.3 584.818 570.06 578.952 571.764 578.035C591.104 566.041 584.457 570.674 594.119 551.496C596.514 546.645 599.096 549.84 605.586 546.4C611.323 543.288 609.659 539.087 608.737 532.4C614.618 530.35 614.512 528.58 616.438 512.435C616.548 511.437 614.151 510.236 613.288 511.564C610.409 516.193 606.713 526.368 609.277 532.943C607.498 526.457 604.588 526.259 606.172 519.774C607.661 513.676 610.162 510.595 609.476 502.94C609.194 499.692 609.673 496.629 610.961 493.559C612.494 490.036 615.123 472.115 610.11 471.711C603.654 471.159 599.564 498.365 598.947 499.24C592.869 507.602 581.5 545.337 572.773 548.025C565.48 550.347 565.485 553.63 555.785 573.517C548.433 588.746 540.858 587.819 537.887 594.478C533.161 605.016 544.367 605.394 540.536 615.022C535.883 626.911 541.567 635.581 532.381 639.594C531.05 640.089 529.981 641.162 529.443 642.261C525.586 650.344 520.125 657.831 515.657 665.662C511.485 665.669 505.941 665.238 505.081 668.207C503.583 673.79 499.514 678.335 496.667 683.383C493.131 689.596 489.977 695.902 487.076 702.271C485.195 706.119 478.106 707.054 475.539 703.247C474.37 701.423 473.456 699.661 472.287 697.838C471.405 696.494 466.646 696.152 465.704 697.255C460.495 703.162 456.377 712.31 455.907 715.887C455.233 720.851 459.914 722.61 464.826 724.528C471.238 726.914 471.376 729.102 475.731 735.499C477.83 738.473 476.994 741.346 470.872 747.132C468.607 749.246 462.928 748.269 462.954 749.814C462.924 751.037 468.517 757.326 460.227 756.019C440.96 752.851 453.935 774.072 439.972 770.661C437.052 769.948 431.6 767.488 429.677 774.813C428.944 777.813 429.977 779.091 434.198 780.533C436.92 781.505 437.89 783.588 436.195 785.021C432.631 788.047 429.625 782.185 422.554 784.15C410.275 787.612 413.797 788.062 400.618 799.612C392.92 806.347 387.494 794.971 381.19 800.405C377.776 803.366 374.874 803.683 370.819 801.564C363.445 797.609 364.432 805.132 362.849 807.207C355.815 817.283 352.203 810.042 354.086 801.784C354.63 799.558 352.994 798.543 349.664 798.961C341.918 799.838 341.894 799.934 341.408 793.662C340.705 784.977 329.444 790.329 324.067 784.811C320.62 781.302 315.412 782.799 314.359 778.85C313.418 775.543 326.605 774.969 336.172 781.511C348.5 789.958 346.753 767.378 353.377 758.432C354.39 757.038 349.281 750.97 356.7 748.68C359.039 747.918 359.366 738.869 357.383 733.77C353.427 724.085 360.851 725.079 352.969 714.948C348.058 708.62 359.706 712.696 362.872 708.547C364.28 706.634 365.456 702.922 367.955 698.199C371.996 690.468 365.941 688.271 370.208 683.467C375.663 677.107 387.114 656.11 376.755 655.015C372.297 654.542 371.293 656.45 363.061 651.055C356.337 646.643 359.14 653.892 349.78 658.067C341.324 661.848 341.781 664.934 344.686 666.259C350.979 669.129 363.066 664.8 361.644 673.375C361.283 675.954 360.716 678.277 362.353 680.933C364.484 684.325 353.742 702.419 348.165 695.518C344.859 691.429 343.75 687.158 338.437 686.886C330.616 686.411 336.374 681.562 325.972 677.892C324.369 677.296 323.218 676.502 322.764 675.057C320.29 675.274 317.854 674.781 315.933 673.286C303.657 663.519 303.371 663.039 303.36 660.882C302.543 645.503 294.973 647.859 294.081 650.41C292.699 653.868 292.078 657.511 288.711 660.278C286.668 662.035 288.302 667.46 290.938 669.335C300.537 676.295 307.142 681.19 314.577 678.288C329.905 672.802 320.43 679.103 318.971 683.977ZM292.245 154.069C292.018 155.552 291.835 155.2 293.033 155.8C291.953 154.716 288.995 154.711 292.245 154.069ZM202.21 204.384C203.53 201.732 202.226 199.362 199.439 197.553C196.216 195.33 193.144 193.041 189.224 191.468C186.399 190.368 185.201 185.357 183.3 186.534C181.723 187.482 181.778 192.213 182.359 193.689C186.15 204.05 179.124 204.18 182.718 210.392C185.27 214.81 190.853 224.994 194.432 221.356C201.209 213.985 200.249 208.007 202.21 204.384ZM165.443 527.81C164.444 533.002 174.555 532.907 176.315 532.312C194.23 527.252 190.551 527.994 182.311 517.674C180.865 515.885 178.279 515.458 175.853 515.481C168.953 515.642 167.11 518.781 165.443 527.81ZM623.709 228.266C634.474 230.998 635.658 232.21 641.816 219.663C642.868 217.561 640.053 212.566 634.671 214.225C625.619 217.142 619.52 227.242 623.709 228.266ZM111.464 570.932C98.1831 577.944 94.9214 576.429 97.3619 580.205C101.36 586.412 111.515 588.893 115.245 585.188C123.424 577.033 118.278 567.263 111.464 570.932ZM185.131 273.75C194.038 263.72 192.889 264.568 192.987 261.412C193.041 260.092 189.682 257.323 188.215 257.272C185.106 257.333 181.744 257.333 179.47 258.931C166.954 267.771 181.561 277.903 185.131 273.75ZM641.275 511.528C641.644 509.464 637.296 507.992 636.298 508.774C619.73 523.188 637.551 528.977 641.275 511.528ZM623.455 455.073C644.957 451.3 633.972 440.104 630.204 444.517C627.75 447.404 625.169 450.261 621.921 452.545C620.923 453.326 622.623 455.178 623.455 455.073ZM442.067 519.791C436.843 515.848 434.839 527.358 433.553 532.07C433.435 532.554 434.078 533.224 434.492 533.735C435.221 533.503 436.434 533.492 436.656 533.135C443.402 520.937 443.655 520.999 442.067 519.791ZM151.529 597.436C151.065 589.425 144.299 588.491 143.931 596.606C143.85 600.791 151.709 600.557 151.529 597.436ZM168.76 601.235C165.087 605.261 167.757 609.195 169.121 609.118C171.421 609.064 174.182 604.918 172.202 601.46C171.32 600.116 169.504 600.391 168.76 601.235ZM234.443 175.95C231.386 179.101 237.966 182.451 239.593 178.541C240.754 175.44 236.953 173.383 234.443 175.95ZM138.862 585.419C141.652 584.459 142.072 579.434 137.83 579.731C133.865 579.993 136.072 586.378 138.862 585.419ZM375.001 793.252C377.313 790.945 372.369 788.609 370.104 790.723C367.514 793.064 371.596 796.728 375.001 793.252ZM357.384 786.077C358.108 786.972 361.007 785.013 359.853 782.578C358.7 780.142 354.985 783.235 357.384 786.077ZM429.544 555.09C428.709 553.553 424.16 555.109 427.374 556.817C428.215 557.227 430.196 556.275 429.544 555.09ZM381.75 643.928C382.281 643.955 383.146 644.269 383.344 644.009C386.093 642.117 381.037 639.138 381.75 643.928ZM515.862 649.405C515.283 649.571 514.474 649.579 514.126 649.904C512.345 652.238 517.939 654.117 515.862 649.405ZM192.082 554.214C196.159 554.595 195.003 550.517 193.433 550.339C189.125 549.8 190.766 554.098 192.082 554.214ZM642.777 503.177L644.276 503.646C643.869 502.008 644.25 502.101 642.777 503.177Z" fill="#CFCFCF"/>
<path fill-rule="evenodd" clip-rule="evenodd" d="M100.314 679.9C102.562 676.757 104.912 673.741 105.073 669.78C105.243 661.924 111.608 660.095 113.592 660.784C131.262 666.639 129.799 663.82 140.983 670.347C145.348 672.849 142.286 677.127 141.305 678.938L142.011 678.803C119.06 668.684 126.651 710.846 113.349 709.135C106.964 708.293 105.267 708.084 96.7966 697.605C95.2473 695.688 95.5259 691.243 95.3019 689.957C94.341 683.979 81.9513 682.389 76.8142 683.595C74.3963 684.133 72.0703 682.642 71.9558 680.357C71.7205 676.915 70.0031 674.034 67.6274 671.095C68.5806 672.148 70.0366 670.043 71.9319 669.993C112.131 670.069 103.247 699.283 122 682.53C129.745 675.602 121.859 668.24 118.11 669.272C110.888 671.303 104.676 674.709 100.314 679.9Z" fill="#CFCFCF"/>
<path fill-rule="evenodd" clip-rule="evenodd" d="M278.946 761.379C276.436 763.946 275.188 761.897 275.891 760.12C277.764 755.757 278.977 755.746 280.386 753.833C283.599 749.49 286.796 739.707 281.096 736.058C266.934 726.856 259.867 736.514 266.12 723.58C270.982 713.588 262.799 709.641 272.518 707.297C274.659 706.794 279.801 708.871 279.797 711.639C279.89 730.533 298.188 727.208 291.059 737.672C282.601 750.272 285.383 754.849 278.946 761.379Z" fill="#CFCFCF"/>
<path fill-rule="evenodd" clip-rule="evenodd" d="M234.675 85.2385C247.712 84.7307 239.422 72.9624 245.844 71.454C248.563 70.7848 249.738 71.482 260.725 84.3197C269.52 94.5704 266.644 106.893 258.225 103.914C248.077 100.307 250.962 98.9602 239.193 93.7265C234.963 91.7702 233.046 93.5585 229.379 96.4575C230.837 95.9932 224.381 95.4419 226.062 90.2116C226.757 87.9197 227.959 85.7517 228.907 83.5218C226.859 81.9958 229.901 85.5083 234.675 85.2385Z" fill="#CFCFCF"/>
<path fill-rule="evenodd" clip-rule="evenodd" d="M165.268 712.996C165.123 711.936 165.529 707.522 168.954 706.717C172.101 705.948 174.081 709.406 177.608 713.139C184.971 720.989 197.959 704.162 183.916 725.859C180 731.98 189.521 729.895 186.899 742.28C186.506 744.44 173.596 744.979 172.22 736.848C171.5 733.185 172.943 727.281 167.668 721.891C181.521 730.71 180.053 720.198 174.78 720.859C166.86 721.898 167.659 725.785 165.268 712.996Z" fill="#CFCFCF"/>
<path fill-rule="evenodd" clip-rule="evenodd" d="M283.875 785.25C284.404 783.636 285.609 783.109 287.268 784.027C287.855 784.376 287.92 785.212 288.309 785.82C291.718 790.037 295.891 785.621 295.649 783.305C294.715 774.462 299.631 773.611 303.25 775.316C310.511 778.628 302.117 786.013 299.969 792.053C298.958 795.088 301.125 806.592 292.964 800.906C281.706 793.028 280.298 794.94 283.875 785.25Z" fill="#CFCFCF"/>
<path fill-rule="evenodd" clip-rule="evenodd" d="M252.006 776.953C260.895 776.355 264.516 779.701 270.929 777.677C279.595 781.846 255.838 809.17 254.716 801.101C252.75 786.57 252.948 786.311 252.909 776.558C252.909 776.558 252.006 776.953 252.006 776.953Z" fill="#CFCFCF"/>
<path fill-rule="evenodd" clip-rule="evenodd" d="M331.485 730.213C327.841 733.015 327.846 736.299 330.413 740.105L329.897 739.466C330.19 749.281 323.373 751.308 321.008 750.526C317.017 749.243 320.171 747.347 313.748 742.804C310.985 740.898 310.593 738.648 310.703 737.649C313.645 717.343 327.322 720.273 332.149 729.145C333.401 728.425 332.285 729.691 331.485 730.213ZM318.737 732.843C319.855 733.219 321.606 732.108 321.152 730.664C320.09 726.199 315.23 731.781 318.737 732.843Z" fill="#CFCFCF"/>
<path fill-rule="evenodd" clip-rule="evenodd" d="M157.562 189.478C163.51 189.905 168.07 194.917 168.2 196.589C169.469 207.361 160.911 206.604 159.362 204.687C158.043 202.929 158.372 205.983 154.949 191.916C154.804 190.856 156.118 189.33 157.562 189.478Z" fill="#CFCFCF"/>
<path fill-rule="evenodd" clip-rule="evenodd" d="M144.426 748.213C146.251 744.043 155.815 748.943 149.797 754.858C147.311 757.327 149.981 761.262 146.987 763.607C144.841 765.237 140.398 764.152 140.543 760.803C140.869 756.164 141.605 754.806 144.426 748.213Z" fill="#CFCFCF"/>
<path fill-rule="evenodd" clip-rule="evenodd" d="M573.421 619.158C577.824 625.362 556.593 624.175 562.874 614.428C565.263 610.704 567.741 607.719 569.057 612.246C569.791 615.297 572.515 617.911 573.421 619.158Z" fill="#CFCFCF"/>
<path fill-rule="evenodd" clip-rule="evenodd" d="M183.869 679.797C183.895 681.342 183.835 683.789 183.775 686.236C183.506 691.195 176.55 691.035 173.295 688.393C171.04 686.612 172.567 684.216 174.049 683.655C182.894 680.482 179.247 675.591 181.096 671.325C181.973 669.385 185.105 669.227 185.728 671.636C186.533 674.396 185.053 676.599 183.869 679.797Z" fill="#CFCFCF"/>
<path fill-rule="evenodd" clip-rule="evenodd" d="M254.99 757.579C255.462 770.515 257.215 760.584 254.794 774.351C254.661 775.447 253.004 776.171 251.983 777.049C251.983 777.049 252.759 776.624 252.736 776.72C250.522 775.872 247.859 776.862 246.111 775.205C243.927 773.133 245.723 770.187 245.514 768.29C245.376 766.102 242.97 764.386 246.416 761.843C252.682 757.118 250.098 758.333 255.483 758.315L254.99 757.579Z" fill="#CFCFCF"/>
<path fill-rule="evenodd" clip-rule="evenodd" d="M696.07 277.838C700.849 270.39 702.603 266.511 707.793 268.394C727.13 275.682 690.896 285.805 696.07 277.838Z" fill="#CFCFCF"/>
<path fill-rule="evenodd" clip-rule="evenodd" d="M163.067 766.612C167.161 768.022 167.742 769.498 167.771 772.684C168.188 780.888 156.442 779.968 156.301 776.139C156.035 767.869 154.751 763.76 163.067 766.612Z" fill="#CFCFCF"/>
<path fill-rule="evenodd" clip-rule="evenodd" d="M126.171 707.856C128.696 704.678 127.968 700.501 129.604 697.105C130.482 695.166 135.317 694.091 137.968 695.354C140.976 696.806 140.361 699.323 139.363 700.105C138.215 700.952 131.49 700.951 130.771 707.749C130.614 708.942 129.949 710.01 129.181 710.951C128.809 711.373 127.747 711.318 127.017 711.55C126.342 710.462 125.427 708.7 126.171 707.856Z" fill="#CFCFCF"/>
<path fill-rule="evenodd" clip-rule="evenodd" d="M232.603 747.906C234.852 750.814 227.224 751.207 225.721 753.506C225.08 754.478 221.249 759.696 220.122 758.805C218.121 757.086 218.475 755.634 222.477 748.612C224.589 744.922 231.284 746.147 232.603 747.906Z" fill="#CFCFCF"/>
<path fill-rule="evenodd" clip-rule="evenodd" d="M137.336 732.635C138.023 735.879 131.029 736.427 128.343 733.105C123.949 727.416 135.434 723.35 137.336 732.635Z" fill="#CFCFCF"/>
<path fill-rule="evenodd" clip-rule="evenodd" d="M106.443 359.656C105.952 360.562 101.013 361.51 105.519 346.918C105.779 345.853 108.313 343.19 110.503 344.135C111.344 344.546 112.592 346.594 112.079 347.597C111.319 349.053 107.376 358.038 106.443 359.656Z" fill="#CFCFCF"/>
<path fill-rule="evenodd" clip-rule="evenodd" d="M330.481 706.789C320.865 698.799 336.776 690.378 335.801 705.934C335.733 707.866 331.712 707.807 330.481 706.789Z" fill="#CFCFCF"/>
<path fill-rule="evenodd" clip-rule="evenodd" d="M100.445 723.418C102.38 728.712 96.7381 731.436 91.245 728.043C84.8311 724.015 98.5895 718.35 100.445 723.418Z" fill="#CFCFCF"/>
<path fill-rule="evenodd" clip-rule="evenodd" d="M273.065 809.686C273.927 808.358 278.243 809.412 277.85 811.573C276.081 822.115 266.901 818.949 273.065 809.686Z" fill="#CFCFCF"/>
<path fill-rule="evenodd" clip-rule="evenodd" d="M320.748 762.052C321.124 758.861 322.296 757.917 324.289 759.122C326.305 760.229 325.584 760.977 324.24 763.725C323.948 764.372 322.69 766.218 321.754 766.195C319.708 766.31 320.577 763.856 320.748 762.052Z" fill="#CFCFCF"/>
<path fill-rule="evenodd" clip-rule="evenodd" d="M68.94 699.313C67.9754 696.103 72.0734 694.745 74.5673 697.2C86.5442 708.741 70.8454 705.829 68.94 699.313Z" fill="#CFCFCF"/>
<path fill-rule="evenodd" clip-rule="evenodd" d="M661.149 404.281C660.399 395.79 677.063 397.502 672.97 402.143C669.772 405.875 661.728 404.115 662.332 409.903C662.355 409.807 661.199 405.729 661.149 404.281Z" fill="#CFCFCF"/>
<path fill-rule="evenodd" clip-rule="evenodd" d="M671.85 338.999C677.205 340.204 677.685 343.193 673.826 345.225C669.793 347.419 666.114 337.7 671.85 338.999Z" fill="#CFCFCF"/>
<path fill-rule="evenodd" clip-rule="evenodd" d="M167.807 791.257C163.89 791.326 163.661 786.757 167.427 786.754C172.812 786.736 176.959 791.236 167.807 791.257Z" fill="#CFCFCF"/>
<path fill-rule="evenodd" clip-rule="evenodd" d="M209.256 135.337C209.705 133.498 212.336 132.089 213.989 134.134C218.144 139.149 217.899 139.602 216.957 140.705C214.423 143.368 208.018 139.855 209.256 135.337Z" fill="#CFCFCF"/>
<path fill-rule="evenodd" clip-rule="evenodd" d="M120.169 641.57C119.605 641.125 118.613 640.78 118.581 640.362C118.171 637.083 119.642 634.365 122.105 631.992C120.245 629.692 126.361 635.493 120.169 641.57Z" fill="#CFCFCF"/>
<path fill-rule="evenodd" clip-rule="evenodd" d="M160.551 709.178C162.18 711.319 159.7 712.662 158.065 711.647C154.795 709.618 158.612 706.653 160.551 709.178Z" fill="#CFCFCF"/>
<path fill-rule="evenodd" clip-rule="evenodd" d="M338.827 729.34C344.603 731.572 334.104 737.109 332.902 728.816C331.104 730.12 334.042 727.453 338.827 729.34Z" fill="#CFCFCF"/>
<path fill-rule="evenodd" clip-rule="evenodd" d="M141.329 678.842C144.399 679.489 147.619 680.07 150.618 681.008C153.11 681.822 152.607 684.981 150.942 685.19C148.167 685.538 144.127 678.397 141.329 678.842Z" fill="#CFCFCF"/>
<path fill-rule="evenodd" clip-rule="evenodd" d="M309.847 702.056C313.53 704.597 310.846 707.326 306.894 705.335C303.195 703.406 306.393 699.674 309.847 702.056Z" fill="#CFCFCF"/>
<path fill-rule="evenodd" clip-rule="evenodd" d="M383.681 826.552C383.597 829.095 378.31 830.368 378.154 827.15C377.919 823.708 383.796 824.426 383.681 826.552Z" fill="#CFCFCF"/>
<path fill-rule="evenodd" clip-rule="evenodd" d="M121.909 751.738C120.749 750.429 120.906 749.237 122.078 748.292C122.577 747.901 123.781 747.375 124.139 747.565C127.695 750.075 123.712 753.717 121.909 751.738Z" fill="#CFCFCF"/>
<path fill-rule="evenodd" clip-rule="evenodd" d="M157.161 752.246C157.616 749.281 162.375 749.623 163.006 752.546C163.805 756.433 156.548 756.404 157.161 752.246Z" fill="#CFCFCF"/>
<path fill-rule="evenodd" clip-rule="evenodd" d="M553.961 640.455C558.929 642.695 554.29 647.92 551.365 643.924C549.656 641.558 552.739 639.952 553.961 640.455Z" fill="#CFCFCF"/>
<path fill-rule="evenodd" clip-rule="evenodd" d="M255.027 750.819C256.055 748.814 259.506 749.554 259.494 751.807C259.514 754.479 257.851 756.329 254.887 757.451C257.047 759.62 252.584 755.863 255.027 750.819Z" fill="#CFCFCF"/>
<path fill-rule="evenodd" clip-rule="evenodd" d="M206.472 788.804C204.607 787.631 200.464 790.824 206.256 792.444C206.103 790.868 209.385 790.644 206.472 788.804Z" fill="#CFCFCF"/>
<path fill-rule="evenodd" clip-rule="evenodd" d="M289.716 767.395C291.455 768.537 291.62 767.86 290.212 769.772C288.6 768.661 288.458 769.241 289.716 767.395Z" fill="#CFCFCF"/>
<path fill-rule="evenodd" clip-rule="evenodd" d="M222.576 720.123C223.179 719.86 224.003 719.241 224.233 719.399C225.638 720.255 226.036 721.378 225.094 722.482C223.431 724.332 221.295 722.066 222.576 720.123Z" fill="#CFCFCF"/>
<path fill-rule="evenodd" clip-rule="evenodd" d="M82.7249 556.425C83.1767 556.227 83.6521 555.933 84.1038 555.736C84.2631 556.185 84.629 556.89 84.3042 557.118C83.061 558.353 82.45 558.101 82.7249 556.425Z" fill="#CFCFCF"/>
<path fill-rule="evenodd" clip-rule="evenodd" d="M116.389 334.907L114.668 334.794C115.332 333.725 114.928 333.729 116.389 334.907Z" fill="#CFCFCF"/>
<path fill-rule="evenodd" clip-rule="evenodd" d="M234.083 148.785C237.144 148.918 235.818 152.696 233.524 151.623C232.199 150.992 233.02 148.731 234.083 148.785Z" fill="#CFCFCF"/>
<path fill-rule="evenodd" clip-rule="evenodd" d="M229.593 101.638C228.702 99.7792 229.001 98.0061 229.958 96.2911L229.506 96.4884C233.5 99.4126 231.687 101.329 229.864 107.14C229.737 107.109 230.986 104.747 229.593 101.638Z" fill="#CFCFCF"/>
<path fill-rule="evenodd" clip-rule="evenodd" d="M633.963 357.539C634.875 357.659 634.249 358.019 632.18 358.231C631.657 358.719 632.924 357.387 633.963 357.539Z" fill="#CFCFCF"/>
<path fill-rule="evenodd" clip-rule="evenodd" d="M116.355 317.975C116.872 318.614 113.022 316.751 112.181 316.34C107.999 314.19 99.5513 318.486 116.355 317.975Z" fill="#CFCFCF"/>
<path fill-rule="evenodd" clip-rule="evenodd" d="M640.267 320.72C642.201 319.961 641.693 319.837 642.909 321.468C640.975 322.226 641.483 322.35 640.267 320.72Z" fill="#CFCFCF"/>
<path fill-rule="evenodd" clip-rule="evenodd" d="M174.392 648.662C174.36 648.243 174.431 647.953 174.398 647.535C171.877 647.945 175.898 648.004 174.392 648.662Z" fill="#CFCFCF"/>
<path fill-rule="evenodd" clip-rule="evenodd" d="M94.2442 636.469L95.3629 636.845C94.238 637.595 94.4682 637.754 94.2442 636.469Z" fill="#CFCFCF"/>
<path fill-rule="evenodd" clip-rule="evenodd" d="M99.5548 660.432C100.954 662.415 101.119 661.738 98.8604 662.724C97.5649 660.869 97.4467 661.353 99.5548 660.432Z" fill="#CFCFCF"/>
<path fill-rule="evenodd" clip-rule="evenodd" d="M298.407 714.749L297.058 714.214C298.484 713.332 298.127 713.142 298.407 714.749Z" fill="#CFCFCF"/>
<path fill-rule="evenodd" clip-rule="evenodd" d="M67.2491 672.644C65.3688 672.082 65.7408 671.66 68.3181 671.571C67.595 670.677 67.8016 670.932 67.2491 672.644Z" fill="#CFCFCF"/>
<path fill-rule="evenodd" clip-rule="evenodd" d="M331.435 739.227L330.047 739.4C330.54 740.136 330.239 740.268 331.435 739.227Z" fill="#CFCFCF"/>
<path fill-rule="evenodd" clip-rule="evenodd" d="M663.771 551.587L662.526 551.18C663.674 550.333 663.444 550.174 663.771 551.587Z" fill="#CFCFCF"/>
<path fill-rule="evenodd" clip-rule="evenodd" d="M234.977 126.953L234.59 127.986C233.256 126.84 233.185 127.131 234.977 126.953Z" fill="#CFCFCF"/>
<path fill-rule="evenodd" clip-rule="evenodd" d="M236.251 120.085L235.575 118.997C236.139 119.442 236.806 120.015 236.251 120.085Z" fill="#CFCFCF"/>
<path fill-rule="evenodd" clip-rule="evenodd" d="M181.748 765.022L182.135 763.988C183.596 765.165 183.77 765.003 181.748 765.022Z" fill="#CFCFCF"/>
<path fill-rule="evenodd" clip-rule="evenodd" d="M206.256 792.444C205.795 792.126 205.485 791.743 205.025 791.425C204.387 794.038 206.173 790.577 206.256 792.444Z" fill="#CFCFCF"/>
<path fill-rule="evenodd" clip-rule="evenodd" d="M229.034 83.5526C228.526 83.4286 227.995 83.4015 227.487 83.2775C228.012 84.4314 228.29 84.3966 228.24 82.9485C228.113 82.9175 229.034 83.5526 229.034 83.5526Z" fill="#CFCFCF"/>
<path fill-rule="evenodd" clip-rule="evenodd" d="M106.521 318.035C106.592 317.744 106.512 317.52 106.456 317.198C106.377 316.974 106.049 315.561 106.521 318.035Z" fill="#CFCFCF"/>
</svg>
