<svg width="227" height="60" viewBox="0 0 227 60" fill="none" xmlns="http://www.w3.org/2000/svg">
<path d="M100.5 0.400024H0.399902V59.4H100.5V0.400024Z" fill="#FFA500"/>
<path d="M0 0V59.8H100.9V0H0ZM100.1 59H0.8V0.8H100.1V59Z" fill="#2A2960"/>
<path d="M100.1 19.6C100.1 25.4001 96.8999 30.4 91.9999 33.3C90.9999 33.9 89.7999 34.4001 88.5999 34.9001C86.5999 35.6001 84.4999 36 82.2999 36C76.6999 36 71.5999 33.6 68.3999 29.8C67.3999 28.7 66.5999 27.5 65.9999 26.2001C65.8999 26.1 65.8999 26 65.7999 25.8C65.8999 25.9 65.8999 26 65.9999 26.1C66.0999 26.2001 66.1999 26.3 66.1999 26.4C66.2999 26.6 66.4999 26.8 66.5999 27C66.7999 27.3 66.9999 27.5 67.1999 27.7001C68.5999 29.2001 70.3999 30.2001 72.4999 30.7001C73.1999 30.8001 73.8999 30.9 74.5999 30.9C78.2999 30.9 81.5999 28.9 83.3999 25.9C84.2999 24.4 84.8999 22.6 84.8999 20.6C84.8999 17 82.9999 13.8 80.1999 12C78.8999 11.4 77.5999 10.9 76.1999 10.5C74.6999 10.1 73.0999 9.90005 71.4999 9.90005C70.0999 9.90005 68.6999 10.1 67.3999 10.4C58.0999 12.5 51.0999 21.4 51.0999 32.1C51.0999 40.6 55.4999 48 61.8999 51.7001C62.1999 51.9001 62.3999 52 62.6999 52.1C63.9999 52.8 65.3999 53.3 66.8999 53.7001C67.8999 54.1001 68.8999 54.3 69.7999 54.5C69.9999 54.5 70.0999 54.6 70.2999 54.6C70.5999 54.7 70.9999 54.7001 71.3999 54.7001C71.4999 54.7001 71.5999 54.7001 71.6999 54.7001C73.7999 54.8 75.6999 54.4001 77.2999 53.5C77.4999 53.4001 77.6999 53.3 77.8999 53.1C78.6999 52.6 79.2999 51.9 79.7999 51.1C79.8999 50.9 79.9999 50.7001 80.0999 50.4001C80.3999 49.8001 80.5999 49.1001 80.6999 48.4001C80.7999 48.9001 80.7999 49.4001 80.7999 49.9001C80.7999 50.7001 80.6999 51.4001 80.4999 52.2001C80.4999 52.3 80.3999 52.5 80.3999 52.6C80.1999 53.2 79.9999 53.7001 79.6999 54.2001C78.0999 57.2001 74.9999 59 71.5999 59H23.9999C24.1999 59 24.3999 58.9001 24.7999 58.9001C25.1999 58.8001 25.4999 58.8 25.8999 58.7001C27.0999 58.4001 29.4999 57.8 30.1999 56.1C30.8999 54.5 29.2999 53.3 30.1999 51.2001C30.7999 49.7001 32.1999 49.1 31.8999 48.1C31.6999 47.3 30.5999 47 30.5999 46.5C30.6999 45.8 31.9999 45.9001 32.5999 45C33.3999 43.7001 31.7999 42.4001 32.4999 41.2001C33.1999 39.8 35.5999 40.7 36.3999 39.6C36.8999 38.8 36.3999 37.8 34.0999 33.2001C31.9999 29 31.7999 28.6 31.7999 27.9C32.0999 22.1 35.5999 22.3 32.8999 14C32.0999 11 28.5999 3.50005 22.8999 0.800049H75.5999C82.1999 0.800049 88.2999 3.00005 93.0999 6.70005C93.8999 7.30005 94.5999 7.90005 95.2999 8.60005C98.2999 11.5 100.1 15.4001 100.1 19.6Z" fill="#2A2960"/>
<path d="M85.0002 20.8C85.0002 22.7 84.5002 24.5 83.5002 26.1C81.7002 29.1 78.5002 31.1 74.7002 31.1C74.0002 31.1 73.3002 31 72.6002 30.9C70.5002 30.5 68.7002 29.4 67.3002 27.9C67.3002 27.9 67.3002 27.7999 67.2002 27.7999C67.6002 28.1999 68.1002 28.5 68.5002 28.7999C68.7002 28.9 68.8002 29 69.0002 29C70.0002 29.5 71.1002 29.7999 72.2002 29.7999C73.3002 29.7999 74.5002 29.6 75.6002 29.1C76.5002 28.7 77.4002 28.1 78.2002 27.2C79.8002 25.4 80.5002 23 80.1002 20.7C79.9002 19.6 79.5002 18.5 78.8002 17.5C78.3002 16.8 77.6002 16.2 76.9002 15.7C76.8002 15.6 76.7002 15.6 76.6002 15.5C76.3002 15.3 75.9002 15.1 75.5002 14.9C74.7002 14.5 73.9002 14.3 73.0002 14.2C65.3002 13 57.7002 20.9 55.9002 31.9C54.6002 40.4 57.1002 48.2999 62.0002 52C55.6002 48.2999 51.2002 40.9 51.2002 32.4C51.2002 21.7 58.2002 12.7 67.5002 10.7C68.8002 10.4 70.2002 10.2 71.6002 10.2C73.2002 10.2 74.8002 10.4 76.3002 10.8C77.7002 11.1 79.0002 11.7 80.3002 12.3C83.1002 14 85.0002 17.1 85.0002 20.8Z" fill="url(#paint0_linear)"/>
<path d="M79.9 23.8C80.1 22.3 79.7 20.8 78.7 20C77.4 19 75.4 19.1 73.8 20.1C73.2 20.5 72.6 21 72.1 21.7C72 21.8 71.9 21.9 71.9 22C70.6 23.6 69.6 25.9 68.8 28.6C68.3 28.3 67.9 28 67.5 27.6C67.3 27.4 67.1 27.2 66.9 27C66.7 26.7 66.4 26.4 66.2 26C66.1 25.8 65.9 25.5 65.8 25.3C65.9 25.4 65.9 25.6 66 25.7C66.1 25.8 66.1 25.9 66.2 26.1C66.8 27.4 67.6 28.6 68.6 29.7C66.8 38.1 68.8 47.8 73.1 51.6C73.2 51.7 73.3 51.7 73.3 51.8C73.7 52.1 74.1 52.4 74.5 52.6C75 52.8 75.6 53 76.2 53C77.7 53 79.1 52.2 79.9 51C79.4 51.8 78.8 52.5 78 53C77.8 53.1 77.6 53.3 77.4 53.4C75.9 54.3 73.9 54.7 71.8 54.6C71.7 54.6 71.6 54.6 71.5 54.6C71.1 54.6 70.8 54.6 70.4 54.5C70.2 54.5 70.1 54.5 70 54.4C69.8 54.3 69.6 54.2 69.5 54.1C69.1 53.9 68.8 53.7 68.4 53.4C63.8 49.9 61.5 41.8 63.2 32.9C64.2 27.6 66.4 23 69.3 19.8C69.6 19.4 70 19 70.4 18.7C73 16.5 76.3 16 78.4 17.7C79.2 18.4 79.7 19.2 80 20.3C80.2 21.5 80.1 22.7 79.9 23.8Z" fill="url(#paint1_linear)"/>
<path d="M79.8998 23.8C80.1998 22.6 80.1998 21.4 79.9998 20.4C79.6998 19.4 79.1998 18.5 78.3998 17.8C76.2998 16.1 72.9998 16.6 70.3998 18.8C69.9998 19.1 69.5998 19.5 69.2998 19.9C66.3998 23.1 64.1998 27.7 63.1998 33C61.5998 41.8 63.7998 50 68.3998 53.5C68.6998 53.8 69.0998 54 69.4998 54.2C69.6998 54.3 69.8998 54.4 69.9998 54.5C68.9998 54.3 67.9998 54.1 67.0998 53.7C65.5998 53.3 64.1998 52.8 62.8998 52.1C62.5998 52 62.3998 51.8 62.0998 51.7C57.2998 48 54.6998 40.2 55.9998 31.6C57.6998 20.6 65.3998 12.7 73.0998 13.9C73.9998 14 74.7998 14.3 75.5998 14.6C75.9998 14.8 76.2998 14.9 76.6998 15.2C76.7998 15.3 76.8998 15.3 76.9998 15.4C77.6998 15.9 78.2998 16.5 78.8998 17.2C79.5998 18.2 80.0998 19.3 80.1998 20.4C80.5998 22.7 79.8998 25.1 78.2998 26.9C78.3998 26.8 78.3998 26.8 78.4998 26.7C79.1998 26 79.6998 24.9 79.8998 23.8C79.8998 23.9 79.8998 23.9 79.8998 23.8Z" fill="url(#paint2_linear)"/>
<path d="M28.6998 39.5C27.8998 40.7001 25.4998 39.7 24.7998 41.1C24.0998 42.3 25.7998 43.6001 24.8998 44.9001C24.2998 45.8001 23.0998 45.7001 22.8998 46.4001C22.8998 47 23.9998 47.2001 24.1998 48C24.3998 49 23.0998 49.6 22.4998 51.1C21.5998 53.2 23.1998 54.4001 22.4998 56C21.6998 57.7001 19.2998 58.3 18.1998 58.6C17.7998 58.7 17.4998 58.8 17.0998 58.8C16.7998 58.9 16.4998 58.9001 16.2998 58.9001H0.799805V0.800049H15.2998C20.9998 3.50005 24.4998 11 25.1998 13.8C27.8998 22.1 24.4998 22 24.0998 27.7001C24.0998 28.4001 24.2998 28.8 26.3998 33C28.6998 37.7001 29.1998 38.7001 28.6998 39.5Z" fill="#2A2960"/>
<path d="M122.5 35.9H120.3V19.8L106.5 35.9H106V14.9H108.1V31.3L122 14.9H122.5V35.9Z" fill="#2A2960"/>
<path d="M131.7 35.9001H127.2V20.3H131.6C133.3 20.3 134.5 20.7 135.3 21.5C136 22.3 136.4 23.2001 136.4 24.2001C136.4 25.8001 135.7 26.9 134.3 27.4C136.3 28.1 137.3 29.5 137.3 31.5C137.4 34.4 135.5 35.9001 131.7 35.9001ZM129.2 22.1V26.9H130.5C131.7 26.9 132.5 26.8 132.8 26.8C133.2 26.7 133.5 26.5001 133.8 26.1C134.1 25.7 134.3 25.2 134.3 24.6C134.3 24.0001 134.1 23.4 133.8 23C133.5 22.6 133.1 22.3001 132.7 22.2001C132.3 22.1001 131.6 22.1 130.4 22.1H129.2ZM129.2 28.7001V34.1H131.3C132.3 34.1 133 34.0001 133.5 33.9001C133.9 33.8001 134.3 33.5 134.6 33.1C134.9 32.7 135.1 32.1 135.1 31.5C135.1 30.6 134.8 30 134.3 29.5C133.8 29 133.1 28.7001 132.2 28.7001H129.2Z" fill="#2A2960"/>
<path d="M156.3 20.3V35.8H154.3V33.1C153.5 34.1 152.5 34.9 151.5 35.4C150.5 35.9 149.3 36.2 148.1 36.2C145.9 36.2 144 35.4 142.5 33.8C140.9 32.2 140.2 30.3 140.2 28C140.2 25.8 141 23.9 142.6 22.3C144.2 20.7 146.1 19.9 148.3 19.9C149.6 19.9 150.7 20.2 151.8 20.7C152.8 21.2 153.7 22.1 154.5 23.1V20.2L156.3 20.3ZM148.4 21.9C147.3 21.9 146.3 22.2 145.3 22.7C144.4 23.2 143.6 24 143.1 25C142.5 26 142.3 27 142.3 28.1C142.3 29.2 142.6 30.2 143.1 31.2C143.7 32.2 144.4 33 145.4 33.5C146.3 34.1 147.4 34.3 148.4 34.3C149.5 34.3 150.5 34 151.5 33.5C152.5 32.9 153.2 32.2 153.8 31.3C154.3 30.4 154.6 29.3 154.6 28.1C154.6 26.3 154 24.8 152.8 23.6C151.6 22.5 150.1 21.9 148.4 21.9Z" fill="#2A2960"/>
<path d="M171.9 28.4H162.9V35.9001H160.9V20.3H162.9V26.5H171.9V20.3H173.9V35.8H171.9V28.4Z" fill="#2A2960"/>
<path d="M185.6 19.9C188 19.9 190 20.8 191.5 22.5C192.9 24.1 193.6 26 193.6 28.1C193.6 30.3 192.8 32.2 191.3 33.8C189.8 35.4 187.9 36.2 185.5 36.2C183.1 36.2 181.2 35.4 179.7 33.8C178.2 32.2 177.4 30.3 177.4 28.1C177.4 25.9 178.1 24.1 179.5 22.5C181.3 20.8 183.2 19.9 185.6 19.9ZM185.6 21.9C183.9 21.9 182.5 22.5 181.3 23.7C180.1 24.9 179.5 26.4 179.5 28.2C179.5 29.3 179.8 30.4 180.3 31.3C180.8 32.3 181.6 33 182.5 33.6C183.4 34.1 184.4 34.4 185.5 34.4C186.6 34.4 187.6 34.1 188.5 33.6C189.4 33.1 190.2 32.3 190.7 31.3C191.2 30.3 191.5 29.3 191.5 28.2C191.5 26.5 190.9 25 189.7 23.7C188.7 22.5 187.3 21.9 185.6 21.9Z" fill="#2A2960"/>
<path d="M201.9 35.9001H197.4V20.3H201.8C203.5 20.3 204.7 20.7 205.5 21.5C206.2 22.3 206.6 23.2001 206.6 24.2001C206.6 25.8001 205.9 26.9 204.5 27.4C206.5 28.1 207.5 29.5 207.5 31.5C207.6 34.4 205.7 35.9001 201.9 35.9001ZM199.4 22.1V26.9H200.7C201.9 26.9 202.7 26.8 203 26.8C203.4 26.7 203.7 26.5001 204 26.1C204.3 25.7 204.5 25.2 204.5 24.6C204.5 24.0001 204.3 23.4 204 23C203.7 22.6 203.3 22.3001 202.9 22.2001C202.5 22.1001 201.8 22.1 200.6 22.1H199.4ZM199.4 28.7001V34.1H201.5C202.5 34.1 203.2 34.0001 203.7 33.9001C204.1 33.8001 204.5 33.5 204.8 33.1C205.1 32.7 205.3 32.1 205.3 31.5C205.3 30.6 205 30 204.5 29.5C204 29 203.3 28.7001 202.4 28.7001H199.4Z" fill="#2A2960"/>
<path d="M226.5 20.3V35.8H224.5V33.1C223.7 34.1 222.7 34.9 221.7 35.4C220.7 35.9 219.5 36.2 218.3 36.2C216.1 36.2 214.2 35.4 212.7 33.8C211.1 32.2 210.4 30.3 210.4 28C210.4 25.8 211.2 23.9 212.8 22.3C214.4 20.7 216.3 19.9 218.5 19.9C219.8 19.9 220.9 20.2 222 20.7C223 21.2 223.9 22.1 224.7 23.1V20.2L226.5 20.3ZM218.5 21.9C217.4 21.9 216.4 22.2 215.4 22.7C214.5 23.2 213.7 24 213.2 25C212.6 26 212.4 27 212.4 28.1C212.4 29.2 212.7 30.2 213.2 31.2C213.8 32.2 214.5 33 215.5 33.5C216.4 34.1 217.5 34.3 218.5 34.3C219.6 34.3 220.6 34 221.6 33.5C222.6 32.9 223.3 32.2 223.9 31.3C224.4 30.4 224.7 29.3 224.7 28.1C224.7 26.3 224.1 24.8 222.9 23.6C221.7 22.5 220.3 21.9 218.5 21.9Z" fill="#2A2960"/>
<path d="M106 38.6H108.1V47.4H118.8V38.6H120.9V59.6H118.8V49.5H108V59.6H106V38.6Z" fill="#2A2960"/>
<path d="M141 44.0999V59.5999H139V56.9C138.2 57.9 137.2 58.7 136.2 59.2C135.2 59.7 134 60 132.8 60C130.6 60 128.7 59.1999 127.2 57.5999C125.6 55.9999 124.9 54.0999 124.9 51.7999C124.9 49.5999 125.7 47.6999 127.3 46.0999C128.9 44.4999 130.8 43.7 133 43.7C134.3 43.7 135.4 44 136.5 44.5C137.5 45 138.4 45.9 139.2 46.9V44L141 44.0999ZM133.1 45.5999C132 45.5999 131 45.9 130 46.4C129.1 46.9 128.3 47.7 127.8 48.7C127.2 49.7 127 50.6999 127 51.7999C127 52.9 127.3 53.9 127.8 54.9C128.4 55.9 129.1 56.7 130.1 57.2C131 57.8 132.1 58 133.1 58C134.2 58 135.2 57.7 136.2 57.2C137.2 56.6 137.9 55.9 138.5 55C139 54.1 139.3 52.9999 139.3 51.7999C139.3 49.9999 138.7 48.4999 137.5 47.2999C136.2 46.1999 134.8 45.5999 133.1 45.5999Z" fill="#2A2960"/>
<path d="M150 59.6H145.5V44.1H149.9C151.6 44.1 152.8 44.5 153.6 45.3C154.3 46.1 154.7 47 154.7 48C154.7 49.6 154 50.7 152.6 51.2C154.6 51.9 155.6 53.3 155.6 55.3C155.7 58.2 153.8 59.6 150 59.6ZM147.5 45.8V50.6H148.8C150 50.6 150.8 50.5 151.1 50.5C151.5 50.4 151.8 50.2 152.1 49.8C152.4 49.4 152.6 48.9 152.6 48.3C152.6 47.7 152.4 47.1 152.1 46.7C151.8 46.3 151.4 46 151 45.9C150.6 45.8 149.9 45.8 148.7 45.8H147.5ZM147.5 52.5V57.9H149.6C150.6 57.9 151.3 57.8 151.8 57.7C152.2 57.6 152.6 57.3 152.9 56.9C153.2 56.5 153.4 55.9 153.4 55.3C153.4 54.4 153.1 53.8 152.6 53.3C152.1 52.8 151.4 52.5 150.5 52.5H147.5Z" fill="#2A2960"/>
<path d="M174.6 44.0999V59.5999H172.6V56.9C171.8 57.9 170.8 58.7 169.8 59.2C168.8 59.7 167.6 60 166.4 60C164.2 60 162.3 59.1999 160.8 57.5999C159.2 55.9999 158.5 54.0999 158.5 51.7999C158.5 49.5999 159.3 47.6999 160.9 46.0999C162.5 44.4999 164.4 43.7 166.6 43.7C167.9 43.7 169 44 170.1 44.5C171.1 45 172 45.9 172.8 46.9V44L174.6 44.0999ZM166.7 45.5999C165.6 45.5999 164.6 45.9 163.6 46.4C162.7 46.9 161.9 47.7 161.4 48.7C160.8 49.7 160.6 50.6999 160.6 51.7999C160.6 52.9 160.9 53.9 161.4 54.9C162 55.9 162.7 56.7 163.7 57.2C164.6 57.8 165.7 58 166.7 58C167.8 58 168.8 57.7 169.8 57.2C170.8 56.6 171.5 55.9 172.1 55C172.6 54.1 172.9 52.9999 172.9 51.7999C172.9 49.9999 172.3 48.4999 171.1 47.2999C169.8 46.1999 168.4 45.5999 166.7 45.5999Z" fill="#2A2960"/>
<path d="M181.1 44.1V55.6L192.5 44.1H192.7V59.6H190.7V48.2001L179.4 59.6H179.2V44.1H181.1ZM180.8 37.8H182.7C183 38.3 183.5 38.7001 184 38.9001C184.5 39.1001 185.2 39.3 185.9 39.3C186.6 39.3 187.3 39.2 187.7 39C188.2 38.8 188.6 38.4 189 37.8H190.8C190.6 38.7 190.1 39.4 189.2 40C188.3 40.6 187.2 40.9001 185.8 40.9001C184.4 40.9001 183.3 40.6 182.4 40C181.6 39.4 181.1 38.7 180.8 37.8Z" fill="#2A2960"/>
<g opacity="0.98">
<path opacity="0.98" d="M106.1 12V0.199951H112.3V2.39995H108.4V4.69995H108.9C109.9 4.69995 110.7 4.79995 111.3 4.99995C111.9 5.19995 112.5 5.59995 112.9 6.19995C113.3 6.79995 113.5 7.49995 113.5 8.39995C113.5 9.19995 113.3 9.89995 113 10.4C112.7 10.9 112.2 11.3 111.7 11.6C111.1 11.9 110.4 12.1 109.4 12.1H106.1V12ZM108.3 6.59995V9.79995H108.9C109.9 9.79995 110.6 9.69995 110.9 9.39995C111.2 9.09995 111.3 8.79995 111.3 8.29995C111.3 7.19995 110.5 6.59995 108.8 6.59995H108.3Z" fill="#654321"/>
<path opacity="0.98" d="M117.4 12H115.2V3.2H117.4V6.7H118.6C118.9 5.5 119.4 4.6 120.3 4C121.2 3.3 122.1 3 123.1 3C124.4 3 125.5 3.4 126.4 4.3C127.3 5.2 127.8 6.3 127.8 7.6C127.8 8.9 127.4 9.9 126.5 10.8C125.6 11.7 124.5 12.2 123.2 12.2C122.1 12.2 121.2 11.9 120.4 11.2C119.6 10.5 119 9.7 118.8 8.7H117.6V12H117.4ZM125.4 7.6C125.4 6.9 125.2 6.2 124.7 5.8C124.3 5.3 123.7 5.1 123 5.1C122.3 5.1 121.7 5.3 121.3 5.8C120.9 6.3 120.6 6.9 120.6 7.6C120.6 8.4 120.8 9 121.3 9.5C121.8 10 122.3 10.2 123 10.2C123.7 10.2 124.2 10 124.7 9.5C125.2 9 125.4 8.4 125.4 7.6Z" fill="#654321"/>
<path opacity="0.98" d="M131.6 3.2V4.2C132 3.8 132.4 3.5 132.9 3.3C133.4 3.1 133.9 3 134.4 3C135.5 3 136.5 3.4 137.3 4.3C138.1 5.2 138.5 6.3 138.5 7.6C138.5 8.9 138.1 10 137.3 10.9C136.5 11.8 135.5 12.2 134.4 12.2C133.9 12.2 133.4 12.1 133 11.9C132.6 11.7 132.1 11.4 131.7 11V15.1H129.5V3.2H131.6ZM133.9 5C133.2 5 132.6 5.2 132.2 5.7C131.7 6.2 131.5 6.8 131.5 7.5C131.5 8.3 131.7 8.9 132.2 9.4C132.7 9.9 133.2 10.1 133.9 10.1C134.6 10.1 135.1 9.9 135.6 9.4C136.1 8.9 136.3 8.3 136.3 7.5C136.3 6.8 136.1 6.1 135.6 5.7C135.1 5.3 134.6 5 133.9 5Z" fill="#654321"/>
<path opacity="0.98" d="M144.4 3C145.2 3 146 3.2 146.7 3.6C147.4 4 148 4.6 148.4 5.3C148.8 6 149 6.8 149 7.6C149 8.4 148.8 9.2 148.4 9.9C148 10.6 147.4 11.2 146.7 11.6C146 12 145.2 12.2 144.4 12.2C143.1 12.2 142.1 11.8 141.2 10.9C140.3 10 139.9 8.9 139.9 7.7C139.9 6.3 140.4 5.2 141.4 4.3C142.2 3.4 143.2 3 144.4 3ZM144.4 5.1C143.7 5.1 143.2 5.3 142.7 5.8C142.2 6.3 142 6.9 142 7.6C142 8.4 142.2 9 142.7 9.4C143.1 9.9 143.7 10.1 144.4 10.1C145.1 10.1 145.7 9.9 146.1 9.4C146.6 8.9 146.8 8.3 146.8 7.6C146.8 6.9 146.6 6.2 146.1 5.8C145.7 5.3 145.1 5.1 144.4 5.1Z" fill="#654321"/>
</g>
<defs>
<linearGradient id="paint0_linear" x1="45.6794" y1="34.6715" x2="93.3775" y2="25.8952" gradientUnits="userSpaceOnUse">
<stop stop-color="white" stop-opacity="0"/>
<stop offset="0.0207057" stop-color="#F6F6F8" stop-opacity="0.0218329"/>
<stop offset="0.1562" stop-color="#C1C0D0" stop-opacity="0.1647"/>
<stop offset="0.293" stop-color="#9292AE" stop-opacity="0.3089"/>
<stop offset="0.4286" stop-color="#6D6C92" stop-opacity="0.452"/>
<stop offset="0.5628" stop-color="#504F7C" stop-opacity="0.5935"/>
<stop offset="0.6951" stop-color="#3B3A6C" stop-opacity="0.733"/>
<stop offset="0.8247" stop-color="#2E2D63" stop-opacity="0.8696"/>
<stop offset="0.9484" stop-color="#2A2960"/>
</linearGradient>
<linearGradient id="paint1_linear" x1="68.7319" y1="53.3731" x2="77.7438" y2="15.7771" gradientUnits="userSpaceOnUse">
<stop stop-color="white" stop-opacity="0"/>
<stop offset="0.0985502" stop-color="#DDDDE5" stop-opacity="0.0985502"/>
<stop offset="0.2711" stop-color="#A7A7BD" stop-opacity="0.2711"/>
<stop offset="0.4397" stop-color="#7A7A9C" stop-opacity="0.4397"/>
<stop offset="0.6005" stop-color="#575782" stop-opacity="0.6005"/>
<stop offset="0.7515" stop-color="#3E3D6F" stop-opacity="0.7515"/>
<stop offset="0.8888" stop-color="#2F2E64" stop-opacity="0.8888"/>
<stop offset="1" stop-color="#2A2960"/>
</linearGradient>
<linearGradient id="paint2_linear" x1="59.3129" y1="52.7868" x2="73.243" y2="13.1382" gradientUnits="userSpaceOnUse">
<stop stop-color="white" stop-opacity="0"/>
<stop offset="0.3506" stop-color="#AAA9BF" stop-opacity="0.3506"/>
<stop offset="0.6626" stop-color="#65648C" stop-opacity="0.6626"/>
<stop offset="0.8863" stop-color="#3A396C" stop-opacity="0.8863"/>
<stop offset="1" stop-color="#2A2960"/>
</linearGradient>
</defs>
</svg>
