<?xml version="1.0" encoding="utf-8"?>
<!-- Generator: Adobe Illustrator 24.1.1, SVG Export Plug-In . SVG Version: 6.00 Build 0)  -->
<svg version="1.1" id="Capa_1" xmlns="http://www.w3.org/2000/svg" xmlns:xlink="http://www.w3.org/1999/xlink" x="0px" y="0px"
	 viewBox="0 0 84.3 162.2" enable-background="new 0 0 84.3 162.2" xml:space="preserve">
<linearGradient id="SVGID_1_" gradientUnits="userSpaceOnUse" x1="19.9162" y1="81.8525" x2="36.1214" y2="81.9258">
	<stop  offset="0.23" style="stop-color:#FFFFFF;stop-opacity:0"/>
	<stop  offset="0.4645" style="stop-color:#C4C2FF;stop-opacity:0.3045"/>
	<stop  offset="1" style="stop-color:#342AFF"/>
</linearGradient>
<path fill="url(#SVGID_1_)" d="M34.3,85.4c-0.2,0.3,0.3,0.8,0,1.2c-0.2,0.3-0.6,0.3-0.6,0.5c0,0.2,0.3,0.2,0.4,0.5
	c0.1,0.3-0.4,0.5-0.5,1c-0.3,0.6,0.2,1,0,1.5c-0.2,0.5-1,0.7-1.3,0.8c-0.1,0-0.2,0-0.3,0c-0.3,0-0.5,0-0.7,0h-9.8V73h9.2
	c2.2,0.5,3.6,3,3.8,4c0.8,2.5-0.2,2.5-0.3,4.3c0,0.2,0.1,0.3,0.7,1.6c0.7,1.4,0.8,1.7,0.7,2C35.3,85.2,34.5,84.9,34.3,85.4z"/>
<g>
	<linearGradient id="SVGID_2_" gradientUnits="userSpaceOnUse" x1="38.2227" y1="91.4954" x2="40.7377" y2="74.8987">
		<stop  offset="0" style="stop-color:#342AFF"/>
		<stop  offset="1" style="stop-color:#DBD4FF"/>
	</linearGradient>
	<path fill="url(#SVGID_2_)" d="M42,88.9L42,88.9c-1.9,1-4.3,1.6-6.8,1.8c0.4-0.1,1-0.3,1.2-0.8c0.2-0.5-0.3-0.9,0-1.5
		c0.2-0.5,0.6-0.6,0.5-1c-0.1-0.3-0.4-0.3-0.4-0.5c0-0.2,0.4-0.2,0.6-0.5c0.3-0.4-0.2-0.8,0-1.2c0.2-0.4,0.9-0.1,1.2-0.5
		c0.1-0.3,0-0.6-0.7-2c-0.6-1.3-0.7-1.4-0.7-1.6c0.1-1.8,1.2-1.7,0.3-4.3c-0.2-1-1.6-3.5-3.8-4c7.7,0,13.9,4,13.9,8.9
		c-0.1-0.1-0.2-0.3-0.3-0.4c-0.5-0.7-1-1.2-1.7-1.6h0c-1.4-1-3.1-1.2-4.3-0.4c-1.2,0.8-1.6,2.2-1.4,3.9c0,0.2,0,0.3,0.1,0.5
		c0.2,0.8,0.5,1.6,0.9,2.3c0,0,0,0.1,0,0.1c0.6,0.9,1.4,1.7,2.2,2.2"/>
	<path fill="none" stroke="#000000" stroke-width="0.25" stroke-linecap="round" stroke-miterlimit="10" d="M42.9,88.4"/>
	<path fill="none" stroke="#000000" stroke-width="0.2351" stroke-linecap="round" stroke-miterlimit="10" d="M42.9,88.4"/>
	<g>
		<g>
			<defs>
				<path id="SVGID_3_" d="M45.4,79.9c-1.5-0.5-3.6,0.5-5,2.3c-0.3,0.4-0.5,0.8-0.7,1.1c-0.2-1.6,0.3-3.1,1.4-3.9
					C42.3,78.7,43.9,78.9,45.4,79.9z"/>
			</defs>
			<clipPath id="SVGID_4_">
				<use xlink:href="#SVGID_3_"  overflow="visible"/>
			</clipPath>
			<g clip-path="url(#SVGID_4_)">
			</g>
		</g>
	</g>
	<linearGradient id="SVGID_5_" gradientUnits="userSpaceOnUse" x1="41.2328" y1="86.8437" x2="43.2822" y2="80.1411">
		<stop  offset="9.831694e-08" style="stop-color:#342AFF"/>
		<stop  offset="0.9705" style="stop-color:#D6CFFF;stop-opacity:0.5148"/>
		<stop  offset="1" style="stop-color:#DBD4FF;stop-opacity:0.5"/>
	</linearGradient>
	<path fill="url(#SVGID_5_)" d="M44.6,83.8c-1.2-0.3-2.8,0.7-4,2.4c-0.5-0.7-0.8-1.5-0.9-2.3c1.7-1.3,3.6-1.6,4.5-0.7
		C44.4,83.3,44.5,83.5,44.6,83.8z"/>
	<g>
		<g>
			<defs>
				<path id="SVGID_8_" d="M42.9,88.4C42.9,88.4,42.9,88.4,42.9,88.4c-0.9-0.5-1.6-1.2-2.2-2.1c0,0,0,0,0-0.1c1.2-1.7,2.8-2.7,4-2.4
					c0,0,0,0,0,0C43.5,84.3,42.8,86.2,42.9,88.4z"/>
			</defs>
			<clipPath id="SVGID_6_">
				<use xlink:href="#SVGID_8_"  overflow="visible"/>
			</clipPath>
			<g clip-path="url(#SVGID_6_)">
			</g>
		</g>
	</g>
</g>
<line fill="none" x1="46.4" y1="83.7" x2="46.4" y2="83.7"/>
<line fill="none" x1="46.4" y1="83.7" x2="46.4" y2="83.7"/>
</svg>
