<svg width="99" height="120" viewBox="0 0 99 120" fill="none" xmlns="http://www.w3.org/2000/svg">
<path fill-rule="evenodd" clip-rule="evenodd" d="M68.6039 67.1984C68.6039 65.3505 68.1398 63.6565 67.4437 62.3475C66.593 61.0385 65.5875 59.9606 64.2727 59.1136C62.9578 58.2666 61.2563 57.4966 59.4 56.9576C57.5438 56.4956 55.4555 55.8026 53.2125 55.3406C51.4336 54.8016 50.1187 54.4936 49.3453 54.3396C48.5719 54.1087 47.7211 53.8777 47.1023 53.4927C46.4063 53.1077 45.7875 52.7227 45.4008 52.2607C45.0141 51.8757 44.8594 51.2597 44.8594 50.6437C44.8594 49.6427 45.4781 48.7957 46.6383 48.0258C47.8758 47.2558 49.5 46.8708 51.5109 46.8708C53.6766 46.8708 55.3008 47.1788 56.2289 47.9488C57.157 48.7187 58.0852 49.7197 58.7812 51.0287C59.4 52.0297 59.9414 52.7997 60.4828 53.1847C61.0242 53.5697 61.7203 53.8777 62.8031 53.8777C63.9633 53.8777 64.9688 53.3387 65.7422 52.6457C66.593 51.9527 66.9023 51.0287 66.9023 50.0277C66.9023 48.9497 66.6703 47.9488 66.0516 46.8708C65.5875 45.7928 64.6594 44.8688 63.3445 43.8678C62.107 42.9438 60.4828 42.0969 58.6266 41.6349C56.8477 41.0189 54.6047 40.7879 52.0523 40.7879C48.8813 40.7879 46.0195 41.1729 43.6992 42.0199C41.3789 42.7898 39.5227 44.0988 38.2078 45.7158C36.893 47.4098 36.2742 49.2577 36.2742 51.3367C36.2742 53.4927 36.893 55.3406 38.1305 56.8806C39.368 58.4206 40.9922 59.5756 43.0031 60.4225C45.0141 61.2695 47.4891 62.0395 50.4281 62.5785C52.5937 63.0405 54.2953 63.5025 55.6875 63.8105C56.925 64.1955 57.9305 64.8115 58.7039 65.5045C59.4773 66.1974 59.7867 67.0444 59.7867 68.1224C59.7867 69.4314 59.0906 70.5864 57.6984 71.5873C56.3062 72.5883 54.3727 73.1273 52.0523 73.1273C50.3508 73.1273 49.1133 72.8963 48.0305 72.4343C47.025 71.8953 46.1742 71.2794 45.7102 70.5864C45.1687 69.8164 44.6273 68.8924 44.0859 67.7374C43.6992 66.7364 43.0031 65.8894 42.3844 65.4275C41.6883 64.8115 40.9148 64.5805 39.9094 64.5805C38.7492 64.5805 37.7437 64.9655 36.9703 65.6585C36.1195 66.3514 35.8102 67.2754 35.8102 68.2764C35.8102 69.9704 36.3516 71.5873 37.5891 73.2813C38.8266 74.9753 40.4508 76.2843 42.307 77.2853C44.9367 78.7482 48.2625 79.3642 52.2844 79.3642C55.6875 79.3642 58.7039 78.7482 61.1016 77.8242C63.5766 76.9003 65.5102 75.5143 66.825 73.5893C67.8305 72.0493 68.4492 70.5094 68.6039 68.7384C68.6039 68.1994 68.6039 67.7374 68.6039 67.1984ZM68.6039 67.1984C68.6039 65.3505 68.1398 63.6565 67.4437 62.3475C66.593 61.0385 65.5875 59.9606 64.2727 59.1136C62.9578 58.2666 61.2563 57.4966 59.4 56.9576C57.5438 56.4956 55.4555 55.8026 53.2125 55.3406C51.4336 54.8016 50.1187 54.4936 49.3453 54.3396C48.5719 54.1087 47.7211 53.8777 47.1023 53.4927C46.4063 53.1077 45.7875 52.7227 45.4008 52.2607C45.0141 51.8757 44.8594 51.2597 44.8594 50.6437C44.8594 49.6427 45.4781 48.7957 46.6383 48.0258C47.8758 47.2558 49.5 46.8708 51.5109 46.8708C53.6766 46.8708 55.3008 47.1788 56.2289 47.9488C57.157 48.7187 58.0852 49.7197 58.7812 51.0287C59.4 52.0297 59.9414 52.7997 60.4828 53.1847C61.0242 53.5697 61.7203 53.8777 62.8031 53.8777C63.9633 53.8777 64.9688 53.3387 65.7422 52.6457C66.593 51.9527 66.9023 51.0287 66.9023 50.0277C66.9023 48.9497 66.6703 47.9488 66.0516 46.8708C65.5875 45.7928 64.6594 44.8688 63.3445 43.8678C62.107 42.9438 60.4828 42.0969 58.6266 41.6349C56.8477 41.0189 54.6047 40.7879 52.0523 40.7879C48.8813 40.7879 46.0195 41.1729 43.6992 42.0199C41.3789 42.7898 39.5227 44.0988 38.2078 45.7158C36.893 47.4098 36.2742 49.2577 36.2742 51.3367C36.2742 53.4927 36.893 55.3406 38.1305 56.8806C39.368 58.4206 40.9922 59.5756 43.0031 60.4225C45.0141 61.2695 47.4891 62.0395 50.4281 62.5785C52.5937 63.0405 54.2953 63.5025 55.6875 63.8105C56.925 64.1955 57.9305 64.8115 58.7039 65.5045C59.4773 66.1974 59.7867 67.0444 59.7867 68.1224C59.7867 69.4314 59.0906 70.5864 57.6984 71.5873C56.3062 72.5883 54.3727 73.1273 52.0523 73.1273C50.3508 73.1273 49.1133 72.8963 48.0305 72.4343C47.025 71.8953 46.1742 71.2794 45.7102 70.5864C45.1687 69.8164 44.6273 68.8924 44.0859 67.7374C43.6992 66.7364 43.0031 65.8894 42.3844 65.4275C41.6883 64.8115 40.9148 64.5805 39.9094 64.5805C38.7492 64.5805 37.7437 64.9655 36.9703 65.6585C36.1195 66.3514 35.8102 67.2754 35.8102 68.2764C35.8102 69.9704 36.3516 71.5873 37.5891 73.2813C38.8266 74.9753 40.4508 76.2843 42.307 77.2853C44.9367 78.7482 48.2625 79.3642 52.2844 79.3642C55.6875 79.3642 58.7039 78.7482 61.1016 77.8242C63.5766 76.9003 65.5102 75.5143 66.825 73.5893C67.8305 72.0493 68.4492 70.5094 68.6039 68.7384C68.6039 68.1994 68.6039 67.7374 68.6039 67.1984ZM68.6039 67.1984C68.6039 65.3505 68.1398 63.6565 67.4437 62.3475C66.593 61.0385 65.5875 59.9606 64.2727 59.1136C62.9578 58.2666 61.2563 57.4966 59.4 56.9576C57.5438 56.4956 55.4555 55.8026 53.2125 55.3406C51.4336 54.8016 50.1187 54.4936 49.3453 54.3396C48.5719 54.1087 47.7211 53.8777 47.1023 53.4927C46.4063 53.1077 45.7875 52.7227 45.4008 52.2607C45.0141 51.8757 44.8594 51.2597 44.8594 50.6437C44.8594 49.6427 45.4781 48.7957 46.6383 48.0258C47.8758 47.2558 49.5 46.8708 51.5109 46.8708C53.6766 46.8708 55.3008 47.1788 56.2289 47.9488C57.157 48.7187 58.0852 49.7197 58.7812 51.0287C59.4 52.0297 59.9414 52.7997 60.4828 53.1847C61.0242 53.5697 61.7203 53.8777 62.8031 53.8777C63.9633 53.8777 64.9688 53.3387 65.7422 52.6457C66.593 51.9527 66.9023 51.0287 66.9023 50.0277C66.9023 48.9497 66.6703 47.9488 66.0516 46.8708C65.5875 45.7928 64.6594 44.8688 63.3445 43.8678C62.107 42.9438 60.4828 42.0969 58.6266 41.6349C56.8477 41.0189 54.6047 40.7879 52.0523 40.7879C48.8813 40.7879 46.0195 41.1729 43.6992 42.0199C41.3789 42.7898 39.5227 44.0988 38.2078 45.7158C36.893 47.4098 36.2742 49.2577 36.2742 51.3367C36.2742 53.4927 36.893 55.3406 38.1305 56.8806C39.368 58.4206 40.9922 59.5756 43.0031 60.4225C45.0141 61.2695 47.4891 62.0395 50.4281 62.5785C52.5937 63.0405 54.2953 63.5025 55.6875 63.8105C56.925 64.1955 57.9305 64.8115 58.7039 65.5045C59.4773 66.1974 59.7867 67.0444 59.7867 68.1224C59.7867 69.4314 59.0906 70.5864 57.6984 71.5873C56.3062 72.5883 54.3727 73.1273 52.0523 73.1273C50.3508 73.1273 49.1133 72.8963 48.0305 72.4343C47.025 71.8953 46.1742 71.2794 45.7102 70.5864C45.1687 69.8164 44.6273 68.8924 44.0859 67.7374C43.6992 66.7364 43.0031 65.8894 42.3844 65.4275C41.6883 64.8115 40.9148 64.5805 39.9094 64.5805C38.7492 64.5805 37.7437 64.9655 36.9703 65.6585C36.1195 66.3514 35.8102 67.2754 35.8102 68.2764C35.8102 69.9704 36.3516 71.5873 37.5891 73.2813C38.8266 74.9753 40.4508 76.2843 42.307 77.2853C44.9367 78.7482 48.2625 79.3642 52.2844 79.3642C55.6875 79.3642 58.7039 78.7482 61.1016 77.8242C63.5766 76.9003 65.5102 75.5143 66.825 73.5893C67.8305 72.0493 68.4492 70.5094 68.6039 68.7384C68.6039 68.1994 68.6039 67.7374 68.6039 67.1984ZM68.6039 67.1984C68.6039 65.3505 68.1398 63.6565 67.4437 62.3475C66.593 61.0385 65.5875 59.9606 64.2727 59.1136C62.9578 58.2666 61.2563 57.4966 59.4 56.9576C57.5438 56.4956 55.4555 55.8026 53.2125 55.3406C51.4336 54.8016 50.1187 54.4936 49.3453 54.3396C48.5719 54.1087 47.7211 53.8777 47.1023 53.4927C46.4063 53.1077 45.7875 52.7227 45.4008 52.2607C45.0141 51.8757 44.8594 51.2597 44.8594 50.6437C44.8594 49.6427 45.4781 48.7957 46.6383 48.0258C47.8758 47.2558 49.5 46.8708 51.5109 46.8708C53.6766 46.8708 55.3008 47.1788 56.2289 47.9488C57.157 48.7187 58.0852 49.7197 58.7812 51.0287C59.4 52.0297 59.9414 52.7997 60.4828 53.1847C61.0242 53.5697 61.7203 53.8777 62.8031 53.8777C63.9633 53.8777 64.9688 53.3387 65.7422 52.6457C66.593 51.9527 66.9023 51.0287 66.9023 50.0277C66.9023 48.9497 66.6703 47.9488 66.0516 46.8708C65.5875 45.7928 64.6594 44.8688 63.3445 43.8678C62.107 42.9438 60.4828 42.0969 58.6266 41.6349C56.8477 41.0189 54.6047 40.7879 52.0523 40.7879C48.8813 40.7879 46.0195 41.1729 43.6992 42.0199C41.3789 42.7898 39.5227 44.0988 38.2078 45.7158C36.893 47.4098 36.2742 49.2577 36.2742 51.3367C36.2742 53.4927 36.893 55.3406 38.1305 56.8806C39.368 58.4206 40.9922 59.5756 43.0031 60.4225C45.0141 61.2695 47.4891 62.0395 50.4281 62.5785C52.5937 63.0405 54.2953 63.5025 55.6875 63.8105C56.925 64.1955 57.9305 64.8115 58.7039 65.5045C59.4773 66.1974 59.7867 67.0444 59.7867 68.1224C59.7867 69.4314 59.0906 70.5864 57.6984 71.5873C56.3062 72.5883 54.3727 73.1273 52.0523 73.1273C50.3508 73.1273 49.1133 72.8963 48.0305 72.4343C47.025 71.8953 46.1742 71.2794 45.7102 70.5864C45.1687 69.8164 44.6273 68.8924 44.0859 67.7374C43.6992 66.7364 43.0031 65.8894 42.3844 65.4275C41.6883 64.8115 40.9148 64.5805 39.9094 64.5805C38.7492 64.5805 37.7437 64.9655 36.9703 65.6585C36.1195 66.3514 35.8102 67.2754 35.8102 68.2764C35.8102 69.9704 36.3516 71.5873 37.5891 73.2813C38.8266 74.9753 40.4508 76.2843 42.307 77.2853C44.9367 78.7482 48.2625 79.3642 52.2844 79.3642C55.6875 79.3642 58.7039 78.7482 61.1016 77.8242C63.5766 76.9003 65.5102 75.5143 66.825 73.5893C67.8305 72.0493 68.4492 70.5094 68.6039 68.7384C68.6039 68.1994 68.6039 67.7374 68.6039 67.1984ZM68.6039 67.1984C68.6039 65.3505 68.1398 63.6565 67.4437 62.3475C66.593 61.0385 65.5875 59.9606 64.2727 59.1136C62.9578 58.2666 61.2563 57.4966 59.4 56.9576C57.5438 56.4956 55.4555 55.8026 53.2125 55.3406C51.4336 54.8016 50.1187 54.4936 49.3453 54.3396C48.5719 54.1087 47.7211 53.8777 47.1023 53.4927C46.4063 53.1077 45.7875 52.7227 45.4008 52.2607C45.0141 51.8757 44.8594 51.2597 44.8594 50.6437C44.8594 49.6427 45.4781 48.7957 46.6383 48.0258C47.8758 47.2558 49.5 46.8708 51.5109 46.8708C53.6766 46.8708 55.3008 47.1788 56.2289 47.9488C57.157 48.7187 58.0852 49.7197 58.7812 51.0287C59.4 52.0297 59.9414 52.7997 60.4828 53.1847C61.0242 53.5697 61.7203 53.8777 62.8031 53.8777C63.9633 53.8777 64.9688 53.3387 65.7422 52.6457C66.593 51.9527 66.9023 51.0287 66.9023 50.0277C66.9023 48.9497 66.6703 47.9488 66.0516 46.8708C65.5875 45.7928 64.6594 44.8688 63.3445 43.8678C62.107 42.9438 60.4828 42.0969 58.6266 41.6349C56.8477 41.0189 54.6047 40.7879 52.0523 40.7879C48.8813 40.7879 46.0195 41.1729 43.6992 42.0199C41.3789 42.7898 39.5227 44.0988 38.2078 45.7158C36.893 47.4098 36.2742 49.2577 36.2742 51.3367C36.2742 53.4927 36.893 55.3406 38.1305 56.8806C39.368 58.4206 40.9922 59.5756 43.0031 60.4225C45.0141 61.2695 47.4891 62.0395 50.4281 62.5785C52.5937 63.0405 54.2953 63.5025 55.6875 63.8105C56.925 64.1955 57.9305 64.8115 58.7039 65.5045C59.4773 66.1974 59.7867 67.0444 59.7867 68.1224C59.7867 69.4314 59.0906 70.5864 57.6984 71.5873C56.3062 72.5883 54.3727 73.1273 52.0523 73.1273C50.3508 73.1273 49.1133 72.8963 48.0305 72.4343C47.025 71.8953 46.1742 71.2794 45.7102 70.5864C45.1687 69.8164 44.6273 68.8924 44.0859 67.7374C43.6992 66.7364 43.0031 65.8894 42.3844 65.4275C41.6883 64.8115 40.9148 64.5805 39.9094 64.5805C38.7492 64.5805 37.7437 64.9655 36.9703 65.6585C36.1195 66.3514 35.8102 67.2754 35.8102 68.2764C35.8102 69.9704 36.3516 71.5873 37.5891 73.2813C38.8266 74.9753 40.4508 76.2843 42.307 77.2853C44.9367 78.7482 48.2625 79.3642 52.2844 79.3642C55.6875 79.3642 58.7039 78.7482 61.1016 77.8242C63.5766 76.9003 65.5102 75.5143 66.825 73.5893C67.8305 72.0493 68.4492 70.5094 68.6039 68.7384C68.6039 68.1994 68.6039 67.7374 68.6039 67.1984ZM68.6039 67.1984C68.6039 65.3505 68.1398 63.6565 67.4437 62.3475C66.593 61.0385 65.5875 59.9606 64.2727 59.1136C62.9578 58.2666 61.2563 57.4966 59.4 56.9576C57.5438 56.4956 55.4555 55.8026 53.2125 55.3406C51.4336 54.8016 50.1187 54.4936 49.3453 54.3396C48.5719 54.1087 47.7211 53.8777 47.1023 53.4927C46.4063 53.1077 45.7875 52.7227 45.4008 52.2607C45.0141 51.8757 44.8594 51.2597 44.8594 50.6437C44.8594 49.6427 45.4781 48.7957 46.6383 48.0258C47.8758 47.2558 49.5 46.8708 51.5109 46.8708C53.6766 46.8708 55.3008 47.1788 56.2289 47.9488C57.157 48.7187 58.0852 49.7197 58.7812 51.0287C59.4 52.0297 59.9414 52.7997 60.4828 53.1847C61.0242 53.5697 61.7203 53.8777 62.8031 53.8777C63.9633 53.8777 64.9688 53.3387 65.7422 52.6457C66.593 51.9527 66.9023 51.0287 66.9023 50.0277C66.9023 48.9497 66.6703 47.9488 66.0516 46.8708C65.5875 45.7928 64.6594 44.8688 63.3445 43.8678C62.107 42.9438 60.4828 42.0969 58.6266 41.6349C56.8477 41.0189 54.6047 40.7879 52.0523 40.7879C48.8813 40.7879 46.0195 41.1729 43.6992 42.0199C41.3789 42.7898 39.5227 44.0988 38.2078 45.7158C36.893 47.4098 36.2742 49.2577 36.2742 51.3367C36.2742 53.4927 36.893 55.3406 38.1305 56.8806C39.368 58.4206 40.9922 59.5756 43.0031 60.4225C45.0141 61.2695 47.4891 62.0395 50.4281 62.5785C52.5937 63.0405 54.2953 63.5025 55.6875 63.8105C56.925 64.1955 57.9305 64.8115 58.7039 65.5045C59.4773 66.1974 59.7867 67.0444 59.7867 68.1224C59.7867 69.4314 59.0906 70.5864 57.6984 71.5873C56.3062 72.5883 54.3727 73.1273 52.0523 73.1273C50.3508 73.1273 49.1133 72.8963 48.0305 72.4343C47.025 71.8953 46.1742 71.2794 45.7102 70.5864C45.1687 69.8164 44.6273 68.8924 44.0859 67.7374C43.6992 66.7364 43.0031 65.8894 42.3844 65.4275C41.6883 64.8115 40.9148 64.5805 39.9094 64.5805C38.7492 64.5805 37.7437 64.9655 36.9703 65.6585C36.1195 66.3514 35.8102 67.2754 35.8102 68.2764C35.8102 69.9704 36.3516 71.5873 37.5891 73.2813C38.8266 74.9753 40.4508 76.2843 42.307 77.2853C44.9367 78.7482 48.2625 79.3642 52.2844 79.3642C55.6875 79.3642 58.7039 78.7482 61.1016 77.8242C63.5766 76.9003 65.5102 75.5143 66.825 73.5893C67.8305 72.0493 68.4492 70.5094 68.6039 68.7384C68.6039 68.1994 68.6039 67.7374 68.6039 67.1984ZM68.6039 67.1984C68.6039 65.3505 68.1398 63.6565 67.4437 62.3475C66.593 61.0385 65.5875 59.9606 64.2727 59.1136C62.9578 58.2666 61.2563 57.4966 59.4 56.9576C57.5438 56.4956 55.4555 55.8026 53.2125 55.3406C51.4336 54.8016 50.1187 54.4936 49.3453 54.3396C48.5719 54.1087 47.7211 53.8777 47.1023 53.4927C46.4063 53.1077 45.7875 52.7227 45.4008 52.2607C45.0141 51.8757 44.8594 51.2597 44.8594 50.6437C44.8594 49.6427 45.4781 48.7957 46.6383 48.0258C47.8758 47.2558 49.5 46.8708 51.5109 46.8708C53.6766 46.8708 55.3008 47.1788 56.2289 47.9488C57.157 48.7187 58.0852 49.7197 58.7812 51.0287C59.4 52.0297 59.9414 52.7997 60.4828 53.1847C61.0242 53.5697 61.7203 53.8777 62.8031 53.8777C63.9633 53.8777 64.9688 53.3387 65.7422 52.6457C66.593 51.9527 66.9023 51.0287 66.9023 50.0277C66.9023 48.9497 66.6703 47.9488 66.0516 46.8708C65.5875 45.7928 64.6594 44.8688 63.3445 43.8678C62.107 42.9438 60.4828 42.0969 58.6266 41.6349C56.8477 41.0189 54.6047 40.7879 52.0523 40.7879C48.8813 40.7879 46.0195 41.1729 43.6992 42.0199C41.3789 42.7898 39.5227 44.0988 38.2078 45.7158C36.893 47.4098 36.2742 49.2577 36.2742 51.3367C36.2742 53.4927 36.893 55.3406 38.1305 56.8806C39.368 58.4206 40.9922 59.5756 43.0031 60.4225C45.0141 61.2695 47.4891 62.0395 50.4281 62.5785C52.5937 63.0405 54.2953 63.5025 55.6875 63.8105C56.925 64.1955 57.9305 64.8115 58.7039 65.5045C59.4773 66.1974 59.7867 67.0444 59.7867 68.1224C59.7867 69.4314 59.0906 70.5864 57.6984 71.5873C56.3062 72.5883 54.3727 73.1273 52.0523 73.1273C50.3508 73.1273 49.1133 72.8963 48.0305 72.4343C47.025 71.8953 46.1742 71.2794 45.7102 70.5864C45.1687 69.8164 44.6273 68.8924 44.0859 67.7374C43.6992 66.7364 43.0031 65.8894 42.3844 65.4275C41.6883 64.8115 40.9148 64.5805 39.9094 64.5805C38.7492 64.5805 37.7437 64.9655 36.9703 65.6585C36.1195 66.3514 35.8102 67.2754 35.8102 68.2764C35.8102 69.9704 36.3516 71.5873 37.5891 73.2813C38.8266 74.9753 40.4508 76.2843 42.307 77.2853C44.9367 78.7482 48.2625 79.3642 52.2844 79.3642C55.6875 79.3642 58.7039 78.7482 61.1016 77.8242C63.5766 76.9003 65.5102 75.5143 66.825 73.5893C67.8305 72.0493 68.4492 70.5094 68.6039 68.7384C68.6039 68.1994 68.6039 67.7374 68.6039 67.1984ZM68.6039 67.1984C68.6039 65.3505 68.1398 63.6565 67.4437 62.3475C66.593 61.0385 65.5875 59.9606 64.2727 59.1136C62.9578 58.2666 61.2563 57.4966 59.4 56.9576C57.5438 56.4956 55.4555 55.8026 53.2125 55.3406C51.4336 54.8016 50.1187 54.4936 49.3453 54.3396C48.5719 54.1087 47.7211 53.8777 47.1023 53.4927C46.4063 53.1077 45.7875 52.7227 45.4008 52.2607C45.0141 51.8757 44.8594 51.2597 44.8594 50.6437C44.8594 49.6427 45.4781 48.7957 46.6383 48.0258C47.8758 47.2558 49.5 46.8708 51.5109 46.8708C53.6766 46.8708 55.3008 47.1788 56.2289 47.9488C57.157 48.7187 58.0852 49.7197 58.7812 51.0287C59.4 52.0297 59.9414 52.7997 60.4828 53.1847C61.0242 53.5697 61.7203 53.8777 62.8031 53.8777C63.9633 53.8777 64.9688 53.3387 65.7422 52.6457C66.593 51.9527 66.9023 51.0287 66.9023 50.0277C66.9023 48.9497 66.6703 47.9488 66.0516 46.8708C65.5875 45.7928 64.6594 44.8688 63.3445 43.8678C62.107 42.9438 60.4828 42.0969 58.6266 41.6349C56.8477 41.0189 54.6047 40.7879 52.0523 40.7879C48.8813 40.7879 46.0195 41.1729 43.6992 42.0199C41.3789 42.7898 39.5227 44.0988 38.2078 45.7158C36.893 47.4098 36.2742 49.2577 36.2742 51.3367C36.2742 53.4927 36.893 55.3406 38.1305 56.8806C39.368 58.4206 40.9922 59.5756 43.0031 60.4225C45.0141 61.2695 47.4891 62.0395 50.4281 62.5785C52.5937 63.0405 54.2953 63.5025 55.6875 63.8105C56.925 64.1955 57.9305 64.8115 58.7039 65.5045C59.4773 66.1974 59.7867 67.0444 59.7867 68.1224C59.7867 69.4314 59.0906 70.5864 57.6984 71.5873C56.3062 72.5883 54.3727 73.1273 52.0523 73.1273C50.3508 73.1273 49.1133 72.8963 48.0305 72.4343C47.025 71.8953 46.1742 71.2794 45.7102 70.5864C45.1687 69.8164 44.6273 68.8924 44.0859 67.7374C43.6992 66.7364 43.0031 65.8894 42.3844 65.4275C41.6883 64.8115 40.9148 64.5805 39.9094 64.5805C38.7492 64.5805 37.7437 64.9655 36.9703 65.6585C36.1195 66.3514 35.8102 67.2754 35.8102 68.2764C35.8102 69.9704 36.3516 71.5873 37.5891 73.2813C38.8266 74.9753 40.4508 76.2843 42.307 77.2853C44.9367 78.7482 48.2625 79.3642 52.2844 79.3642C55.6875 79.3642 58.7039 78.7482 61.1016 77.8242C63.5766 76.9003 65.5102 75.5143 66.825 73.5893C67.8305 72.0493 68.4492 70.5094 68.6039 68.7384C68.6039 68.1994 68.6039 67.7374 68.6039 67.1984ZM68.6039 67.1984C68.6039 65.3505 68.1398 63.6565 67.4437 62.3475C66.593 61.0385 65.5875 59.9606 64.2727 59.1136C62.9578 58.2666 61.2563 57.4966 59.4 56.9576C57.5438 56.4956 55.4555 55.8026 53.2125 55.3406C51.4336 54.8016 50.1187 54.4936 49.3453 54.3396C48.5719 54.1087 47.7211 53.8777 47.1023 53.4927C46.4063 53.1077 45.7875 52.7227 45.4008 52.2607C45.0141 51.8757 44.8594 51.2597 44.8594 50.6437C44.8594 49.6427 45.4781 48.7957 46.6383 48.0258C47.8758 47.2558 49.5 46.8708 51.5109 46.8708C53.6766 46.8708 55.3008 47.1788 56.2289 47.9488C57.157 48.7187 58.0852 49.7197 58.7812 51.0287C59.4 52.0297 59.9414 52.7997 60.4828 53.1847C61.0242 53.5697 61.7203 53.8777 62.8031 53.8777C63.9633 53.8777 64.9688 53.3387 65.7422 52.6457C66.593 51.9527 66.9023 51.0287 66.9023 50.0277C66.9023 48.9497 66.6703 47.9488 66.0516 46.8708C65.5875 45.7928 64.6594 44.8688 63.3445 43.8678C62.107 42.9438 60.4828 42.0969 58.6266 41.6349C56.8477 41.0189 54.6047 40.7879 52.0523 40.7879C48.8813 40.7879 46.0195 41.1729 43.6992 42.0199C41.3789 42.7898 39.5227 44.0988 38.2078 45.7158C36.893 47.4098 36.2742 49.2577 36.2742 51.3367C36.2742 53.4927 36.893 55.3406 38.1305 56.8806C39.368 58.4206 40.9922 59.5756 43.0031 60.4225C45.0141 61.2695 47.4891 62.0395 50.4281 62.5785C52.5937 63.0405 54.2953 63.5025 55.6875 63.8105C56.925 64.1955 57.9305 64.8115 58.7039 65.5045C59.4773 66.1974 59.7867 67.0444 59.7867 68.1224C59.7867 69.4314 59.0906 70.5864 57.6984 71.5873C56.3062 72.5883 54.3727 73.1273 52.0523 73.1273C50.3508 73.1273 49.1133 72.8963 48.0305 72.4343C47.025 71.8953 46.1742 71.2794 45.7102 70.5864C45.1687 69.8164 44.6273 68.8924 44.0859 67.7374C43.6992 66.7364 43.0031 65.8894 42.3844 65.4275C41.6883 64.8115 40.9148 64.5805 39.9094 64.5805C38.7492 64.5805 37.7437 64.9655 36.9703 65.6585C36.1195 66.3514 35.8102 67.2754 35.8102 68.2764C35.8102 69.9704 36.3516 71.5873 37.5891 73.2813C38.8266 74.9753 40.4508 76.2843 42.307 77.2853C44.9367 78.7482 48.2625 79.3642 52.2844 79.3642C55.6875 79.3642 58.7039 78.7482 61.1016 77.8242C63.5766 76.9003 65.5102 75.5143 66.825 73.5893C67.8305 72.0493 68.4492 70.5094 68.6039 68.7384C68.6039 68.1994 68.6039 67.7374 68.6039 67.1984ZM68.6039 67.1984C68.6039 65.3505 68.1398 63.6565 67.4437 62.3475C66.593 61.0385 65.5875 59.9606 64.2727 59.1136C62.9578 58.2666 61.2563 57.4966 59.4 56.9576C57.5438 56.4956 55.4555 55.8026 53.2125 55.3406C51.4336 54.8016 50.1187 54.4936 49.3453 54.3396C48.5719 54.1087 47.7211 53.8777 47.1023 53.4927C46.4063 53.1077 45.7875 52.7227 45.4008 52.2607C45.0141 51.8757 44.8594 51.2597 44.8594 50.6437C44.8594 49.6427 45.4781 48.7957 46.6383 48.0258C47.8758 47.2558 49.5 46.8708 51.5109 46.8708C53.6766 46.8708 55.3008 47.1788 56.2289 47.9488C57.157 48.7187 58.0852 49.7197 58.7812 51.0287C59.4 52.0297 59.9414 52.7997 60.4828 53.1847C61.0242 53.5697 61.7203 53.8777 62.8031 53.8777C63.9633 53.8777 64.9688 53.3387 65.7422 52.6457C66.593 51.9527 66.9023 51.0287 66.9023 50.0277C66.9023 48.9497 66.6703 47.9488 66.0516 46.8708C65.5875 45.7928 64.6594 44.8688 63.3445 43.8678C62.107 42.9438 60.4828 42.0969 58.6266 41.6349C56.8477 41.0189 54.6047 40.7879 52.0523 40.7879C48.8813 40.7879 46.0195 41.1729 43.6992 42.0199C41.3789 42.7898 39.5227 44.0988 38.2078 45.7158C36.893 47.4098 36.2742 49.2577 36.2742 51.3367C36.2742 53.4927 36.893 55.3406 38.1305 56.8806C39.368 58.4206 40.9922 59.5756 43.0031 60.4225C45.0141 61.2695 47.4891 62.0395 50.4281 62.5785C52.5937 63.0405 54.2953 63.5025 55.6875 63.8105C56.925 64.1955 57.9305 64.8115 58.7039 65.5045C59.4773 66.1974 59.7867 67.0444 59.7867 68.1224C59.7867 69.4314 59.0906 70.5864 57.6984 71.5873C56.3062 72.5883 54.3727 73.1273 52.0523 73.1273C50.3508 73.1273 49.1133 72.8963 48.0305 72.4343C47.025 71.8953 46.1742 71.2794 45.7102 70.5864C45.1687 69.8164 44.6273 68.8924 44.0859 67.7374C43.6992 66.7364 43.0031 65.8894 42.3844 65.4275C41.6883 64.8115 40.9148 64.5805 39.9094 64.5805C38.7492 64.5805 37.7437 64.9655 36.9703 65.6585C36.1195 66.3514 35.8102 67.2754 35.8102 68.2764C35.8102 69.9704 36.3516 71.5873 37.5891 73.2813C38.8266 74.9753 40.4508 76.2843 42.307 77.2853C44.9367 78.7482 48.2625 79.3642 52.2844 79.3642C55.6875 79.3642 58.7039 78.7482 61.1016 77.8242C63.5766 76.9003 65.5102 75.5143 66.825 73.5893C67.8305 72.0493 68.4492 70.5094 68.6039 68.7384C68.6039 68.1994 68.6039 67.7374 68.6039 67.1984ZM68.6039 67.1984C68.6039 65.3505 68.1398 63.6565 67.4437 62.3475C66.593 61.0385 65.5875 59.9606 64.2727 59.1136C62.9578 58.2666 61.2563 57.4966 59.4 56.9576C57.5438 56.4956 55.4555 55.8026 53.2125 55.3406C51.4336 54.8016 50.1187 54.4936 49.3453 54.3396C48.5719 54.1087 47.7211 53.8777 47.1023 53.4927C46.4063 53.1077 45.7875 52.7227 45.4008 52.2607C45.0141 51.8757 44.8594 51.2597 44.8594 50.6437C44.8594 49.6427 45.4781 48.7957 46.6383 48.0258C47.8758 47.2558 49.5 46.8708 51.5109 46.8708C53.6766 46.8708 55.3008 47.1788 56.2289 47.9488C57.157 48.7187 58.0852 49.7197 58.7812 51.0287C59.4 52.0297 59.9414 52.7997 60.4828 53.1847C61.0242 53.5697 61.7203 53.8777 62.8031 53.8777C63.9633 53.8777 64.9688 53.3387 65.7422 52.6457C66.593 51.9527 66.9023 51.0287 66.9023 50.0277C66.9023 48.9497 66.6703 47.9488 66.0516 46.8708C65.5875 45.7928 64.6594 44.8688 63.3445 43.8678C62.107 42.9438 60.4828 42.0969 58.6266 41.6349C56.8477 41.0189 54.6047 40.7879 52.0523 40.7879C48.8813 40.7879 46.0195 41.1729 43.6992 42.0199C41.3789 42.7898 39.5227 44.0988 38.2078 45.7158C36.893 47.4098 36.2742 49.2577 36.2742 51.3367C36.2742 53.4927 36.893 55.3406 38.1305 56.8806C39.368 58.4206 40.9922 59.5756 43.0031 60.4225C45.0141 61.2695 47.4891 62.0395 50.4281 62.5785C52.5937 63.0405 54.2953 63.5025 55.6875 63.8105C56.925 64.1955 57.9305 64.8115 58.7039 65.5045C59.4773 66.1974 59.7867 67.0444 59.7867 68.1224C59.7867 69.4314 59.0906 70.5864 57.6984 71.5873C56.3062 72.5883 54.3727 73.1273 52.0523 73.1273C50.3508 73.1273 49.1133 72.8963 48.0305 72.4343C47.025 71.8953 46.1742 71.2794 45.7102 70.5864C45.1687 69.8164 44.6273 68.8924 44.0859 67.7374C43.6992 66.7364 43.0031 65.8894 42.3844 65.4275C41.6883 64.8115 40.9148 64.5805 39.9094 64.5805C38.7492 64.5805 37.7437 64.9655 36.9703 65.6585C36.1195 66.3514 35.8102 67.2754 35.8102 68.2764C35.8102 69.9704 36.3516 71.5873 37.5891 73.2813C38.8266 74.9753 40.4508 76.2843 42.307 77.2853C44.9367 78.7482 48.2625 79.3642 52.2844 79.3642C55.6875 79.3642 58.7039 78.7482 61.1016 77.8242C63.5766 76.9003 65.5102 75.5143 66.825 73.5893C67.8305 72.0493 68.4492 70.5094 68.6039 68.7384C68.6039 68.1994 68.6039 67.7374 68.6039 67.1984ZM68.6039 67.1984C68.6039 65.3505 68.1398 63.6565 67.4437 62.3475C66.593 61.0385 65.5875 59.9606 64.2727 59.1136C62.9578 58.2666 61.2563 57.4966 59.4 56.9576C57.5438 56.4956 55.4555 55.8026 53.2125 55.3406C51.4336 54.8016 50.1187 54.4936 49.3453 54.3396C48.5719 54.1087 47.7211 53.8777 47.1023 53.4927C46.4063 53.1077 45.7875 52.7227 45.4008 52.2607C45.0141 51.8757 44.8594 51.2597 44.8594 50.6437C44.8594 49.6427 45.4781 48.7957 46.6383 48.0258C47.8758 47.2558 49.5 46.8708 51.5109 46.8708C53.6766 46.8708 55.3008 47.1788 56.2289 47.9488C57.157 48.7187 58.0852 49.7197 58.7812 51.0287C59.4 52.0297 59.9414 52.7997 60.4828 53.1847C61.0242 53.5697 61.7203 53.8777 62.8031 53.8777C63.9633 53.8777 64.9688 53.3387 65.7422 52.6457C66.593 51.9527 66.9023 51.0287 66.9023 50.0277C66.9023 48.9497 66.6703 47.9488 66.0516 46.8708C65.5875 45.7928 64.6594 44.8688 63.3445 43.8678C62.107 42.9438 60.4828 42.0969 58.6266 41.6349C56.8477 41.0189 54.6047 40.7879 52.0523 40.7879C48.8813 40.7879 46.0195 41.1729 43.6992 42.0199C41.3789 42.7898 39.5227 44.0988 38.2078 45.7158C36.893 47.4098 36.2742 49.2577 36.2742 51.3367C36.2742 53.4927 36.893 55.3406 38.1305 56.8806C39.368 58.4206 40.9922 59.5756 43.0031 60.4225C45.0141 61.2695 47.4891 62.0395 50.4281 62.5785C52.5937 63.0405 54.2953 63.5025 55.6875 63.8105C56.925 64.1955 57.9305 64.8115 58.7039 65.5045C59.4773 66.1974 59.7867 67.0444 59.7867 68.1224C59.7867 69.4314 59.0906 70.5864 57.6984 71.5873C56.3062 72.5883 54.3727 73.1273 52.0523 73.1273C50.3508 73.1273 49.1133 72.8963 48.0305 72.4343C47.025 71.8953 46.1742 71.2794 45.7102 70.5864C45.1687 69.8164 44.6273 68.8924 44.0859 67.7374C43.6992 66.7364 43.0031 65.8894 42.3844 65.4275C41.6883 64.8115 40.9148 64.5805 39.9094 64.5805C38.7492 64.5805 37.7437 64.9655 36.9703 65.6585C36.1195 66.3514 35.8102 67.2754 35.8102 68.2764C35.8102 69.9704 36.3516 71.5873 37.5891 73.2813C38.8266 74.9753 40.4508 76.2843 42.307 77.2853C44.9367 78.7482 48.2625 79.3642 52.2844 79.3642C55.6875 79.3642 58.7039 78.7482 61.1016 77.8242C63.5766 76.9003 65.5102 75.5143 66.825 73.5893C67.8305 72.0493 68.4492 70.5094 68.6039 68.7384C68.6039 68.1994 68.6039 67.7374 68.6039 67.1984ZM68.6039 67.1984C68.6039 65.3505 68.1398 63.6565 67.4437 62.3475C66.593 61.0385 65.5875 59.9606 64.2727 59.1136C62.9578 58.2666 61.2563 57.4966 59.4 56.9576C57.5438 56.4956 55.4555 55.8026 53.2125 55.3406C51.4336 54.8016 50.1187 54.4936 49.3453 54.3396C48.5719 54.1087 47.7211 53.8777 47.1023 53.4927C46.4063 53.1077 45.7875 52.7227 45.4008 52.2607C45.0141 51.8757 44.8594 51.2597 44.8594 50.6437C44.8594 49.6427 45.4781 48.7957 46.6383 48.0258C47.8758 47.2558 49.5 46.8708 51.5109 46.8708C53.6766 46.8708 55.3008 47.1788 56.2289 47.9488C57.157 48.7187 58.0852 49.7197 58.7812 51.0287C59.4 52.0297 59.9414 52.7997 60.4828 53.1847C61.0242 53.5697 61.7203 53.8777 62.8031 53.8777C63.9633 53.8777 64.9688 53.3387 65.7422 52.6457C66.593 51.9527 66.9023 51.0287 66.9023 50.0277C66.9023 48.9497 66.6703 47.9488 66.0516 46.8708C65.5875 45.7928 64.6594 44.8688 63.3445 43.8678C62.107 42.9438 60.4828 42.0969 58.6266 41.6349C56.8477 41.0189 54.6047 40.7879 52.0523 40.7879C48.8813 40.7879 46.0195 41.1729 43.6992 42.0199C41.3789 42.7898 39.5227 44.0988 38.2078 45.7158C36.893 47.4098 36.2742 49.2577 36.2742 51.3367C36.2742 53.4927 36.893 55.3406 38.1305 56.8806C39.368 58.4206 40.9922 59.5756 43.0031 60.4225C45.0141 61.2695 47.4891 62.0395 50.4281 62.5785C52.5937 63.0405 54.2953 63.5025 55.6875 63.8105C56.925 64.1955 57.9305 64.8115 58.7039 65.5045C59.4773 66.1974 59.7867 67.0444 59.7867 68.1224C59.7867 69.4314 59.0906 70.5864 57.6984 71.5873C56.3062 72.5883 54.3727 73.1273 52.0523 73.1273C50.3508 73.1273 49.1133 72.8963 48.0305 72.4343C47.025 71.8953 46.1742 71.2794 45.7102 70.5864C45.1687 69.8164 44.6273 68.8924 44.0859 67.7374C43.6992 66.7364 43.0031 65.8894 42.3844 65.4275C41.6883 64.8115 40.9148 64.5805 39.9094 64.5805C38.7492 64.5805 37.7437 64.9655 36.9703 65.6585C36.1195 66.3514 35.8102 67.2754 35.8102 68.2764C35.8102 69.9704 36.3516 71.5873 37.5891 73.2813C38.8266 74.9753 40.4508 76.2843 42.307 77.2853C44.9367 78.7482 48.2625 79.3642 52.2844 79.3642C55.6875 79.3642 58.7039 78.7482 61.1016 77.8242C63.5766 76.9003 65.5102 75.5143 66.825 73.5893C67.8305 72.1263 68.4492 70.5864 68.6039 68.7384C68.6039 68.1994 68.6039 67.7374 68.6039 67.1984ZM68.6039 67.1984C68.6039 65.3505 68.1398 63.6565 67.4437 62.3475C66.593 61.0385 65.5875 59.9606 64.2727 59.1136C62.9578 58.2666 61.2563 57.4966 59.4 56.9576C57.5438 56.4956 55.4555 55.8026 53.2125 55.3406C51.4336 54.8016 50.1187 54.4936 49.3453 54.3396C48.5719 54.1087 47.7211 53.8777 47.1023 53.4927C46.4063 53.1077 45.7875 52.7227 45.4008 52.2607C45.0141 51.8757 44.8594 51.2597 44.8594 50.6437C44.8594 49.6427 45.4781 48.7957 46.6383 48.0258C47.8758 47.2558 49.5 46.8708 51.5109 46.8708C53.6766 46.8708 55.3008 47.1788 56.2289 47.9488C57.157 48.7187 58.0852 49.7197 58.7812 51.0287C59.4 52.0297 59.9414 52.7997 60.4828 53.1847C61.0242 53.5697 61.7203 53.8777 62.8031 53.8777C63.9633 53.8777 64.9688 53.3387 65.7422 52.6457C66.593 51.9527 66.9023 51.0287 66.9023 50.0277C66.9023 48.9497 66.6703 47.9488 66.0516 46.8708C65.5875 45.7928 64.6594 44.8688 63.3445 43.8678C62.107 42.9438 60.4828 42.0969 58.6266 41.6349C56.8477 41.0189 54.6047 40.7879 52.0523 40.7879C48.8813 40.7879 46.0195 41.1729 43.6992 42.0199C41.3789 42.7898 39.5227 44.0988 38.2078 45.7158C36.893 47.4098 36.2742 49.2577 36.2742 51.3367C36.2742 53.4927 36.893 55.3406 38.1305 56.8806C39.368 58.4206 40.9922 59.5756 43.0031 60.4225C45.0141 61.2695 47.4891 62.0395 50.4281 62.5785C52.5937 63.0405 54.2953 63.5025 55.6875 63.8105C56.925 64.1955 57.9305 64.8115 58.7039 65.5045C59.4773 66.1974 59.7867 67.0444 59.7867 68.1224C59.7867 69.4314 59.0906 70.5864 57.6984 71.5873C56.3062 72.5883 54.3727 73.1273 52.0523 73.1273C50.3508 73.1273 49.1133 72.8963 48.0305 72.4343C47.025 71.8953 46.1742 71.2794 45.7102 70.5864C45.1687 69.8164 44.6273 68.8924 44.0859 67.7374C43.6992 66.7364 43.0031 65.8894 42.3844 65.4275C41.6883 64.8115 40.9148 64.5805 39.9094 64.5805C38.7492 64.5805 37.7437 64.9655 36.9703 65.6585C36.1195 66.3514 35.8102 67.2754 35.8102 68.2764C35.8102 69.9704 36.3516 71.5873 37.5891 73.2813C38.8266 74.9753 40.4508 76.2843 42.307 77.2853C44.9367 78.7482 48.2625 79.3642 52.2844 79.3642C55.6875 79.3642 58.7039 78.7482 61.1016 77.8242C63.5766 76.9003 65.5102 75.5143 66.825 73.5893C67.8305 72.1263 68.4492 70.5864 68.6039 68.7384C68.6039 68.1994 68.6039 67.7374 68.6039 67.1984ZM68.6039 67.1984C68.6039 65.3505 68.1398 63.6565 67.4437 62.3475C66.593 61.0385 65.5875 59.9606 64.2727 59.1136C62.9578 58.2666 61.2563 57.4966 59.4 56.9576C57.5438 56.4956 55.4555 55.8026 53.2125 55.3406C51.4336 54.8016 50.1187 54.4936 49.3453 54.3396C48.5719 54.1087 47.7211 53.8777 47.1023 53.4927C46.4063 53.1077 45.7875 52.7227 45.4008 52.2607C45.0141 51.8757 44.8594 51.2597 44.8594 50.6437C44.8594 49.6427 45.4781 48.7957 46.6383 48.0258C47.8758 47.2558 49.5 46.8708 51.5109 46.8708C53.6766 46.8708 55.3008 47.1788 56.2289 47.9488C57.157 48.7187 58.0852 49.7197 58.7812 51.0287C59.4 52.0297 59.9414 52.7997 60.4828 53.1847C61.0242 53.5697 61.7203 53.8777 62.8031 53.8777C63.9633 53.8777 64.9688 53.3387 65.7422 52.6457C66.593 51.9527 66.9023 51.0287 66.9023 50.0277C66.9023 48.9497 66.6703 47.9488 66.0516 46.8708C65.5875 45.7928 64.6594 44.8688 63.3445 43.8678C62.107 42.9438 60.4828 42.0969 58.6266 41.6349C56.8477 41.0189 54.6047 40.7879 52.0523 40.7879C48.8813 40.7879 46.0195 41.1729 43.6992 42.0199C41.3789 42.7898 39.5227 44.0988 38.2078 45.7158C36.893 47.4098 36.2742 49.2577 36.2742 51.3367C36.2742 53.4927 36.893 55.3406 38.1305 56.8806C39.368 58.4206 40.9922 59.5756 43.0031 60.4225C45.0141 61.2695 47.4891 62.0395 50.4281 62.5785C52.5937 63.0405 54.2953 63.5025 55.6875 63.8105C56.925 64.1955 57.9305 64.8115 58.7039 65.5045C59.4773 66.1974 59.7867 67.0444 59.7867 68.1224C59.7867 69.4314 59.0906 70.5864 57.6984 71.5873C56.3062 72.5883 54.3727 73.1273 52.0523 73.1273C50.3508 73.1273 49.1133 72.8963 48.0305 72.4343C47.025 71.8953 46.1742 71.2794 45.7102 70.5864C45.1687 69.8164 44.6273 68.8924 44.0859 67.7374C43.6992 66.7364 43.0031 65.8894 42.3844 65.4275C41.6883 64.8115 40.9148 64.5805 39.9094 64.5805C38.7492 64.5805 37.7437 64.9655 36.9703 65.6585C36.1195 66.3514 35.8102 67.2754 35.8102 68.2764C35.8102 69.9704 36.3516 71.5873 37.5891 73.2813C38.8266 74.9753 40.4508 76.2843 42.307 77.2853C44.9367 78.7482 48.2625 79.3642 52.2844 79.3642C55.6875 79.3642 58.7039 78.7482 61.1016 77.8242C63.5766 76.9003 65.5102 75.5143 66.825 73.5893C67.8305 72.1263 68.4492 70.5864 68.6039 68.7384C68.6039 68.1994 68.6039 67.7374 68.6039 67.1984ZM68.6039 67.1984C68.6039 65.3505 68.1398 63.6565 67.4437 62.3475C66.593 61.0385 65.5875 59.9606 64.2727 59.1136C62.9578 58.2666 61.2563 57.4966 59.4 56.9576C57.5438 56.4956 55.4555 55.8026 53.2125 55.3406C51.4336 54.8016 50.1187 54.4936 49.3453 54.3396C48.5719 54.1087 47.7211 53.8777 47.1023 53.4927C46.4063 53.1077 45.7875 52.7227 45.4008 52.2607C45.0141 51.8757 44.8594 51.2597 44.8594 50.6437C44.8594 49.6427 45.4781 48.7957 46.6383 48.0258C47.8758 47.2558 49.5 46.8708 51.5109 46.8708C53.6766 46.8708 55.3008 47.1788 56.2289 47.9488C57.157 48.7187 58.0852 49.7197 58.7812 51.0287C59.4 52.0297 59.9414 52.7997 60.4828 53.1847C61.0242 53.5697 61.7203 53.8777 62.8031 53.8777C63.9633 53.8777 64.9688 53.3387 65.7422 52.6457C66.593 51.9527 66.9023 51.0287 66.9023 50.0277C66.9023 48.9497 66.6703 47.9488 66.0516 46.8708C65.5875 45.7928 64.6594 44.8688 63.3445 43.8678C62.107 42.9438 60.4828 42.0969 58.6266 41.6349C56.8477 41.0189 54.6047 40.7879 52.0523 40.7879C48.8813 40.7879 46.0195 41.1729 43.6992 42.0199C41.3789 42.7898 39.5227 44.0988 38.2078 45.7158C36.893 47.4098 36.2742 49.2577 36.2742 51.3367C36.2742 53.4927 36.893 55.3406 38.1305 56.8806C39.368 58.4206 40.9922 59.5756 43.0031 60.4225C45.0141 61.2695 47.4891 62.0395 50.4281 62.5785C52.5937 63.0405 54.2953 63.5025 55.6875 63.8105C56.925 64.1955 57.9305 64.8115 58.7039 65.5045C59.4773 66.1974 59.7867 67.0444 59.7867 68.1224C59.7867 69.4314 59.0906 70.5864 57.6984 71.5873C56.3062 72.5883 54.3727 73.1273 52.0523 73.1273C50.3508 73.1273 49.1133 72.8963 48.0305 72.4343C47.025 71.8953 46.1742 71.2794 45.7102 70.5864C45.1687 69.8164 44.6273 68.8924 44.0859 67.7374C43.6992 66.7364 43.0031 65.8894 42.3844 65.4275C41.6883 64.8115 40.9148 64.5805 39.9094 64.5805C38.7492 64.5805 37.7437 64.9655 36.9703 65.6585C36.1195 66.3514 35.8102 67.2754 35.8102 68.2764C35.8102 69.9704 36.3516 71.5873 37.5891 73.2813C38.8266 74.9753 40.4508 76.2843 42.307 77.2853C44.9367 78.7482 48.2625 79.3642 52.2844 79.3642C55.6875 79.3642 58.7039 78.7482 61.1016 77.8242C63.5766 76.9003 65.5102 75.5143 66.825 73.5893C67.8305 72.1263 68.4492 70.5864 68.6039 68.7384C68.6039 68.1994 68.6039 67.7374 68.6039 67.1984ZM99 53.3387C99 53.0307 98.1492 52.1067 97.2984 53.8007C95.1328 58.5746 94.8234 55.1866 93.1992 57.0346C91.8844 58.4976 91.7297 58.1896 92.0391 59.0366C93.1219 61.4235 87.7852 62.8095 88.0945 60.9615C89.1 56.5726 92.0391 54.4936 90.9562 53.3387C89.8734 52.1837 90.3375 52.0297 91.2656 50.0277C92.9672 46.7168 93.5086 45.7158 92.7352 45.7158C92.5805 45.7158 92.4258 45.7158 92.4258 45.7928C91.807 47.1788 90.7242 48.3338 90.0281 49.6427C89.1773 51.1057 85.8516 52.5687 88.2492 46.7168C88.4039 46.4088 88.0945 45.8698 87.6305 45.7158C87.1664 45.5618 86.4703 45.4078 86.0836 45.0998C85.2328 44.4838 83.6086 45.0228 83.6859 43.8678C83.8406 41.8659 82.5258 41.7119 80.7469 39.9409C80.5922 39.7869 79.432 38.9399 80.1281 38.7089C81.1336 38.3239 82.3711 39.8639 82.3711 38.3239C82.3711 37.6309 82.6805 37.0149 82.6805 36.245C82.6805 35.937 82.1391 35.398 81.8297 35.552C80.7469 35.86 80.2828 36.553 79.6641 35.398C79.3547 34.705 80.1281 34.551 80.5148 34.32C82.0617 33.627 80.8242 32.549 82.2938 32.241C83.4539 31.933 84.6914 32.318 84.6141 30.4701C84.6141 30.3931 84.4594 30.2391 84.2273 29.7771C83.9953 29.3921 83.6086 28.7761 83.0672 27.8521C83.7633 27.7751 84.6914 27.0051 84.15 26.3121C81.7523 23.3862 82.2938 25.1572 79.8961 24.0792C78.8906 23.6942 79.432 22.0772 79.7414 21.5382C80.7469 19.7673 81.5203 19.6903 80.9789 19.1513C80.3602 18.5353 79.2 17.9193 79.6641 16.7643C79.7414 16.6103 80.1281 15.3783 79.9734 15.2243C79.2773 14.3773 78.5039 16.4563 76.8797 15.2243C76.1063 14.7623 75.3328 15.9173 73.2445 18.3813C72.007 19.8442 71.8523 18.5353 70.1508 20.4602C69.068 21.6922 69.3 22.7702 67.9078 23.9252C67.1344 24.5412 66.5156 25.4652 65.8969 24.6182C65.7422 24.3872 65.5875 24.2332 65.5102 24.0022L65.4328 23.9252C63.0352 20.6142 63.4992 21.3072 64.6594 19.8442C65.0461 19.3053 64.6594 17.9193 63.4992 18.3813C63.1898 18.5353 62.2617 18.9973 62.0297 18.3043C61.7977 17.6113 63.3445 17.4573 62.4164 16.2253C61.9523 15.5323 61.0242 15.2243 60.4055 14.6853C60.1734 14.4543 60.2508 13.6844 60.5602 13.6074C61.875 12.9914 62.6484 13.4534 62.6484 12.1444C62.8031 9.60343 63.0352 8.91044 62.0297 8.91044C60.4055 8.91044 60.7148 8.14045 59.4773 7.06247C58.6266 6.36948 58.9359 5.5225 58.1625 5.6765C52.6711 7.06247 57.9305 5.90749 50.9695 4.67551C50.1961 4.52152 50.3508 3.90553 49.8094 2.98154C48.9586 1.44157 46.9477 1.59557 46.4836 1.67256C45.8648 1.74956 45.4008 1.36457 43.4672 0.132592C42.6938 -0.3294 42.075 0.440586 40.4508 2.05756C39.832 2.67355 39.1359 2.51955 38.5172 2.75055C37.9758 2.90454 37.5117 3.75153 37.7437 4.05952C37.9758 5.06051 38.5945 5.90749 38.7492 6.90847C39.368 7.90946 39.832 8.91044 40.9148 9.37243C42.2297 9.98842 39.9094 12.2214 40.5281 13.2224C40.7602 13.6844 41.3016 14.3773 40.9922 15.1473C40.5281 16.9183 38.9039 19.1513 38.3625 17.5343C38.1305 16.9183 38.4398 16.0713 37.357 15.8403C36.6609 14.9933 38.3625 13.6074 38.9813 12.7604C39.7547 11.9134 38.5945 10.8354 37.5891 10.1424C36.5836 9.44943 36.1195 11.2204 34.5727 11.2204C32.7164 12.7604 33.2578 13.2994 30.4734 15.3783C30.2414 15.5323 29.6227 16.4563 30.0867 16.7643C31.943 18.1503 32.4844 16.9953 28.5398 22.6162C28.0758 23.3862 26.993 22.3082 26.3742 23.2322C25.6008 24.4642 26.4516 25.8501 24.5953 26.2351C23.8992 26.3121 23.0484 28.2371 23.7445 29.5461C23.2805 29.3921 22.6617 29.3921 22.275 29.7771C21.6562 30.3931 20.9602 30.9321 20.6508 31.625C19.1039 34.474 17.1703 37.015 15.5461 39.9409C13.6125 43.4828 14.3859 39.8639 10.8281 47.3328C10.5961 47.7948 10.132 48.1028 9.51328 48.1028C9.04922 48.1028 8.35312 48.1798 7.88906 48.2568C4.33125 48.3338 5.18203 48.4108 2.16562 50.4897C2.08828 50.5667 2.01094 50.7207 1.93359 50.7977C1.62422 51.4137 1.85625 51.7987 2.16562 52.3377C2.93906 53.7237 1.93359 54.3397 1.39219 55.3406C0.773437 56.4956 2.475 57.4966 2.70703 57.6506C3.55781 58.4206 4.09922 58.0356 6.1875 57.2656C6.96094 57.0346 8.04375 58.0356 7.03828 58.7286C6.26484 59.1906 5.33672 59.8066 4.40859 59.8836C4.02187 59.8836 4.02187 60.4995 4.25391 60.9615C5.33672 62.3475 3.40312 62.5015 3.94453 63.3485C4.33125 63.8875 6.80625 63.3485 6.1875 64.5035C5.87812 65.2735 4.95 64.8885 4.25391 64.9655C3.48047 65.1195 3.01641 65.1965 2.78437 65.2735C2.86172 65.4275 3.01641 65.5815 3.09375 65.7355L3.17109 65.6585C3.17109 65.7355 3.17109 65.7355 3.17109 65.7355H3.09375C3.09375 65.8125 3.17109 65.8125 3.17109 65.8125C3.86719 66.7364 4.56328 67.5064 3.78984 67.8144C2.39766 68.1994 1.46953 68.5074 0.850781 68.7384C0.386719 68.8924 0.154688 68.9694 0 69.0464C0 69.1234 0.0773438 69.1234 0.0773438 69.2004C0.154688 69.2774 0.232031 69.4314 0.232031 69.5084C0.232031 69.5084 0.232031 69.5084 0.232031 69.5854C0.232031 69.5854 0.232031 69.5854 0.232031 69.6624C0.464063 70.1244 0.61875 70.4324 0.464063 71.0484C0.154688 72.5883 1.54688 71.1254 3.86719 72.5113C5.25937 73.2813 5.80078 73.8203 7.03828 74.7443C7.88906 75.4373 5.10469 75.5913 6.03281 76.8233C8.43047 80.2112 9.12656 80.0572 9.51328 81.5202C9.59063 81.8282 11.5242 82.5982 11.7562 82.6752C12.2203 82.8292 12.9164 82.3672 14.2312 81.2892C14.9273 80.6732 15.5461 81.2122 17.7117 82.3672C19.0266 83.0602 16.4742 85.6781 16.9383 86.0631C17.7891 86.9101 19.4906 84.8311 19.7227 84.6771C20.8055 83.6761 20.8828 85.8321 22.6617 85.8321C23.5125 85.8321 23.1258 87.0641 22.4297 87.1411C21.9656 87.1411 21.4242 87.1411 21.1922 87.2951C20.032 88.3731 20.4187 89.759 21.1148 89.528C21.5789 89.374 22.1203 88.989 22.5844 88.7581C23.2805 88.4501 23.9766 88.7581 24.6727 88.6041C25.3687 88.4501 25.6781 87.6031 25.9875 87.0641C27.0703 85.5241 29.5453 85.8321 29.6227 86.6021C29.7 87.4491 30.4734 88.0651 30.9375 88.7581C31.6336 89.913 29.7773 89.836 29.0812 91.761C28.0758 94.302 26.2195 96.4579 27.8438 96.4579C29.3906 96.3809 27.225 97.6899 28.8492 99.5379C29.3133 100.154 28.4625 100.77 29.1586 101.848C30.4734 103.773 30.2414 104.235 30.6281 104.235C31.4789 104.158 32.4844 102.079 31.3242 100.693C31.4789 99.9999 31.4016 99.4609 32.175 99.8459C33.0258 100.154 34.65 100.231 34.2633 101.386C33.1805 104.004 32.8711 104.466 33.7219 105.621C34.3406 106.391 34.7273 107.084 35.8875 107.546C37.6664 108.008 34.65 112.166 36.2742 112.551C37.8211 112.859 38.2852 112.705 38.9039 113.629C39.5227 114.553 39.2906 114.938 39.9094 115.939C41.1469 115.092 40.6055 115.246 41.1469 114.784C41.7656 114.322 43.0805 114.399 43.3898 114.938C45.5555 118.249 44.6273 116.94 45.5555 118.095C45.7875 118.403 47.257 118.711 47.6437 116.863C47.9531 115.631 47.7211 115.092 48.3398 113.552C48.5719 112.936 50.2734 112.012 50.5828 113.321C51.2016 115.631 50.5055 116.324 49.8094 118.634C49.1133 120.866 52.2844 120.404 51.743 116.94C51.5883 116.093 51.743 115.246 52.2844 115.015C54.2953 114.245 55.8422 116.786 57.0023 115.246C57.3891 114.63 58.1625 114.399 58.6266 113.937C60.3281 112.397 59.8641 112.012 61.5656 111.704C62.8805 111.396 61.4883 110.164 62.8031 107.007C63.1898 105.852 63.9633 105.775 64.35 106.16C64.9687 106.622 63.4992 109.086 64.7367 109.163C65.0461 109.163 65.2008 109.086 65.2008 108.701C65.2008 108.701 65.2008 108.701 65.2781 108.701C65.3555 108.778 66.1289 108.547 66.9023 108.624C68.0625 108.701 68.9906 107.854 69.6094 106.93C70.4602 105.698 69.1453 106.391 68.7586 100.924C68.7586 100.693 68.9133 99.2299 69.7641 99.3839C70.6148 99.5379 70.3828 101.617 71.9297 101.54C72.5484 101.463 73.0125 101.771 73.4766 102.156C74.3273 102.618 75.4875 101.54 74.7914 100.616C74.3273 99.9229 74.1727 100.154 74.4047 99.5379C74.6367 98.9219 75.4875 98.9989 75.7195 99.5379C76.5703 101.001 75.9516 102.002 77.1891 101.309C77.7305 101.001 78.0398 100.539 78.6586 100.308C77.8852 100.385 77.4984 98.9219 77.4984 97.9209C77.4984 97.5359 77.8852 96.8429 78.6586 95.7649C78.968 95.3029 79.5867 95.4569 79.7414 95.5339C79.7414 95.3799 79.8187 95.3029 79.8187 95.2259C79.8187 95.0719 79.5867 94.9179 78.3492 93.609C77.8078 93.147 77.8078 93.455 76.8797 93.686C75.8742 93.917 74.7914 91.915 76.6477 91.222C81.0562 89.297 79.8187 88.6041 83.9953 81.9822C84.2273 81.6742 84.4594 81.2892 84.4594 80.8272C84.6914 79.4412 85.6195 78.3632 86.0062 76.9773C86.625 75.2063 87.4758 73.6663 89.1 72.5883C90.1055 71.8183 90.4922 70.5094 91.4977 69.6624C91.8844 68.8924 92.8125 67.3524 93.818 64.2725C94.4367 62.4245 95.8289 63.5795 96.6023 60.8075C97.2211 60.0376 96.2156 59.7296 96.8344 58.3436C98.8453 54.1857 98.9227 54.2627 99 53.3387ZM82.3711 26.6201C83.0672 27.0051 82.7578 27.6211 82.0617 27.3131C81.443 27.0051 81.7523 26.3121 82.3711 26.6201ZM6.34219 51.1827C6.34219 50.8747 6.34219 50.9517 6.49687 51.0287L6.34219 51.1827ZM0.464063 69.7394C0.464063 69.8164 0.386719 69.8164 0.464063 69.7394V69.7394ZM6.96094 62.0395C6.96094 61.9625 6.88359 61.8855 6.88359 61.7315C6.96094 61.7315 7.11563 61.6545 7.19297 61.7315C7.425 62.0395 7.27031 62.1165 6.96094 62.0395ZM12.9164 77.6702C13.0711 78.3632 11.9109 79.7492 9.82266 76.4383C9.51328 75.8993 9.74531 75.4373 10.2094 73.5893C10.3641 73.1273 11.9109 72.9733 11.6016 73.8973V74.2823C11.6016 74.7443 11.8336 74.8983 12.375 74.7443C13.8445 74.6673 12.4523 75.9763 12.9164 77.6702ZM15.7008 71.5104C14.2312 74.0513 11.5242 72.7423 11.2922 70.5094C11.1375 69.1234 12.143 69.8934 15.2367 70.1244C15.6234 70.1244 16.0102 71.0484 15.7008 71.5104ZM19.2586 69.1234C18.6398 67.5834 21.4242 67.4294 21.5789 69.3544C21.7336 70.2784 20.032 70.8174 19.2586 69.1234ZM78.3492 33.704C79.0453 33.781 78.5813 34.859 78.0398 34.397C77.3438 34.012 77.8852 33.627 78.3492 33.704ZM56.3063 11.9134C57.157 11.7594 58.7812 11.7594 58.7812 12.6064C58.7812 13.2994 58.3172 13.9154 58.1625 14.4543C57.5437 16.3793 57.3117 17.6883 54.5273 16.6103C52.7484 15.9173 55.1461 12.1444 56.3063 11.9134ZM48.4945 11.2974C48.5719 11.3744 48.4945 11.5284 48.4945 11.6054C48.3398 11.6054 48.2625 11.6824 48.1852 11.6054C47.4891 11.2974 48.1852 10.9894 48.4945 11.2974ZM43.9312 9.14143C44.1633 9.14143 44.4727 9.60343 44.318 9.60343C43.6992 10.2194 43.3125 9.06444 43.9312 9.14143ZM34.1859 21.6152C34.1859 22.0002 34.2633 21.9232 33.9539 21.8462L34.1859 21.6152ZM35.0367 22.1542C35.1914 21.9232 35.4234 21.9232 35.7328 22.0002C36.1969 22.2312 35.8102 22.3852 35.8102 23.8482C35.8102 24.5412 36.4289 25.8501 35.0367 26.2351C34.2633 26.4661 33.7219 26.5431 33.4898 26.1581C33.2578 25.6191 33.3352 25.0802 35.0367 22.1542ZM31.8656 23.1552C32.4844 23.2322 32.2523 23.8482 31.8656 23.7712C31.4789 23.6942 31.2469 23.0782 31.8656 23.1552ZM30.8602 24.4642C31.0148 24.5412 31.0148 24.9262 30.8602 25.1572C30.0867 25.6191 30.2414 24.0792 30.8602 24.4642ZM30.0867 31.625C30.7055 31.702 30.3961 32.78 29.8547 32.703C29.3906 32.626 29.3906 31.548 30.0867 31.625ZM29.6227 26.9281C29.6227 27.2361 29.7 27.1591 29.3906 27.4671C29.3906 27.0051 29.3133 27.1591 29.6227 26.9281ZM24.518 29.0841C24.8273 29.1611 24.6727 29.2381 24.518 29.3921V29.0841ZM31.8656 94.533C31.943 94.533 32.0203 94.61 32.0203 94.61C32.0977 95.3799 31.2469 95.2259 31.8656 94.533ZM37.125 98.3829C37.2023 98.4599 37.125 98.5369 37.2023 98.6139C36.4289 98.8449 36.8156 98.0749 37.125 98.3829ZM40.6055 107.777L40.8375 107.931C40.5281 108.162 40.6055 108.162 40.6055 107.777ZM43.4672 100.77C43.4672 100.847 43.4672 100.847 43.4672 100.77L43.3898 100.847C43.2352 102.464 43.4672 102.849 41.843 104.312C41.7656 104.389 41.6109 104.389 41.5336 104.389C40.6828 104.389 39.9867 104.774 39.2906 105.39C38.5945 106.006 37.2023 106.468 37.2023 105.544C37.2023 103.85 37.2797 103.234 38.2078 103.157C39.7547 102.926 39.4453 101.925 40.7602 102.079C41.3016 102.156 41.7656 101.771 42.075 101.232C42.3844 100.693 42.8484 100.847 43.3898 100.847V100.77H43.4672C43.5445 100.77 43.4672 100.77 43.4672 100.77C43.4672 100.847 43.5445 100.847 43.4672 100.77ZM37.7437 90.144C37.7437 89.297 39.1359 88.6811 39.6 89.451C40.3734 91.453 37.5891 91.992 37.7437 90.144ZM40.3734 98.0749C40.8375 97.6899 41.4563 98.7679 40.5281 99.1529C39.9867 99.4609 39.9867 98.4599 40.3734 98.0749ZM44.1633 101.617C44.0086 101.463 43.8539 101.155 43.5445 100.924C43.8539 100.924 44.0859 100.77 44.55 100.539C45.0141 100.154 45.6328 100.616 45.7102 101.232C45.4781 101.848 44.6273 102.541 44.1633 101.617ZM47.8758 103.157C47.257 103.542 46.3289 102.464 47.257 102.079C47.7211 101.848 48.3398 102.849 47.8758 103.157ZM49.1133 96.8429C48.8039 96.7659 48.7266 96.6119 48.7266 96.4579C48.5719 96.3809 48.3398 96.3809 48.2625 96.2269C47.9531 95.6879 48.5719 95.4569 48.7266 95.9959C48.8039 96.1499 48.7266 96.3039 48.8039 96.5349C48.8812 96.3809 49.0359 96.4579 49.1133 96.8429C48.3398 96.9969 48.8039 97.7669 49.1133 96.8429ZM49.9641 101.54C49.8867 101.617 49.732 101.617 49.6547 101.694C49.5773 101.617 49.5 101.463 49.5 101.386C49.5773 100.924 50.5055 99.5379 50.5055 100.539C50.4281 100.847 50.0414 101.386 49.9641 101.54ZM66.2836 108.547C66.2836 108.393 66.2836 108.239 66.3609 108.162C66.7477 108.316 66.593 108.162 66.2836 108.547ZM65.6648 97.1509C65.2008 96.7659 65.2781 96.5349 65.7422 96.3039C66.2063 96.2269 67.7531 95.5339 67.6758 96.6119C67.2891 100.462 66.1289 97.4589 65.6648 97.1509ZM80.8242 77.0543C80.7469 77.4392 80.5922 77.9012 80.5148 78.2862C79.5867 81.3662 77.4984 84.1381 74.8688 86.1401C72.1617 88.1421 68.7586 89.374 65.0461 89.374C62.2617 89.374 59.5547 88.6811 57.3117 87.4491C55.6102 87.6801 53.9086 87.8341 52.207 87.8341C36.7383 87.8341 24.1313 75.4373 24.1313 60.1915C24.1313 58.3436 24.2859 56.4186 24.6727 54.6476C23.2031 52.3377 22.507 49.6427 22.507 46.6398C22.507 37.7849 29.8547 30.5471 38.8266 30.5471C41.9977 30.5471 44.9367 31.394 47.4891 32.934C49.1133 32.703 50.6602 32.549 52.3617 32.549C55.0687 32.549 57.6984 33.011 60.0961 33.704C59.8641 33.165 59.9414 32.395 60.3281 31.856C60.3281 31.856 60.4055 31.779 60.4055 31.702C60.7922 31.2401 61.5656 31.702 61.7977 32.395C62.107 33.011 62.0297 33.858 61.3336 34.166C61.5656 34.243 61.875 34.32 62.107 34.397C72.8578 38.2469 80.5148 48.4878 80.5148 60.2685C80.5148 62.3475 80.3602 64.2725 79.8961 66.1974C80.9789 68.4304 81.5977 70.8174 81.2109 73.3583V73.8203C81.2883 73.5893 81.2883 73.3583 81.3656 73.0503C81.3656 72.7423 82.1391 72.7423 82.4484 73.0503C83.7633 75.2833 82.0617 75.4373 80.8242 77.0543ZM84.15 57.2656C83.918 57.2656 82.9125 57.4966 82.6031 57.1886C82.4484 56.9576 82.5258 56.7266 82.7578 56.4956C82.9898 56.2646 83.2219 55.8796 83.6086 55.6486C85.0008 54.4936 85.1555 57.1886 84.15 57.2656ZM67.4437 62.3475C66.593 61.0385 65.5875 59.9606 64.2727 59.1136C62.9578 58.2666 61.2563 57.4966 59.4 56.9576C57.5438 56.4956 55.4555 55.8026 53.2125 55.3406C51.4336 54.8016 50.1187 54.4936 49.3453 54.3396C48.5719 54.1087 47.7211 53.8777 47.1023 53.4927C46.4063 53.1077 45.7875 52.7227 45.4008 52.2607C45.0141 51.8757 44.8594 51.2597 44.8594 50.6437C44.8594 49.6427 45.4781 48.7957 46.6383 48.0258C47.8758 47.2558 49.5 46.8708 51.5109 46.8708C53.6766 46.8708 55.3008 47.1788 56.2289 47.9488C57.157 48.7187 58.0852 49.7197 58.7812 51.0287C59.4 52.0297 59.9414 52.7997 60.4828 53.1847C61.0242 53.5697 61.7203 53.8777 62.8031 53.8777C63.9633 53.8777 64.9688 53.3387 65.7422 52.6457C66.593 51.9527 66.9023 51.0287 66.9023 50.0277C66.9023 48.9497 66.6703 47.9488 66.0516 46.8708C65.5875 45.7928 64.6594 44.8688 63.3445 43.8678C62.107 42.9438 60.4828 42.0969 58.6266 41.6349C56.8477 41.0189 54.6047 40.7879 52.0523 40.7879C48.8813 40.7879 46.0195 41.1729 43.6992 42.0199C41.3789 42.7898 39.5227 44.0988 38.2078 45.7158C36.893 47.4098 36.2742 49.2577 36.2742 51.3367C36.2742 53.4927 36.893 55.3406 38.1305 56.8806C39.368 58.4206 40.9922 59.5756 43.0031 60.4225C45.0141 61.2695 47.4891 62.0395 50.4281 62.5785C52.5937 63.0405 54.2953 63.5025 55.6875 63.8105C56.925 64.1955 57.9305 64.8115 58.7039 65.5045C59.4773 66.1974 59.7867 67.0444 59.7867 68.1224C59.7867 69.4314 59.0906 70.5864 57.6984 71.5873C56.3062 72.5883 54.3727 73.1273 52.0523 73.1273C50.3508 73.1273 49.1133 72.8963 48.0305 72.4343C47.025 71.8953 46.1742 71.2794 45.7102 70.5864C45.1687 69.8164 44.6273 68.8924 44.0859 67.7374C43.6992 66.7364 43.0031 65.8894 42.3844 65.4275C41.6883 64.8115 40.9148 64.5805 39.9094 64.5805C38.7492 64.5805 37.7437 64.9655 36.9703 65.6585C36.1195 66.3514 35.8102 67.2754 35.8102 68.2764C35.8102 69.9704 36.3516 71.5873 37.5891 73.2813C38.8266 74.9753 40.4508 76.2843 42.307 77.2853C44.9367 78.7482 48.2625 79.3642 52.2844 79.3642C55.6875 79.3642 58.7039 78.7482 61.1016 77.8242C63.5766 76.9003 65.5102 75.5143 66.825 73.5893C67.8305 72.1263 68.4492 70.5864 68.6039 68.7384C68.6039 68.2764 68.6039 67.7374 68.6039 67.1984C68.6039 65.3505 68.1398 63.6565 67.4437 62.3475ZM68.6039 67.1984C68.6039 65.3505 68.1398 63.6565 67.4437 62.3475C66.593 61.0385 65.5875 59.9606 64.2727 59.1136C62.9578 58.2666 61.2563 57.4966 59.4 56.9576C57.5438 56.4956 55.4555 55.8026 53.2125 55.3406C51.4336 54.8016 50.1187 54.4936 49.3453 54.3396C48.5719 54.1087 47.7211 53.8777 47.1023 53.4927C46.4063 53.1077 45.7875 52.7227 45.4008 52.2607C45.0141 51.8757 44.8594 51.2597 44.8594 50.6437C44.8594 49.6427 45.4781 48.7957 46.6383 48.0258C47.8758 47.2558 49.5 46.8708 51.5109 46.8708C53.6766 46.8708 55.3008 47.1788 56.2289 47.9488C57.157 48.7187 58.0852 49.7197 58.7812 51.0287C59.4 52.0297 59.9414 52.7997 60.4828 53.1847C61.0242 53.5697 61.7203 53.8777 62.8031 53.8777C63.9633 53.8777 64.9688 53.3387 65.7422 52.6457C66.593 51.9527 66.9023 51.0287 66.9023 50.0277C66.9023 48.9497 66.6703 47.9488 66.0516 46.8708C65.5875 45.7928 64.6594 44.8688 63.3445 43.8678C62.107 42.9438 60.4828 42.0969 58.6266 41.6349C56.8477 41.0189 54.6047 40.7879 52.0523 40.7879C48.8813 40.7879 46.0195 41.1729 43.6992 42.0199C41.3789 42.7898 39.5227 44.0988 38.2078 45.7158C36.893 47.4098 36.2742 49.2577 36.2742 51.3367C36.2742 53.4927 36.893 55.3406 38.1305 56.8806C39.368 58.4206 40.9922 59.5756 43.0031 60.4225C45.0141 61.2695 47.4891 62.0395 50.4281 62.5785C52.5937 63.0405 54.2953 63.5025 55.6875 63.8105C56.925 64.1955 57.9305 64.8115 58.7039 65.5045C59.4773 66.1974 59.7867 67.0444 59.7867 68.1224C59.7867 69.4314 59.0906 70.5864 57.6984 71.5873C56.3062 72.5883 54.3727 73.1273 52.0523 73.1273C50.3508 73.1273 49.1133 72.8963 48.0305 72.4343C47.025 71.8953 46.1742 71.2794 45.7102 70.5864C45.1687 69.8164 44.6273 68.8924 44.0859 67.7374C43.6992 66.7364 43.0031 65.8894 42.3844 65.4275C41.6883 64.8115 40.9148 64.5805 39.9094 64.5805C38.7492 64.5805 37.7437 64.9655 36.9703 65.6585C36.1195 66.3514 35.8102 67.2754 35.8102 68.2764C35.8102 69.9704 36.3516 71.5873 37.5891 73.2813C38.8266 74.9753 40.4508 76.2843 42.307 77.2853C44.9367 78.7482 48.2625 79.3642 52.2844 79.3642C55.6875 79.3642 58.7039 78.7482 61.1016 77.8242C63.5766 76.9003 65.5102 75.5143 66.825 73.5893C67.8305 72.1263 68.4492 70.5864 68.6039 68.7384C68.6039 68.1994 68.6039 67.7374 68.6039 67.1984ZM68.6039 67.1984C68.6039 65.3505 68.1398 63.6565 67.4437 62.3475C66.593 61.0385 65.5875 59.9606 64.2727 59.1136C62.9578 58.2666 61.2563 57.4966 59.4 56.9576C57.5438 56.4956 55.4555 55.8026 53.2125 55.3406C51.4336 54.8016 50.1187 54.4936 49.3453 54.3396C48.5719 54.1087 47.7211 53.8777 47.1023 53.4927C46.4063 53.1077 45.7875 52.7227 45.4008 52.2607C45.0141 51.8757 44.8594 51.2597 44.8594 50.6437C44.8594 49.6427 45.4781 48.7957 46.6383 48.0258C47.8758 47.2558 49.5 46.8708 51.5109 46.8708C53.6766 46.8708 55.3008 47.1788 56.2289 47.9488C57.157 48.7187 58.0852 49.7197 58.7812 51.0287C59.4 52.0297 59.9414 52.7997 60.4828 53.1847C61.0242 53.5697 61.7203 53.8777 62.8031 53.8777C63.9633 53.8777 64.9688 53.3387 65.7422 52.6457C66.593 51.9527 66.9023 51.0287 66.9023 50.0277C66.9023 48.9497 66.6703 47.9488 66.0516 46.8708C65.5875 45.7928 64.6594 44.8688 63.3445 43.8678C62.107 42.9438 60.4828 42.0969 58.6266 41.6349C56.8477 41.0189 54.6047 40.7879 52.0523 40.7879C48.8813 40.7879 46.0195 41.1729 43.6992 42.0199C41.3789 42.7898 39.5227 44.0988 38.2078 45.7158C36.893 47.4098 36.2742 49.2577 36.2742 51.3367C36.2742 53.4927 36.893 55.3406 38.1305 56.8806C39.368 58.4206 40.9922 59.5756 43.0031 60.4225C45.0141 61.2695 47.4891 62.0395 50.4281 62.5785C52.5937 63.0405 54.2953 63.5025 55.6875 63.8105C56.925 64.1955 57.9305 64.8115 58.7039 65.5045C59.4773 66.1974 59.7867 67.0444 59.7867 68.1224C59.7867 69.4314 59.0906 70.5864 57.6984 71.5873C56.3062 72.5883 54.3727 73.1273 52.0523 73.1273C50.3508 73.1273 49.1133 72.8963 48.0305 72.4343C47.025 71.8953 46.1742 71.2794 45.7102 70.5864C45.1687 69.8164 44.6273 68.8924 44.0859 67.7374C43.6992 66.7364 43.0031 65.8894 42.3844 65.4275C41.6883 64.8115 40.9148 64.5805 39.9094 64.5805C38.7492 64.5805 37.7437 64.9655 36.9703 65.6585C36.1195 66.3514 35.8102 67.2754 35.8102 68.2764C35.8102 69.9704 36.3516 71.5873 37.5891 73.2813C38.8266 74.9753 40.4508 76.2843 42.307 77.2853C44.9367 78.7482 48.2625 79.3642 52.2844 79.3642C55.6875 79.3642 58.7039 78.7482 61.1016 77.8242C63.5766 76.9003 65.5102 75.5143 66.825 73.5893C67.8305 72.1263 68.4492 70.5864 68.6039 68.7384C68.6039 68.1994 68.6039 67.7374 68.6039 67.1984ZM68.6039 67.1984C68.6039 65.3505 68.1398 63.6565 67.4437 62.3475C66.593 61.0385 65.5875 59.9606 64.2727 59.1136C62.9578 58.2666 61.2563 57.4966 59.4 56.9576C57.5438 56.4956 55.4555 55.8026 53.2125 55.3406C51.4336 54.8016 50.1187 54.4936 49.3453 54.3396C48.5719 54.1087 47.7211 53.8777 47.1023 53.4927C46.4063 53.1077 45.7875 52.7227 45.4008 52.2607C45.0141 51.8757 44.8594 51.2597 44.8594 50.6437C44.8594 49.6427 45.4781 48.7957 46.6383 48.0258C47.8758 47.2558 49.5 46.8708 51.5109 46.8708C53.6766 46.8708 55.3008 47.1788 56.2289 47.9488C57.157 48.7187 58.0852 49.7197 58.7812 51.0287C59.4 52.0297 59.9414 52.7997 60.4828 53.1847C61.0242 53.5697 61.7203 53.8777 62.8031 53.8777C63.9633 53.8777 64.9688 53.3387 65.7422 52.6457C66.593 51.9527 66.9023 51.0287 66.9023 50.0277C66.9023 48.9497 66.6703 47.9488 66.0516 46.8708C65.5875 45.7928 64.6594 44.8688 63.3445 43.8678C62.107 42.9438 60.4828 42.0969 58.6266 41.6349C56.8477 41.0189 54.6047 40.7879 52.0523 40.7879C48.8813 40.7879 46.0195 41.1729 43.6992 42.0199C41.3789 42.7898 39.5227 44.0988 38.2078 45.7158C36.893 47.4098 36.2742 49.2577 36.2742 51.3367C36.2742 53.4927 36.893 55.3406 38.1305 56.8806C39.368 58.4206 40.9922 59.5756 43.0031 60.4225C45.0141 61.2695 47.4891 62.0395 50.4281 62.5785C52.5937 63.0405 54.2953 63.5025 55.6875 63.8105C56.925 64.1955 57.9305 64.8115 58.7039 65.5045C59.4773 66.1974 59.7867 67.0444 59.7867 68.1224C59.7867 69.4314 59.0906 70.5864 57.6984 71.5873C56.3062 72.5883 54.3727 73.1273 52.0523 73.1273C50.3508 73.1273 49.1133 72.8963 48.0305 72.4343C47.025 71.8953 46.1742 71.2794 45.7102 70.5864C45.1687 69.8164 44.6273 68.8924 44.0859 67.7374C43.6992 66.7364 43.0031 65.8894 42.3844 65.4275C41.6883 64.8115 40.9148 64.5805 39.9094 64.5805C38.7492 64.5805 37.7437 64.9655 36.9703 65.6585C36.1195 66.3514 35.8102 67.2754 35.8102 68.2764C35.8102 69.9704 36.3516 71.5873 37.5891 73.2813C38.8266 74.9753 40.4508 76.2843 42.307 77.2853C44.9367 78.7482 48.2625 79.3642 52.2844 79.3642C55.6875 79.3642 58.7039 78.7482 61.1016 77.8242C63.5766 76.9003 65.5102 75.5143 66.825 73.5893C67.8305 72.0493 68.4492 70.5094 68.6039 68.7384C68.6039 68.1994 68.6039 67.7374 68.6039 67.1984ZM68.6039 67.1984C68.6039 65.3505 68.1398 63.6565 67.4437 62.3475C66.593 61.0385 65.5875 59.9606 64.2727 59.1136C62.9578 58.2666 61.2563 57.4966 59.4 56.9576C57.5438 56.4956 55.4555 55.8026 53.2125 55.3406C51.4336 54.8016 50.1187 54.4936 49.3453 54.3396C48.5719 54.1087 47.7211 53.8777 47.1023 53.4927C46.4063 53.1077 45.7875 52.7227 45.4008 52.2607C45.0141 51.8757 44.8594 51.2597 44.8594 50.6437C44.8594 49.6427 45.4781 48.7957 46.6383 48.0258C47.8758 47.2558 49.5 46.8708 51.5109 46.8708C53.6766 46.8708 55.3008 47.1788 56.2289 47.9488C57.157 48.7187 58.0852 49.7197 58.7812 51.0287C59.4 52.0297 59.9414 52.7997 60.4828 53.1847C61.0242 53.5697 61.7203 53.8777 62.8031 53.8777C63.9633 53.8777 64.9688 53.3387 65.7422 52.6457C66.593 51.9527 66.9023 51.0287 66.9023 50.0277C66.9023 48.9497 66.6703 47.9488 66.0516 46.8708C65.5875 45.7928 64.6594 44.8688 63.3445 43.8678C62.107 42.9438 60.4828 42.0969 58.6266 41.6349C56.8477 41.0189 54.6047 40.7879 52.0523 40.7879C48.8813 40.7879 46.0195 41.1729 43.6992 42.0199C41.3789 42.7898 39.5227 44.0988 38.2078 45.7158C36.893 47.4098 36.2742 49.2577 36.2742 51.3367C36.2742 53.4927 36.893 55.3406 38.1305 56.8806C39.368 58.4206 40.9922 59.5756 43.0031 60.4225C45.0141 61.2695 47.4891 62.0395 50.4281 62.5785C52.5937 63.0405 54.2953 63.5025 55.6875 63.8105C56.925 64.1955 57.9305 64.8115 58.7039 65.5045C59.4773 66.1974 59.7867 67.0444 59.7867 68.1224C59.7867 69.4314 59.0906 70.5864 57.6984 71.5873C56.3062 72.5883 54.3727 73.1273 52.0523 73.1273C50.3508 73.1273 49.1133 72.8963 48.0305 72.4343C47.025 71.8953 46.1742 71.2794 45.7102 70.5864C45.1687 69.8164 44.6273 68.8924 44.0859 67.7374C43.6992 66.7364 43.0031 65.8894 42.3844 65.4275C41.6883 64.8115 40.9148 64.5805 39.9094 64.5805C38.7492 64.5805 37.7437 64.9655 36.9703 65.6585C36.1195 66.3514 35.8102 67.2754 35.8102 68.2764C35.8102 69.9704 36.3516 71.5873 37.5891 73.2813C38.8266 74.9753 40.4508 76.2843 42.307 77.2853C44.9367 78.7482 48.2625 79.3642 52.2844 79.3642C55.6875 79.3642 58.7039 78.7482 61.1016 77.8242C63.5766 76.9003 65.5102 75.5143 66.825 73.5893C67.8305 72.0493 68.4492 70.5094 68.6039 68.7384C68.6039 68.1994 68.6039 67.7374 68.6039 67.1984ZM68.6039 67.1984C68.6039 65.3505 68.1398 63.6565 67.4437 62.3475C66.593 61.0385 65.5875 59.9606 64.2727 59.1136C62.9578 58.2666 61.2563 57.4966 59.4 56.9576C57.5438 56.4956 55.4555 55.8026 53.2125 55.3406C51.4336 54.8016 50.1187 54.4936 49.3453 54.3396C48.5719 54.1087 47.7211 53.8777 47.1023 53.4927C46.4063 53.1077 45.7875 52.7227 45.4008 52.2607C45.0141 51.8757 44.8594 51.2597 44.8594 50.6437C44.8594 49.6427 45.4781 48.7957 46.6383 48.0258C47.8758 47.2558 49.5 46.8708 51.5109 46.8708C53.6766 46.8708 55.3008 47.1788 56.2289 47.9488C57.157 48.7187 58.0852 49.7197 58.7812 51.0287C59.4 52.0297 59.9414 52.7997 60.4828 53.1847C61.0242 53.5697 61.7203 53.8777 62.8031 53.8777C63.9633 53.8777 64.9688 53.3387 65.7422 52.6457C66.593 51.9527 66.9023 51.0287 66.9023 50.0277C66.9023 48.9497 66.6703 47.9488 66.0516 46.8708C65.5875 45.7928 64.6594 44.8688 63.3445 43.8678C62.107 42.9438 60.4828 42.0969 58.6266 41.6349C56.8477 41.0189 54.6047 40.7879 52.0523 40.7879C48.8813 40.7879 46.0195 41.1729 43.6992 42.0199C41.3789 42.7898 39.5227 44.0988 38.2078 45.7158C36.893 47.4098 36.2742 49.2577 36.2742 51.3367C36.2742 53.4927 36.893 55.3406 38.1305 56.8806C39.368 58.4206 40.9922 59.5756 43.0031 60.4225C45.0141 61.2695 47.4891 62.0395 50.4281 62.5785C52.5937 63.0405 54.2953 63.5025 55.6875 63.8105C56.925 64.1955 57.9305 64.8115 58.7039 65.5045C59.4773 66.1974 59.7867 67.0444 59.7867 68.1224C59.7867 69.4314 59.0906 70.5864 57.6984 71.5873C56.3062 72.5883 54.3727 73.1273 52.0523 73.1273C50.3508 73.1273 49.1133 72.8963 48.0305 72.4343C47.025 71.8953 46.1742 71.2794 45.7102 70.5864C45.1687 69.8164 44.6273 68.8924 44.0859 67.7374C43.6992 66.7364 43.0031 65.8894 42.3844 65.4275C41.6883 64.8115 40.9148 64.5805 39.9094 64.5805C38.7492 64.5805 37.7437 64.9655 36.9703 65.6585C36.1195 66.3514 35.8102 67.2754 35.8102 68.2764C35.8102 69.9704 36.3516 71.5873 37.5891 73.2813C38.8266 74.9753 40.4508 76.2843 42.307 77.2853C44.9367 78.7482 48.2625 79.3642 52.2844 79.3642C55.6875 79.3642 58.7039 78.7482 61.1016 77.8242C63.5766 76.9003 65.5102 75.5143 66.825 73.5893C67.8305 72.0493 68.4492 70.5094 68.6039 68.7384C68.6039 68.1994 68.6039 67.7374 68.6039 67.1984ZM68.6039 67.1984C68.6039 65.3505 68.1398 63.6565 67.4437 62.3475C66.593 61.0385 65.5875 59.9606 64.2727 59.1136C62.9578 58.2666 61.2563 57.4966 59.4 56.9576C57.5438 56.4956 55.4555 55.8026 53.2125 55.3406C51.4336 54.8016 50.1187 54.4936 49.3453 54.3396C48.5719 54.1087 47.7211 53.8777 47.1023 53.4927C46.4063 53.1077 45.7875 52.7227 45.4008 52.2607C45.0141 51.8757 44.8594 51.2597 44.8594 50.6437C44.8594 49.6427 45.4781 48.7957 46.6383 48.0258C47.8758 47.2558 49.5 46.8708 51.5109 46.8708C53.6766 46.8708 55.3008 47.1788 56.2289 47.9488C57.157 48.7187 58.0852 49.7197 58.7812 51.0287C59.4 52.0297 59.9414 52.7997 60.4828 53.1847C61.0242 53.5697 61.7203 53.8777 62.8031 53.8777C63.9633 53.8777 64.9688 53.3387 65.7422 52.6457C66.593 51.9527 66.9023 51.0287 66.9023 50.0277C66.9023 48.9497 66.6703 47.9488 66.0516 46.8708C65.5875 45.7928 64.6594 44.8688 63.3445 43.8678C62.107 42.9438 60.4828 42.0969 58.6266 41.6349C56.8477 41.0189 54.6047 40.7879 52.0523 40.7879C48.8813 40.7879 46.0195 41.1729 43.6992 42.0199C41.3789 42.7898 39.5227 44.0988 38.2078 45.7158C36.893 47.4098 36.2742 49.2577 36.2742 51.3367C36.2742 53.4927 36.893 55.3406 38.1305 56.8806C39.368 58.4206 40.9922 59.5756 43.0031 60.4225C45.0141 61.2695 47.4891 62.0395 50.4281 62.5785C52.5937 63.0405 54.2953 63.5025 55.6875 63.8105C56.925 64.1955 57.9305 64.8115 58.7039 65.5045C59.4773 66.1974 59.7867 67.0444 59.7867 68.1224C59.7867 69.4314 59.0906 70.5864 57.6984 71.5873C56.3062 72.5883 54.3727 73.1273 52.0523 73.1273C50.3508 73.1273 49.1133 72.8963 48.0305 72.4343C47.025 71.8953 46.1742 71.2794 45.7102 70.5864C45.1687 69.8164 44.6273 68.8924 44.0859 67.7374C43.6992 66.7364 43.0031 65.8894 42.3844 65.4275C41.6883 64.8115 40.9148 64.5805 39.9094 64.5805C38.7492 64.5805 37.7437 64.9655 36.9703 65.6585C36.1195 66.3514 35.8102 67.2754 35.8102 68.2764C35.8102 69.9704 36.3516 71.5873 37.5891 73.2813C38.8266 74.9753 40.4508 76.2843 42.307 77.2853C44.9367 78.7482 48.2625 79.3642 52.2844 79.3642C55.6875 79.3642 58.7039 78.7482 61.1016 77.8242C63.5766 76.9003 65.5102 75.5143 66.825 73.5893C67.8305 72.0493 68.4492 70.5094 68.6039 68.7384C68.6039 68.1994 68.6039 67.7374 68.6039 67.1984ZM68.6039 67.1984C68.6039 65.3505 68.1398 63.6565 67.4437 62.3475C66.593 61.0385 65.5875 59.9606 64.2727 59.1136C62.9578 58.2666 61.2563 57.4966 59.4 56.9576C57.5438 56.4956 55.4555 55.8026 53.2125 55.3406C51.4336 54.8016 50.1187 54.4936 49.3453 54.3396C48.5719 54.1087 47.7211 53.8777 47.1023 53.4927C46.4063 53.1077 45.7875 52.7227 45.4008 52.2607C45.0141 51.8757 44.8594 51.2597 44.8594 50.6437C44.8594 49.6427 45.4781 48.7957 46.6383 48.0258C47.8758 47.2558 49.5 46.8708 51.5109 46.8708C53.6766 46.8708 55.3008 47.1788 56.2289 47.9488C57.157 48.7187 58.0852 49.7197 58.7812 51.0287C59.4 52.0297 59.9414 52.7997 60.4828 53.1847C61.0242 53.5697 61.7203 53.8777 62.8031 53.8777C63.9633 53.8777 64.9688 53.3387 65.7422 52.6457C66.593 51.9527 66.9023 51.0287 66.9023 50.0277C66.9023 48.9497 66.6703 47.9488 66.0516 46.8708C65.5875 45.7928 64.6594 44.8688 63.3445 43.8678C62.107 42.9438 60.4828 42.0969 58.6266 41.6349C56.8477 41.0189 54.6047 40.7879 52.0523 40.7879C48.8813 40.7879 46.0195 41.1729 43.6992 42.0199C41.3789 42.7898 39.5227 44.0988 38.2078 45.7158C36.893 47.4098 36.2742 49.2577 36.2742 51.3367C36.2742 53.4927 36.893 55.3406 38.1305 56.8806C39.368 58.4206 40.9922 59.5756 43.0031 60.4225C45.0141 61.2695 47.4891 62.0395 50.4281 62.5785C52.5937 63.0405 54.2953 63.5025 55.6875 63.8105C56.925 64.1955 57.9305 64.8115 58.7039 65.5045C59.4773 66.1974 59.7867 67.0444 59.7867 68.1224C59.7867 69.4314 59.0906 70.5864 57.6984 71.5873C56.3062 72.5883 54.3727 73.1273 52.0523 73.1273C50.3508 73.1273 49.1133 72.8963 48.0305 72.4343C47.025 71.8953 46.1742 71.2794 45.7102 70.5864C45.1687 69.8164 44.6273 68.8924 44.0859 67.7374C43.6992 66.7364 43.0031 65.8894 42.3844 65.4275C41.6883 64.8115 40.9148 64.5805 39.9094 64.5805C38.7492 64.5805 37.7437 64.9655 36.9703 65.6585C36.1195 66.3514 35.8102 67.2754 35.8102 68.2764C35.8102 69.9704 36.3516 71.5873 37.5891 73.2813C38.8266 74.9753 40.4508 76.2843 42.307 77.2853C44.9367 78.7482 48.2625 79.3642 52.2844 79.3642C55.6875 79.3642 58.7039 78.7482 61.1016 77.8242C63.5766 76.9003 65.5102 75.5143 66.825 73.5893C67.8305 72.0493 68.4492 70.5094 68.6039 68.7384C68.6039 68.1994 68.6039 67.7374 68.6039 67.1984ZM68.6039 67.1984C68.6039 65.3505 68.1398 63.6565 67.4437 62.3475C66.593 61.0385 65.5875 59.9606 64.2727 59.1136C62.9578 58.2666 61.2563 57.4966 59.4 56.9576C57.5438 56.4956 55.4555 55.8026 53.2125 55.3406C51.4336 54.8016 50.1187 54.4936 49.3453 54.3396C48.5719 54.1087 47.7211 53.8777 47.1023 53.4927C46.4063 53.1077 45.7875 52.7227 45.4008 52.2607C45.0141 51.8757 44.8594 51.2597 44.8594 50.6437C44.8594 49.6427 45.4781 48.7957 46.6383 48.0258C47.8758 47.2558 49.5 46.8708 51.5109 46.8708C53.6766 46.8708 55.3008 47.1788 56.2289 47.9488C57.157 48.7187 58.0852 49.7197 58.7812 51.0287C59.4 52.0297 59.9414 52.7997 60.4828 53.1847C61.0242 53.5697 61.7203 53.8777 62.8031 53.8777C63.9633 53.8777 64.9688 53.3387 65.7422 52.6457C66.593 51.9527 66.9023 51.0287 66.9023 50.0277C66.9023 48.9497 66.6703 47.9488 66.0516 46.8708C65.5875 45.7928 64.6594 44.8688 63.3445 43.8678C62.107 42.9438 60.4828 42.0969 58.6266 41.6349C56.8477 41.0189 54.6047 40.7879 52.0523 40.7879C48.8813 40.7879 46.0195 41.1729 43.6992 42.0199C41.3789 42.7898 39.5227 44.0988 38.2078 45.7158C36.893 47.4098 36.2742 49.2577 36.2742 51.3367C36.2742 53.4927 36.893 55.3406 38.1305 56.8806C39.368 58.4206 40.9922 59.5756 43.0031 60.4225C45.0141 61.2695 47.4891 62.0395 50.4281 62.5785C52.5937 63.0405 54.2953 63.5025 55.6875 63.8105C56.925 64.1955 57.9305 64.8115 58.7039 65.5045C59.4773 66.1974 59.7867 67.0444 59.7867 68.1224C59.7867 69.4314 59.0906 70.5864 57.6984 71.5873C56.3062 72.5883 54.3727 73.1273 52.0523 73.1273C50.3508 73.1273 49.1133 72.8963 48.0305 72.4343C47.025 71.8953 46.1742 71.2794 45.7102 70.5864C45.1687 69.8164 44.6273 68.8924 44.0859 67.7374C43.6992 66.7364 43.0031 65.8894 42.3844 65.4275C41.6883 64.8115 40.9148 64.5805 39.9094 64.5805C38.7492 64.5805 37.7437 64.9655 36.9703 65.6585C36.1195 66.3514 35.8102 67.2754 35.8102 68.2764C35.8102 69.9704 36.3516 71.5873 37.5891 73.2813C38.8266 74.9753 40.4508 76.2843 42.307 77.2853C44.9367 78.7482 48.2625 79.3642 52.2844 79.3642C55.6875 79.3642 58.7039 78.7482 61.1016 77.8242C63.5766 76.9003 65.5102 75.5143 66.825 73.5893C67.8305 72.0493 68.4492 70.5094 68.6039 68.7384C68.6039 68.1994 68.6039 67.7374 68.6039 67.1984ZM68.6039 67.1984C68.6039 65.3505 68.1398 63.6565 67.4437 62.3475C66.593 61.0385 65.5875 59.9606 64.2727 59.1136C62.9578 58.2666 61.2563 57.4966 59.4 56.9576C57.5438 56.4956 55.4555 55.8026 53.2125 55.3406C51.4336 54.8016 50.1187 54.4936 49.3453 54.3396C48.5719 54.1087 47.7211 53.8777 47.1023 53.4927C46.4063 53.1077 45.7875 52.7227 45.4008 52.2607C45.0141 51.8757 44.8594 51.2597 44.8594 50.6437C44.8594 49.6427 45.4781 48.7957 46.6383 48.0258C47.8758 47.2558 49.5 46.8708 51.5109 46.8708C53.6766 46.8708 55.3008 47.1788 56.2289 47.9488C57.157 48.7187 58.0852 49.7197 58.7812 51.0287C59.4 52.0297 59.9414 52.7997 60.4828 53.1847C61.0242 53.5697 61.7203 53.8777 62.8031 53.8777C63.9633 53.8777 64.9688 53.3387 65.7422 52.6457C66.593 51.9527 66.9023 51.0287 66.9023 50.0277C66.9023 48.9497 66.6703 47.9488 66.0516 46.8708C65.5875 45.7928 64.6594 44.8688 63.3445 43.8678C62.107 42.9438 60.4828 42.0969 58.6266 41.6349C56.8477 41.0189 54.6047 40.7879 52.0523 40.7879C48.8813 40.7879 46.0195 41.1729 43.6992 42.0199C41.3789 42.7898 39.5227 44.0988 38.2078 45.7158C36.893 47.4098 36.2742 49.2577 36.2742 51.3367C36.2742 53.4927 36.893 55.3406 38.1305 56.8806C39.368 58.4206 40.9922 59.5756 43.0031 60.4225C45.0141 61.2695 47.4891 62.0395 50.4281 62.5785C52.5937 63.0405 54.2953 63.5025 55.6875 63.8105C56.925 64.1955 57.9305 64.8115 58.7039 65.5045C59.4773 66.1974 59.7867 67.0444 59.7867 68.1224C59.7867 69.4314 59.0906 70.5864 57.6984 71.5873C56.3062 72.5883 54.3727 73.1273 52.0523 73.1273C50.3508 73.1273 49.1133 72.8963 48.0305 72.4343C47.025 71.8953 46.1742 71.2794 45.7102 70.5864C45.1687 69.8164 44.6273 68.8924 44.0859 67.7374C43.6992 66.7364 43.0031 65.8894 42.3844 65.4275C41.6883 64.8115 40.9148 64.5805 39.9094 64.5805C38.7492 64.5805 37.7437 64.9655 36.9703 65.6585C36.1195 66.3514 35.8102 67.2754 35.8102 68.2764C35.8102 69.9704 36.3516 71.5873 37.5891 73.2813C38.8266 74.9753 40.4508 76.2843 42.307 77.2853C44.9367 78.7482 48.2625 79.3642 52.2844 79.3642C55.6875 79.3642 58.7039 78.7482 61.1016 77.8242C63.5766 76.9003 65.5102 75.5143 66.825 73.5893C67.8305 72.0493 68.4492 70.5094 68.6039 68.7384C68.6039 68.1994 68.6039 67.7374 68.6039 67.1984ZM68.6039 67.1984C68.6039 65.3505 68.1398 63.6565 67.4437 62.3475C66.593 61.0385 65.5875 59.9606 64.2727 59.1136C62.9578 58.2666 61.2563 57.4966 59.4 56.9576C57.5438 56.4956 55.4555 55.8026 53.2125 55.3406C51.4336 54.8016 50.1187 54.4936 49.3453 54.3396C48.5719 54.1087 47.7211 53.8777 47.1023 53.4927C46.4063 53.1077 45.7875 52.7227 45.4008 52.2607C45.0141 51.8757 44.8594 51.2597 44.8594 50.6437C44.8594 49.6427 45.4781 48.7957 46.6383 48.0258C47.8758 47.2558 49.5 46.8708 51.5109 46.8708C53.6766 46.8708 55.3008 47.1788 56.2289 47.9488C57.157 48.7187 58.0852 49.7197 58.7812 51.0287C59.4 52.0297 59.9414 52.7997 60.4828 53.1847C61.0242 53.5697 61.7203 53.8777 62.8031 53.8777C63.9633 53.8777 64.9688 53.3387 65.7422 52.6457C66.593 51.9527 66.9023 51.0287 66.9023 50.0277C66.9023 48.9497 66.6703 47.9488 66.0516 46.8708C65.5875 45.7928 64.6594 44.8688 63.3445 43.8678C62.107 42.9438 60.4828 42.0969 58.6266 41.6349C56.8477 41.0189 54.6047 40.7879 52.0523 40.7879C48.8813 40.7879 46.0195 41.1729 43.6992 42.0199C41.3789 42.7898 39.5227 44.0988 38.2078 45.7158C36.893 47.4098 36.2742 49.2577 36.2742 51.3367C36.2742 53.4927 36.893 55.3406 38.1305 56.8806C39.368 58.4206 40.9922 59.5756 43.0031 60.4225C45.0141 61.2695 47.4891 62.0395 50.4281 62.5785C52.5937 63.0405 54.2953 63.5025 55.6875 63.8105C56.925 64.1955 57.9305 64.8115 58.7039 65.5045C59.4773 66.1974 59.7867 67.0444 59.7867 68.1224C59.7867 69.4314 59.0906 70.5864 57.6984 71.5873C56.3062 72.5883 54.3727 73.1273 52.0523 73.1273C50.3508 73.1273 49.1133 72.8963 48.0305 72.4343C47.025 71.8953 46.1742 71.2794 45.7102 70.5864C45.1687 69.8164 44.6273 68.8924 44.0859 67.7374C43.6992 66.7364 43.0031 65.8894 42.3844 65.4275C41.6883 64.8115 40.9148 64.5805 39.9094 64.5805C38.7492 64.5805 37.7437 64.9655 36.9703 65.6585C36.1195 66.3514 35.8102 67.2754 35.8102 68.2764C35.8102 69.9704 36.3516 71.5873 37.5891 73.2813C38.8266 74.9753 40.4508 76.2843 42.307 77.2853C44.9367 78.7482 48.2625 79.3642 52.2844 79.3642C55.6875 79.3642 58.7039 78.7482 61.1016 77.8242C63.5766 76.9003 65.5102 75.5143 66.825 73.5893C67.8305 72.0493 68.4492 70.5094 68.6039 68.7384C68.6039 68.1994 68.6039 67.7374 68.6039 67.1984ZM68.6039 67.1984C68.6039 65.3505 68.1398 63.6565 67.4437 62.3475C66.593 61.0385 65.5875 59.9606 64.2727 59.1136C62.9578 58.2666 61.2563 57.4966 59.4 56.9576C57.5438 56.4956 55.4555 55.8026 53.2125 55.3406C51.4336 54.8016 50.1187 54.4936 49.3453 54.3396C48.5719 54.1087 47.7211 53.8777 47.1023 53.4927C46.4063 53.1077 45.7875 52.7227 45.4008 52.2607C45.0141 51.8757 44.8594 51.2597 44.8594 50.6437C44.8594 49.6427 45.4781 48.7957 46.6383 48.0258C47.8758 47.2558 49.5 46.8708 51.5109 46.8708C53.6766 46.8708 55.3008 47.1788 56.2289 47.9488C57.157 48.7187 58.0852 49.7197 58.7812 51.0287C59.4 52.0297 59.9414 52.7997 60.4828 53.1847C61.0242 53.5697 61.7203 53.8777 62.8031 53.8777C63.9633 53.8777 64.9688 53.3387 65.7422 52.6457C66.593 51.9527 66.9023 51.0287 66.9023 50.0277C66.9023 48.9497 66.6703 47.9488 66.0516 46.8708C65.5875 45.7928 64.6594 44.8688 63.3445 43.8678C62.107 42.9438 60.4828 42.0969 58.6266 41.6349C56.8477 41.0189 54.6047 40.7879 52.0523 40.7879C48.8813 40.7879 46.0195 41.1729 43.6992 42.0199C41.3789 42.7898 39.5227 44.0988 38.2078 45.7158C36.893 47.4098 36.2742 49.2577 36.2742 51.3367C36.2742 53.4927 36.893 55.3406 38.1305 56.8806C39.368 58.4206 40.9922 59.5756 43.0031 60.4225C45.0141 61.2695 47.4891 62.0395 50.4281 62.5785C52.5937 63.0405 54.2953 63.5025 55.6875 63.8105C56.925 64.1955 57.9305 64.8115 58.7039 65.5045C59.4773 66.1974 59.7867 67.0444 59.7867 68.1224C59.7867 69.4314 59.0906 70.5864 57.6984 71.5873C56.3062 72.5883 54.3727 73.1273 52.0523 73.1273C50.3508 73.1273 49.1133 72.8963 48.0305 72.4343C47.025 71.8953 46.1742 71.2794 45.7102 70.5864C45.1687 69.8164 44.6273 68.8924 44.0859 67.7374C43.6992 66.7364 43.0031 65.8894 42.3844 65.4275C41.6883 64.8115 40.9148 64.5805 39.9094 64.5805C38.7492 64.5805 37.7437 64.9655 36.9703 65.6585C36.1195 66.3514 35.8102 67.2754 35.8102 68.2764C35.8102 69.9704 36.3516 71.5873 37.5891 73.2813C38.8266 74.9753 40.4508 76.2843 42.307 77.2853C44.9367 78.7482 48.2625 79.3642 52.2844 79.3642C55.6875 79.3642 58.7039 78.7482 61.1016 77.8242C63.5766 76.9003 65.5102 75.5143 66.825 73.5893C67.8305 72.0493 68.4492 70.5094 68.6039 68.7384C68.6039 68.1994 68.6039 67.7374 68.6039 67.1984ZM68.6039 67.1984C68.6039 65.3505 68.1398 63.6565 67.4437 62.3475C66.593 61.0385 65.5875 59.9606 64.2727 59.1136C62.9578 58.2666 61.2563 57.4966 59.4 56.9576C57.5438 56.4956 55.4555 55.8026 53.2125 55.3406C51.4336 54.8016 50.1187 54.4936 49.3453 54.3396C48.5719 54.1087 47.7211 53.8777 47.1023 53.4927C46.4063 53.1077 45.7875 52.7227 45.4008 52.2607C45.0141 51.8757 44.8594 51.2597 44.8594 50.6437C44.8594 49.6427 45.4781 48.7957 46.6383 48.0258C47.8758 47.2558 49.5 46.8708 51.5109 46.8708C53.6766 46.8708 55.3008 47.1788 56.2289 47.9488C57.157 48.7187 58.0852 49.7197 58.7812 51.0287C59.4 52.0297 59.9414 52.7997 60.4828 53.1847C61.0242 53.5697 61.7203 53.8777 62.8031 53.8777C63.9633 53.8777 64.9688 53.3387 65.7422 52.6457C66.593 51.9527 66.9023 51.0287 66.9023 50.0277C66.9023 48.9497 66.6703 47.9488 66.0516 46.8708C65.5875 45.7928 64.6594 44.8688 63.3445 43.8678C62.107 42.9438 60.4828 42.0969 58.6266 41.6349C56.8477 41.0189 54.6047 40.7879 52.0523 40.7879C48.8813 40.7879 46.0195 41.1729 43.6992 42.0199C41.3789 42.7898 39.5227 44.0988 38.2078 45.7158C36.893 47.4098 36.2742 49.2577 36.2742 51.3367C36.2742 53.4927 36.893 55.3406 38.1305 56.8806C39.368 58.4206 40.9922 59.5756 43.0031 60.4225C45.0141 61.2695 47.4891 62.0395 50.4281 62.5785C52.5937 63.0405 54.2953 63.5025 55.6875 63.8105C56.925 64.1955 57.9305 64.8115 58.7039 65.5045C59.4773 66.1974 59.7867 67.0444 59.7867 68.1224C59.7867 69.4314 59.0906 70.5864 57.6984 71.5873C56.3062 72.5883 54.3727 73.1273 52.0523 73.1273C50.3508 73.1273 49.1133 72.8963 48.0305 72.4343C47.025 71.8953 46.1742 71.2794 45.7102 70.5864C45.1687 69.8164 44.6273 68.8924 44.0859 67.7374C43.6992 66.7364 43.0031 65.8894 42.3844 65.4275C41.6883 64.8115 40.9148 64.5805 39.9094 64.5805C38.7492 64.5805 37.7437 64.9655 36.9703 65.6585C36.1195 66.3514 35.8102 67.2754 35.8102 68.2764C35.8102 69.9704 36.3516 71.5873 37.5891 73.2813C38.8266 74.9753 40.4508 76.2843 42.307 77.2853C44.9367 78.7482 48.2625 79.3642 52.2844 79.3642C55.6875 79.3642 58.7039 78.7482 61.1016 77.8242C63.5766 76.9003 65.5102 75.5143 66.825 73.5893C67.8305 72.0493 68.4492 70.5094 68.6039 68.7384C68.6039 68.1994 68.6039 67.7374 68.6039 67.1984ZM68.6039 67.1984C68.6039 65.3505 68.1398 63.6565 67.4437 62.3475C66.593 61.0385 65.5875 59.9606 64.2727 59.1136C62.9578 58.2666 61.2563 57.4966 59.4 56.9576C57.5438 56.4956 55.4555 55.8026 53.2125 55.3406C51.4336 54.8016 50.1187 54.4936 49.3453 54.3396C48.5719 54.1087 47.7211 53.8777 47.1023 53.4927C46.4063 53.1077 45.7875 52.7227 45.4008 52.2607C45.0141 51.8757 44.8594 51.2597 44.8594 50.6437C44.8594 49.6427 45.4781 48.7957 46.6383 48.0258C47.8758 47.2558 49.5 46.8708 51.5109 46.8708C53.6766 46.8708 55.3008 47.1788 56.2289 47.9488C57.157 48.7187 58.0852 49.7197 58.7812 51.0287C59.4 52.0297 59.9414 52.7997 60.4828 53.1847C61.0242 53.5697 61.7203 53.8777 62.8031 53.8777C63.9633 53.8777 64.9688 53.3387 65.7422 52.6457C66.593 51.9527 66.9023 51.0287 66.9023 50.0277C66.9023 48.9497 66.6703 47.9488 66.0516 46.8708C65.5875 45.7928 64.6594 44.8688 63.3445 43.8678C62.107 42.9438 60.4828 42.0969 58.6266 41.6349C56.8477 41.0189 54.6047 40.7879 52.0523 40.7879C48.8813 40.7879 46.0195 41.1729 43.6992 42.0199C41.3789 42.7898 39.5227 44.0988 38.2078 45.7158C36.893 47.4098 36.2742 49.2577 36.2742 51.3367C36.2742 53.4927 36.893 55.3406 38.1305 56.8806C39.368 58.4206 40.9922 59.5756 43.0031 60.4225C45.0141 61.2695 47.4891 62.0395 50.4281 62.5785C52.5937 63.0405 54.2953 63.5025 55.6875 63.8105C56.925 64.1955 57.9305 64.8115 58.7039 65.5045C59.4773 66.1974 59.7867 67.0444 59.7867 68.1224C59.7867 69.4314 59.0906 70.5864 57.6984 71.5873C56.3062 72.5883 54.3727 73.1273 52.0523 73.1273C50.3508 73.1273 49.1133 72.8963 48.0305 72.4343C47.025 71.8953 46.1742 71.2794 45.7102 70.5864C45.1687 69.8164 44.6273 68.8924 44.0859 67.7374C43.6992 66.7364 43.0031 65.8894 42.3844 65.4275C41.6883 64.8115 40.9148 64.5805 39.9094 64.5805C38.7492 64.5805 37.7437 64.9655 36.9703 65.6585C36.1195 66.3514 35.8102 67.2754 35.8102 68.2764C35.8102 69.9704 36.3516 71.5873 37.5891 73.2813C38.8266 74.9753 40.4508 76.2843 42.307 77.2853C44.9367 78.7482 48.2625 79.3642 52.2844 79.3642C55.6875 79.3642 58.7039 78.7482 61.1016 77.8242C63.5766 76.9003 65.5102 75.5143 66.825 73.5893C67.8305 72.0493 68.4492 70.5094 68.6039 68.7384C68.6039 68.1994 68.6039 67.7374 68.6039 67.1984ZM68.6039 67.1984C68.6039 65.3505 68.1398 63.6565 67.4437 62.3475C66.593 61.0385 65.5875 59.9606 64.2727 59.1136C62.9578 58.2666 61.2563 57.4966 59.4 56.9576C57.5438 56.4956 55.4555 55.8026 53.2125 55.3406C51.4336 54.8016 50.1187 54.4936 49.3453 54.3396C48.5719 54.1087 47.7211 53.8777 47.1023 53.4927C46.4063 53.1077 45.7875 52.7227 45.4008 52.2607C45.0141 51.8757 44.8594 51.2597 44.8594 50.6437C44.8594 49.6427 45.4781 48.7957 46.6383 48.0258C47.8758 47.2558 49.5 46.8708 51.5109 46.8708C53.6766 46.8708 55.3008 47.1788 56.2289 47.9488C57.157 48.7187 58.0852 49.7197 58.7812 51.0287C59.4 52.0297 59.9414 52.7997 60.4828 53.1847C61.0242 53.5697 61.7203 53.8777 62.8031 53.8777C63.9633 53.8777 64.9688 53.3387 65.7422 52.6457C66.593 51.9527 66.9023 51.0287 66.9023 50.0277C66.9023 48.9497 66.6703 47.9488 66.0516 46.8708C65.5875 45.7928 64.6594 44.8688 63.3445 43.8678C62.107 42.9438 60.4828 42.0969 58.6266 41.6349C56.8477 41.0189 54.6047 40.7879 52.0523 40.7879C48.8813 40.7879 46.0195 41.1729 43.6992 42.0199C41.3789 42.7898 39.5227 44.0988 38.2078 45.7158C36.893 47.4098 36.2742 49.2577 36.2742 51.3367C36.2742 53.4927 36.893 55.3406 38.1305 56.8806C39.368 58.4206 40.9922 59.5756 43.0031 60.4225C45.0141 61.2695 47.4891 62.0395 50.4281 62.5785C52.5937 63.0405 54.2953 63.5025 55.6875 63.8105C56.925 64.1955 57.9305 64.8115 58.7039 65.5045C59.4773 66.1974 59.7867 67.0444 59.7867 68.1224C59.7867 69.4314 59.0906 70.5864 57.6984 71.5873C56.3062 72.5883 54.3727 73.1273 52.0523 73.1273C50.3508 73.1273 49.1133 72.8963 48.0305 72.4343C47.025 71.8953 46.1742 71.2794 45.7102 70.5864C45.1687 69.8164 44.6273 68.8924 44.0859 67.7374C43.6992 66.7364 43.0031 65.8894 42.3844 65.4275C41.6883 64.8115 40.9148 64.5805 39.9094 64.5805C38.7492 64.5805 37.7437 64.9655 36.9703 65.6585C36.1195 66.3514 35.8102 67.2754 35.8102 68.2764C35.8102 69.9704 36.3516 71.5873 37.5891 73.2813C38.8266 74.9753 40.4508 76.2843 42.307 77.2853C44.9367 78.7482 48.2625 79.3642 52.2844 79.3642C55.6875 79.3642 58.7039 78.7482 61.1016 77.8242C63.5766 76.9003 65.5102 75.5143 66.825 73.5893C67.8305 72.0493 68.4492 70.5094 68.6039 68.7384C68.6039 68.1994 68.6039 67.7374 68.6039 67.1984ZM68.6039 67.1984C68.6039 65.3505 68.1398 63.6565 67.4437 62.3475C66.593 61.0385 65.5875 59.9606 64.2727 59.1136C62.9578 58.2666 61.2563 57.4966 59.4 56.9576C57.5438 56.4956 55.4555 55.8026 53.2125 55.3406C51.4336 54.8016 50.1187 54.4936 49.3453 54.3396C48.5719 54.1087 47.7211 53.8777 47.1023 53.4927C46.4063 53.1077 45.7875 52.7227 45.4008 52.2607C45.0141 51.8757 44.8594 51.2597 44.8594 50.6437C44.8594 49.6427 45.4781 48.7957 46.6383 48.0258C47.8758 47.2558 49.5 46.8708 51.5109 46.8708C53.6766 46.8708 55.3008 47.1788 56.2289 47.9488C57.157 48.7187 58.0852 49.7197 58.7812 51.0287C59.4 52.0297 59.9414 52.7997 60.4828 53.1847C61.0242 53.5697 61.7203 53.8777 62.8031 53.8777C63.9633 53.8777 64.9688 53.3387 65.7422 52.6457C66.593 51.9527 66.9023 51.0287 66.9023 50.0277C66.9023 48.9497 66.6703 47.9488 66.0516 46.8708C65.5875 45.7928 64.6594 44.8688 63.3445 43.8678C62.107 42.9438 60.4828 42.0969 58.6266 41.6349C56.8477 41.0189 54.6047 40.7879 52.0523 40.7879C48.8813 40.7879 46.0195 41.1729 43.6992 42.0199C41.3789 42.7898 39.5227 44.0988 38.2078 45.7158C36.893 47.4098 36.2742 49.2577 36.2742 51.3367C36.2742 53.4927 36.893 55.3406 38.1305 56.8806C39.368 58.4206 40.9922 59.5756 43.0031 60.4225C45.0141 61.2695 47.4891 62.0395 50.4281 62.5785C52.5937 63.0405 54.2953 63.5025 55.6875 63.8105C56.925 64.1955 57.9305 64.8115 58.7039 65.5045C59.4773 66.1974 59.7867 67.0444 59.7867 68.1224C59.7867 69.4314 59.0906 70.5864 57.6984 71.5873C56.3062 72.5883 54.3727 73.1273 52.0523 73.1273C50.3508 73.1273 49.1133 72.8963 48.0305 72.4343C47.025 71.8953 46.1742 71.2794 45.7102 70.5864C45.1687 69.8164 44.6273 68.8924 44.0859 67.7374C43.6992 66.7364 43.0031 65.8894 42.3844 65.4275C41.6883 64.8115 40.9148 64.5805 39.9094 64.5805C38.7492 64.5805 37.7437 64.9655 36.9703 65.6585C36.1195 66.3514 35.8102 67.2754 35.8102 68.2764C35.8102 69.9704 36.3516 71.5873 37.5891 73.2813C38.8266 74.9753 40.4508 76.2843 42.307 77.2853C44.9367 78.7482 48.2625 79.3642 52.2844 79.3642C55.6875 79.3642 58.7039 78.7482 61.1016 77.8242C63.5766 76.9003 65.5102 75.5143 66.825 73.5893C67.8305 72.0493 68.4492 70.5094 68.6039 68.7384C68.6039 68.1994 68.6039 67.7374 68.6039 67.1984ZM68.6039 67.1984C68.6039 65.3505 68.1398 63.6565 67.4437 62.3475C66.593 61.0385 65.5875 59.9606 64.2727 59.1136C62.9578 58.2666 61.2563 57.4966 59.4 56.9576C57.5438 56.4956 55.4555 55.8026 53.2125 55.3406C51.4336 54.8016 50.1187 54.4936 49.3453 54.3396C48.5719 54.1087 47.7211 53.8777 47.1023 53.4927C46.4063 53.1077 45.7875 52.7227 45.4008 52.2607C45.0141 51.8757 44.8594 51.2597 44.8594 50.6437C44.8594 49.6427 45.4781 48.7957 46.6383 48.0258C47.8758 47.2558 49.5 46.8708 51.5109 46.8708C53.6766 46.8708 55.3008 47.1788 56.2289 47.9488C57.157 48.7187 58.0852 49.7197 58.7812 51.0287C59.4 52.0297 59.9414 52.7997 60.4828 53.1847C61.0242 53.5697 61.7203 53.8777 62.8031 53.8777C63.9633 53.8777 64.9688 53.3387 65.7422 52.6457C66.593 51.9527 66.9023 51.0287 66.9023 50.0277C66.9023 48.9497 66.6703 47.9488 66.0516 46.8708C65.5875 45.7928 64.6594 44.8688 63.3445 43.8678C62.107 42.9438 60.4828 42.0969 58.6266 41.6349C56.8477 41.0189 54.6047 40.7879 52.0523 40.7879C48.8813 40.7879 46.0195 41.1729 43.6992 42.0199C41.3789 42.7898 39.5227 44.0988 38.2078 45.7158C36.893 47.4098 36.2742 49.2577 36.2742 51.3367C36.2742 53.4927 36.893 55.3406 38.1305 56.8806C39.368 58.4206 40.9922 59.5756 43.0031 60.4225C45.0141 61.2695 47.4891 62.0395 50.4281 62.5785C52.5937 63.0405 54.2953 63.5025 55.6875 63.8105C56.925 64.1955 57.9305 64.8115 58.7039 65.5045C59.4773 66.1974 59.7867 67.0444 59.7867 68.1224C59.7867 69.4314 59.0906 70.5864 57.6984 71.5873C56.3062 72.5883 54.3727 73.1273 52.0523 73.1273C50.3508 73.1273 49.1133 72.8963 48.0305 72.4343C47.025 71.8953 46.1742 71.2794 45.7102 70.5864C45.1687 69.8164 44.6273 68.8924 44.0859 67.7374C43.6992 66.7364 43.0031 65.8894 42.3844 65.4275C41.6883 64.8115 40.9148 64.5805 39.9094 64.5805C38.7492 64.5805 37.7437 64.9655 36.9703 65.6585C36.1195 66.3514 35.8102 67.2754 35.8102 68.2764C35.8102 69.9704 36.3516 71.5873 37.5891 73.2813C38.8266 74.9753 40.4508 76.2843 42.307 77.2853C44.9367 78.7482 48.2625 79.3642 52.2844 79.3642C55.6875 79.3642 58.7039 78.7482 61.1016 77.8242C63.5766 76.9003 65.5102 75.5143 66.825 73.5893C67.8305 72.0493 68.4492 70.5094 68.6039 68.7384C68.6039 68.1994 68.6039 67.7374 68.6039 67.1984ZM79.2773 100.616C79.3547 100.616 79.3547 100.616 79.432 100.616L79.5094 100.539C79.3547 100.539 79.3547 100.616 79.2773 100.616Z" fill="white"/>
</svg>
