<svg xmlns="http://www.w3.org/2000/svg"
	 viewBox="0 0 584 116.8">
<path fill-rule="evenodd" clip-rule="evenodd" fill="#2AAE94" d="M392.3,115.5c-30.8,2.9-58.9-7-82.4,1.3c-23-3.9-4.3-5.3-8.4-8.6c-6.4-0.4-2.7,5.2-5.3,0.4
	c-0.5-1.3-9.4,1.3-8.6,2.1c9.3,2.7-3.3,7.8-3.2,1.9c-5.1-2.6,1.8,4.4-9.1,1.5c-1.7,5-14.1-1.9-22.3,1.5c-4.3-2.2,1.1-11-9.2-5.9
	c-0.4,0.9-1,2.1,0.7,1.1c-0.5-1.2-1.7-1.5,2.1-0.5c1.7,5.4-1.3,4.4-5.1,2.1c-4.3,8.6-15.1-2.8-21.7,3.2c-10.2-1.3,0.8-2.3-7.3-1.5
	c-3.3-1.1,7.4-6.5,3-6.8c-8.6-3.5-11.2,11-18.4,5.4c-3.2-0.5-0.2-11.2-7.7-6c-7.4,1.3,3.4,4.7-5.8,3.9c-4.1,8-1.4-4.2-7.8-2
	c-5.2,11.5-20.4,4.6-21.1-4.9c-7.3,1.7,1.2,10.1-8.7,8.8c-8.5-3.6-3,0.5-8.2-0.4c-0.6-6.1-7.8,2-11-1.3c-5.6-4.2-11.1,4.5-15-2.9
	c-11.8,9.2-8-6.9-19.9,2.8c-5.2-5.3-14.1,3.8-14.4-3.9c-10.1-2.5-2.6,6.3-11.5-0.1c-2.8,2.6-3.3-1.2-6.6,1.3
	c-4.4-1.7-48.4,4.7-42.9,0.2c14.5-2.9-3.1-0.6-2.6-2.2c-2.2-0.9-5-0.4,1.1-2.6c8.4-7.5,9.4-3.2,14.3-6.1c-9-2.5,5.7-2.4,5.4-4.3
	c-0.8-2.3-9.5,1-10.4-1c-0.8-1.9-3.1-1.9-4.8-1.1c-4.9,1.3,3,4.6-6,5.2C10.7,86,29.5,80.7,41.3,72c-14.7-1.7-25.9-0.9-40.1,0.4
	C-6.5,69,25.6,50.2,27.2,61c10.2-0.4-10.1-9.9-12-10.3C-7.4,41,22.3,45,36.8,39c-10-0.1-4.4-6.7-0.5-1.7c6.4-1,0.3-7.8-3.7-8
	c-4.8-0.4-2,7-5.1,5.4c-8.7-17.1,37.6-8.5,48.6-13.5C-99,4.8,232.5,12.5,239.7,0c-1.5,1.5-5.9,2.6-1.8,2.5c5.7,13.4,12,4.8,22.6,2.3
	C257,25,269.7,1,274.3,6.7c2.9,0.5,2.3-6.5,6.6-6.1c0.5,2.2,7.4,1.4,0.1,2.1c-5.4,7.7-0.6,2.8-5.2,6.4c6.8,7.2,8.4-9.6,15-6.3
	c-0.3,24,12.6-14.3,16.1,2.3c6.2,6.1,1-4,7.9-4.4c7.2,5.4,13.3,1,19.6,3.8c12.6,12.3,8.8-3.6,15.3-0.7c5.3,3.3,19.5-2.2,19.3,4.4
	c7.2,0.3,0.6-3.9,13.3-4.4c13.4-1.3,3.5,0.5,6.8,3.8c7.9-2.1,14.9-4.7,24.9-3.1c2.2,4.6,119.9-5.3,97.9,14.8c-2.2,1,2.9,2.7,4.1,0.8
	c2.9-4.6,2.2-3.3,5.6-2.5c-4.5-3.6,3.5-6.3,8.6-4.4c0.8,6.4,6.4,0.3,8.8,1.2c2.4,10-1.6,3.3,9.1,6c-2.5,3.6,5.6,6.3,3.8,3.1
	c-1.4-1.4,3.3,0.1,2.6-1.3c-1.5-0.9-0.1-0.9,2.7-1.6c-0.4,4.8-0.8,3.2,3.8,6.5c-12.7,2.3-2.1,3.2,4.2,4.4
	c-15.5,2.9,1.2,7.4,6.9,11.5c9.5-3.9-4.3,6.2,1.7,7.4c1.4,3-17.2,1.2-7.7,4.2c5.4,1.8-2.6,2.5,1.6,3.2c7.1,2-11.3,0-12.5,1.8
	c1,2.1,1.5,0.9-0.2,2.1c-1,4.6,15.3-4.4,12.5,0.2c8.5,0.6-5.7,6.3,2.1,7.5c5.3,1.9-5,1.2-5.3,1.7c1.3,1.4,10,1.1,5,2.8
	c-1.9,1.4,10.5,2.4,4.2,4c-17,2.4,16.9,5.4,9.2,6.9c-23.5-0.3-26.5-0.8-20.7,3.6C527.4,124.6,449.8,116.1,392.3,115.5z M406.9,8.2
	c-0.2-0.4,1,0,0.4-0.3C406.8,8.2,406.4,8.2,406.9,8.2z M555.9,50.7c1,0.8-1.5,0.3-0.2,0C556.8,50.6,555.5,51.2,555.9,50.7z
	 M332.7,16.9c1.2,0-1.1,0.1-1.6,0.6C329.3,18.3,334.6,20.1,332.7,16.9z M317.5,6.2c8,0.6-0.4-1.3-3.4-0.3c0.1,2.6-1.9,4.3,0.2,4.1
	C320.2,9.4,314.4,8.7,317.5,6.2z M219.3,13.3C221.6,11.6,218.2,10.6,219.3,13.3c-8.8-0.5-5.3-1.6-7.9,0.1c1.8,2.2,11.7,10.7,8.9,3.6
	C218.9,16,217,13.2,219.3,13.3z M39.3,62.1c11.2-1.3,0.1-5.6-3.1-2.6C26.3,63.6,34.2,69.4,39.3,62.1z M40.3,31.5
	c3.6,4.2,2.2-1.1,5.3-2.7c0.7-2.4,6.5-2.9-2.1-3.6C36.7,25,42.1,29.2,40.3,31.5z M28.1,63.6c0.1-1.5-2.1-1.1-2.7-0.5
	C11,59.8,26.8,70.1,28.1,63.6z M341.4,9.6c-5.3-2.6-6.8,9.1-1.2,3.9C339.1,11.2,343.7,13.3,341.4,9.6z M47.6,37.1
	c-1,4.5,5.4-0.6,4-3.3C42.3,31.6,50.8,35.9,47.6,37.1z M359.9,8.7c-0.2,4.4,3.6,1.1,5.2-0.3C370.8,7.5,359.5,6.1,359.9,8.7z
	 M479.6,8.2c-4.4,1-2.6,2.5-1.2,2.5C487.4,10.8,482.4,7.5,479.6,8.2z M512.6,17.6c6.1-4.8-12.1-3.4-3.3-0.6
	C510.2,17.2,511.2,17.4,512.6,17.6z M463.1,10.3c10,1.6,4.3-4,0.7-1.8C462.8,9.1,461.8,9.9,463.1,10.3z M258.7,109
	c-1.6,0.5-3.9,2.4-2.3,2.5C261.5,112.5,263.7,108.5,258.7,109z M168.8,111.5c1.5,0.3,3.5-3.3,3.3-4.1
	C170.2,105.3,166.6,110.8,168.8,111.5z M140.8,109.4c1.8-0.1,2.4-0.4,2.4-1.3C143.5,102.8,135.7,109.8,140.8,109.4z M499.3,12.5
	c0.7,1,3.1,0.9,3.6,0.2C505.4,9.4,497.2,9.7,499.3,12.5z M522.9,25.6c0.1,0.7,5.1-0.3,2.1-3.2C524.7,22.1,522.2,21.5,522.9,25.6z
	 M125.4,107.8c3.6-0.9,2.4-3.6-0.4-3.2C121.1,105.1,123.8,106.6,125.4,107.8z M238.7,18.8c3.9,0.8-0.7-1.8,1.3-2.9
	C239.4,13.8,234.5,18.2,238.7,18.8z M378.1,6.8c-1,0.8-0.1,2.1,1.8,1.9C385.5,8,379.6,5.7,378.1,6.8z M8.3,66.7c0.5,0.8,3.8,0.2,3-1
	C10.1,63.6,6.6,64.5,8.3,66.7z M68.7,103.1c1.7-1.7-4.9-2.1-3.5-0.2C66.2,104.3,67.1,104.7,68.7,103.1z M349.1,28.3
	c-0.3,1.3,2.1,2.5,3,1.6C353.9,28,350.1,26.4,349.1,28.3z M224.6,107.5c-0.7,0.4-2.6,1.1-0.8,1.5C229.9,109.5,227,106.5,224.6,107.5
	z M555,69.6c-0.6,0.1-0.8,0.7-0.1,0.9C558.9,71.8,562.4,68.6,555,69.6z M461.6,14c1.6,1.1,4.1,0.4,4-0.2
	C465.4,12.6,460.5,13.2,461.6,14z M270.6,112.7c-1.1-2.6-1.1-2.8-2.7-2.3C267.4,111.5,269.6,114,270.6,112.7z M561.2,41.4
	c-0.7,0.5-1.2,1.7,0,2.1C562.9,44,564.5,40.1,561.2,41.4z M146.9,107.4c-1.5,1,0.8,2.2,1.9,1.5C151.8,107,147.5,107,146.9,107.4z
	 M518.6,21.6c0.2,0.1,1.1,0.4,1.3,0C521.8,19.2,516,19.4,518.6,21.6z M171.5,10.3c0.7-0.9-1-1.7-2.5-1.3
	C167.3,9.3,170.8,11.2,171.5,10.3z M504.7,23.4c0.2,0.3,1.6,0.6,2.2-1C507.3,21.5,502.7,20.7,504.7,23.4z M229.8,110.2
	c0.4,0.9,2.2,1,2.8,0.3C233.8,109.2,229.3,108.8,229.8,110.2z M500.6,109.7c-0.8,0.9,1,1.6,1.8,1.4
	C504.5,110.2,501.6,108.6,500.6,109.7z M525.3,27.4c-0.4,0-0.9,0-1.1,0.1C520.1,30.5,529.7,28.9,525.3,27.4z M47.8,30.9
	c-0.4-0.1-1.5,0.1-1.6,0.6C46,32.8,51,32.4,47.8,30.9z M440.8,7.7c-1,0.9,2.4,1.4,2.7,0.6C443.8,7.5,441.4,7.2,440.8,7.7z
	 M524.4,18.6c-0.1,0.7,1.7,0.9,2.3,0.1C527.5,17.4,524.7,15.9,524.4,18.6z M269.9,108.3c0.1,0.9,2.9,0.6,2.8-0.1
	C272.5,107.2,269.8,107.1,269.9,108.3z M304.6,8.3c1.9,0.4,3.1-0.7,2.1-0.9C304.3,6.9,302.5,7.9,304.6,8.3z M552.8,34
	c0.5,0.2,1.6-0.1,1.8-0.5C555.9,31,550.4,33.2,552.8,34z M185.9,14.5c0.7,0.2,0.3,0.3,0.2,0.5C185.3,18.1,192,16.1,185.9,14.5z
	 M354.2,20.7c-0.5,0.5,1.3,1.7,2.6,0.7C357.4,20.9,355.2,19.7,354.2,20.7z M355.4,18.5c0.3,0,1.1-0.2,0.9-0.6
	C355.2,16.2,350,18,355.4,18.5z M87.9,104.4c-0.8,0.5,3.5,1.4,3.6,0.1C90.4,103.8,88,103.6,87.9,104.4z M488,18.1
	c-0.6,0-1.5,0.4-1.5,0.7C486.9,20.6,492.1,18.7,488,18.1z M488.2,12.3c-0.9,1.5,3.2,1.1,2.9,0.1C491.2,11.8,489.5,11.5,488.2,12.3z
	 M325.1,111.3c0,1.9,0.7,2.1,2.7-0.1C328.4,110.5,325.2,110.2,325.1,111.3z M203.8,7.4c0.2,0.9,2.9,0.9,2.9-0.1
	C206.6,6.4,203.5,6.4,203.8,7.4z M513.7,24.6c0.4-0.8-1.9-0.9-2.1-0.4C510.7,26.2,513.1,25.6,513.7,24.6z M42,65.6
	c0.7-0.1,0.7-0.9,0.4-1.1C40.2,63.2,39.6,66.1,42,65.6z M72.3,103.9c0,0.7,1.7,0.7,1.9,0.4C75.2,102.9,72.4,102.6,72.3,103.9z
	 M165.5,106.9c1.4-0.7-0.7-1.6-1.4-1.1C163.1,106.7,164.5,107.4,165.5,106.9z M531.4,18.3c0.9,0.7,3.5,0.2,2.6-0.4
	C532.9,17.2,530.6,17.7,531.4,18.3z M545.6,28.3c0.2,0.8,1.8,0.9,2.4,0.2C548.9,27.4,545.1,26.9,545.6,28.3z M365.8,15.9
	c0.6,0.8,3.4,0.7,2.2-0.7C367,14.6,366.3,15.1,365.8,15.9z M569.6,44c-0.3,0.5,2.5,1.3,2.4,0.4C572.1,43.6,569.9,43.6,569.6,44z
	 M268.7,14.1c-3.1,1.3,1.8,1.9,1.4,0.6C269.8,14.5,269.2,14.3,268.7,14.1z M427.9,16.5c-0.6-0.1-1,0.9,0.3,1.1
	C429.1,17.7,430,16.8,427.9,16.5z M55.6,30.3c-0.5,0.9,1.7,1.1,2.4,0.7C58.9,30.5,55.9,29.8,55.6,30.3z M366.1,11.3
	c-1.2,0.4-0.1,1.2,1.2,0.7C368.1,11.8,367,11.1,366.1,11.3z M385.3,6c0.3-0.5-1.2-1-1.9-0.2C382.9,6.3,384.9,6.8,385.3,6z
	 M516.6,25.2c0.1,0.2,0.2,0.4,0.4,0.5C518.6,25.9,518.4,24.3,516.6,25.2z M278.2,110.6c1.8-0.1,0.8-1.2-0.4-1
	C276.7,109.8,277.1,110.6,278.2,110.6z M550.6,27.7c-0.7,0.9,1.8,1,1.9,0.5C552.4,27.2,551.5,27.1,550.6,27.7z M309.1,14.5
	c1.3-0.4,0.1-1-0.7-0.9C307.4,13.8,308.2,14.8,309.1,14.5z M507.1,11.2c-0.9,1,2.1,0.9,1.9,0.6C508.7,11.2,507.5,10.7,507.1,11.2z
	 M555.7,79.1c0.3,0.1,0.7,0.2,1,0.2C558.7,79.4,557.2,77.8,555.7,79.1z M46.8,60.9c-0.3,0.1-0.8,0-1,0.2
	C45.1,61.5,48.3,62.2,46.8,60.9z M165,108.8c-0.6,0-1.3,0.2-1.2,0.5C164.1,109.9,166.5,109.6,165,108.8z M323.3,110.7
	c-0.6-0.2-2,0.3-0.6,0.8C323.5,111.8,324.4,111.1,323.3,110.7z M43.9,67.7c-1.5,0.8,1.8,0.7,1.8,0.2C45.2,67.6,44.6,67.5,43.9,67.7z
	 M366.4,22.5c2.2-1.1-0.8-1.1-0.7-0.5C365.8,22.1,366.1,22.3,366.4,22.5z M44,70.3c-1.2,0-1-0.1-1,0.2C44.1,70.5,44,70.6,44,70.3z
	 M159.1,108.4c0.4,0.7,2.5-0.3,1.1-0.5C159.3,107.9,158.9,108,159.1,108.4z M567.2,49.5c0.4,0.1,1.1-0.2,1.2-0.5
	C568.3,48.2,565.6,48.8,567.2,49.5z M561.4,51.6c1.9,0.4,1.6-0.9,0.8-0.8C561.1,50.8,560.5,51.4,561.4,51.6z M553.9,88.6
	c0.3,0.5,1.8,0.1,1.6-0.2C555.3,87.9,553.6,88,553.9,88.6z M551.5,50.6c0.6-0.4-1.3-0.6-1.6-0.2C550.5,50.7,550.5,50.8,551.5,50.6z
	 M539.4,27.1c0.2,0.1,0.4,0.4,0.6,0.4C542.3,27.6,540.2,26.2,539.4,27.1z M271.4,113.8c-0.3,0.1-0.8,0.1-0.9,0.2
	C269.9,114.9,273.6,115.1,271.4,113.8z M309,16.4c0.2,0.2,0.2,0.4,0.5,0.4C310.8,17,311,15.5,309,16.4z M360.4,12.9
	c-0.6,0.2-1.1,0.3-0.4,0.8C360.8,13.9,361.4,13.1,360.4,12.9z M21.2,51.4c0-0.5-1.9-0.1-1.3,0C20.4,51.5,21.1,51.6,21.2,51.4z
	 M22.7,70c0.7,0.1,0.5,0.1,0.7-0.1C22.7,69.8,22.9,69.8,22.7,70z M115.8,107.2c0.1,0.3,0.2,0.4,0.6,0.2
	C116.5,107.1,115.9,107.2,115.8,107.2z M141.1,9.1c0.5-0.2,0.4-0.1,0.1-0.6C140.5,8.8,140.5,8.7,141.1,9.1z M154.9,101.8
	c0-0.1-0.2-0.3-0.2-0.3C152.7,101.9,154.7,102.3,154.9,101.8z M198.4,110l-0.1,0.2C199,110.1,199,110.2,198.4,110z M201.1,112.2
	c0.3,0.4,0.6,0,1-0.2C201.4,111.9,201.2,111.7,201.1,112.2z M201,110.3c0.5,0.7,1.9-0.1,0.7-0.2C201.5,109.9,201.2,110.1,201,110.3z
	 M451.7,8.1c1,0.4,0.5,0.4,1.7,0.1C452.3,7.8,452.8,7.8,451.7,8.1z M566,79.5c-2.3,0.2-0.2,1.2,0.8,0.4
	C566.5,79.8,566.2,79.6,566,79.5z M564.6,43.3c-0.7,0.9,0.9,1,0.4,0L564.6,43.3z M402.7,26c0.6-0.4-0.6-0.5-0.6-0.2
	C402.1,26,402.6,26.1,402.7,26z M384.4,27.9c0.4-0.2-0.2-0.7-0.6-0.2C383.7,27.8,384.2,28,384.4,27.9z M366.6,9.2
	c-0.3,0.1-0.6,0.2-0.9,0.3C366.5,9.9,367.2,9.7,366.6,9.2z M353.5,12.2l0.5,0.1C354,12.1,354.1,12.1,353.5,12.2z M349.5,19.6
	c0.5-0.2,0.5-0.1,0.1-0.7C348.8,19.3,348.8,19.2,349.5,19.6z M546.9,30.6c0.4,0.5,2.3,0.1,0.4-0.2C547.3,30.3,547.1,30.5,546.9,30.6
	z M265,109.7c0.6,0.2,1.1-0.2,0.3-0.3C265.1,109.5,264.7,109.6,265,109.7z M261.9,113.1c-0.6,0.4,0,0.6,0.8,0.2
	C262.5,113.2,262.2,113.1,261.9,113.1z M533.8,24.3c-0.4,0.3-0.4,0.2-0.1,0.4C534.2,24.6,534.2,24.7,533.8,24.3z M257.6,107
	c0.7,0.2,0.8-0.2,0.1-0.2C257.6,106.9,257.6,107,257.6,107z M240.9,12.6c0.2,0.1,0.6-0.1,0.4-0.4C240.9,11.7,239.7,12.3,240.9,12.6z
	 M191.5,10.6c-0.4,0.2-0.4,0.1-0.1,0.4C191.9,10.7,191.9,10.7,191.5,10.6z M49.8,29l0.3,0C50,28.8,50.1,28.8,49.8,29z M561,56
	c-0.5,0.2-0.4,0.1-0.1,0.4C561.5,56.2,561.5,56.3,561,56z M365.2,13.1l-0.1,0.2C365.6,13.2,365.6,13.2,365.2,13.1z M311.4,110
	l-0.1,0.2C311.7,110.1,311.7,110.1,311.4,110z M553.1,30.7l0.1-0.2C552.6,30.6,552.6,30.5,553.1,30.7z M537.1,47.8l0.1-0.2
	C536.8,47.7,536.8,47.6,537.1,47.8z M250.6,14.6c0.7-0.1,0.1-0.5-0.3-0.3C250.1,14.5,250.5,14.7,250.6,14.6z M247.9,14.5
	c0.4,0.3,0.2,0.2,0.7,0C248.2,14.3,248.4,14.3,247.9,14.5z"/>
</svg>
