<svg width="540" height="107" viewBox="0 0 540 107" fill="none" xmlns="http://www.w3.org/2000/svg">
<path fill-rule="evenodd" clip-rule="evenodd" d="M517.466 79.4329C514.698 79.2201 511.908 79.5459 509.107 79.3876C507.826 79.3329 506.518 79.6824 505.453 80.296C502.988 81.7453 503.206 80.8529 500.547 82.6559C500.745 82.4904 501.081 82.4029 497.63 83.4148C494.347 84.3695 498.829 86.0274 496.783 86.5264C492.927 87.4658 491.444 87.4421 491.246 89.3297C491.049 91.2172 489.688 90.5991 464.335 91.7602C464.066 91.7657 464.044 92.3581 464.383 92.4588C465.841 92.8866 469.328 91.9816 469.009 92.876C468.881 93.2015 468.038 93.1918 467.264 93.2344C465.48 93.3514 464.501 93.2636 464.203 95.1801C463.995 96.5835 464.532 96.4381 466.694 96.717C468.383 96.9249 467.302 98.4536 465.995 98.8031C447.224 103.759 273.51 104.276 259.071 103.52C258.632 103.503 258.195 103.511 257.792 103.627C252.634 105.185 243.032 103.631 241.154 104.1C237.499 105.008 236.393 103.632 234.212 104.08C230.05 104.945 228.749 102.28 223.453 103.653C220.235 104.498 219.22 102.662 217.18 103.43C214.738 104.341 213.45 103.964 208.259 103.908C203.742 103.838 203.168 102.154 200.087 103.105C196.47 104.228 192.674 103.148 186.613 103.406C183.718 103.545 183.7 102.658 180.293 102.512C179.855 102.494 104.782 99.7415 104.782 99.7415C72.0888 97.8768 77.8175 101.178 78.6276 101.242C100.693 102.515 101.845 101.147 102.557 103.016C103.02 104.217 100.455 104.054 98.9381 104.031C95.9036 103.958 96.6841 105.88 93.8887 105.963C90.7564 106.054 86.7325 105.382 77.7437 105.834C70.304 106.227 63.6281 106.067 42.8371 106.167C39.5684 106.18 32.2694 106.866 30.9212 105.198C27.7412 101.281 29.5205 100.948 30.5065 99.7176C30.9341 99.1977 30.3645 97.7024 29.6179 97.4485C27.5809 96.7096 25.1076 96.0603 23.7785 95.3339C22.62 94.7117 21.5492 95.0833 20.8602 94.3439C19.2745 92.6002 19.3452 92.7602 17.7422 91.8241C14.6385 90.0037 18.1189 88.8028 15.664 87.3997C14.6071 86.8024 13.7269 86.605 13.6051 85.585C13.288 83.2505 11.5369 83.313 11.409 81.9971C11.1615 79.7688 8.71241 76.9933 8.36298 76.3816C7.28043 74.5201 7.46943 73.8704 10.5417 67.5117C10.9942 66.5607 9.53144 65.8908 8.67179 65.0473C7.53772 63.9671 8.18521 62.6624 6.78691 60.1884C6.6467 59.9222 6.70587 59.5174 6.80037 59.1926C7.40596 57.4851 7.23623 55.7665 6.96598 54.0768C6.80718 52.8961 5.49451 52.9766 4.71098 52.562C2.83855 51.6314 4.22768 50.3385 4.3422 49.3406C4.62821 46.8324 1.63342 47.0547 3.22521 45.7846C4.55188 44.7352 4.79097 44.8918 5.97852 43.6299C8.28681 41.1344 5.15727 41.3595 5.30089 38.4775C5.32145 37.8313 6.67197 36.297 4.29589 35.4574C2.12357 34.6943 1.22313 33.5018 1.25769 31.8866C1.27367 29.357 0.0245503 29.2478 1.88835 26.4385C3.29422 24.3111 2.84536 23.7821 4.2416 22.8389C6.43646 21.3951 4.75993 18.4962 11.6534 16.0959C16.1709 14.5242 18.7426 15.0369 20.8857 12.7063C21.4795 12.0753 22.1549 12.1423 28.7251 10.4212C33.8539 9.07922 33.3352 10.0853 38.9216 9.70271C45.2481 9.25122 49.1393 8.3649 53.5562 10.1317C57.3619 11.6688 59.2649 9.12775 60.7117 9.01761C65.3881 8.62657 69.6515 7.81341 71.1057 9.72119C72.0056 10.8868 73.4158 8.97464 73.5369 8.29949C74.1466 5.13893 75.8978 5.07642 76.1496 2.54201C76.2918 1.24756 77.6337 0.951211 78.8062 0.60449C79.7108 0.343935 81.8201 1.32354 79.7496 2.25357C76.4774 3.74618 75.1396 7.56732 76.4344 8.2675C79.7745 10.11 79.5138 10.5458 88.0016 10.3195C89.2143 10.2949 90.7746 9.13302 92.859 10.5437C95.2509 12.1633 96.8578 9.97804 98.1749 10.1127C100.742 10.3834 103.328 9.98105 105.897 10.3325C106.742 10.4498 107.617 10.4051 108.457 10.3073C109.567 10.1771 110.522 10.7228 111.633 10.6733C112.474 10.6293 113.348 10.5039 114.192 10.5675C115.002 10.6317 115.688 11.2097 116.626 10.9754C117.766 10.6831 118.688 11.2564 119.736 11.4234C120.581 11.5677 121.457 11.523 122.269 11.7217C123.116 11.9198 123.861 12.1199 124.733 11.8869C130.298 10.4284 130.853 11.2512 133.617 11.2489C133.987 11.2414 134.397 11.5021 134.771 11.656C135.723 12.094 136.804 12.2066 137.882 12.1847C143.071 12.133 142.204 10.9398 144.774 11.345C150.792 12.299 283.667 13.7686 284.038 13.7611C291.316 13.6939 293.978 15.3618 300.736 14.5787C301.375 14.5119 302.048 14.4444 302.655 14.4859C307.211 14.7969 311.683 14.2755 316.191 13.8879C316.191 13.8879 327.183 14.2026 332.979 14.1924C370.791 14.2041 397.388 12.8831 406.552 14.4458C408.547 14.782 410.367 14.7988 434.325 14.6347C436.043 14.6267 464.021 16.5873 463.942 17.6921C463.917 18.1231 460.279 18.1971 456.967 17.7262C454.905 17.4453 418.511 17.5393 418.21 17.6261C416.936 17.9749 417.391 18.8267 418.204 18.9985C423.078 20.0296 432.67 19.431 435.545 19.9645C439.672 20.7147 447.102 19.8641 456.119 20.784C477.698 22.9823 468.45 20.6141 478.345 23.292C478.955 23.468 479.599 23.6433 480.205 23.6309C483.507 23.5907 486.527 24.6325 489.735 24.944C491.289 25.1008 492.056 26.3768 494.353 26.6261C495.501 26.7642 522.62 31.2446 522.755 31.2688C524.786 31.7118 523.506 33.4061 526.793 34.2541C537.939 37.1488 535.615 35.5547 539.596 37.4649C539.971 37.6457 540.012 38.0215 539.375 38.1959C538.068 38.5454 538.672 38.3986 526.737 36.5155C519.84 35.4179 520.697 37.7684 521.647 38.0989C523.683 38.784 524.691 38.6289 525.057 40.0476C525.488 39.7159 524.126 40.6854 523.126 41.2439C521.726 41.9988 517.303 41.5775 515.576 41.1552C514.966 41.0061 514.325 40.9653 513.689 41.1935C514.008 41.9673 514.98 41.7054 515.593 42.0159C517.806 43.101 520.083 42.382 520.167 43.2144C520.253 44.1006 517.984 43.5548 517.939 44.6858C517.93 45.8968 519.837 45.2123 523.506 46.6714C527.651 48.3093 527.174 49.7181 530.678 49.6738C531.015 49.667 532.973 49.8155 533.362 50.7494C534.85 54.3247 534.649 54.3557 534.146 54.5005C531.7 55.196 529.303 53.3343 526.816 55.2953C526.219 55.7648 525.817 57.5489 529.062 58.048C531.26 58.38 540.756 61.3351 532.051 60.8394C529.318 60.6797 529.012 62.2196 526.617 62.1069C520.883 61.8467 521.486 61.673 520.352 62.2611C520.119 62.4004 520.063 62.9397 520.403 63.1211C523.265 64.6505 527.693 63.6187 526.148 65.5606C523.06 69.4711 523.74 68.1119 514.926 68.883C512.975 69.0572 515.198 72.3216 519.124 73.1298C523.151 73.9628 524.046 73.2181 527.144 74.7427C527.518 74.9234 527.57 75.8103 526.729 75.8812C518.489 76.7214 518.968 75.3932 514.593 75.6974C513.583 75.7717 513.233 76.7475 514.217 77.1042C518.223 78.5565 517.761 77.355 520.147 78.7057C520.986 78.5272 519.288 79.5573 517.466 79.4329ZM458.9 92.9201C457.543 92.4902 456.95 93.175 457.29 93.3026C458.375 93.6572 459.408 93.0712 458.9 92.9201Z" fill="#2AAE94"/>
</svg>
