<?xml version="1.0" encoding="utf-8"?>
<!-- Generator: Adobe Illustrator 24.1.1, SVG Export Plug-In . SVG Version: 6.00 Build 0)  -->
<svg version="1.1" id="Слой_1" xmlns="http://www.w3.org/2000/svg" xmlns:xlink="http://www.w3.org/1999/xlink" x="0px" y="0px"
	 viewBox="0 0 587.8 121.4" style="enable-background:new 0 0 587.8 121.4;" xml:space="preserve">
<style type="text/css">
	.st0{fill-rule:evenodd;clip-rule:evenodd;fill:#2AAE94;}
</style>
<path class="st0" d="M20,33.2c1.2-3.5,13.6-2.3,5.7-5.1c9.9-4.2-5.9-1.5,7.2-5.1c14.5-3.3,26.1-9.8,5.8-8.4
	c25.9-1,103.6-23.9,99-4.3c-1.4,1.4,8.9,1,2.3,3.8c-5.6,0-7.2-5.4-17.9-3.9c-1.4,2.4,0.4,0.2,4.9,1.9c-29.3,1.2-25.7,1.9,1.5,4.5
	c13.9,2.4,4.2,8.4,18.8,0.9c3.3-0.7,15.2,0.4,7.5,2.5c1,0.8,7.3,1.9,6.6-1.3c0.6-1.4,8.7-0.9,4.6-3.3c-5.2,0.2,0.8-2.2-5.8-3.3
	c-12.3-0.7,0.3-0.6-0.2-4.9c8.2-8,75.1,1.2,34.6,1C168.8,9.1,226.9,13.4,214,9c-0.1-0.6,4.3,0.6,2.8-0.8c-3.3-2.8,6.1,1.1,8.4,0.5
	c-3.6-1.8-5.8-2.9-0.5-4.7c4.8-1.1,3.5,2.8,9.4,1.9c2.6-1.9-3.6-2.1,4.4-4c6.7,6.4,10.3-0.9,17.9,1.1c4.6,3.3,11.9,2.4,16.2,0.6
	c9.7,1.9,2.8,3.8-4.2,2.3c-7.6,3,8.7,2.1,6.3,5.5c-2.8-8.2,491.2-0.2,109.2-8.8c6.2-0.5,194-12.3,196.5,20
	c-7.9-1.1-24.5-7-30.8-10.2c-17-1.3,39.9,20.1,32.9,21.2c-1.1,15.6-6.7-1.9-10.3,7.9c0.9,1.8,8.5-1.4,4.2,1.5
	c-1.7,0.6,2.5,0.9,2.1,2.2c2.7,5.9-0.8,0.9-4.1,2.5c11.4,8.9,4-7.3,10.2-7.6c2.5-0.8,4.4,2,2.3,2.2c-5.5-0.9,0.8,5.7-2.3,9.2
	c-1.3,2-8.6-0.7-4.2,3.9c-3.4,1.7,0.2,3.4-3.5,3.5c-0.4,1.9,8.1,1.5-0.6,5.2c5.7,1.1-2.9,3.2,3.6,4.2c2.9,6.3-5.4,1-1.1,11.5
	c-4,3.7-3.4-0.1-1.5,4.9c0,14.7-16.9,11.3-23.6,14.3c-3.5,2.3,9.2,4.1-7.2,3.6c0.2,9,15.9-2.3,19.6,3.2c-20.7,4.4,6.5,2.5-11.2,5.9
	c-1.5-7.3-29.3,5.5-9.1,0.7c-3,3.8,0.7,1.9,2.7,3.8c-0.7,2.9-28.5,7-20.1,4.1c-100.3-5-229.9-5.4-339.7-11.1
	c26.4-0.6,74.1,2.8,33.8-6.6c6.2-5.8,13.8,5.7,19.6-0.7c3.3-5.4-7.3,2.7-5.9-3.2c-2.9-1.6-4.5,2.5-9.9-1.5c-4.4-1.3-1.4,3.6-6.9,3
	c1.1,7-105.9-19.5-131.8,2c-18.1,3.1,80.3,3.7,39,5.3c-8.5,0.1-29.3-3-33.1-1.2c3.5,4.9,13.8,4.1-14.3,2.8
	c-35.5,0.6-29.5-3.9-66.9-8.1c2.4,0.8,16.5-1.1,3.2-2.8c23.9-3-11-3.4-15.6-6c3.9-0.9,10.9-1,14.3-2.9c-4.2-2.6-15.6,1.2-6.4-3.4
	c3.8-1,14.7-1.2,9.1-2.9c28.2-9.1-40-3.9,3.1-13.7c16.2-0.5,3-2.9,0.5-1c-5.7,0.3-26.2-0.5-17.4-0.9c30.1,0.4,20.1-10.8,2.1-6.6
	c-0.7-5.6,5.1-2.8,7.8-4.5c-2.6-0.7-7.5-0.5-9.5-2.2c12.7-1.3,9-3.4-1.3-2.9c2-1.9,20.9-3.1,6.7-4c-0.3-1.9,5.7-0.5,4.6-1.7
	c-2.1-4.3,17.8-1.7,13.7-5.4c-9.3,0.7-2.1-1.3,1.7-2.3C33.6,35.6,4.8,39.9,20,33.2z M237.5,6.7c0.3,0.2-0.4,0.2-0.1,0
	C237.6,7,237.1,6.6,237.5,6.7z M96.7,13.5c-3.7,1.6-11.8-0.2-10.7,2c1.3,0.1,27.1,0.2,15-1.9c-3.3-0.8-5,0.4-1.8-1.1
	C98.1,12.3,84.8,12.2,96.7,13.5z M105.6,89c3.8,2.6,113.5,7.3,67.9-2c-6.4-3,7,1.4,10.6-1.1C172,88.6,60.5,83.4,105.6,89z
	 M207.2,93.2c6.1,1.1,53.9,1,29.7-0.9c-6.2-0.4-46.5-2.1-18.6-3.2c5.4-0.8,6.3,2.3,10.5,0.7c18.4-1.6-25.5-4.5-30.1-4.1
	c-0.8,2.5,4,2.7,5.4,3.2C208.2,90.7,196.6,92.8,207.2,93.2z M258.7,8.5c-4.2-3.7-15.3-2.7-17.6,1.6c2.8,2.5,8.8,1.6,11.7,0.5
	c0.9,1.2,10.9,3,9,0C261.6,8.5,257.1,10.6,258.7,8.5z M167.3,27.3c11.7,0.4-2.2,2.3,7.7,2.1C198.2,29,169.1,20.1,167.3,27.3z
	 M128.1,24.2c1.9-0.9,9.1,0.9,6.5,2.2c4.6,3.8,11,1.3,1.4-2.6c-3.4-1.1,1.5-0.4,2.1-1.8C134.3,22.1,115.6,20,128.1,24.2z M161.1,8.4
	c5.1,3.1,15-0.7,22.3,1.5C181.4,3.4,164.5,9.6,161.1,8.4z M243.9,88c5.2-1.7-3.8-3.9-2.3,0.2c-4,2.2,7.5,1,7.9,2.7
	c1.1,0-0.7-1.1,1.1-1.1C257.1,88,245.2,88.9,243.9,88z M125,9c10,0.4-9.9-5.5-10.3-3.2c1.6,2.4,3.2-0.6,7.1,1.6
	C121,8.5,119.1,8.6,125,9z M254.8,111.9c-1.9,0.1-8.9-0.3-8.4,1.3C248.7,113.9,259.8,116.3,254.8,111.9z M135.5,78.7
	c1-0.7-8.4-1.1-10.7,0.3C128.2,82,136.6,78.8,135.5,78.7z M95.2,21.5c-13.3-1.9-2.6,3.7,0.3,2.1c-0.7-1.2,1-0.8,2.1-1.1
	C99.1,20.8,96.3,20.4,95.2,21.5z M134.5,84.6c1.5,1.6,13.8,2.3,8.2-0.5C136.3,85.1,134.1,81.3,134.5,84.6z M530.3,115.4
	c2.4-1.9-3.5-3.7-5.6-1.2C523.3,115.5,527.8,115.8,530.3,115.4z M169.1,15.3c-1.7,0.7,1,1.7,1.9,1.3
	C178.5,19.2,179.7,13.3,169.1,15.3z M544.1,94.7c-0.9,0-0.6,1.4,0.7,1.5C555,97.8,550.3,93.6,544.1,94.7z M141.7,22.1
	c-2,2.6,7.8,2.3,5-0.1C144,21.7,142.5,21.4,141.7,22.1z M227.9,11.4c2.3,0,1.4-2.6-0.1-2.5C223.6,9,223,11.3,227.9,11.4z
	 M566.1,33.8c1.6,2.1,6.4,2.2,5.5,1.8C572.3,33.2,566.9,33.4,566.1,33.8z M150.6,84.6c-0.8-0.5-3-1-4.7,0.8
	C145.2,86.9,151.3,86.7,150.6,84.6z M395,7.1c-1.3,1,3.9,1.4,6.4,1C401.8,8,403.7,6.6,395,7.1z M296,9.9c-0.9-0.1-3.8,0.1-3.2,1.1
	C296.3,12.2,300.3,10.7,296,9.9z M158.4,84.3c-1.4-0.1-0.9,1.6,0.4,1.5C161.9,85.5,167,84.5,158.4,84.3z M96.9,17.2
	c-0.9,0-1.4,1.5,3.7,1.2C103.4,17,98,16.9,96.9,17.2z M118.1,16.9c-4.3,1,3,1.9,4,1.1C122.9,17.8,122,16.9,118.1,16.9z M542.3,93.4
	c2.4,0.8,4.3-1,3.2-1.5C543.4,91,540.7,92.9,542.3,93.4z M571.1,28.6c-2,1.1,4.5,2.8,3.4,1.1C572.4,28.5,572.3,28.3,571.1,28.6z
	 M72.7,94.5c1,0,0.6-0.8,0.2-0.9C67.9,92.6,65.2,94.6,72.7,94.5z M233.5,6c-0.9,0.1-1.9,0.2-2.9,0.3C229.5,8,238.2,6.8,233.5,6z
	 M409.3,9.2c1.5,0.6,2.8,0,1-1.2C409.2,7.1,405.3,7.4,409.3,9.2z M194.5,91.6c2.1,2.4,7.2,0.1,5.1-0.1
	C198,91.4,196.3,91.4,194.5,91.6z M246.9,92.7c-0.5,0.2-0.3,1,0.7,1.2C252.9,94.8,249.5,91.7,246.9,92.7z M232.6,10.4
	c-1.6,1.3,4.7,1.3,4.2,0.4C236.3,10,234.1,10.3,232.6,10.4z M76,102.3c-0.6,0.1-0.5,0.6-0.1,0.7C81,104.2,80.5,101.5,76,102.3z
	 M107.7,22.9c-3.4,0.9,2.5,2.2,4,0.6C111.6,23.5,107.7,22.9,107.7,22.9z M127.6,83.7c-0.5,0-0.7,0-1,0
	C123.8,85.1,133.2,85.1,127.6,83.7z M146.8,24.3c-4,0.4-0.7,1.4,2.6,0.8C150.8,24.9,148.6,24,146.8,24.3z M541.9,102.3
	c-1,1.4,3,0.3,3,0.1C544.5,101.3,542.5,101.9,541.9,102.3z M220.1,10.4c-0.8,0.8,4.2,1.1,2.5-0.4C221.2,9.6,220.3,10,220.1,10.4z
	 M534.2,112.8c-2.1-0.2-2,0.9-1.4,1C536.2,114.3,535.4,112.9,534.2,112.8z M539.4,105.3c-0.9,0.2,0.6,1.5,2.3,0.6
	C542.6,104.8,540,105,539.4,105.3z M94.5,95.6c-0.9-0.7-2.7-1-3.1,0.2C91.2,96.2,95.2,96.3,94.5,95.6z M537.2,100.5
	c-0.8,0.2-1.1,2.1,1.4,0.8C539.2,101,538.4,100.3,537.2,100.5z M99.6,20.6c-0.8,0.5,1.9,1.2,2.5,0C102.3,20.2,100.6,19.9,99.6,20.6z
	 M215.6,16.6c0.9,0.2,2.5,0,2-0.5C216.3,14.9,214.1,16.3,215.6,16.6z M253.4,101.1c0.3,0.6,1.8,0.8,1.8,0.2
	C255.1,100.7,253.8,100.2,253.4,101.1z M138.8,79.2c-1.4-0.1-1.7,0.8-0.9,0.9C140.9,80.9,140.2,79.4,138.8,79.2z M236.1,86.8
	c0.7,0.2,1.4-0.3,1.3-0.6C237,85.1,233.8,85.9,236.1,86.8z M297.8,5.2c-0.4,0.2,1.1,1.1,2,0.4C300.1,5.3,299,4.6,297.8,5.2z
	 M273.1,107.5c-1-0.5-2.3,0.2-1.7,0.5C272.9,108.9,274,108,273.1,107.5z M414.7,8.4c0.4,0,0.6-0.5,0.1-0.7
	C413.6,7.1,412.2,8.7,414.7,8.4z M161.7,23.9c-1.6,0.8,1.2,2.4,0.9,0.3C162.6,24.1,161.8,23.8,161.7,23.9z M89.6,17.7
	c-0.7,0.8,1.6,0.6,1.6,0.4C91,17.4,90,17.5,89.6,17.7z M299.5,10.9c-0.1,0.5,1.3,0.7,1.5,0.2C301.3,10.6,299.6,10.4,299.5,10.9z
	 M254.2,93.8c-0.8-0.7-2.3-0.2-1.9,0.2C253.3,94.8,254.6,94.1,254.2,93.8z M14.9,45.3c-0.4,0.2,0.7,0.9,1.5,0.5
	C17.1,45.4,15.8,44.8,14.9,45.3z M205.4,84.6c-0.7,0-0.4,0.6,0,0.7C207.2,85.7,208.8,84.6,205.4,84.6z M105.1,22.7
	c-0.7-0.4-0.9-0.8-1.4-0.4C103.3,23.1,104.6,22.9,105.1,22.7z M177.2,17.4c-0.9,0.3,0.2,1.2,1,0.6C178.6,17.8,177.8,17.1,177.2,17.4
	z M104.1,20.7c-0.3,0.3,0.6,0.8,1.2,0.4C105.5,20.8,104.7,20.2,104.1,20.7z M105.6,17.5c-0.2,0.1-0.4,0.1-0.6,0.2
	C104.5,18.3,106.9,18.5,105.6,17.5z M139.8,12.2c-0.3,0.4,1.2,0.7,1.5,0.1C141.3,12,140.2,11.6,139.8,12.2z M94.1,18.7
	c0.6,0.4,1.9,0.2,1-0.4C94.7,18.1,93.8,18.5,94.1,18.7z M218,14.1c-1.8,0.9,1,1,0.6,0.5C218.5,14.4,218.2,14.3,218,14.1z
	 M550.2,11.1c0.1,0.6,1,0.5,1.2,0.1C551.7,10.6,550.1,10.3,550.2,11.1z M111.6,94.5c0.5-0.4-0.6-0.5-0.9-0.2
	C110.4,94.6,111.1,94.9,111.6,94.5z M337.4,10.8c-0.8,0.4,1.9,1.1,1.2,0.2C338.3,10.9,337.5,10.5,337.4,10.8z M147.4,26.5
	c-0.2,0.6,0.9,0.5,0.9,0.2C148.3,26.5,147.5,26.1,147.4,26.5z M405.1,7.6c-0.1,0.2,0.6,0.5,0.5,0.1C405.6,7.5,405.2,7.5,405.1,7.6z
	 M86.8,96.4c-0.8,1.1,3.2,0.5,2.1,0.2C88,96.4,87.8,96.3,86.8,96.4z M140.7,24.6c-0.4,0.6,1.8,0.8,1.3,0
	C141.6,24.3,140.8,24.4,140.7,24.6z M19.4,89.7c0.5,0.2,0.8,0.1,0.7,0C19.9,89.6,19.5,89.7,19.4,89.7z M29.1,98.2
	c-0.3,0.1-0.1,0.5,0.3,0.2C29.5,98.3,29.3,98.1,29.1,98.2z M38.9,34.4c0.7,0,0.9-0.3,0.5-0.5C38.9,33.6,38,34.4,38.9,34.4z
	 M64.5,93.5c0.1,0.1,0.1,0.3,0.3,0.4C65.3,94,66,93.1,64.5,93.5z M227.6,6.6c-0.6-0.5-1.3,0-1.1,0.2C226.7,7.2,228,6.9,227.6,6.6z
	 M247.1,107.2c0.9,0.3,1.5,0,1.3-0.2C247.7,106.5,246.4,106.9,247.1,107.2z M248,105.3c-0.7,0.1-0.1,0.5,0.3,0.6
	C248.7,105.4,248.7,105.5,248,105.3z M257,109.7c0.4-0.1,0.5-0.4-0.1-0.5C256.3,109.2,256.5,109.8,257,109.7z M129.7,6.2
	c0.2,0,0.2-0.2,0.4-0.4C128.5,5.4,129.2,6.3,129.7,6.2z M126.4,5.3c-0.9,0.7,1.2,0.7,0.6,0.2C126.9,5.4,126.6,5.4,126.4,5.3z
	 M178.2,87.2c-0.1,0.2,0.6,0.4,0.8,0.1C179.1,87,178.4,86.8,178.2,87.2z M188.1,85.8c-0.2,0-0.4,0.1-0.7,0.1
	C188,86.4,188.4,86.2,188.1,85.8z M212.8,28.1c0,0.1,0.2,0.2,0.2,0.2C214,28.1,212.9,27.7,212.8,28.1z M120.4,84
	c0,0.1,0,0.2,0.1,0.2C120.9,84.3,120.6,83.8,120.4,84z M126.5,23.7c0.1,0.1,0.2,0.2,0.3,0.4C127.7,23.6,126.3,23.4,126.5,23.7z
	 M170,7.4c0.4-0.1,0.3-0.7-0.2-0.6C169.3,6.8,169.6,7.4,170,7.4z M312.7,107.5c-0.1,0.1-0.3,0.1-0.3,0.1
	C312.6,108.4,313.4,107.8,312.7,107.5z M154.2,25c0-0.1-0.1-0.2-0.2-0.2C153.4,24.6,153.3,25.3,154.2,25z M56.9,15.2
	c0.7,0.4,0.4,0.3,1.2,0.1C57.4,14.9,57.6,14.9,56.9,15.2z M31,100.5c0,0.2,0.4,0.2,0.4,0.1C31.6,100.3,30.9,100.2,31,100.5z
	 M191.8,91.7c-0.1,0.2,0.7,0.3,0.6,0C192.3,91.6,191.8,91.6,191.8,91.7z M103.2,6c-0.2,0-0.2,0.2,0.1,0.3C103.8,6.3,103.7,6,103.2,6
	z M546.2,116.7l-0.2,0C546,116.9,546,116.9,546.2,116.7z M571.6,43c-0.1,0.2,0.6,0.3,0.5,0C572.1,42.9,571.7,42.9,571.6,43z
	 M53.7,17.1l0,0.2C54.1,17.2,54.1,17.2,53.7,17.1z M464.2,117.8c-0.3,0.1-0.4,0.2,0,0.3C464.4,118,464.5,117.9,464.2,117.8z
	 M22.3,33.3l-0.2,0C22.2,33.4,22.1,33.4,22.3,33.3z M542.5,13.2l0-0.1C542.3,13.1,542.3,13,542.5,13.2z M542.9,113.3l0.2,0
	C543,113.1,543.1,113.1,542.9,113.3z M78.6,105.6l0,0.1C78.9,105.7,78.9,105.7,78.6,105.6z"/>
</svg>
