<svg width="655" height="91" viewBox="0 0 655 91" fill="none" xmlns="http://www.w3.org/2000/svg">
<path fill-rule="evenodd" clip-rule="evenodd" d="M529.03 79.7561C528.283 79.8544 527.536 80.1005 526.913 80.0513C518.818 79.4117 522.554 82.7572 516.203 80.4449C514.708 79.8545 514.459 79.6085 511.096 79.9529C502.752 80.8385 506.613 82.3637 499.016 84.0364C496.899 84.4792 497.023 83.7905 495.031 80.5925C487.559 81.9209 490.423 82.1669 483.698 82.8065C477.969 83.3969 484.819 85.7584 478.716 85.5124C474.606 85.3648 474.606 83.5445 470.497 84.2824C463.896 85.414 464.021 86.3488 464.768 84.5776C464.643 84.922 464.519 85.2664 464.27 85.6108C462.651 85.7584 461.405 85.6108 460.284 84.9713C456.922 82.9049 457.046 85.7584 452.314 85.9552C445.962 86.2012 415.45 87.4312 409.846 86.2504C405.238 85.2664 404.74 87.136 401.128 85.8568C394.652 83.5936 398.139 87.1852 383.195 87.1852C367.752 87.1852 364.888 88.4152 362.023 86.152C361.4 85.66 359.034 84.7744 357.913 86.1028C356.668 87.4312 357.415 87.8248 353.679 86.644C348.573 85.0204 349.569 87.7264 340.851 87.7264C259.029 87.7264 186.049 89.7928 178.951 90.2848C166.746 91.1212 154.416 91.3672 142.212 90.2356C140.966 90.1372 60.3894 93.4335 2.47866 80.1989C-1.88021 78.0341 -9.35255 76.9517 -11.7188 73.9997C-12.0924 73.5569 -12.9642 73.1633 -13.7114 72.8189C-17.9458 70.8509 -17.3231 69.3258 -18.8175 66.177C-23.1764 56.9767 52.0452 57.6163 47.6864 51.9091C46.69 50.5807 50.9244 51.0727 67.3635 50.6791C71.4733 50.5807 72.3451 49.9904 76.8285 48.0716C81.4365 46.0544 65.4955 42.7088 59.5176 41.5772C44.5729 38.822 35.2324 38.5268 25.892 33.9021C20.6614 31.3437 15.8043 30.5073 13.9363 27.5553C10.6982 22.3402 -11.9679 1.87314 36.6024 1.77474C51.4225 1.72554 66.9899 -0.144009 72.096 0.397187C82.5573 1.47958 84.1763 0.00355413 90.9014 0.298752C97.6265 0.643148 104.476 0.692384 111.077 0.151189C115.187 -0.193208 118.923 0.593973 122.908 0.446374C131.501 0.151177 131.252 -0.390018 150.182 0.446374C175.962 1.62716 206.1 1.23356 206.1 1.23356C207.346 1.38115 343.716 5.31711 352.185 4.97271C366.507 4.43151 372.36 5.07115 372.36 5.07115C375.971 4.97275 379.459 4.77595 383.07 4.82515C386.682 4.87435 390.169 5.31716 393.656 5.26796C400.63 5.16956 434.38 5.31714 448.453 5.80914C470.87 6.59633 424.915 6.20271 531.894 6.39951C573.74 6.49791 601.512 4.28396 607.863 6.25195C608.361 6.44875 609.358 6.4487 610.23 6.4487C617.577 6.4979 624.178 7.38351 630.28 9.0563C631.526 9.40069 633.767 9.64667 634.764 9.40067C639.994 8.21988 644.851 9.49909 649.833 9.54829C650.082 9.54829 650.58 9.79427 650.58 9.89267C649.335 11.2211 645.35 10.0895 641.738 11.4179C635.76 13.6811 673.371 11.4179 672.997 12.6479C672.997 12.7955 672.748 12.9923 672.624 12.9923C664.902 13.6319 664.03 14.6158 649.335 16.4854C645.101 17.0266 643.855 15.9934 641.115 15.4522C637.877 18.2074 632.522 16.7806 629.159 17.9122C627.042 18.6502 632.896 20.323 646.346 19.0438C647.218 18.9454 647.218 19.585 646.595 19.6342C642.859 20.077 639.123 20.4706 635.013 20.9134C638.998 22.537 650.207 21.0118 651.577 23.0782C652.573 24.6034 639.994 23.7669 633.892 24.6525C633.892 24.6525 603.255 26.6206 597.402 26.965C593.043 27.211 589.058 27.9489 584.824 28.2933C579.593 28.6869 580.216 31.3437 571.498 30.6549C568.883 30.4581 566.641 31.1469 561.161 32.4753C578.97 34.0989 569.256 32.1801 597.277 33.2133C612.845 33.8037 606.369 33.0165 622.683 33.2133C594.413 37.6412 576.604 35.8209 543.726 38.5269C542.48 38.6252 543.227 39.4616 543.85 39.5108C555.308 39.9044 559.044 39.56 559.293 40.7408C560.04 44.1356 547.337 42.758 538.62 45.956C533.513 47.8256 533.513 47.8256 529.155 47.924C523.675 48.0716 517.946 48.1207 513.214 49.4983C456.175 52.7455 523.177 52.0567 556.055 53.7787C554.685 54.8611 557.425 54.2215 544.846 55.7467C533.763 57.0751 618.076 55.3531 601.387 57.6162C583.703 59.9778 513.463 58.6003 489.8 60.8635C483.324 61.4539 476.599 61.1094 478.094 62.0442C482.328 64.6518 589.182 62.1918 590.552 62.241C595.16 62.4378 592.545 64.7502 595.16 64.5042C600.266 64.0122 601.387 65.2914 606.618 64.947C614.464 64.455 621.936 63.3726 619.445 65.7834C615.211 69.867 603.754 65.7834 524.671 71.2446C491.295 73.5569 446.461 71.097 454.556 74.4425C456.175 75.0821 459.662 75.6233 457.42 77.0993C450.072 78.8213 457.296 79.0181 465.141 78.9197C465.515 78.9197 466.262 78.4769 466.138 78.2309C465.889 76.8041 460.409 78.4769 458.541 77.6897C457.046 77.0501 455.552 76.9517 463.896 76.3121C475.354 75.4265 475.852 78.2801 480.709 76.8533L480.46 77.1485C481.456 76.8533 480.335 76.2629 480.584 75.6233C481.083 74.5409 482.951 73.8521 485.441 73.9505C498.767 74.2949 491.046 73.4585 498.144 73.9997C506.738 74.6393 500.76 72.7205 512.466 75.0821C524.671 69.5717 521.433 76.1645 540.612 72.9665C545.096 72.2286 549.953 72.3761 554.561 72.1301C557.051 71.9825 560.414 73.3601 557.176 73.5077C555.806 73.5569 545.345 73.8521 545.594 75.1805C545.718 76.5089 561.286 74.4917 563.029 75.8201C565.022 77.2961 545.843 77.0993 543.477 79.0181C541.982 80.248 537.748 78.6737 536.627 80.1497C536.502 80.2481 535.132 80.2973 534.634 80.1989C532.766 79.7561 530.898 79.7069 529.03 79.8053C529.404 79.3625 529.902 78.9197 530.026 78.4769C530.4 77.6897 528.034 77.9849 528.283 78.3785C528.407 78.8705 528.781 79.3133 529.03 79.7561ZM433.882 73.8029C433.384 73.8029 432.139 74.6885 432.886 74.8853C435.003 75.3773 434.007 75.3773 440.981 73.9014C439.362 78.6245 457.171 73.9505 433.882 73.8029ZM620.193 20.0278C622.434 20.0278 623.431 19.1422 622.683 18.9454C615.336 17.0266 611.973 18.847 605.622 18.2566C604.376 18.1582 602.384 18.9454 602.508 19.339C602.508 19.585 603.38 19.9786 603.754 19.9786C621.064 19.9786 620.193 20.0278 620.193 20.0278ZM631.775 12.9923C635.386 12.4019 632.771 11.0735 631.152 11.3687C619.944 13.189 629.035 13.4351 631.775 12.9923ZM626.171 22.045C628.039 20.6674 611.475 21.7498 617.702 22.6354C618.823 22.8322 624.925 22.9306 626.171 22.045ZM426.908 82.4128C426.534 82.3636 426.036 82.2161 425.912 82.2653C421.802 83.6921 427.78 86.1028 429.15 84.9713C430.644 83.8397 429.025 82.8064 426.908 82.4128ZM419.062 73.5569C418.813 73.4585 418.439 73.2125 418.439 73.2125C417.817 73.3109 416.945 73.4094 416.696 73.6553C416.322 73.9505 416.945 74.2458 417.817 74.1473C418.315 74.0982 418.564 73.7537 419.062 73.5569ZM563.776 64.2582C563.403 64.2582 563.154 64.6026 562.905 64.7994C562.905 64.8486 563.403 64.9962 563.776 65.0454C567.264 65.3898 569.007 64.0614 563.776 64.2582ZM413.084 76.5581C414.33 76.9025 414.329 76.5581 414.703 75.9185C414.08 75.8693 413.333 75.8693 412.711 75.8693C412.337 75.8201 412.337 76.3121 413.084 76.5581ZM525.792 76.0169C523.426 75.5249 524.422 75.4757 521.931 76.0169C524.422 76.5581 523.426 76.5089 525.792 76.0169ZM388.176 84.5284C386.806 85.0696 387.554 85.4632 388.425 85.2664C388.799 85.2172 388.924 84.9712 388.176 84.5284ZM440.607 84.3316C439.985 84.0364 440.607 83.8397 437.867 84.2824C439.362 84.922 438.739 85.0204 440.607 84.3316ZM617.702 9.89267C618.698 10.2371 617.951 10.2371 620.317 9.84348C619.57 9.59748 619.944 9.49907 617.702 9.89267ZM550.077 64.7502C552.194 65.3406 551.323 65.2914 553.44 64.7994C551.447 64.2582 552.07 64.3074 550.077 64.7502Z" fill="#2AAE94"/>
</svg>
