<svg xmlns="http://www.w3.org/2000/svg">
<symbol id="user-head" viewBox="0 0 18.7 23.1">
<g>
	<path d="M9.2,11.1c1.5,0,2.8-0.5,3.8-1.6c1.1-1.1,1.6-2.4,1.6-3.9c0-1.5-0.5-2.9-1.6-3.9C12,0.5,10.7,0,9.2,0
		C7.7,0,6.4,0.5,5.4,1.6S3.8,4,3.8,5.6c0,1.5,0.5,2.9,1.6,3.9C6.4,10.6,7.7,11.1,9.2,11.1z M6.3,2.6c0.8-0.8,1.8-1.2,2.9-1.2
		c1.1,0,2.1,0.4,2.9,1.2c0.8,0.8,1.2,1.8,1.2,3c0,1.2-0.4,2.1-1.2,3c-0.8,0.8-1.8,1.2-2.9,1.2c-1.1,0-2.1-0.4-2.9-1.2
		c-0.8-0.8-1.2-1.8-1.2-3C5.1,4.4,5.5,3.4,6.3,2.6z"/>
	<path d="M18.7,17.8c0-0.5-0.1-0.9-0.2-1.5c-0.1-0.5-0.2-1-0.3-1.5c-0.1-0.5-0.3-0.9-0.6-1.4c-0.3-0.5-0.5-0.9-0.9-1.2
		c-0.3-0.3-0.8-0.6-1.3-0.8c-0.5-0.2-1-0.3-1.6-0.3c-0.2,0-0.5,0.1-0.9,0.4c-0.3,0.2-0.6,0.4-0.9,0.6c-0.3,0.2-0.7,0.4-1.2,0.5
		c-0.5,0.2-1,0.2-1.4,0.2c-0.5,0-1-0.1-1.4-0.2c-0.5-0.2-0.9-0.3-1.2-0.5c-0.3-0.2-0.6-0.4-0.9-0.6c-0.4-0.3-0.6-0.4-0.9-0.4
		c-0.6,0-1.1,0.1-1.6,0.3c-0.5,0.2-0.9,0.5-1.3,0.8c-0.3,0.3-0.6,0.7-0.9,1.2c-0.2,0.4-0.4,0.9-0.6,1.4c-0.1,0.5-0.3,0.9-0.3,1.5
		c-0.1,0.5-0.2,1-0.2,1.5c0,0.4,0,0.9,0,1.4c0,1.2,0.4,2.2,1.1,2.9c0.7,0.7,1.7,1.1,2.9,1.1h10.8c1.2,0,2.1-0.4,2.9-1.1
		c0.7-0.7,1.1-1.7,1.1-2.9C18.7,18.7,18.7,18.2,18.7,17.8z M16.7,21c-0.5,0.5-1.1,0.7-1.9,0.7H4c-0.8,0-1.5-0.2-1.9-0.7
		c-0.5-0.5-0.7-1.1-0.7-1.9c0-0.4,0-0.9,0-1.3c0-0.4,0.1-0.8,0.2-1.3c0.1-0.5,0.2-0.9,0.3-1.3c0.1-0.4,0.3-0.8,0.5-1.1
		c0.2-0.3,0.4-0.6,0.6-0.9c0.2-0.2,0.5-0.4,0.8-0.5c0.3-0.1,0.7-0.2,1-0.2c0,0,0.1,0.1,0.3,0.2c0.3,0.2,0.6,0.4,0.9,0.6
		c0.4,0.3,0.9,0.5,1.5,0.7c0.6,0.2,1.2,0.3,1.9,0.3c0.6,0,1.2-0.1,1.9-0.3c0.6-0.2,1.1-0.4,1.5-0.7c0.4-0.2,0.7-0.4,0.9-0.6
		c0.1-0.1,0.2-0.1,0.3-0.2c0.4,0,0.7,0.1,1,0.2c0.3,0.1,0.6,0.3,0.8,0.5c0.2,0.2,0.5,0.5,0.6,0.9c0.2,0.4,0.4,0.7,0.5,1.1
		c0.1,0.4,0.2,0.8,0.3,1.3c0.1,0.5,0.1,0.9,0.2,1.3v0c0,0.4,0,0.8,0,1.3C17.4,20,17.2,20.6,16.7,21z"/>
</g>
</symbol>
<symbol id="security-bg-top" viewBox="0 0 1920 177">
<g filter="url(#filter0_d)">
<path d="M1920 9.87988L1920 51.7696L1.45484e-06 131.88L0 9.88009L1920 9.87988Z" fill="#F3F3F3"/>
</g>
<rect y="-2.12012" width="1920" height="45" fill="#F3F3F3"/>
<defs>
<filter id="filter0_d" x="-41" y="-27.1201" width="2002" height="204" filterUnits="userSpaceOnUse" color-interpolation-filters="sRGB">
<feFlood flood-opacity="0" result="BackgroundImageFix"/>
<feColorMatrix in="SourceAlpha" type="matrix" values="0 0 0 0 0 0 0 0 0 0 0 0 0 0 0 0 0 0 127 0"/>
<feOffset dy="4"/>
<feGaussianBlur stdDeviation="20.5"/>
<feColorMatrix type="matrix" values="0 0 0 0 0 0 0 0 0 0 0 0 0 0 0 0 0 0 0.1 0"/>
<feBlend mode="normal" in2="BackgroundImageFix" result="effect1_dropShadow"/>
<feBlend mode="normal" in="SourceGraphic" in2="effect1_dropShadow" result="shape"/>
</filter>
</defs>
</symbol>
</svg>