<svg xmlns="http://www.w3.org/2000/svg">
<symbol id="smear1" viewBox="0 0 655 91">
<path fill-rule="evenodd" clip-rule="evenodd" fill="#2AAE94" d="M529.03 79.7561C528.283 79.8544 527.536 80.1005 526.913 80.0513C518.818 79.4117 522.554 82.7572 516.203 80.4449C514.708 79.8545 514.459 79.6085 511.096 79.9529C502.752 80.8385 506.613 82.3637 499.016 84.0364C496.899 84.4792 497.023 83.7905 495.031 80.5925C487.559 81.9209 490.423 82.1669 483.698 82.8065C477.969 83.3969 484.819 85.7584 478.716 85.5124C474.606 85.3648 474.606 83.5445 470.497 84.2824C463.896 85.414 464.021 86.3488 464.768 84.5776C464.643 84.922 464.519 85.2664 464.27 85.6108C462.651 85.7584 461.405 85.6108 460.284 84.9713C456.922 82.9049 457.046 85.7584 452.314 85.9552C445.962 86.2012 415.45 87.4312 409.846 86.2504C405.238 85.2664 404.74 87.136 401.128 85.8568C394.652 83.5936 398.139 87.1852 383.195 87.1852C367.752 87.1852 364.888 88.4152 362.023 86.152C361.4 85.66 359.034 84.7744 357.913 86.1028C356.668 87.4312 357.415 87.8248 353.679 86.644C348.573 85.0204 349.569 87.7264 340.851 87.7264C259.029 87.7264 186.049 89.7928 178.951 90.2848C166.746 91.1212 154.416 91.3672 142.212 90.2356C140.966 90.1372 60.3894 93.4335 2.47866 80.1989C-1.88021 78.0341 -9.35255 76.9517 -11.7188 73.9997C-12.0924 73.5569 -12.9642 73.1633 -13.7114 72.8189C-17.9458 70.8509 -17.3231 69.3258 -18.8175 66.177C-23.1764 56.9767 52.0452 57.6163 47.6864 51.9091C46.69 50.5807 50.9244 51.0727 67.3635 50.6791C71.4733 50.5807 72.3451 49.9904 76.8285 48.0716C81.4365 46.0544 65.4955 42.7088 59.5176 41.5772C44.5729 38.822 35.2324 38.5268 25.892 33.9021C20.6614 31.3437 15.8043 30.5073 13.9363 27.5553C10.6982 22.3402 -11.9679 1.87314 36.6024 1.77474C51.4225 1.72554 66.9899 -0.144009 72.096 0.397187C82.5573 1.47958 84.1763 0.00355413 90.9014 0.298752C97.6265 0.643148 104.476 0.692384 111.077 0.151189C115.187 -0.193208 118.923 0.593973 122.908 0.446374C131.501 0.151177 131.252 -0.390018 150.182 0.446374C175.962 1.62716 206.1 1.23356 206.1 1.23356C207.346 1.38115 343.716 5.31711 352.185 4.97271C366.507 4.43151 372.36 5.07115 372.36 5.07115C375.971 4.97275 379.459 4.77595 383.07 4.82515C386.682 4.87435 390.169 5.31716 393.656 5.26796C400.63 5.16956 434.38 5.31714 448.453 5.80914C470.87 6.59633 424.915 6.20271 531.894 6.39951C573.74 6.49791 601.512 4.28396 607.863 6.25195C608.361 6.44875 609.358 6.4487 610.23 6.4487C617.577 6.4979 624.178 7.38351 630.28 9.0563C631.526 9.40069 633.767 9.64667 634.764 9.40067C639.994 8.21988 644.851 9.49909 649.833 9.54829C650.082 9.54829 650.58 9.79427 650.58 9.89267C649.335 11.2211 645.35 10.0895 641.738 11.4179C635.76 13.6811 673.371 11.4179 672.997 12.6479C672.997 12.7955 672.748 12.9923 672.624 12.9923C664.902 13.6319 664.03 14.6158 649.335 16.4854C645.101 17.0266 643.855 15.9934 641.115 15.4522C637.877 18.2074 632.522 16.7806 629.159 17.9122C627.042 18.6502 632.896 20.323 646.346 19.0438C647.218 18.9454 647.218 19.585 646.595 19.6342C642.859 20.077 639.123 20.4706 635.013 20.9134C638.998 22.537 650.207 21.0118 651.577 23.0782C652.573 24.6034 639.994 23.7669 633.892 24.6525C633.892 24.6525 603.255 26.6206 597.402 26.965C593.043 27.211 589.058 27.9489 584.824 28.2933C579.593 28.6869 580.216 31.3437 571.498 30.6549C568.883 30.4581 566.641 31.1469 561.161 32.4753C578.97 34.0989 569.256 32.1801 597.277 33.2133C612.845 33.8037 606.369 33.0165 622.683 33.2133C594.413 37.6412 576.604 35.8209 543.726 38.5269C542.48 38.6252 543.227 39.4616 543.85 39.5108C555.308 39.9044 559.044 39.56 559.293 40.7408C560.04 44.1356 547.337 42.758 538.62 45.956C533.513 47.8256 533.513 47.8256 529.155 47.924C523.675 48.0716 517.946 48.1207 513.214 49.4983C456.175 52.7455 523.177 52.0567 556.055 53.7787C554.685 54.8611 557.425 54.2215 544.846 55.7467C533.763 57.0751 618.076 55.3531 601.387 57.6162C583.703 59.9778 513.463 58.6003 489.8 60.8635C483.324 61.4539 476.599 61.1094 478.094 62.0442C482.328 64.6518 589.182 62.1918 590.552 62.241C595.16 62.4378 592.545 64.7502 595.16 64.5042C600.266 64.0122 601.387 65.2914 606.618 64.947C614.464 64.455 621.936 63.3726 619.445 65.7834C615.211 69.867 603.754 65.7834 524.671 71.2446C491.295 73.5569 446.461 71.097 454.556 74.4425C456.175 75.0821 459.662 75.6233 457.42 77.0993C450.072 78.8213 457.296 79.0181 465.141 78.9197C465.515 78.9197 466.262 78.4769 466.138 78.2309C465.889 76.8041 460.409 78.4769 458.541 77.6897C457.046 77.0501 455.552 76.9517 463.896 76.3121C475.354 75.4265 475.852 78.2801 480.709 76.8533L480.46 77.1485C481.456 76.8533 480.335 76.2629 480.584 75.6233C481.083 74.5409 482.951 73.8521 485.441 73.9505C498.767 74.2949 491.046 73.4585 498.144 73.9997C506.738 74.6393 500.76 72.7205 512.466 75.0821C524.671 69.5717 521.433 76.1645 540.612 72.9665C545.096 72.2286 549.953 72.3761 554.561 72.1301C557.051 71.9825 560.414 73.3601 557.176 73.5077C555.806 73.5569 545.345 73.8521 545.594 75.1805C545.718 76.5089 561.286 74.4917 563.029 75.8201C565.022 77.2961 545.843 77.0993 543.477 79.0181C541.982 80.248 537.748 78.6737 536.627 80.1497C536.502 80.2481 535.132 80.2973 534.634 80.1989C532.766 79.7561 530.898 79.7069 529.03 79.8053C529.404 79.3625 529.902 78.9197 530.026 78.4769C530.4 77.6897 528.034 77.9849 528.283 78.3785C528.407 78.8705 528.781 79.3133 529.03 79.7561ZM433.882 73.8029C433.384 73.8029 432.139 74.6885 432.886 74.8853C435.003 75.3773 434.007 75.3773 440.981 73.9014C439.362 78.6245 457.171 73.9505 433.882 73.8029ZM620.193 20.0278C622.434 20.0278 623.431 19.1422 622.683 18.9454C615.336 17.0266 611.973 18.847 605.622 18.2566C604.376 18.1582 602.384 18.9454 602.508 19.339C602.508 19.585 603.38 19.9786 603.754 19.9786C621.064 19.9786 620.193 20.0278 620.193 20.0278ZM631.775 12.9923C635.386 12.4019 632.771 11.0735 631.152 11.3687C619.944 13.189 629.035 13.4351 631.775 12.9923ZM626.171 22.045C628.039 20.6674 611.475 21.7498 617.702 22.6354C618.823 22.8322 624.925 22.9306 626.171 22.045ZM426.908 82.4128C426.534 82.3636 426.036 82.2161 425.912 82.2653C421.802 83.6921 427.78 86.1028 429.15 84.9713C430.644 83.8397 429.025 82.8064 426.908 82.4128ZM419.062 73.5569C418.813 73.4585 418.439 73.2125 418.439 73.2125C417.817 73.3109 416.945 73.4094 416.696 73.6553C416.322 73.9505 416.945 74.2458 417.817 74.1473C418.315 74.0982 418.564 73.7537 419.062 73.5569ZM563.776 64.2582C563.403 64.2582 563.154 64.6026 562.905 64.7994C562.905 64.8486 563.403 64.9962 563.776 65.0454C567.264 65.3898 569.007 64.0614 563.776 64.2582ZM413.084 76.5581C414.33 76.9025 414.329 76.5581 414.703 75.9185C414.08 75.8693 413.333 75.8693 412.711 75.8693C412.337 75.8201 412.337 76.3121 413.084 76.5581ZM525.792 76.0169C523.426 75.5249 524.422 75.4757 521.931 76.0169C524.422 76.5581 523.426 76.5089 525.792 76.0169ZM388.176 84.5284C386.806 85.0696 387.554 85.4632 388.425 85.2664C388.799 85.2172 388.924 84.9712 388.176 84.5284ZM440.607 84.3316C439.985 84.0364 440.607 83.8397 437.867 84.2824C439.362 84.922 438.739 85.0204 440.607 84.3316ZM617.702 9.89267C618.698 10.2371 617.951 10.2371 620.317 9.84348C619.57 9.59748 619.944 9.49907 617.702 9.89267ZM550.077 64.7502C552.194 65.3406 551.323 65.2914 553.44 64.7994C551.447 64.2582 552.07 64.3074 550.077 64.7502Z"/>
</symbol>
<symbol id="smear2" viewBox="0 0 587.8 121.4" xmlns="http://www.w3.org/2000/svg">
<path fill-rule="evenodd" clip-rule="evenodd" fill="#2AAE94" d="M20,33.2c1.2-3.5,13.6-2.3,5.7-5.1c9.9-4.2-5.9-1.5,7.2-5.1c14.5-3.3,26.1-9.8,5.8-8.4
	c25.9-1,103.6-23.9,99-4.3c-1.4,1.4,8.9,1,2.3,3.8c-5.6,0-7.2-5.4-17.9-3.9c-1.4,2.4,0.4,0.2,4.9,1.9c-29.3,1.2-25.7,1.9,1.5,4.5
	c13.9,2.4,4.2,8.4,18.8,0.9c3.3-0.7,15.2,0.4,7.5,2.5c1,0.8,7.3,1.9,6.6-1.3c0.6-1.4,8.7-0.9,4.6-3.3c-5.2,0.2,0.8-2.2-5.8-3.3
	c-12.3-0.7,0.3-0.6-0.2-4.9c8.2-8,75.1,1.2,34.6,1C168.8,9.1,226.9,13.4,214,9c-0.1-0.6,4.3,0.6,2.8-0.8c-3.3-2.8,6.1,1.1,8.4,0.5
	c-3.6-1.8-5.8-2.9-0.5-4.7c4.8-1.1,3.5,2.8,9.4,1.9c2.6-1.9-3.6-2.1,4.4-4c6.7,6.4,10.3-0.9,17.9,1.1c4.6,3.3,11.9,2.4,16.2,0.6
	c9.7,1.9,2.8,3.8-4.2,2.3c-7.6,3,8.7,2.1,6.3,5.5c-2.8-8.2,491.2-0.2,109.2-8.8c6.2-0.5,194-12.3,196.5,20
	c-7.9-1.1-24.5-7-30.8-10.2c-17-1.3,39.9,20.1,32.9,21.2c-1.1,15.6-6.7-1.9-10.3,7.9c0.9,1.8,8.5-1.4,4.2,1.5
	c-1.7,0.6,2.5,0.9,2.1,2.2c2.7,5.9-0.8,0.9-4.1,2.5c11.4,8.9,4-7.3,10.2-7.6c2.5-0.8,4.4,2,2.3,2.2c-5.5-0.9,0.8,5.7-2.3,9.2
	c-1.3,2-8.6-0.7-4.2,3.9c-3.4,1.7,0.2,3.4-3.5,3.5c-0.4,1.9,8.1,1.5-0.6,5.2c5.7,1.1-2.9,3.2,3.6,4.2c2.9,6.3-5.4,1-1.1,11.5
	c-4,3.7-3.4-0.1-1.5,4.9c0,14.7-16.9,11.3-23.6,14.3c-3.5,2.3,9.2,4.1-7.2,3.6c0.2,9,15.9-2.3,19.6,3.2c-20.7,4.4,6.5,2.5-11.2,5.9
	c-1.5-7.3-29.3,5.5-9.1,0.7c-3,3.8,0.7,1.9,2.7,3.8c-0.7,2.9-28.5,7-20.1,4.1c-100.3-5-229.9-5.4-339.7-11.1
	c26.4-0.6,74.1,2.8,33.8-6.6c6.2-5.8,13.8,5.7,19.6-0.7c3.3-5.4-7.3,2.7-5.9-3.2c-2.9-1.6-4.5,2.5-9.9-1.5c-4.4-1.3-1.4,3.6-6.9,3
	c1.1,7-105.9-19.5-131.8,2c-18.1,3.1,80.3,3.7,39,5.3c-8.5,0.1-29.3-3-33.1-1.2c3.5,4.9,13.8,4.1-14.3,2.8
	c-35.5,0.6-29.5-3.9-66.9-8.1c2.4,0.8,16.5-1.1,3.2-2.8c23.9-3-11-3.4-15.6-6c3.9-0.9,10.9-1,14.3-2.9c-4.2-2.6-15.6,1.2-6.4-3.4
	c3.8-1,14.7-1.2,9.1-2.9c28.2-9.1-40-3.9,3.1-13.7c16.2-0.5,3-2.9,0.5-1c-5.7,0.3-26.2-0.5-17.4-0.9c30.1,0.4,20.1-10.8,2.1-6.6
	c-0.7-5.6,5.1-2.8,7.8-4.5c-2.6-0.7-7.5-0.5-9.5-2.2c12.7-1.3,9-3.4-1.3-2.9c2-1.9,20.9-3.1,6.7-4c-0.3-1.9,5.7-0.5,4.6-1.7
	c-2.1-4.3,17.8-1.7,13.7-5.4c-9.3,0.7-2.1-1.3,1.7-2.3C33.6,35.6,4.8,39.9,20,33.2z M237.5,6.7c0.3,0.2-0.4,0.2-0.1,0
	C237.6,7,237.1,6.6,237.5,6.7z M96.7,13.5c-3.7,1.6-11.8-0.2-10.7,2c1.3,0.1,27.1,0.2,15-1.9c-3.3-0.8-5,0.4-1.8-1.1
	C98.1,12.3,84.8,12.2,96.7,13.5z M105.6,89c3.8,2.6,113.5,7.3,67.9-2c-6.4-3,7,1.4,10.6-1.1C172,88.6,60.5,83.4,105.6,89z
	 M207.2,93.2c6.1,1.1,53.9,1,29.7-0.9c-6.2-0.4-46.5-2.1-18.6-3.2c5.4-0.8,6.3,2.3,10.5,0.7c18.4-1.6-25.5-4.5-30.1-4.1
	c-0.8,2.5,4,2.7,5.4,3.2C208.2,90.7,196.6,92.8,207.2,93.2z M258.7,8.5c-4.2-3.7-15.3-2.7-17.6,1.6c2.8,2.5,8.8,1.6,11.7,0.5
	c0.9,1.2,10.9,3,9,0C261.6,8.5,257.1,10.6,258.7,8.5z M167.3,27.3c11.7,0.4-2.2,2.3,7.7,2.1C198.2,29,169.1,20.1,167.3,27.3z
	 M128.1,24.2c1.9-0.9,9.1,0.9,6.5,2.2c4.6,3.8,11,1.3,1.4-2.6c-3.4-1.1,1.5-0.4,2.1-1.8C134.3,22.1,115.6,20,128.1,24.2z M161.1,8.4
	c5.1,3.1,15-0.7,22.3,1.5C181.4,3.4,164.5,9.6,161.1,8.4z M243.9,88c5.2-1.7-3.8-3.9-2.3,0.2c-4,2.2,7.5,1,7.9,2.7
	c1.1,0-0.7-1.1,1.1-1.1C257.1,88,245.2,88.9,243.9,88z M125,9c10,0.4-9.9-5.5-10.3-3.2c1.6,2.4,3.2-0.6,7.1,1.6
	C121,8.5,119.1,8.6,125,9z M254.8,111.9c-1.9,0.1-8.9-0.3-8.4,1.3C248.7,113.9,259.8,116.3,254.8,111.9z M135.5,78.7
	c1-0.7-8.4-1.1-10.7,0.3C128.2,82,136.6,78.8,135.5,78.7z M95.2,21.5c-13.3-1.9-2.6,3.7,0.3,2.1c-0.7-1.2,1-0.8,2.1-1.1
	C99.1,20.8,96.3,20.4,95.2,21.5z M134.5,84.6c1.5,1.6,13.8,2.3,8.2-0.5C136.3,85.1,134.1,81.3,134.5,84.6z M530.3,115.4
	c2.4-1.9-3.5-3.7-5.6-1.2C523.3,115.5,527.8,115.8,530.3,115.4z M169.1,15.3c-1.7,0.7,1,1.7,1.9,1.3
	C178.5,19.2,179.7,13.3,169.1,15.3z M544.1,94.7c-0.9,0-0.6,1.4,0.7,1.5C555,97.8,550.3,93.6,544.1,94.7z M141.7,22.1
	c-2,2.6,7.8,2.3,5-0.1C144,21.7,142.5,21.4,141.7,22.1z M227.9,11.4c2.3,0,1.4-2.6-0.1-2.5C223.6,9,223,11.3,227.9,11.4z
	 M566.1,33.8c1.6,2.1,6.4,2.2,5.5,1.8C572.3,33.2,566.9,33.4,566.1,33.8z M150.6,84.6c-0.8-0.5-3-1-4.7,0.8
	C145.2,86.9,151.3,86.7,150.6,84.6z M395,7.1c-1.3,1,3.9,1.4,6.4,1C401.8,8,403.7,6.6,395,7.1z M296,9.9c-0.9-0.1-3.8,0.1-3.2,1.1
	C296.3,12.2,300.3,10.7,296,9.9z M158.4,84.3c-1.4-0.1-0.9,1.6,0.4,1.5C161.9,85.5,167,84.5,158.4,84.3z M96.9,17.2
	c-0.9,0-1.4,1.5,3.7,1.2C103.4,17,98,16.9,96.9,17.2z M118.1,16.9c-4.3,1,3,1.9,4,1.1C122.9,17.8,122,16.9,118.1,16.9z M542.3,93.4
	c2.4,0.8,4.3-1,3.2-1.5C543.4,91,540.7,92.9,542.3,93.4z M571.1,28.6c-2,1.1,4.5,2.8,3.4,1.1C572.4,28.5,572.3,28.3,571.1,28.6z
	 M72.7,94.5c1,0,0.6-0.8,0.2-0.9C67.9,92.6,65.2,94.6,72.7,94.5z M233.5,6c-0.9,0.1-1.9,0.2-2.9,0.3C229.5,8,238.2,6.8,233.5,6z
	 M409.3,9.2c1.5,0.6,2.8,0,1-1.2C409.2,7.1,405.3,7.4,409.3,9.2z M194.5,91.6c2.1,2.4,7.2,0.1,5.1-0.1
	C198,91.4,196.3,91.4,194.5,91.6z M246.9,92.7c-0.5,0.2-0.3,1,0.7,1.2C252.9,94.8,249.5,91.7,246.9,92.7z M232.6,10.4
	c-1.6,1.3,4.7,1.3,4.2,0.4C236.3,10,234.1,10.3,232.6,10.4z M76,102.3c-0.6,0.1-0.5,0.6-0.1,0.7C81,104.2,80.5,101.5,76,102.3z
	 M107.7,22.9c-3.4,0.9,2.5,2.2,4,0.6C111.6,23.5,107.7,22.9,107.7,22.9z M127.6,83.7c-0.5,0-0.7,0-1,0
	C123.8,85.1,133.2,85.1,127.6,83.7z M146.8,24.3c-4,0.4-0.7,1.4,2.6,0.8C150.8,24.9,148.6,24,146.8,24.3z M541.9,102.3
	c-1,1.4,3,0.3,3,0.1C544.5,101.3,542.5,101.9,541.9,102.3z M220.1,10.4c-0.8,0.8,4.2,1.1,2.5-0.4C221.2,9.6,220.3,10,220.1,10.4z
	 M534.2,112.8c-2.1-0.2-2,0.9-1.4,1C536.2,114.3,535.4,112.9,534.2,112.8z M539.4,105.3c-0.9,0.2,0.6,1.5,2.3,0.6
	C542.6,104.8,540,105,539.4,105.3z M94.5,95.6c-0.9-0.7-2.7-1-3.1,0.2C91.2,96.2,95.2,96.3,94.5,95.6z M537.2,100.5
	c-0.8,0.2-1.1,2.1,1.4,0.8C539.2,101,538.4,100.3,537.2,100.5z M99.6,20.6c-0.8,0.5,1.9,1.2,2.5,0C102.3,20.2,100.6,19.9,99.6,20.6z
	 M215.6,16.6c0.9,0.2,2.5,0,2-0.5C216.3,14.9,214.1,16.3,215.6,16.6z M253.4,101.1c0.3,0.6,1.8,0.8,1.8,0.2
	C255.1,100.7,253.8,100.2,253.4,101.1z M138.8,79.2c-1.4-0.1-1.7,0.8-0.9,0.9C140.9,80.9,140.2,79.4,138.8,79.2z M236.1,86.8
	c0.7,0.2,1.4-0.3,1.3-0.6C237,85.1,233.8,85.9,236.1,86.8z M297.8,5.2c-0.4,0.2,1.1,1.1,2,0.4C300.1,5.3,299,4.6,297.8,5.2z
	 M273.1,107.5c-1-0.5-2.3,0.2-1.7,0.5C272.9,108.9,274,108,273.1,107.5z M414.7,8.4c0.4,0,0.6-0.5,0.1-0.7
	C413.6,7.1,412.2,8.7,414.7,8.4z M161.7,23.9c-1.6,0.8,1.2,2.4,0.9,0.3C162.6,24.1,161.8,23.8,161.7,23.9z M89.6,17.7
	c-0.7,0.8,1.6,0.6,1.6,0.4C91,17.4,90,17.5,89.6,17.7z M299.5,10.9c-0.1,0.5,1.3,0.7,1.5,0.2C301.3,10.6,299.6,10.4,299.5,10.9z
	 M254.2,93.8c-0.8-0.7-2.3-0.2-1.9,0.2C253.3,94.8,254.6,94.1,254.2,93.8z M14.9,45.3c-0.4,0.2,0.7,0.9,1.5,0.5
	C17.1,45.4,15.8,44.8,14.9,45.3z M205.4,84.6c-0.7,0-0.4,0.6,0,0.7C207.2,85.7,208.8,84.6,205.4,84.6z M105.1,22.7
	c-0.7-0.4-0.9-0.8-1.4-0.4C103.3,23.1,104.6,22.9,105.1,22.7z M177.2,17.4c-0.9,0.3,0.2,1.2,1,0.6C178.6,17.8,177.8,17.1,177.2,17.4
	z M104.1,20.7c-0.3,0.3,0.6,0.8,1.2,0.4C105.5,20.8,104.7,20.2,104.1,20.7z M105.6,17.5c-0.2,0.1-0.4,0.1-0.6,0.2
	C104.5,18.3,106.9,18.5,105.6,17.5z M139.8,12.2c-0.3,0.4,1.2,0.7,1.5,0.1C141.3,12,140.2,11.6,139.8,12.2z M94.1,18.7
	c0.6,0.4,1.9,0.2,1-0.4C94.7,18.1,93.8,18.5,94.1,18.7z M218,14.1c-1.8,0.9,1,1,0.6,0.5C218.5,14.4,218.2,14.3,218,14.1z
	 M550.2,11.1c0.1,0.6,1,0.5,1.2,0.1C551.7,10.6,550.1,10.3,550.2,11.1z M111.6,94.5c0.5-0.4-0.6-0.5-0.9-0.2
	C110.4,94.6,111.1,94.9,111.6,94.5z M337.4,10.8c-0.8,0.4,1.9,1.1,1.2,0.2C338.3,10.9,337.5,10.5,337.4,10.8z M147.4,26.5
	c-0.2,0.6,0.9,0.5,0.9,0.2C148.3,26.5,147.5,26.1,147.4,26.5z M405.1,7.6c-0.1,0.2,0.6,0.5,0.5,0.1C405.6,7.5,405.2,7.5,405.1,7.6z
	 M86.8,96.4c-0.8,1.1,3.2,0.5,2.1,0.2C88,96.4,87.8,96.3,86.8,96.4z M140.7,24.6c-0.4,0.6,1.8,0.8,1.3,0
	C141.6,24.3,140.8,24.4,140.7,24.6z M19.4,89.7c0.5,0.2,0.8,0.1,0.7,0C19.9,89.6,19.5,89.7,19.4,89.7z M29.1,98.2
	c-0.3,0.1-0.1,0.5,0.3,0.2C29.5,98.3,29.3,98.1,29.1,98.2z M38.9,34.4c0.7,0,0.9-0.3,0.5-0.5C38.9,33.6,38,34.4,38.9,34.4z
	 M64.5,93.5c0.1,0.1,0.1,0.3,0.3,0.4C65.3,94,66,93.1,64.5,93.5z M227.6,6.6c-0.6-0.5-1.3,0-1.1,0.2C226.7,7.2,228,6.9,227.6,6.6z
	 M247.1,107.2c0.9,0.3,1.5,0,1.3-0.2C247.7,106.5,246.4,106.9,247.1,107.2z M248,105.3c-0.7,0.1-0.1,0.5,0.3,0.6
	C248.7,105.4,248.7,105.5,248,105.3z M257,109.7c0.4-0.1,0.5-0.4-0.1-0.5C256.3,109.2,256.5,109.8,257,109.7z M129.7,6.2
	c0.2,0,0.2-0.2,0.4-0.4C128.5,5.4,129.2,6.3,129.7,6.2z M126.4,5.3c-0.9,0.7,1.2,0.7,0.6,0.2C126.9,5.4,126.6,5.4,126.4,5.3z
	 M178.2,87.2c-0.1,0.2,0.6,0.4,0.8,0.1C179.1,87,178.4,86.8,178.2,87.2z M188.1,85.8c-0.2,0-0.4,0.1-0.7,0.1
	C188,86.4,188.4,86.2,188.1,85.8z M212.8,28.1c0,0.1,0.2,0.2,0.2,0.2C214,28.1,212.9,27.7,212.8,28.1z M120.4,84
	c0,0.1,0,0.2,0.1,0.2C120.9,84.3,120.6,83.8,120.4,84z M126.5,23.7c0.1,0.1,0.2,0.2,0.3,0.4C127.7,23.6,126.3,23.4,126.5,23.7z
	 M170,7.4c0.4-0.1,0.3-0.7-0.2-0.6C169.3,6.8,169.6,7.4,170,7.4z M312.7,107.5c-0.1,0.1-0.3,0.1-0.3,0.1
	C312.6,108.4,313.4,107.8,312.7,107.5z M154.2,25c0-0.1-0.1-0.2-0.2-0.2C153.4,24.6,153.3,25.3,154.2,25z M56.9,15.2
	c0.7,0.4,0.4,0.3,1.2,0.1C57.4,14.9,57.6,14.9,56.9,15.2z M31,100.5c0,0.2,0.4,0.2,0.4,0.1C31.6,100.3,30.9,100.2,31,100.5z
	 M191.8,91.7c-0.1,0.2,0.7,0.3,0.6,0C192.3,91.6,191.8,91.6,191.8,91.7z M103.2,6c-0.2,0-0.2,0.2,0.1,0.3C103.8,6.3,103.7,6,103.2,6
	z M546.2,116.7l-0.2,0C546,116.9,546,116.9,546.2,116.7z M571.6,43c-0.1,0.2,0.6,0.3,0.5,0C572.1,42.9,571.7,42.9,571.6,43z
	 M53.7,17.1l0,0.2C54.1,17.2,54.1,17.2,53.7,17.1z M464.2,117.8c-0.3,0.1-0.4,0.2,0,0.3C464.4,118,464.5,117.9,464.2,117.8z
	 M22.3,33.3l-0.2,0C22.2,33.4,22.1,33.4,22.3,33.3z M542.5,13.2l0-0.1C542.3,13.1,542.3,13,542.5,13.2z M542.9,113.3l0.2,0
	C543,113.1,543.1,113.1,542.9,113.3z M78.6,105.6l0,0.1C78.9,105.7,78.9,105.7,78.6,105.6z"/>
</symbol>
<symbol id="smear3" xmlns="http://www.w3.org/2000/svg" viewBox="0 0 540 107">
<path fill-rule="evenodd" clip-rule="evenodd" fill="#2AAE94" d="M517.466 79.4329C514.698 79.2201 511.908 79.5459 509.107 79.3876C507.826 79.3329 506.518 79.6824 505.453 80.296C502.988 81.7453 503.206 80.8529 500.547
 82.6559C500.745 82.4904 501.081 82.4029 497.63 83.4148C494.347 84.3695 498.829 
 86.0274 496.783 86.5264C492.927 87.4658 491.444 87.4421 491.246 89.3297C491.049
  91.2172 489.688 90.5991 464.335 91.7602C464.066 91.7657 464.044 92.3581 464.383
   92.4588C465.841 92.8866 469.328 91.9816 469.009 92.876C468.881 93.2015 468.038
    93.1918 467.264 93.2344C465.48 93.3514 464.501 93.2636 464.203 95.1801C463.995
	 96.5835 464.532 96.4381 466.694 96.717C468.383 96.9249 467.302 98.4536 465.995
	  98.8031C447.224 103.759 273.51 104.276 259.071 103.52C258.632 103.503 258.195
	   103.511 257.792 103.627C252.634 105.185 243.032 103.631 241.154 104.1C237.499
	    105.008 236.393 103.632 234.212 104.08C230.05 104.945 228.749 102.28 223.453
		 103.653C220.235 104.498 219.22 102.662 217.18 103.43C214.738 104.341 213.45
		  103.964 208.259 103.908C203.742 103.838 203.168 102.154 200.087 103.105C196.47
		   104.228 192.674 103.148 186.613 103.406C183.718 103.545 183.7 102.658 180.293 
		   102.512C179.855 102.494 104.782 99.7415 104.782 99.7415C72.0888 97.8768 77.8175
		    101.178 78.6276 101.242C100.693 102.515 101.845 101.147 102.557 103.016C103.02 
			104.217 100.455 104.054 98.9381 104.031C95.9036 103.958 96.6841 105.88 93.8887 
			105.963C90.7564 106.054 86.7325 105.382 77.7437 105.834C70.304 106.227 63.6281 
			106.067 42.8371 106.167C39.5684 106.18 32.2694 106.866 30.9212 105.198C27.7412 
			101.281 29.5205 100.948 30.5065 99.7176C30.9341 99.1977 30.3645 97.7024 29.6179 
			97.4485C27.5809 96.7096 25.1076 96.0603 23.7785 95.3339C22.62 94.7117 21.5492 
			95.0833 20.8602 94.3439C19.2745 92.6002 19.3452 92.7602 17.7422 91.8241C14.6385 90.0037 18.1189 
			88.8028 15.664 87.3997C14.6071 86.8024 13.7269 86.605 13.6051 85.585C13.288 83.2505 11.5369 83.313
			 11.409 81.9971C11.1615 79.7688 8.71241 76.9933 8.36298 76.3816C7.28043 74.5201 7.46943 73.8704
			  10.5417 67.5117C10.9942 66.5607 9.53144 65.8908 8.67179 65.0473C7.53772 63.9671 8.18521 62.6624 
			  6.78691 60.1884C6.6467 59.9222 6.70587 59.5174 6.80037 59.1926C7.40596 57.4851 7.23623 55.7665 
			  6.96598 54.0768C6.80718 52.8961 5.49451 52.9766 4.71098 52.562C2.83855 51.6314 4.22768 50.3385 
			  4.3422 49.3406C4.62821 46.8324 1.63342 47.0547 3.22521 45.7846C4.55188 44.7352 4.79097 44.8918 
			  5.97852 43.6299C8.28681 41.1344 5.15727 41.3595 5.30089 38.4775C5.32145 37.8313 6.67197 36.297 
			  4.29589 35.4574C2.12357 34.6943 1.22313 33.5018 1.25769 31.8866C1.27367 29.357 0.0245503 29.2478
			   1.88835 26.4385C3.29422 24.3111 2.84536 23.7821 4.2416 22.8389C6.43646 21.3951 4.75993 18.4962 
			   11.6534 16.0959C16.1709 14.5242 18.7426 15.0369 20.8857 12.7063C21.4795 12.0753 22.1549 12.1423 
			   28.7251 10.4212C33.8539 9.07922 33.3352 10.0853 38.9216 9.70271C45.2481 9.25122 49.1393 8.3649 
			   53.5562 10.1317C57.3619 11.6688 59.2649 9.12775 60.7117 9.01761C65.3881 8.62657 69.6515 7.81341
			    71.1057 9.72119C72.0056 10.8868 73.4158 8.97464 73.5369 8.29949C74.1466 5.13893 75.8978 5.07642
				 76.1496 2.54201C76.2918 1.24756 77.6337 0.951211 78.8062 0.60449C79.7108 0.343935 81.8201 1.32354 
				 79.7496 2.25357C76.4774 3.74618 75.1396 7.56732 76.4344 8.2675C79.7745 10.11 79.5138 10.5458 88.0016 
				 10.3195C89.2143 10.2949 90.7746 9.13302 92.859 10.5437C95.2509 12.1633 96.8578 9.97804 98.1749 10.1127C100.742 
				 10.3834 103.328 9.98105 105.897 10.3325C106.742 10.4498 107.617 10.4051 108.457 10.3073C109.567 10.1771 110.522
				  10.7228 111.633 10.6733C112.474 10.6293 113.348 10.5039 114.192 10.5675C115.002 10.6317 115.688 11.2097 116.626
				   10.9754C117.766 10.6831 118.688 11.2564 119.736 11.4234C120.581 11.5677 121.457 11.523 122.269 11.7217C123.116 
				   11.9198 123.861 12.1199 124.733 11.8869C130.298 10.4284 130.853 11.2512 133.617 11.2489C133.987 11.2414 134.397 
				   11.5021 134.771 11.656C135.723 12.094 136.804 12.2066 137.882 12.1847C143.071 12.133 142.204 10.9398 144.774 11.345C150.792
				    12.299 283.667 13.7686 284.038 13.7611C291.316 13.6939 293.978 15.3618 300.736 14.5787C301.375 14.5119 302.048 14.4444 
					302.655 14.4859C307.211 14.7969 311.683 14.2755 316.191 13.8879C316.191 13.8879 327.183 14.2026 332.979 14.1924C370.791 
					14.2041 397.388 12.8831 406.552 14.4458C408.547 14.782 410.367 14.7988 434.325 14.6347C436.043 14.6267 464.021 16.5873 
					463.942 17.6921C463.917 18.1231 460.279 18.1971 456.967 17.7262C454.905 17.4453 418.511 17.5393 418.21 17.6261C416.936 
					17.9749 417.391 18.8267 418.204 18.9985C423.078 20.0296 432.67 19.431 435.545 19.9645C439.672 20.7147 447.102 19.8641 
					456.119 20.784C477.698 22.9823 468.45 20.6141 478.345 23.292C478.955 23.468 479.599 23.6433 480.205 23.6309C483.507 
					23.5907 486.527 24.6325 489.735 24.944C491.289 25.1008 492.056 26.3768 494.353 26.6261C495.501 26.7642 522.62 31.2446
					 522.755 31.2688C524.786 31.7118 523.506 33.4061 526.793 34.2541C537.939 37.1488 535.615 35.5547 539.596 37.4649C539.971
					  37.6457 540.012 38.0215 539.375 38.1959C538.068 38.5454 538.672 38.3986 526.737 36.5155C519.84 35.4179 520.697 37.7684
					   521.647 38.0989C523.683 38.784 524.691 38.6289 525.057 40.0476C525.488 39.7159 524.126 40.6854 523.126 41.2439C521.726
					    41.9988 517.303 41.5775 515.576 41.1552C514.966 41.0061 514.325 40.9653 513.689 41.1935C514.008 41.9673 514.98 41.7054
						 515.593 42.0159C517.806 43.101 520.083 42.382 520.167 43.2144C520.253 44.1006 517.984 43.5548 517.939 44.6858C517.93 45.8968 519.837
						  45.2123 523.506 46.6714C527.651 48.3093 527.174 49.7181 530.678 49.6738C531.015 49.667 532.973 49.8155 533.362 50.7494C534.85 54.3247 
						  534.649 54.3557 534.146 54.5005C531.7 55.196 529.303 53.3343 526.816 55.2953C526.219 55.7648 525.817 57.5489 529.062 58.048C531.26 58.38
						   540.756 61.3351 532.051 60.8394C529.318 60.6797 529.012 62.2196 526.617 62.1069C520.883 61.8467 521.486 61.673 520.352 62.2611C520.119
						    62.4004 520.063 62.9397 520.403 63.1211C523.265 64.6505 527.693 63.6187 526.148 65.5606C523.06 69.4711 523.74 68.1119 514.926 68.883C512.975
							 69.0572 515.198 72.3216 519.124 73.1298C523.151 73.9628 524.046 73.2181 527.144 74.7427C527.518 74.9234 527.57 75.8103 526.729 75.8812C518.489 
							 76.7214 518.968 75.3932 514.593 75.6974C513.583 75.7717 513.233 76.7475 514.217 77.1042C518.223 78.5565 517.761 77.355 520.147 78.7057C520.986
							  78.5272 519.288 79.5573 517.466 79.4329ZM458.9 92.9201C457.543 92.4902 456.95 93.175 457.29 93.3026C458.375 93.6572 459.408 93.0712 458.9 92.9201Z"/>
</symbol>
<symbol
 id="smear4" viewBox="0 0 584 116.8" xmlns="http://www.w3.org/2000/svg">
<path fill-rule="evenodd" clip-rule="evenodd" fill="#2AAE94" d="M392.3,115.5c-30.8,2.9-58.9-7-82.4,1.3c-23-3.9-4.3-5.3-8.4-8.6c-6.4-0.4-2.7,5.2-5.3,0.4
	c-0.5-1.3-9.4,1.3-8.6,2.1c9.3,2.7-3.3,7.8-3.2,1.9c-5.1-2.6,1.8,4.4-9.1,1.5c-1.7,5-14.1-1.9-22.3,1.5c-4.3-2.2,1.1-11-9.2-5.9
	c-0.4,0.9-1,2.1,0.7,1.1c-0.5-1.2-1.7-1.5,2.1-0.5c1.7,5.4-1.3,4.4-5.1,2.1c-4.3,8.6-15.1-2.8-21.7,3.2c-10.2-1.3,0.8-2.3-7.3-1.5
	c-3.3-1.1,7.4-6.5,3-6.8c-8.6-3.5-11.2,11-18.4,5.4c-3.2-0.5-0.2-11.2-7.7-6c-7.4,1.3,3.4,4.7-5.8,3.9c-4.1,8-1.4-4.2-7.8-2
	c-5.2,11.5-20.4,4.6-21.1-4.9c-7.3,1.7,1.2,10.1-8.7,8.8c-8.5-3.6-3,0.5-8.2-0.4c-0.6-6.1-7.8,2-11-1.3c-5.6-4.2-11.1,4.5-15-2.9
	c-11.8,9.2-8-6.9-19.9,2.8c-5.2-5.3-14.1,3.8-14.4-3.9c-10.1-2.5-2.6,6.3-11.5-0.1c-2.8,2.6-3.3-1.2-6.6,1.3
	c-4.4-1.7-48.4,4.7-42.9,0.2c14.5-2.9-3.1-0.6-2.6-2.2c-2.2-0.9-5-0.4,1.1-2.6c8.4-7.5,9.4-3.2,14.3-6.1c-9-2.5,5.7-2.4,5.4-4.3
	c-0.8-2.3-9.5,1-10.4-1c-0.8-1.9-3.1-1.9-4.8-1.1c-4.9,1.3,3,4.6-6,5.2C10.7,86,29.5,80.7,41.3,72c-14.7-1.7-25.9-0.9-40.1,0.4
	C-6.5,69,25.6,50.2,27.2,61c10.2-0.4-10.1-9.9-12-10.3C-7.4,41,22.3,45,36.8,39c-10-0.1-4.4-6.7-0.5-1.7c6.4-1,0.3-7.8-3.7-8
	c-4.8-0.4-2,7-5.1,5.4c-8.7-17.1,37.6-8.5,48.6-13.5C-99,4.8,232.5,12.5,239.7,0c-1.5,1.5-5.9,2.6-1.8,2.5c5.7,13.4,12,4.8,22.6,2.3
	C257,25,269.7,1,274.3,6.7c2.9,0.5,2.3-6.5,6.6-6.1c0.5,2.2,7.4,1.4,0.1,2.1c-5.4,7.7-0.6,2.8-5.2,6.4c6.8,7.2,8.4-9.6,15-6.3
	c-0.3,24,12.6-14.3,16.1,2.3c6.2,6.1,1-4,7.9-4.4c7.2,5.4,13.3,1,19.6,3.8c12.6,12.3,8.8-3.6,15.3-0.7c5.3,3.3,19.5-2.2,19.3,4.4
	c7.2,0.3,0.6-3.9,13.3-4.4c13.4-1.3,3.5,0.5,6.8,3.8c7.9-2.1,14.9-4.7,24.9-3.1c2.2,4.6,119.9-5.3,97.9,14.8c-2.2,1,2.9,2.7,4.1,0.8
	c2.9-4.6,2.2-3.3,5.6-2.5c-4.5-3.6,3.5-6.3,8.6-4.4c0.8,6.4,6.4,0.3,8.8,1.2c2.4,10-1.6,3.3,9.1,6c-2.5,3.6,5.6,6.3,3.8,3.1
	c-1.4-1.4,3.3,0.1,2.6-1.3c-1.5-0.9-0.1-0.9,2.7-1.6c-0.4,4.8-0.8,3.2,3.8,6.5c-12.7,2.3-2.1,3.2,4.2,4.4
	c-15.5,2.9,1.2,7.4,6.9,11.5c9.5-3.9-4.3,6.2,1.7,7.4c1.4,3-17.2,1.2-7.7,4.2c5.4,1.8-2.6,2.5,1.6,3.2c7.1,2-11.3,0-12.5,1.8
	c1,2.1,1.5,0.9-0.2,2.1c-1,4.6,15.3-4.4,12.5,0.2c8.5,0.6-5.7,6.3,2.1,7.5c5.3,1.9-5,1.2-5.3,1.7c1.3,1.4,10,1.1,5,2.8
	c-1.9,1.4,10.5,2.4,4.2,4c-17,2.4,16.9,5.4,9.2,6.9c-23.5-0.3-26.5-0.8-20.7,3.6C527.4,124.6,449.8,116.1,392.3,115.5z M406.9,8.2
	c-0.2-0.4,1,0,0.4-0.3C406.8,8.2,406.4,8.2,406.9,8.2z M555.9,50.7c1,0.8-1.5,0.3-0.2,0C556.8,50.6,555.5,51.2,555.9,50.7z
	 M332.7,16.9c1.2,0-1.1,0.1-1.6,0.6C329.3,18.3,334.6,20.1,332.7,16.9z M317.5,6.2c8,0.6-0.4-1.3-3.4-0.3c0.1,2.6-1.9,4.3,0.2,4.1
	C320.2,9.4,314.4,8.7,317.5,6.2z M219.3,13.3C221.6,11.6,218.2,10.6,219.3,13.3c-8.8-0.5-5.3-1.6-7.9,0.1c1.8,2.2,11.7,10.7,8.9,3.6
	C218.9,16,217,13.2,219.3,13.3z M39.3,62.1c11.2-1.3,0.1-5.6-3.1-2.6C26.3,63.6,34.2,69.4,39.3,62.1z M40.3,31.5
	c3.6,4.2,2.2-1.1,5.3-2.7c0.7-2.4,6.5-2.9-2.1-3.6C36.7,25,42.1,29.2,40.3,31.5z M28.1,63.6c0.1-1.5-2.1-1.1-2.7-0.5
	C11,59.8,26.8,70.1,28.1,63.6z M341.4,9.6c-5.3-2.6-6.8,9.1-1.2,3.9C339.1,11.2,343.7,13.3,341.4,9.6z M47.6,37.1
	c-1,4.5,5.4-0.6,4-3.3C42.3,31.6,50.8,35.9,47.6,37.1z M359.9,8.7c-0.2,4.4,3.6,1.1,5.2-0.3C370.8,7.5,359.5,6.1,359.9,8.7z
	 M479.6,8.2c-4.4,1-2.6,2.5-1.2,2.5C487.4,10.8,482.4,7.5,479.6,8.2z M512.6,17.6c6.1-4.8-12.1-3.4-3.3-0.6
	C510.2,17.2,511.2,17.4,512.6,17.6z M463.1,10.3c10,1.6,4.3-4,0.7-1.8C462.8,9.1,461.8,9.9,463.1,10.3z M258.7,109
	c-1.6,0.5-3.9,2.4-2.3,2.5C261.5,112.5,263.7,108.5,258.7,109z M168.8,111.5c1.5,0.3,3.5-3.3,3.3-4.1
	C170.2,105.3,166.6,110.8,168.8,111.5z M140.8,109.4c1.8-0.1,2.4-0.4,2.4-1.3C143.5,102.8,135.7,109.8,140.8,109.4z M499.3,12.5
	c0.7,1,3.1,0.9,3.6,0.2C505.4,9.4,497.2,9.7,499.3,12.5z M522.9,25.6c0.1,0.7,5.1-0.3,2.1-3.2C524.7,22.1,522.2,21.5,522.9,25.6z
	 M125.4,107.8c3.6-0.9,2.4-3.6-0.4-3.2C121.1,105.1,123.8,106.6,125.4,107.8z M238.7,18.8c3.9,0.8-0.7-1.8,1.3-2.9
	C239.4,13.8,234.5,18.2,238.7,18.8z M378.1,6.8c-1,0.8-0.1,2.1,1.8,1.9C385.5,8,379.6,5.7,378.1,6.8z M8.3,66.7c0.5,0.8,3.8,0.2,3-1
	C10.1,63.6,6.6,64.5,8.3,66.7z M68.7,103.1c1.7-1.7-4.9-2.1-3.5-0.2C66.2,104.3,67.1,104.7,68.7,103.1z M349.1,28.3
	c-0.3,1.3,2.1,2.5,3,1.6C353.9,28,350.1,26.4,349.1,28.3z M224.6,107.5c-0.7,0.4-2.6,1.1-0.8,1.5C229.9,109.5,227,106.5,224.6,107.5
	z M555,69.6c-0.6,0.1-0.8,0.7-0.1,0.9C558.9,71.8,562.4,68.6,555,69.6z M461.6,14c1.6,1.1,4.1,0.4,4-0.2
	C465.4,12.6,460.5,13.2,461.6,14z M270.6,112.7c-1.1-2.6-1.1-2.8-2.7-2.3C267.4,111.5,269.6,114,270.6,112.7z M561.2,41.4
	c-0.7,0.5-1.2,1.7,0,2.1C562.9,44,564.5,40.1,561.2,41.4z M146.9,107.4c-1.5,1,0.8,2.2,1.9,1.5C151.8,107,147.5,107,146.9,107.4z
	 M518.6,21.6c0.2,0.1,1.1,0.4,1.3,0C521.8,19.2,516,19.4,518.6,21.6z M171.5,10.3c0.7-0.9-1-1.7-2.5-1.3
	C167.3,9.3,170.8,11.2,171.5,10.3z M504.7,23.4c0.2,0.3,1.6,0.6,2.2-1C507.3,21.5,502.7,20.7,504.7,23.4z M229.8,110.2
	c0.4,0.9,2.2,1,2.8,0.3C233.8,109.2,229.3,108.8,229.8,110.2z M500.6,109.7c-0.8,0.9,1,1.6,1.8,1.4
	C504.5,110.2,501.6,108.6,500.6,109.7z M525.3,27.4c-0.4,0-0.9,0-1.1,0.1C520.1,30.5,529.7,28.9,525.3,27.4z M47.8,30.9
	c-0.4-0.1-1.5,0.1-1.6,0.6C46,32.8,51,32.4,47.8,30.9z M440.8,7.7c-1,0.9,2.4,1.4,2.7,0.6C443.8,7.5,441.4,7.2,440.8,7.7z
	 M524.4,18.6c-0.1,0.7,1.7,0.9,2.3,0.1C527.5,17.4,524.7,15.9,524.4,18.6z M269.9,108.3c0.1,0.9,2.9,0.6,2.8-0.1
	C272.5,107.2,269.8,107.1,269.9,108.3z M304.6,8.3c1.9,0.4,3.1-0.7,2.1-0.9C304.3,6.9,302.5,7.9,304.6,8.3z M552.8,34
	c0.5,0.2,1.6-0.1,1.8-0.5C555.9,31,550.4,33.2,552.8,34z M185.9,14.5c0.7,0.2,0.3,0.3,0.2,0.5C185.3,18.1,192,16.1,185.9,14.5z
	 M354.2,20.7c-0.5,0.5,1.3,1.7,2.6,0.7C357.4,20.9,355.2,19.7,354.2,20.7z M355.4,18.5c0.3,0,1.1-0.2,0.9-0.6
	C355.2,16.2,350,18,355.4,18.5z M87.9,104.4c-0.8,0.5,3.5,1.4,3.6,0.1C90.4,103.8,88,103.6,87.9,104.4z M488,18.1
	c-0.6,0-1.5,0.4-1.5,0.7C486.9,20.6,492.1,18.7,488,18.1z M488.2,12.3c-0.9,1.5,3.2,1.1,2.9,0.1C491.2,11.8,489.5,11.5,488.2,12.3z
	 M325.1,111.3c0,1.9,0.7,2.1,2.7-0.1C328.4,110.5,325.2,110.2,325.1,111.3z M203.8,7.4c0.2,0.9,2.9,0.9,2.9-0.1
	C206.6,6.4,203.5,6.4,203.8,7.4z M513.7,24.6c0.4-0.8-1.9-0.9-2.1-0.4C510.7,26.2,513.1,25.6,513.7,24.6z M42,65.6
	c0.7-0.1,0.7-0.9,0.4-1.1C40.2,63.2,39.6,66.1,42,65.6z M72.3,103.9c0,0.7,1.7,0.7,1.9,0.4C75.2,102.9,72.4,102.6,72.3,103.9z
	 M165.5,106.9c1.4-0.7-0.7-1.6-1.4-1.1C163.1,106.7,164.5,107.4,165.5,106.9z M531.4,18.3c0.9,0.7,3.5,0.2,2.6-0.4
	C532.9,17.2,530.6,17.7,531.4,18.3z M545.6,28.3c0.2,0.8,1.8,0.9,2.4,0.2C548.9,27.4,545.1,26.9,545.6,28.3z M365.8,15.9
	c0.6,0.8,3.4,0.7,2.2-0.7C367,14.6,366.3,15.1,365.8,15.9z M569.6,44c-0.3,0.5,2.5,1.3,2.4,0.4C572.1,43.6,569.9,43.6,569.6,44z
	 M268.7,14.1c-3.1,1.3,1.8,1.9,1.4,0.6C269.8,14.5,269.2,14.3,268.7,14.1z M427.9,16.5c-0.6-0.1-1,0.9,0.3,1.1
	C429.1,17.7,430,16.8,427.9,16.5z M55.6,30.3c-0.5,0.9,1.7,1.1,2.4,0.7C58.9,30.5,55.9,29.8,55.6,30.3z M366.1,11.3
	c-1.2,0.4-0.1,1.2,1.2,0.7C368.1,11.8,367,11.1,366.1,11.3z M385.3,6c0.3-0.5-1.2-1-1.9-0.2C382.9,6.3,384.9,6.8,385.3,6z
	 M516.6,25.2c0.1,0.2,0.2,0.4,0.4,0.5C518.6,25.9,518.4,24.3,516.6,25.2z M278.2,110.6c1.8-0.1,0.8-1.2-0.4-1
	C276.7,109.8,277.1,110.6,278.2,110.6z M550.6,27.7c-0.7,0.9,1.8,1,1.9,0.5C552.4,27.2,551.5,27.1,550.6,27.7z M309.1,14.5
	c1.3-0.4,0.1-1-0.7-0.9C307.4,13.8,308.2,14.8,309.1,14.5z M507.1,11.2c-0.9,1,2.1,0.9,1.9,0.6C508.7,11.2,507.5,10.7,507.1,11.2z
	 M555.7,79.1c0.3,0.1,0.7,0.2,1,0.2C558.7,79.4,557.2,77.8,555.7,79.1z M46.8,60.9c-0.3,0.1-0.8,0-1,0.2
	C45.1,61.5,48.3,62.2,46.8,60.9z M165,108.8c-0.6,0-1.3,0.2-1.2,0.5C164.1,109.9,166.5,109.6,165,108.8z M323.3,110.7
	c-0.6-0.2-2,0.3-0.6,0.8C323.5,111.8,324.4,111.1,323.3,110.7z M43.9,67.7c-1.5,0.8,1.8,0.7,1.8,0.2C45.2,67.6,44.6,67.5,43.9,67.7z
	 M366.4,22.5c2.2-1.1-0.8-1.1-0.7-0.5C365.8,22.1,366.1,22.3,366.4,22.5z M44,70.3c-1.2,0-1-0.1-1,0.2C44.1,70.5,44,70.6,44,70.3z
	 M159.1,108.4c0.4,0.7,2.5-0.3,1.1-0.5C159.3,107.9,158.9,108,159.1,108.4z M567.2,49.5c0.4,0.1,1.1-0.2,1.2-0.5
	C568.3,48.2,565.6,48.8,567.2,49.5z M561.4,51.6c1.9,0.4,1.6-0.9,0.8-0.8C561.1,50.8,560.5,51.4,561.4,51.6z M553.9,88.6
	c0.3,0.5,1.8,0.1,1.6-0.2C555.3,87.9,553.6,88,553.9,88.6z M551.5,50.6c0.6-0.4-1.3-0.6-1.6-0.2C550.5,50.7,550.5,50.8,551.5,50.6z
	 M539.4,27.1c0.2,0.1,0.4,0.4,0.6,0.4C542.3,27.6,540.2,26.2,539.4,27.1z M271.4,113.8c-0.3,0.1-0.8,0.1-0.9,0.2
	C269.9,114.9,273.6,115.1,271.4,113.8z M309,16.4c0.2,0.2,0.2,0.4,0.5,0.4C310.8,17,311,15.5,309,16.4z M360.4,12.9
	c-0.6,0.2-1.1,0.3-0.4,0.8C360.8,13.9,361.4,13.1,360.4,12.9z M21.2,51.4c0-0.5-1.9-0.1-1.3,0C20.4,51.5,21.1,51.6,21.2,51.4z
	 M22.7,70c0.7,0.1,0.5,0.1,0.7-0.1C22.7,69.8,22.9,69.8,22.7,70z M115.8,107.2c0.1,0.3,0.2,0.4,0.6,0.2
	C116.5,107.1,115.9,107.2,115.8,107.2z M141.1,9.1c0.5-0.2,0.4-0.1,0.1-0.6C140.5,8.8,140.5,8.7,141.1,9.1z M154.9,101.8
	c0-0.1-0.2-0.3-0.2-0.3C152.7,101.9,154.7,102.3,154.9,101.8z M198.4,110l-0.1,0.2C199,110.1,199,110.2,198.4,110z M201.1,112.2
	c0.3,0.4,0.6,0,1-0.2C201.4,111.9,201.2,111.7,201.1,112.2z M201,110.3c0.5,0.7,1.9-0.1,0.7-0.2C201.5,109.9,201.2,110.1,201,110.3z
	 M451.7,8.1c1,0.4,0.5,0.4,1.7,0.1C452.3,7.8,452.8,7.8,451.7,8.1z M566,79.5c-2.3,0.2-0.2,1.2,0.8,0.4
	C566.5,79.8,566.2,79.6,566,79.5z M564.6,43.3c-0.7,0.9,0.9,1,0.4,0L564.6,43.3z M402.7,26c0.6-0.4-0.6-0.5-0.6-0.2
	C402.1,26,402.6,26.1,402.7,26z M384.4,27.9c0.4-0.2-0.2-0.7-0.6-0.2C383.7,27.8,384.2,28,384.4,27.9z M366.6,9.2
	c-0.3,0.1-0.6,0.2-0.9,0.3C366.5,9.9,367.2,9.7,366.6,9.2z M353.5,12.2l0.5,0.1C354,12.1,354.1,12.1,353.5,12.2z M349.5,19.6
	c0.5-0.2,0.5-0.1,0.1-0.7C348.8,19.3,348.8,19.2,349.5,19.6z M546.9,30.6c0.4,0.5,2.3,0.1,0.4-0.2C547.3,30.3,547.1,30.5,546.9,30.6
	z M265,109.7c0.6,0.2,1.1-0.2,0.3-0.3C265.1,109.5,264.7,109.6,265,109.7z M261.9,113.1c-0.6,0.4,0,0.6,0.8,0.2
	C262.5,113.2,262.2,113.1,261.9,113.1z M533.8,24.3c-0.4,0.3-0.4,0.2-0.1,0.4C534.2,24.6,534.2,24.7,533.8,24.3z M257.6,107
	c0.7,0.2,0.8-0.2,0.1-0.2C257.6,106.9,257.6,107,257.6,107z M240.9,12.6c0.2,0.1,0.6-0.1,0.4-0.4C240.9,11.7,239.7,12.3,240.9,12.6z
	 M191.5,10.6c-0.4,0.2-0.4,0.1-0.1,0.4C191.9,10.7,191.9,10.7,191.5,10.6z M49.8,29l0.3,0C50,28.8,50.1,28.8,49.8,29z M561,56
	c-0.5,0.2-0.4,0.1-0.1,0.4C561.5,56.2,561.5,56.3,561,56z M365.2,13.1l-0.1,0.2C365.6,13.2,365.6,13.2,365.2,13.1z M311.4,110
	l-0.1,0.2C311.7,110.1,311.7,110.1,311.4,110z M553.1,30.7l0.1-0.2C552.6,30.6,552.6,30.5,553.1,30.7z M537.1,47.8l0.1-0.2
	C536.8,47.7,536.8,47.6,537.1,47.8z M250.6,14.6c0.7-0.1,0.1-0.5-0.3-0.3C250.1,14.5,250.5,14.7,250.6,14.6z M247.9,14.5
	c0.4,0.3,0.2,0.2,0.7,0C248.2,14.3,248.4,14.3,247.9,14.5z"/>
</symbol>
</svg>