<?xml version="1.0" encoding="utf-8"?>
<!-- Generator: Adobe Illustrator 24.1.1, SVG Export Plug-In . SVG Version: 6.00 Build 0)  -->
<svg version="1.1" id="Слой_1" xmlns="http://www.w3.org/2000/svg" xmlns:xlink="http://www.w3.org/1999/xlink" x="0px" y="0px"
	 viewBox="0 0 1567.1 464" enable-background="new 0 0 1567.1 464" xml:space="preserve">
<g>
	<rect x="3" y="3" fill="#FFA500" width="778.5" height="458"/>
	<path fill="#2A2960" d="M778.5,6v452H6V6H778.5 M784.5,0h-6H6H0v6v452v6h6h772.5h6v-6V6V0L784.5,0z"/>
</g>
<path fill="#2A2960" d="M778.5,152.5c0,44.7-25.2,84-63.2,106.6c-8.1,4.9-16.9,8.9-26.1,12.1c-15.3,5.3-31.9,8.3-49.2,8.3
	c-43.9,0-83-18.7-108.3-47.9c-7.4-8.5-13.7-18-18.5-28.1c-0.5-1-0.9-1.9-1.3-2.9c0.5,0.8,1,1.7,1.5,2.5c0.6,0.9,1.2,1.8,1.8,2.6
	c1.1,1.5,2.3,3,3.5,4.4l0,0c1.6,2,3.3,4,5,5.8c10.9,11.5,25.2,19.7,41.3,23.1c5.3,1.1,10.8,1.7,16.3,1.7c28.9,0,54.3-15.5,68.2-38.6
	v0c7.2-12,11.4-26,11.4-41c0-28.1-14.6-52.9-36.7-67c0,0,0,0,0,0c-9.8-5-20.1-8.9-30.8-11.6c0,0,0,0,0,0c-11.7-3-23.8-4.5-36.3-4.5
	c-10.9,0-21.5,1.2-31.8,3.5c-72.3,16-126.8,85.4-126.8,168.7c0,65.9,34,123.1,84,152c2,1.2,4,2.3,6.1,3.4
	c10.3,5.3,21.1,9.5,32.4,12.4h0c7.7,2.8,15.3,4.7,22.9,5.9c1.2,0.2,2.4,0.4,3.5,0.5c2.7,0.6,5.4,0.9,8.3,0.9c0.7,0,1.5,0,2.2-0.1
	c16.4,0.6,31.4-2.7,43.4-9.7c0,0,0,0,0,0c0,0,0,0,0,0c1.6-0.9,3.1-1.9,4.5-2.9h0c5.9-4.2,10.9-9.4,14.6-15.6c0,0,0,0,0,0
	c0,0,0.1-0.1,0.1-0.1c1-1.6,1.9-3.3,2.7-5.1c0,0,0-0.1,0-0.1c2.2-4.9,3.7-10.1,4.3-15.5c0.6,3.7,0.9,7.5,0.9,11.4
	c0,6-0.8,11.9-2.2,17.5c-0.3,1-0.5,2.1-0.9,3.1l0,0c-1.3,4.4-3.1,8.6-5.2,12.6c-12.2,23.1-36.7,37.2-62.8,37.2H186.6
	c1.6-0.2,3.3-0.4,5.9-0.8c2.9-0.4,5.5-1,8.4-1.6c9-2.5,27.8-7,33.8-20.5c5.3-12.5-7-22.1,0-38.1c4.7-11.7,15.2-16.2,13.5-24.2
	c-1.8-6.5-10-8.2-10-12.5c1-5.3,10.8-4.5,15.3-11.7c6.4-10-6.5-20.5-1-29.5c5.7-10.8,24.2-3.5,30.5-12.5c3.5-6.5,0-14.3-17.8-50
	c-16.2-32.8-18-35.6-18-41c2.7-44.8,29.5-43.8,8.2-108.1C249.9,85.7,222.8,27.5,178.2,6H588c51.3,0,98.6,17.1,136.5,45.9
	c0,0,0.1,0.1,0.1,0.1c6,4.5,11.7,9.3,17.1,14.4C764.6,89,778.5,119.3,778.5,152.5z"/>
<linearGradient id="SVGID_1_" gradientUnits="userSpaceOnUse" x1="355.2999" y1="269.1617" x2="726.2565" y2="200.7764">
	<stop  offset="0" style="stop-color:#FFFFFF;stop-opacity:0"/>
	<stop  offset="2.070570e-02" style="stop-color:#F6F6F8;stop-opacity:2.183294e-02"/>
	<stop  offset="0.1562" style="stop-color:#C1C0D0;stop-opacity:0.1647"/>
	<stop  offset="0.293" style="stop-color:#9292AE;stop-opacity:0.3089"/>
	<stop  offset="0.4286" style="stop-color:#6D6C92;stop-opacity:0.452"/>
	<stop  offset="0.5628" style="stop-color:#504F7C;stop-opacity:0.5935"/>
	<stop  offset="0.6951" style="stop-color:#3B3A6C;stop-opacity:0.733"/>
	<stop  offset="0.8247" style="stop-color:#2E2D63;stop-opacity:0.8696"/>
	<stop  offset="0.9484" style="stop-color:#2A2960"/>
</linearGradient>
<path fill="url(#SVGID_1_)" d="M660.8,161.2c0,15-4.1,29-11.4,41v0c-13.9,23.1-39.2,38.5-68.2,38.5c-5.6,0-11.1-0.6-16.3-1.7
	c-16.1-3.4-30.4-11.6-41.3-23.1c-0.1-0.3-0.3-0.7-0.4-1c3.2,3,6.8,5.6,10.5,7.7c1.2,0.7,2.4,1.3,3.6,1.9c7.8,3.8,16.3,5.9,24.9,6.2
	c8.9,0.3,17.8-1.4,26.2-5.1c0,0,0,0,0.1,0c7.3-2.8,14.3-7.8,20.2-14.6c0,0,0.1-0.1,0.1-0.1c0,0,0,0,0.1-0.1
	c12.5-13.8,17.6-32.6,14.6-50.5c-1.5-8.8-5-17.3-10.5-25c-4.1-5.7-9-10.4-14.4-14.2h0c-0.8-0.6-1.7-1.1-2.5-1.7
	c-0.1,0-0.1-0.1-0.2-0.1c-2.7-1.7-5.5-3.1-8.4-4.3c-6.2-2.8-12.8-4.8-19.6-5.8c-59.7-9.5-119.1,51.9-132.7,137.2
	c-10.5,66.3,9.7,127.4,47.2,155.9c-50-29-84-86.2-84-152c0-83.3,54.5-152.8,126.8-168.7c10.3-2.3,20.9-3.5,31.8-3.5
	c12.5,0,24.6,1.6,36.3,4.5c0,0,0,0,0,0c10.7,2.7,21,6.6,30.8,11.6c0,0,0,0,0,0C646.2,108.3,660.8,133,660.8,161.2z"/>
<linearGradient id="SVGID_2_" gradientUnits="userSpaceOnUse" x1="534.5696" y1="414.3449" x2="604.413" y2="122.4143">
	<stop  offset="0" style="stop-color:#FFFFFF;stop-opacity:0"/>
	<stop  offset="9.855020e-02" style="stop-color:#DDDDE5;stop-opacity:9.855020e-02"/>
	<stop  offset="0.2711" style="stop-color:#A7A7BD;stop-opacity:0.2711"/>
	<stop  offset="0.4397" style="stop-color:#7A7A9C;stop-opacity:0.4397"/>
	<stop  offset="0.6005" style="stop-color:#575782;stop-opacity:0.6005"/>
	<stop  offset="0.7515" style="stop-color:#3E3D6F;stop-opacity:0.7515"/>
	<stop  offset="0.8888" style="stop-color:#2F2E64;stop-opacity:0.8888"/>
	<stop  offset="1" style="stop-color:#2A2960"/>
</linearGradient>
<path fill="url(#SVGID_2_)" d="M621.1,185.1c1.9-11.9-1.3-23.1-9.6-29.7c-10.2-8.1-25.3-7.2-38.4,1c0,0-0.1,0-0.1,0.1c0,0,0,0,0,0
	c0,0,0,0,0,0c-4.9,3.1-9.6,7.2-13.6,12.3c-0.6,0.8-1.2,1.5-1.7,2.3c-9.9,12.5-18.2,29.9-23.8,51.6c-3.7-2.2-7.3-4.7-10.5-7.7
	c-1.6-1.5-3.2-3.1-4.7-4.8l0,0c-1.9-2.4-3.6-4.8-5.1-7.4c-1.1-1.8-2.1-3.6-3.1-5.4c0.4,1.1,0.9,2.2,1.4,3.3c0,0,0,0,0,0
	c0.4,1,0.9,1.9,1.3,2.9c4.8,10.1,11.1,19.5,18.5,28.1c-13.8,65.1,1.4,140.3,35,170.2c0.6,0.6,1.3,1.1,1.9,1.6c0,0,0,0,0,0
	c2.8,2.6,6,4.8,9.6,6.3c0,0,0,0,0.1,0c4.2,1.8,8.8,2.8,13.6,2.8c12,0,22.5-6.2,28.6-15.5c-3.8,6.2-8.7,11.4-14.6,15.6h0
	c-1.5,1-3,2-4.5,2.9c0,0,0,0,0,0c0,0,0,0,0,0c-12,6.9-27.1,10.2-43.4,9.7c-0.7,0-1.5,0.1-2.2,0.1c-2.8,0-5.6-0.3-8.3-0.9
	c-1.2-0.1-2.4-0.3-3.5-0.5c-1.4-0.7-2.8-1.4-4.1-2.2c0,0,0,0-0.1,0c0,0,0,0,0,0c-2.9-1.6-5.6-3.4-8.3-5.4c0,0,0,0-0.1-0.1
	c-35.6-27.2-53.3-90.4-40.5-158.9c7.7-41.5,25.2-77.1,47.3-101.6c0.1-0.1,0.2-0.2,0.3-0.3c2.7-3.2,5.5-6,8.5-8.6
	c19.9-17.1,45.6-21.1,62-8c6.4,5.1,10.5,12,12.6,20C623.6,166.8,623.4,175.9,621.1,185.1z"/>
<linearGradient id="SVGID_3_" gradientUnits="userSpaceOnUse" x1="461.411" y1="409.8232" x2="569.3935" y2="101.8891">
	<stop  offset="0" style="stop-color:#FFFFFF;stop-opacity:0"/>
	<stop  offset="0.3506" style="stop-color:#AAA9BF;stop-opacity:0.3506"/>
	<stop  offset="0.6626" style="stop-color:#65648C;stop-opacity:0.6626"/>
	<stop  offset="0.8863" style="stop-color:#3A396C;stop-opacity:0.8863"/>
	<stop  offset="1" style="stop-color:#2A2960"/>
</linearGradient>
<path fill="url(#SVGID_3_)" d="M621.1,185.1c2.3-9.2,2.4-18.3,0.4-26.4c-2-8-6.2-15-12.6-20c-16.5-13.1-42.1-9.2-62,8
	c-3,2.6-5.9,5.5-8.5,8.6c-0.1,0.1-0.2,0.2-0.3,0.3c-22.2,24.5-39.6,60.2-47.3,101.6c-12.7,68.4,4.9,131.7,40.5,158.9
	c0,0,0.1,0,0.1,0.1c2.5,2.2,5.3,4,8.3,5.4c0,0,0,0,0,0c0,0,0,0,0.1,0c1.4,0.8,2.8,1.5,4.1,2.2c-7.5-1.2-15.2-3.2-22.9-5.9h0
	c-11.3-2.8-22.2-7-32.4-12.4c-2.1-1.1-4.1-2.2-6.1-3.4c-37.6-28.4-57.8-89.6-47.2-155.9c13.6-85.3,73-146.7,132.7-137.2
	c6.9,1.1,13.4,3.1,19.6,5.8c2.9,1.3,5.7,2.7,8.4,4.3c0.1,0,0.1,0.1,0.2,0.1c0.8,0.5,1.7,1.1,2.5,1.7h0c5.4,3.8,10.3,8.5,14.4,14.2
	c5.5,7.7,9,16.3,10.5,25c3.1,17.9-2.1,36.6-14.6,50.5c0.4-0.5,0.8-1,1.3-1.5C616.1,201.8,619.8,193.3,621.1,185.1
	C621.1,185.2,621.1,185.2,621.1,185.1z"/>
<path fill="#2A2960" d="M223.6,306.5c-6.3,9-24.8,1.8-30.5,12.5c-5.5,9,7.4,19.5,1,29.5c-4.5,7.2-14.3,6.4-15.3,11.7
	c0,4.3,8.2,6.1,10,12.5c1.8,8-8.8,12.5-13.5,24.2c-7,16,5.3,25.6,0,38.1c-6.1,13.5-24.8,18-33.8,20.5c-2.9,0.6-5.5,1.2-8.4,1.6
	c-2.5,0.4-4.3,0.6-5.9,0.8H6V6h112.9c44.6,21.5,71.7,79.7,77.2,101.4c21.3,64.3-5.5,63.3-8.2,108.1c0,5.5,1.8,8.2,18,41
	C223.6,292.3,227.2,300.1,223.6,306.5z"/>
<g>
	<path fill="#2A2960" d="M853.1,189.4v-6.5c6.8-1.8,11.1-4.1,12.9-7c1.8-2.9,2.7-9.4,2.7-19.6V41.5c0-11.1-1-17.9-3.1-20.6
		c-2.1-2.7-6.2-4.7-12.4-6.2V8.1h122.6v40.1h-13.1c-3.4-10.4-6.8-17.8-10.3-22c-3.5-4.3-9.6-6.4-18.4-6.4h-40.4v67.1
		c12.7-1.1,23.9-1.6,33.6-1.6c40.2,0,60.3,16.8,60.3,50.3c0,35.9-22.2,53.8-66.5,53.8H853.1z M893.5,98.8v78.1
		c6.5,0.5,13.8,0.8,21.9,0.8c16.1,0,27.6-3.3,34.6-10c7-6.7,10.4-16.9,10.4-30.6c0-26.2-13.6-39.3-40.9-39.3
		C908,97.8,899.3,98.1,893.5,98.8z"/>
	<path fill="#2A2960" d="M1092.4,100.2h-36v56.2c0,11.2,1,18,3.1,20.5c2.1,2.5,6.3,4.5,12.6,6v6.5h-56v-6.5c6.8-1.8,11.1-4.1,12.9-7
		c1.8-2.9,2.7-9.4,2.7-19.6V41.5c0-11.7-1.2-18.7-3.5-21.1c-2.3-2.4-6.4-4.3-12.2-5.7V8.1h56v6.5c-7,1.8-11.4,4.2-13.1,7.3
		c-1.7,3.1-2.6,9.6-2.6,19.5v47h36.3c2-26.8,9.3-47.3,21.8-61.4C1127.1,13,1143.6,6,1164,6c22.9,0,40.3,7.7,52.2,23.1
		c11.9,15.4,17.8,37.9,17.8,67.3c0,30.2-6.4,53.6-19.1,70.2s-30.6,24.9-53.5,24.9C1115.8,191.5,1092.8,161.1,1092.4,100.2z
		 M1162.4,17.7c-29.1,0-43.7,26.3-43.7,79c0,55.4,14.9,83.1,44.8,83.1c13.9,0,24.6-6.8,32-20.3c7.4-13.5,11.2-32.6,11.2-57.4
		c0-27.6-3.8-48.6-11.5-63C1187.5,24.9,1176.6,17.7,1162.4,17.7z"/>
	<path fill="#2A2960" d="M1306.9,155.8c0,5.2,0.3,9.4,0.9,12.5c0.6,3.1,1.5,5.6,2.7,7.4c1.2,1.8,2.8,3.2,4.8,4.3c2,1,5.2,2,9.6,3
		v6.5h-58.3v-6.5c5.5-1.4,9.2-3,11-4.7s3.1-4.2,3.7-7.4c0.6-3.2,0.9-8.1,0.9-14.6V41.3c0-6.1-0.2-10.6-0.7-13.3
		c-0.4-2.8-1.2-5-2.2-6.5c-1-1.5-2.4-2.8-4.1-3.7c-1.7-0.9-4.6-2-8.6-3.1V8.1h65.9c20.7,0,36.1,4,46.3,11.9
		c10.1,7.9,15.2,20,15.2,36.2c0,9.2-1.6,17.5-4.8,24.8c-3.2,7.4-7.7,13.4-13.5,18.1c-5.8,4.7-12.8,8.1-20.7,10.1
		c-8,2-16.3,3.1-25.1,3.1c-9.8,0-17.4-0.2-22.8-0.5V155.8z M1306.9,100.7h15.4c10,0,18.3-1.3,24.8-3.9c6.5-2.6,11.5-6.9,14.9-13
		c3.5-6.1,5.2-14.1,5.2-24.1c0-7.6-1-14-3.1-19.1c-2-5.1-4.8-9.2-8.4-12.3c-3.6-3.1-7.9-5.3-12.8-6.6c-5-1.3-10.4-1.9-16.2-1.9
		c-8.8,0-15.4,0.2-19.8,0.5V100.7z"/>
	<path fill="#2A2960" d="M1492.1,191.5c-10.6,0-20.3-1.7-29-5.2c-8.7-3.5-16.2-8.9-22.4-16.3c-6.2-7.4-11.1-16.8-14.5-28.4
		c-3.4-11.5-5.1-25.3-5.1-41.3c0-19.7,3-36.7,9-50.9c6-14.2,14.6-24.9,25.8-32.3c11.2-7.4,24.2-11.1,39-11.1
		c15.8,0,29,3.5,39.8,10.4c10.8,7,18.9,17.2,24.3,30.7c5.4,13.5,8.2,29.9,8.2,49.3c0,20.7-3.1,38.2-9.3,52.5
		c-6.2,14.3-14.9,24.9-26.2,32C1520.3,188,1507.1,191.5,1492.1,191.5z M1448.4,96.6c0,27.2,4,47.9,11.9,62
		c7.9,14.2,19.5,21.3,34.7,21.3c9.6,0,17.8-3.1,24.6-9.2c6.7-6.2,11.8-15.2,15.1-27c3.4-11.9,5-25.7,5-41.6c0-19.3-2-35.3-5.9-48
		c-3.9-12.7-9.3-21.9-16.1-27.7c-6.8-5.8-14.7-8.6-23.8-8.6c-8,0-14.8,1.9-20.5,5.6s-10.4,9-14.2,15.9c-3.8,6.9-6.5,15.2-8.2,24.9
		C1449.2,73.8,1448.4,84.6,1448.4,96.6z"/>
</g>
<g>
	<path d="M898.2,278.1V342H890V285h-29.7V342h-8.2v-63.9H898.2z"/>
	<path d="M944.8,340.3c-2.2,1.1-7,2.7-13.2,2.7c-13.8,0-22.8-9.4-22.8-23.4c0-14.1,9.7-24.3,24.6-24.3c4.9,0,9.3,1.2,11.6,2.4
		l-1.9,6.4c-2-1.1-5.1-2.2-9.7-2.2c-10.5,0-16.2,7.8-16.2,17.3c0,10.6,6.8,17.1,15.9,17.1c4.7,0,7.9-1.2,10.2-2.3L944.8,340.3z"/>
	<path d="M962.1,296.1v19.3c0,7.3-0.1,11.8-0.5,18.4l0.3,0.1c2.7-5.6,4.4-8.8,7.4-14.1l14.3-23.7h9.8V342h-8v-19.4
		c0-7.5,0.2-11.4,0.6-18.8h-0.3c-2.9,5.9-4.9,9.6-7.6,14.2c-4.4,7.1-9.4,15.9-14.3,24h-9.6v-45.9H962.1z"/>
	<path d="M1010.6,296.1l6.5,9.9c1.7,2.6,3.1,4.9,4.6,7.5h0.3c1.5-2.7,3-5.1,4.5-7.6l6.4-9.8h9l-15.6,22.2l16.1,23.7h-9.5l-6.7-10.3
		c-1.8-2.7-3.3-5.2-4.9-8h-0.2c-1.5,2.7-3.1,5.2-4.8,8l-6.6,10.3h-9.2l16.3-23.4l-15.5-22.5H1010.6z"/>
	<path d="M1090.6,318.7c0,17-11.7,24.3-22.8,24.3c-12.4,0-22-9.1-22-23.6c0-15.3,10-24.3,22.7-24.3
		C1081.7,295.1,1090.6,304.7,1090.6,318.7z M1054.2,319.2c0,10,5.8,17.6,13.9,17.6c8,0,13.9-7.5,13.9-17.8c0-7.8-3.9-17.6-13.7-17.6
		C1058.4,301.3,1054.2,310.4,1054.2,319.2z"/>
	<path d="M1135.7,296.1V342h-8.2v-39.3h-15.7v11.9c0,12.9-1.2,21.5-7.2,25.4c-2.3,1.8-4.8,2.8-9.1,2.8l-0.9-6.5
		c1.6-0.3,3.4-0.9,4.5-1.9c4.3-3.1,4.7-9.6,4.7-19.8v-18.5H1135.7z"/>
	<path d="M1190.6,318.7c0,17-11.7,24.3-22.8,24.3c-12.4,0-22-9.1-22-23.6c0-15.3,10-24.3,22.7-24.3
		C1181.7,295.1,1190.6,304.7,1190.6,318.7z M1154.2,319.2c0,10,5.8,17.6,13.9,17.6c8,0,13.9-7.5,13.9-17.8c0-7.8-3.9-17.6-13.7-17.6
		C1158.5,301.3,1154.2,310.4,1154.2,319.2z"/>
	<path d="M1228.9,296.1v6.7H1209V342h-8.2v-45.9H1228.9z"/>
	<path d="M1244.2,296.1v19.3c0,7.3-0.1,11.8-0.5,18.4l0.3,0.1c2.7-5.6,4.4-8.8,7.4-14.1l14.3-23.7h9.8V342h-8v-19.4
		c0-7.5,0.2-11.4,0.6-18.8h-0.3c-2.9,5.9-4.9,9.6-7.6,14.2c-4.4,7.1-9.4,15.9-14.3,24h-9.6v-45.9H1244.2z"/>
	<path d="M1295.4,296.1v15.1c0,5.8,2.2,9.8,9.5,9.8c3.6,0,7.3-1.3,9.9-3.2v-21.6h8.2V342h-8.2v-18.4h-0.2c-3.1,2.1-8.1,3.5-12.4,3.5
		c-8.7,0-15.1-4.5-15.1-15v-16H1295.4z"/>
	<path d="M1341.1,320.6c0.2,11.3,7.4,15.9,15.7,15.9c6,0,9.6-1,12.7-2.4l1.4,6c-2.9,1.3-8,2.8-15.3,2.8c-14.1,0-22.5-9.3-22.5-23.1
		c0-13.8,8.1-24.7,21.5-24.7c15,0,18.9,13.2,18.9,21.6c0,1.7-0.2,3-0.3,3.9H1341.1z M1365.5,314.6c0.1-5.3-2.2-13.5-11.6-13.5
		c-8.4,0-12.1,7.8-12.8,13.5H1365.5z"/>
	<path d="M1416.4,340.3c-2.2,1.1-7,2.7-13.2,2.7c-13.8,0-22.8-9.4-22.8-23.4c0-14.1,9.7-24.3,24.6-24.3c4.9,0,9.3,1.2,11.6,2.4
		l-1.9,6.4c-2-1.1-5.1-2.2-9.7-2.2c-10.5,0-16.2,7.8-16.2,17.3c0,10.6,6.8,17.1,15.9,17.1c4.7,0,7.9-1.2,10.2-2.3L1416.4,340.3z"/>
	<path d="M1434.2,296.1V316h2l17.2-19.9h10.1l-20,20.7c7.4,0.8,11.8,5.7,15.4,13.9c1.2,3,2.8,7.5,4.9,11.2h-8.7
		c-1.2-2-2.8-5.6-4.3-9.4c-3.1-7.4-7.4-10.8-15.2-10.8h-1.6V342h-8.2v-45.9H1434.2z"/>
	<path d="M1478.8,296.1v19.3c0,7.3-0.1,11.8-0.5,18.4l0.3,0.1c2.7-5.6,4.4-8.8,7.4-14.1l14.3-23.7h9.8V342h-8v-19.4
		c0-7.5,0.2-11.4,0.6-18.8h-0.3c-2.9,5.9-4.9,9.6-7.6,14.2c-4.4,7.1-9.4,15.9-14.3,24h-9.6v-45.9H1478.8z"/>
	<path d="M1528.1,320.6c0.2,11.3,7.4,15.9,15.7,15.9c6,0,9.6-1,12.7-2.4l1.4,6c-2.9,1.3-8,2.8-15.3,2.8c-14.1,0-22.5-9.3-22.5-23.1
		c0-13.8,8.1-24.7,21.5-24.7c15,0,18.9,13.2,18.9,21.6c0,1.7-0.2,3-0.3,3.9H1528.1z M1552.5,314.6c0.1-5.3-2.2-13.5-11.6-13.5
		c-8.4,0-12.1,7.8-12.8,13.5H1552.5z"/>
	<path d="M860,388.9v19.9h2l17.2-19.9h10.1l-20,20.7c7.4,0.8,11.8,5.7,15.4,13.9c1.2,3,2.8,7.5,4.9,11.2h-8.7
		c-1.2-2-2.8-5.6-4.3-9.4c-3.1-7.4-7.4-10.8-15.2-10.8H860v20.2h-8.2v-45.9H860z"/>
	<path d="M937.9,411.5c0,17-11.7,24.3-22.8,24.3c-12.4,0-22-9.1-22-23.6c0-15.3,10-24.3,22.7-24.3
		C929,387.9,937.9,397.4,937.9,411.5z M901.5,411.9c0,10,5.8,17.6,13.9,17.6c8,0,13.9-7.5,13.9-17.8c0-7.8-3.9-17.6-13.7-17.6
		C905.8,394.1,901.5,403.2,901.5,411.9z"/>
	<path d="M956.3,388.9v18.5h21.8v-18.5h8.2v45.9h-8.2V414h-21.8v20.7h-8.2v-45.9H956.3z"/>
	<path d="M1032.5,433.1c-2.2,1.1-7,2.7-13.2,2.7c-13.8,0-22.8-9.4-22.8-23.4c0-14.1,9.7-24.3,24.6-24.3c4.9,0,9.3,1.2,11.6,2.4
		l-1.9,6.4c-2-1.1-5.1-2.2-9.7-2.2c-10.5,0-16.2,7.8-16.2,17.3c0,10.6,6.8,17.1,15.9,17.1c4.7,0,7.9-1.2,10.2-2.3L1032.5,433.1z"/>
	<path d="M1046.4,388.9l10,27.1c1,3,2.2,6.6,2.9,9.4h0.2c0.9-2.7,1.8-6.3,2.9-9.6l9.1-26.9h8.8l-12.5,32.7
		c-6,15.7-10,23.8-15.7,28.7c-4.1,3.6-8.1,5-10.2,5.4l-2.1-7c2.1-0.7,4.8-2,7.3-4.1c2.3-1.8,5.1-5,7-9.3c0.4-0.9,0.7-1.5,0.7-2
		s-0.2-1.1-0.6-2.2l-17-42.3H1046.4z"/>
	<path d="M1121.8,388.9v45.9h-8.2v-39.3h-15.7v11.9c0,12.9-1.2,21.5-7.2,25.4c-2.3,1.8-4.8,2.8-9.1,2.8l-0.9-6.5
		c1.6-0.3,3.4-0.9,4.5-1.9c4.3-3.1,4.7-9.6,4.7-19.8v-18.5H1121.8z"/>
	<path d="M1143.3,388.9v15.5c1.9-0.4,5.1-0.5,7.6-0.5c10.3,0,21.2,3.2,21.2,15.4c0,4.7-1.9,8.1-4.8,10.5c-5,4.3-13.2,5.3-19.9,5.3
		c-4.6,0-8.9-0.3-12.3-0.7v-45.7H1143.3z M1143.3,429c1.6,0.2,3.4,0.4,6.2,0.4c6.3,0,14.3-2.1,14.3-9.8c0-8-8.3-9.7-14.5-9.7
		c-2.2,0-4.1,0.2-6,0.5V429z"/>
	<path d="M1208.3,388.9v6.6H1194v39.2h-8.2v-39.2h-14.3v-6.6H1208.3z"/>
	<path d="M1240.2,434.8l-0.7-5.8h-0.3c-2.6,3.6-7.5,6.8-14,6.8c-9.3,0-14-6.5-14-13.2c0-11.1,9.9-17.1,27.6-17.1v-0.9
		c0-3.8-1-10.6-10.4-10.6c-4.3,0-8.7,1.3-11.9,3.4l-1.9-5.5c3.8-2.5,9.3-4.1,15.1-4.1c14,0,17.4,9.6,17.4,18.8v17.1
		c0,4,0.2,7.9,0.8,11H1240.2z M1238.9,411.4c-9.1-0.2-19.4,1.4-19.4,10.3c0,5.4,3.6,8,7.9,8c6,0,9.8-3.8,11.1-7.7
		c0.3-0.9,0.5-1.8,0.5-2.7V411.4z"/>
	<path d="M1268.3,388.9v39.3h21.1v-39.3h8.2v39.6l4.7,0.1l-0.5,20.7h-6.4l-0.4-14.6h-35.1v-45.9H1268.3z"/>
	<path d="M1319.8,388.9v19.3c0,7.3-0.1,11.8-0.5,18.4l0.3,0.1c2.7-5.6,4.4-8.8,7.4-14.1l14.3-23.7h9.8v45.9h-8v-19.4
		c0-7.5,0.2-11.4,0.6-18.8h-0.3c-2.9,5.9-4.9,9.6-7.6,14.2c-4.4,7.1-9.4,15.9-14.3,24h-9.6v-45.9H1319.8z"/>
	<path d="M1372.1,388.9v19.3c0,7.3-0.1,11.8-0.5,18.4l0.3,0.1c2.7-5.6,4.4-8.8,7.4-14.1l14.3-23.7h9.8v45.9h-8v-19.4
		c0-7.5,0.2-11.4,0.6-18.8h-0.3c-2.9,5.9-4.9,9.6-7.6,14.2c-4.4,7.1-9.4,15.9-14.3,24h-9.6v-45.9H1372.1z"/>
</g>
</svg>
