<?xml version="1.0" encoding="utf-8"?>
<!-- Generator: Adobe Illustrator 24.1.1, SVG Export Plug-In . SVG Version: 6.00 Build 0)  -->
<svg version="1.1" id="Слой_1" xmlns="http://www.w3.org/2000/svg" xmlns:xlink="http://www.w3.org/1999/xlink" x="0px" y="0px"
	 viewBox="0 0 2181.8 465" style="enable-background:new 0 0 2181.8 465;" xml:space="preserve">
<style type="text/css">
	.st0{fill:#FFA500;}
	.st1{fill:#2A2960;}
	.st2{fill:url(#SVGID_1_);}
	.st3{fill:url(#SVGID_2_);}
	.st4{fill:url(#SVGID_3_);}
	.st5{fill:none;stroke:#2A2960;stroke-width:5;stroke-miterlimit:10;}
	.st6{fill:#FFFFFF;}
	.st7{font-family:'ArialMT';}
	.st8{font-size:96.2054px;}
	.st9{letter-spacing:-1;}
</style>
<g>
	<rect x="3" y="3" class="st0" width="778.5" height="458"/>
	<path class="st1" d="M0,0v464h784.5V0H0z M778.5,458H6V6h772.5V458z"/>
</g>
<path class="st1" d="M778.5,152.5c0,44.7-25.2,84-63.2,106.6c-8.1,4.9-16.9,8.9-26.1,12.1c-15.3,5.3-31.9,8.3-49.2,8.3
	c-43.9,0-83-18.7-108.3-47.9c-7.4-8.5-13.7-18-18.5-28.1c-0.5-1-0.9-1.9-1.3-2.9c0.5,0.8,1,1.7,1.5,2.5c0.6,0.9,1.2,1.8,1.8,2.6
	c1.1,1.5,2.3,3,3.5,4.4l0,0c1.6,2,3.3,4,5,5.8c10.9,11.5,25.2,19.7,41.3,23.1c5.3,1.1,10.8,1.7,16.3,1.7c28.9,0,54.3-15.5,68.2-38.6
	l0,0c7.2-12,11.4-26,11.4-41c0-28.1-14.6-52.9-36.7-67l0,0c-9.8-5-20.1-8.9-30.8-11.6l0,0c-11.7-3-23.8-4.5-36.3-4.5
	c-10.9,0-21.5,1.2-31.8,3.5c-72.3,16-126.8,85.4-126.8,168.7c0,65.9,34,123.1,84,152c2,1.2,4,2.3,6.1,3.4
	c10.3,5.3,21.1,9.5,32.4,12.4l0,0c7.7,2.8,15.3,4.7,22.9,5.9c1.2,0.2,2.4,0.4,3.5,0.5c2.7,0.6,5.4,0.9,8.3,0.9c0.7,0,1.5,0,2.2-0.1
	c16.4,0.6,31.4-2.7,43.4-9.7l0,0l0,0c1.6-0.9,3.1-1.9,4.5-2.9l0,0c5.9-4.2,10.9-9.4,14.6-15.6l0,0l0.1-0.1c1-1.6,1.9-3.3,2.7-5.1
	v-0.1c2.2-4.9,3.7-10.1,4.3-15.5c0.6,3.7,0.9,7.5,0.9,11.4c0,6-0.8,11.9-2.2,17.5c-0.3,1-0.5,2.1-0.9,3.1l0,0
	c-1.3,4.4-3.1,8.6-5.2,12.6c-12.2,23.1-36.7,37.2-62.8,37.2H186.6c1.6-0.2,3.3-0.4,5.9-0.8c2.9-0.4,5.5-1,8.4-1.6
	c9-2.5,27.8-7,33.8-20.5c5.3-12.5-7-22.1,0-38.1c4.7-11.7,15.2-16.2,13.5-24.2c-1.8-6.5-10-8.2-10-12.5c1-5.3,10.8-4.5,15.3-11.7
	c6.4-10-6.5-20.5-1-29.5c5.7-10.8,24.2-3.5,30.5-12.5c3.5-6.5,0-14.3-17.8-50c-16.2-32.8-18-35.6-18-41
	c2.7-44.8,29.5-43.8,8.2-108.1c-5.5-21.8-32.6-80-77.2-101.5H588c51.3,0,98.6,17.1,136.5,45.9l0.1,0.1c6,4.5,11.7,9.3,17.1,14.4
	C764.6,89,778.5,119.3,778.5,152.5z"/>
<linearGradient id="SVGID_1_" gradientUnits="userSpaceOnUse" x1="355.3199" y1="196.73" x2="726.2764" y2="265.1153" gradientTransform="matrix(1 0 0 -1 0 466)">
	<stop  offset="0" style="stop-color:#FFFFFF;stop-opacity:0"/>
	<stop  offset="2.070570e-02" style="stop-color:#F6F6F8;stop-opacity:2.183294e-02"/>
	<stop  offset="0.1562" style="stop-color:#C1C0D0;stop-opacity:0.1647"/>
	<stop  offset="0.293" style="stop-color:#9292AE;stop-opacity:0.3089"/>
	<stop  offset="0.4286" style="stop-color:#6D6C92;stop-opacity:0.452"/>
	<stop  offset="0.5628" style="stop-color:#504F7C;stop-opacity:0.5935"/>
	<stop  offset="0.6951" style="stop-color:#3B3A6C;stop-opacity:0.733"/>
	<stop  offset="0.8247" style="stop-color:#2E2D63;stop-opacity:0.8696"/>
	<stop  offset="0.9484" style="stop-color:#2A2960"/>
</linearGradient>
<path class="st2" d="M660.8,161.2c0,15-4.1,29-11.4,41l0,0c-13.9,23.1-39.2,38.5-68.2,38.5c-5.6,0-11.1-0.6-16.3-1.7
	c-16.1-3.4-30.4-11.6-41.3-23.1c-0.1-0.3-0.3-0.7-0.4-1c3.2,3,6.8,5.6,10.5,7.7c1.2,0.7,2.4,1.3,3.6,1.9c7.8,3.8,16.3,5.9,24.9,6.2
	c8.9,0.3,17.8-1.4,26.2-5.1c0,0,0,0,0.1,0c7.3-2.8,14.3-7.8,20.2-14.6l0.1-0.1c0,0,0,0,0.1-0.1c12.5-13.8,17.6-32.6,14.6-50.5
	c-1.5-8.8-5-17.3-10.5-25c-4.1-5.7-9-10.4-14.4-14.2l0,0c-0.8-0.6-1.7-1.1-2.5-1.7c-0.1,0-0.1-0.1-0.2-0.1c-2.7-1.7-5.5-3.1-8.4-4.3
	c-6.2-2.8-12.8-4.8-19.6-5.8c-59.7-9.5-119.1,51.9-132.7,137.2c-10.5,66.3,9.7,127.4,47.2,155.9c-50-29-84-86.2-84-152
	c0-83.3,54.5-152.8,126.8-168.7c10.3-2.3,20.9-3.5,31.8-3.5c12.5,0,24.6,1.6,36.3,4.5l0,0c10.7,2.7,21,6.6,30.8,11.6l0,0
	C646.2,108.3,660.8,133,660.8,161.2z"/>
<linearGradient id="SVGID_2_" gradientUnits="userSpaceOnUse" x1="534.6879" y1="51.6268" x2="604.5314" y2="343.5574" gradientTransform="matrix(1 0 0 -1 0 466)">
	<stop  offset="0" style="stop-color:#FFFFFF;stop-opacity:0"/>
	<stop  offset="9.855021e-02" style="stop-color:#DDDDE5;stop-opacity:9.855020e-02"/>
	<stop  offset="0.2711" style="stop-color:#A7A7BD;stop-opacity:0.2711"/>
	<stop  offset="0.4397" style="stop-color:#7A7A9C;stop-opacity:0.4397"/>
	<stop  offset="0.6005" style="stop-color:#575782;stop-opacity:0.6005"/>
	<stop  offset="0.7515" style="stop-color:#3E3D6F;stop-opacity:0.7515"/>
	<stop  offset="0.8888" style="stop-color:#2F2E64;stop-opacity:0.8888"/>
	<stop  offset="1" style="stop-color:#2A2960"/>
</linearGradient>
<path class="st3" d="M621.1,185.1c1.9-11.9-1.3-23.1-9.6-29.7c-10.2-8.1-25.3-7.2-38.4,1c0,0-0.1,0-0.1,0.1l0,0l0,0
	c-4.9,3.1-9.6,7.2-13.6,12.3c-0.6,0.8-1.2,1.5-1.7,2.3c-9.9,12.5-18.2,29.9-23.8,51.6c-3.7-2.2-7.3-4.7-10.5-7.7
	c-1.6-1.5-3.2-3.1-4.7-4.8l0,0c-1.9-2.4-3.6-4.8-5.1-7.4c-1.1-1.8-2.1-3.6-3.1-5.4c0.4,1.1,0.9,2.2,1.4,3.3l0,0
	c0.4,1,0.9,1.9,1.3,2.9c4.8,10.1,11.1,19.5,18.5,28.1c-13.8,65.1,1.4,140.3,35,170.2c0.6,0.6,1.3,1.1,1.9,1.6l0,0
	c2.8,2.6,6,4.8,9.6,6.3c0,0,0,0,0.1,0c4.2,1.8,8.8,2.8,13.6,2.8c12,0,22.5-6.2,28.6-15.5c-3.8,6.2-8.7,11.4-14.6,15.6l0,0
	c-1.5,1-3,2-4.5,2.9l0,0l0,0c-12,6.9-27.1,10.2-43.4,9.7c-0.7,0-1.5,0.1-2.2,0.1c-2.8,0-5.6-0.3-8.3-0.9c-1.2-0.1-2.4-0.3-3.5-0.5
	c-1.4-0.7-2.8-1.4-4.1-2.2c0,0,0,0-0.1,0l0,0c-2.9-1.6-5.6-3.4-8.3-5.4c0,0,0,0-0.1-0.1c-35.6-27.2-53.3-90.4-40.5-158.9
	c7.7-41.5,25.2-77.1,47.3-101.6c0.1-0.1,0.2-0.2,0.3-0.3c2.7-3.2,5.5-6,8.5-8.6c19.9-17.1,45.6-21.1,62-8c6.4,5.1,10.5,12,12.6,20
	C623.6,166.8,623.4,175.9,621.1,185.1z"/>
<linearGradient id="SVGID_3_" gradientUnits="userSpaceOnUse" x1="461.4613" y1="56.1591" x2="569.4438" y2="364.0932" gradientTransform="matrix(1 0 0 -1 0 466)">
	<stop  offset="0" style="stop-color:#FFFFFF;stop-opacity:0"/>
	<stop  offset="0.3506" style="stop-color:#AAA9BF;stop-opacity:0.3506"/>
	<stop  offset="0.6626" style="stop-color:#65648C;stop-opacity:0.6626"/>
	<stop  offset="0.8863" style="stop-color:#3A396C;stop-opacity:0.8863"/>
	<stop  offset="1" style="stop-color:#2A2960"/>
</linearGradient>
<path class="st4" d="M621.1,185.1c2.3-9.2,2.4-18.3,0.4-26.4c-2-8-6.2-15-12.6-20c-16.5-13.1-42.1-9.2-62,8c-3,2.6-5.9,5.5-8.5,8.6
	c-0.1,0.1-0.2,0.2-0.3,0.3c-22.2,24.5-39.6,60.2-47.3,101.6c-12.7,68.4,4.9,131.7,40.5,158.9c0,0,0.1,0,0.1,0.1
	c2.5,2.2,5.3,4,8.3,5.4l0,0c0,0,0,0,0.1,0c1.4,0.8,2.8,1.5,4.1,2.2c-7.5-1.2-15.2-3.2-22.9-5.9l0,0c-11.3-2.8-22.2-7-32.4-12.4
	c-2.1-1.1-4.1-2.2-6.1-3.4c-37.6-28.4-57.8-89.6-47.2-155.9c13.6-85.3,73-146.7,132.7-137.2c6.9,1.1,13.4,3.1,19.6,5.8
	c2.9,1.3,5.7,2.7,8.4,4.3c0.1,0,0.1,0.1,0.2,0.1c0.8,0.5,1.7,1.1,2.5,1.7l0,0c5.4,3.8,10.3,8.5,14.4,14.2c5.5,7.7,9,16.3,10.5,25
	c3.1,17.9-2.1,36.6-14.6,50.5c0.4-0.5,0.8-1,1.3-1.5C616.1,201.8,619.8,193.3,621.1,185.1C621.1,185.2,621.1,185.2,621.1,185.1z"/>
<path class="st1" d="M223.6,306.5c-6.3,9-24.8,1.8-30.5,12.5c-5.5,9,7.4,19.5,1,29.5c-4.5,7.2-14.3,6.4-15.3,11.7
	c0,4.3,8.2,6.1,10,12.5c1.8,8-8.8,12.5-13.5,24.2c-7,16,5.3,25.6,0,38.1c-6.1,13.5-24.8,18-33.8,20.5c-2.9,0.6-5.5,1.2-8.4,1.6
	c-2.5,0.4-4.3,0.6-5.9,0.8H6V6h112.9c44.6,21.5,71.7,79.7,77.2,101.4c21.3,64.3-5.5,63.3-8.2,108.1c0,5.5,1.8,8.2,18,41
	C223.6,292.3,227.2,300.1,223.6,306.5z"/>
<g>
	<path class="st1" d="M935.4,145.3c0.8-2,2.4-3.4,4.8-4.2c1.4-0.5,3.5-1,6.3-1.6c2.8-0.6,5.2-0.9,7.2-1v-7.4h-61.4v7.4
		c1.7,0.1,4.1,0.6,7.2,1.3c3.1,0.7,5.5,1.5,7.2,2.4c2.2,1,3.8,2.4,4.7,4c0.9,1.6,1.4,3.7,1.4,6.2L841,242v-90.3
		c0-2.3,0.4-4.4,1.2-6.4c0.8-2,2.4-3.4,4.8-4.2c1.4-0.5,3.5-1,6.4-1.6c2.9-0.6,5.3-0.9,7.3-1v-7.4h-61.4v7.4c2,0.1,4.3,0.6,7,1.3
		c2.7,0.7,5,1.5,6.9,2.4c2.2,1,3.8,2.5,4.7,4.3c0.9,1.8,1.4,3.9,1.4,6.1v107.2c0,2.7-0.5,4.9-1.5,6.7c-1,1.7-2.5,3-4.6,3.8
		c-1.2,0.5-3.4,1-6.5,1.3c-3.2,0.3-5.6,0.5-7.3,0.6v7.4h61.4v-7.4c-1.8-0.1-4.3-0.4-7.5-1c-3.2-0.6-5.4-1.3-6.6-1.9
		c-2.4-1.3-4-2.6-4.8-4.1c-0.8-1.5-1.2-3.5-1.2-5.9v-2.4l71.8-89.6v92.6c0,2.7-0.5,4.9-1.5,6.7c-1,1.7-2.5,3-4.6,3.8
		c-1.2,0.5-3.4,1-6.6,1.3c-3.3,0.3-5.7,0.5-7.4,0.6v7.4h61.4v-7.4c-1.7-0.1-4.1-0.4-7.2-1c-3-0.6-5.2-1.3-6.3-1.9
		c-2.4-1.3-4-2.7-4.8-4.4c-0.8-1.7-1.2-3.7-1.2-6.2V151.7C934.2,149.3,934.6,147.2,935.4,145.3z"/>
	<path class="st1" d="M1061.9,239.9c-1.7-3-3.9-5.5-6.7-7.5c-2.7-2-5.8-3.5-9.3-4.6c-3.5-1.1-7-1.9-10.5-2.4v-1.1
		c7-1.5,12.6-4.2,16.9-8.2c4.3-4,6.4-9.5,6.4-16.4c0-4.4-1-8.2-3-11.3c-2-3.1-4.9-5.6-8.6-7.4c-3.5-1.8-7.6-3-12.2-3.7
		c-4.6-0.7-9.5-1.1-14.8-1.1c-10,0-19.6,0-28.7,0.1c-9.2,0.1-16.9,0.1-23.1,0.1v6.9c1.5,0.1,3.1,0.4,4.8,0.6
		c1.7,0.3,3.5,0.8,5.3,1.7c2,0.8,3.4,2,4.4,3.6c1,1.6,1.5,3.5,1.5,5.8v67c0,2.5-0.5,4.5-1.4,6.1c-0.9,1.6-2.4,2.7-4.3,3.3
		c-1.3,0.4-2.7,0.7-4.5,0.8c-1.7,0.1-3.4,0.3-5,0.4v6.9h54.5c5.4,0,10.4-0.6,15.2-1.6c4.7-1.1,9-2.7,12.7-4.9
		c4.1-2.4,7.2-5.4,9.5-9.1c2.3-3.7,3.5-8.1,3.5-13.2C1064.5,246.5,1063.6,242.9,1061.9,239.9z M1003.5,184c1.7-0.1,3.6-0.2,5.8-0.3
		c2.2-0.1,4.2-0.2,6-0.2c2.8,0,5.6,0.2,8.3,0.7c2.7,0.5,5.1,1.3,7.3,2.6c2.2,1.3,3.9,3,5.2,5.2c1.3,2.2,1.9,5,1.9,8.5
		c0,3.1-0.4,6-1.1,8.5c-0.7,2.5-2,4.7-3.7,6.5c-1.7,1.9-4.1,3.4-7.4,4.5s-7.3,1.7-12.1,1.7h-10.1V184z M1042.5,257.8
		c-0.7,2.6-2.1,5.1-3.9,7.3c-2,2.3-4.7,4.1-8.2,5.4c-3.5,1.3-7.8,2-12.8,2c-4.8,0-8.3-0.8-10.6-2.3c-2.3-1.5-3.5-3.6-3.5-6.3v-34.1
		c1.2,0,2.9-0.1,5-0.2c2.1-0.1,5.1-0.2,8.8-0.2c8.5,0,15,1.8,19.5,5.3c4.5,3.5,6.8,8.4,6.8,14.5
		C1043.6,252.3,1043.3,255.1,1042.5,257.8z"/>
	<path class="st1" d="M1167.7,271c-2.3-0.1-3.9-0.4-5-1.1c-2-1.1-3.4-2.5-4.3-4.1c-0.9-1.6-1.4-3.8-1.4-6.5c0-9.1,0.1-17.6,0.3-25.3
		c0.2-7.7,0.3-16.6,0.3-26.5c0-7-0.9-12.7-2.8-17.1c-1.8-4.4-4.6-7.9-8.1-10.5c-3.6-2.7-7.5-4.4-11.9-5.2c-4.4-0.8-9.5-1.2-15.3-1.2
		c-4.3,0-8.6,0.7-13.1,2s-8.3,3-11.4,5c-3.6,2.3-6.6,4.9-8.8,7.8c-2.3,2.9-3.4,6-3.4,9.2c0,3.1,0.8,5.8,2.5,8.3
		c1.6,2.5,4.2,3.7,7.7,3.7c3.9,0,7-1,9.2-3c2.2-2,3.3-4.3,3.3-6.7c0-2.3-0.3-4.8-1-7.5c-0.7-2.7-1-4.8-1-6.2
		c1.1-1.2,3.1-2.3,5.8-3.4c2.8-1.1,5.7-1.6,8.9-1.6c4.7,0,8.3,1,10.8,2.9c2.5,1.9,4.5,4.2,5.9,6.8c1.3,2.3,2.1,4.7,2.5,7.3
		c0.4,2.6,0.6,4.3,0.6,5.2v10.4c-3.3,1.8-9.8,4.3-19.4,7.5c-9.6,3.2-16,5.4-19.1,6.6c-2.5,1-5.2,2.3-8.1,3.9
		c-2.9,1.6-5.2,3.5-6.9,5.6c-2.2,2.5-3.9,5.3-5,8.5c-1.1,3.1-1.7,6.7-1.7,10.7c0,7.7,2.5,13.9,7.5,18.6c5,4.8,11.3,7.1,19.1,7.1
		c7.3,0,13.6-1.3,18.8-4c5.2-2.7,10.1-6.5,14.6-11.5h0.6c0.9,4.9,3,8.6,6.2,11.1c3.2,2.5,7.6,3.8,13,3.8c3.1,0,5.9-0.4,8.4-1.1
		c2.5-0.7,5.4-1.7,8.6-2.9v-6.7C1172.3,271.1,1170,271,1167.7,271z M1137.6,258.7c-2.6,3.3-5.8,6.1-9.5,8.5
		c-3.8,2.4-8.1,3.6-13.1,3.6c-4.7,0-8.5-1.4-11.6-4.1c-3-2.7-4.5-7-4.5-12.8c0-4.5,1-8.3,3-11.6c2-3.3,4.8-6.1,8.3-8.4
		c3.8-2.5,8-4.6,12.4-6.3c4.5-1.7,9.7-3.4,15.6-5.1L1137.6,258.7z"/>
	<path class="st1" d="M1292.3,272c-1.7-0.4-3.3-0.9-4.8-1.6c-2-0.8-3.5-2-4.3-3.5c-0.8-1.5-1.3-3.5-1.3-5.9v-67
		c0-2.4,0.5-4.5,1.4-6.1c1-1.6,2.4-2.8,4.4-3.3c1.3-0.3,2.6-0.5,4.1-0.7c1.5-0.2,3.3-0.4,5.3-0.5v-6.9h-50.4v6.9
		c1.5,0.1,3.1,0.4,4.8,0.6c1.7,0.3,3.5,0.8,5.3,1.7c2,0.8,3.4,2,4.4,3.6c1,1.6,1.5,3.5,1.5,5.8v25.5h-46V194c0-2.4,0.5-4.5,1.4-6.1
		c0.9-1.6,2.4-2.8,4.3-3.3c1.3-0.3,2.6-0.5,4.1-0.7c1.5-0.2,3.3-0.4,5.3-0.5v-6.9h-50.5v6.9c1.5,0.1,3.1,0.4,4.8,0.6
		c1.7,0.3,3.5,0.8,5.3,1.7c1.9,0.8,3.4,2,4.4,3.6c1,1.6,1.5,3.5,1.5,5.8v67c0,2.5-0.5,4.5-1.4,6.1c-0.9,1.6-2.4,2.7-4.3,3.3
		c-1.3,0.4-2.7,0.7-4.4,0.8c-1.7,0.1-3.4,0.3-5,0.4v6.9h50.4v-6.9c-1.8-0.1-3.6-0.4-5.3-0.7c-1.7-0.4-3.3-0.9-4.8-1.6
		c-2-0.8-3.4-2-4.4-3.5c-1-1.5-1.5-3.5-1.5-5.9v-31.8h46v32.9c0,2.5-0.5,4.5-1.6,6.1c-1.1,1.6-2.6,2.7-4.5,3.3
		c-1.3,0.4-2.8,0.7-4.5,0.8c-1.7,0.1-3.4,0.3-5,0.4v6.9h50.5v-6.9C1295.8,272.6,1294,272.4,1292.3,272z"/>
	<path class="st1" d="M1396.1,188.1c-9.4-9.7-21.3-14.6-35.8-14.6c-15.2,0-27.5,5.1-36.9,15.4c-9.4,10.3-14.1,23.4-14.1,39.6
		c0,8.4,1.3,15.9,4,22.7c2.7,6.7,6.3,12.4,10.8,17.1c4.6,4.8,9.9,8.4,15.8,10.8c5.9,2.5,12.2,3.7,18.8,3.7c7.9,0,15-1.4,21.4-4.1
		c6.3-2.7,11.9-6.9,16.8-12.4c4.3-4.9,7.5-10.8,9.8-17.9c2.3-7,3.5-14.1,3.5-21.4C1410.1,210.8,1405.4,197.8,1396.1,188.1z
		 M1380.8,262.2c-5.1,8.5-12,12.7-20.8,12.7c-5.3,0-9.8-1.3-13.4-3.8c-3.6-2.5-6.6-6-9-10.5c-2.4-4.5-4.1-9.5-5.2-15.2
		c-1.1-5.7-1.6-11.9-1.6-18.6c0-5.1,0.5-10.4,1.4-15.8c0.9-5.4,2.5-10.3,4.7-14.5c2.4-4.6,5.5-8.2,9.3-10.9c3.8-2.7,8.4-4,13.8-4
		c5.2,0,9.7,1.3,13.3,3.9c3.6,2.6,6.6,6.1,8.8,10.4c2.1,4,3.7,9,4.7,14.8c1.1,5.8,1.6,11.4,1.6,16.6
		C1388.5,242.1,1385.9,253.7,1380.8,262.2z"/>
	<path class="st1" d="M1515.1,239.9c-1.7-3-3.9-5.5-6.7-7.5c-2.7-2-5.8-3.5-9.3-4.6c-3.5-1.1-7-1.9-10.5-2.4v-1.1
		c7-1.5,12.6-4.2,16.9-8.2c4.3-4,6.4-9.5,6.4-16.4c0-4.4-1-8.2-3-11.3c-2-3.1-4.9-5.6-8.6-7.4c-3.6-1.8-7.6-3-12.2-3.7
		c-4.6-0.7-9.5-1.1-14.8-1.1c-10,0-19.6,0-28.7,0.1c-9.2,0.1-16.9,0.1-23.1,0.1v6.9c1.5,0.1,3.1,0.4,4.8,0.6
		c1.7,0.3,3.5,0.8,5.3,1.7c1.9,0.8,3.4,2,4.4,3.6c1,1.6,1.5,3.5,1.5,5.8V262c1.8-0.4,3.6-0.6,5.6-0.6c1.9,0,3.7,0.2,5.4,0.6
		c0,0,0,0,0,0c1.7-0.4,3.6-0.6,5.6-0.6c0.9,0,1.8,0,2.7,0.1v-31.8c1.2,0,2.8-0.1,5-0.2c2.1-0.1,5-0.2,8.8-0.2c8.5,0,15,1.8,19.5,5.3
		c4.5,3.5,6.8,8.4,6.8,14.5c0,3-0.4,5.8-1.1,8.5c-0.4,1.3-0.9,2.6-1.5,3.8c-0.7,1.2-1.5,2.4-2.4,3.5c-1.3,1.5-2.8,2.7-4.7,3.8
		c-1.1,0.6-2.2,1.2-3.5,1.6c-2.8,1.1-6.1,1.7-9.9,1.9c1.3,2.2,2.3,4.7,3,7.2h0.1c4.6,0,8.9-0.4,13-1.2c0.7-0.1,1.4-0.3,2.1-0.4
		c2.9-0.7,5.7-1.6,8.2-2.6c1.6-0.7,3-1.4,4.5-2.2c4-2.4,7.2-5.4,9.5-9.1c2.3-3.7,3.5-8.1,3.5-13.2
		C1517.6,246.5,1516.7,242.9,1515.1,239.9z M1478.9,220c-3.3,1.1-7.3,1.7-12.1,1.7h-10.1V184c1.7-0.1,3.6-0.2,5.8-0.3
		c2.2-0.1,4.2-0.2,6-0.2c2.9,0,5.6,0.2,8.3,0.7c2.7,0.5,5.1,1.3,7.3,2.6c2.2,1.3,3.9,3,5.2,5.2c1.3,2.2,1.9,5,1.9,8.5
		c0,3.1-0.4,6-1.1,8.5c-0.7,2.5-2,4.7-3.7,6.5C1484.6,217.4,1482.2,218.9,1478.9,220z"/>
	<path class="st1" d="M1620.8,271c-2.3-0.1-3.9-0.4-5-1.1c-2-1.1-3.4-2.5-4.3-4.1c-0.9-1.6-1.4-3.8-1.4-6.5c0-9.1,0.1-17.6,0.3-25.3
		c0.2-7.7,0.3-16.6,0.3-26.5c0-7-0.9-12.7-2.8-17.1c-1.8-4.4-4.6-7.9-8.1-10.5c-3.6-2.7-7.5-4.4-11.9-5.2c-4.4-0.8-9.5-1.2-15.3-1.2
		c-4.3,0-8.6,0.7-13.1,2c-4.5,1.4-8.3,3-11.4,5c-3.6,2.3-6.6,4.9-8.8,7.8c-2.3,2.9-3.4,6-3.4,9.2c0,3.1,0.8,5.8,2.5,8.3
		c1.6,2.5,4.2,3.7,7.7,3.7c3.9,0,7-1,9.2-3c2.2-2,3.3-4.3,3.3-6.7c0-2.3-0.3-4.8-1-7.5c-0.7-2.7-1-4.8-1-6.2
		c1.1-1.2,3.1-2.3,5.8-3.4c2.8-1.1,5.7-1.6,8.9-1.6c4.7,0,8.3,1,10.8,2.9c2.5,1.9,4.5,4.2,5.9,6.8c1.3,2.3,2.1,4.7,2.4,7.3
		c0.4,2.6,0.6,4.3,0.6,5.2v10.4c-3.4,1.8-9.8,4.3-19.4,7.5c-9.6,3.2-16,5.4-19.1,6.6c-2.5,1-5.2,2.3-8.1,3.9
		c-2.9,1.6-5.2,3.5-6.9,5.6c-2.2,2.5-3.9,5.3-5,8.5c-1.1,3.1-1.7,6.7-1.7,10.7c0,7.7,2.5,13.9,7.5,18.6c5,4.8,11.4,7.1,19.1,7.1
		c7.3,0,13.6-1.3,18.8-4c5.2-2.7,10.1-6.5,14.6-11.5h0.6c0.9,4.9,3,8.6,6.2,11.1c3.3,2.5,7.6,3.8,13,3.8c3.1,0,5.9-0.4,8.4-1.1
		c2.5-0.7,5.4-1.7,8.6-2.9v-6.7C1625.4,271.1,1623.1,271,1620.8,271z M1590.7,258.7c-2.6,3.3-5.8,6.1-9.5,8.5
		c-3.8,2.4-8.1,3.6-13.1,3.6c-4.7,0-8.5-1.4-11.6-4.1c-3-2.7-4.6-7-4.6-12.8c0-4.5,1-8.3,3-11.6s4.8-6.1,8.3-8.4
		c3.8-2.5,8-4.6,12.5-6.3c4.5-1.7,9.7-3.4,15.6-5.1L1590.7,258.7z"/>
	<path class="st1" d="M934.7,328.1c0.8-2,2.4-3.4,4.8-4.2c1.4-0.5,3.5-1,6.3-1.6c2.8-0.6,5.2-0.9,7.2-1v-7.4h-61.7v7.4
		c2,0.1,4.3,0.6,7,1.3c2.7,0.7,5,1.5,6.8,2.4c2.2,1,3.8,2.5,4.7,4.3c0.9,1.9,1.4,3.9,1.4,6.1v45h-69.8v-46c0-2.3,0.4-4.4,1.2-6.4
		c0.8-2,2.4-3.4,4.8-4.2c1.4-0.5,3.5-1,6.3-1.6c2.8-0.6,5.2-0.9,7.2-1v-7.4h-61.6v7.4c2,0.1,4.3,0.6,7,1.3c2.7,0.7,5,1.5,6.9,2.4
		c2.2,1,3.8,2.5,4.7,4.3c0.9,1.9,1.4,3.9,1.4,6.1v107.2c0,2.7-0.5,4.9-1.5,6.7c-1,1.7-2.5,3-4.6,3.8c-1.2,0.5-3.4,1-6.5,1.3
		c-3.2,0.3-5.6,0.5-7.3,0.6v7.4h61.6V455c-1.7-0.1-4.1-0.4-7.2-1c-3-0.6-5.2-1.3-6.3-1.9c-2.4-1.3-4-2.7-4.8-4.4
		c-0.8-1.7-1.2-3.7-1.2-6.2v-51.7h69.8v52.9c0,2.7-0.5,4.9-1.5,6.7c-1,1.7-2.5,3-4.6,3.8c-1.2,0.5-3.4,1-6.5,1.3
		c-3.2,0.3-5.6,0.5-7.3,0.6v7.4H953V455c-1.7-0.1-4.1-0.4-7.2-1c-3-0.6-5.1-1.3-6.3-1.9c-2.4-1.3-4-2.7-4.8-4.4
		c-0.8-1.7-1.2-3.7-1.2-6.2V334.4C933.5,332.1,933.9,330,934.7,328.1z"/>
	<path class="st1" d="M1059,453.8c-2.3-0.1-3.9-0.4-5-1c-2-1.1-3.4-2.5-4.4-4.1c-0.9-1.6-1.4-3.8-1.4-6.5c0-9.1,0.1-17.6,0.3-25.3
		c0.2-7.7,0.3-16.6,0.3-26.5c0-7-0.9-12.7-2.8-17.1c-1.9-4.4-4.6-7.9-8.1-10.5c-3.6-2.7-7.5-4.4-11.9-5.2c-4.4-0.8-9.5-1.2-15.3-1.2
		c-4.3,0-8.6,0.7-13.1,2c-4.5,1.4-8.3,3-11.4,5c-3.6,2.3-6.6,4.9-8.9,7.8c-2.3,2.9-3.4,6-3.4,9.2c0,3.1,0.8,5.8,2.5,8.3
		c1.6,2.5,4.2,3.7,7.7,3.7c3.9,0,7-1,9.2-3c2.2-2,3.3-4.3,3.3-6.7c0-2.3-0.3-4.8-1-7.5c-0.7-2.7-1-4.8-1-6.2
		c1.1-1.2,3.1-2.3,5.8-3.4c2.8-1.1,5.8-1.6,9-1.6c4.7,0,8.3,1,10.8,2.9c2.6,1.9,4.5,4.2,5.9,6.8c1.3,2.3,2.1,4.7,2.5,7.3
		c0.4,2.6,0.6,4.3,0.6,5.3v10.3c-3.3,1.8-9.8,4.3-19.4,7.5c-9.6,3.2-16,5.4-19.1,6.6c-2.5,1-5.2,2.3-8.1,3.9
		c-2.9,1.7-5.2,3.5-6.9,5.6c-2.2,2.5-3.9,5.3-5,8.5c-1.1,3.1-1.7,6.7-1.7,10.7c0,7.7,2.5,13.9,7.5,18.6c5,4.8,11.4,7.1,19.1,7.1
		c7.3,0,13.6-1.3,18.8-4c5.2-2.7,10.1-6.5,14.6-11.5h0.6c0.9,4.9,3,8.6,6.2,11.1c3.2,2.5,7.6,3.8,13,3.8c3.1,0,6-0.4,8.4-1.1
		c2.5-0.7,5.4-1.7,8.6-2.9v-6.7C1063.6,453.8,1061.2,453.8,1059,453.8z M1028.8,441.5c-2.6,3.3-5.8,6.1-9.5,8.5
		c-3.8,2.4-8.1,3.6-13.1,3.6c-4.7,0-8.5-1.4-11.6-4.1c-3-2.7-4.6-7-4.6-12.8c0-4.5,1-8.3,3-11.6c2-3.3,4.8-6.1,8.3-8.4
		c3.8-2.5,8-4.6,12.5-6.3c4.5-1.7,9.7-3.4,15.6-5.1L1028.8,441.5z"/>
	<path class="st1" d="M1166.2,422.7c-1.7-3-3.9-5.5-6.7-7.5c-2.7-2-5.8-3.5-9.3-4.6c-3.5-1.1-7-1.9-10.5-2.4v-1.1
		c7-1.5,12.6-4.2,16.9-8.2c4.3-4,6.4-9.5,6.4-16.4c0-4.4-1-8.1-3-11.3c-2-3.1-4.9-5.6-8.6-7.4c-3.6-1.8-7.6-3-12.2-3.7
		c-4.6-0.7-9.5-1.1-14.8-1.1c-10,0-19.6,0-28.7,0.1c-9.2,0.1-16.9,0.1-23.1,0.1v6.9c1.5,0.1,3,0.3,4.8,0.6c1.7,0.3,3.5,0.8,5.3,1.7
		c2,0.8,3.4,2,4.4,3.6c1,1.6,1.5,3.5,1.5,5.8v67c0,2.5-0.5,4.5-1.4,6.1c-0.9,1.6-2.4,2.7-4.3,3.3c-1.3,0.4-2.8,0.7-4.5,0.8
		c-1.7,0.1-3.4,0.3-5,0.4v6.9h54.5c5.4,0,10.4-0.5,15.2-1.6c4.8-1.1,9-2.7,12.7-4.9c4-2.4,7.2-5.4,9.5-9.1c2.3-3.7,3.4-8.1,3.4-13.2
		C1168.7,429.3,1167.9,425.7,1166.2,422.7z M1107.8,366.8c1.7-0.1,3.6-0.2,5.8-0.3c2.2-0.1,4.2-0.2,6-0.2c2.9,0,5.6,0.2,8.3,0.7
		c2.7,0.5,5.1,1.3,7.3,2.6c2.2,1.3,3.9,3,5.2,5.2c1.3,2.2,1.9,5,1.9,8.5c0,3.1-0.4,6-1.1,8.5c-0.7,2.5-2,4.7-3.7,6.5
		c-1.7,1.9-4.1,3.4-7.4,4.5c-3.3,1.1-7.3,1.7-12.1,1.7h-10.1V366.8z M1146.8,440.6c-0.7,2.7-2,5.1-3.9,7.3c-2,2.3-4.7,4.1-8.2,5.4
		c-3.5,1.3-7.8,2-12.8,2c-4.8,0-8.3-0.8-10.6-2.3s-3.5-3.6-3.5-6.3v-34.1c1.2,0,2.8-0.1,5-0.2c2.1-0.1,5.1-0.2,8.8-0.2
		c8.5,0,15,1.8,19.5,5.3c4.5,3.6,6.8,8.4,6.8,14.5C1147.9,435.1,1147.5,437.9,1146.8,440.6z"/>
	<path class="st1" d="M1272,453.8c-2.3-0.1-3.9-0.4-5-1c-1.9-1.1-3.4-2.5-4.3-4.1c-0.9-1.6-1.4-3.8-1.4-6.5c0-9.1,0.1-17.6,0.3-25.3
		c0.2-7.7,0.3-16.6,0.3-26.5c0-7-0.9-12.7-2.8-17.1c-1.8-4.4-4.5-7.9-8.1-10.5c-3.6-2.7-7.5-4.4-11.9-5.2c-4.4-0.8-9.5-1.2-15.3-1.2
		c-4.3,0-8.6,0.7-13.1,2c-4.5,1.4-8.3,3-11.4,5c-3.6,2.3-6.6,4.9-8.8,7.8c-2.3,2.9-3.4,6-3.4,9.2c0,3.1,0.8,5.8,2.5,8.3
		c1.6,2.5,4.2,3.7,7.7,3.7c3.9,0,7-1,9.2-3c2.2-2,3.3-4.3,3.3-6.7c0-2.3-0.3-4.8-1-7.5c-0.7-2.7-1-4.8-1-6.2
		c1.1-1.2,3.1-2.3,5.8-3.4c2.8-1.1,5.7-1.6,8.9-1.6c4.7,0,8.3,1,10.8,2.9c2.6,1.9,4.5,4.2,5.9,6.8c1.3,2.3,2.1,4.7,2.5,7.3
		c0.4,2.6,0.6,4.3,0.6,5.3v10.3c-3.3,1.8-9.8,4.3-19.4,7.5c-9.6,3.2-16,5.4-19.1,6.6c-2.5,1-5.2,2.3-8.1,3.9
		c-2.9,1.7-5.2,3.5-6.9,5.6c-2.2,2.5-3.9,5.3-5,8.5s-1.7,6.7-1.7,10.7c0,7.7,2.5,13.9,7.5,18.6c5,4.8,11.4,7.1,19.1,7.1
		c7.3,0,13.6-1.3,18.8-4c5.2-2.7,10.1-6.5,14.6-11.5h0.6c0.9,4.9,3,8.6,6.2,11.1c3.3,2.5,7.6,3.8,13,3.8c3.1,0,5.9-0.4,8.4-1.1
		c2.5-0.7,5.3-1.7,8.6-2.9v-6.7C1276.6,453.8,1274.3,453.8,1272,453.8z M1241.8,441.5c-2.6,3.3-5.8,6.1-9.5,8.5
		c-3.8,2.4-8.1,3.6-13.1,3.6c-4.7,0-8.5-1.4-11.6-4.1c-3-2.7-4.6-7-4.6-12.8c0-4.5,1-8.3,3-11.6c2-3.3,4.8-6.1,8.3-8.4
		c3.8-2.5,8-4.6,12.5-6.3c4.5-1.7,9.7-3.4,15.6-5.1L1241.8,441.5z"/>
	<path class="st1" d="M1397.3,454.8c-0.1,0-0.1,0-0.2,0c-1.6-0.4-3.2-0.9-4.6-1.5c-2-0.8-3.5-2-4.3-3.5c-0.4-0.6-0.6-1.4-0.8-2.2
		c-0.3-1.1-0.4-2.3-0.4-3.7v-67c0-1.8,0.3-3.4,0.8-4.7c0.2-0.5,0.4-1,0.6-1.4c0.2-0.4,0.5-0.8,0.8-1.2c0.9-1,2.1-1.7,3.5-2.1
		c1.3-0.3,2.6-0.5,4.1-0.7c1.5-0.2,3.3-0.4,5.3-0.5v-6.9h-50.1v6.9c1.5,0.1,3.1,0.3,4.9,0.6c1.8,0.3,3.6,0.8,5.4,1.7
		c2,0.8,3.4,2,4.4,3.5c1,1.5,1.5,3.7,1.5,6.8l-47.5,51.5v-53.4c0-2.4,0.5-4.5,1.4-6.1c0.9-1.7,2.4-2.8,4.3-3.3
		c1.3-0.3,2.6-0.5,4.1-0.7c1.5-0.2,3.3-0.4,5.3-0.5v-6.9h-50.1v6.9c1.5,0.1,3.1,0.3,4.8,0.6c1.7,0.3,3.5,0.8,5.3,1.7
		c1.9,0.8,3.4,2,4.4,3.6c1,1.6,1.5,3.5,1.5,5.8v67c0,2.5-0.5,4.5-1.4,6.1c-0.9,1.6-2.4,2.7-4.4,3.3c-1.3,0.4-2.7,0.7-4.4,0.8
		c-1.7,0.1-3.4,0.3-5,0.4v6.9h50.1v-6.9c-1.9-0.1-3.7-0.4-5.4-0.7c-1.7-0.3-3.3-0.9-4.9-1.6c-2-0.8-3.4-2-4.4-3.5
		c-1-1.5-1.4-3.5-1.4-5.9V442l47.5-51.4v54.2c0,2.5-0.5,4.5-1.6,6.1c-1.1,1.6-2.6,2.7-4.5,3.3c-1.3,0.4-2.7,0.7-4.5,0.8
		c-1.7,0.1-3.4,0.3-5,0.4v6.9h50.1v-6.9C1400.8,455.4,1399,455.2,1397.3,454.8z M1376.6,308.6c-2-2.1-4.4-3.2-7.3-3.2
		c-2.5,0-4.9,0.8-7.2,2.3c-2.3,1.5-3.4,4-3.4,7.5c0,1.8,0.4,4,1.2,6.4c0.8,2.5,1.5,4.4,2.1,5.7c-1.9,2.4-4.5,4.1-7.9,5.2
		c-3.4,1.1-6.6,1.6-9.7,1.6c-3.5,0-6.7-0.5-9.8-1.7c-3.1-1.1-5.6-2.8-7.4-5.1c0.5-1.1,1.2-2.9,2-5.4c0.8-2.5,1.3-4.7,1.3-6.8
		c0-3.5-1.1-6-3.4-7.5c-2.2-1.5-4.7-2.3-7.3-2.3c-2.8,0-5.2,1.1-7.2,3.2c-2,2.1-3,4.9-3,8.2c0,2.3,0.6,4.9,1.7,7.7
		c1.2,2.8,3.1,5.5,5.7,7.9c2.8,2.5,6.4,4.6,10.8,6.2c4.4,1.7,9.9,2.5,16.6,2.5c7.1,0,12.8-0.8,16.9-2.4c4.2-1.6,7.7-3.7,10.6-6.3
		c2.5-2.2,4.4-4.9,5.7-7.9c1.3-3,1.9-5.6,1.9-7.7C1379.6,313.5,1378.6,310.8,1376.6,308.6z"/>
</g>
<g>
	<path class="st5" d="M1521.3,422.4c15.4-18.8,24.3-45.5,29.8-79.2h-24.6c-4,27-10.4,47.7-20,62.7c-13.2-15.3-32.9-38.8-50.4-59.8
		v-1c32.9-16.9,45.5-34.7,45.5-57.3c0-3.3-0.3-6.4-0.8-9.4c-0.2-1-0.4-2.1-0.7-3.1c-0.5-2.3-1.3-4.4-2.1-6.5c-1.1-2.6-2.4-5-3.9-7.3
		c-6-9.1-15.3-15.3-26.4-17.9c-3.5-0.8-7.2-1.3-11-1.3c-0.3,0-0.6,0-0.8,0c-2.6,0-5,0.2-7.4,0.4c-3.9,0.5-7.6,1.3-11,2.5
		c-22.4,7.6-34.1,29-34.1,49.9c0,15.3,6.4,30.9,17.2,44.9v1c-9,5.1-17,11.1-23.4,18.2c-2.9,3.2-5.5,6.6-7.8,10.3
		c-0.5,0.8-1,1.7-1.5,2.6c-5,9.1-7.9,19.5-7.9,31.5c0,10.4,2.4,20.3,7.1,29c2.9,5.5,6.8,10.5,11.4,14.8c2.9,2.7,6.1,5.1,9.7,7.2
		c1.8,1,3.6,2,5.5,2.9c8.5,3.9,18.5,6.2,29.9,6.2c22.7,0,42.7-7.3,60.5-24.5c8,8.9,13.5,15,19.4,21h32
		C1543.1,446.6,1532.3,434.5,1521.3,422.4z M1448.4,262C1448.4,262,1448.4,262,1448.4,262c1.8-0.4,3.6-0.6,5.6-0.6
		c0.9,0,1.8,0,2.7,0.1c4.5,0.4,8.2,2,11.2,4.3c2,1.5,3.6,3.3,5,5.3c0.3,0.4,0.6,0.9,0.8,1.3c1.3,2.2,2.3,4.7,3,7.2
		c0.9,3.1,1.3,6.3,1.3,9.5c0,18.1-13.5,29.6-34.4,42c-8.9-11.4-15.7-23.2-15.7-38.5C1427.9,278,1434.8,264.8,1448.4,262z
		 M1448.1,442.8c-24.9,0-42.4-18.8-42.4-43.3c0-22.6,15.7-36.3,26.7-43.6c23,27.4,46.1,53.5,58.4,67.5
		C1481,434.5,1466,442.8,1448.1,442.8z"/>
</g>
<g>
	<rect x="799.2" y="12.3" class="st1" width="265.2" height="104.2"/>
	<text transform="matrix(1 0 0 1 809.5319 96.111)" class="st6 st7 st8 st9">Бюро</text>
</g>
</svg>
