<?xml version="1.0" encoding="utf-8"?>
<!-- Generator: Adobe Illustrator 24.1.1, SVG Export Plug-In . SVG Version: 6.00 Build 0)  -->
<svg version="1.1" id="Слой_1" xmlns="http://www.w3.org/2000/svg" xmlns:xlink="http://www.w3.org/1999/xlink" x="0px" y="0px"
	 viewBox="0 0 2104.9 1305.6" enable-background="new 0 0 2104.9 1305.6" xml:space="preserve">
<g>
	<path fill="none" stroke="#000000" stroke-width="5" stroke-miterlimit="10" d="M602.5,502"/>
	<path fill="none" stroke="#000000" stroke-width="5" stroke-miterlimit="10" d="M602.5,502"/>
	<path fill="none" stroke="#000000" stroke-width="5" stroke-miterlimit="10" d="M602.5,502c103.3,0,188.5-77.9,200-178.1"/>
	<path fill="none" stroke="#000000" stroke-width="5" stroke-miterlimit="10" d="M802.5,277.5c0,0-1.5-7.7-4.1-23.2
		C800.2,261.9,801.6,269.6,802.5,277.5z"/>
	<path fill="none" stroke="#000000" stroke-width="5" stroke-miterlimit="10" d="M3,502C3,228.3,223.1,6,496,2.5c0.1,0,0.2,0,0.4,0
		c1,0,1.9,0,2.9,0c0.6,0,1.2,0,1.8,0c0.2,0,0.4,0,0.5,0c0.1,0,0.1,0,0.2,0c0,0,0.1,0,0.1,0c0,0,0.1,0,0.1,0c0.2,0,0.3,0,0.5,0v0"/>
	<polyline fill="none" stroke="#000000" stroke-width="5" stroke-miterlimit="10" points="802.5,1301.9 802.5,1302 762,1302 	"/>
	<path fill="none" stroke="#000000" stroke-width="5" stroke-miterlimit="10" d="M802.5,323.9c0.8-6.8,1.3-14.5,1.3-22.9
		c0-8.6-0.5-16.5-1.3-23.5"/>
	<polyline fill="none" stroke="#000000" stroke-width="5" stroke-miterlimit="10" points="802.5,1301.9 802.5,1302 845.2,1302 	"/>
</g>
<path fill="none" stroke="#000000" stroke-width="5" stroke-miterlimit="10" d="M802.5,1301.9c14.3,0,28.5-0.2,42.6-0.7
	c10.5-0.3,20.9-0.8,31.3-1.4C1560,1261.5,2102.4,695.1,2102.4,2"/>
<line fill="none" stroke="#000000" stroke-width="5" stroke-miterlimit="10" x1="3" y1="502" x2="2.5" y2="502"/>
<path fill="none" stroke="#000000" stroke-width="5" stroke-miterlimit="10" d="M876.5,1299.8c-10.4,0.9-20.8,1.7-31.3,2.2
	c-13.8,0.7-27.6,1.1-41.6,1.1s-27.8-0.4-41.6-1.1c-170.7-8.7-327.2-70.9-453.3-170.1C122.2,985.3,2.5,757.7,2.5,502"/>
<path fill="none" stroke="#000000" stroke-width="5" stroke-miterlimit="10" d="M502.5,2.5c-0.2,0-0.3,0-0.5,0c0,0-0.1,0-0.1,0
	c0,0-0.1,0-0.1,0c-0.1,0-0.1,0-0.2,0c-0.2,0-0.4,0-0.5,0c-0.6,0-1.2,0-1.8,0c-1,0-1.9,0-2.9,0c-0.1,0-0.2,0-0.4,0
	C223.1,6,3,228.3,3,502"/>
<path fill="none" stroke="#000000" stroke-width="5" stroke-miterlimit="10" d="M798.4,254.3C798.4,254.3,798.4,254.2,798.4,254.3
	c0-0.1,0-0.1,0-0.1c-23.6-142.3-147-251-295.9-251.7c-0.2,0-0.3,0-0.5,0c0,0-0.1,0-0.1,0c0,0-0.1,0-0.1,0c-0.1,0-0.1,0-0.2,0
	c-0.2,0-0.4,0-0.5,0c-0.6,0-1.2,0-1.8,0c-1,0-1.9,0-2.9,0c-0.1,0-0.2,0-0.4,0"/>
<path fill="none" stroke="#000000" stroke-width="5" stroke-miterlimit="10" d="M802.5,323.9c0.9-7.6,1.8-18.9,1.1-32.6
	c-1.1-20.8-5.3-37-5.2-37c0.1,0,2.6,10.3,4.1,23.2c0.9,7.6,1.3,15.4,1.3,23.2C803.8,308.6,803.4,316.3,802.5,323.9z"/>
<path fill="none" stroke="#000000" stroke-width="5" stroke-miterlimit="10" d="M503.2,403.1c0-0.4,0-0.7,0-1.1c0-0.2,0-1,0-1.1
	c1.7-53.1,45.3-95.6,98.8-95.6"/>
<path fill="none" stroke="#000000" stroke-width="5" stroke-miterlimit="10" d="M602.9,502c-0.3,0-1.6,0-2,0
	c-53.7-0.6-97.2-44-97.8-97.8c0-0.4,0-0.7,0-1.1"/>
</svg>
