<?xml version="1.0" encoding="utf-8"?>
<!-- Generator: Adobe Illustrator 24.1.1, SVG Export Plug-In . SVG Version: 6.00 Build 0)  -->
<svg version="1.1" id="Слой_1" xmlns="http://www.w3.org/2000/svg" xmlns:xlink="http://www.w3.org/1999/xlink" x="0px" y="0px"
	 viewBox="0 0 2329.8 1460.1" enable-background="new 0 0 2329.8 1460.1" xml:space="preserve">
<g>
	<rect x="595.5" y="334.6" fill="#FFFFFF" stroke="#000000" stroke-width="5" stroke-miterlimit="10" width="100" height="100"/>
	<rect x="595.5" y="434.6" fill="#FFFFFF" stroke="#000000" stroke-width="5" stroke-miterlimit="10" width="100" height="100"/>
	<rect x="695.5" y="334.6" fill="#FFFFFF" stroke="#000000" stroke-width="5" stroke-miterlimit="10" width="200" height="200"/>
	<rect x="595.5" y="34.6" fill="#FFFFFF" stroke="#000000" stroke-width="5" stroke-miterlimit="10" width="300" height="300"/>
	<rect x="95.5" y="34.6" fill="#FFFFFF" stroke="#000000" stroke-width="5" stroke-miterlimit="10" width="500" height="500"/>
	<polyline fill="#FFFFFF" stroke="#000000" stroke-width="5" stroke-miterlimit="10" points="95.5,1059.2 95.5,1334.6 895.5,1334.6 
		895.5,1334.5 	"/>
	<rect x="895.5" y="34.6" fill="#FFFFFF" stroke="#000000" stroke-width="5" stroke-miterlimit="10" width="1300" height="1300"/>
</g>
<path fill="none" stroke="#000000" stroke-width="5" stroke-miterlimit="10" d="M95.5,1059.2V534.6h500h100h200v799.9
	c717.9,0,1299.9-582,1299.9-1299.9"/>
<path fill="none" stroke="#000000" stroke-width="5" stroke-miterlimit="10" d="M95.5,534.6c0,255.6,119.7,483.3,306.2,629.9
	c126.1,99.2,282.6,161.3,453.3,170.1c13.8,0.7,27.6,1.1,41.6,1.1s27.8-0.4,41.6-1.1c10.5-0.5,20.9-1.3,31.3-2.2"/>
<path fill="none" stroke="#000000" stroke-width="5" stroke-miterlimit="10" d="M96,534.6C96,258.7,319.6,35.1,595.5,35.1"/>
<path fill="none" stroke="#000000" stroke-width="5" stroke-miterlimit="10" d="M895.5,336.5c0-0.6,0-1.3,0-1.9
	c-1-165.1-134.8-298.8-300-299.5c-0.2,0-0.4,0-0.6,0c0,0-0.1,0-0.1,0c-0.1,0-0.1,0-0.2,0c-0.2,0-0.3,0-0.5,0c-0.6,0-1.2,0-1.8,0
	c-1,0-1.9,0-2.9,0c-0.1,0-0.2,0-0.4,0"/>
<path fill="#FFFFFF" stroke="#000000" stroke-width="5" stroke-miterlimit="10" d="M695.5,534.6c103.3,0,188.5-77.9,200-178.1
	c0.9-7.6,1.3-15.4,1.3-23.2s-0.5-15.6-1.3-23.2c-0.9-7.9-2.3-15.7-4.1-23.3c0,0,0,0,0-0.1"/>
<path fill="#FFFFFF" stroke="#000000" stroke-width="5" stroke-miterlimit="10" d="M696.4,533.5c-0.3,0-0.6,0-0.9,0
	c-54.6,0-98.9-44.3-98.9-98.9s44.3-98.9,98.9-98.9"/>
</svg>
