<?xml version="1.0" encoding="utf-8"?>
<!-- Generator: Adobe Illustrator 24.1.1, SVG Export Plug-In . SVG Version: 6.00 Build 0)  -->
<svg version="1.1" id="Capa_1" xmlns="http://www.w3.org/2000/svg" xmlns:xlink="http://www.w3.org/1999/xlink" x="0px" y="0px"
	 viewBox="0 0 512 512" style="enable-background:new 0 0 512 512;" xml:space="preserve">
<style type="text/css">
	.st0{fill:url(#SVGID_1_);}
	.st1{fill:none;}
	.st2{fill:#2A2960;}
	.st3{fill:url(#SVGID_2_);}
	.st4{fill:url(#SVGID_3_);}
	.st5{fill:url(#SVGID_4_);}
	.st6{fill:#2400AA;}
	.st7{fill:url(#SVGID_5_);}
	.st8{fill:url(#SVGID_6_);}
	.st9{fill:url(#SVGID_7_);}
	.st10{fill:url(#SVGID_8_);}
	.st11{fill:url(#SVGID_9_);}
</style>
<linearGradient id="SVGID_1_" gradientUnits="userSpaceOnUse" x1="280.5826" y1="648.3557" x2="279.4637" y2="785.446" gradientTransform="matrix(1 0 0 1 0 -486)">
	<stop  offset="1.986822e-07" style="stop-color:#FFFFFF;stop-opacity:0"/>
	<stop  offset="0.1718" style="stop-color:#CEC5EC;stop-opacity:0.1718"/>
	<stop  offset="0.3979" style="stop-color:#9280D5;stop-opacity:0.3979"/>
	<stop  offset="0.602" style="stop-color:#6349C2;stop-opacity:0.602"/>
	<stop  offset="0.7767" style="stop-color:#4121B5;stop-opacity:0.7767"/>
	<stop  offset="0.9151" style="stop-color:#2C09AD;stop-opacity:0.9151"/>
	<stop  offset="1" style="stop-color:#2400AA"/>
</linearGradient>
<path class="st0" d="M341.9,247.7v8.3c0,1.9,0,3.8-0.1,5.7l0,0c0,0.9-0.1,1.8-0.1,2.7v0.9c0,0.6-0.2,1.2-0.2,1.6
	c-0.7,9.5-2.5,18.7-4.9,27.2c-0.2-8-1.3-15.7-3.1-22.8c0-0.2-0.1-0.3-0.1-0.5c-0.4-1.9-1-3.7-1.5-5.4l0,0l0,0
	c-0.4-1.6-1-3.1-1.6-4.6v-0.2c-0.1-0.4-0.4-0.9-0.6-1.5c-2.8-7-6.4-13.2-10.5-18.6c-0.5-0.5-0.7-1-1.2-1.5c-0.4-0.5-0.7-0.9-1.2-1.3
	c-5.3-6.2-11.7-11-18.6-14c-1.7-0.7-3.4-1.3-5.2-1.8c-2.3-0.6-4.6-1.1-7-1.3c-0.4-0.1-0.8-0.1-1.2-0.1c-0.3,0-0.6-0.1-0.9-0.1
	c-0.1,0-0.1,0-0.2,0c-0.3,0-0.5,0-0.8,0c-0.1,0-0.2,0-0.3,0c-0.4,0-0.8,0-1.2,0c-0.5,0-1,0-1.5,0c-28.8,0.9-54.3,31.2-59.7,71.3
	c0-0.1-0.1-0.3-0.1-0.4c-6.5-29.2-0.4-59.5,19.5-82c12.4-14.2,28.6-23.5,46.3-27.7c10.1-2.5,20.8-3.3,31.5-2.5
	c9.6,11.4,16.9,26.3,20.9,43.3c1.1,4.7,2,9.5,2.6,14.4l0,0v0.1c0.1,1.3,0.3,2.7,0.4,4C341.8,243.1,341.9,245.5,341.9,247.7z"/>
<path class="st1" d="M220,291.6c3.4,14.8,9.9,29.3,19.5,42.3c5,6.7,10.8,13,17.3,18.8c0.7,0.7,1.5,1.2,2.2,1.9l0,0
	c0.1,0,0.1,0.1,0.2,0.2s0.3,0.3,0.4,0.4c0.4,0.5,0.9,0.7,1.3,1.2c3.9,3.1,7.9,5.9,12,8.4c1.5,0.9,3,1.8,4.4,2.5
	c2.8,1.6,5.6,3,8.4,4.3c0.5,0.2,1,0.4,1.5,0.6c3.3,1.4,6.7,2.7,10.1,3.8c1.4,0.5,2.9,0.9,4.4,1.4l0,0"/>
<path class="st1" d="M320,382.3c-0.6,0-1.3-0.1-1.9-0.2"/>
<path class="st1" d="M322,382.4c-0.6,0-1.3-0.1-1.9-0.1"/>
<path class="st1" d="M333.3,270.9c-7.3,5.8-13.9,13.2-19.3,22.1c-16,26.2-15.8,56.2-1.3,73c2.4,2.8,5.2,5.2,8.3,7.1
	c4.6,2.8,9.5,4.4,14.5,5c-3.3,1.2-6.5,2.4-9.9,3.4c-1,0.3-2.2,0.6-3.3,0.9c-0.1,0-0.1,0-0.3,0"/>
<path class="st2" d="M413.7,271.4c0,3.3-0.2,6.6-0.5,9.8c-0.2,2.1-0.4,4.1-0.7,6.1c-0.3,2.2-0.7,4.4-1.2,6.5
	c-0.2-3.4-0.3-6.8-0.7-10.1c-0.4-3.8-1-7.6-1.8-11.3c-1.4-6.6-3.4-13-5.9-19.3c-6.2-15.6-15.7-29.9-27.7-42.2s-26.8-22.4-43.3-29.8
	c-0.2-0.1-0.4-0.2-0.6-0.3c-4.7-1-9.3-1.7-14-2.1c-10.7-0.8-21.3,0-31.4,2.4c-17.8,4.3-34,13.5-46.5,27.8
	c-19.8,22.7-25.9,53.1-19.4,82.5l0,0l0,0c0,0,0,0,0,0.1c3.3,14.8,9.9,29.3,19.5,42.3c4.9,6.7,10.7,13,17.3,18.8
	c0.7,0.7,1.5,1.5,2.4,2.1c0.1,0.2,0.3,0.3,0.4,0.4c0.5,0.5,0.9,0.7,1.3,1.2c3.8,3.1,7.8,5.9,12,8.4c1.5,0.9,3,1.6,4.4,2.5
	c2.7,1.5,5.6,3,8.4,4.2c3.8,1.7,7.7,3.2,11.5,4.5c1.8,0.6,3.4,1.2,5.2,1.6c-0.3-0.1-0.5-0.2-0.8-0.4c0.2,0.1,0.5,0.1,0.8,0.2
	c3,1.5,6.2,2.6,9.4,3.4c1.5,0.4,3,0.6,4.6,0.9c0.5,0.1,1,0.1,1.5,0.2c0.6,0.1,1.3,0.1,1.9,0.2l0,0c0.6,0,1.3,0.1,1.9,0.1
	c-3,0.9-6.2,1.6-9.3,2.2c-4.4,0.9-9,1.5-13.6,1.9c-4.3,0.4-8.7,0.6-13.2,0.6H152c0.8-0.1,1.7-0.2,3-0.4c1.5-0.2,2.8-0.5,4.3-0.8
	c4.6-1.3,14.2-3.6,17.3-10.5c2.7-6.4-3.6-11.3,0-19.5c2.4-6,7.8-8.3,6.9-12.4c-0.9-3.3-5.1-4.2-5.1-6.4c0.5-2.7,5.5-2.3,7.8-6
	c3.3-5.1-3.3-10.5-0.5-15.1c2.9-5.5,12.4-1.8,15.6-6.4c1.8-3.3,0-7.3-9.1-25.6c-8.3-16.8-9.2-18.2-9.2-21
	c1.4-22.9,15.1-22.4,4.2-55.3c-2.8-11.1-16.7-40.9-39.5-51.9h138.2c56.8,0,105.1,33.6,121.7,80.2c2.4,6.7,4.1,13.8,5.2,20.9
	c0.2,1.5,0.5,3,0.6,4.4C413.5,264.6,413.7,268,413.7,271.4z"/>
<path class="st1" d="M285.9,224.4c-20.1,9.3-35.5,33.6-39.2,63.5c0.1-0.1,0.1-0.3,0.2-0.4c7.1-12.7,18.1-24.9,32.3-34.3
	c2.2-1.5,4.4-2.8,6.7-4.1c10-5.7,20.5-9.4,30.6-11.3c-6.6-7.7-14.8-13.3-23.9-16"/>
<linearGradient id="SVGID_2_" gradientUnits="userSpaceOnUse" x1="256.5085" y1="840.8013" x2="256.5085" y2="690.6171" gradientTransform="matrix(1 0 0 1 0 -486)">
	<stop  offset="1.986822e-07" style="stop-color:#FFFFFF;stop-opacity:0"/>
	<stop  offset="0.1718" style="stop-color:#CEC5EC;stop-opacity:0.1718"/>
	<stop  offset="0.3979" style="stop-color:#9280D5;stop-opacity:0.3979"/>
	<stop  offset="0.602" style="stop-color:#6349C2;stop-opacity:0.602"/>
	<stop  offset="0.7767" style="stop-color:#4121B5;stop-opacity:0.7767"/>
	<stop  offset="0.9151" style="stop-color:#2C09AD;stop-opacity:0.9151"/>
	<stop  offset="1" style="stop-color:#2400AA"/>
</linearGradient>
<path class="st3" d="M292.8,221.9C292.7,221.9,292.7,221.9,292.8,221.9L292.8,221.9c-2.4,0.7-4.6,1.5-6.8,2.5
	c-20,9.4-35.2,33.5-39,63.1l0,0c0,0.2,0,0.3-0.1,0.5c-0.2,1.8-0.4,3.6-0.5,5.4c-0.2,3-0.3,6.1-0.3,9.1c0,2.5,0.1,4.9,0.2,7.4
	c1.1,16.8,5.8,32.2,12.9,44.6l0,0c0,0.1,0.1,0.2,0.2,0.3c-0.9-0.6-1.6-1.3-2.4-2.1c-6.7-5.8-12.4-12.1-17.3-18.8
	c-9.6-13-16.3-27.5-19.5-42.3c0,0,0,0,0-0.1l0,0c0-0.1,0-0.2,0.1-0.3c5.5-40,31-70.1,59.8-70.9c1,0,2,0,3,0c0.6,0,1.2,0.1,1.7,0.1
	s0.9,0.1,1.3,0.2C288.3,220.9,290.5,221.3,292.8,221.9z"/>
<linearGradient id="SVGID_3_" gradientUnits="userSpaceOnUse" x1="360.8709" y1="702.9489" x2="359.9681" y2="813.5717" gradientTransform="matrix(1 0 0 1 0 -486)">
	<stop  offset="1.986822e-07" style="stop-color:#FFFFFF;stop-opacity:0"/>
	<stop  offset="0.1701" style="stop-color:#DED9F2;stop-opacity:0.1701"/>
	<stop  offset="0.5519" style="stop-color:#8B78D2;stop-opacity:0.5519"/>
	<stop  offset="1" style="stop-color:#2400AA"/>
</linearGradient>
<path class="st4" d="M380.5,261.6c-6.8-2.5-14.4-3.6-22.4-3c-5.5,0.3-11,1.5-16.6,3.1c0.1-1.9,0.1-3.8,0.1-5.8c0-0.4,0-0.7,0-1.2
	c0-2.4,0-4.9-0.1-7.3c-0.1-2.2-0.3-4.6-0.4-6.8c-0.1-1.3-0.3-2.7-0.4-4c16,1.9,29.6,9,37.9,21.5c0.1,0.1,0.1,0.3,0.1,0.3
	C379.5,259.5,380,260.6,380.5,261.6z"/>
<linearGradient id="SVGID_4_" gradientUnits="userSpaceOnUse" x1="289.3338" y1="723.7763" x2="288.1937" y2="863.4829" gradientTransform="matrix(1 0 0 1 0 -486)">
	<stop  offset="1.986822e-07" style="stop-color:#FFFFFF;stop-opacity:0"/>
	<stop  offset="0.1718" style="stop-color:#CEC5EC;stop-opacity:0.1718"/>
	<stop  offset="0.3979" style="stop-color:#9280D5;stop-opacity:0.3979"/>
	<stop  offset="0.602" style="stop-color:#6349C2;stop-opacity:0.602"/>
	<stop  offset="0.7767" style="stop-color:#4121B5;stop-opacity:0.7767"/>
	<stop  offset="0.9151" style="stop-color:#2C09AD;stop-opacity:0.9151"/>
	<stop  offset="1" style="stop-color:#2400AA"/>
</linearGradient>
<path class="st5" d="M331.7,265.6c-8.1,3.7-16.1,9-23.5,15.5c-1,0.9-1.9,1.8-2.8,2.6c-0.1,0.1-0.3,0.3-0.4,0.4
	c-0.4,0.4-0.7,0.7-1.1,1.1c-0.3,0.3-0.5,0.5-0.7,0.8c-1,1-2,2.1-2.9,3.1c0,0.1-0.1,0.1-0.1,0.1c-6,6.9-10.8,14.3-14.2,21.9
	c-8.1,18.2-8.5,37.1,0,51.2c1.3,2.1,2.8,4.1,4.4,6c0,0,0.1,0.1,0.1,0.3c1.7,1.9,3.6,3.6,5.6,5.1c1.8,1.3,3.7,2.5,5.8,3.5l0,0
	c0.3,0.1,0.5,0.3,0.8,0.4c-1.8-0.4-3.4-1-5.2-1.6c-3.9-1.3-7.8-2.8-11.5-4.5c-2.9-1.3-5.7-2.7-8.4-4.2c-1.5-0.9-3-1.6-4.4-2.5
	c-4.1-2.5-8.1-5.3-12-8.4c-0.4-0.4-0.9-0.7-1.3-1.2c-0.2-0.1-0.3-0.3-0.4-0.4s-0.1-0.2-0.2-0.3l0,0c-7.3-12.4-11.9-27.8-12.9-44.6
	c-0.1-2.4-0.2-4.9-0.2-7.4c0-3.1,0.1-6.1,0.3-9.1c0.1-1.8,0.3-3.6,0.5-5.4c7.1-12.9,18.2-25.2,32.6-34.6c2.1-1.4,4.3-2.8,6.5-4
	c10.1-5.8,20.6-9.6,30.8-11.4c0.4,0.5,0.7,0.9,1.2,1.3c0.5,0.5,0.7,1,1.2,1.5c4.1,5.3,7.7,11.7,10.5,18.7c0.1,0.5,0.4,0.9,0.6,1.5
	v0.2C330.5,262.5,331.2,263.9,331.7,265.6L331.7,265.6z"/>
<line class="st1" x1="335.5" y1="378.1" x2="335.5" y2="378.1"/>
<path class="st6" d="M358.3,258.5c-5.6,1.3-11.2,3.6-16.7,6.8c0-0.3,0-0.6,0-0.9c0-0.9,0.1-1.8,0.1-2.7
	C347.4,260,352.9,258.9,358.3,258.5z"/>
<linearGradient id="SVGID_5_" gradientUnits="userSpaceOnUse" x1="307.6331" y1="868.4013" x2="307.6331" y2="751.5012" gradientTransform="matrix(1 0 0 1 0 -486)">
	<stop  offset="1.986822e-07" style="stop-color:#FFFFFF;stop-opacity:0"/>
	<stop  offset="0.1718" style="stop-color:#CEC5EC;stop-opacity:0.1718"/>
	<stop  offset="0.3979" style="stop-color:#9280D5;stop-opacity:0.3979"/>
	<stop  offset="0.602" style="stop-color:#6349C2;stop-opacity:0.602"/>
	<stop  offset="0.7767" style="stop-color:#4121B5;stop-opacity:0.7767"/>
	<stop  offset="0.9151" style="stop-color:#2C09AD;stop-opacity:0.9151"/>
	<stop  offset="1" style="stop-color:#2400AA"/>
</linearGradient>
<path class="st7" d="M335.5,378.1c-3.3,1.2-6.5,2.4-9.9,3.4c-1,0.3-2.2,0.6-3.3,0.9c-0.1,0-0.1,0-0.3,0c-0.7,0-1.3-0.1-1.9-0.1l0,0
	c-0.6,0-1.3-0.1-1.9-0.2c-0.5-0.1-1-0.1-1.5-0.2c-4.9-0.7-9.6-2.2-13.8-4.2c-2.3-1.1-4.4-2.4-6.5-3.9s-3.9-3.2-5.7-5.1
	c0,0-0.2-0.1-0.2-0.3c-1.8-1.9-3.3-4-4.6-6.2c-8.4-14-8-32.7,0-50.7c3.4-7.6,8.1-15.1,14.2-22.1l0.1-0.1c0.9-1.1,1.9-2.1,2.9-3.1
	c0.2-0.3,0.5-0.5,0.7-0.8c0.3-0.4,0.7-0.7,1.1-1.1c0.1-0.1,0.3-0.3,0.4-0.4c1-0.9,2-1.9,3-2.8c7.3-6.6,15.3-11.8,23.4-15.5
	c0.1,0,0.1-0.1,0.2-0.1c0.6,1.8,1,3.5,1.5,5.5c-7.3,5.8-13.9,13.2-19.3,22.1c-16,26.2-15.8,56.2-1.3,73c2.4,2.8,5.2,5.2,8.3,7.1
	C325.5,375.9,330.5,377.5,335.5,378.1z"/>
<line class="st1" x1="335.5" y1="378.1" x2="335.5" y2="378.1"/>
<line class="st1" x1="285.9" y1="371.7" x2="285.9" y2="371.6"/>
<line class="st1" x1="285.9" y1="362.5" x2="285.9" y2="362.1"/>
<line class="st1" x1="285.9" y1="249.5" x2="285.9" y2="249.2"/>
<line class="st1" x1="285.9" y1="220.6" x2="285.9" y2="220.6"/>
<line class="st1" x1="285.9" y1="224.5" x2="285.9" y2="224.4"/>
<line class="st1" x1="285.9" y1="311.4" x2="285.9" y2="311.2"/>
<linearGradient id="SVGID_6_" gradientUnits="userSpaceOnUse" x1="363.0085" y1="847.1453" x2="363.0085" y2="668.7209" gradientTransform="matrix(1 0 0 1 0 -486)">
	<stop  offset="0" style="stop-color:#FFFFFF;stop-opacity:0"/>
	<stop  offset="0.3045" style="stop-color:#C4C2FF;stop-opacity:0.3045"/>
	<stop  offset="1" style="stop-color:#342AFF"/>
</linearGradient>
<path class="st8" d="M317.3,178.9c4.7,0.4,9.4,1.1,14,2.1c0.2,0.1,0.4,0.2,0.6,0.3c16.5,7.3,31.1,17.5,43.2,29.8
	c12,12.2,21.5,26.6,27.7,42.2c2.5,6.3,4.4,12.7,5.9,19.3c-6.7-11.6-16.2-22.4-28.1-31.3c-13.2-9.8-27.8-16.1-42.3-18.9
	c-4-17-11.3-31.9-20.9-43.3L317.3,178.9z"/>
<linearGradient id="SVGID_7_" gradientUnits="userSpaceOnUse" x1="38.7" y1="961.2493" x2="38.6993" y2="961.3362" gradientTransform="matrix(1 0 0 1 0 -486)">
	<stop  offset="1.986822e-07" style="stop-color:#FFFFFF;stop-opacity:0"/>
	<stop  offset="0.1718" style="stop-color:#CEC5EC;stop-opacity:0.1718"/>
	<stop  offset="0.3979" style="stop-color:#9280D5;stop-opacity:0.3979"/>
	<stop  offset="0.602" style="stop-color:#6349C2;stop-opacity:0.602"/>
	<stop  offset="0.7767" style="stop-color:#4121B5;stop-opacity:0.7767"/>
	<stop  offset="0.9151" style="stop-color:#2C09AD;stop-opacity:0.9151"/>
	<stop  offset="1" style="stop-color:#2400AA"/>
</linearGradient>
<path class="st9" d="M36.6,475.2h4.2c-0.5,0-0.9,0.1-1.4,0.1C38.7,475.3,37.9,475.2,36.6,475.2z"/>
<line class="st1" x1="311.3" y1="455.3" x2="311.3" y2="455.3"/>
<linearGradient id="SVGID_8_" gradientUnits="userSpaceOnUse" x1="140.3" y1="946.0991" x2="140.2993" y2="946.186" gradientTransform="matrix(1 0 0 1 0 -486)">
	<stop  offset="1.986822e-07" style="stop-color:#FFFFFF;stop-opacity:0"/>
	<stop  offset="0.1718" style="stop-color:#CEC5EC;stop-opacity:0.1718"/>
	<stop  offset="0.3979" style="stop-color:#9280D5;stop-opacity:0.3979"/>
	<stop  offset="0.602" style="stop-color:#6349C2;stop-opacity:0.602"/>
	<stop  offset="0.7767" style="stop-color:#4121B5;stop-opacity:0.7767"/>
	<stop  offset="0.9151" style="stop-color:#2C09AD;stop-opacity:0.9151"/>
	<stop  offset="1" style="stop-color:#2400AA"/>
</linearGradient>
<path class="st10" d="M138.2,460.1h4.2c-0.5,0-0.9,0.1-1.4,0.1C140.3,460.2,139.5,460.1,138.2,460.1z"/>
<linearGradient id="SVGID_9_" gradientUnits="userSpaceOnUse" x1="311.4858" y1="454.973" x2="311.4825" y2="455.3753">
	<stop  offset="1.986822e-07" style="stop-color:#FFFFFF;stop-opacity:0"/>
	<stop  offset="0.1701" style="stop-color:#DED9F2;stop-opacity:0.1701"/>
	<stop  offset="0.5519" style="stop-color:#8B78D2;stop-opacity:0.5519"/>
	<stop  offset="1" style="stop-color:#2400AA"/>
</linearGradient>
<path class="st11" d="M310.9,455c0.4,0,0.8,0.1,1.2,0.1c-0.1,0-0.1,0-0.1,0c0,0,0,0,0,0L310.9,455z"/>
</svg>
