<?xml version="1.0" encoding="utf-8"?>
<!-- Generator: Adobe Illustrator 24.1.1, SVG Export Plug-In . SVG Version: 6.00 Build 0)  -->
<svg version="1.1" id="Слой_1" xmlns="http://www.w3.org/2000/svg" xmlns:xlink="http://www.w3.org/1999/xlink" x="0px" y="0px"
	 viewBox="0 0 1000 1000" style="enable-background:new 0 0 1000 1000;" xml:space="preserve">
<style type="text/css">
	.st0{fill:#03A9F4;}
	.st1{fill:#FAFAFA;}
	.st2{fill-rule:evenodd;clip-rule:evenodd;fill:#962C2C;}
	.st3{fill-rule:evenodd;clip-rule:evenodd;fill:#5E4B4B;}
	.st4{fill-rule:evenodd;clip-rule:evenodd;}
	.st5{fill:#FFFFFF;}
</style>
<path d="M137.8,776.1h16.4v-28.5c-2.8-0.4-12.6-1.3-23.9-1.3c-23.6,0-39.8,14.9-39.8,42.2v25.1H64.4v31.9h26.1v80.3h32v-80.3h25
	l4-31.9h-29v-22C122.4,782.4,124.9,776.1,137.8,776.1L137.8,776.1z"/>
<path d="M337.5,876.9c-3.1-3.9-2.2-5.6,0-9.1c0,0,25.6-35.3,28.2-47.3l0,0c1.3-4.4,0-7.6-6.3-7.6h-20.9c-5.3,0-7.8,2.8-9.1,5.8
	c0,0-10.7,25.5-25.7,42c-4.9,4.8-7.1,6.3-9.8,6.3c-1.3,0-3.3-1.5-3.3-5.9v-40.7c0-5.2-1.5-7.6-5.9-7.6h-32.9c-3.3,0-5.3,2.4-5.3,4.7
	c0,5,7.5,6.1,8.3,20.1v30.3c0,6.6-1.2,7.9-3.9,7.9c-7.1,0-24.4-25.6-34.6-54.9c-2.1-5.7-4.1-8-9.5-8h-20.9c-6,0-7.2,2.8-7.2,5.8
	c0,5.4,7.1,32.5,33.1,68.2c17.3,24.4,41.7,37.6,63.9,37.6c13.3,0,15-2.9,15-8c0-23.3-1.2-25.5,5.5-25.5c3.1,0,8.4,1.5,20.9,13.3
	c14.2,14,16.6,20.2,24.5,20.2h20.9c6,0,9-2.9,7.3-8.7C365.7,903.6,338.8,878.6,337.5,876.9z"/>
<path class="st0" d="M559.1,842.2c0-43.2-35.5-78.2-79.3-78.2c-4.6,0-9.2,0.4-13.6,1.1c-7.1-4.4-15.5-7-24.5-7
	c-25.4,0-46,20.3-46,45.4c0,8.4,2.3,16.2,6.3,22.9c-1.1,5.1-1.6,10.3-1.6,15.7c0,43.2,35.5,78.2,79.3,78.2c5,0,9.8-0.5,14.5-1.3
	c6.5,3.4,13.9,5.4,21.8,5.4c25.4,0,46-20.3,46-45.4c0-7.2-1.7-14.1-4.8-20.2C558.5,853.6,559.1,848,559.1,842.2z"/>
<path class="st1" d="M520.5,879.6c-3.7,5.1-9.1,9.2-16.1,12.1c-7,2.8-15.3,4.3-24.8,4.3c-11.4,0-21-2-28.4-5.9
	c-5.3-2.8-9.7-6.7-13.1-11.4c-3.4-4.8-5.1-9.5-5.1-14.1c0-2.8,1.1-5.3,3.3-7.4c2.2-2,5-3,8.3-3c2.7,0,5.1,0.8,7,2.4
	c1.8,1.5,3.4,3.8,4.6,6.7c1.4,3.2,2.9,5.9,4.5,8c1.6,2,3.8,3.8,6.7,5.1s6.8,2,11.5,2c6.6,0,11.9-1.4,16-4.1c4-2.7,5.9-5.9,5.9-9.8
	c0-3.1-1-5.5-3.1-7.4c-2.2-2-5-3.5-8.5-4.6c-3.6-1.1-8.5-2.3-14.6-3.6c-8.2-1.7-15.2-3.8-20.8-6.1c-5.7-2.4-10.3-5.7-13.6-9.8
	c-3.4-4.2-5.1-9.5-5.1-15.7c0-5.9,1.8-11.2,5.4-15.8c3.5-4.6,8.7-8.1,15.4-10.6c6.6-2.4,14.4-3.6,23.3-3.6c7.1,0,13.3,0.8,18.5,2.4
	c5.2,1.6,9.6,3.8,13.1,6.4c3.5,2.7,6.1,5.6,7.7,8.6s2.5,6,2.5,8.9c0,2.8-1.1,5.3-3.3,7.5s-4.9,3.3-8.2,3.3c-2.9,0-5.2-0.7-6.8-2.1
	c-1.5-1.3-3-3.3-4.7-6.2c-2-3.7-4.4-6.6-7.1-8.7c-2.7-2-7.1-3-13.3-3c-5.7,0-10.3,1.1-13.7,3.3c-3.3,2.1-4.9,4.6-4.9,7.5
	c0,1.8,0.5,3.3,1.6,4.5c1.1,1.4,2.7,2.5,4.7,3.5c2.1,1,4.2,1.9,6.4,2.4c2.2,0.6,5.9,1.5,11,2.7c6.4,1.4,12.3,2.9,17.5,4.5
	c5.3,1.7,9.8,3.7,13.6,6.1c3.8,2.4,6.8,5.6,8.9,9.3c2.1,3.8,3.2,8.4,3.2,13.8C526,868.6,524.2,874.5,520.5,879.6z"/>
<path class="st2" d="M502.9,542.4c0-2.4-0.6-4.6-1.5-6.3c-1.1-1.7-2.4-3.1-4.1-4.2c-1.7-1.1-3.9-2.1-6.3-2.8c-2.4-0.6-5.1-1.5-8-2.1
	c-2.3-0.7-4-1.1-5-1.3c-1-0.3-2.1-0.6-2.9-1.1c-0.9-0.5-1.7-1-2.2-1.6c-0.5-0.5-0.7-1.3-0.7-2.1c0-1.3,0.8-2.4,2.3-3.4
	c1.6-1,3.7-1.5,6.3-1.5c2.8,0,4.9,0.4,6.1,1.4s2.4,2.3,3.3,4c0.8,1.3,1.5,2.3,2.2,2.8s1.6,0.9,3,0.9c1.5,0,2.8-0.7,3.8-1.6
	c1.1-0.9,1.5-2.1,1.5-3.4c0-1.4-0.3-2.7-1.1-4.1c-0.6-1.4-1.8-2.6-3.5-3.9c-1.6-1.2-3.7-2.3-6.1-2.9c-2.3-0.8-5.2-1.1-8.5-1.1
	c-4.1,0-7.8,0.5-10.8,1.6c-3,1-5.4,2.7-7.1,4.8c-1.7,2.2-2.5,4.6-2.5,7.3c0,2.8,0.8,5.2,2.4,7.2c1.6,2,3.7,3.5,6.3,4.6
	c2.6,1.1,5.8,2.1,9.6,2.8c2.8,0.6,5,1.2,6.8,1.6c1.6,0.5,2.9,1.3,3.9,2.2c1,0.9,1.4,2,1.4,3.4c0,1.7-0.9,3.2-2.7,4.5
	c-1.8,1.3-4.3,2-7.3,2c-2.2,0-3.8-0.3-5.2-0.9c-1.3-0.7-2.4-1.5-3-2.4c-0.7-1-1.4-2.2-2.1-3.7c-0.5-1.3-1.4-2.4-2.2-3
	c-0.9-0.8-1.9-1.1-3.2-1.1c-1.5,0-2.8,0.5-3.8,1.4c-1.1,0.9-1.5,2.1-1.5,3.4c0,2.2,0.7,4.3,2.3,6.5c1.6,2.2,3.7,3.9,6.1,5.2
	c3.4,1.9,7.7,2.7,12.9,2.7c4.4,0,8.3-0.8,11.4-2c3.2-1.2,5.7-3,7.4-5.5c1.3-2,2.1-4,2.3-6.3C502.9,543.7,502.9,543.1,502.9,542.4z
	 M502.9,542.4c0-2.4-0.6-4.6-1.5-6.3c-1.1-1.7-2.4-3.1-4.1-4.2c-1.7-1.1-3.9-2.1-6.3-2.8c-2.4-0.6-5.1-1.5-8-2.1
	c-2.3-0.7-4-1.1-5-1.3c-1-0.3-2.1-0.6-2.9-1.1c-0.9-0.5-1.7-1-2.2-1.6c-0.5-0.5-0.7-1.3-0.7-2.1c0-1.3,0.8-2.4,2.3-3.4
	c1.6-1,3.7-1.5,6.3-1.5c2.8,0,4.9,0.4,6.1,1.4s2.4,2.3,3.3,4c0.8,1.3,1.5,2.3,2.2,2.8s1.6,0.9,3,0.9c1.5,0,2.8-0.7,3.8-1.6
	c1.1-0.9,1.5-2.1,1.5-3.4c0-1.4-0.3-2.7-1.1-4.1c-0.6-1.4-1.8-2.6-3.5-3.9c-1.6-1.2-3.7-2.3-6.1-2.9c-2.3-0.8-5.2-1.1-8.5-1.1
	c-4.1,0-7.8,0.5-10.8,1.6c-3,1-5.4,2.7-7.1,4.8c-1.7,2.2-2.5,4.6-2.5,7.3c0,2.8,0.8,5.2,2.4,7.2c1.6,2,3.7,3.5,6.3,4.6
	c2.6,1.1,5.8,2.1,9.6,2.8c2.8,0.6,5,1.2,6.8,1.6c1.6,0.5,2.9,1.3,3.9,2.2c1,0.9,1.4,2,1.4,3.4c0,1.7-0.9,3.2-2.7,4.5
	c-1.8,1.3-4.3,2-7.3,2c-2.2,0-3.8-0.3-5.2-0.9c-1.3-0.7-2.4-1.5-3-2.4c-0.7-1-1.4-2.2-2.1-3.7c-0.5-1.3-1.4-2.4-2.2-3
	c-0.9-0.8-1.9-1.1-3.2-1.1c-1.5,0-2.8,0.5-3.8,1.4c-1.1,0.9-1.5,2.1-1.5,3.4c0,2.2,0.7,4.3,2.3,6.5c1.6,2.2,3.7,3.9,6.1,5.2
	c3.4,1.9,7.7,2.7,12.9,2.7c4.4,0,8.3-0.8,11.4-2c3.2-1.2,5.7-3,7.4-5.5c1.3-2,2.1-4,2.3-6.3C502.9,543.7,502.9,543.1,502.9,542.4z
	 M502.9,542.4c0-2.4-0.6-4.6-1.5-6.3c-1.1-1.7-2.4-3.1-4.1-4.2c-1.7-1.1-3.9-2.1-6.3-2.8c-2.4-0.6-5.1-1.5-8-2.1
	c-2.3-0.7-4-1.1-5-1.3c-1-0.3-2.1-0.6-2.9-1.1c-0.9-0.5-1.7-1-2.2-1.6c-0.5-0.5-0.7-1.3-0.7-2.1c0-1.3,0.8-2.4,2.3-3.4
	c1.6-1,3.7-1.5,6.3-1.5c2.8,0,4.9,0.4,6.1,1.4s2.4,2.3,3.3,4c0.8,1.3,1.5,2.3,2.2,2.8s1.6,0.9,3,0.9c1.5,0,2.8-0.7,3.8-1.6
	c1.1-0.9,1.5-2.1,1.5-3.4c0-1.4-0.3-2.7-1.1-4.1c-0.6-1.4-1.8-2.6-3.5-3.9c-1.6-1.2-3.7-2.3-6.1-2.9c-2.3-0.8-5.2-1.1-8.5-1.1
	c-4.1,0-7.8,0.5-10.8,1.6c-3,1-5.4,2.7-7.1,4.8c-1.7,2.2-2.5,4.6-2.5,7.3c0,2.8,0.8,5.2,2.4,7.2c1.6,2,3.7,3.5,6.3,4.6
	c2.6,1.1,5.8,2.1,9.6,2.8c2.8,0.6,5,1.2,6.8,1.6c1.6,0.5,2.9,1.3,3.9,2.2c1,0.9,1.4,2,1.4,3.4c0,1.7-0.9,3.2-2.7,4.5
	c-1.8,1.3-4.3,2-7.3,2c-2.2,0-3.8-0.3-5.2-0.9c-1.3-0.7-2.4-1.5-3-2.4c-0.7-1-1.4-2.2-2.1-3.7c-0.5-1.3-1.4-2.4-2.2-3
	c-0.9-0.8-1.9-1.1-3.2-1.1c-1.5,0-2.8,0.5-3.8,1.4c-1.1,0.9-1.5,2.1-1.5,3.4c0,2.2,0.7,4.3,2.3,6.5c1.6,2.2,3.7,3.9,6.1,5.2
	c3.4,1.9,7.7,2.7,12.9,2.7c4.4,0,8.3-0.8,11.4-2c3.2-1.2,5.7-3,7.4-5.5c1.3-2,2.1-4,2.3-6.3C502.9,543.7,502.9,543.1,502.9,542.4z
	 M502.9,542.4c0-2.4-0.6-4.6-1.5-6.3c-1.1-1.7-2.4-3.1-4.1-4.2c-1.7-1.1-3.9-2.1-6.3-2.8c-2.4-0.6-5.1-1.5-8-2.1
	c-2.3-0.7-4-1.1-5-1.3c-1-0.3-2.1-0.6-2.9-1.1c-0.9-0.5-1.7-1-2.2-1.6c-0.5-0.5-0.7-1.3-0.7-2.1c0-1.3,0.8-2.4,2.3-3.4
	c1.6-1,3.7-1.5,6.3-1.5c2.8,0,4.9,0.4,6.1,1.4s2.4,2.3,3.3,4c0.8,1.3,1.5,2.3,2.2,2.8s1.6,0.9,3,0.9c1.5,0,2.8-0.7,3.8-1.6
	c1.1-0.9,1.5-2.1,1.5-3.4c0-1.4-0.3-2.7-1.1-4.1c-0.6-1.4-1.8-2.6-3.5-3.9c-1.6-1.2-3.7-2.3-6.1-2.9c-2.3-0.8-5.2-1.1-8.5-1.1
	c-4.1,0-7.8,0.5-10.8,1.6c-3,1-5.4,2.7-7.1,4.8c-1.7,2.2-2.5,4.6-2.5,7.3c0,2.8,0.8,5.2,2.4,7.2c1.6,2,3.7,3.5,6.3,4.6
	c2.6,1.1,5.8,2.1,9.6,2.8c2.8,0.6,5,1.2,6.8,1.6c1.6,0.5,2.9,1.3,3.9,2.2c1,0.9,1.4,2,1.4,3.4c0,1.7-0.9,3.2-2.7,4.5
	c-1.8,1.3-4.3,2-7.3,2c-2.2,0-3.8-0.3-5.2-0.9c-1.3-0.7-2.4-1.5-3-2.4c-0.7-1-1.4-2.2-2.1-3.7c-0.5-1.3-1.4-2.4-2.2-3
	c-0.9-0.8-1.9-1.1-3.2-1.1c-1.5,0-2.8,0.5-3.8,1.4c-1.1,0.9-1.5,2.1-1.5,3.4c0,2.2,0.7,4.3,2.3,6.5c1.6,2.2,3.7,3.9,6.1,5.2
	c3.4,1.9,7.7,2.7,12.9,2.7c4.4,0,8.3-0.8,11.4-2c3.2-1.2,5.7-3,7.4-5.5c1.3-2,2.1-4,2.3-6.3C502.9,543.7,502.9,543.1,502.9,542.4z
	 M502.9,542.4c0-2.4-0.6-4.6-1.5-6.3c-1.1-1.7-2.4-3.1-4.1-4.2c-1.7-1.1-3.9-2.1-6.3-2.8c-2.4-0.6-5.1-1.5-8-2.1
	c-2.3-0.7-4-1.1-5-1.3c-1-0.3-2.1-0.6-2.9-1.1c-0.9-0.5-1.7-1-2.2-1.6c-0.5-0.5-0.7-1.3-0.7-2.1c0-1.3,0.8-2.4,2.3-3.4
	c1.6-1,3.7-1.5,6.3-1.5c2.8,0,4.9,0.4,6.1,1.4s2.4,2.3,3.3,4c0.8,1.3,1.5,2.3,2.2,2.8s1.6,0.9,3,0.9c1.5,0,2.8-0.7,3.8-1.6
	c1.1-0.9,1.5-2.1,1.5-3.4c0-1.4-0.3-2.7-1.1-4.1c-0.6-1.4-1.8-2.6-3.5-3.9c-1.6-1.2-3.7-2.3-6.1-2.9c-2.3-0.8-5.2-1.1-8.5-1.1
	c-4.1,0-7.8,0.5-10.8,1.6c-3,1-5.4,2.7-7.1,4.8c-1.7,2.2-2.5,4.6-2.5,7.3c0,2.8,0.8,5.2,2.4,7.2c1.6,2,3.7,3.5,6.3,4.6
	c2.6,1.1,5.8,2.1,9.6,2.8c2.8,0.6,5,1.2,6.8,1.6c1.6,0.5,2.9,1.3,3.9,2.2c1,0.9,1.4,2,1.4,3.4c0,1.7-0.9,3.2-2.7,4.5
	c-1.8,1.3-4.3,2-7.3,2c-2.2,0-3.8-0.3-5.2-0.9c-1.3-0.7-2.4-1.5-3-2.4c-0.7-1-1.4-2.2-2.1-3.7c-0.5-1.3-1.4-2.4-2.2-3
	c-0.9-0.8-1.9-1.1-3.2-1.1c-1.5,0-2.8,0.5-3.8,1.4c-1.1,0.9-1.5,2.1-1.5,3.4c0,2.2,0.7,4.3,2.3,6.5c1.6,2.2,3.7,3.9,6.1,5.2
	c3.4,1.9,7.7,2.7,12.9,2.7c4.4,0,8.3-0.8,11.4-2c3.2-1.2,5.7-3,7.4-5.5c1.3-2,2.1-4,2.3-6.3C502.9,543.7,502.9,543.1,502.9,542.4z
	 M502.9,542.4c0-2.4-0.6-4.6-1.5-6.3c-1.1-1.7-2.4-3.1-4.1-4.2c-1.7-1.1-3.9-2.1-6.3-2.8c-2.4-0.6-5.1-1.5-8-2.1
	c-2.3-0.7-4-1.1-5-1.3c-1-0.3-2.1-0.6-2.9-1.1c-0.9-0.5-1.7-1-2.2-1.6c-0.5-0.5-0.7-1.3-0.7-2.1c0-1.3,0.8-2.4,2.3-3.4
	c1.6-1,3.7-1.5,6.3-1.5c2.8,0,4.9,0.4,6.1,1.4s2.4,2.3,3.3,4c0.8,1.3,1.5,2.3,2.2,2.8s1.6,0.9,3,0.9c1.5,0,2.8-0.7,3.8-1.6
	c1.1-0.9,1.5-2.1,1.5-3.4c0-1.4-0.3-2.7-1.1-4.1c-0.6-1.4-1.8-2.6-3.5-3.9c-1.6-1.2-3.7-2.3-6.1-2.9c-2.3-0.8-5.2-1.1-8.5-1.1
	c-4.1,0-7.8,0.5-10.8,1.6c-3,1-5.4,2.7-7.1,4.8c-1.7,2.2-2.5,4.6-2.5,7.3c0,2.8,0.8,5.2,2.4,7.2c1.6,2,3.7,3.5,6.3,4.6
	c2.6,1.1,5.8,2.1,9.6,2.8c2.8,0.6,5,1.2,6.8,1.6c1.6,0.5,2.9,1.3,3.9,2.2c1,0.9,1.4,2,1.4,3.4c0,1.7-0.9,3.2-2.7,4.5
	c-1.8,1.3-4.3,2-7.3,2c-2.2,0-3.8-0.3-5.2-0.9c-1.3-0.7-2.4-1.5-3-2.4c-0.7-1-1.4-2.2-2.1-3.7c-0.5-1.3-1.4-2.4-2.2-3
	c-0.9-0.8-1.9-1.1-3.2-1.1c-1.5,0-2.8,0.5-3.8,1.4c-1.1,0.9-1.5,2.1-1.5,3.4c0,2.2,0.7,4.3,2.3,6.5c1.6,2.2,3.7,3.9,6.1,5.2
	c3.4,1.9,7.7,2.7,12.9,2.7c4.4,0,8.3-0.8,11.4-2c3.2-1.2,5.7-3,7.4-5.5c1.3-2,2.1-4,2.3-6.3C502.9,543.7,502.9,543.1,502.9,542.4z
	 M502.9,542.4c0-2.4-0.6-4.6-1.5-6.3c-1.1-1.7-2.4-3.1-4.1-4.2c-1.7-1.1-3.9-2.1-6.3-2.8c-2.4-0.6-5.1-1.5-8-2.1
	c-2.3-0.7-4-1.1-5-1.3c-1-0.3-2.1-0.6-2.9-1.1c-0.9-0.5-1.7-1-2.2-1.6c-0.5-0.5-0.7-1.3-0.7-2.1c0-1.3,0.8-2.4,2.3-3.4
	c1.6-1,3.7-1.5,6.3-1.5c2.8,0,4.9,0.4,6.1,1.4s2.4,2.3,3.3,4c0.8,1.3,1.5,2.3,2.2,2.8s1.6,0.9,3,0.9c1.5,0,2.8-0.7,3.8-1.6
	c1.1-0.9,1.5-2.1,1.5-3.4c0-1.4-0.3-2.7-1.1-4.1c-0.6-1.4-1.8-2.6-3.5-3.9c-1.6-1.2-3.7-2.3-6.1-2.9c-2.3-0.8-5.2-1.1-8.5-1.1
	c-4.1,0-7.8,0.5-10.8,1.6c-3,1-5.4,2.7-7.1,4.8c-1.7,2.2-2.5,4.6-2.5,7.3c0,2.8,0.8,5.2,2.4,7.2c1.6,2,3.7,3.5,6.3,4.6
	c2.6,1.1,5.8,2.1,9.6,2.8c2.8,0.6,5,1.2,6.8,1.6c1.6,0.5,2.9,1.3,3.9,2.2c1,0.9,1.4,2,1.4,3.4c0,1.7-0.9,3.2-2.7,4.5
	c-1.8,1.3-4.3,2-7.3,2c-2.2,0-3.8-0.3-5.2-0.9c-1.3-0.7-2.4-1.5-3-2.4c-0.7-1-1.4-2.2-2.1-3.7c-0.5-1.3-1.4-2.4-2.2-3
	c-0.9-0.8-1.9-1.1-3.2-1.1c-1.5,0-2.8,0.5-3.8,1.4c-1.1,0.9-1.5,2.1-1.5,3.4c0,2.2,0.7,4.3,2.3,6.5c1.6,2.2,3.7,3.9,6.1,5.2
	c3.4,1.9,7.7,2.7,12.9,2.7c4.4,0,8.3-0.8,11.4-2c3.2-1.2,5.7-3,7.4-5.5c1.3-2,2.1-4,2.3-6.3C502.9,543.7,502.9,543.1,502.9,542.4z
	 M502.9,542.4c0-2.4-0.6-4.6-1.5-6.3c-1.1-1.7-2.4-3.1-4.1-4.2c-1.7-1.1-3.9-2.1-6.3-2.8c-2.4-0.6-5.1-1.5-8-2.1
	c-2.3-0.7-4-1.1-5-1.3c-1-0.3-2.1-0.6-2.9-1.1c-0.9-0.5-1.7-1-2.2-1.6c-0.5-0.5-0.7-1.3-0.7-2.1c0-1.3,0.8-2.4,2.3-3.4
	c1.6-1,3.7-1.5,6.3-1.5c2.8,0,4.9,0.4,6.1,1.4s2.4,2.3,3.3,4c0.8,1.3,1.5,2.3,2.2,2.8s1.6,0.9,3,0.9c1.5,0,2.8-0.7,3.8-1.6
	c1.1-0.9,1.5-2.1,1.5-3.4c0-1.4-0.3-2.7-1.1-4.1c-0.6-1.4-1.8-2.6-3.5-3.9c-1.6-1.2-3.7-2.3-6.1-2.9c-2.3-0.8-5.2-1.1-8.5-1.1
	c-4.1,0-7.8,0.5-10.8,1.6c-3,1-5.4,2.7-7.1,4.8c-1.7,2.2-2.5,4.6-2.5,7.3c0,2.8,0.8,5.2,2.4,7.2c1.6,2,3.7,3.5,6.3,4.6
	c2.6,1.1,5.8,2.1,9.6,2.8c2.8,0.6,5,1.2,6.8,1.6c1.6,0.5,2.9,1.3,3.9,2.2c1,0.9,1.4,2,1.4,3.4c0,1.7-0.9,3.2-2.7,4.5
	c-1.8,1.3-4.3,2-7.3,2c-2.2,0-3.8-0.3-5.2-0.9c-1.3-0.7-2.4-1.5-3-2.4c-0.7-1-1.4-2.2-2.1-3.7c-0.5-1.3-1.4-2.4-2.2-3
	c-0.9-0.8-1.9-1.1-3.2-1.1c-1.5,0-2.8,0.5-3.8,1.4c-1.1,0.9-1.5,2.1-1.5,3.4c0,2.2,0.7,4.3,2.3,6.5c1.6,2.2,3.7,3.9,6.1,5.2
	c3.4,1.9,7.7,2.7,12.9,2.7c4.4,0,8.3-0.8,11.4-2c3.2-1.2,5.7-3,7.4-5.5c1.3-2,2.1-4,2.3-6.3C502.9,543.7,502.9,543.1,502.9,542.4z
	 M502.9,542.4c0-2.4-0.6-4.6-1.5-6.3c-1.1-1.7-2.4-3.1-4.1-4.2c-1.7-1.1-3.9-2.1-6.3-2.8c-2.4-0.6-5.1-1.5-8-2.1
	c-2.3-0.7-4-1.1-5-1.3c-1-0.3-2.1-0.6-2.9-1.1c-0.9-0.5-1.7-1-2.2-1.6c-0.5-0.5-0.7-1.3-0.7-2.1c0-1.3,0.8-2.4,2.3-3.4
	c1.6-1,3.7-1.5,6.3-1.5c2.8,0,4.9,0.4,6.1,1.4s2.4,2.3,3.3,4c0.8,1.3,1.5,2.3,2.2,2.8s1.6,0.9,3,0.9c1.5,0,2.8-0.7,3.8-1.6
	c1.1-0.9,1.5-2.1,1.5-3.4c0-1.4-0.3-2.7-1.1-4.1c-0.6-1.4-1.8-2.6-3.5-3.9c-1.6-1.2-3.7-2.3-6.1-2.9c-2.3-0.8-5.2-1.1-8.5-1.1
	c-4.1,0-7.8,0.5-10.8,1.6c-3,1-5.4,2.7-7.1,4.8c-1.7,2.2-2.5,4.6-2.5,7.3c0,2.8,0.8,5.2,2.4,7.2c1.6,2,3.7,3.5,6.3,4.6
	c2.6,1.1,5.8,2.1,9.6,2.8c2.8,0.6,5,1.2,6.8,1.6c1.6,0.5,2.9,1.3,3.9,2.2c1,0.9,1.4,2,1.4,3.4c0,1.7-0.9,3.2-2.7,4.5
	c-1.8,1.3-4.3,2-7.3,2c-2.2,0-3.8-0.3-5.2-0.9c-1.3-0.7-2.4-1.5-3-2.4c-0.7-1-1.4-2.2-2.1-3.7c-0.5-1.3-1.4-2.4-2.2-3
	c-0.9-0.8-1.9-1.1-3.2-1.1c-1.5,0-2.8,0.5-3.8,1.4c-1.1,0.9-1.5,2.1-1.5,3.4c0,2.2,0.7,4.3,2.3,6.5c1.6,2.2,3.7,3.9,6.1,5.2
	c3.4,1.9,7.7,2.7,12.9,2.7c4.4,0,8.3-0.8,11.4-2c3.2-1.2,5.7-3,7.4-5.5c1.3-2,2.1-4,2.3-6.3C502.9,543.7,502.9,543.1,502.9,542.4z
	 M502.9,542.4c0-2.4-0.6-4.6-1.5-6.3c-1.1-1.7-2.4-3.1-4.1-4.2c-1.7-1.1-3.9-2.1-6.3-2.8c-2.4-0.6-5.1-1.5-8-2.1
	c-2.3-0.7-4-1.1-5-1.3c-1-0.3-2.1-0.6-2.9-1.1c-0.9-0.5-1.7-1-2.2-1.6c-0.5-0.5-0.7-1.3-0.7-2.1c0-1.3,0.8-2.4,2.3-3.4
	c1.6-1,3.7-1.5,6.3-1.5c2.8,0,4.9,0.4,6.1,1.4s2.4,2.3,3.3,4c0.8,1.3,1.5,2.3,2.2,2.8s1.6,0.9,3,0.9c1.5,0,2.8-0.7,3.8-1.6
	c1.1-0.9,1.5-2.1,1.5-3.4c0-1.4-0.3-2.7-1.1-4.1c-0.6-1.4-1.8-2.6-3.5-3.9c-1.6-1.2-3.7-2.3-6.1-2.9c-2.3-0.8-5.2-1.1-8.5-1.1
	c-4.1,0-7.8,0.5-10.8,1.6c-3,1-5.4,2.7-7.1,4.8c-1.7,2.2-2.5,4.6-2.5,7.3c0,2.8,0.8,5.2,2.4,7.2c1.6,2,3.7,3.5,6.3,4.6
	c2.6,1.1,5.8,2.1,9.6,2.8c2.8,0.6,5,1.2,6.8,1.6c1.6,0.5,2.9,1.3,3.9,2.2c1,0.9,1.4,2,1.4,3.4c0,1.7-0.9,3.2-2.7,4.5
	c-1.8,1.3-4.3,2-7.3,2c-2.2,0-3.8-0.3-5.2-0.9c-1.3-0.7-2.4-1.5-3-2.4c-0.7-1-1.4-2.2-2.1-3.7c-0.5-1.3-1.4-2.4-2.2-3
	c-0.9-0.8-1.9-1.1-3.2-1.1c-1.5,0-2.8,0.5-3.8,1.4c-1.1,0.9-1.5,2.1-1.5,3.4c0,2.2,0.7,4.3,2.3,6.5c1.6,2.2,3.7,3.9,6.1,5.2
	c3.4,1.9,7.7,2.7,12.9,2.7c4.4,0,8.3-0.8,11.4-2c3.2-1.2,5.7-3,7.4-5.5c1.3-2,2.1-4,2.3-6.3C502.9,543.7,502.9,543.1,502.9,542.4z
	 M502.9,542.4c0-2.4-0.6-4.6-1.5-6.3c-1.1-1.7-2.4-3.1-4.1-4.2c-1.7-1.1-3.9-2.1-6.3-2.8c-2.4-0.6-5.1-1.5-8-2.1
	c-2.3-0.7-4-1.1-5-1.3c-1-0.3-2.1-0.6-2.9-1.1c-0.9-0.5-1.7-1-2.2-1.6c-0.5-0.5-0.7-1.3-0.7-2.1c0-1.3,0.8-2.4,2.3-3.4
	c1.6-1,3.7-1.5,6.3-1.5c2.8,0,4.9,0.4,6.1,1.4s2.4,2.3,3.3,4c0.8,1.3,1.5,2.3,2.2,2.8s1.6,0.9,3,0.9c1.5,0,2.8-0.7,3.8-1.6
	c1.1-0.9,1.5-2.1,1.5-3.4c0-1.4-0.3-2.7-1.1-4.1c-0.6-1.4-1.8-2.6-3.5-3.9c-1.6-1.2-3.7-2.3-6.1-2.9c-2.3-0.8-5.2-1.1-8.5-1.1
	c-4.1,0-7.8,0.5-10.8,1.6c-3,1-5.4,2.7-7.1,4.8c-1.7,2.2-2.5,4.6-2.5,7.3c0,2.8,0.8,5.2,2.4,7.2c1.6,2,3.7,3.5,6.3,4.6
	c2.6,1.1,5.8,2.1,9.6,2.8c2.8,0.6,5,1.2,6.8,1.6c1.6,0.5,2.9,1.3,3.9,2.2c1,0.9,1.4,2,1.4,3.4c0,1.7-0.9,3.2-2.7,4.5
	c-1.8,1.3-4.3,2-7.3,2c-2.2,0-3.8-0.3-5.2-0.9c-1.3-0.7-2.4-1.5-3-2.4c-0.7-1-1.4-2.2-2.1-3.7c-0.5-1.3-1.4-2.4-2.2-3
	c-0.9-0.8-1.9-1.1-3.2-1.1c-1.5,0-2.8,0.5-3.8,1.4c-1.1,0.9-1.5,2.1-1.5,3.4c0,2.2,0.7,4.3,2.3,6.5c1.6,2.2,3.7,3.9,6.1,5.2
	c3.4,1.9,7.7,2.7,12.9,2.7c4.4,0,8.3-0.8,11.4-2c3.2-1.2,5.7-3,7.4-5.5c1.3-2,2.1-4,2.3-6.3C502.9,543.7,502.9,543.1,502.9,542.4z
	 M502.9,542.4c0-2.4-0.6-4.6-1.5-6.3c-1.1-1.7-2.4-3.1-4.1-4.2c-1.7-1.1-3.9-2.1-6.3-2.8c-2.4-0.6-5.1-1.5-8-2.1
	c-2.3-0.7-4-1.1-5-1.3c-1-0.3-2.1-0.6-2.9-1.1c-0.9-0.5-1.7-1-2.2-1.6c-0.5-0.5-0.7-1.3-0.7-2.1c0-1.3,0.8-2.4,2.3-3.4
	c1.6-1,3.7-1.5,6.3-1.5c2.8,0,4.9,0.4,6.1,1.4s2.4,2.3,3.3,4c0.8,1.3,1.5,2.3,2.2,2.8s1.6,0.9,3,0.9c1.5,0,2.8-0.7,3.8-1.6
	c1.1-0.9,1.5-2.1,1.5-3.4c0-1.4-0.3-2.7-1.1-4.1c-0.6-1.4-1.8-2.6-3.5-3.9c-1.6-1.2-3.7-2.3-6.1-2.9c-2.3-0.8-5.2-1.1-8.5-1.1
	c-4.1,0-7.8,0.5-10.8,1.6c-3,1-5.4,2.7-7.1,4.8c-1.7,2.2-2.5,4.6-2.5,7.3c0,2.8,0.8,5.2,2.4,7.2c1.6,2,3.7,3.5,6.3,4.6
	c2.6,1.1,5.8,2.1,9.6,2.8c2.8,0.6,5,1.2,6.8,1.6c1.6,0.5,2.9,1.3,3.9,2.2c1,0.9,1.4,2,1.4,3.4c0,1.7-0.9,3.2-2.7,4.5
	c-1.8,1.3-4.3,2-7.3,2c-2.2,0-3.8-0.3-5.2-0.9c-1.3-0.7-2.4-1.5-3-2.4c-0.7-1-1.4-2.2-2.1-3.7c-0.5-1.3-1.4-2.4-2.2-3
	c-0.9-0.8-1.9-1.1-3.2-1.1c-1.5,0-2.8,0.5-3.8,1.4c-1.1,0.9-1.5,2.1-1.5,3.4c0,2.2,0.7,4.3,2.3,6.5c1.6,2.2,3.7,3.9,6.1,5.2
	c3.4,1.9,7.7,2.7,12.9,2.7c4.4,0,8.3-0.8,11.4-2c3.2-1.2,5.7-3,7.4-5.5c1.3-2,2.1-4,2.3-6.3C502.9,543.7,502.9,543.1,502.9,542.4z
	 M502.9,542.4c0-2.4-0.6-4.6-1.5-6.3c-1.1-1.7-2.4-3.1-4.1-4.2c-1.7-1.1-3.9-2.1-6.3-2.8c-2.4-0.6-5.1-1.5-8-2.1
	c-2.3-0.7-4-1.1-5-1.3c-1-0.3-2.1-0.6-2.9-1.1c-0.9-0.5-1.7-1-2.2-1.6c-0.5-0.5-0.7-1.3-0.7-2.1c0-1.3,0.8-2.4,2.3-3.4
	c1.6-1,3.7-1.5,6.3-1.5c2.8,0,4.9,0.4,6.1,1.4s2.4,2.3,3.3,4c0.8,1.3,1.5,2.3,2.2,2.8s1.6,0.9,3,0.9c1.5,0,2.8-0.7,3.8-1.6
	c1.1-0.9,1.5-2.1,1.5-3.4c0-1.4-0.3-2.7-1.1-4.1c-0.6-1.4-1.8-2.6-3.5-3.9c-1.6-1.2-3.7-2.3-6.1-2.9c-2.3-0.8-5.2-1.1-8.5-1.1
	c-4.1,0-7.8,0.5-10.8,1.6c-3,1-5.4,2.7-7.1,4.8c-1.7,2.2-2.5,4.6-2.5,7.3c0,2.8,0.8,5.2,2.4,7.2c1.6,2,3.7,3.5,6.3,4.6
	c2.6,1.1,5.8,2.1,9.6,2.8c2.8,0.6,5,1.2,6.8,1.6c1.6,0.5,2.9,1.3,3.9,2.2c1,0.9,1.4,2,1.4,3.4c0,1.7-0.9,3.2-2.7,4.5
	c-1.8,1.3-4.3,2-7.3,2c-2.2,0-3.8-0.3-5.2-0.9c-1.3-0.7-2.4-1.5-3-2.4c-0.7-1-1.4-2.2-2.1-3.7c-0.5-1.3-1.4-2.4-2.2-3
	c-0.9-0.8-1.9-1.1-3.2-1.1c-1.5,0-2.8,0.5-3.8,1.4c-1.1,0.9-1.5,2.1-1.5,3.4c0,2.2,0.7,4.3,2.3,6.5c1.6,2.2,3.7,3.9,6.1,5.2
	c3.4,1.9,7.7,2.7,12.9,2.7c4.4,0,8.3-0.8,11.4-2c3.2-1.2,5.7-3,7.4-5.5c1.3-1.9,2.1-3.9,2.3-6.3
	C502.9,543.7,502.9,543.1,502.9,542.4z M502.9,542.4c0-2.4-0.6-4.6-1.5-6.3c-1.1-1.7-2.4-3.1-4.1-4.2c-1.7-1.1-3.9-2.1-6.3-2.8
	c-2.4-0.6-5.1-1.5-8-2.1c-2.3-0.7-4-1.1-5-1.3c-1-0.3-2.1-0.6-2.9-1.1c-0.9-0.5-1.7-1-2.2-1.6c-0.5-0.5-0.7-1.3-0.7-2.1
	c0-1.3,0.8-2.4,2.3-3.4c1.6-1,3.7-1.5,6.3-1.5c2.8,0,4.9,0.4,6.1,1.4s2.4,2.3,3.3,4c0.8,1.3,1.5,2.3,2.2,2.8s1.6,0.9,3,0.9
	c1.5,0,2.8-0.7,3.8-1.6c1.1-0.9,1.5-2.1,1.5-3.4c0-1.4-0.3-2.7-1.1-4.1c-0.6-1.4-1.8-2.6-3.5-3.9c-1.6-1.2-3.7-2.3-6.1-2.9
	c-2.3-0.8-5.2-1.1-8.5-1.1c-4.1,0-7.8,0.5-10.8,1.6c-3,1-5.4,2.7-7.1,4.8c-1.7,2.2-2.5,4.6-2.5,7.3c0,2.8,0.8,5.2,2.4,7.2
	c1.6,2,3.7,3.5,6.3,4.6c2.6,1.1,5.8,2.1,9.6,2.8c2.8,0.6,5,1.2,6.8,1.6c1.6,0.5,2.9,1.3,3.9,2.2c1,0.9,1.4,2,1.4,3.4
	c0,1.7-0.9,3.2-2.7,4.5c-1.8,1.3-4.3,2-7.3,2c-2.2,0-3.8-0.3-5.2-0.9c-1.3-0.7-2.4-1.5-3-2.4c-0.7-1-1.4-2.2-2.1-3.7
	c-0.5-1.3-1.4-2.4-2.2-3c-0.9-0.8-1.9-1.1-3.2-1.1c-1.5,0-2.8,0.5-3.8,1.4c-1.1,0.9-1.5,2.1-1.5,3.4c0,2.2,0.7,4.3,2.3,6.5
	c1.6,2.2,3.7,3.9,6.1,5.2c3.4,1.9,7.7,2.7,12.9,2.7c4.4,0,8.3-0.8,11.4-2c3.2-1.2,5.7-3,7.4-5.5c1.3-1.9,2.1-3.9,2.3-6.3
	C502.9,543.7,502.9,543.1,502.9,542.4z M502.9,542.4c0-2.4-0.6-4.6-1.5-6.3c-1.1-1.7-2.4-3.1-4.1-4.2c-1.7-1.1-3.9-2.1-6.3-2.8
	c-2.4-0.6-5.1-1.5-8-2.1c-2.3-0.7-4-1.1-5-1.3c-1-0.3-2.1-0.6-2.9-1.1c-0.9-0.5-1.7-1-2.2-1.6c-0.5-0.5-0.7-1.3-0.7-2.1
	c0-1.3,0.8-2.4,2.3-3.4c1.6-1,3.7-1.5,6.3-1.5c2.8,0,4.9,0.4,6.1,1.4s2.4,2.3,3.3,4c0.8,1.3,1.5,2.3,2.2,2.8s1.6,0.9,3,0.9
	c1.5,0,2.8-0.7,3.8-1.6c1.1-0.9,1.5-2.1,1.5-3.4c0-1.4-0.3-2.7-1.1-4.1c-0.6-1.4-1.8-2.6-3.5-3.9c-1.6-1.2-3.7-2.3-6.1-2.9
	c-2.3-0.8-5.2-1.1-8.5-1.1c-4.1,0-7.8,0.5-10.8,1.6c-3,1-5.4,2.7-7.1,4.8c-1.7,2.2-2.5,4.6-2.5,7.3c0,2.8,0.8,5.2,2.4,7.2
	c1.6,2,3.7,3.5,6.3,4.6c2.6,1.1,5.8,2.1,9.6,2.8c2.8,0.6,5,1.2,6.8,1.6c1.6,0.5,2.9,1.3,3.9,2.2c1,0.9,1.4,2,1.4,3.4
	c0,1.7-0.9,3.2-2.7,4.5c-1.8,1.3-4.3,2-7.3,2c-2.2,0-3.8-0.3-5.2-0.9c-1.3-0.7-2.4-1.5-3-2.4c-0.7-1-1.4-2.2-2.1-3.7
	c-0.5-1.3-1.4-2.4-2.2-3c-0.9-0.8-1.9-1.1-3.2-1.1c-1.5,0-2.8,0.5-3.8,1.4c-1.1,0.9-1.5,2.1-1.5,3.4c0,2.2,0.7,4.3,2.3,6.5
	c1.6,2.2,3.7,3.9,6.1,5.2c3.4,1.9,7.7,2.7,12.9,2.7c4.4,0,8.3-0.8,11.4-2c3.2-1.2,5.7-3,7.4-5.5c1.3-1.9,2.1-3.9,2.3-6.3
	C502.9,543.7,502.9,543.1,502.9,542.4z M502.9,542.4c0-2.4-0.6-4.6-1.5-6.3c-1.1-1.7-2.4-3.1-4.1-4.2c-1.7-1.1-3.9-2.1-6.3-2.8
	c-2.4-0.6-5.1-1.5-8-2.1c-2.3-0.7-4-1.1-5-1.3c-1-0.3-2.1-0.6-2.9-1.1c-0.9-0.5-1.7-1-2.2-1.6c-0.5-0.5-0.7-1.3-0.7-2.1
	c0-1.3,0.8-2.4,2.3-3.4c1.6-1,3.7-1.5,6.3-1.5c2.8,0,4.9,0.4,6.1,1.4s2.4,2.3,3.3,4c0.8,1.3,1.5,2.3,2.2,2.8s1.6,0.9,3,0.9
	c1.5,0,2.8-0.7,3.8-1.6c1.1-0.9,1.5-2.1,1.5-3.4c0-1.4-0.3-2.7-1.1-4.1c-0.6-1.4-1.8-2.6-3.5-3.9c-1.6-1.2-3.7-2.3-6.1-2.9
	c-2.3-0.8-5.2-1.1-8.5-1.1c-4.1,0-7.8,0.5-10.8,1.6c-3,1-5.4,2.7-7.1,4.8c-1.7,2.2-2.5,4.6-2.5,7.3c0,2.8,0.8,5.2,2.4,7.2
	c1.6,2,3.7,3.5,6.3,4.6c2.6,1.1,5.8,2.1,9.6,2.8c2.8,0.6,5,1.2,6.8,1.6c1.6,0.5,2.9,1.3,3.9,2.2c1,0.9,1.4,2,1.4,3.4
	c0,1.7-0.9,3.2-2.7,4.5c-1.8,1.3-4.3,2-7.3,2c-2.2,0-3.8-0.3-5.2-0.9c-1.3-0.7-2.4-1.5-3-2.4c-0.7-1-1.4-2.2-2.1-3.7
	c-0.5-1.3-1.4-2.4-2.2-3c-0.9-0.8-1.9-1.1-3.2-1.1c-1.5,0-2.8,0.5-3.8,1.4c-1.1,0.9-1.5,2.1-1.5,3.4c0,2.2,0.7,4.3,2.3,6.5
	c1.6,2.2,3.7,3.9,6.1,5.2c3.4,1.9,7.7,2.7,12.9,2.7c4.4,0,8.3-0.8,11.4-2c3.2-1.2,5.7-3,7.4-5.5c1.3-1.9,2.1-3.9,2.3-6.3
	C502.9,543.7,502.9,543.1,502.9,542.4z M542.2,524.4c0-0.4-1.1-1.6-2.2,0.6c-2.8,6.2-3.2,1.8-5.3,4.2c-1.7,1.9-1.9,1.5-1.5,2.6
	c1.4,3.1-5.5,4.9-5.1,2.5c1.3-5.7,5.1-8.4,3.7-9.9c-1.4-1.5-0.8-1.7,0.4-4.3c2.2-4.3,2.9-5.6,1.9-5.6c-0.2,0-0.4,0-0.4,0.1
	c-0.8,1.8-2.2,3.3-3.1,5c-1.1,1.9-5.4,3.8-2.3-3.8c0.2-0.4-0.2-1.1-0.8-1.3c-0.6-0.2-1.5-0.4-2-0.8c-1.1-0.8-3.2-0.1-3.1-1.6
	c0.2-2.6-1.5-2.8-3.8-5.1c-0.2-0.2-1.7-1.3-0.8-1.6c1.3-0.5,2.9,1.5,2.9-0.5c0-0.9,0.4-1.7,0.4-2.7c0-0.4-0.7-1.1-1.1-0.9
	c-1.4,0.4-2,1.3-2.8-0.2c-0.4-0.9,0.6-1.1,1.1-1.4c2-0.9,0.4-2.3,2.3-2.7c1.5-0.4,3.1,0.1,3-2.3c0-0.1-0.2-0.3-0.5-0.9
	c-0.3-0.5-0.8-1.3-1.5-2.5c0.9-0.1,2.1-1.1,1.4-2c-3.1-3.8-2.4-1.5-5.5-2.9c-1.3-0.5-0.6-2.6-0.2-3.3c1.3-2.3,2.3-2.4,1.6-3.1
	c-0.8-0.8-2.3-1.6-1.7-3.1c0.1-0.2,0.6-1.8,0.4-2c-0.9-1.1-1.9,1.6-4,0c-1-0.6-2,0.9-4.7,4.1c-1.6,1.9-1.8,0.2-4,2.7
	c-1.4,1.6-1.1,3-2.9,4.5c-1,0.8-1.8,2-2.6,0.9c-0.2-0.3-0.4-0.5-0.5-0.8l-0.1-0.1c-3.1-4.3-2.5-3.4-1-5.3c0.5-0.7,0-2.5-1.5-1.9
	c-0.4,0.2-1.6,0.8-1.9-0.1c-0.3-0.9,1.7-1.1,0.5-2.7c-0.6-0.9-1.8-1.3-2.6-2c-0.3-0.3-0.2-1.3,0.2-1.4c1.7-0.8,2.7-0.2,2.7-1.9
	c0.2-3.3,0.5-4.2-0.8-4.2c-2.1,0-1.7-1-3.3-2.4c-1.1-0.9-0.7-2-1.7-1.8c-7.1,1.8-0.3,0.3-9.3-1.3c-1-0.2-0.8-1-1.5-2.2
	c-1.1-2-3.7-1.8-4.3-1.7c-0.8,0.1-1.4-0.4-3.9-2c-1-0.6-1.8,0.4-3.9,2.5c-0.8,0.8-1.7,0.6-2.5,0.9c-0.7,0.2-1.3,1.3-1,1.7
	c0.3,1.3,1.1,2.4,1.3,3.7c0.8,1.3,1.4,2.6,2.8,3.2c1.7,0.8-1.3,3.7-0.5,5c0.3,0.6,1,1.5,0.6,2.5c-0.6,2.3-2.7,5.2-3.4,3.1
	c-0.3-0.8,0.1-1.9-1.3-2.2c-0.9-1.1,1.3-2.9,2.1-4c1-1.1-0.5-2.5-1.8-3.4c-1.3-0.9-1.9,1.4-3.9,1.4c-2.4,2-1.7,2.7-5.3,5.4
	c-0.3,0.2-1.1,1.4-0.5,1.8c2.4,1.8,3.1,0.3-2,7.6c-0.6,1-2-0.4-2.8,0.8c-1,1.6,0.1,3.4-2.3,3.9c-0.9,0.1-2,2.6-1.1,4.3
	c-0.6-0.2-1.4-0.2-1.9,0.3c-0.8,0.8-1.7,1.5-2.1,2.4c-2,3.7-4.5,7-6.6,10.8c-2.5,4.6-1.5-0.1-6.1,9.6c-0.3,0.6-0.9,1-1.7,1
	c-0.6,0-1.5,0.1-2.1,0.2c-4.6,0.1-3.5,0.2-7.4,2.9c-0.1,0.1-0.2,0.3-0.3,0.4c-0.4,0.8-0.1,1.3,0.3,2c1,1.8-0.3,2.6-1,3.9
	c-0.8,1.5,1.4,2.8,1.7,3c1.1,1,1.8,0.5,4.5-0.5c1-0.3,2.4,1,1.1,1.9c-1,0.6-2.2,1.4-3.4,1.5c-0.5,0-0.5,0.8-0.2,1.4
	c1.4,1.8-1.1,2-0.4,3.1c0.5,0.7,3.7,0,2.9,1.5c-0.4,1-1.6,0.5-2.5,0.6c-1,0.2-1.6,0.3-1.9,0.4c0.1,0.2,0.3,0.4,0.4,0.6l0.1-0.1
	c0,0.1,0,0.1,0,0.1h-0.1c0,0.1,0.1,0.1,0.1,0.1c0.9,1.2,1.8,2.2,0.8,2.6c-1.8,0.5-3,0.9-3.8,1.2c-0.6,0.2-0.9,0.3-1.1,0.4
	c0,0.1,0.1,0.1,0.1,0.2c0.1,0.1,0.2,0.3,0.2,0.4c0,0,0,0,0,0.1c0,0,0,0,0,0.1c0.3,0.6,0.5,1,0.3,1.8c-0.4,2,1.4,0.1,4.4,1.9
	c1.8,1,2.5,1.7,4.1,2.9c1.1,0.9-2.5,1.1-1.3,2.7c3.1,4.4,4,4.2,4.5,6.1c0.1,0.4,2.6,1.4,2.9,1.5c0.6,0.2,1.5-0.4,3.2-1.8
	c0.9-0.8,1.7-0.1,4.5,1.4c1.7,0.9-1.6,4.3-1,4.8c1.1,1.1,3.3-1.6,3.6-1.8c1.4-1.3,1.5,1.5,3.8,1.5c1.1,0,0.6,1.6-0.3,1.7
	c-0.6,0-1.3,0-1.6,0.2c-1.5,1.4-1,3.2-0.1,2.9c0.6-0.2,1.3-0.7,1.9-1c0.9-0.4,1.8,0,2.7-0.2c0.9-0.2,1.3-1.3,1.7-2
	c1.4-2,4.6-1.6,4.7-0.6c0.1,1.1,1.1,1.9,1.7,2.8c0.9,1.5-1.5,1.4-2.4,3.9c-1.3,3.3-3.7,6.1-1.6,6.1c2-0.1-0.8,1.6,1.3,4
	c0.6,0.8-0.5,1.6,0.4,3c1.7,2.5,1.4,3.1,1.9,3.1c1.1-0.1,2.4-2.8,0.9-4.6c0.2-0.9,0.1-1.6,1.1-1.1c1.1,0.4,3.2,0.5,2.7,2
	c-1.4,3.4-1.8,4-0.7,5.5c0.8,1,1.3,1.9,2.8,2.5c2.3,0.6-1.6,6,0.5,6.5c2,0.4,2.6,0.2,3.4,1.4c0.8,1.2,0.5,1.7,1.3,3
	c1.6-1.1,0.9-0.9,1.6-1.5c0.8-0.6,2.5-0.5,2.9,0.2c2.8,4.3,1.6,2.6,2.8,4.1c0.3,0.4,2.2,0.8,2.7-1.6c0.4-1.6,0.1-2.3,0.9-4.3
	c0.3-0.8,2.5-2,2.9-0.3c0.8,3-0.1,3.9-1,6.9c-0.9,2.9,3.2,2.3,2.5-2.2c-0.2-1.1,0-2.2,0.7-2.5c2.6-1,4.6,2.3,6.1,0.3
	c0.5-0.8,1.5-1.1,2.1-1.7c2.2-2,1.6-2.5,3.8-2.9c1.7-0.4-0.1-2,1.6-6.1c0.5-1.5,1.5-1.6,2-1.1c0.8,0.6-1.1,3.8,0.5,3.9
	c0.4,0,0.6-0.1,0.6-0.6c0,0,0,0,0.1,0c0.1,0.1,1.1-0.2,2.1-0.1c1.5,0.1,2.7-1,3.5-2.2c1.1-1.6-0.6-0.7-1.1-7.8c0-0.3,0.2-2.2,1.3-2
	c1.1,0.2,0.8,2.9,2.8,2.8c0.8-0.1,1.4,0.3,2,0.8c1.1,0.6,2.6-0.8,1.7-2c-0.6-0.9-0.8-0.6-0.5-1.4c0.3-0.8,1.4-0.7,1.7,0
	c1.1,1.9,0.3,3.2,1.9,2.3c0.7-0.4,1.1-1,1.9-1.3c-1,0.1-1.5-1.8-1.5-3.1c0-0.5,0.5-1.4,1.5-2.8c0.4-0.6,1.2-0.4,1.4-0.3
	c0-0.2,0.1-0.3,0.1-0.4c0-0.2-0.3-0.4-1.9-2.1c-0.7-0.6-0.7-0.2-1.9,0.1c-1.3,0.3-2.7-2.3-0.3-3.2c5.7-2.5,4.1-3.4,9.5-12
	c0.3-0.4,0.6-0.9,0.6-1.5c0.3-1.8,1.5-3.2,2-5c0.8-2.3,1.9-4.3,4-5.7c1.3-1,1.8-2.7,3.1-3.8c0.5-1,1.7-3,3-7
	c0.8-2.4,2.6-0.9,3.6-4.5c0.8-1-0.5-1.4,0.3-3.2C542,525.5,542.1,525.6,542.2,524.4z M520.7,489.7c0.9,0.5,0.5,1.3-0.4,0.9
	C519.5,490.2,519.9,489.3,520.7,489.7z M422.4,521.6c0-0.4,0-0.3,0.2-0.2L422.4,521.6z M414.8,545.7
	C414.8,545.8,414.7,545.8,414.8,545.7L414.8,545.7z M423.2,535.7c0-0.1-0.1-0.2-0.1-0.4c0.1,0,0.3-0.1,0.4,0
	C423.8,535.7,423.6,535.8,423.2,535.7z M430.9,556c0.2,0.9-1.3,2.7-4-1.6c-0.4-0.7-0.1-1.3,0.5-3.7c0.2-0.6,2.2-0.8,1.8,0.4v0.5
	c0,0.6,0.3,0.8,1,0.6C432.1,552.1,430.3,553.8,430.9,556z M434.5,548c-1.9,3.3-5.4,1.6-5.7-1.3c-0.2-1.8,1.1-0.8,5.1-0.5
	C434.4,546.2,434.9,547.4,434.5,548z M439.1,544.9c-0.8-2,2.8-2.2,3,0.3C442.3,546.4,440.1,547.1,439.1,544.9z M515.5,498.9
	c0.9,0.1,0.3,1.5-0.4,0.9C514.2,499.3,514.9,498.8,515.5,498.9z M487,470.6c1.1-0.2,3.2-0.2,3.2,0.9c0,0.9-0.6,1.7-0.8,2.4
	c-0.8,2.5-1.1,4.2-4.7,2.8C482.4,475.8,485.5,470.9,487,470.6z M476.9,469.8c0.1,0.1,0,0.3,0,0.4c-0.2,0-0.3,0.1-0.4,0
	C475.6,469.8,476.5,469.4,476.9,469.8z M471,467c0.3,0,0.7,0.6,0.5,0.6C470.7,468.4,470.2,466.9,471,467z M458.4,483.2
	c0,0.5,0.1,0.4-0.3,0.3L458.4,483.2z M459.5,483.9c0.2-0.3,0.5-0.3,0.9-0.2c0.6,0.3,0.1,0.5,0.1,2.4c0,0.9,0.8,2.6-1,3.1
	c-1,0.3-1.7,0.4-2-0.1C457.2,488.4,457.3,487.7,459.5,483.9z M455.4,485.2c0.8,0.1,0.5,0.9,0,0.8
	C454.9,485.9,454.6,485.1,455.4,485.2z M454.1,486.9c0.2,0.1,0.2,0.6,0,0.9C453.1,488.4,453.3,486.4,454.1,486.9z M453.1,496.2
	c0.8,0.1,0.4,1.5-0.3,1.4C452.2,497.5,452.2,496.1,453.1,496.2z M452.5,490.1c0,0.4,0.1,0.3-0.3,0.7
	C452.2,490.2,452.1,490.4,452.5,490.1z M445.9,492.9c0.4,0.1,0.2,0.2,0,0.4V492.9z M455.4,577.9c0.1,0,0.2,0.1,0.2,0.1
	C455.7,579,454.6,578.8,455.4,577.9z M462.2,582.9c0.1,0.1,0,0.2,0.1,0.3C461.3,583.5,461.8,582.5,462.2,582.9z M466.7,595.1
	l0.3,0.2C466.6,595.6,466.7,595.6,466.7,595.1z M470.4,586C470.4,586.1,470.4,586.1,470.4,586l-0.1,0.1c-0.2,2.1,0.1,2.6-2,4.5
	c-0.1,0.1-0.3,0.1-0.4,0.1c-1.1,0-2,0.5-2.9,1.3c-0.9,0.8-2.7,1.4-2.7,0.2c0-2.2,0.1-3,1.3-3.1c2-0.3,1.6-1.6,3.3-1.4
	c0.7,0.1,1.3-0.4,1.7-1.1c0.4-0.7,1-0.5,1.7-0.5V586H470.4C470.4,586,470.5,586,470.4,586C470.5,586.1,470.4,586.1,470.4,586z
	 M463,572.2c0-1.1,1.8-1.9,2.4-0.9C466.4,573.9,462.8,574.6,463,572.2z M466.4,582.5c0.6-0.5,1.4,0.9,0.2,1.4
	C465.9,584.3,465.9,583,466.4,582.5z M471.3,587.1c-0.2-0.2-0.4-0.6-0.8-0.9c0.4,0,0.7-0.2,1.3-0.5c0.6-0.5,1.4,0.1,1.5,0.9
	C473,587.4,471.9,588.3,471.3,587.1z M476.1,589.1c-0.8,0.5-2-0.9-0.8-1.4C475.9,587.4,476.7,588.7,476.1,589.1z M477.7,580.9
	C477.7,580.9,477.7,580.9,477.7,580.9c-0.4-0.1-0.5-0.3-0.5-0.5c-0.2-0.1-0.5-0.1-0.6-0.3c-0.4-0.7,0.4-1,0.6-0.3
	c0.1,0.2,0,0.4,0.1,0.7C477.4,580.3,477.6,580.4,477.7,580.9C477.7,580.9,477.7,580.9,477.7,580.9
	C477.3,582.1,476.7,581.1,477.7,580.9z M478.8,587c-0.1,0.1-0.3,0.1-0.4,0.2c-0.1-0.1-0.2-0.3-0.2-0.4c0.1-0.6,1.3-2.4,1.3-1.1
	C479.4,586.1,478.9,586.8,478.8,587z M499.9,596.1c0-0.2,0-0.4,0.1-0.5C500.5,595.8,500.3,595.6,499.9,596.1z M499.1,581.3
	c-0.6-0.5-0.5-0.8,0.1-1.1c0.6-0.1,2.6-1,2.5,0.4C501.2,585.6,499.7,581.7,499.1,581.3z M518.7,555.2c-0.1,0.5-0.3,1.1-0.4,1.6
	c-1.2,4-3.9,7.6-7.3,10.2c-3.5,2.6-7.9,4.2-12.7,4.2c-3.6,0-7.1-0.9-10-2.5c-2.2,0.3-4.4,0.5-6.6,0.5c-20,0-36.3-16.1-36.3-35.9
	c0-2.4,0.2-4.9,0.7-7.2c-1.9-3-2.8-6.5-2.8-10.4c0-11.5,9.5-20.9,21.1-20.9c4.1,0,7.9,1.1,11.2,3.1c2.1-0.3,4.1-0.5,6.3-0.5
	c3.5,0,6.9,0.6,10,1.5c-0.3-0.7-0.2-1.7,0.3-2.4c0,0,0.1-0.1,0.1-0.2c0.5-0.6,1.5,0,1.8,0.9c0.4,0.8,0.3,1.9-0.6,2.3
	c0.3,0.1,0.7,0.2,1,0.3c13.9,5,23.8,18.3,23.8,33.6c0,2.7-0.2,5.2-0.8,7.7c1.4,2.9,2.2,6,1.7,9.3v0.6c0.1-0.3,0.1-0.6,0.2-1
	c0-0.4,1-0.4,1.4,0C522.5,552.9,520.3,553.1,518.7,555.2z M523,529.5c-0.3,0-1.6,0.3-2-0.1c-0.2-0.3-0.1-0.6,0.2-0.9
	s0.6-0.8,1.1-1.1C524.1,525.9,524.3,529.4,523,529.5z M501.4,536.1c-1.1-1.7-2.4-3.1-4.1-4.2c-1.7-1.1-3.9-2.1-6.3-2.8
	c-2.4-0.6-5.1-1.5-8-2.1c-2.3-0.7-4-1.1-5-1.3c-1-0.3-2.1-0.6-2.9-1.1c-0.9-0.5-1.7-1-2.2-1.6c-0.5-0.5-0.7-1.3-0.7-2.1
	c0-1.3,0.8-2.4,2.3-3.4c1.6-1,3.7-1.5,6.3-1.5c2.8,0,4.9,0.4,6.1,1.4s2.4,2.3,3.3,4c0.8,1.3,1.5,2.3,2.2,2.8s1.6,0.9,3,0.9
	c1.5,0,2.8-0.7,3.8-1.6c1.1-0.9,1.5-2.1,1.5-3.4c0-1.4-0.3-2.7-1.1-4.1c-0.6-1.4-1.8-2.6-3.5-3.9c-1.6-1.2-3.7-2.3-6.1-2.9
	c-2.3-0.8-5.2-1.1-8.5-1.1c-4.1,0-7.8,0.5-10.8,1.6c-3,1-5.4,2.7-7.1,4.8c-1.7,2.2-2.5,4.6-2.5,7.3c0,2.8,0.8,5.2,2.4,7.2
	c1.6,2,3.7,3.5,6.3,4.6c2.6,1.1,5.8,2.1,9.6,2.8c2.8,0.6,5,1.2,6.8,1.6c1.6,0.5,2.9,1.3,3.9,2.2c1,0.9,1.4,2,1.4,3.4
	c0,1.7-0.9,3.2-2.7,4.5c-1.8,1.3-4.3,2-7.3,2c-2.2,0-3.8-0.3-5.2-0.9c-1.3-0.7-2.4-1.5-3-2.4c-0.7-1-1.4-2.2-2.1-3.7
	c-0.5-1.3-1.4-2.4-2.2-3c-0.9-0.8-1.9-1.1-3.2-1.1c-1.5,0-2.8,0.5-3.8,1.4c-1.1,0.9-1.5,2.1-1.5,3.4c0,2.2,0.7,4.3,2.3,6.5
	c1.6,2.2,3.7,3.9,6.1,5.2c3.4,1.9,7.7,2.7,12.9,2.7c4.4,0,8.3-0.8,11.4-2c3.2-1.2,5.7-3,7.4-5.5c1.3-1.9,2.1-3.9,2.3-6.3
	c0-0.6,0-1.3,0-2C502.9,540,502.3,537.8,501.4,536.1z M502.9,542.4c0-2.4-0.6-4.6-1.5-6.3c-1.1-1.7-2.4-3.1-4.1-4.2
	c-1.7-1.1-3.9-2.1-6.3-2.8c-2.4-0.6-5.1-1.5-8-2.1c-2.3-0.7-4-1.1-5-1.3c-1-0.3-2.1-0.6-2.9-1.1c-0.9-0.5-1.7-1-2.2-1.6
	c-0.5-0.5-0.7-1.3-0.7-2.1c0-1.3,0.8-2.4,2.3-3.4c1.6-1,3.7-1.5,6.3-1.5c2.8,0,4.9,0.4,6.1,1.4s2.4,2.3,3.3,4
	c0.8,1.3,1.5,2.3,2.2,2.8s1.6,0.9,3,0.9c1.5,0,2.8-0.7,3.8-1.6c1.1-0.9,1.5-2.1,1.5-3.4c0-1.4-0.3-2.7-1.1-4.1
	c-0.6-1.4-1.8-2.6-3.5-3.9c-1.6-1.2-3.7-2.3-6.1-2.9c-2.3-0.8-5.2-1.1-8.5-1.1c-4.1,0-7.8,0.5-10.8,1.6c-3,1-5.4,2.7-7.1,4.8
	c-1.7,2.2-2.5,4.6-2.5,7.3c0,2.8,0.8,5.2,2.4,7.2c1.6,2,3.7,3.5,6.3,4.6c2.6,1.1,5.8,2.1,9.6,2.8c2.8,0.6,5,1.2,6.8,1.6
	c1.6,0.5,2.9,1.3,3.9,2.2c1,0.9,1.4,2,1.4,3.4c0,1.7-0.9,3.2-2.7,4.5c-1.8,1.3-4.3,2-7.3,2c-2.2,0-3.8-0.3-5.2-0.9
	c-1.3-0.7-2.4-1.5-3-2.4c-0.7-1-1.4-2.2-2.1-3.7c-0.5-1.3-1.4-2.4-2.2-3c-0.9-0.8-1.9-1.1-3.2-1.1c-1.5,0-2.8,0.5-3.8,1.4
	c-1.1,0.9-1.5,2.1-1.5,3.4c0,2.2,0.7,4.3,2.3,6.5c1.6,2.2,3.7,3.9,6.1,5.2c3.4,1.9,7.7,2.7,12.9,2.7c4.4,0,8.3-0.8,11.4-2
	c3.2-1.2,5.7-3,7.4-5.5c1.3-1.9,2.1-3.9,2.3-6.3C502.9,543.7,502.9,543.1,502.9,542.4z M502.9,542.4c0-2.4-0.6-4.6-1.5-6.3
	c-1.1-1.7-2.4-3.1-4.1-4.2c-1.7-1.1-3.9-2.1-6.3-2.8c-2.4-0.6-5.1-1.5-8-2.1c-2.3-0.7-4-1.1-5-1.3c-1-0.3-2.1-0.6-2.9-1.1
	c-0.9-0.5-1.7-1-2.2-1.6c-0.5-0.5-0.7-1.3-0.7-2.1c0-1.3,0.8-2.4,2.3-3.4c1.6-1,3.7-1.5,6.3-1.5c2.8,0,4.9,0.4,6.1,1.4
	s2.4,2.3,3.3,4c0.8,1.3,1.5,2.3,2.2,2.8s1.6,0.9,3,0.9c1.5,0,2.8-0.7,3.8-1.6c1.1-0.9,1.5-2.1,1.5-3.4c0-1.4-0.3-2.7-1.1-4.1
	c-0.6-1.4-1.8-2.6-3.5-3.9c-1.6-1.2-3.7-2.3-6.1-2.9c-2.3-0.8-5.2-1.1-8.5-1.1c-4.1,0-7.8,0.5-10.8,1.6c-3,1-5.4,2.7-7.1,4.8
	c-1.7,2.2-2.5,4.6-2.5,7.3c0,2.8,0.8,5.2,2.4,7.2c1.6,2,3.7,3.5,6.3,4.6c2.6,1.1,5.8,2.1,9.6,2.8c2.8,0.6,5,1.2,6.8,1.6
	c1.6,0.5,2.9,1.3,3.9,2.2c1,0.9,1.4,2,1.4,3.4c0,1.7-0.9,3.2-2.7,4.5c-1.8,1.3-4.3,2-7.3,2c-2.2,0-3.8-0.3-5.2-0.9
	c-1.3-0.7-2.4-1.5-3-2.4c-0.7-1-1.4-2.2-2.1-3.7c-0.5-1.3-1.4-2.4-2.2-3c-0.9-0.8-1.9-1.1-3.2-1.1c-1.5,0-2.8,0.5-3.8,1.4
	c-1.1,0.9-1.5,2.1-1.5,3.4c0,2.2,0.7,4.3,2.3,6.5c1.6,2.2,3.7,3.9,6.1,5.2c3.4,1.9,7.7,2.7,12.9,2.7c4.4,0,8.3-0.8,11.4-2
	c3.2-1.2,5.7-3,7.4-5.5c1.3-1.9,2.1-3.9,2.3-6.3C502.9,543.7,502.9,543.1,502.9,542.4z M502.9,542.4c0-2.4-0.6-4.6-1.5-6.3
	c-1.1-1.7-2.4-3.1-4.1-4.2c-1.7-1.1-3.9-2.1-6.3-2.8c-2.4-0.6-5.1-1.5-8-2.1c-2.3-0.7-4-1.1-5-1.3c-1-0.3-2.1-0.6-2.9-1.1
	c-0.9-0.5-1.7-1-2.2-1.6c-0.5-0.5-0.7-1.3-0.7-2.1c0-1.3,0.8-2.4,2.3-3.4c1.6-1,3.7-1.5,6.3-1.5c2.8,0,4.9,0.4,6.1,1.4
	s2.4,2.3,3.3,4c0.8,1.3,1.5,2.3,2.2,2.8s1.6,0.9,3,0.9c1.5,0,2.8-0.7,3.8-1.6c1.1-0.9,1.5-2.1,1.5-3.4c0-1.4-0.3-2.7-1.1-4.1
	c-0.6-1.4-1.8-2.6-3.5-3.9c-1.6-1.2-3.7-2.3-6.1-2.9c-2.3-0.8-5.2-1.1-8.5-1.1c-4.1,0-7.8,0.5-10.8,1.6c-3,1-5.4,2.7-7.1,4.8
	c-1.7,2.2-2.5,4.6-2.5,7.3c0,2.8,0.8,5.2,2.4,7.2c1.6,2,3.7,3.5,6.3,4.6c2.6,1.1,5.8,2.1,9.6,2.8c2.8,0.6,5,1.2,6.8,1.6
	c1.6,0.5,2.9,1.3,3.9,2.2c1,0.9,1.4,2,1.4,3.4c0,1.7-0.9,3.2-2.7,4.5c-1.8,1.3-4.3,2-7.3,2c-2.2,0-3.8-0.3-5.2-0.9
	c-1.3-0.7-2.4-1.5-3-2.4c-0.7-1-1.4-2.2-2.1-3.7c-0.5-1.3-1.4-2.4-2.2-3c-0.9-0.8-1.9-1.1-3.2-1.1c-1.5,0-2.8,0.5-3.8,1.4
	c-1.1,0.9-1.5,2.1-1.5,3.4c0,2.2,0.7,4.3,2.3,6.5c1.6,2.2,3.7,3.9,6.1,5.2c3.4,1.9,7.7,2.7,12.9,2.7c4.4,0,8.3-0.8,11.4-2
	c3.2-1.2,5.7-3,7.4-5.5c1.3-2,2.1-4,2.3-6.3C502.9,543.7,502.9,543.1,502.9,542.4z M502.9,542.4c0-2.4-0.6-4.6-1.5-6.3
	c-1.1-1.7-2.4-3.1-4.1-4.2c-1.7-1.1-3.9-2.1-6.3-2.8c-2.4-0.6-5.1-1.5-8-2.1c-2.3-0.7-4-1.1-5-1.3c-1-0.3-2.1-0.6-2.9-1.1
	c-0.9-0.5-1.7-1-2.2-1.6c-0.5-0.5-0.7-1.3-0.7-2.1c0-1.3,0.8-2.4,2.3-3.4c1.6-1,3.7-1.5,6.3-1.5c2.8,0,4.9,0.4,6.1,1.4
	s2.4,2.3,3.3,4c0.8,1.3,1.5,2.3,2.2,2.8s1.6,0.9,3,0.9c1.5,0,2.8-0.7,3.8-1.6c1.1-0.9,1.5-2.1,1.5-3.4c0-1.4-0.3-2.7-1.1-4.1
	c-0.6-1.4-1.8-2.6-3.5-3.9c-1.6-1.2-3.7-2.3-6.1-2.9c-2.3-0.8-5.2-1.1-8.5-1.1c-4.1,0-7.8,0.5-10.8,1.6c-3,1-5.4,2.7-7.1,4.8
	c-1.7,2.2-2.5,4.6-2.5,7.3c0,2.8,0.8,5.2,2.4,7.2c1.6,2,3.7,3.5,6.3,4.6c2.6,1.1,5.8,2.1,9.6,2.8c2.8,0.6,5,1.2,6.8,1.6
	c1.6,0.5,2.9,1.3,3.9,2.2c1,0.9,1.4,2,1.4,3.4c0,1.7-0.9,3.2-2.7,4.5c-1.8,1.3-4.3,2-7.3,2c-2.2,0-3.8-0.3-5.2-0.9
	c-1.3-0.7-2.4-1.5-3-2.4c-0.7-1-1.4-2.2-2.1-3.7c-0.5-1.3-1.4-2.4-2.2-3c-0.9-0.8-1.9-1.1-3.2-1.1c-1.5,0-2.8,0.5-3.8,1.4
	c-1.1,0.9-1.5,2.1-1.5,3.4c0,2.2,0.7,4.3,2.3,6.5c1.6,2.2,3.7,3.9,6.1,5.2c3.4,1.9,7.7,2.7,12.9,2.7c4.4,0,8.3-0.8,11.4-2
	c3.2-1.2,5.7-3,7.4-5.5c1.3-2,2.1-4,2.3-6.3C502.9,543.7,502.9,543.1,502.9,542.4z M502.9,542.4c0-2.4-0.6-4.6-1.5-6.3
	c-1.1-1.7-2.4-3.1-4.1-4.2c-1.7-1.1-3.9-2.1-6.3-2.8c-2.4-0.6-5.1-1.5-8-2.1c-2.3-0.7-4-1.1-5-1.3c-1-0.3-2.1-0.6-2.9-1.1
	c-0.9-0.5-1.7-1-2.2-1.6c-0.5-0.5-0.7-1.3-0.7-2.1c0-1.3,0.8-2.4,2.3-3.4c1.6-1,3.7-1.5,6.3-1.5c2.8,0,4.9,0.4,6.1,1.4
	s2.4,2.3,3.3,4c0.8,1.3,1.5,2.3,2.2,2.8s1.6,0.9,3,0.9c1.5,0,2.8-0.7,3.8-1.6c1.1-0.9,1.5-2.1,1.5-3.4c0-1.4-0.3-2.7-1.1-4.1
	c-0.6-1.4-1.8-2.6-3.5-3.9c-1.6-1.2-3.7-2.3-6.1-2.9c-2.3-0.8-5.2-1.1-8.5-1.1c-4.1,0-7.8,0.5-10.8,1.6c-3,1-5.4,2.7-7.1,4.8
	c-1.7,2.2-2.5,4.6-2.5,7.3c0,2.8,0.8,5.2,2.4,7.2c1.6,2,3.7,3.5,6.3,4.6c2.6,1.1,5.8,2.1,9.6,2.8c2.8,0.6,5,1.2,6.8,1.6
	c1.6,0.5,2.9,1.3,3.9,2.2c1,0.9,1.4,2,1.4,3.4c0,1.7-0.9,3.2-2.7,4.5c-1.8,1.3-4.3,2-7.3,2c-2.2,0-3.8-0.3-5.2-0.9
	c-1.3-0.7-2.4-1.5-3-2.4c-0.7-1-1.4-2.2-2.1-3.7c-0.5-1.3-1.4-2.4-2.2-3c-0.9-0.8-1.9-1.1-3.2-1.1c-1.5,0-2.8,0.5-3.8,1.4
	c-1.1,0.9-1.5,2.1-1.5,3.4c0,2.2,0.7,4.3,2.3,6.5c1.6,2.2,3.7,3.9,6.1,5.2c3.4,1.9,7.7,2.7,12.9,2.7c4.4,0,8.3-0.8,11.4-2
	c3.2-1.2,5.7-3,7.4-5.5c1.3-2,2.1-4,2.3-6.3C502.9,543.7,502.9,543.1,502.9,542.4z M502.9,542.4c0-2.4-0.6-4.6-1.5-6.3
	c-1.1-1.7-2.4-3.1-4.1-4.2c-1.7-1.1-3.9-2.1-6.3-2.8c-2.4-0.6-5.1-1.5-8-2.1c-2.3-0.7-4-1.1-5-1.3c-1-0.3-2.1-0.6-2.9-1.1
	c-0.9-0.5-1.7-1-2.2-1.6c-0.5-0.5-0.7-1.3-0.7-2.1c0-1.3,0.8-2.4,2.3-3.4c1.6-1,3.7-1.5,6.3-1.5c2.8,0,4.9,0.4,6.1,1.4
	s2.4,2.3,3.3,4c0.8,1.3,1.5,2.3,2.2,2.8s1.6,0.9,3,0.9c1.5,0,2.8-0.7,3.8-1.6c1.1-0.9,1.5-2.1,1.5-3.4c0-1.4-0.3-2.7-1.1-4.1
	c-0.6-1.4-1.8-2.6-3.5-3.9c-1.6-1.2-3.7-2.3-6.1-2.9c-2.3-0.8-5.2-1.1-8.5-1.1c-4.1,0-7.8,0.5-10.8,1.6c-3,1-5.4,2.7-7.1,4.8
	c-1.7,2.2-2.5,4.6-2.5,7.3c0,2.8,0.8,5.2,2.4,7.2c1.6,2,3.7,3.5,6.3,4.6c2.6,1.1,5.8,2.1,9.6,2.8c2.8,0.6,5,1.2,6.8,1.6
	c1.6,0.5,2.9,1.3,3.9,2.2c1,0.9,1.4,2,1.4,3.4c0,1.7-0.9,3.2-2.7,4.5c-1.8,1.3-4.3,2-7.3,2c-2.2,0-3.8-0.3-5.2-0.9
	c-1.3-0.7-2.4-1.5-3-2.4c-0.7-1-1.4-2.2-2.1-3.7c-0.5-1.3-1.4-2.4-2.2-3c-0.9-0.8-1.9-1.1-3.2-1.1c-1.5,0-2.8,0.5-3.8,1.4
	c-1.1,0.9-1.5,2.1-1.5,3.4c0,2.2,0.7,4.3,2.3,6.5c1.6,2.2,3.7,3.9,6.1,5.2c3.4,1.9,7.7,2.7,12.9,2.7c4.4,0,8.3-0.8,11.4-2
	c3.2-1.2,5.7-3,7.4-5.5c1.3-2,2.1-4,2.3-6.3C502.9,543.7,502.9,543.1,502.9,542.4z M502.9,542.4c0-2.4-0.6-4.6-1.5-6.3
	c-1.1-1.7-2.4-3.1-4.1-4.2c-1.7-1.1-3.9-2.1-6.3-2.8c-2.4-0.6-5.1-1.5-8-2.1c-2.3-0.7-4-1.1-5-1.3c-1-0.3-2.1-0.6-2.9-1.1
	c-0.9-0.5-1.7-1-2.2-1.6c-0.5-0.5-0.7-1.3-0.7-2.1c0-1.3,0.8-2.4,2.3-3.4c1.6-1,3.7-1.5,6.3-1.5c2.8,0,4.9,0.4,6.1,1.4
	s2.4,2.3,3.3,4c0.8,1.3,1.5,2.3,2.2,2.8s1.6,0.9,3,0.9c1.5,0,2.8-0.7,3.8-1.6c1.1-0.9,1.5-2.1,1.5-3.4c0-1.4-0.3-2.7-1.1-4.1
	c-0.6-1.4-1.8-2.6-3.5-3.9c-1.6-1.2-3.7-2.3-6.1-2.9c-2.3-0.8-5.2-1.1-8.5-1.1c-4.1,0-7.8,0.5-10.8,1.6c-3,1-5.4,2.7-7.1,4.8
	c-1.7,2.2-2.5,4.6-2.5,7.3c0,2.8,0.8,5.2,2.4,7.2c1.6,2,3.7,3.5,6.3,4.6c2.6,1.1,5.8,2.1,9.6,2.8c2.8,0.6,5,1.2,6.8,1.6
	c1.6,0.5,2.9,1.3,3.9,2.2c1,0.9,1.4,2,1.4,3.4c0,1.7-0.9,3.2-2.7,4.5c-1.8,1.3-4.3,2-7.3,2c-2.2,0-3.8-0.3-5.2-0.9
	c-1.3-0.7-2.4-1.5-3-2.4c-0.7-1-1.4-2.2-2.1-3.7c-0.5-1.3-1.4-2.4-2.2-3c-0.9-0.8-1.9-1.1-3.2-1.1c-1.5,0-2.8,0.5-3.8,1.4
	c-1.1,0.9-1.5,2.1-1.5,3.4c0,2.2,0.7,4.3,2.3,6.5c1.6,2.2,3.7,3.9,6.1,5.2c3.4,1.9,7.7,2.7,12.9,2.7c4.4,0,8.3-0.8,11.4-2
	c3.2-1.2,5.7-3,7.4-5.5c1.3-2,2.1-4,2.3-6.3C502.9,543.7,502.9,543.1,502.9,542.4z M502.9,542.4c0-2.4-0.6-4.6-1.5-6.3
	c-1.1-1.7-2.4-3.1-4.1-4.2c-1.7-1.1-3.9-2.1-6.3-2.8c-2.4-0.6-5.1-1.5-8-2.1c-2.3-0.7-4-1.1-5-1.3c-1-0.3-2.1-0.6-2.9-1.1
	c-0.9-0.5-1.7-1-2.2-1.6c-0.5-0.5-0.7-1.3-0.7-2.1c0-1.3,0.8-2.4,2.3-3.4c1.6-1,3.7-1.5,6.3-1.5c2.8,0,4.9,0.4,6.1,1.4
	s2.4,2.3,3.3,4c0.8,1.3,1.5,2.3,2.2,2.8s1.6,0.9,3,0.9c1.5,0,2.8-0.7,3.8-1.6c1.1-0.9,1.5-2.1,1.5-3.4c0-1.4-0.3-2.7-1.1-4.1
	c-0.6-1.4-1.8-2.6-3.5-3.9c-1.6-1.2-3.7-2.3-6.1-2.9c-2.3-0.8-5.2-1.1-8.5-1.1c-4.1,0-7.8,0.5-10.8,1.6c-3,1-5.4,2.7-7.1,4.8
	c-1.7,2.2-2.5,4.6-2.5,7.3c0,2.8,0.8,5.2,2.4,7.2c1.6,2,3.7,3.5,6.3,4.6c2.6,1.1,5.8,2.1,9.6,2.8c2.8,0.6,5,1.2,6.8,1.6
	c1.6,0.5,2.9,1.3,3.9,2.2c1,0.9,1.4,2,1.4,3.4c0,1.7-0.9,3.2-2.7,4.5c-1.8,1.3-4.3,2-7.3,2c-2.2,0-3.8-0.3-5.2-0.9
	c-1.3-0.7-2.4-1.5-3-2.4c-0.7-1-1.4-2.2-2.1-3.7c-0.5-1.3-1.4-2.4-2.2-3c-0.9-0.8-1.9-1.1-3.2-1.1c-1.5,0-2.8,0.5-3.8,1.4
	c-1.1,0.9-1.5,2.1-1.5,3.4c0,2.2,0.7,4.3,2.3,6.5c1.6,2.2,3.7,3.9,6.1,5.2c3.4,1.9,7.7,2.7,12.9,2.7c4.4,0,8.3-0.8,11.4-2
	c3.2-1.2,5.7-3,7.4-5.5c1.3-2,2.1-4,2.3-6.3C502.9,543.7,502.9,543.1,502.9,542.4z M502.9,542.4c0-2.4-0.6-4.6-1.5-6.3
	c-1.1-1.7-2.4-3.1-4.1-4.2c-1.7-1.1-3.9-2.1-6.3-2.8c-2.4-0.6-5.1-1.5-8-2.1c-2.3-0.7-4-1.1-5-1.3c-1-0.3-2.1-0.6-2.9-1.1
	c-0.9-0.5-1.7-1-2.2-1.6c-0.5-0.5-0.7-1.3-0.7-2.1c0-1.3,0.8-2.4,2.3-3.4c1.6-1,3.7-1.5,6.3-1.5c2.8,0,4.9,0.4,6.1,1.4
	s2.4,2.3,3.3,4c0.8,1.3,1.5,2.3,2.2,2.8s1.6,0.9,3,0.9c1.5,0,2.8-0.7,3.8-1.6c1.1-0.9,1.5-2.1,1.5-3.4c0-1.4-0.3-2.7-1.1-4.1
	c-0.6-1.4-1.8-2.6-3.5-3.9c-1.6-1.2-3.7-2.3-6.1-2.9c-2.3-0.8-5.2-1.1-8.5-1.1c-4.1,0-7.8,0.5-10.8,1.6c-3,1-5.4,2.7-7.1,4.8
	c-1.7,2.2-2.5,4.6-2.5,7.3c0,2.8,0.8,5.2,2.4,7.2c1.6,2,3.7,3.5,6.3,4.6c2.6,1.1,5.8,2.1,9.6,2.8c2.8,0.6,5,1.2,6.8,1.6
	c1.6,0.5,2.9,1.3,3.9,2.2c1,0.9,1.4,2,1.4,3.4c0,1.7-0.9,3.2-2.7,4.5c-1.8,1.3-4.3,2-7.3,2c-2.2,0-3.8-0.3-5.2-0.9
	c-1.3-0.7-2.4-1.5-3-2.4c-0.7-1-1.4-2.2-2.1-3.7c-0.5-1.3-1.4-2.4-2.2-3c-0.9-0.8-1.9-1.1-3.2-1.1c-1.5,0-2.8,0.5-3.8,1.4
	c-1.1,0.9-1.5,2.1-1.5,3.4c0,2.2,0.7,4.3,2.3,6.5c1.6,2.2,3.7,3.9,6.1,5.2c3.4,1.9,7.7,2.7,12.9,2.7c4.4,0,8.3-0.8,11.4-2
	c3.2-1.2,5.7-3,7.4-5.5c1.3-2,2.1-4,2.3-6.3C502.9,543.7,502.9,543.1,502.9,542.4z M502.9,542.4c0-2.4-0.6-4.6-1.5-6.3
	c-1.1-1.7-2.4-3.1-4.1-4.2c-1.7-1.1-3.9-2.1-6.3-2.8c-2.4-0.6-5.1-1.5-8-2.1c-2.3-0.7-4-1.1-5-1.3c-1-0.3-2.1-0.6-2.9-1.1
	c-0.9-0.5-1.7-1-2.2-1.6c-0.5-0.5-0.7-1.3-0.7-2.1c0-1.3,0.8-2.4,2.3-3.4c1.6-1,3.7-1.5,6.3-1.5c2.8,0,4.9,0.4,6.1,1.4
	s2.4,2.3,3.3,4c0.8,1.3,1.5,2.3,2.2,2.8s1.6,0.9,3,0.9c1.5,0,2.8-0.7,3.8-1.6c1.1-0.9,1.5-2.1,1.5-3.4c0-1.4-0.3-2.7-1.1-4.1
	c-0.6-1.4-1.8-2.6-3.5-3.9c-1.6-1.2-3.7-2.3-6.1-2.9c-2.3-0.8-5.2-1.1-8.5-1.1c-4.1,0-7.8,0.5-10.8,1.6c-3,1-5.4,2.7-7.1,4.8
	c-1.7,2.2-2.5,4.6-2.5,7.3c0,2.8,0.8,5.2,2.4,7.2c1.6,2,3.7,3.5,6.3,4.6c2.6,1.1,5.8,2.1,9.6,2.8c2.8,0.6,5,1.2,6.8,1.6
	c1.6,0.5,2.9,1.3,3.9,2.2c1,0.9,1.4,2,1.4,3.4c0,1.7-0.9,3.2-2.7,4.5c-1.8,1.3-4.3,2-7.3,2c-2.2,0-3.8-0.3-5.2-0.9
	c-1.3-0.7-2.4-1.5-3-2.4c-0.7-1-1.4-2.2-2.1-3.7c-0.5-1.3-1.4-2.4-2.2-3c-0.9-0.8-1.9-1.1-3.2-1.1c-1.5,0-2.8,0.5-3.8,1.4
	c-1.1,0.9-1.5,2.1-1.5,3.4c0,2.2,0.7,4.3,2.3,6.5c1.6,2.2,3.7,3.9,6.1,5.2c3.4,1.9,7.7,2.7,12.9,2.7c4.4,0,8.3-0.8,11.4-2
	c3.2-1.2,5.7-3,7.4-5.5c1.3-2,2.1-4,2.3-6.3C502.9,543.7,502.9,543.1,502.9,542.4z M502.9,542.4c0-2.4-0.6-4.6-1.5-6.3
	c-1.1-1.7-2.4-3.1-4.1-4.2c-1.7-1.1-3.9-2.1-6.3-2.8c-2.4-0.6-5.1-1.5-8-2.1c-2.3-0.7-4-1.1-5-1.3c-1-0.3-2.1-0.6-2.9-1.1
	c-0.9-0.5-1.7-1-2.2-1.6c-0.5-0.5-0.7-1.3-0.7-2.1c0-1.3,0.8-2.4,2.3-3.4c1.6-1,3.7-1.5,6.3-1.5c2.8,0,4.9,0.4,6.1,1.4
	s2.4,2.3,3.3,4c0.8,1.3,1.5,2.3,2.2,2.8s1.6,0.9,3,0.9c1.5,0,2.8-0.7,3.8-1.6c1.1-0.9,1.5-2.1,1.5-3.4c0-1.4-0.3-2.7-1.1-4.1
	c-0.6-1.4-1.8-2.6-3.5-3.9c-1.6-1.2-3.7-2.3-6.1-2.9c-2.3-0.8-5.2-1.1-8.5-1.1c-4.1,0-7.8,0.5-10.8,1.6c-3,1-5.4,2.7-7.1,4.8
	c-1.7,2.2-2.5,4.6-2.5,7.3c0,2.8,0.8,5.2,2.4,7.2c1.6,2,3.7,3.5,6.3,4.6c2.6,1.1,5.8,2.1,9.6,2.8c2.8,0.6,5,1.2,6.8,1.6
	c1.6,0.5,2.9,1.3,3.9,2.2c1,0.9,1.4,2,1.4,3.4c0,1.7-0.9,3.2-2.7,4.5c-1.8,1.3-4.3,2-7.3,2c-2.2,0-3.8-0.3-5.2-0.9
	c-1.3-0.7-2.4-1.5-3-2.4c-0.7-1-1.4-2.2-2.1-3.7c-0.5-1.3-1.4-2.4-2.2-3c-0.9-0.8-1.9-1.1-3.2-1.1c-1.5,0-2.8,0.5-3.8,1.4
	c-1.1,0.9-1.5,2.1-1.5,3.4c0,2.2,0.7,4.3,2.3,6.5c1.6,2.2,3.7,3.9,6.1,5.2c3.4,1.9,7.7,2.7,12.9,2.7c4.4,0,8.3-0.8,11.4-2
	c3.2-1.2,5.7-3,7.4-5.5c1.3-2,2.1-4,2.3-6.3C502.9,543.7,502.9,543.1,502.9,542.4z M502.9,542.4c0-2.4-0.6-4.6-1.5-6.3
	c-1.1-1.7-2.4-3.1-4.1-4.2c-1.7-1.1-3.9-2.1-6.3-2.8c-2.4-0.6-5.1-1.5-8-2.1c-2.3-0.7-4-1.1-5-1.3c-1-0.3-2.1-0.6-2.9-1.1
	c-0.9-0.5-1.7-1-2.2-1.6c-0.5-0.5-0.7-1.3-0.7-2.1c0-1.3,0.8-2.4,2.3-3.4c1.6-1,3.7-1.5,6.3-1.5c2.8,0,4.9,0.4,6.1,1.4
	s2.4,2.3,3.3,4c0.8,1.3,1.5,2.3,2.2,2.8s1.6,0.9,3,0.9c1.5,0,2.8-0.7,3.8-1.6c1.1-0.9,1.5-2.1,1.5-3.4c0-1.4-0.3-2.7-1.1-4.1
	c-0.6-1.4-1.8-2.6-3.5-3.9c-1.6-1.2-3.7-2.3-6.1-2.9c-2.3-0.8-5.2-1.1-8.5-1.1c-4.1,0-7.8,0.5-10.8,1.6c-3,1-5.4,2.7-7.1,4.8
	c-1.7,2.2-2.5,4.6-2.5,7.3c0,2.8,0.8,5.2,2.4,7.2c1.6,2,3.7,3.5,6.3,4.6c2.6,1.1,5.8,2.1,9.6,2.8c2.8,0.6,5,1.2,6.8,1.6
	c1.6,0.5,2.9,1.3,3.9,2.2c1,0.9,1.4,2,1.4,3.4c0,1.7-0.9,3.2-2.7,4.5c-1.8,1.3-4.3,2-7.3,2c-2.2,0-3.8-0.3-5.2-0.9
	c-1.3-0.7-2.4-1.5-3-2.4c-0.7-1-1.4-2.2-2.1-3.7c-0.5-1.3-1.4-2.4-2.2-3c-0.9-0.8-1.9-1.1-3.2-1.1c-1.5,0-2.8,0.5-3.8,1.4
	c-1.1,0.9-1.5,2.1-1.5,3.4c0,2.2,0.7,4.3,2.3,6.5c1.6,2.2,3.7,3.9,6.1,5.2c3.4,1.9,7.7,2.7,12.9,2.7c4.4,0,8.3-0.8,11.4-2
	c3.2-1.2,5.7-3,7.4-5.5c1.3-2,2.1-4,2.3-6.3C502.9,543.7,502.9,543.1,502.9,542.4z M502.9,542.4c0-2.4-0.6-4.6-1.5-6.3
	c-1.1-1.7-2.4-3.1-4.1-4.2c-1.7-1.1-3.9-2.1-6.3-2.8c-2.4-0.6-5.1-1.5-8-2.1c-2.3-0.7-4-1.1-5-1.3c-1-0.3-2.1-0.6-2.9-1.1
	c-0.9-0.5-1.7-1-2.2-1.6c-0.5-0.5-0.7-1.3-0.7-2.1c0-1.3,0.8-2.4,2.3-3.4c1.6-1,3.7-1.5,6.3-1.5c2.8,0,4.9,0.4,6.1,1.4
	s2.4,2.3,3.3,4c0.8,1.3,1.5,2.3,2.2,2.8s1.6,0.9,3,0.9c1.5,0,2.8-0.7,3.8-1.6c1.1-0.9,1.5-2.1,1.5-3.4c0-1.4-0.3-2.7-1.1-4.1
	c-0.6-1.4-1.8-2.6-3.5-3.9c-1.6-1.2-3.7-2.3-6.1-2.9c-2.3-0.8-5.2-1.1-8.5-1.1c-4.1,0-7.8,0.5-10.8,1.6c-3,1-5.4,2.7-7.1,4.8
	c-1.7,2.2-2.5,4.6-2.5,7.3c0,2.8,0.8,5.2,2.4,7.2c1.6,2,3.7,3.5,6.3,4.6c2.6,1.1,5.8,2.1,9.6,2.8c2.8,0.6,5,1.2,6.8,1.6
	c1.6,0.5,2.9,1.3,3.9,2.2c1,0.9,1.4,2,1.4,3.4c0,1.7-0.9,3.2-2.7,4.5c-1.8,1.3-4.3,2-7.3,2c-2.2,0-3.8-0.3-5.2-0.9
	c-1.3-0.7-2.4-1.5-3-2.4c-0.7-1-1.4-2.2-2.1-3.7c-0.5-1.3-1.4-2.4-2.2-3c-0.9-0.8-1.9-1.1-3.2-1.1c-1.5,0-2.8,0.5-3.8,1.4
	c-1.1,0.9-1.5,2.1-1.5,3.4c0,2.2,0.7,4.3,2.3,6.5c1.6,2.2,3.7,3.9,6.1,5.2c3.4,1.9,7.7,2.7,12.9,2.7c4.4,0,8.3-0.8,11.4-2
	c3.2-1.2,5.7-3,7.4-5.5c1.3-2,2.1-4,2.3-6.3C502.9,543.7,502.9,543.1,502.9,542.4z M502.9,542.4c0-2.4-0.6-4.6-1.5-6.3
	c-1.1-1.7-2.4-3.1-4.1-4.2c-1.7-1.1-3.9-2.1-6.3-2.8c-2.4-0.6-5.1-1.5-8-2.1c-2.3-0.7-4-1.1-5-1.3c-1-0.3-2.1-0.6-2.9-1.1
	c-0.9-0.5-1.7-1-2.2-1.6c-0.5-0.5-0.7-1.3-0.7-2.1c0-1.3,0.8-2.4,2.3-3.4c1.6-1,3.7-1.5,6.3-1.5c2.8,0,4.9,0.4,6.1,1.4
	s2.4,2.3,3.3,4c0.8,1.3,1.5,2.3,2.2,2.8s1.6,0.9,3,0.9c1.5,0,2.8-0.7,3.8-1.6c1.1-0.9,1.5-2.1,1.5-3.4c0-1.4-0.3-2.7-1.1-4.1
	c-0.6-1.4-1.8-2.6-3.5-3.9c-1.6-1.2-3.7-2.3-6.1-2.9c-2.3-0.8-5.2-1.1-8.5-1.1c-4.1,0-7.8,0.5-10.8,1.6c-3,1-5.4,2.7-7.1,4.8
	c-1.7,2.2-2.5,4.6-2.5,7.3c0,2.8,0.8,5.2,2.4,7.2c1.6,2,3.7,3.5,6.3,4.6c2.6,1.1,5.8,2.1,9.6,2.8c2.8,0.6,5,1.2,6.8,1.6
	c1.6,0.5,2.9,1.3,3.9,2.2c1,0.9,1.4,2,1.4,3.4c0,1.7-0.9,3.2-2.7,4.5c-1.8,1.3-4.3,2-7.3,2c-2.2,0-3.8-0.3-5.2-0.9
	c-1.3-0.7-2.4-1.5-3-2.4c-0.7-1-1.4-2.2-2.1-3.7c-0.5-1.3-1.4-2.4-2.2-3c-0.9-0.8-1.9-1.1-3.2-1.1c-1.5,0-2.8,0.5-3.8,1.4
	c-1.1,0.9-1.5,2.1-1.5,3.4c0,2.2,0.7,4.3,2.3,6.5c1.6,2.2,3.7,3.9,6.1,5.2c3.4,1.9,7.7,2.7,12.9,2.7c4.4,0,8.3-0.8,11.4-2
	c3.2-1.2,5.7-3,7.4-5.5c1.3-2,2.1-4,2.3-6.3C502.9,543.7,502.9,543.1,502.9,542.4z M502.9,542.4c0-2.4-0.6-4.6-1.5-6.3
	c-1.1-1.7-2.4-3.1-4.1-4.2c-1.7-1.1-3.9-2.1-6.3-2.8c-2.4-0.6-5.1-1.5-8-2.1c-2.3-0.7-4-1.1-5-1.3c-1-0.3-2.1-0.6-2.9-1.1
	c-0.9-0.5-1.7-1-2.2-1.6c-0.5-0.5-0.7-1.3-0.7-2.1c0-1.3,0.8-2.4,2.3-3.4c1.6-1,3.7-1.5,6.3-1.5c2.8,0,4.9,0.4,6.1,1.4
	s2.4,2.3,3.3,4c0.8,1.3,1.5,2.3,2.2,2.8s1.6,0.9,3,0.9c1.5,0,2.8-0.7,3.8-1.6c1.1-0.9,1.5-2.1,1.5-3.4c0-1.4-0.3-2.7-1.1-4.1
	c-0.6-1.4-1.8-2.6-3.5-3.9c-1.6-1.2-3.7-2.3-6.1-2.9c-2.3-0.8-5.2-1.1-8.5-1.1c-4.1,0-7.8,0.5-10.8,1.6c-3,1-5.4,2.7-7.1,4.8
	c-1.7,2.2-2.5,4.6-2.5,7.3c0,2.8,0.8,5.2,2.4,7.2c1.6,2,3.7,3.5,6.3,4.6c2.6,1.1,5.8,2.1,9.6,2.8c2.8,0.6,5,1.2,6.8,1.6
	c1.6,0.5,2.9,1.3,3.9,2.2c1,0.9,1.4,2,1.4,3.4c0,1.7-0.9,3.2-2.7,4.5c-1.8,1.3-4.3,2-7.3,2c-2.2,0-3.8-0.3-5.2-0.9
	c-1.3-0.7-2.4-1.5-3-2.4c-0.7-1-1.4-2.2-2.1-3.7c-0.5-1.3-1.4-2.4-2.2-3c-0.9-0.8-1.9-1.1-3.2-1.1c-1.5,0-2.8,0.5-3.8,1.4
	c-1.1,0.9-1.5,2.1-1.5,3.4c0,2.2,0.7,4.3,2.3,6.5c1.6,2.2,3.7,3.9,6.1,5.2c3.4,1.9,7.7,2.7,12.9,2.7c4.4,0,8.3-0.8,11.4-2
	c3.2-1.2,5.7-3,7.4-5.5c1.3-2,2.1-4,2.3-6.3C502.9,543.7,502.9,543.1,502.9,542.4z M502.9,542.4c0-2.4-0.6-4.6-1.5-6.3
	c-1.1-1.7-2.4-3.1-4.1-4.2c-1.7-1.1-3.9-2.1-6.3-2.8c-2.4-0.6-5.1-1.5-8-2.1c-2.3-0.7-4-1.1-5-1.3c-1-0.3-2.1-0.6-2.9-1.1
	c-0.9-0.5-1.7-1-2.2-1.6c-0.5-0.5-0.7-1.3-0.7-2.1c0-1.3,0.8-2.4,2.3-3.4c1.6-1,3.7-1.5,6.3-1.5c2.8,0,4.9,0.4,6.1,1.4
	s2.4,2.3,3.3,4c0.8,1.3,1.5,2.3,2.2,2.8s1.6,0.9,3,0.9c1.5,0,2.8-0.7,3.8-1.6c1.1-0.9,1.5-2.1,1.5-3.4c0-1.4-0.3-2.7-1.1-4.1
	c-0.6-1.4-1.8-2.6-3.5-3.9c-1.6-1.2-3.7-2.3-6.1-2.9c-2.3-0.8-5.2-1.1-8.5-1.1c-4.1,0-7.8,0.5-10.8,1.6c-3,1-5.4,2.7-7.1,4.8
	c-1.7,2.2-2.5,4.6-2.5,7.3c0,2.8,0.8,5.2,2.4,7.2c1.6,2,3.7,3.5,6.3,4.6c2.6,1.1,5.8,2.1,9.6,2.8c2.8,0.6,5,1.2,6.8,1.6
	c1.6,0.5,2.9,1.3,3.9,2.2c1,0.9,1.4,2,1.4,3.4c0,1.7-0.9,3.2-2.7,4.5c-1.8,1.3-4.3,2-7.3,2c-2.2,0-3.8-0.3-5.2-0.9
	c-1.3-0.7-2.4-1.5-3-2.4c-0.7-1-1.4-2.2-2.1-3.7c-0.5-1.3-1.4-2.4-2.2-3c-0.9-0.8-1.9-1.1-3.2-1.1c-1.5,0-2.8,0.5-3.8,1.4
	c-1.1,0.9-1.5,2.1-1.5,3.4c0,2.2,0.7,4.3,2.3,6.5c1.6,2.2,3.7,3.9,6.1,5.2c3.4,1.9,7.7,2.7,12.9,2.7c4.4,0,8.3-0.8,11.4-2
	c3.2-1.2,5.7-3,7.4-5.5c1.3-2,2.1-4,2.3-6.3C502.9,543.7,502.9,543.1,502.9,542.4z M516.7,585.8c0.1,0,0.1,0,0.2,0l0.1-0.1
	C516.8,585.7,516.8,585.8,516.7,585.8z"/>
<path class="st3" d="M458.4,533.2c-0.3,0.2-0.5-0.3-0.3-0.3c0.1,0,0.3,0,0.4,0C458.3,532.6,458.8,533,458.4,533.2z"/>
<path class="st3" d="M495,533.2c0.1-0.1,0.2-0.2,0.3-0.3c0,0,0.2,0.1,0.1,0.1C495.3,533.6,494.8,533,495,533.2z"/>
<path class="st3" d="M458.6,533L458.6,533C458.6,533.2,458.5,533.2,458.6,533z"/>
<path class="st3" d="M485.8,533.1v-0.2C486,533.1,486,533,485.8,533.1z"/>
<path class="st3" d="M484.5,533.2c0.1-0.1,0.2-0.2,0.3-0.3C484.9,533.6,484.2,532.9,484.5,533.2z"/>
<path class="st3" d="M505.2,532.9L505.2,532.9C505.3,533.1,505.2,533.3,505.2,532.9z"/>
<path class="st3" d="M712.1,525.6c-1.4-0.3,1.6-10.5-1.4-9.6c-1.1,1.1-1.8,0.6-2.3,0.3c0.3-0.8,0.6-1.9,0.8-3.7
	c-16.5-0.6-0.6-4.3-21.3-4.8c-4.1-4,1.4-8.1-8.8-7c-5.7-0.6-0.2,2.6-3.2,3.7c-1.6-0.2-3.4,0.1-5.5,0.6c1.3,2.7,2.3,5.5,3.1,8.4
	c0.2,0.1,0.2,0.3,0.1,0.6c0.6,2.4,0.9,4.8,1.1,7.3c2.9,2,2.3,5.9,4.8,10.6c0,0,0,0,0,0c0.3,0.5,0.6,1,0.9,1.5
	c0.1,0.1,0.2,0.2,0.2,0.3c5.9,8.2,2.6,4.4,12.7,6.9c5.5,12.8-2.3,2.1-8.9,0.1c-1.1-2.5-4.7,4-9.2,4.2c-3.4,2.1,5.6,3.4,1.3,3.5
	c-1.9-0.9-4.7-1.4-7-2.5c-7.6,14.3-22.7,24.1-40.1,24.1c-3.8,0-7.6-0.5-11.2-1.4c-3.6-0.9-7.1-2.3-10.5-4.1l-24.1,6.3l6.4-23.5
	c-4-6.8-6-14.7-6-22.7c0-25,20.3-45.3,45.3-45.3c12.1,0,23.5,4.7,32.1,13.2c0.6,0.6,1,1.1,1.6,1.6c3.8-1.7,10.4-3.1,13-1.3
	c-2.9,8.8,14.5,1.4,10.2,0.2c-2.4,0.3-10.2-1.6-3-1c6.5-19.7-17.5-15.4-28.8-23.7c-24.4-12.1-44.2,0.2-66.2,7.5c-12,11.2-5-1-11,1.7
	c2.2,7.9-6.6-3.7-3.9,10.7c-2.4,3.1-3.1-2.6-7.4,1.1c-0.3,9.7,0.6,19.4-12.6,21c5.2,12.7-5.4,22.3,8.6,32.3
	c10.7-6.8,14,34.6,29.7,38.1c3.2,0.3-0.8,10.8-0.8,3.9c0.5-1.7-7.4-3.2-5.2-6.3c1-1.6-4.6-2.3-5-4.9c-5.6-3.7,2.9,8.9-8.9-1.3
	c-0.1-3.3-2.2-1.3-4.1-2.5c-1.3-2.2-1.9-5.5-4-4c9.1,11.5-2.9,7.6,3,12.9c5.7,4.6,4.1-3.1,3.8-4.3c10.4,3.8,8.2,20.1,14.9,19.4
	c1.3-1.4,14.8,6.8,3.9-2.1c-3.1-7.4,5,2.4,4.9-4.5c4.5,13.7,13.5,1.5,20,11.4c3.7,3,0.7-1.5,3.3-1.7c8.9,2.7,9.8,11.8,8.4-1.8
	c2.4-1.6,10.7-1,6.2-5.2c-6.2,1-7.1,6.5-9.7-2.9c3-1.3-1,7.2,7-0.9c1.5-0.3,6.4,1.3,5.8-1.1c-2.6-1.6-1-6.3,0.7-5.8
	c2.5,1.1,3.2,9.5,8,3.8c5-5.8,7.6,0.2,10.8-3.4c1.3-4,5.2-10.6,1.5-13.8c0.1-6.2,7.2,5.1,9.7-0.1c4.5-2.9,23.5,4.7,27.2-4
	c5.8-0.3,1,9,7.3-1c0.7-3.5-2.5-1.7-2.5-3.5c2.7-3.4-1.4-12.3,2.2-12.7c5,7.8,8-0.6,6.7,7.6c2.9,8.9-20.4,17.8,4.2,12.2
	c-5.1,0.1-1.6-5.4,0.2-7.6c0.1-4.8-1.4-3.5,0.8-6.7c5.9-9.7-9.2-21.6,8.7-16.7C722.3,532.7,714.7,529.1,712.1,525.6z M681.9,502.9
	c0.5,0.6,1,2.3,0,2.5C680.5,506.2,679.4,501.5,681.9,502.9z M681.2,515.1c-0.6-0.3-0.6-1.7,0.5-2.5
	C683.1,510.8,683.5,515.9,681.2,515.1z M676.1,489.2h-0.3C676.1,488.9,675.9,488.9,676.1,489.2z M660.6,483.4
	c-0.1,0.3,0,0.3-0.3,0.1L660.6,483.4z M648.2,478.7c-4-3.8,9-8.4,10.7-3.8c-6-0.3-6.4,5.7-10.7,7.5
	C644,482.6,650.6,479.4,648.2,478.7z M642.7,476.9c1.4,1.9,0.5,0.7,1.3,1.6c1.1,1.3-2.2,3.5-2.2-1.4
	C641.8,476.5,642.3,476.2,642.7,476.9z M557.3,516.5c-2.3,0.1,0.1-3.2-0.2-4.5C559.8,509.7,557.8,515.3,557.3,516.5z M568.8,494.3
	c-0.2,0-0.7-1.5,0.3-1.9C570.8,492.2,570,494.3,568.8,494.3z M570.5,543.2c-1.3-0.2-0.6-2.2,0.5-1.5
	C571.7,542.3,571.5,543.4,570.5,543.2z M568.9,572c0.2-0.3,0.1-0.3,0.2,0H568.9z M584.1,585.1c0.6-0.7,1.3-0.1,3.7,1.3
	C589.2,588.9,582.4,588.8,584.1,585.1z M620.7,595.1c-1,0.2-0.1-1.3,0.2-0.3C620.8,595,620.8,595.1,620.7,595.1z M636.9,578.8
	c0.2-0.3,0.2-0.3,0.3,0H636.9z M640.8,579.8c-1.1,0.3-1.6-2.6,0-2.9C645.6,575.5,643.8,580.7,640.8,579.8z M650.5,577.6
	c-0.6,0.2-0.8-0.1-0.8-0.3C649.8,576,651.9,577.2,650.5,577.6z M662.1,562.6c0.1-0.1,0.2-0.1,0.5-0.1
	C663.6,562.9,661.7,563.3,662.1,562.6z M663.5,559.8v-0.2C663.8,559.7,664,559.7,663.5,559.8z M680.5,553c-0.2,0.1-0.3,0.2-0.6,0.3
	c-1.6,1.6-4.9,5.1-7.3,5.4c-3.3,2.4,11.2-1.4,6.2,0.9c-1.9-0.5-1.5-0.8-1.3,1c-0.7,1.9-13.8,4.5-9.1-0.5c-2.7-4.6,2.5-3.1,1.4-7.9
	c3.2-1.5,6,3.5,10.2,1C680.7,552.5,681.1,552.2,680.5,553z M681.9,558.5c-0.8,0.1-1.4-1.5-0.2-2.3
	C684.2,554.6,684.5,558,681.9,558.5z M685,552.1c-0.2-0.3,0-0.6,0.3-0.7C686.1,551.4,685.4,553,685,552.1z M692.1,550.6l0.5,0.2
	C692,551,692.1,551,692.1,550.6z M697.1,542.5c0.2-0.5,0.3-0.5,0.5,0.1C697.3,542.9,697.1,542.8,697.1,542.5z M698.1,534.5
	c-3.9,6.4,1.1-4.8,2.6-7.2c3.4,0.8,2.9,8.2,5.6,11C701.6,536.4,699.4,541.5,698.1,534.5z M706,559.4c-0.2-0.9,1.1-0.9,1-0.1
	C707.1,559.8,706.1,559.8,706,559.4z M707.3,518.1c-1.7,4.3-9.5-1.7-4.6-1.1c2.4,0.1,3.8,0.9,4.7,0.6
	C707.4,517.7,707.3,518,707.3,518.1z M664,525.5c-1.6-0.7,2.7,6.7-1.5,4c-1.8-7.8-1.9-1.8-4.5-4.6c1.6-3.7-5.7-5.9-6.2-6
	c0-0.4-0.1-0.8-0.1-1.1c0-8.3,11-3.4,14.1,2.5h0.9c-0.2-1.7-0.5-3.3-0.9-4.9c-1-0.2-1-0.8-0.5-1.6c-0.7-2.2-1.5-4.2-2.6-6.3
	c-3.2,0.8-6,0.7-7.6-1.8c-5.2,0.1,2.4,8.8-8.9,2.7c-3-4.8,7.8-4.7,13.1-6.3c-1-1.4-2.2-2.6-3.4-3.9c-7.1-7.2-16.5-11.1-26.7-11.1
	c-20.8,0-37.7,16.9-37.7,37.7c0,7.1,2.1,14,5.7,20.1l0.9,1.5l-3.8,13.9l14.3-3.8l1.4,0.8c5.8,3.4,12.4,5.2,19.2,5.2
	c8.2,0,15.7-2.6,21.9-7c6.2-4.4,11-10.6,13.6-17.9c-1.6-1.7-4.6-3.5-1.8-6.3c1.6,0.3,2.7,0.2,3.5,0c0.2-1.4,0.5-2.7,0.5-4.1
	C666.4,526.5,665.2,525.7,664,525.5z M648.6,503.1c-0.6,0.2-0.3,0.2-0.8-0.1C648.3,502.9,648.2,502.9,648.6,503.1z M651.7,541.1
	c-0.9,2.6-5.5,5-7.6,5.4c-1.9,0.3-4.5,0.5-7.2-0.5c-1.6-0.6-3.8-1.3-6.5-2.4c-11.4-4.9-18.8-16.3-19.4-17.1
	c-0.6-0.8-4.7-6.2-4.7-11.8c0-5.6,3-8.3,4-9.5c1-1.1,2.3-1.5,3-1.5h2.2c0.7,0,1.6-0.2,2.5,1.9c0.9,2.3,3.2,7.9,3.5,8.4
	c0.3,0.6,0.5,1.3,0.1,1.9c-0.3,0.8-1.6,2.4-2.9,3.9c-0.5,0.6-1.1,1.1-0.5,2.3c0.7,1.1,3,4.8,6.3,7.9c4.3,3.9,8,5,9.1,5.6
	c1.1,0.6,1.8,0.5,2.4-0.3c0.7-0.8,2.9-3.3,3.5-4.5c0.8-1.1,1.5-0.9,2.5-0.6c1,0.3,6.6,3.1,7.8,3.7c1.1,0.6,1.9,0.8,2.2,1.4
	C652.7,536.2,652.7,538.5,651.7,541.1z M654.9,532.7c-0.6,0.7-1.7,0.1-1.3-0.8C654.1,531.1,655.5,532.1,654.9,532.7z"/>
<path class="st4" d="M664.1,531.2c-0.1,1.2-0.2,2.5-0.4,3.6C665.6,534.3,665.4,532.6,664.1,531.2z"/>
<g>
	<path class="st4" d="M878.5,528.9c-2.4,0-2.3,1-3.2,1.6c-0.2,0.1-0.8,0.2-1.3-0.3c-1-1,0.8-1.9,1.2-2.4c1.2-1.5,0.7-1.6-1.3-3.1
		c-1.2,0.1-2.3,0.2-3.3,0.6c0,0-0.3-0.3-0.3-0.3c0.3-0.8,0.4-1.7,1.1-2.2c0,0,0.1,0,0.1-0.1c-0.4-0.1-0.8-0.2-1.1,0.3
		c-0.6,0.9-1.2,0.4-1.9-0.2c-0.6-0.5-1.7-0.8-1.6-1.8c0.1-1.2-0.7-2.2-1.9-1.3c-0.1,0.1-0.2,0.1-0.3,0.1c-0.9-0.3-0.1-0.8,0.6-2.1
		c0.3-0.7-0.8-0.6-1.4-1c-0.4-0.3-0.3-0.4-0.8-2.5c-0.7,0.4-1,0.1-5-2.1c-0.6-0.3-0.9-1.2-0.6-1.6c1.1-1.1,1.6-0.9,2-1.9
		c0.6-1.3,1-1.6,0.6-2c-0.8-0.7-1.1,1-2.1,1.1c-0.6,0.1-1.1-0.6-1-0.8c0.3-0.6,0.6-1.3,0.9-1.9c1.1-0.8,1.3-2.2,2.2-3.1
		c0.4-0.4,0.3-1.8-0.1-2c-0.5-0.4-0.5,0-1.8,1c-0.6,0.5-0.7,0.2-3.1-1.4c-1.3-0.9-0.1-1.3,0.7-2.9c0.3-0.5,0.8-0.3,1-1.4
		c0.1-0.3-0.1-0.6-0.5-0.8c-2.2-0.9-2.8-1-4.1-0.6c-2.2,0.7-2.8,0.7-3.1,1.3c-0.4,0.7-2.3,1.6-3,1.3c-1.8-0.7-1.2,1.6-2.4,0.5
		c-4.5-3.9-0.3-1.8-0.7-3.8c-0.1-0.6-0.8-1-1.1-0.8c-0.3,0.2-0.6,0.4-0.9,0.6c-0.5,0.3-1.2-0.2-1.8-0.1c-0.9,0-1.8-1.6-2.6-0.7
		c-0.6,0.7-3,0.7,0.4,1.3c1.7,0.3,2.7,1.9,4.1,4.1c0.4,0.6,0.3,1.7-0.2,1.8c-0.8,0.1-1.2,0.6-1.7,1c1.2,1.1,1.7,3.1,1.1,6l0,0
		l-13.9,65.3c-1,4.6-3.8,5.8-7.7,3.6l-21.3-15.6l-10.3,9.8c-1.1,1.1-2.1,2.1-4.3,2.1l1.5-21.5l39.4-35.4c1.7-1.5-0.4-2.4-2.7-0.8
		l-48.7,30.5l-20.9-6.5c-4.6-1.4-4.7-4.5,0.9-6.7l82-31.4c1.2-0.5,2.4-0.5,3.3-0.2c-0.1-0.4,0-1.1,0.2-1.9c0.1-0.4,0.1-0.5-1.6-3.5
		c-0.3-0.5-0.7-0.8-1.2-1.1c0-0.3-0.2-0.6-0.4-0.9c-1.8-1.8-0.3-2-1.8-2.9c-1-0.6-1-1.5-1.3-2.5c-0.6-1.8-4.1,0.1-3.9,1
		c0.2,0.6-0.1,1-0.4,1.4c-0.9,1.3,1.8,1.9,2.9,3.1c0.5,0.5,0.4,1.1-1.6,0.9c-2.2-0.3-2.2,1.3-3.2-0.3c-1.3-1.8-1.6-1.6-2.5-2.2
		c-2-1.3,1.8-3.7,3.4-4.2c1.2-0.4,0.1-1.4,1.5-2.3c0.8-0.5,1.3-1.1,1.8-1.2c0.9-0.4,3,1.6,2.5,0c-0.8-2.6,0.6-1.6,0.5-3.7
		c0-1.1,0.7-2.6,1.2-2.5c1.6,0.4,1-1.2,1.4-1.3c2-0.8,3.3-4.9,5.1-2.1c1.4,2.2,4.1,3.5,4.2,2.9c0.1-0.8-1.1-1.1-1.5-2.1
		c-0.7-1.5-3.3-1.8-2.8-3.4c0.4-1.1,0.3-1.1-1.3-1.8c-0.7-0.3-1-0.6-0.7-1c1-1.2,0.8-2.9-1.4-1.9c-0.5,0.2-0.8,1.6-2,0.1
		c-0.6-0.8-1.3-1.1-2.2-0.9c-1.6,0.3-1.9-2.3-3.9-2c-3.5,0.6-2.8,1-5.5,0.3c-1.6-0.4-1.7-1.8-2.7-1.6c-0.4,0.1-0.4,0.5,0.1,1
		c0.8,0.7,0.8,1.1,0.5,1.5c-0.9,1.1-1.8,0-2.4-0.4c-2.5-2.1-1.5,3-5.1,0.3c-1.6-1.2-0.9,0.5-1,0.8c-0.1,0.3-1.2-0.5-1.8-0.4
		c-1.7,0.3-2,0.7-1.8,1.5c0.4,1.6,0.3,2,1.4,3.1c0.8,0.9,1.7,1.7,1.2,2.5c-0.4,0.6-1.8,1.7-3.3,2.1c-0.3,0.1-1.2-0.5-1.3-0.8
		c-0.1-0.4-0.2-0.9-0.3-1.3c-0.2-0.9-1.7-1.6-2.4-1.1c-1.1,0.8-2.2,1.5-3.3,2.2c-0.9,0.6-2.1,0.9-2.8,1.7c-0.4,0.4-1.5-0.3-2.3-0.7
		c-1.5,0.9-3.1,1.5-4.4,2.5c-0.2,0.1-0.5,0.2-0.8,0.1c-2.1-0.3-1.6,1.8-3.4,3.3c-1.5,1.3,0.8,2.6-1,3.9c-1.1,0.8-2.5-0.2-5.1,1.6
		c-3.4,2.4-3.6,3-5.3,2.5c-1.9-0.5-6.9,4.8-8.8,5.5c-0.2,0.1-3,4.3-4.2,3.5c-1-0.6,0.9-3.4,1.4-3.9c0.5-0.4,0.8-0.8,1-1.5
		c0.4-1.4,1.1-1.7,1.9-2.5c0.8-0.9,0.3-1.3,0.3-2.5c0,0,0,0,0.1,0c0.3-1.3,0.3-2.2,1.6-2.1c1.6,0.1,1.8,0.9,2.7,0.4
		c3.3-2.3,1.7-2.2,6.4-2.1c0.4,0,1-0.9-0.8-1.1c-0.6,0-1.2,0.1-1.8-0.4c-0.7-0.5-0.7-1.1-1-1.7c-0.2-0.3-0.2-0.3-3.7-1
		c-2.1-0.4,0.5,2.3-0.7,3.3c-1,0.8-3.1-0.2-3.4-0.8c-0.9-1.7-0.6-2.5-1.8-2.5c-2.6,0-2.7-0.2-2.9,0.7c-0.1,0.2,0.3,2.3-0.9,1.6
		c-1-0.6-1.8-0.8-2.2,0.2c-0.3,0.6-0.1,1,0.2,2c0,0.1,0,0.2,0,0.4c0,1-1,0.5-1.6,0.5c-1.6-0.1,0.1,2-2.2,2c-1.1,0-1.6,1-3.1,2.3
		c-0.6,0.5-0.9,0.3-4,0.7c-0.3,0-0.2,0.8,0.2,1.1c0.4,0.4,0.9,0.7,1.4,0.9c4.5,1.2,4.7,0.5,5,1.5c0,0.1,0,0.3,0,0.3
		c-1.7,0.5-0.8,1.8-2,2.3c-1.3,0.5-2.3,1.4-3.4,2c-0.6,0.3-0.4,1.8,0.6,2.2c1.7,0.7,2.8,0.8,3.4,2.3c-0.6,0-0.9,0.3-1.3,0.6
		c-1.1,0.9-3.5,0.7-4.1,0v0c0.3,0.4,0.6,0.9,0.9,1.3c1.1,0.7,2,1.7,3,2.6c0.2,0.2,0.7,0.1,0.7-0.1c-0.2-1.4-0.7-1.8-0.1-1.9
		c0.5-0.1,1.1,0.5,1.3,0.7c0.7,0.8,1.7,1.5,1.7,2.5c0,0.8,1,2.9,0.4,3.7c0,0.1-0.4,0-0.4-0.1c-1.2-1.2-3.1-1.7-3.5-1
		c-0.2,0.5,0.5,0.8,0.8,1.2c0.7,0.7,0.6,1.4-0.1,1.2c-4-1-2.7,1.2-4.6,0.1c-0.6-0.3-0.3-0.4-3.4-2c-2.1-1.1-1.8,1.4-0.6,1.5
		c1.9,0.2,3,0,4.1,1.3c0.5,0.6,1.2,0.9,1.9,1.2v0c0,0,0,0,0,0l0,0c1.5,0,3.4,1.5,3.1,2.2c-1.3,3.2-2.9,1-4,0.6
		c-1.1-0.4-1.2,0.2-0.8,0.7c0.7,0.8,1.2,1.5,0.5,1.9c-0.6,0.3-0.6,1-0.8,1.6c-0.2,0.8-1.5-0.5-2.5,0c-2.4,1.3-3.4-1.2-8.1-0.9
		c-0.3,0-0.2,0.9,0,1.1c0.4,0.4,0.9,0.8,1.3,1.1c1,0.9,1.4,2.3,0.6,2.7l0.3,0.1c-1.4-0.4-3.2,0.8-6.1-0.8c-2.5-1.4-4-0.9-7.6-0.5
		c-0.3,0-0.5,0.6-0.3,1c0.7,1,0.9,1.8,0.3,2.4c-2.5,2.7,4.7,6,3.6,7.1c-0.3,0.3-1.2,0.5-0.3,1.7c0.6,0.7,0.8,0.5,4.3,1.6
		c0.8,0.2,1.1,1.1,0.5,1.3c-1.2,0.5-2.7,1-3.6,1.3c-0.8,0.3-0.8,1.9,1.6,3.9c1.6,1.3,2.7,1.3,4,3.8c1.9,3.7-1.1,5.5,5.3,8.8
		c0.6,0.3,1.8,0.6,2.1,1.7c2.2,7.5,10.9,19,22.1,25.8c1.8,1.1,3.5,2.3,5.2,3.6c0.6,0.5,1.2,1,1.9,1.3c1.9,0.9,3.5,2.3,5.3,3.4
		c6.5,4,6.8,3.7,8.4,5.6c1.1,1.3,1.5,2.2,2.9,2.4c1.6,0.3,1.8,0,3.7-0.4c1-0.2,1.6,1.4,2.1,2.1c0.3,0.4,1.5,1.1,2.2,0.6
		c1.1-0.7,1.3-3.1,4.2-3.2c2.5-0.1,1.1-2,2.4-3.3c0.6-0.6,2.7,0.4,3.6,1.4c1.8,2,2.8,3,4.8,3.7c-1-1.4,0.2-1.4-0.4-3l-1.8-1.2
		c-0.6-0.4-0.8-1.3-0.2-1.4c1-0.2,2.6,0.3,1.9-1.6c-0.4-1.1,0-1.9-0.1-2.9c-0.1-1,0.6-1.3,1.4-1.4c1.7-0.2,1.2,1.5,2.9,2.6
		c0.9,0.6,0.7,1.3,0.8,1.7c0.1,0.3,1,0.9,1.3,0.9c0.5-0.1,0.7-0.6,1.1-0.9c2.2,0.2,2.1-1.3,5-0.4c3.8,1.1,4,4.5,5.5,1.8
		c-0.6-3.4,1.3-3.6,1.7-5.9c1.4-7.6,5.5-8.5,8-10.3c0.5-0.4,1.3,0.4,2.8,1c2,0.8,1.9-0.4,4.2,1.1c0.4,0.3,0.4,0.2,2.9-0.3
		c1.4-2,1.7-0.5,1-3.8h0l0,0h0c-0.7-2.3-1.3-0.4-1.8-0.2c-1.1,0.5-2-1.3-2.5-2.7c-0.1-0.4-0.2-0.6,3.8-4.1c0.7-0.6,2.1-0.1,2.6-1.3
		c1.5-3.7,4.4-3.9,5.2-5.2c1.5-2.2,4.4-4.6,3.6-5c-0.8-0.4-1.3,0.5-2-0.5c-1.1-1.5,4-4.2,3.6-7.2c-0.1-0.7,1-2.1,1.3-2.5
		c0.4-0.5,1.6,0.2,2.3,0.5c1.9,0.8,1.4-0.7,2.3-0.8c0.7-0.1,2.9-1.4,0.9-3.4c-0.5-0.5-1.2-0.8-0.7-1.9c0.3-0.7,1.4-1.8,2.6-0.9
		c0.6,0.4,1.6,1,1.8,0.6c0.3-0.4-0.9-1.1-1.5-2.1c-1-1.6-4.1-3.4-5.1-2.3c-0.8,0.9-2,1.3-3.1,1.8c-0.7,0.4-1.9-0.1-2-0.8
		c-0.3-2,2.4-3.4-0.7-4.5c-0.9-0.3-0.8-0.8-0.7-1c1.7-1.6,1.4-1.5,2.6-0.6c2.1,1.6,2,1.7,3,1.3c2.1-0.9,1.7,2,3.9,2.5
		c0.9,0.2,2.1,0.8,2.6,0.2c0.6-0.7,1.2-2.4,3.3-3.6c0.2-0.1,0.3-0.7,0.2-1.1c-0.6-3.2,2.1-1.2,2.8-3.2
		C879.5,529.2,878.9,528.9,878.5,528.9z M836.6,470.2c0.3,0.8-0.7,0.9-0.8,0.3C835.8,470,836.5,470,836.6,470.2z M833.6,467.1
		c1-0.2,1.5,0.9,0.8,1C833.8,468.2,832.9,467.2,833.6,467.1z M821.1,491.9c0.1,0,0.2,0.1,0.3,0.2C821.2,493,820.4,492,821.1,491.9z
		 M806,502.2c0.5,0.6-0.5,0.4-0.6,0C805.4,501.9,805.8,502,806,502.2z M802.4,505.2c0.1,0,0.3,0.1,0.5,0.1c0,0.1,0.1,0.3,0.1,0.4
		c-0.6,0.7-1.8,2.4-2.6,1.2C800.1,506.5,800.2,506.6,802.4,505.2z M795.3,476.6c-0.1,0-0.3-0.1-0.4-0.1
		C794.9,475.4,795.8,476.4,795.3,476.6z M764.8,488.9c1.5-2.5,1.6-2.9,2.9-2.6c0,1.4-1.5,2.6-2.3,3.1
		C765.1,489.6,764.7,489.1,764.8,488.9z M753.6,501.1C753.6,501.1,753.6,501.1,753.6,501.1c0.2-0.6,0.5-0.9,0.6-1
		C754.1,500.2,754,500.5,753.6,501.1z M754.6,499.8C754.6,499.8,754.6,499.8,754.6,499.8C754.6,499.8,754.7,499.7,754.6,499.8
		C754.7,499.8,754.6,499.8,754.6,499.8z M760.6,487.5c-0.3,0-1-0.7-0.8-1C761.8,483.9,765,486.9,760.6,487.5z M760.3,481.9
		c0.3,0.2,0.3,0.5,0,0.6c-0.4,0.1-0.6,0.1-0.7,0.1C759.6,482.2,759.7,481.5,760.3,481.9z M758.7,487.5l0.3,0.3
		C758.6,487.8,758.6,487.9,758.7,487.5z M759.3,498.2c0.2,0.1,0.4,0.6,0.1,0.6c-0.8,0-1.5,0.2-2.3,0.5
		C756.2,499.6,754.7,496.5,759.3,498.2z M739.7,538.5c-1.2-0.3-1.4-1.5-1-1.7c2.2-1.5,2.3-1.1,4.3,0.5
		C743.6,538,741.7,539,739.7,538.5z M804.1,586.3c-0.1-0.1-0.1-0.1-0.1-0.2C804,586.3,804.1,586.3,804.1,586.3z M803.9,586.5
		c0.1-0.1,0.1-0.1,0.1-0.2C804.2,586.6,804.5,586.7,803.9,586.5z M817.1,589.1c-0.7,0.2-1.3-0.6-0.8-1
		C816.8,587.6,817.9,588.9,817.1,589.1z M828.8,591.7c0,0.3-0.3,1.1-0.7,1.1c-0.5,0-0.3-1-0.8-1.5c-0.7-0.7-1.1-1.4-1.6-2.2
		c-0.4-0.6-0.5-1.2-0.1-1.5c0.6-0.4,0.9-1.5,2.8-2.1c1-0.3,1.4,2.1,1.5,3.2C830.2,590.3,828.8,589.5,828.8,591.7z M834.1,580.8
		c-0.6,0-1.2-0.3-1.9-0.7c-0.3-0.2-0.8-1-0.7-1.2c0.2-0.5,0-0.5,2.5-1.3C835.1,577.3,837.3,580.6,834.1,580.8z M852.9,528.4
		c0.3,0.2,0.3,1.1-0.5,0.5C852.1,528.7,852.1,527.9,852.9,528.4z M856.4,535.9c-1,1.4-1.6,1.7-3,1c-0.5-0.3-1-0.6-1.2-1.1
		c-0.9-2.7-1.7-3,2.3-1.9C854.9,534,856.9,535.1,856.4,535.9z M861,522.9c-0.2,0.1-0.6-0.1-0.7-0.4c-0.2-0.8,0.7-1.2,1.2-1
		C861.8,521.6,862.1,522.6,861,522.9z M864.2,525.4c0.2-0.5,1.8,0.3,1.5,1C865,527.7,863.7,526.8,864.2,525.4z M865.7,530
		c-0.9-0.4-0.4-1.2,0.2-1.1C866.5,529,866.5,530.4,865.7,530z M870.3,534.4c-1.6-0.1-1.9-2.4,0.3-2.9c1-0.2,2.8,1.3,3.2,2.8
		C874,535.2,873.5,534.6,870.3,534.4z M872.6,522.8C872.6,522.8,872.6,522.8,872.6,522.8c-0.2-0.2-0.8-0.2-1.1,0
		C872,523,872.4,523.3,872.6,522.8C872.6,522.8,872.6,522.8,872.6,522.8z M863.3,514.1l-0.1,0C863.2,514.1,863.2,514.1,863.3,514.1
		C863.2,514.1,863.2,514.1,863.3,514.1C863.2,514.1,863.3,514.1,863.3,514.1L863.3,514.1z M813,601.5
		C813,601.5,813.1,601.5,813,601.5C813.1,601.5,813.1,601.5,813,601.5L813,601.5C813.1,601.5,813.1,601.5,813,601.5z"/>
	<path class="st4" d="M880.4,516.8c-0.7,0.3-1.4,0.5-1.7,1.2c-0.6,1.3-2,1-2.4,0.6c-3.1-2.9-3-2.3-4.8-4.7c-0.7-0.9,0.2-1.3,0.6-1.5
		l-0.2-0.1c3.9,4.3,5.4-3.9,7.9-2.1c1.2,0.8,1.5,1.1,2.5,3.8c0.2,0.5-0.2,1.2-0.3,1.5c-0.2,1.1,2.1,2.8,3.3,3.1
		c0.5,0.2,0.9,0.7,0.7,1.1c-0.2,0.6-0.1,1.3,0.2,2.1c-0.1-0.3-0.6-0.1-1-0.3c-8-4.4-4.2-8.5-9.1-7.7c-2.1,0.3-1,2.5-0.2,2.7
		C877.7,517.1,879.2,517.2,880.4,516.8z"/>
	<path class="st4" d="M850.5,483.1c0.7-0.2,0.8,0.3,0.5,0.5c-0.7,0.6-0.9,0.4-1.4,0.6c-1,0.4-2.3,1.7-1.4,3c2.2,3.1,4.3,2.3,2.1,3.8
		c-1.7,1.2-0.3,2.8-2.5,2.1c-0.5-0.1-1.3-1.1-1.1-1.5c1.4-3.3-2.6-4.7-0.4-5.7C849,484.6,848.7,483.5,850.5,483.1z"/>
	<path class="st4" d="M810.5,604.7c-2.7-1.3-1.8,1.6-3.2,1.2c-0.6-0.2-0.8-0.4-2.1-3.9c-1-2.7,0.5-4.5,1.9-3.1
		c1.8,1.7,1.1,1.7,3.1,3.9c0.7,0.8,1.2,0.7,2.2,0.6c-0.3-0.1,0.9,0.7,0.2,1.4c-0.3,0.3-0.7,0.6-1,0.8
		C811.8,606.1,811.5,605.2,810.5,604.7z"/>
	<path class="st4" d="M869.8,504c0,0.2-0.4,0.9-1.2,0.7c-0.7-0.2-0.8-1-1.3-2.1c-0.9-2.2-4.7-0.7-0.3-2.9c1.2-0.6-0.8-1.3,0.6-3.2
		c0.3-0.3,2.8,1,2.6,2.6c-0.1,0.7-0.8,1.6-0.2,3.1c-2.1-3-2.6-1.1-1.5-0.6C870.1,502.2,870.2,501.5,869.8,504z"/>
	<path class="st4" d="M851.2,478.5c-0.2,0.2-0.5,0.2-0.8-0.2c-0.1-0.1,0-0.3-0.1-0.4c-0.4-1.1-1.5-0.8-1.7-0.4
		c-0.5,1.6-1.5,1.2-2.1,0.5c-1.2-1.4,1-1.7,1.9-2.5c0.4-0.4,0.8-2.6,2-0.8C852.2,477.4,852.7,477.2,851.2,478.5z"/>
	<path class="st4" d="M857,483.4c-1.8-0.9-2.3-1.8-3.7-2.2c-1.4-1.7,5.3-3.8,4.9-2.3c-0.7,2.7-0.7,2.7-1.4,4.4
		C856.8,483.3,857,483.4,857,483.4z"/>
	<path class="st4" d="M842.2,482.5c-1-1.5-0.2-1.4-0.9-2.1c-0.4-0.4-1.9-0.8-2.6,0.9l0-0.1c0,0,0,0.1,0,0.1c0.2,0.8-0.1,1.3-1,1.4
		c-0.1,0-0.3,0-0.3,0.1c0,0,0,0,0,0h0c0,0,0,0,0,0c0.3,2.1,2.9,4.1,4.9,0.9C842.5,483.6,842.6,483.1,842.2,482.5z M839.8,483.8
		c0-0.3,0.5-0.3,0.7-0.1C841.1,484.3,839.7,484.7,839.8,483.8z"/>
	<path class="st4" d="M833.5,595.2c-1.2-0.7-1.7-2.1-1.6-2.4c0.5-2,2.2-0.9,2.4-0.4c0.1,0.4,0.3-0.1,0,2.7
		C834.1,595.2,833.8,595.4,833.5,595.2z"/>
	<path class="st4" d="M876.5,500.1c-0.7,0.5-2.2-1.4-0.6-1.7c0.7-0.2,0.4-1.1,1.2-1.2c0.5,0,1.4,0.6,1.1,1.2
		C877.8,499.2,877.5,499.3,876.5,500.1z"/>
	<path class="st4" d="M781.2,475.4c-0.4-1.5,3.7,1,1.8,2c-0.8,0.4-1.5,0.6-1.4-0.3C781.6,476.4,781.3,475.7,781.2,475.4z"/>
	<path class="st4" d="M863.7,507.6c0.1-0.3,0.3-0.7,0.5-1.1c0.4-0.8,1.8,0,2.3,0.8c0.3,0.5-0.2,0.8-0.5,0.7c-2-0.4-1.6,0.8-2.3,1.3
		c-0.3,0.2-1-0.1-0.9-0.6C862.7,508.3,863.2,508.1,863.7,507.6z"/>
	<path class="st4" d="M855,486.4c0.8-2.3-0.2-0.8,1.2-2.9c0.1-0.2,0.5-0.1,0.8-0.1c0,0-0.2,0-0.2,0c0.4,0.4,1,0.5,1.2,1
		c0.3,0.6-0.3,0.9-0.4,1.3c-0.1,0.4,0.2,0.9-0.7,1c-1.6,0.1-1,0.2-2.1-0.4L855,486.4z"/>
	<path class="st4" d="M731.9,520.8c-1.5,0.7-2.1,1.2-3,0.3C725.6,517.8,733.6,520,731.9,520.8z"/>
	<path class="st4" d="M874.1,494.9c-0.7-0.7-0.7-1-0.5-1.6c0.5-1.5,2.8,0,2.5,0.7C875.6,495.5,875.6,496.3,874.1,494.9z"/>
	<path class="st4" d="M877.3,509.1c-0.7,0.3-0.9,1.1-1.5,1.5c-0.3,0.2-1.4-0.1-1.8-0.6c-0.5-0.6-0.2-1,0.1-1c0.3,0,1.6,0.7,2.3-0.4
		c0.1-0.2,0.3-0.3,0.6-0.4c0.1,0,0.3,0.1,0.5,0.1C877.4,508.6,877.5,509.1,877.3,509.1z"/>
	<path class="st4" d="M858.8,490.5c-0.2-0.8,1.3,0,1.8-0.2c0.2-0.1,1.3-0.6,1.5-0.3c0.3,0.5,0.1,0.7-1.2,1.5
		C860.2,491.9,859,491,858.8,490.5z"/>
	<path class="st4" d="M876.8,503.6c0.1-0.6,1.5,0,1.8,0.9C879.1,506,876.5,505.4,876.8,503.6z"/>
	<path class="st4" d="M856,571.4c0.2-0.1,1.2,0.3-0.7,2.3c-0.1,0.1-0.8,0.3-1.2-0.1c-0.2-0.2-0.2-0.6-0.1-0.8
		C854.3,572.7,855.7,571.6,856,571.4z"/>
	<path class="st4" d="M836.2,486.9c1.3,2.4-2.5,2.1-1.1-0.4C835.3,486.1,836.1,486.6,836.2,486.9z"/>
	<path class="st4" d="M883.5,509.3c0-1.1,1.3-1,2.2,0.2C886.7,510.9,883.5,510.3,883.5,509.3z"/>
	<path class="st4" d="M855.2,475.4c-0.3,0.1-1.1-0.5-0.8-0.8C855.5,472.9,857.1,474.5,855.2,475.4z"/>
	<path class="st4" d="M842.2,478.4c-0.3,0.5-0.6,0.5-0.9,0.1c-0.3-0.4-0.1-0.5,0.4-0.8c0.1-0.1,0.5-0.3,0.7-0.2
		C842.7,477.8,842.3,478.1,842.2,478.4z"/>
	<path class="st4" d="M888.1,516.9c0,0.6-0.9,0.4-1.3-0.3C885.2,513.3,888.2,515.6,888.1,516.9z"/>
	<path class="st4" d="M748.1,502.8c-0.5,1.6-3.7-0.6-2.5-0.9c0.9-0.3,2.4,0.9,2.7-0.2C748.2,501.7,748.2,502.6,748.1,502.8z"/>
	<path class="st4" d="M741.2,512.9c-1-0.8-0.9-1.4,0.1-1.3C742.2,511.7,742.3,513.8,741.2,512.9z"/>
	<path class="st4" d="M874.9,490.2c0.8,0.4,0.5,1.2-0.2,0.8C873.6,490.4,873.1,489.2,874.9,490.2z"/>
	<path class="st4" d="M819.2,598.9c-0.2,0.3-0.9,0.2-1-0.3c-0.5-1.3-0.4-1.4-0.1-1.4C818.8,596.9,819.8,598.2,819.2,598.9z"/>
	<path class="st4" d="M873.7,521.2c0.1,0.1,0.3,0.3,0.2,0.4c-0.2,0.6-0.6,0.9-1.3,1.1C872.8,523.3,872,521.6,873.7,521.2z"/>
	<path class="st4" d="M870.4,505.1c-0.2-0.5,0.4-0.5,0.7-0.2C871.6,505.7,870.6,505.8,870.4,505.1z"/>
	<path class="st4" d="M836.2,482.1c-1-1,1.5-0.8,1.1,0.7C837.8,482.8,837,482.9,836.2,482.1z"/>
	<path class="st4" d="M872.1,512.5c-0.6-0.5-1.2-0.9-1.7-1.4c-0.5-0.4-0.1-0.9,0.2-0.8C871.2,510.6,871.5,512.2,872.1,512.5z"/>
	<path class="st4" d="M840,490c-0.6-0.8,0.2-1,0.8-0.2C841.5,490.5,840.6,490.8,840,490z"/>
	<path class="st4" d="M834.2,460.4c0.2-0.4,1.3-0.1,1.2,0.5C835.2,461.5,834,460.7,834.2,460.4z"/>
	<path class="st4" d="M881.3,502c0.1,0.3,0,0.6-0.3,0.6c-0.1,0-0.4,0-0.5-0.1C880,501.7,881.1,501.5,881.3,502z"/>
	<path class="st4" d="M874.3,498.1c-0.3,0.5-1.2-0.1-1.1-0.7C873.2,496.6,874.7,497.4,874.3,498.1z"/>
	<path class="st4" d="M893.5,514.5c0.2-0.4,0.9-0.1,1.1,0.1c0.2,0.2,0.2,0.9-0.5,0.6C893.7,515.1,893.4,514.7,893.5,514.5z"/>
	<path class="st4" d="M786.6,473.8c-0.8-0.9,0.5-1.3,0.8-0.3C787.6,474.1,786.8,474,786.6,473.8z"/>
	<path class="st4" d="M854.5,487.6c-0.3,0.2-1-0.3-0.8-0.7c0.2-0.5,0.7-0.6,1.3-0.5C854.8,485.8,855.4,487,854.5,487.6z"/>
	<path class="st4" d="M867,486.3c0.3,0.4,1.3,0.3,0.3-0.6C867.2,486,866.6,485.7,867,486.3z"/>
	<path class="st4" d="M848.8,480.9c-0.3-0.4-0.3-0.3,0.1-0.5C849.1,480.8,849.2,480.7,848.8,480.9z"/>
	<path class="st4" d="M858.8,496.4c-0.1,0-0.4,0-0.4-0.1c-0.2-0.3-0.2-0.5,0-0.6C858.9,495.6,859.2,496.2,858.8,496.4z"/>
	<path class="st4" d="M875,540c-0.1,0-0.2,0-0.3,0c0-0.1,0-0.2,0-0.3C875.1,539.7,875.2,539.8,875,540z"/>
	<path class="st4" d="M852.2,574.6l0.3,0.2C852.4,574.9,852.5,574.9,852.2,574.6z"/>
	<path class="st4" d="M815.2,593.8c-0.6-0.4-0.1-0.9,0.3-0.4C815.7,593.6,815.4,593.9,815.2,593.8z"/>
	<path class="st4" d="M812.7,602.4c0,0.4-0.1,0.7-0.5,0.9l0.1,0c-0.6-0.9-0.1-1.1,0.7-1.9C813.1,601.5,812.6,601.7,812.7,602.4z"/>
	<path class="st4" d="M750.2,513.9c-0.2-0.1,0-0.1,0.4,0.1C750.7,513.9,750.4,514,750.2,513.9z"/>
	<path class="st4" d="M851,577.5c-0.1-0.2,0.6,0.6,0.7,0.7C852.4,579.1,854.4,579.3,851,577.5z"/>
	<path class="st4" d="M746.2,519.5c-0.4-0.1-0.4,0-0.5-0.4C746.2,519.2,746.1,519.1,746.2,519.5z"/>
	<path class="st4" d="M863.3,514.1c0,0.1-0.1,0.1-0.1,0.2C863.8,514.5,863,514,863.3,514.1z"/>
	<path class="st4" d="M878.5,525l-0.2-0.2C878.6,524.8,878.5,524.7,878.5,525z"/>
	<path class="st4" d="M879.2,520.2c-0.1-0.5-0.2-0.4,0.3-0.3C879.6,520.4,879.6,520.3,879.2,520.2z"/>
	<path class="st4" d="M843.2,489l0.2,0.2C843.1,489.3,843.2,489.3,843.2,489z"/>
	<path class="st4" d="M886.5,521.7c0.3,0.3,0.2,0.3-0.3,0.1C886.3,522,886.3,521.9,886.5,521.7z"/>
	<path class="st4" d="M838.4,481.2l0.3,0.1C838.6,481.1,838.7,481.1,838.4,481.2z"/>
	<path class="st4" d="M758.2,477.1l0.2,0.2C758.1,477.3,758.2,477.4,758.2,477.1z"/>
	<path class="st4" d="M813.4,597.5l0.2-0.1C813.8,597.7,813.8,597.7,813.4,597.5z"/>
	<path class="st4" d="M812.7,598.5l0,0.3C812.7,598.6,812.6,598.5,812.7,598.5z"/>
	<path class="st4" d="M870.2,493.2l-0.2,0.1C869.9,492.9,869.8,492.9,870.2,493.2z"/>
	<path class="st4" d="M867.3,485.7c0.1,0.1,0.1,0.2,0.2,0.3C867.8,485.6,867.2,486.1,867.3,485.7z"/>
	<path class="st4" d="M811.5,605.6c0.1,0.1,0.2,0.1,0.3,0.2c0-0.3-0.1-0.3-0.2,0C811.6,605.8,811.5,605.6,811.5,605.6z"/>
	<path class="st4" d="M853,578.6c0,0,0,0.1-0.1,0.2C853,578.8,852.9,579.1,853,578.6z"/>
</g>
<path class="st5" d="M841.1,533.4c0,0-0.1,0.1-0.1,0.1c-0.3,0.2-1.2,0.1-1.4-0.9C840.2,532.7,840.7,533,841.1,533.4z"/>
</svg>
