<svg xmlns="http://www.w3.org/2000/svg" viewBox="0 0 20 18.1">
<g>
	<path fill="#808080" d="M15.9,2.6v1.1c0,0.3,0.1,0.7,0.3,0.9h-3.7c0.2-0.3,0.3-0.6,0.3-0.9V2.6h2.9H15.9 M9.6,2.6v1.1
		c0,0.3,0.1,0.7,0.3,0.9H6.2c0.2-0.3,0.3-0.6,0.3-0.9V2.6h2.9H9.6 M3.4,2.6v1.1c0,0.3,0.1,0.7,0.3,0.9H1V3.3c0-0.4,0.3-0.8,0.8-0.8
		h1.4H3.4 M19,3.9v0.8h-0.3C18.9,4.4,19,4.2,19,3.9 M16.3,0c-0.3,0-0.6,0.3-0.6,0.6v1h-3.9v2.1c0,0.3-0.3,0.6-0.6,0.6
		s-0.6-0.3-0.6-0.6c0-0.7,0-2.5,0-3.1C10.6,0.3,10.3,0,10,0S9.4,0.3,9.4,0.6v1H5.5v2.1c0,0.3-0.3,0.6-0.6,0.6S4.4,4.1,4.4,3.7
		c0-0.7,0-2.5,0-3.1C4.4,0.3,4.1,0,3.8,0S3.2,0.3,3.2,0.6v1H1.8C0.8,1.6,0,2.4,0,3.3v2.3h20c0-1.3,0-2.2,0-2.3c0-1-0.8-1.8-1.8-1.8
		H18v2.1c0,0.3-0.3,0.6-0.6,0.6s-0.6-0.3-0.6-0.6c0-0.7,0-2.5,0-3.1C16.9,0.3,16.6,0,16.3,0L16.3,0z"/>
</g>
<g>
	<path fill="#808080" d="M19,7.8v8.5c0,0.4-0.3,0.8-0.8,0.8H1.8c-0.4,0-0.8-0.3-0.8-0.8V7.8h3C3.3,8,2.8,8.6,2.8,9.4
		c0,0.5,0.2,1,0.6,1.3c-0.4,0.3-0.6,0.7-0.6,1.3c0,0.5,0.2,1,0.6,1.3c-0.4,0.3-0.6,0.7-0.6,1.3c0,0.9,0.7,1.6,1.6,1.6h1.3
		c0.9,0,1.6-0.7,1.6-1.6c0-0.5-0.2-1-0.6-1.3c0.4-0.3,0.6-0.7,0.6-1.3c0-0.5-0.2-1-0.6-1.3C7,10.3,7.2,9.9,7.2,9.4
		C7.2,8.6,6.7,8,6,7.8h3C8.3,8,7.8,8.6,7.8,9.4c0,0.5,0.2,1,0.6,1.3c-0.4,0.3-0.6,0.7-0.6,1.3c0,0.5,0.2,1,0.6,1.3
		c-0.4,0.3-0.6,0.7-0.6,1.3c0,0.9,0.7,1.6,1.6,1.6h1.3c0.9,0,1.6-0.7,1.6-1.6c0-0.5-0.2-1-0.6-1.3c0.4-0.3,0.6-0.7,0.6-1.3
		c0-0.5-0.2-1-0.6-1.3c0.4-0.3,0.6-0.7,0.6-1.3c0-0.7-0.5-1.4-1.2-1.5h3c-0.7,0.2-1.2,0.8-1.2,1.5c0,0.5,0.2,1,0.6,1.3
		c-0.4,0.3-0.6,0.7-0.6,1.3c0,0.5,0.2,1,0.6,1.3c-0.4,0.3-0.6,0.7-0.6,1.3c0,0.9,0.7,1.6,1.6,1.6h1.3c0.9,0,1.6-0.7,1.6-1.6
		c0-0.5-0.2-1-0.6-1.3c0.4-0.3,0.6-0.7,0.6-1.3c0-0.5-0.2-1-0.6-1.3c0.4-0.3,0.6-0.7,0.6-1.3c0-0.7-0.5-1.4-1.2-1.5H19 M20,6.8
		c-0.4,0-19.8,0-20,0v9.5c0,1,0.8,1.8,1.8,1.8h16.5c1,0,1.8-0.8,1.8-1.8C20,16.1,20,10.6,20,6.8L20,6.8z M14.4,9.9
		c-0.3,0-0.6-0.3-0.6-0.6s0.3-0.6,0.6-0.6h1.3c0.3,0,0.6,0.3,0.6,0.6S16,9.9,15.6,9.9H14.4L14.4,9.9z M9.4,9.9
		c-0.3,0-0.6-0.3-0.6-0.6s0.3-0.6,0.6-0.6h1.3c0.3,0,0.6,0.3,0.6,0.6S11,9.9,10.6,9.9H9.4L9.4,9.9z M4.4,9.9c-0.3,0-0.6-0.3-0.6-0.6
		s0.3-0.6,0.6-0.6h1.3C6,8.8,6.2,9,6.2,9.4S6,9.9,5.6,9.9H4.4L4.4,9.9z M14.4,12.4c-0.3,0-0.6-0.3-0.6-0.6s0.3-0.6,0.6-0.6h1.3
		c0.3,0,0.6,0.3,0.6,0.6s-0.3,0.6-0.6,0.6H14.4L14.4,12.4z M9.4,12.4c-0.3,0-0.6-0.3-0.6-0.6s0.3-0.6,0.6-0.6h1.3
		c0.3,0,0.6,0.3,0.6,0.6s-0.3,0.6-0.6,0.6H9.4L9.4,12.4z M4.4,12.4c-0.3,0-0.6-0.3-0.6-0.6s0.3-0.6,0.6-0.6h1.3
		c0.3,0,0.6,0.3,0.6,0.6S6,12.4,5.6,12.4H4.4L4.4,12.4z M14.4,14.9c-0.3,0-0.6-0.3-0.6-0.6s0.3-0.6,0.6-0.6h1.3
		c0.3,0,0.6,0.3,0.6,0.6s-0.3,0.6-0.6,0.6H14.4L14.4,14.9z M9.4,14.9c-0.3,0-0.6-0.3-0.6-0.6s0.3-0.6,0.6-0.6h1.3
		c0.3,0,0.6,0.3,0.6,0.6s-0.3,0.6-0.6,0.6H9.4L9.4,14.9z M4.4,14.9c-0.3,0-0.6-0.3-0.6-0.6s0.3-0.6,0.6-0.6h1.3
		c0.3,0,0.6,0.3,0.6,0.6S6,14.9,5.6,14.9H4.4L4.4,14.9z"/>
</g>
</svg>
