<?xml version="1.0" encoding="utf-8"?>
<!-- Generator: Adobe Illustrator 24.1.1, SVG Export Plug-In . SVG Version: 6.00 Build 0)  -->
<svg version="1.1" id="Слой_1" xmlns="http://www.w3.org/2000/svg" xmlns:xlink="http://www.w3.org/1999/xlink" x="0px" y="0px"
	 viewBox="0 0 30 30" style="enable-background:new 0 0 30 30;" xml:space="preserve">
<g>
	<path d="M24.2,13.9V0H0v15.1h5.1L5.2,30H30V13.9H24.2z M5.1,13.9H1.2V1.1H23v16.7l-4.7-3.9H11L5.2,8.1L5.1,13.9z M28.8,28.9H6.4
		V11.1l4.1,4.2l7.5-0.1l6.3,5.3l0-5.4h4.5"/>
	<path d="M12.9,21.2h1.8V23h-1.8V21.2z"/>
	<path d="M16.5,21.2h1.8V23h-1.8V21.2z"/>
	<path d="M20,21.2h1.8V23H20V21.2z"/>
	<path d="M16.7,4.9L15.8,4l-4.3,4.2L9.9,6.5L9.1,7.4l2.4,2.4L16.7,4.9z"/>
</g>
</svg>
