<?xml version="1.0" encoding="utf-8"?>
<!-- Generator: Adobe Illustrator 24.1.1, SVG Export Plug-In . SVG Version: 6.00 Build 0)  -->
<svg version="1.1" id="Слой_1" xmlns="http://www.w3.org/2000/svg" xmlns:xlink="http://www.w3.org/1999/xlink" x="0px" y="0px"
	 viewBox="0 0 29.5 30" style="enable-background:new 0 0 29.5 30;" xml:space="preserve">
<g>
	<path d="M19.4,0C13.8,0,9.3,4.5,9.3,10.1c0,1.2,0.2,2.5,0.7,3.6l-9.7,9.7C0.1,23.6,0,23.8,0,24v5.3C0,29.7,0.3,30,0.7,30h4.4
		c0.2,0,0.4-0.1,0.5-0.2l1.5-1.5c0.1-0.1,0.2-0.3,0.2-0.5V26h1.8c0.4,0,0.7-0.3,0.7-0.7v-0.7h0.7c0.4,0,0.7-0.3,0.7-0.7v-1.6h1.6
		c0.2,0,0.4-0.1,0.5-0.2l2.4-2.4c1.1,0.4,2.4,0.7,3.6,0.7c5.6,0,10.1-4.5,10.1-10.1C29.5,4.5,25,0,19.4,0z M19.4,18.8
		c-1.2,0-2.4-0.2-3.5-0.7c-0.3-0.1-0.6-0.1-0.8,0.1c0,0,0,0,0,0l-2.5,2.5h-2c-0.4,0-0.7,0.3-0.7,0.7V23H9.1c-0.4,0-0.7,0.3-0.7,0.7
		v0.7H6.6c-0.4,0-0.7,0.3-0.7,0.7v2.2l-1,1H1.5v-1l9-9c0.3-0.3,0.3-0.7,0-0.9c-0.3-0.3-0.7-0.3-0.9,0l-8.1,8.1v-1.3l9.8-9.8
		c0,0,0,0,0,0c0.2-0.2,0.3-0.5,0.1-0.8c-0.5-1.1-0.7-2.3-0.7-3.5c0-4.8,3.9-8.7,8.7-8.7s8.7,3.9,8.7,8.7
		C28.1,14.9,24.2,18.8,19.4,18.8z"/>
	<path d="M22.5,4.3c-1.5,0-2.8,1.2-2.8,2.8c0,1.5,1.2,2.8,2.8,2.8c1.5,0,2.8-1.2,2.8-2.8C25.2,5.5,24,4.3,22.5,4.3z M22.5,8.3
		c-0.7,0-1.3-0.6-1.3-1.3s0.6-1.3,1.3-1.3c0.7,0,1.3,0.6,1.3,1.3S23.2,8.3,22.5,8.3z"/>
</g>
</svg>
