<?xml version="1.0" encoding="utf-8"?>
<!-- Generator: Adobe Illustrator 24.1.1, SVG Export Plug-In . SVG Version: 6.00 Build 0)  -->
<svg version="1.1" id="Слой_1" xmlns="http://www.w3.org/2000/svg" xmlns:xlink="http://www.w3.org/1999/xlink" x="0px" y="0px"
	 viewBox="0 0 30 30" style="enable-background:new 0 0 30 30;" xml:space="preserve">
<path d="M25,9V3c0-0.1-0.1-0.3-0.2-0.4s-0.2-0.1-0.4-0.1H10c-0.1,0-0.3,0.1-0.4,0.1S9.4,2.9,9.4,3v6c0,0.1,0.1,0.3,0.2,0.4
	S9.9,9.5,10,9.5h14.4c0.1,0,0.3-0.1,0.4-0.1S25,9.1,25,9z M23.9,8.5H10.6v-5h13.3V8.5z"/>
<path d="M1.7,22.5c-0.4,0-0.9,0.2-1.2,0.4C0.2,23.2,0,23.6,0,24s0.2,0.8,0.5,1.1c0.3,0.3,0.7,0.4,1.2,0.4h0.6v2
	c0,0.7,0.3,1.3,0.8,1.8C3.6,29.7,4.3,30,5,30h24.4c0.1,0,0.3-0.1,0.4-0.1c0.1-0.1,0.2-0.2,0.2-0.4v-28c0-0.1-0.1-0.3-0.2-0.4
	C29.7,1.1,29.6,1,29.4,1h-1.7V0.5c0-0.1-0.1-0.3-0.2-0.4C27.5,0.1,27.4,0,27.2,0H2.8C2.6,0,2.5,0.1,2.4,0.1C2.3,0.2,2.2,0.4,2.2,0.5
	v2H1.7c-0.4,0-0.9,0.2-1.2,0.4C0.2,3.2,0,3.6,0,4s0.2,0.8,0.5,1.1c0.3,0.3,0.7,0.4,1.2,0.4h0.6v2H1.7c-0.4,0-0.9,0.2-1.2,0.4
	C0.2,8.2,0,8.6,0,9s0.2,0.8,0.5,1.1c0.3,0.3,0.7,0.4,1.2,0.4h0.6v2H1.7c-0.4,0-0.9,0.2-1.2,0.4C0.2,13.2,0,13.6,0,14
	s0.2,0.8,0.5,1.1c0.3,0.3,0.7,0.4,1.2,0.4h0.6v2H1.7c-0.4,0-0.9,0.2-1.2,0.4C0.2,18.2,0,18.6,0,19s0.2,0.8,0.5,1.1
	c0.3,0.3,0.7,0.4,1.2,0.4h0.6v2H1.7z M1.1,24c0-0.1,0.1-0.3,0.2-0.4c0.1-0.1,0.2-0.1,0.4-0.1h2.2c0.1,0,0.3,0.1,0.4,0.1
	c0.1,0.1,0.2,0.2,0.2,0.4s-0.1,0.3-0.2,0.4c-0.1,0.1-0.2,0.1-0.4,0.1H1.7c-0.1,0-0.3-0.1-0.4-0.1C1.2,24.3,1.1,24.1,1.1,24L1.1,24z
	 M7.8,1h18.9v26H7.8V1z M27.2,28c0.1,0,0.3-0.1,0.4-0.1c0.1-0.1,0.2-0.2,0.2-0.4V2h1.1v27H5c-0.3,0-0.7-0.1-1-0.3
	c-0.3-0.2-0.5-0.4-0.6-0.7H27.2z M1.7,4.5c-0.1,0-0.3-0.1-0.4-0.1C1.2,4.3,1.1,4.1,1.1,4s0.1-0.3,0.2-0.4c0.1-0.1,0.2-0.1,0.4-0.1
	h2.2c0.1,0,0.3,0.1,0.4,0.1C4.4,3.7,4.4,3.9,4.4,4S4.4,4.3,4.3,4.4C4.2,4.4,4,4.5,3.9,4.5H1.7z M1.1,9c0-0.1,0.1-0.3,0.2-0.4
	c0.1-0.1,0.2-0.1,0.4-0.1h2.2c0.1,0,0.3,0.1,0.4,0.1C4.4,8.7,4.4,8.9,4.4,9S4.4,9.3,4.3,9.4C4.2,9.4,4,9.5,3.9,9.5H1.7
	c-0.1,0-0.3-0.1-0.4-0.1C1.2,9.3,1.1,9.1,1.1,9z M1.1,14c0-0.1,0.1-0.3,0.2-0.4c0.1-0.1,0.2-0.1,0.4-0.1h2.2c0.1,0,0.3,0.1,0.4,0.1
	c0.1,0.1,0.2,0.2,0.2,0.4s-0.1,0.3-0.2,0.4c-0.1,0.1-0.2,0.1-0.4,0.1H1.7c-0.1,0-0.3-0.1-0.4-0.1C1.2,14.3,1.1,14.1,1.1,14z M1.1,19
	c0-0.1,0.1-0.3,0.2-0.4c0.1-0.1,0.2-0.1,0.4-0.1h2.2c0.1,0,0.3,0.1,0.4,0.1c0.1,0.1,0.2,0.2,0.2,0.4s-0.1,0.3-0.2,0.4
	c-0.1,0.1-0.2,0.1-0.4,0.1H1.7c-0.1,0-0.3-0.1-0.4-0.1C1.2,19.3,1.1,19.1,1.1,19z M3.3,20.5h0.6c0.4,0,0.9-0.2,1.2-0.4
	s0.5-0.7,0.5-1.1s-0.2-0.8-0.5-1.1s-0.7-0.4-1.2-0.4H3.3v-2h0.6c0.4,0,0.9-0.2,1.2-0.4c0.3-0.3,0.5-0.7,0.5-1.1s-0.2-0.8-0.5-1.1
	c-0.3-0.3-0.7-0.4-1.2-0.4H3.3v-2h0.6c0.4,0,0.9-0.2,1.2-0.4C5.4,9.8,5.6,9.4,5.6,9S5.4,8.2,5.1,7.9S4.3,7.5,3.9,7.5H3.3v-2h0.6
	c0.4,0,0.9-0.2,1.2-0.4C5.4,4.8,5.6,4.4,5.6,4S5.4,3.2,5.1,2.9S4.3,2.5,3.9,2.5H3.3V1h3.3v26H3.3v-1.5h0.6c0.4,0,0.9-0.2,1.2-0.4
	s0.5-0.7,0.5-1.1s-0.2-0.8-0.5-1.1s-0.7-0.4-1.2-0.4H3.3V20.5z"/>
<path d="M19.4,24.5h-1.1c-0.1,0-0.3,0.1-0.4,0.1c-0.1,0.1-0.2,0.2-0.2,0.4s0.1,0.3,0.2,0.4c0.1,0.1,0.2,0.1,0.4,0.1h1.1
	c0.1,0,0.3-0.1,0.4-0.1c0.1-0.1,0.2-0.2,0.2-0.4s-0.1-0.3-0.2-0.4C19.7,24.6,19.6,24.5,19.4,24.5z"/>
<path d="M19.4,22.5h-1.1c-0.1,0-0.3,0.1-0.4,0.1c-0.1,0.1-0.2,0.2-0.2,0.4s0.1,0.3,0.2,0.4c0.1,0.1,0.2,0.1,0.4,0.1h1.1
	c0.1,0,0.3-0.1,0.4-0.1c0.1-0.1,0.2-0.2,0.2-0.4s-0.1-0.3-0.2-0.4C19.7,22.6,19.6,22.5,19.4,22.5z"/>
<path d="M25,24.5h-3.3c-0.1,0-0.3,0.1-0.4,0.1c-0.1,0.1-0.2,0.2-0.2,0.4s0.1,0.3,0.2,0.4c0.1,0.1,0.2,0.1,0.4,0.1H25
	c0.1,0,0.3-0.1,0.4-0.1c0.1-0.1,0.2-0.2,0.2-0.4s-0.1-0.3-0.2-0.4C25.3,24.6,25.1,24.5,25,24.5z"/>
<path d="M25,22.5h-3.3c-0.1,0-0.3,0.1-0.4,0.1c-0.1,0.1-0.2,0.2-0.2,0.4s0.1,0.3,0.2,0.4c0.1,0.1,0.2,0.1,0.4,0.1H25
	c0.1,0,0.3-0.1,0.4-0.1c0.1-0.1,0.2-0.2,0.2-0.4s-0.1-0.3-0.2-0.4C25.3,22.6,25.1,22.5,25,22.5z"/>
</svg>
