<svg xmlns="http://www.w3.org/2000/svg" display="none">


<symbol id="calendar" viewBox="0 0 20 18.1">
<g>
	<path fill="#808080" d="M15.9,2.6v1.1c0,0.3,0.1,0.7,0.3,0.9h-3.7c0.2-0.3,0.3-0.6,0.3-0.9V2.6h2.9H15.9 M9.6,2.6v1.1
		c0,0.3,0.1,0.7,0.3,0.9H6.2c0.2-0.3,0.3-0.6,0.3-0.9V2.6h2.9H9.6 M3.4,2.6v1.1c0,0.3,0.1,0.7,0.3,0.9H1V3.3c0-0.4,0.3-0.8,0.8-0.8
		h1.4H3.4 M19,3.9v0.8h-0.3C18.9,4.4,19,4.2,19,3.9 M16.3,0c-0.3,0-0.6,0.3-0.6,0.6v1h-3.9v2.1c0,0.3-0.3,0.6-0.6,0.6
		s-0.6-0.3-0.6-0.6c0-0.7,0-2.5,0-3.1C10.6,0.3,10.3,0,10,0S9.4,0.3,9.4,0.6v1H5.5v2.1c0,0.3-0.3,0.6-0.6,0.6S4.4,4.1,4.4,3.7
		c0-0.7,0-2.5,0-3.1C4.4,0.3,4.1,0,3.8,0S3.2,0.3,3.2,0.6v1H1.8C0.8,1.6,0,2.4,0,3.3v2.3h20c0-1.3,0-2.2,0-2.3c0-1-0.8-1.8-1.8-1.8
		H18v2.1c0,0.3-0.3,0.6-0.6,0.6s-0.6-0.3-0.6-0.6c0-0.7,0-2.5,0-3.1C16.9,0.3,16.6,0,16.3,0L16.3,0z"/>
</g>
<g>
	<path fill="#808080" d="M19,7.8v8.5c0,0.4-0.3,0.8-0.8,0.8H1.8c-0.4,0-0.8-0.3-0.8-0.8V7.8h3C3.3,8,2.8,8.6,2.8,9.4
		c0,0.5,0.2,1,0.6,1.3c-0.4,0.3-0.6,0.7-0.6,1.3c0,0.5,0.2,1,0.6,1.3c-0.4,0.3-0.6,0.7-0.6,1.3c0,0.9,0.7,1.6,1.6,1.6h1.3
		c0.9,0,1.6-0.7,1.6-1.6c0-0.5-0.2-1-0.6-1.3c0.4-0.3,0.6-0.7,0.6-1.3c0-0.5-0.2-1-0.6-1.3C7,10.3,7.2,9.9,7.2,9.4
		C7.2,8.6,6.7,8,6,7.8h3C8.3,8,7.8,8.6,7.8,9.4c0,0.5,0.2,1,0.6,1.3c-0.4,0.3-0.6,0.7-0.6,1.3c0,0.5,0.2,1,0.6,1.3
		c-0.4,0.3-0.6,0.7-0.6,1.3c0,0.9,0.7,1.6,1.6,1.6h1.3c0.9,0,1.6-0.7,1.6-1.6c0-0.5-0.2-1-0.6-1.3c0.4-0.3,0.6-0.7,0.6-1.3
		c0-0.5-0.2-1-0.6-1.3c0.4-0.3,0.6-0.7,0.6-1.3c0-0.7-0.5-1.4-1.2-1.5h3c-0.7,0.2-1.2,0.8-1.2,1.5c0,0.5,0.2,1,0.6,1.3
		c-0.4,0.3-0.6,0.7-0.6,1.3c0,0.5,0.2,1,0.6,1.3c-0.4,0.3-0.6,0.7-0.6,1.3c0,0.9,0.7,1.6,1.6,1.6h1.3c0.9,0,1.6-0.7,1.6-1.6
		c0-0.5-0.2-1-0.6-1.3c0.4-0.3,0.6-0.7,0.6-1.3c0-0.5-0.2-1-0.6-1.3c0.4-0.3,0.6-0.7,0.6-1.3c0-0.7-0.5-1.4-1.2-1.5H19 M20,6.8
		c-0.4,0-19.8,0-20,0v9.5c0,1,0.8,1.8,1.8,1.8h16.5c1,0,1.8-0.8,1.8-1.8C20,16.1,20,10.6,20,6.8L20,6.8z M14.4,9.9
		c-0.3,0-0.6-0.3-0.6-0.6s0.3-0.6,0.6-0.6h1.3c0.3,0,0.6,0.3,0.6,0.6S16,9.9,15.6,9.9H14.4L14.4,9.9z M9.4,9.9
		c-0.3,0-0.6-0.3-0.6-0.6s0.3-0.6,0.6-0.6h1.3c0.3,0,0.6,0.3,0.6,0.6S11,9.9,10.6,9.9H9.4L9.4,9.9z M4.4,9.9c-0.3,0-0.6-0.3-0.6-0.6
		s0.3-0.6,0.6-0.6h1.3C6,8.8,6.2,9,6.2,9.4S6,9.9,5.6,9.9H4.4L4.4,9.9z M14.4,12.4c-0.3,0-0.6-0.3-0.6-0.6s0.3-0.6,0.6-0.6h1.3
		c0.3,0,0.6,0.3,0.6,0.6s-0.3,0.6-0.6,0.6H14.4L14.4,12.4z M9.4,12.4c-0.3,0-0.6-0.3-0.6-0.6s0.3-0.6,0.6-0.6h1.3
		c0.3,0,0.6,0.3,0.6,0.6s-0.3,0.6-0.6,0.6H9.4L9.4,12.4z M4.4,12.4c-0.3,0-0.6-0.3-0.6-0.6s0.3-0.6,0.6-0.6h1.3
		c0.3,0,0.6,0.3,0.6,0.6S6,12.4,5.6,12.4H4.4L4.4,12.4z M14.4,14.9c-0.3,0-0.6-0.3-0.6-0.6s0.3-0.6,0.6-0.6h1.3
		c0.3,0,0.6,0.3,0.6,0.6s-0.3,0.6-0.6,0.6H14.4L14.4,14.9z M9.4,14.9c-0.3,0-0.6-0.3-0.6-0.6s0.3-0.6,0.6-0.6h1.3
		c0.3,0,0.6,0.3,0.6,0.6s-0.3,0.6-0.6,0.6H9.4L9.4,14.9z M4.4,14.9c-0.3,0-0.6-0.3-0.6-0.6s0.3-0.6,0.6-0.6h1.3
		c0.3,0,0.6,0.3,0.6,0.6S6,14.9,5.6,14.9H4.4L4.4,14.9z"/>
</g>
</symbol>

<symbol id="clock" viewBox="0 0 20 20">
<path fill="#808080" d="M10,0c5.5,0,10,4.5,10,10c0,5.5-4.5,10-10,10S0,15.5,0,10C0,4.5,4.5,0,10,0z M10,18.8c4.8,0,8.8-3.9,8.8-8.7
	c0-4.8-3.9-8.8-8.8-8.8S1.3,5.2,1.3,10C1.3,14.8,5.2,18.8,10,18.8z"/>
<path fill="#808080" d="M9.6,4h1.3v6.5l-3.9,3.9L6,13.6L9.6,10V4z"/>
</symbol>

<symbol id="question" viewBox="0 0 512 512">
<path fill="#808080" d="M277.3,384c0,11.8-9.6,21.3-21.3,21.3s-21.3-9.6-21.3-21.3s9.6-21.3,21.3-21.3S277.3,372.2,277.3,384z"/>
<path fill="#808080" d="M256,512C114.8,512,0,397.2,0,256S114.8,0,256,0s256,114.8,256,256S397.2,512,256,512z M256,32
	C132.5,32,32,132.5,32,256s100.5,224,224,224s224-100.5,224-224S379.5,32,256,32z"/>
<path fill="#808080" d="M256,314.7c-8.8,0-16-7.2-16-16v-21.5c0-20.3,12.9-38.5,32-45.3c25.5-9,42.6-36.1,42.6-55.9
	c0-32.4-26.3-58.7-58.7-58.7s-58.7,26.3-58.7,58.7c0,8.8-7.2,16-16,16s-16-7.2-16-16c0-50,40.7-90.7,90.7-90.7s90.7,40.7,90.7,90.7
	c0,35.6-28.1,73.4-64,86c-6.4,2.2-10.7,8.3-10.7,15.1v21.5C272,307.5,264.8,314.7,256,314.7z"/>
</symbol>

<symbol id="test-clock" viewBox="0 0 30 30">
<g>
	<path d="M28.5,12.7l-0.2,0.5l-1.3-0.5c0.3,0.4,0.6,0.8,0.8,1.3l0.2,0.1l-0.1,0.2c0.2,0.4,0.3,0.8,0.5,1.2l0.7-1.7
		C28.9,13.3,28.7,13,28.5,12.7z M25.8,9.8L25.3,11c0.2,0.2,0.5,0.4,0.7,0.6l0.5-1.3C26.3,10.1,26.1,9.9,25.8,9.8
		C25.8,9.8,25.8,9.8,25.8,9.8z M22.6,26.6v2.5H0.9V5.7c0-0.2-0.2-0.4-0.4-0.4C0.2,5.2,0,5.4,0,5.7v23.9C0,29.8,0.2,30,0.4,30h22.6
		c0.2,0,0.4-0.2,0.4-0.4v-3.3C23.2,26.4,22.9,26.5,22.6,26.6z M23.4,6l-5.9-5.9C17.4,0,17.3,0,17.2,0H0.4C0.2,0,0,0.2,0,0.4v3.4
		c0,0.2,0.2,0.4,0.4,0.4c0.2,0,0.4-0.2,0.4-0.4v-3h15.8v5.4c0,0.2,0.2,0.4,0.4,0.4h5.4v2.8c0.3,0.1,0.6,0.2,0.9,0.4V6.3
		C23.5,6.2,23.5,6.1,23.4,6z M17.6,5.9V1.5L22,5.9H17.6z M20.9,27c0,0.1,0.1,0.1,0.2,0.1c0.1,0,0.1,0,0.2,0c0.1,0,0.2,0,0.3-0.1
		l0.3-0.2C21.5,26.9,21.2,27,20.9,27z"/>
	<path d="M14.9,4.9H9.3c-0.2,0-0.4,0.2-0.4,0.4c0,0.2,0.2,0.4,0.4,0.4h5.5c0.2,0,0.4-0.2,0.4-0.4C15.3,5.1,15.1,4.9,14.9,4.9z"/>
	<path d="M8,9.6C7.8,9.4,7.5,9.4,7.4,9.6l-0.5,0.6H3.5c-0.2,0-0.4,0.2-0.4,0.4v3.5c0,0.2,0.2,0.4,0.4,0.4H7c0.2,0,0.4-0.2,0.4-0.4
		V11l0.7-0.8C8.2,10,8.2,9.7,8,9.6z M6.5,13.7H3.9v-2.6h2.3L5.5,12L5,11.5c-0.2-0.2-0.5-0.2-0.6,0c-0.2,0.2-0.2,0.5,0,0.6L5.2,13
		c0.1,0.1,0.2,0.1,0.3,0.1c0,0,0,0,0,0c0.1,0,0.2-0.1,0.3-0.2l0.6-0.8V13.7z"/>
	<path d="M14.2,10.9c-0.4,0.3-0.7,0.6-1,0.9h-3.1c-0.2,0-0.4-0.2-0.4-0.4c0-0.2,0.2-0.4,0.4-0.4H14.2z"/>
	<path d="M12.2,13.1c-0.2,0.3-0.4,0.6-0.5,0.9h-1.6c-0.2,0-0.4-0.2-0.4-0.4c0-0.2,0.2-0.4,0.4-0.4H12.2z"/>
	<path d="M8,15.4c-0.2-0.2-0.5-0.1-0.6,0.1l-0.5,0.6H3.5c-0.2,0-0.4,0.2-0.4,0.4V20c0,0.2,0.2,0.4,0.4,0.4H7c0.2,0,0.4-0.2,0.4-0.4
		v-3.2L8.1,16C8.2,15.8,8.2,15.6,8,15.4z M6.5,19.6H3.9V17h2.3l-0.7,0.9L5,17.4c-0.2-0.2-0.5-0.2-0.6,0c-0.2,0.2-0.2,0.5,0,0.6
		l0.9,0.9C5.3,18.9,5.4,19,5.6,19c0,0,0,0,0,0c0.1,0,0.2-0.1,0.3-0.2L6.5,18V19.6z"/>
	<path d="M10.1,16.8h0.8c0,0.3-0.1,0.6-0.1,0.9h-0.7c-0.2,0-0.4-0.2-0.4-0.4C9.6,17,9.8,16.8,10.1,16.8z"/>
	<path d="M20.1,17.2c0,0.2-0.2,0.4-0.4,0.4h-0.3v-0.9h0.3C19.9,16.8,20.1,17,20.1,17.2z"/>
	<path d="M10.9,19.8h-0.8c-0.2,0-0.4-0.2-0.4-0.4s0.2-0.4,0.4-0.4h0.7C10.8,19.2,10.8,19.5,10.9,19.8z"/>
	<path d="M7,21.9H3.5c-0.2,0-0.4,0.2-0.4,0.4v3.5c0,0.2,0.2,0.4,0.4,0.4H7c0.2,0,0.4-0.2,0.4-0.4v-3.5C7.4,22.1,7.2,21.9,7,21.9z
		 M6.5,25.4H3.9v-2.6h2.6V25.4z"/>
	<path d="M12.6,23.5h-2.5c-0.2,0-0.4-0.2-0.4-0.4s0.2-0.4,0.4-0.4H12C12.2,22.9,12.4,23.2,12.6,23.5z"/>
	<path d="M13.7,24.8h-1.8h-1.8c-0.2,0-0.4,0.2-0.4,0.4s0.2,0.4,0.4,0.4h2.7h2.1L13.7,24.8z"/>
	<g>
		<path d="M29,13.7c-0.2-0.4-0.3-0.7-0.5-1c-0.5-0.9-1.2-1.6-1.9-2.3c-0.2-0.2-0.5-0.4-0.7-0.6c-0.7-0.5-1.5-1-2.3-1.3
			c-0.3-0.1-0.6-0.2-0.9-0.3c-0.9-0.3-1.9-0.4-2.9-0.4c-2.9,0-5.6,1.2-7.4,3.2c-0.3,0.3-0.5,0.6-0.8,0.9c-0.3,0.4-0.6,0.8-0.8,1.2
			c-0.2,0.3-0.3,0.6-0.4,0.9c-0.5,1.3-0.8,2.6-0.8,4.1c0,1.6,0.4,3.2,1.1,4.6c0.2,0.3,0.3,0.6,0.5,0.9c0.3,0.4,0.6,0.9,0.9,1.2
			c0.3,0.3,0.6,0.6,0.9,0.9c1.8,1.7,4.3,2.7,6.9,2.7c1,0,2-0.1,2.9-0.4c0.3-0.1,0.6-0.2,0.9-0.3c3.8-1.5,6.5-5.2,6.5-9.6
			C30,16.5,29.7,15,29,13.7z M23.5,26.3c-0.3,0.1-0.6,0.3-0.9,0.4c-0.3,0.1-0.5,0.2-0.8,0.2c-0.3,0.1-0.6,0.1-0.9,0.2
			c-0.4,0.1-0.8,0.1-1.2,0.1c-1.8,0-3.4-0.5-4.8-1.4c-0.4-0.3-0.8-0.6-1.1-0.9c-0.4-0.4-0.8-0.8-1.1-1.2c-0.2-0.3-0.4-0.6-0.6-0.9
			c-0.5-0.9-0.9-1.8-1.1-2.8c-0.1-0.3-0.1-0.6-0.1-0.9c0-0.3,0-0.6,0-0.9c0-0.1,0-0.2,0-0.4c0-0.3,0-0.6,0.1-0.9
			c0.1-1,0.4-2,0.9-2.8c0.2-0.3,0.3-0.6,0.5-0.9c0.3-0.4,0.6-0.9,1-1.2c0.3-0.3,0.6-0.6,1-0.9c1.5-1.2,3.4-1.9,5.5-1.9
			c1,0,2,0.2,2.9,0.5c0.3,0.1,0.6,0.2,0.9,0.4c0.6,0.3,1.3,0.7,1.8,1.1c0.2,0.2,0.5,0.4,0.7,0.6c0.3,0.3,0.6,0.7,0.9,1
			c0.3,0.4,0.6,0.8,0.8,1.3c0,0.1,0.1,0.2,0.1,0.2c0.2,0.4,0.3,0.8,0.5,1.2c0.3,0.9,0.4,1.8,0.4,2.7C28.8,21.7,26.6,24.8,23.5,26.3z
			"/>
		<polygon points="20.6,11.8 20.6,18.5 16.6,22.6 15.6,21.7 19.3,18 19.3,11.8 		"/>
	</g>
</g>
</symbol>

<symbol id="test" viewBox="0 0 30 30">
<path d="M29.9099 10.6485C29.7914 10.3661 29.5697 10.1466 29.2859 10.0307L27.2814 9.21181C26.9979 9.09599 26.6857 9.09714 26.4028 9.2157C26.1197 9.33426 25.9001 9.55559 25.7838 9.83871L23.502 15.4072V6.30775C23.502 6.18965 23.455 6.07613 23.3713 5.99258L17.4998 0.130463C17.4162 0.0469208 17.3027 0 17.1844 0H0.446327C0.199896 0 0 0.199585 0 0.445633V3.88412C0 4.13017 0.199896 4.32976 0.446327 4.32976C0.692759 4.32976 0.892426 4.13017 0.892426 3.88412V0.891037H16.7379V6.30775C16.7379 6.5538 16.9377 6.75316 17.1842 6.75316H22.6096V17.5852L20.6422 22.3856C20.6175 22.446 20.6063 22.5112 20.6097 22.5764L20.8197 26.7702C20.8284 26.9428 20.9361 27.0948 21.0964 27.1603C21.1509 27.1827 21.2082 27.1935 21.2653 27.1935C21.3753 27.1935 21.4835 27.1529 21.5674 27.0758L22.6093 26.1182V29.109H0.892426V5.66643C0.892426 5.42038 0.692759 5.22079 0.446327 5.22079C0.199896 5.22079 0 5.42038 0 5.66643V29.5544C0 29.8004 0.199896 30 0.446327 30H23.0557C23.3021 30 23.502 29.8004 23.502 29.5544V25.2979L24.6617 24.2319C24.7099 24.1875 24.7474 24.1333 24.7724 24.0729L26.7955 19.1359C26.8888 18.9082 26.7794 18.6479 26.5513 18.5548C26.3235 18.4616 26.0628 18.5706 25.9695 18.7983L24.1152 23.3231L21.6371 22.3107L25.445 13.0188L27.9231 14.0311L26.6093 17.2371C26.516 17.4648 26.6251 17.7251 26.8535 17.8182C27.0816 17.9114 27.342 17.8024 27.4353 17.5747L29.914 11.526C30.03 11.2427 30.0286 10.9309 29.9099 10.6485V10.6485ZM17.6305 1.52092L21.9785 5.86235H17.6305V1.52092ZM21.536 23.232L23.5407 24.0509L21.6635 25.7764L21.536 23.232ZM29.0878 11.1884L28.261 13.2063L25.7829 12.1939L26.6098 10.1761C26.6357 10.1131 26.6847 10.0639 26.7478 10.0376C26.8111 10.0111 26.8805 10.0106 26.9436 10.0365L28.948 10.8554C29.0111 10.881 29.0603 10.93 29.0867 10.993C29.1133 11.0561 29.1138 11.1255 29.0878 11.1884Z"/>
<path d="M14.8496 4.86426H9.31644C9.07001 4.86426 8.87012 5.06361 8.87012 5.30966C8.87012 5.55571 9.07001 5.7553 9.31644 5.7553H14.8496C15.096 5.7553 15.2959 5.55571 15.2959 5.30966C15.2959 5.06361 15.096 4.86426 14.8496 4.86426Z"/>
<path d="M3.45121 14.6361H6.97919C7.22562 14.6361 7.42529 14.4365 7.42529 14.1905L7.42529 11.0351L8.09123 10.1887C8.24344 9.99532 8.20975 9.71517 8.01604 9.5632C7.82233 9.41122 7.54174 9.44486 7.38953 9.63827L6.92968 10.2226H3.45121C3.20478 10.2226 3.00488 10.422 3.00488 10.668L3.00488 14.1905C3.00488 14.4365 3.20478 14.6361 3.45121 14.6361ZM3.89731 11.1136H6.22844L5.51825 12.0161L5.02172 11.5201C4.8475 11.3462 4.56485 11.3462 4.39063 11.5201C4.21641 11.6943 4.21641 11.9763 4.39063 12.1502L5.24294 13.0012C5.32684 13.085 5.44054 13.1317 5.55837 13.1317C5.56731 13.1317 5.57625 13.1315 5.58519 13.131C5.71242 13.1235 5.83048 13.0617 5.90934 12.9614L6.53286 12.1692V13.7451H3.89731L3.89731 11.1136Z"/>
<path d="M19.6095 10.9143H10.0606C9.81415 10.9143 9.61426 11.1139 9.61426 11.3599C9.61426 11.606 9.81415 11.8056 10.0606 11.8056H19.6095C19.8562 11.8056 20.0558 11.606 20.0558 11.3599C20.0558 11.1139 19.8562 10.9143 19.6095 10.9143Z"/>
<path d="M10.0606 13.9443H17.7355C17.9819 13.9443 18.1816 13.7447 18.1816 13.4986C18.1816 13.2526 17.9819 13.0532 17.7355 13.0532H10.0606C9.81415 13.0532 9.61426 13.2526 9.61426 13.4986C9.61426 13.7447 9.81415 13.9443 10.0606 13.9443Z"/>
<path d="M3.00488 20.0416C3.00488 20.2876 3.20478 20.4872 3.45121 20.4872H6.97919C7.22562 20.4872 7.42529 20.2876 7.42529 20.0416L7.42529 16.8862L8.09123 16.0398C8.24344 15.8464 8.20975 15.5662 8.01604 15.4143C7.82233 15.2623 7.54174 15.2959 7.38953 15.4893L6.92968 16.0737H3.45121C3.20478 16.0737 3.00488 16.273 3.00488 16.5191L3.00488 20.0416ZM3.89731 16.9647H6.22844L5.51825 17.8672L5.02172 17.3712C4.8475 17.1973 4.56485 17.1973 4.39063 17.3712C4.21641 17.5454 4.21641 17.8274 4.39063 18.0013L5.24294 18.8523C5.32684 18.9361 5.44054 18.9828 5.55837 18.9828C5.56731 18.9828 5.57625 18.9825 5.58519 18.9821C5.71242 18.9745 5.83048 18.9127 5.90934 18.8125L6.53286 18.0203V19.5962H3.89731L3.89731 16.9647Z"/>
<path d="M19.6095 16.7656H10.0606C9.81415 16.7656 9.61426 16.9652 9.61426 17.2113C9.61426 17.4573 9.81415 17.6567 10.0606 17.6567H19.6095C19.8562 17.6567 20.0558 17.4573 20.0558 17.2113C20.0558 16.9652 19.8562 16.7656 19.6095 16.7656Z"/>
<path d="M10.0606 19.7953H12.9164C13.1629 19.7953 13.3625 19.5957 13.3625 19.3497C13.3625 19.1037 13.1629 18.9043 12.9164 18.9043H10.0606C9.81415 18.9043 9.61426 19.1037 9.61426 19.3497C9.61426 19.5957 9.81415 19.7953 10.0606 19.7953Z"/>
<path d="M3.00488 25.8927C3.00488 26.1387 3.20478 26.3383 3.45121 26.3383H6.97919C7.22562 26.3383 7.42529 26.1387 7.42529 25.8927L7.42529 22.3704C7.42529 22.1244 7.22562 21.9248 6.97919 21.9248H3.45121C3.20478 21.9248 3.00488 22.1244 3.00488 22.3704L3.00488 25.8927ZM3.89731 22.8158H6.53286V25.4471H3.89731L3.89731 22.8158Z"/>
<path d="M20.0558 23.0623C20.0558 22.8163 19.8562 22.6167 19.6095 22.6167H10.0606C9.81415 22.6167 9.61426 22.8163 9.61426 23.0623C9.61426 23.3084 9.81415 23.5077 10.0606 23.5077H19.6095C19.8562 23.5077 20.0558 23.3084 20.0558 23.0623Z"/>
<path d="M10.0606 24.7554C9.81415 24.7554 9.61426 24.955 9.61426 25.201C9.61426 25.4471 9.81415 25.6466 10.0606 25.6466H18.1816C18.4282 25.6466 18.6279 25.4471 18.6279 25.201C18.6279 24.955 18.4282 24.7554 18.1816 24.7554H10.0606Z"/>
</symbol>

<symbol id="star" viewBox="0 0 30 28.9">
<path d="M30,11l-10.9-0.7L15,0l-4.1,10.3L0,11l8.4,7.1L5.6,28.9l9.4-5.9l9.4,5.9l-2.7-10.8L30,11z M22.2,25.8L15,21.2l-7.2,4.6
	l2.1-8.3l-6.4-5.4l8.4-0.6L15,3.6l3.2,7.9l8.4,0.6l-6.4,5.4L22.2,25.8z"/>
</symbol>

<symbol id="notebook" viewBox="0 0 30 30">
<path d="M25,9V3c0-0.1-0.1-0.3-0.2-0.4s-0.2-0.1-0.4-0.1H10c-0.1,0-0.3,0.1-0.4,0.1S9.4,2.9,9.4,3v6c0,0.1,0.1,0.3,0.2,0.4
	S9.9,9.5,10,9.5h14.4c0.1,0,0.3-0.1,0.4-0.1S25,9.1,25,9z M23.9,8.5H10.6v-5h13.3V8.5z"/>
<path d="M1.7,22.5c-0.4,0-0.9,0.2-1.2,0.4C0.2,23.2,0,23.6,0,24s0.2,0.8,0.5,1.1c0.3,0.3,0.7,0.4,1.2,0.4h0.6v2
	c0,0.7,0.3,1.3,0.8,1.8C3.6,29.7,4.3,30,5,30h24.4c0.1,0,0.3-0.1,0.4-0.1c0.1-0.1,0.2-0.2,0.2-0.4v-28c0-0.1-0.1-0.3-0.2-0.4
	C29.7,1.1,29.6,1,29.4,1h-1.7V0.5c0-0.1-0.1-0.3-0.2-0.4C27.5,0.1,27.4,0,27.2,0H2.8C2.6,0,2.5,0.1,2.4,0.1C2.3,0.2,2.2,0.4,2.2,0.5
	v2H1.7c-0.4,0-0.9,0.2-1.2,0.4C0.2,3.2,0,3.6,0,4s0.2,0.8,0.5,1.1c0.3,0.3,0.7,0.4,1.2,0.4h0.6v2H1.7c-0.4,0-0.9,0.2-1.2,0.4
	C0.2,8.2,0,8.6,0,9s0.2,0.8,0.5,1.1c0.3,0.3,0.7,0.4,1.2,0.4h0.6v2H1.7c-0.4,0-0.9,0.2-1.2,0.4C0.2,13.2,0,13.6,0,14
	s0.2,0.8,0.5,1.1c0.3,0.3,0.7,0.4,1.2,0.4h0.6v2H1.7c-0.4,0-0.9,0.2-1.2,0.4C0.2,18.2,0,18.6,0,19s0.2,0.8,0.5,1.1
	c0.3,0.3,0.7,0.4,1.2,0.4h0.6v2H1.7z M1.1,24c0-0.1,0.1-0.3,0.2-0.4c0.1-0.1,0.2-0.1,0.4-0.1h2.2c0.1,0,0.3,0.1,0.4,0.1
	c0.1,0.1,0.2,0.2,0.2,0.4s-0.1,0.3-0.2,0.4c-0.1,0.1-0.2,0.1-0.4,0.1H1.7c-0.1,0-0.3-0.1-0.4-0.1C1.2,24.3,1.1,24.1,1.1,24L1.1,24z
	 M7.8,1h18.9v26H7.8V1z M27.2,28c0.1,0,0.3-0.1,0.4-0.1c0.1-0.1,0.2-0.2,0.2-0.4V2h1.1v27H5c-0.3,0-0.7-0.1-1-0.3
	c-0.3-0.2-0.5-0.4-0.6-0.7H27.2z M1.7,4.5c-0.1,0-0.3-0.1-0.4-0.1C1.2,4.3,1.1,4.1,1.1,4s0.1-0.3,0.2-0.4c0.1-0.1,0.2-0.1,0.4-0.1
	h2.2c0.1,0,0.3,0.1,0.4,0.1C4.4,3.7,4.4,3.9,4.4,4S4.4,4.3,4.3,4.4C4.2,4.4,4,4.5,3.9,4.5H1.7z M1.1,9c0-0.1,0.1-0.3,0.2-0.4
	c0.1-0.1,0.2-0.1,0.4-0.1h2.2c0.1,0,0.3,0.1,0.4,0.1C4.4,8.7,4.4,8.9,4.4,9S4.4,9.3,4.3,9.4C4.2,9.4,4,9.5,3.9,9.5H1.7
	c-0.1,0-0.3-0.1-0.4-0.1C1.2,9.3,1.1,9.1,1.1,9z M1.1,14c0-0.1,0.1-0.3,0.2-0.4c0.1-0.1,0.2-0.1,0.4-0.1h2.2c0.1,0,0.3,0.1,0.4,0.1
	c0.1,0.1,0.2,0.2,0.2,0.4s-0.1,0.3-0.2,0.4c-0.1,0.1-0.2,0.1-0.4,0.1H1.7c-0.1,0-0.3-0.1-0.4-0.1C1.2,14.3,1.1,14.1,1.1,14z M1.1,19
	c0-0.1,0.1-0.3,0.2-0.4c0.1-0.1,0.2-0.1,0.4-0.1h2.2c0.1,0,0.3,0.1,0.4,0.1c0.1,0.1,0.2,0.2,0.2,0.4s-0.1,0.3-0.2,0.4
	c-0.1,0.1-0.2,0.1-0.4,0.1H1.7c-0.1,0-0.3-0.1-0.4-0.1C1.2,19.3,1.1,19.1,1.1,19z M3.3,20.5h0.6c0.4,0,0.9-0.2,1.2-0.4
	s0.5-0.7,0.5-1.1s-0.2-0.8-0.5-1.1s-0.7-0.4-1.2-0.4H3.3v-2h0.6c0.4,0,0.9-0.2,1.2-0.4c0.3-0.3,0.5-0.7,0.5-1.1s-0.2-0.8-0.5-1.1
	c-0.3-0.3-0.7-0.4-1.2-0.4H3.3v-2h0.6c0.4,0,0.9-0.2,1.2-0.4C5.4,9.8,5.6,9.4,5.6,9S5.4,8.2,5.1,7.9S4.3,7.5,3.9,7.5H3.3v-2h0.6
	c0.4,0,0.9-0.2,1.2-0.4C5.4,4.8,5.6,4.4,5.6,4S5.4,3.2,5.1,2.9S4.3,2.5,3.9,2.5H3.3V1h3.3v26H3.3v-1.5h0.6c0.4,0,0.9-0.2,1.2-0.4
	s0.5-0.7,0.5-1.1s-0.2-0.8-0.5-1.1s-0.7-0.4-1.2-0.4H3.3V20.5z"/>
<path d="M19.4,24.5h-1.1c-0.1,0-0.3,0.1-0.4,0.1c-0.1,0.1-0.2,0.2-0.2,0.4s0.1,0.3,0.2,0.4c0.1,0.1,0.2,0.1,0.4,0.1h1.1
	c0.1,0,0.3-0.1,0.4-0.1c0.1-0.1,0.2-0.2,0.2-0.4s-0.1-0.3-0.2-0.4C19.7,24.6,19.6,24.5,19.4,24.5z"/>
<path d="M19.4,22.5h-1.1c-0.1,0-0.3,0.1-0.4,0.1c-0.1,0.1-0.2,0.2-0.2,0.4s0.1,0.3,0.2,0.4c0.1,0.1,0.2,0.1,0.4,0.1h1.1
	c0.1,0,0.3-0.1,0.4-0.1c0.1-0.1,0.2-0.2,0.2-0.4s-0.1-0.3-0.2-0.4C19.7,22.6,19.6,22.5,19.4,22.5z"/>
<path d="M25,24.5h-3.3c-0.1,0-0.3,0.1-0.4,0.1c-0.1,0.1-0.2,0.2-0.2,0.4s0.1,0.3,0.2,0.4c0.1,0.1,0.2,0.1,0.4,0.1H25
	c0.1,0,0.3-0.1,0.4-0.1c0.1-0.1,0.2-0.2,0.2-0.4s-0.1-0.3-0.2-0.4C25.3,24.6,25.1,24.5,25,24.5z"/>
<path d="M25,22.5h-3.3c-0.1,0-0.3,0.1-0.4,0.1c-0.1,0.1-0.2,0.2-0.2,0.4s0.1,0.3,0.2,0.4c0.1,0.1,0.2,0.1,0.4,0.1H25
	c0.1,0,0.3-0.1,0.4-0.1c0.1-0.1,0.2-0.2,0.2-0.4s-0.1-0.3-0.2-0.4C25.3,22.6,25.1,22.5,25,22.5z"/>
</symbol>

<symbol id="homework" viewBox="0 0 30 30">
<g>
	<path d="M24.2,13.9V0H0v15.1h5.1L5.2,30H30V13.9H24.2z M5.1,13.9H1.2V1.1H23v16.7l-4.7-3.9H11L5.2,8.1L5.1,13.9z M28.8,28.9H6.4
		V11.1l4.1,4.2l7.5-0.1l6.3,5.3l0-5.4h4.5"/>
	<path d="M12.9,21.2h1.8V23h-1.8V21.2z"/>
	<path d="M16.5,21.2h1.8V23h-1.8V21.2z"/>
	<path d="M20,21.2h1.8V23H20V21.2z"/>
	<path d="M16.7,4.9L15.8,4l-4.3,4.2L9.9,6.5L9.1,7.4l2.4,2.4L16.7,4.9z"/>
</g>
</symbol>
</svg>
