<svg xmlns="http://www.w3.org/2000/svg" viewBox="0 0 576.91 1534.69"><defs><style>.a{fill-rule:evenodd;}</style></defs><path class="a" d="M479.6,1265.81c13.67,15.71-13.68,45.5,1.89,51.23.53-6.13,7.42-11.89,4.22,3-.55,3.74-6.15,2.42-6.5,11.89-.21,5.39-6,1.53-5.76,6.15.43,7.61,6.28,12.35.19,20.35-6.11,3.55,1.52,4.61,1.82,8.69,2.33,11.39,1.44,18.94-6.25,22-6.29,8.12,3.51,21-11.31,20.16-1,8.19-13.26,12.71-6.56,19.41,4,1.5,6-18.61,12.11,5,.38,3-9.05.4-5,4.44,8.51,1,3,9.58-1.3,12.82-1.95,5,6.12,2.4,6.34,7.72-10.08,4.21-6,3.51-9-3.12-12,.8-4.39,10.79-16.74,10.58-4.27,3.1-6.63-7.1-.7-3.71,4.38-1.12,1.26-5.4-3.25-2.78,1.21-16.19-14.86-16.85-4.71-30.84,12.7,11.32,12.29-6.23,4.63-5.88-3.26.14-11.55-2.9-8.76-6.86,9.6-19.85-5-21,5.76-26.77,2.78-12.7,2.12-17.84,5.51-28.66,2.29-5.19-8.07.19-4.62-5.56s2.23-9.7.63-15.64c-23.91-11.12-12.87,86.41-24.52,82.59-5.47,40.92,7.86,4.75,9.48,22.79-9,18.16-6.49-9.71-17.57,10.37-4.86,2.67-7.63,21.71,2.74,17.36-1.29-1.13,2.32,2.74-1.15,4.76-20.12-1.42,1,14.56-11.42,11.56-7.05-.67-2.52,17.77-9.48,13.9-6.33-1.06,5-15.57-3.58-8.24-13.43,21,20.83,38.46-27.18,17.47-7.29,6.22,12.88,12.77-.95,20.29-22,5-8.56-22.86-23.17-4.38-1.92-.68-6.2-3.86-11.73-.26-9.25,5-6.88-21.38-19.19-9.49-11.73-13.41.56,7.7-24.93-4.94-6,.1-3.81-1.21-6.73,1.9-5.86,6.48-6.92-8.47-13.37-5.3-6.15-1.86-14,1.34-10.57,12.23-8.93,8-22.95,6.74-25.43-5.51-37,26.56-47.74-12.45-53.27,6-12.19-2.36-31.3-1-24.06-17.65-5.22-5.51-2.67-27.86,6.53-24-1.34,34.5,43.14-6.48,20.15-9.25-9.32-1.78,6.77-13.66-1.34-15.45-8.43-2.38-8,6.52-9.78,3.54-.06-4.78-6-4.13-4.67-9-1-4.2-5,1.67-7-1.57-9.93-4.79-.76,6.86-6.63,11.62-4-1-5.09-7.86-6.09-10-6.87-4.93,4.11,31.8-11.62,18.48-9.86-4.64-2.14-18.31-2.31-27.53,11.84,12.27,13.75-18.83-1.44-6-11.09-1.73-12.42-50-14.43-13.8-4.13,1.86-5.48-2.82-6.15,12.75-15.86,8.74.76,31.94,5.38,44.27-8.76-5-2.74,9.42-5,10.88-2.26,1.91-5.83-5.92-9.86-8.21C74.51,1466,74.74,1479,69,1468.07c-1.53-7.12-2.17-15.72-8.31-12.73-11.39-4.61-9.1-20.57-18.63-28.25-2.26-116.94,12.87-268.35,18.53-365.15,4.68-7.52,6.64,5.14,6.13-19.42-13.07-26.4-3.42-12,1.57-35.23C65,976.88,73.18,917.48,76.11,894.7c17.54,45.69,16.48-47.39,9.5-20.77-24.73,57.62,1.11-131.69,2.08-56.81-3.83,5.71,8,18-4.83,13.24,29.08,74,34.1-246.75,29.67-252.89,4.3-10.76-5.46-16.51-2-2C88,578,124.12,411.83,103.68,427.62c-2,5.15-5.39-18.27,1.49-13.46,1.57,1.55,4.87,4.29,5.39,2.07,8.3-10.13-7.09-8.52.6-10.91,9.71-11,6.15,23.37,11.48,17.52,11.43-15.42-3.81-25.07-9.1-37.15-5.78-7.73,10.88-20.58-1.56-23.55-8.64,1.13-.45,36.09-8.92,13.64-3.35-3.93-10.79-33.9-1.83-22.8,3,1.65,2.15-3.14,2.74-4.55,5.39-2.42,1.63,11,6.41,9.31,9.65,1.59-.64-26.59,9.68-6,.29-1.52,1.56-9.67,2.58-5.86,2.56,9.51.46-4.85-.12,47.48,7.37,5,3.13-60.81,9.25-54.33,4.32,5.14,3.23,23.13,4.39-1.78-17-75.53,0-187.09,9.37-254.13-8.94,223.38-10.64,243-10.8,496.36,15.58-68.32,3.75-380.26,27.43-206.57,12.49-68.2-1.44-176.9,3.81-240.2-6.66-2.87,1-18.09,4.13-15.89,3.43,74,11.25-81.93,14.61-82.21,7.68-3.51-1.1,50.91,6.73,36.67,2.4-11,3.6-24.82,7.47-16,1.83-.37,1.68.43,2.18-8.21.47-8.19-1-5.63-2.19-8.93,15.35-32.75,7.09,17.92,13,15.14,1.41,18.95,17-30.59,16.81-36.53,8.91-16.93,3.51,35.15,6,29.74,7.73-.19,1.9-34.69,11.6-30.45,3.84,13.12,1.44,11.82,5.54-.21,9.65-4,7.08,34.76,16.3,22,1.09-29.62,2.67-16.5,5.89-35.15.53,24,8.75,27,10.08,53.24,10.58,4.6-7.25-79.35,7.71-49.44,6.3,12.34,11.59,15.92,11.74,30-5.77,16.25,19.3,20,6.55.19-3.7-13.94,14.77-22.68,12.6-1.92,4.25,14,7.1-27.82,11.89-34.25,12.57.11,9,33.72,18.56,8,3.57-.18,3.53,15.43,5.88,8.73,1.88-5.41,5.28-4.46,6.78-.39,6.42,19.29,4.3,10.32,8.3,3.31,9,20.18,6.32-13.75,21.84,4.77,3.34,17.23,13.38,47.05,27,53.16,6.7-3.8,3.68-24.26,10.62,7.09.93,4.21,4,2.19,3.41.37-4.12-12.91,2.62-14.92-1.31-19.4-2.4-2.74-2.4-3.48.25-10.59,1.89-.34,5.3,1,4.37-2.32,6.17-17.72,20.88,84.47,20.43,12.53,25,27.57,33.66,207.78,36.72,160.94,0-7.22-.2-6.72,4-10.93,6,1.8-.09,11,8,3.46,15.27,11.65-.07,56.92,13.57,75.17,2,1.68-2.86.86-2.44,4.47.56,4.88,3.87-3.44,6.38.37,2.17,3.44-1,4.44-3.89,5.45-4.48,5,5.75,19.93,7.94,8.68,3.69-8.38,2.22,9.57,8.37-.32,5.49-17.26-6.77-69.37,3.5-59.89.17,297.84,10.29,382-27.06,642.8-4.68-7.37,7.3-16.28-11.26-18.5-10.17-1.23-5.95,10.22-13.51,17.24-4.36,4.05,2.16,3.81,1.07,18.2-2.53,33.51,1.19,11.12,3.86,27.58,5.44,9.23,5.94-9.14,10.25-10.39,25.5,85-31.85,200.27-14.83,283.67-4.27,12.34-.39,9.47-5.33,13.8-5.34,9,8.2,5.54-7.39,13.52C472.5,1249.93,484.43,1253.61,479.6,1265.81Zm35.22-555.74c-.15,1.56,1.24,7.28,4.08,6.08,2.83-2.57-9.15-11.44-6-17.66C507.69,694.36,509.31,706.64,514.82,710.07Zm-34.34,391.79c-5.89-3.12-7.94,21.65.17,18.82C482.74,1109.88,484.68,1098.28,480.48,1101.86ZM175.84,362.25c3.57-1,6.43-27.14-4.93-11.59-.84,28.08,3,6.71,4,28.52C181,377.25,180.39,366.79,175.84,362.25ZM525.59,629.72c-10.84-12.16,13.37-21.15-.55-29.61,15.16-7.81,12.6-44.44,10.49-61.9-13.81,8.34,2-6.65,1.1-9.06,5.7-42.37-2.59-14.22-9-26.49-7.55-1.58-17.49,7.47-4.79,10.11-10,13.17-20.07,80-9.2,89.9-.5-12,10.53,2.92,6,15.21-.49,3.85-8.33-1-6.71,5.26,1,10.54-.46,17.87-2,28.23-.28,2.51-9.6,6.82.37,6.23-1,46.71-1.14,30.73,7.54,29.3C509.7,671.76,541.7,638,525.59,629.72Zm-3.32-198.19c-3.35-4.8-5.11,13.79-2.11,15.67C523,449,522.35,442.9,525,442c10,14.44,1,10.75.7,17.62-.53,11.49-.41-2.54-6.87-3.78-3.4,8.42.17,34.34,2.33,31.65,7.93-7.43.46,9.42,7.54,5.56,10.62-25.55,11.92-70,.48-88.4C526.46,408.67,527.31,440.7,522.27,431.53ZM80.62,922.39c-5.55,16.76-5.55,191.95,3.14,84C76.07,989.67,105.14,924.34,80.62,922.39ZM477.45,1145.9c19.14-21.83-14.15-22.88-6.28,17.71C472.94,1180.55,489.05,1150.57,477.45,1145.9ZM177.76,598.46c-6.17-5.91,14.41-17.62,3.9-17.76-11.67,2.58,1.57,10.5-12.38,10.38C161.71,621.8,190.85,610.87,177.76,598.46ZM509.05,730.32c-2.17,13.71-8,48.88,8,25.5C509.77,752.15,523.32,727.2,509.05,730.32ZM493.37,990.65c-6.69-28.75-6.48,21.15-9.22,27.42C492.1,1029.35,492.57,992.83,493.37,990.65ZM175.46,417.78c5.44-17.4,2.15-30.17-5-18.49C173.18,417,172.78,414.63,175.46,417.78ZM137.73,1427.71c-1-1.69-6.55-.9-5.16,3.32,3,9.26,5.61,1.08,7.46,7.34.67,2.27,1.07,2.8,4,.88,1-.65,5,2.2,4.82-1.47C148.38,1424.09,145.39,1440.06,137.73,1427.71ZM120.52,557.12c-6.32-7.39-7.74,24-2,20.57C123.14,577.55,121.42,561.78,120.52,557.12ZM507.38,227c-2.31-.29.53,26.47,5.09,19.4C509.78,240.42,513.25,229,507.38,227Zm-42.64,970.18a3.33,3.33,0,0,0-3.32,2.39C453.78,1226.66,471.16,1204,464.74,1197.17ZM529,388.69c-8.16-2.68-6.34,7.93-.13,11.5C533.25,402,533.87,393.81,529,388.69Zm-71.17,946.13c5.93-.55,6.63-18.76,1.54-14.94C457.71,1321.14,455.64,1335,457.84,1334.82ZM88.68,863.25c1.72-4.86,2.83-6.06,5-9.58C88.51,845.28,78.22,864.32,88.68,863.25Zm86-302.36c1.93,7.79,10.9-9.65,3-10C169.06,553.18,177.31,553.44,174.64,560.89Zm.63-256.16c-.09-.49-1.91-1.29-2.1-.51C168.81,325.67,179.66,319.2,175.27,304.73Zm318.64,315.6c2.92-9.44,3.55-10.23,1.5-11.33-1.05-.56-3,.13-3.3.92C487.36,623.08,493.26,622.45,493.91,620.33Zm-17,474.11c.11,2,3.83-.3,4.4-1.31C488.39,1080.54,476.18,1080.85,476.9,1094.44Zm52-722.3c-1.4-4.06-8.54,6.92-3.09,11.3C527.33,384.7,531.78,380.52,528.86,372.14ZM494.31,555.69c-.1,1-.65,7.84,1.22,7.42C508.73,560.16,494.92,549.72,494.31,555.69Zm9.1,306c-2.89-3.85-7,7.34-5.79,7.25C498.71,872.87,507,868.65,503.41,861.65ZM178.51,544.91c.18.92,2.41,1.84,2.93.39C185.23,534.72,175.62,530.13,178.51,544.91Zm283.06,842.5c1.47,2.12,5.59-4.27,4.34-9C465,1374.81,458.56,1383.06,461.57,1387.41ZM163.89,562c-5,.84-3.72,12.15-.5,10.42C165.77,571.1,165.15,570.11,163.89,562Zm309.52,698.12c-1.47,2.79-1.45,7.54.82,7.15C479.19,1266.37,476.33,1254.49,473.41,1260.07Zm24.77-748.91c-1,2.47,1.48,6.57,2.19,6.41C507,516.12,500.32,505.88,498.18,511.16Zm-344-93c-4.72,2.51.61,8.6,2.11,5.27S155.85,417.33,154.21,418.21Zm12,46.22c-1.52,9.19,6.18,7.92,2.87-.62C168.54,463,166.35,463.47,166.19,464.43Zm-56.68,89.71c.3,1.42,2.48.75,3,.14C115.69,543.18,107.33,548.14,109.51,554.14Zm3.55-19.8c3.18-4.82-1.36-11.25-3.1-2.62C109.6,533.53,112,536,113.06,534.34Zm136-485.1a1.18,1.18,0,0,0-2.3-.44C243.39,57.93,251.52,55.82,249.06,49.24ZM174,324.73c-6.77,6.7,7,14,2,1.31C175.79,325.41,174.66,325.13,174,324.73ZM500.06,945.19c-2.19-1.41-5.48.7-4.56,3.48C496.91,952.92,503.56,947.45,500.06,945.19Zm-1-330.36c-3.42,1.64-.43,6.29,1.89,5.19C504.2,618.48,501.39,613.72,499.08,614.83Zm-23.41,587.38c-.68-3.27-5.43-1.37-4.18,1.21C473.88,1208.35,476.76,1207.49,475.67,1202.21ZM174.76,439.46c-.41,2.85-2,4.51-1.15,6.84S177.2,443.84,174.76,439.46Zm-12,143.36c-2.12-2-3.71,7.12.34,5.27C164.7,585.3,165,584.48,162.74,582.82Zm-28.67.9c-3,2.37-1.72,5.68.14,5.56C136.92,589.09,136.47,581.81,134.07,583.72Zm78.79,21.87c-3.12-.4-3.75,4.94-.29,5.16C215.32,610.94,215.33,605.92,212.86,605.59Zm282,365.66c-.33-2.63-6.14-3.2-2.79,3.69C492.58,975.94,495.42,975.62,494.88,971.25ZM77.23,1045.13c-2.11.09-2.46,3.3-.08,3.34C79.31,1048.5,80.57,1045,77.23,1045.13Zm96.16-554.45c-2.38-2.11-3.51,3.14-1.66,4.41C173.05,496,175.22,492.29,173.39,490.68ZM525.91,666.4c-3.61,1.22-2.53,5.7-.79,5.1C528.57,670.32,527.88,665.73,525.91,666.4Zm13.17-328.76c3,1.18,2.12-4.47-.65-4.37C537.43,333.31,536.64,336.67,539.08,337.64Zm-73,847.52c-1.73-.87-2.35,2.55-1.68,4.2C465.58,1192.33,468.59,1186.42,466.06,1185.16Zm-107.82,305c.58-3.7-3.37-2.6-3.56.26C354.55,1492.63,357.88,1492.46,358.24,1490.21ZM517.33,612.82c1-1.44-2-4.29-2.81-3.11C512.49,612.52,515.75,615.16,517.33,612.82ZM537,321.71c-.3.89.78,2.94,1.89,2.42C542.8,322.32,538.6,317.09,537,321.71ZM440.87,78.83c-1.27-1.39-3.75-2.6-3.19,1.29C438,81.12,440.87,83.05,440.87,78.83Zm-307,285.84c2-1.27,1.54-2.85.51-3.51C132,359.58,131.83,366,133.91,364.67ZM457,1341.93c1.77-1.19,0-3.44-1-2.74C454.35,1340.35,455.9,1342.68,457,1341.93ZM383,48.72c.25-2.24-2.11-3.69-2.4-2C380.16,49.27,382.86,50.07,383,48.72ZM186.71,544c0,.76.45,1.06,1.12.76C189.08,544,187.38,542.07,186.71,544Zm293.94,535.91c1.27,1.86,3.51.06,2.9-1.18C482.67,1076.93,479.85,1078.68,480.65,1079.87ZM345.19,1438.73c-2.7,1-1.06,4,.34,3.29C348.07,1440.65,346.51,1438.25,345.19,1438.73ZM413.83,84.89c-.25-.47-.43-1.26-.76-1.33C410.66,83.07,410.74,87.67,413.83,84.89ZM351.94,1457.68a1.35,1.35,0,0,0,2.53-1C353.71,1455.16,351.08,1456.4,351.94,1457.68ZM455,1350.89c.39.8,1.24.73,1.44.37C459.65,1345.58,452.77,1346.4,455,1350.89ZM112.77,519a1.68,1.68,0,0,0,.74,3.18C115.72,522.29,114.67,517.72,112.77,519ZM296.44,41.5c-.5-.54-1.75.77-1.46,1.7C295.53,45,298.1,43.33,296.44,41.5Zm133,57.63c1.28-.72,1.19-3.25-.18-4C426.34,95.4,428.38,99.69,429.39,99.13ZM185.32,128.66c1.41-1.1,0-3.78-1.28-2.25S184.46,129.33,185.32,128.66ZM494.9,574.94c-1.38-.43-1.37,1.46-.64,1.58C495.49,576.73,495.8,575.21,494.9,574.94ZM185.78,593.21c.09,0,.56-.43.54-.47C184.73,590,183.72,592.18,185.78,593.21Zm-18.35-112c0,.09.53.29.54.26C169.58,479,167.44,478.33,167.43,481.17Zm-75.06,412c-.87,1.22,1,1.8,2.11,1S93.59,891.48,92.37,893.21Zm376.88,479.13c-1.37-1.47-3.54.52-1.28,1.09C468.45,1373.32,468.82,1372.73,469.25,1372.34Zm32.49-498.6c-.47.72.5,1.8.81.51C502.67,873.77,502,873.41,501.74,873.74ZM115.83,506.12c-.91.81-.86.18-.12,2.28C116.63,507.61,116.59,508.24,115.83,506.12ZM484.44,1040c-1.19,1.75-1.11,1-.13,2.67C485.42,1041.21,485.38,1041.73,484.44,1040ZM184.62,120.75c.43,1.73,1.68,0,1.1-.62S184.52,120.33,184.62,120.75ZM392.35,54.47c-.67,1.33.08,1.76.86,1.33C394.22,55.24,393.3,55,392.35,54.47ZM295.2,35.78c-.43-.9-1.95.1-.79,1C294.7,37.06,295.48,36.38,295.2,35.78ZM504.91,247.5c.29,1,1.78.58,1.51-.65C506.22,245.93,504.53,246.2,504.91,247.5ZM162,596.07l0,.54C162.61,596.32,162.61,596.45,162,596.07Zm336.08-56c-.74.69-.78.44.23,1.2C498.68,540.61,498.72,540.84,498.07,540.1Zm-201-512c-.73-.8-.41-.78-1.22-.06C296.91,28.79,296.69,28.72,297.06,28.07ZM434.77,481.64l.06-.48C434.23,481.38,434.23,481.26,434.77,481.64ZM83.17,913l-.07.65C83.92,913.38,83.92,913.53,83.17,913Z"/><path class="a" d="M419.59,1505.81c-11.79-.65-12.89,14.85-16.25-6.77,2.31-7.81,2.64-11,6.09-12.77,14.57-7.6,6.64-19,22.32-13.92,27,1.2,10.68-19.18,40.22,7.34-3.15,7-2.3,3.28-.27,10.17-1.16,6.41-17.7-9.13-15.76,8.63,7.12,14.15-21.86,5.21-22.5-3.07C427.14,1482.54,420.68,1495.87,419.59,1505.81Zm15-27.59c0,8.6,11.93,4.27,7.2.54C439,1479.71,436.49,1475.65,434.61,1478.22Z"/><path class="a" d="M21.35,1447.88C16.39,1469.42,5.22,1502.3,0,1463c2-2.9,4.73-16.69,9.8-12.47,1.27,1.07,3.71,3,4.31.25C11.54,1446.28,21.26,1426,21.35,1447.88Z"/><path class="a" d="M110.53,632.68c5.54,46.12-13.77,9.78-8.2,34.3-7.78.1-6.9-29.43-4-36.24,3.75-3.06,1.77,1.45,4.7,4.3,3.63,4.17,3.5,5-.49,5.46C107.89,644.1,108.86,631.17,110.53,632.68ZM102.42,646c-.53-.15-1.46,2.31-.33,4S106.52,647.11,102.42,646Z"/><path class="a" d="M53.13,1500.73c-4.9,12.13-14.74,6.78-23.41-1.55.15-2,4.66,3.66,7.69,0,17.82-10.84,10-11.45,12.13-24.61C53.49,1471,53.6,1497.25,53.13,1500.73Z"/><path class="a" d="M89.06,779.09c-11.28-12-.46-50,1.72-15.3,9.63-3.2-1.42-14.06,7.62-18.16,6.49-.08,1.38,25.51-3.9,21.4C83.91,764.26,95.67,776.38,89.06,779.09Z"/><path class="a" d="M161.63,49.52c.5,12.47-4.48,46.53-4.37,61.64C151.13,128.87,160.07,23.51,161.63,49.52Z"/><path class="a" d="M150.93,168.56c1.88,31.38-1.47,41.17-7.57,27.42C150,180.14,141.75,187.32,150.93,168.56Z"/><path class="a" d="M95.17,1441.1c6.41-28.7,4.1-1,7.06,13.33,6.6,2.66,4.74,2.81-.47,4.36C97.91,1459.93,101.36,1453.42,95.17,1441.1Z"/><path class="a" d="M92.52,569.2c-.55,5.82,3.29,20.13-1.23,23.56C87.5,592.79,87.36,570.65,92.52,569.2Z"/><path class="a" d="M109.31,593.73c-5.14.47-8.35,10.07-10.5,9.5-2-1.28-1.45-19.14,3-16.89C105.55,588,103,592,109.31,593.73Z"/><path class="a" d="M91.5,550.28c1.42-8.36-4.12-10.31,2.71-11.76C100.29,544.94,89.18,580.48,91.5,550.28Z"/><path class="a" d="M105,448.58c-5.8,8.32-6.52-6.74-4.41-10.47C106.68,439.1,105.54,442.27,105,448.58Z"/><path class="a" d="M402.62,1469.87c-8-9.51,9.25-1.45,10.74,1-.54.76-1.8,2.13-2.81,2.05C397.15,1471.84,404.26,1473.6,402.62,1469.87Z"/><path class="a" d="M24.87,1398.26c-5.52.45,2.3-13.51,4.24-10C34.59,1398.13,33.11,1397.59,24.87,1398.26Z"/><path class="a" d="M63.72,925.89c1.75,6.49,8.41,8.54-.37,13.66C57.77,937.28,63.38,923.63,63.72,925.89Z"/><path class="a" d="M83.33,784.59c.4-1.13,5.18-.59,5,2C88.66,800.71,78.14,793.76,83.33,784.59Z"/><path class="a" d="M66.31,450.17c-.77,2.55-2.75,9.59-4.73,5.13-.62-12-1.08-13.3.55-13.38S63.78,443.07,66.31,450.17Z"/><path class="a" d="M484.91,1387.52c-6-3-1-8.66,2.79-8.29C491.71,1378.41,488.72,1387.07,484.91,1387.52Z"/><path class="a" d="M62.17,386.47c2.27,1.36,3.9,3.59,5.71,5.61C67.84,398,52.87,392,62.17,386.47Z"/><path class="a" d="M22.3,1260.8c-3.73,7.1-8.87-8.32-4.47-7.34C22.76,1254.23,24.08,1254,22.3,1260.8Z"/><path class="a" d="M98.16,1489c8.36,9.81-.52,18.94-2.06.31C96,1488.45,97.51,1488.13,98.16,1489Z"/><path class="a" d="M38.41,1449.75c2,.43,3.16.6,4.31,1C50.33,1453.06,40.31,1466.62,38.41,1449.75Z"/><path class="a" d="M502.2,1165.38c1.56,7.8-4.58,14.3-5.53,4.14C495.69,1167,501.33,1163.75,502.2,1165.38Z"/><path class="a" d="M20.85,1234c-.67,7.32-9.72-4.53-2.13-7.17C19.73,1229.79,17.13,1231.56,20.85,1234Z"/><path class="a" d="M143.63,277.32c-5.25,5.21-5-12.07-2.49-9.8C144.06,268.32,145.52,274,143.63,277.32Z"/><path class="a" d="M30.28,1489.81c.95,4.16-5,5.29-5,2.8C24.55,1488.9,26.8,1479.85,30.28,1489.81Z"/><path class="a" d="M503.69,1160c-.65,2.57-3.29.31-4.33-2C497.85,1154.59,506.49,1149,503.69,1160Z"/><path class="a" d="M147.29,221c-.29,3.51-6.59,2.34-3.55.57,2.37-1.38,2.31-1.58.3-3.19C140.3,215.65,150.44,209.91,147.29,221Z"/><path class="a" d="M488.06,1362.23c-2.24-.18-5.6-9-3.67-10.21C486.82,1350.47,488.74,1361.12,488.06,1362.23Z"/><path class="a" d="M58.53,1463.53c-.56,3.2-4.25,3.45-4.55,1.88C52.15,1455.92,59,1460.69,58.53,1463.53Z"/><path class="a" d="M172.25,86.4c-.66,1.6-3.71-3-3.83-4.78C168.26,79.24,175.29,79,172.25,86.4Z"/><path class="a" d="M99.32,513.11c-3-2.06-4-4.16-3.18-6.94C99.64,503.58,99.55,510.05,99.32,513.11Z"/><path class="a" d="M479.41,1483.25c1-1.42,1.93-4.62,4.17-3.52C485.56,1480.2,480.42,1489.31,479.41,1483.25Z"/><path class="a" d="M485.7,1440.83c-1.68,1.62-3.5.07-3.74-1.92C481.61,1436,490,1436.65,485.7,1440.83Z"/><path class="a" d="M553.48,577.13a25.15,25.15,0,0,1,.44,8.64C552.37,582.76,553,580.62,553.48,577.13Z"/><path class="a" d="M63.36,918.24c-1-1.77.12-4.43.63-4.34C69.08,914.76,65.18,921.5,63.36,918.24Z"/><path class="a" d="M538.15,241.76c-.2-2.06,2.15-2.31,3-.76C543.67,247.65,537.33,250.18,538.15,241.76Z"/><path class="a" d="M70,845.52c1.12,1,.77,3.7-1.48,5.4S68.41,844.06,70,845.52Z"/><path class="a" d="M496,1456.1c3.52-.13,3.18,4.11,2.18,4.38C496,1461.06,492.77,1456.22,496,1456.1Z"/><path class="a" d="M64.69,893.63c-1.32.36-.48-2.64.67-2.4C66.71,891.51,65.91,893.3,64.69,893.63Z"/><path class="a" d="M424.09,1383.53c-.83.21-1.55-1.15,0-2.47C425.43,1380,426,1383,424.09,1383.53Z"/><path class="a" d="M427.83,59.63c.06,5.17-1.35,6.53-3-2.52C423.86,57.84,427.68,56.19,427.83,59.63Z"/><path class="a" d="M483.21,1264.27c3.31.07,2.06,4.39.27,3.31C482.68,1265.36,479.14,1263.78,483.21,1264.27Z"/><path class="a" d="M94.42,823c-1.45-1-.91-2-.34-3C94.85,818.71,95.73,823.87,94.42,823Z"/><path class="a" d="M155.35,121.15c.84-.15.82.69-.1,2.25C153.77,125.91,153.57,121.45,155.35,121.15Z"/><path class="a" d="M91.12,439.77c-3.7-1.59-.9-6.75.75-2.71A12.6,12.6,0,0,1,91.12,439.77Z"/><path class="a" d="M99.58,342.75c0,.39-.64.77-1,1.15C96.12,341.1,99.57,334.87,99.58,342.75Z"/><path class="a" d="M143.83,241.11c-2-.47-1.79-6.85,1.34-3.07C145.66,238.63,144.94,241.37,143.83,241.11Z"/><path class="a" d="M16.86,1497.31c1.39-.31,1.46,1.49.65,1.65C16.15,1499.25,16,1497.51,16.86,1497.31Z"/><path class="a" d="M109.92,617.79c-3-.65-.15-4.9.67-3.68C112,616.13,110.91,618,109.92,617.79Z"/><path class="a" d="M497.85,1315.39l.14-.55C498.07,1316,498.08,1315.83,497.85,1315.39Z"/><path class="a" d="M142.75,1467.67c-1.63-1.09-.53-2.84,0-3.84C143.63,1465.53,143.77,1464.5,142.75,1467.67Z"/><path class="a" d="M18,1275.12c.28-.59,1.37-2.41,1.8-1.95C23.07,1276.7,16.72,1277.87,18,1275.12Z"/><path class="a" d="M171.44,98.31c-.6-2.12-.92-2.47-.42-3.23C171.72,94,173.23,94.9,171.44,98.31Z"/><path class="a" d="M24,1213.31c.18.37-.1,2.34-1.2,1.58C19.09,1211.73,22.25,1211.81,24,1213.31Z"/><path class="a" d="M512.8,1062.73c-2.38-.68-1.39-3.93.53-3.59C514.72,1061,513.69,1063.19,512.8,1062.73Z"/><path class="a" d="M507,897.35c1.2,11-5.25,3.25-.18.26Z"/><path class="a" d="M424.69,54.38c-.17-1.37.79-1.64,1.12-.58C426,53.81,424.49,60.89,424.69,54.38Z"/><path class="a" d="M111.8,621.54c-1.54,1.1-1.28.74-1.68.23C111.64,620.73,111.38,621.07,111.8,621.54Z"/><path class="a" d="M573.19,390.73c.43-.5.15-.91,1.83.3C574.61,391.55,574.88,392,573.19,390.73Z"/><path class="a" d="M162.45,334.91c-.08,1.54-1.17.69-.81-.34C161.83,334,162.49,334.08,162.45,334.91Z"/><path class="a" d="M514.84,1403.86c.67.1,1,.53.91,1.28C515.51,1407.5,513.06,1404.73,514.84,1403.86Z"/><path class="a" d="M103.4,268.39c.37.7-1.17,1.75-1.13.21A.63.63,0,0,1,103.4,268.39Z"/><path class="a" d="M66.24,1493.54c1.17,1.76,1.23,1-.15,2.67C64.94,1494.41,64.93,1495.11,66.24,1493.54Z"/><path class="a" d="M144.06,1527c.89-1.69,3-.22,2,.88S143.27,1528.53,144.06,1527Z"/><path class="a" d="M506.77,897.61c2.07-2.81-2.73-1.12.17-.26C507,897.35,506.77,897.61,506.77,897.61Z"/><path class="a" d="M507.63,1099.56l-.26-.79C508.2,1098.91,508.14,1098.72,507.63,1099.56Z"/><path class="a" d="M570.44,371.48l.35-.76C571.2,371.69,571.29,371.52,570.44,371.48Z"/><path class="a" d="M101.1,614.3c-1.2-.27-.37-1.31.48-.76C102,613.78,101.54,614.4,101.1,614.3Z"/><path class="a" d="M23.85,1160.09c1.25.45,2,1,.6,1.88C22.91,1162.67,22.69,1160.88,23.85,1160.09Z"/><path class="a" d="M530.63,195.77l.16.62C530.26,196.32,530.3,196.44,530.63,195.77Z"/><path class="a" d="M25.64,1176.33l-.69.19C25.09,1175.82,24.93,1175.86,25.64,1176.33Z"/><path class="a" d="M576.53,448.34c-.32-.85-.35-.52.17-1.21C577,447.92,577,447.69,576.53,448.34Z"/><path class="a" d="M492.64,1237.58c.53.93-.78,1.67-.86.56C491.73,1237.49,492.47,1237.29,492.64,1237.58Z"/><path class="a" d="M490.48,1249.46c-.71.27-1.27-1.26,0-2C490.78,1248.22,491.27,1249.16,490.48,1249.46Z"/><path class="a" d="M423.22,77.9c.24-.74-.89-1.65.29-2.23C424.54,76,422.88,78.08,423.22,77.9Z"/><path class="a" d="M161.3,41.36c1,0,.88-.29,0,1.5C161.68,43.17,161.39,42,161.3,41.36Z"/><path class="a" d="M154.3,290.54l-.25-.77C154.77,289.82,154.71,289.65,154.3,290.54Z"/><path class="a" d="M490.24,1423.69l-.19.59C489.36,1423.73,489.33,1423.88,490.24,1423.69Z"/><path class="a" d="M406.27,1456.32c-.24,1.25-1.38.44-.83-.48C405.68,1455.44,406.35,1455.86,406.27,1456.32Z"/><path class="a" d="M247.12,1519.53l.63.32C247,1520.21,247.1,1520.29,247.12,1519.53Z"/><path class="a" d="M59.58,1029.84l.66.11C60.27,1030.39,59.87,1030.05,59.58,1029.84Z"/><path class="a" d="M168.77,152.08c-.28-.67-.71-1.35,0-2C168.56,150,168.37,152.2,168.77,152.08Z"/><path class="a" d="M489.5,1256.18c-.88-2.83,2.79,0-.19-.2Z"/><path class="a" d="M489.31,1256c.25,1.16-1.21,1-.58.18C489.27,1256,489.78,1256.48,489.31,1256Z"/><path class="a" d="M36.62,1441.39c-.81-.4-.85,1.67.53,1C37.09,1442.06,36.89,1441.52,36.62,1441.39Z"/><path class="a" d="M37.15,1442.42l-.59-.41C36.38,1443.62,37,1441.42,37.15,1442.42Z"/><path class="a" d="M433.82,1461.42c-1.19-.91-1.19-.91,0-1.8C433.33,1459,433.34,1462,433.82,1461.42Z"/><path class="a" d="M538.37,251.2c.92-1.18.59-2.5.39-3.83C538.64,247.18,538.6,251.34,538.37,251.2Z"/><path class="a" d="M113,1533.91c0-.13-.4-.4-.52-.36C111.15,1534.13,113.08,1535.59,113,1533.91Z"/><path class="a" d="M112.08,1534.11c.16.19.32.38.49.56C113.11,1533.2,112,1535.11,112.08,1534.11Z"/><path class="a" d="M525.41,629.5c2.44,8-.6,24.32-6.76,12.77C518.89,641.84,525.71,629.85,525.41,629.5Z"/><path class="a" d="M526.66,581.56c-10.6-9.22,2.09-6.24,4.76-3.69C532.7,583.15,527.18,582.56,526.66,581.56Z"/><path class="a" d="M526.51,550.07c-.7-2.67,7.06-5.89,6.16-2.75C531.42,551.65,526.83,551.32,526.51,550.07Z"/><path class="a" d="M515.69,569.54c.26-.85,2.11,0,2.11.5C517.85,576.06,513.58,576.39,515.69,569.54Z"/><path class="a" d="M532.15,555.08c0-1.4,1.19-.62.92.25C532.9,555.86,532.13,555.65,532.15,555.08Z"/><path class="a" d="M175.84,362.25l.27.72C175.85,362.64,175.64,362.51,175.84,362.25Z"/></svg>